<?xml version="1.0" encoding="UTF-8" standalone="no"?>
<!-- Created with Inkscape (http://www.inkscape.org/) -->

<svg
   width="4.9939346mm"
   height="4.9927292mm"
   viewBox="0 0 4.9939347 4.9927291"
   version="1.1"
   id="svg6699"
   inkscape:version="1.3.2 (091e20e, 2023-11-25)"
   sodipodi:docname="cosmos_led_nand.svg"
   xmlns:inkscape="http://www.inkscape.org/namespaces/inkscape"
   xmlns:sodipodi="http://sodipodi.sourceforge.net/DTD/sodipodi-0.dtd"
   xmlns="http://www.w3.org/2000/svg"
   xmlns:svg="http://www.w3.org/2000/svg">
  <sodipodi:namedview
     id="namedview6701"
     pagecolor="#ffffff"
     bordercolor="#666666"
     borderopacity="1.0"
     inkscape:showpageshadow="2"
     inkscape:pageopacity="0.0"
     inkscape:pagecheckerboard="0"
     inkscape:deskcolor="#d1d1d1"
     inkscape:document-units="mm"
     showgrid="false"
     inkscape:zoom="29.276992"
     inkscape:cx="5.6870597"
     inkscape:cy="13.799232"
     inkscape:window-width="1392"
     inkscape:window-height="1205"
     inkscape:window-x="0"
     inkscape:window-y="25"
     inkscape:window-maximized="0"
     inkscape:current-layer="layer1" />
  <defs
     id="defs6696" />
  <g
     inkscape:label="Layer 1"
     inkscape:groupmode="layer"
     id="layer1"
     transform="translate(-68.594811,-98.941833)">
    <g
       id="g130"
       transform="matrix(0.33866667,0,0,0.33866667,26.715697,12.081991)"
       style="fill:#4d4d4d">
      <path
         d="m 138.13571,261.74761 h -14.20795 c -0.13805,0.47526 -0.22872,0.96937 -0.26896,1.47876 h 14.74587 c -0.0402,-0.50939 -0.13091,-1.0035 -0.26896,-1.47876 z"
         fill="#ffffff"
         stroke-width="0"
         id="path110"
         style="fill:#4d4d4d" />
      <path
         d="m 130.79945,271.2065 h 0.46431 c 1.57835,-0.0489 3.02935,-0.59089 4.20936,-1.47876 h -8.88277 c 1.17975,0.88787 2.63075,1.42986 4.2091,1.47876 z"
         fill="#ffffff"
         stroke-width="0"
         id="path112"
         style="fill:#4d4d4d" />
      <path
         d="m 130.11203,256.47592 c -1.31245,0.16301 -2.51512,0.66985 -3.52168,1.42732 h 3.52168 z"
         fill="#ffffff"
         stroke-width="0"
         id="path114"
         style="fill:#4d4d4d" />
      <path
         d="m 135.47286,257.90323 c -1.00656,-0.75747 -2.20898,-1.26431 -3.52142,-1.42732 v 1.42732 z"
         fill="#ffffff"
         stroke-width="0"
         id="path116"
         style="fill:#4d4d4d" />
      <path
         d="m 130.11203,259.08604 h -4.77376 c -0.37389,0.44979 -0.68921,0.94798 -0.94951,1.47876 h 5.72327 z"
         fill="#ffffff"
         stroke-width="0"
         id="path118"
         style="fill:#4d4d4d" />
      <path
         d="m 131.95144,260.5648 h 5.72327 c -0.2603,-0.53079 -0.57561,-1.02897 -0.94976,-1.47876 h -4.77351 z"
         fill="#ffffff"
         stroke-width="0"
         id="path120"
         style="fill:#4d4d4d" />
      <path
         d="m 130.11203,264.40918 h -6.45297 c 0.0405,0.50939 0.13117,1.00401 0.26972,1.47876 h 6.18325 z"
         fill="#ffffff"
         stroke-width="0"
         id="path122"
         style="fill:#4d4d4d" />
      <path
         d="m 131.95144,264.40918 v 1.47876 h 6.18325 c 0.13855,-0.47475 0.22923,-0.96937 0.26972,-1.47876 z"
         fill="#ffffff"
         stroke-width="0"
         id="path124"
         style="fill:#4d4d4d" />
      <path
         d="m 130.11203,267.07075 h -5.72123 c 0.26055,0.53079 0.57663,1.02846 0.95103,1.47825 h 4.7702 z"
         fill="#ffffff"
         stroke-width="0"
         id="path126"
         style="fill:#4d4d4d" />
      <path
         d="m 131.95144,268.54901 h 4.7702 c 0.3744,-0.44979 0.69048,-0.94747 0.95103,-1.47825 h -5.72123 z"
         fill="#ffffff"
         stroke-width="0"
         id="path128"
         style="fill:#4d4d4d" />
    </g>
  </g>
</svg>
