<?xml version="1.0" encoding="utf-8"?>
<!-- Generator: Adobe Illustrator 28.7.1, SVG Export Plug-In . SVG Version: 9.03 Build 54978)  -->
<svg version="1.0"
	 id="svg15246" xmlns:sodipodi="http://sodipodi.sourceforge.net/DTD/sodipodi-0.dtd" xmlns:inkscape="http://www.inkscape.org/namespaces/inkscape" xmlns:svg="http://www.w3.org/2000/svg"
	 xmlns="http://www.w3.org/2000/svg" xmlns:xlink="http://www.w3.org/1999/xlink" x="0px" y="0px" width="27.76841px"
	 height="27.77953px" viewBox="0 0 27.76841 27.77953" enable-background="new 0 0 27.76841 27.77953" xml:space="preserve">
<sodipodi:namedview  bordercolor="#666666" borderopacity="1.0" fit-margin-bottom="0" fit-margin-left="0" fit-margin-right="0" fit-margin-top="0" id="base" inkscape:current-layer="svg15246" inkscape:cx="29.510588" inkscape:cy="21.262879" inkscape:document-units="mm" inkscape:pagecheckerboard="0" inkscape:pageopacity="0.0" inkscape:pageshadow="2" inkscape:snap-bbox="true" inkscape:snap-bbox-midpoints="true" inkscape:snap-nodes="false" inkscape:snap-others="false" inkscape:window-height="882" inkscape:window-maximized="0" inkscape:window-width="1600" inkscape:window-x="0" inkscape:window-y="18" inkscape:zoom="10.487761" pagecolor="#ffffff" showgrid="false" units="px">
	</sodipodi:namedview>
<path fill="#212121" d="M13.8842,0.0231c-7.64648,0-13.86719,6.2207-13.86719,13.86719c0,7.64593,6.2207,13.86615,13.86719,13.86615
	s13.86719-6.22021,13.86719-13.86615C27.75139,6.2438,21.53069,0.0231,13.8842,0.0231z"/>
<path fill="#FFC561" d="M15.83666,0.95651c2.16718,0.32715,4.15515,1.18457,5.83344,2.44177h-5.83344
	C15.83666,3.39828,15.83666,0.95651,15.83666,0.95651z M11.93114,0.95651v2.44177H6.0977
	C7.77599,2.14108,9.76396,1.28365,11.93114,0.95651z M1.39543,10.16805h10.53571v2.6037H0.92162
	C0.99254,11.87484,1.1519,11.00442,1.39543,10.16805z M3.89293,22.1448c-0.66138-0.79193-1.22003-1.66864-1.68011-2.6037h9.71832
	v2.6037H3.89293z M13.8839,26.82369c-2.92383,0-5.61316-0.9754-7.78601-2.60327h15.57208
	C19.49706,25.84829,16.80779,26.82369,13.8839,26.82369z M23.87486,22.1448h-8.03821v-2.6037h9.71832
	C25.0949,20.47616,24.53624,21.35287,23.87486,22.1448z M26.37041,17.45827H1.39745c-0.24408-0.8363-0.40393-1.70679-0.47546-2.6037
	h25.92383C26.77434,15.75149,26.61443,16.62197,26.37041,17.45827z M26.84624,12.77175H15.83666v-2.6037h10.53577
	C26.61595,11.00442,26.77526,11.87484,26.84624,12.77175z M25.55864,8.0848H2.20915
	c0.45923-0.93463,1.01648-1.81134,1.67688-2.60327h19.99579C24.54216,6.27346,25.09941,7.15017,25.55864,8.0848z"/>
</svg>
