<?xml version="1.0" encoding="utf-8"?>
<!-- Generator: Adobe Illustrator 28.7.1, SVG Export Plug-In . SVG Version: 9.03 Build 54978)  -->
<svg version="1.0"
	 id="svg15246" xmlns:sodipodi="http://sodipodi.sourceforge.net/DTD/sodipodi-0.dtd" xmlns:inkscape="http://www.inkscape.org/namespaces/inkscape" xmlns:svg="http://www.w3.org/2000/svg"
	 xmlns="http://www.w3.org/2000/svg" xmlns:xlink="http://www.w3.org/1999/xlink" x="0px" y="0px" width="23.7px" height="23.7px"
	 viewBox="0 0 23.7 23.7" enable-background="new 0 0 23.7 23.7" xml:space="preserve">
<sodipodi:namedview  bordercolor="#666666" borderopacity="1.0" fit-margin-bottom="0" fit-margin-left="0" fit-margin-right="0" fit-margin-top="0" id="base" inkscape:current-layer="svg15246" inkscape:cx="29.510588" inkscape:cy="21.262879" inkscape:document-units="mm" inkscape:pagecheckerboard="0" inkscape:pageopacity="0.0" inkscape:pageshadow="2" inkscape:snap-bbox="true" inkscape:snap-bbox-midpoints="true" inkscape:snap-nodes="false" inkscape:snap-others="false" inkscape:window-height="882" inkscape:window-maximized="0" inkscape:window-width="1600" inkscape:window-x="0" inkscape:window-y="18" inkscape:zoom="10.487761" pagecolor="#ffffff" showgrid="false" units="px">
	</sodipodi:namedview>
<g id="XMLID_00000091718970133860520010000004793652642566339490_">
	<g>
		<g>
			
				<linearGradient id="SVGID_1_" gradientUnits="userSpaceOnUse" x1="1061.23169" y1="-4091.66113" x2="1084.87427" y2="-4091.66113" gradientTransform="matrix(0 1 -1 0 -4079.83984 -1061.23169)">
				<stop  offset="0.00559" style="stop-color:#FBE6A2"/>
				<stop  offset="1" style="stop-color:#6C4019"/>
			</linearGradient>
			<circle fill="url(#SVGID_1_)" cx="11.82124" cy="11.82124" r="11.82124"/>
			<circle fill="#FDD27B" cx="11.82124" cy="11.82124" r="11.1196"/>
			
				<linearGradient id="SVGID_00000081647229127185835960000018022708540482600867_" gradientUnits="userSpaceOnUse" x1="58.83342" y1="-54.61148" x2="58.83342" y2="-51.65923" gradientTransform="matrix(1 0 0 -1 -47.00625 -41.32658)">
				<stop  offset="0.00559" style="stop-color:#F9E790"/>
				<stop  offset="1" style="stop-color:#79481E"/>
			</linearGradient>
			<path fill="url(#SVGID_00000081647229127185835960000018022708540482600867_)" d="M0.82389,10.33265l-0.4575,0.44384
				c-0.46841,0.61645-0.46506,1.47048,0.00817,2.08324l0.42406,0.3934l22.04021,0.03177l0.42849-0.40917
				c0.48966-0.60995,0.49322-1.47724,0.00857-2.09118l-0.43707-0.42698L0.82389,10.33265z"/>
			
				<linearGradient id="SVGID_00000026164444427788382320000002911044558458163386_" gradientUnits="userSpaceOnUse" x1="-1241.23901" y1="-381.86859" x2="-1222.63074" y2="-381.86859" gradientTransform="matrix(0 -1 -1 0 -370.04718 -1220.1261)">
				<stop  offset="0.00559" style="stop-color:#D8B062"/>
				<stop  offset="1" style="stop-color:#845A1B"/>
			</linearGradient>
			<circle fill="url(#SVGID_00000026164444427788382320000002911044558458163386_)" cx="11.8214" cy="11.80874" r="9.30419"/>
			<circle fill="#131313" cx="11.8214" cy="11.80874" r="8.6953"/>
			<path opacity="0.37" d="M11.8214,3.68354c4.48596,0,8.12254,4.02705,8.12254,8.99466s-3.63659,9.88896-8.12254,9.88896
				s-8.12254-4.92134-8.12254-9.88896S7.33545,3.68354,11.8214,3.68354z"/>
			
				<linearGradient id="SVGID_00000075884672163082742810000017246173500908391552_" gradientUnits="userSpaceOnUse" x1="-1884.83484" y1="22.09612" x2="-1884.83484" y2="5.84558" gradientTransform="matrix(-1 0 0 -1 -1873.01343 25.77966)">
				<stop  offset="0.00559" style="stop-color:#D8B559"/>
				<stop  offset="1" style="stop-color:#805027"/>
			</linearGradient>
			<circle fill="url(#SVGID_00000075884672163082742810000017246173500908391552_)" cx="11.8214" cy="11.80881" r="8.12527"/>
			<circle fill="#FDD27B" cx="11.8214" cy="11.80881" r="7.24022"/>
			<g opacity="0.43">
				<path d="M11.82141,4.16161c4.44503,0,8.05083,3.46802,8.1164,7.76852c0.00059-0.04081,0.00611-0.08039,0.00611-0.12133
					c0-4.48747-3.63653-8.12524-8.12251-8.12524S3.69884,7.32133,3.69884,11.8088c0,0.04094,0.00552,0.08052,0.00611,0.12133
					C3.77052,7.62963,7.37638,4.16161,11.82141,4.16161z"/>
				<path opacity="0.28" fill="#563818" d="M3.70495,11.93013c-0.00058,0.03964-0.00611,0.07798-0.00611,0.11776
					c0,4.35542,3.6366,7.88621,8.12257,7.88621C7.37638,19.9341,3.77052,16.36106,3.70495,11.93013z"/>
				<path opacity="0.28" fill="#563818" d="M11.82141,19.9341c4.48597,0,8.12251-3.5308,8.12251-7.88621
					c0-0.03977-0.00552-0.07811-0.00611-0.11776C19.87224,16.36106,16.26644,19.9341,11.82141,19.9341z"/>
			</g>
			
				<linearGradient id="SVGID_00000033334740957070004090000014844569617635801487_" gradientUnits="userSpaceOnUse" x1="-1884.83484" y1="8.09971" x2="-1884.83484" y2="19.84199" gradientTransform="matrix(-1 0 0 -1 -1873.01343 25.77966)">
				<stop  offset="0.00559" style="stop-color:#E3C87E"/>
				<stop  offset="1" style="stop-color:#664515"/>
			</linearGradient>
			<circle fill="url(#SVGID_00000033334740957070004090000014844569617635801487_)" cx="11.8214" cy="11.80881" r="5.87114"/>
			<circle cx="11.8214" cy="11.80874" r="5.18246"/>
			<path fill="#121211" d="M11.82124,11.80877"/>
		</g>
	</g>
</g>
<g>
</g>
</svg>
