<?xml version="1.0" encoding="utf-8"?>
<!-- Generator: Adobe Illustrator 28.6.0, SVG Export Plug-In . SVG Version: 9.03 Build 54939)  -->
<svg version="1.0"
	 id="svg15246" xmlns:sodipodi="http://sodipodi.sourceforge.net/DTD/sodipodi-0.dtd" xmlns:svg="http://www.w3.org/2000/svg" xmlns:inkscape="http://www.inkscape.org/namespaces/inkscape" sodipodi:docname="PJ301M.svg"
	 xmlns="http://www.w3.org/2000/svg" xmlns:xlink="http://www.w3.org/1999/xlink" x="0px" y="0px" width="23.7px" height="23.7px"
	 viewBox="0 0 23.7 23.7" enable-background="new 0 0 23.7 23.7" xml:space="preserve">
<sodipodi:namedview  bordercolor="#666666" borderopacity="1.0" fit-margin-bottom="0" fit-margin-left="0" fit-margin-right="0" fit-margin-top="0" id="base" inkscape:current-layer="svg15246" inkscape:cx="29.510588" inkscape:cy="21.262879" inkscape:document-units="mm" inkscape:pagecheckerboard="0" inkscape:pageopacity="0.0" inkscape:pageshadow="2" inkscape:snap-bbox="true" inkscape:snap-bbox-midpoints="true" inkscape:snap-nodes="false" inkscape:snap-others="false" inkscape:window-height="882" inkscape:window-maximized="0" inkscape:window-width="1600" inkscape:window-x="0" inkscape:window-y="18" inkscape:zoom="10.487761" pagecolor="#ffffff" showgrid="false" units="px">
	</sodipodi:namedview>
<g id="XMLID_00000180338290214816027280000004294360358500142521_">
	<g>
		<g>
			
				<linearGradient id="SVGID_1_" gradientUnits="userSpaceOnUse" x1="1061.25928" y1="-4091.68872" x2="1084.90173" y2="-4091.68872" gradientTransform="matrix(0 1 -1 0 -4079.83984 -1061.23169)">
				<stop  offset="0.00559" style="stop-color:#FAE6A7"/>
				<stop  offset="1" style="stop-color:#86480C"/>
			</linearGradient>
			<circle fill="url(#SVGID_1_)" cx="11.84882" cy="11.84882" r="11.82124"/>
			<circle fill="#F9D679" cx="11.84882" cy="11.84882" r="11.1196"/>
			
				<linearGradient id="SVGID_00000121238474181257476110000006770350010261097123_" gradientUnits="userSpaceOnUse" x1="58.86099" y1="-54.63906" x2="58.86099" y2="-51.68681" gradientTransform="matrix(1 0 0 -1 -47.00625 -41.32658)">
				<stop  offset="0.00559" style="stop-color:#FAE891"/>
				<stop  offset="1" style="stop-color:#86480C"/>
			</linearGradient>
			<path fill="url(#SVGID_00000121238474181257476110000006770350010261097123_)" d="M0.85147,10.36023l-0.4575,0.44384
				c-0.46841,0.61645-0.46506,1.47048,0.00817,2.08324l0.42406,0.3934l22.04021,0.03177l0.42849-0.40917
				c0.48966-0.60995,0.49322-1.47724,0.00857-2.09118l-0.43707-0.42698L0.85147,10.36023z"/>
			
				<linearGradient id="SVGID_00000047777317264105193300000003738654006289998985_" gradientUnits="userSpaceOnUse" x1="-1241.2666" y1="-381.89615" x2="-1222.65833" y2="-381.89615" gradientTransform="matrix(0 -1 -1 0 -370.04718 -1220.1261)">
				<stop  offset="0.00559" style="stop-color:#EDC26C"/>
				<stop  offset="1" style="stop-color:#86480C"/>
			</linearGradient>
			<circle fill="url(#SVGID_00000047777317264105193300000003738654006289998985_)" cx="11.84898" cy="11.83632" r="9.30419"/>
			<circle fill="#141414" cx="11.84898" cy="11.83631" r="8.6953"/>
			<path opacity="0.37" d="M11.84898,3.71112c4.48596,0,8.12255,4.02705,8.12255,8.99466s-3.63659,9.88896-8.12255,9.88896
				s-8.12254-4.92134-8.12254-9.88896S7.36302,3.71112,11.84898,3.71112z"/>
			
				<linearGradient id="SVGID_00000116210571253322079180000004544444478515769985_" gradientUnits="userSpaceOnUse" x1="-1884.86243" y1="22.06855" x2="-1884.86243" y2="5.818" gradientTransform="matrix(-1 0 0 -1 -1873.01343 25.77966)">
				<stop  offset="0.00559" style="stop-color:#F8CC59"/>
				<stop  offset="1" style="stop-color:#86480C"/>
			</linearGradient>
			<circle fill="url(#SVGID_00000116210571253322079180000004544444478515769985_)" cx="11.84898" cy="11.83639" r="8.12527"/>
			<circle fill="#F9D679" cx="11.84898" cy="11.83639" r="7.24022"/>
			<g opacity="0.43">
				<path d="M11.84899,4.18919c4.44503,0,8.05082,3.46802,8.1164,7.76852c0.00059-0.04081,0.00611-0.08039,0.00611-0.12133
					c0-4.48747-3.63653-8.12524-8.12251-8.12524s-8.12257,3.63777-8.12257,8.12524c0,0.04094,0.00552,0.08052,0.00611,0.12133
					C3.7981,7.65721,7.40396,4.18919,11.84899,4.18919z"/>
				<path opacity="0.28" fill="#563818" d="M3.73253,11.95771c-0.00058,0.03964-0.00611,0.07798-0.00611,0.11776
					c0,4.35542,3.6366,7.88621,8.12257,7.88621C7.40396,19.96168,3.7981,16.38864,3.73253,11.95771z"/>
				<path opacity="0.28" fill="#563818" d="M11.84899,19.96168c4.48597,0,8.12251-3.5308,8.12251-7.88621
					c0-0.03977-0.00552-0.07811-0.00611-0.11776C19.89981,16.38864,16.29402,19.96168,11.84899,19.96168z"/>
			</g>
			
				<linearGradient id="SVGID_00000041993108818038521940000017513333034521991048_" gradientUnits="userSpaceOnUse" x1="-1884.86243" y1="8.07213" x2="-1884.86243" y2="19.81441" gradientTransform="matrix(-1 0 0 -1 -1873.01343 25.77966)">
				<stop  offset="0.00559" style="stop-color:#F1DB9E"/>
				<stop  offset="1" style="stop-color:#86480C"/>
			</linearGradient>
			<circle fill="url(#SVGID_00000041993108818038521940000017513333034521991048_)" cx="11.84898" cy="11.83639" r="5.87114"/>
			<circle cx="11.84898" cy="11.83631" r="5.18246"/>
			<path fill="#121212" d="M11.84882,11.83635"/>
		</g>
	</g>
</g>
<g>
</g>
</svg>
