<?xml version="1.0" encoding="utf-8"?>
<!-- Generator: Adobe Illustrator 28.6.0, SVG Export Plug-In . SVG Version: 9.03 Build 54939)  -->
<svg version="1.0"
	 id="svg15246" xmlns:sodipodi="http://sodipodi.sourceforge.net/DTD/sodipodi-0.dtd" xmlns:svg="http://www.w3.org/2000/svg" xmlns:inkscape="http://www.inkscape.org/namespaces/inkscape" sodipodi:docname="PJ301M.svg"
	 xmlns="http://www.w3.org/2000/svg" xmlns:xlink="http://www.w3.org/1999/xlink" x="0px" y="0px" width="7.82929px"
	 height="7.82929px" viewBox="0 0 7.82929 7.82929" enable-background="new 0 0 7.82929 7.82929" xml:space="preserve">
<sodipodi:namedview  bordercolor="#666666" borderopacity="1.0" fit-margin-bottom="0" fit-margin-left="0" fit-margin-right="0" fit-margin-top="0" id="base" inkscape:current-layer="svg15246" inkscape:cx="29.510588" inkscape:cy="21.262879" inkscape:document-units="mm" inkscape:pagecheckerboard="0" inkscape:pageopacity="0.0" inkscape:pageshadow="2" inkscape:snap-bbox="true" inkscape:snap-bbox-midpoints="true" inkscape:snap-nodes="false" inkscape:snap-others="false" inkscape:window-height="882" inkscape:window-maximized="0" inkscape:window-width="1600" inkscape:window-x="0" inkscape:window-y="18" inkscape:zoom="10.487761" pagecolor="#ffffff" showgrid="false" units="px">
	</sodipodi:namedview>
<g>
	<path fill="#4D4D4D" d="M3.7488,5.36639c0.00408,0.00917,0.01324,0.01324,0.02547,0.01324h1.30812
		c0.02038,0,0.03871,0.00713,0.05298,0.02139c0.01426,0.01426,0.02241,0.0326,0.02241,0.05298V6.0612
		c0,0.02139-0.00815,0.03871-0.02241,0.05298C5.1211,6.12946,5.10276,6.13659,5.08238,6.13659H2.76669
		c-0.02139,0-0.03871-0.00713-0.054-0.02241C2.69843,6.09992,2.6913,6.0826,2.6913,6.0612V5.42956
		c0-0.03769,0.01019-0.06928,0.03158-0.09373C2.88894,5.11475,3.0061,4.96397,3.07334,4.88451
		c0.36676-0.4717,0.62757-0.82827,0.78243-1.06972c0.22515-0.35963,0.33722-0.66221,0.33722-0.90774
		c0-0.14263-0.02751-0.25164-0.08354-0.32907C4.05239,2.50056,3.97599,2.46184,3.88022,2.46184S3.70703,2.50056,3.64896,2.57798
		c-0.05807,0.07743-0.08558,0.17625-0.0815,0.29748V3.1322c0,0.02038-0.00713,0.03871-0.02139,0.05298
		c-0.01528,0.01528-0.0326,0.02241-0.054,0.02241H2.74733c-0.02038,0-0.03871-0.00713-0.05298-0.02241
		C2.68009,3.17091,2.67194,3.15258,2.67194,3.1322V2.83777C2.68926,2.49546,2.81254,2.22141,3.04176,2.0146
		c0.22923-0.20681,0.52162-0.30971,0.87615-0.30971c0.35046,0,0.63368,0.11105,0.84865,0.33212
		C4.98152,2.25808,5.0885,2.54946,5.0885,2.91316c0,0.217-0.03464,0.42381-0.1029,0.61942
		C4.91632,3.72921,4.80426,3.93908,4.65042,4.16525C4.53326,4.3364,4.33358,4.60332,4.04934,4.96601L3.75491,5.34194
		C3.74676,5.35009,3.74472,5.35824,3.7488,5.36639z"/>
</g>
</svg>
