<?xml version="1.0" encoding="utf-8"?>
<!-- Generator: Adobe Illustrator 28.6.0, SVG Export Plug-In . SVG Version: 9.03 Build 54939)  -->
<svg version="1.0"
	 id="svg15246" xmlns:sodipodi="http://sodipodi.sourceforge.net/DTD/sodipodi-0.dtd" xmlns:svg="http://www.w3.org/2000/svg" xmlns:inkscape="http://www.inkscape.org/namespaces/inkscape" sodipodi:docname="PJ301M.svg"
	 xmlns="http://www.w3.org/2000/svg" xmlns:xlink="http://www.w3.org/1999/xlink" x="0px" y="0px" width="7.82929px"
	 height="7.82929px" viewBox="0 0 7.82929 7.82929" enable-background="new 0 0 7.82929 7.82929" xml:space="preserve">
<sodipodi:namedview  bordercolor="#666666" borderopacity="1.0" fit-margin-bottom="0" fit-margin-left="0" fit-margin-right="0" fit-margin-top="0" id="base" inkscape:current-layer="svg15246" inkscape:cx="29.510588" inkscape:cy="21.262879" inkscape:document-units="mm" inkscape:pagecheckerboard="0" inkscape:pageopacity="0.0" inkscape:pageshadow="2" inkscape:snap-bbox="true" inkscape:snap-bbox-midpoints="true" inkscape:snap-nodes="false" inkscape:snap-others="false" inkscape:window-height="882" inkscape:window-maximized="0" inkscape:window-width="1600" inkscape:window-x="0" inkscape:window-y="18" inkscape:zoom="10.487761" pagecolor="#ffffff" showgrid="false" units="px">
	</sodipodi:namedview>
<g>
	<path fill="#4D4D4D" d="M5.10734,4.69706c0,0.18338-0.00815,0.34027-0.02445,0.46966
		c-0.03362,0.30054-0.14976,0.5369-0.3474,0.71009C4.53683,6.05001,4.27092,6.13661,3.93676,6.13661
		c-0.34639,0-0.62757-0.09169-0.84457-0.27507c-0.217-0.18338-0.33416-0.42789-0.35046-0.7325
		c-0.01324-0.11308-0.01936-0.2333-0.01936-0.36269c0-0.05094,0.02547-0.07539,0.07539-0.07539h0.7325
		c0.04992,0,0.07539,0.02445,0.07539,0.07539c0,0.09577,0.00611,0.18542,0.01834,0.26896
		c0.01223,0.10799,0.04585,0.19255,0.09984,0.25368c0.05501,0.06011,0.12531,0.09067,0.21293,0.09067
		c0.08354,0,0.15282-0.02954,0.20681-0.08762c0.054-0.05909,0.08965-0.13754,0.10595-0.2384
		c0.01324-0.14569,0.01936-0.29647,0.01936-0.4503c0-0.19663-0.01019-0.35046-0.03158-0.46355
		C4.221,4.04402,4.18637,3.96965,4.13441,3.9177C4.08245,3.86574,4.01623,3.83925,3.93676,3.83925
		c-0.06215,0-0.12531,0.02751-0.18746,0.0815C3.72384,3.93807,3.70754,3.94622,3.69939,3.94622
		c-0.01732,0-0.03566-0.01019-0.05705-0.03158L3.26742,3.5326C3.2501,3.5163,3.24195,3.49694,3.24195,3.47656
		c0-0.0163,0.00611-0.03362,0.01936-0.04992l0.75696-0.93321c0.00815-0.00815,0.01019-0.0163,0.00611-0.02445
		C4.0203,2.46084,4.01215,2.45574,3.99993,2.45574H2.87315c-0.02139,0-0.03871-0.00713-0.05298-0.02139
		C2.8049,2.42008,2.79776,2.40175,2.79776,2.38137V1.78029c0-0.02139,0.00713-0.03871,0.02241-0.05298
		C2.83444,1.71203,2.85176,1.7049,2.87315,1.7049h2.15269c0.02139,0,0.03871,0.00713,0.054,0.02241
		C5.0941,1.74158,5.10123,1.75889,5.10123,1.78029v0.62553c0,0.03362-0.01019,0.0652-0.03158,0.09373L4.36873,3.38283
		c-0.00408,0.00815-0.00611,0.0163-0.00611,0.02445c0,0.00917,0.00408,0.01324,0.01223,0.01324
		c0.1844,0.0163,0.33925,0.09984,0.4666,0.2496c0.12735,0.15078,0.20579,0.33824,0.23432,0.56339
		C5.09716,4.39245,5.10734,4.5473,5.10734,4.69706z"/>
</g>
</svg>
