<?xml version="1.0" encoding="utf-8"?>
<!-- Generator: Adobe Illustrator 28.6.0, SVG Export Plug-In . SVG Version: 9.03 Build 54939)  -->
<svg version="1.0"
	 id="svg15246" xmlns:sodipodi="http://sodipodi.sourceforge.net/DTD/sodipodi-0.dtd" xmlns:svg="http://www.w3.org/2000/svg" xmlns:inkscape="http://www.inkscape.org/namespaces/inkscape" sodipodi:docname="PJ301M.svg"
	 xmlns="http://www.w3.org/2000/svg" xmlns:xlink="http://www.w3.org/1999/xlink" x="0px" y="0px" width="7.82929px"
	 height="7.82929px" viewBox="0 0 7.82929 7.82929" enable-background="new 0 0 7.82929 7.82929" xml:space="preserve">
<sodipodi:namedview  bordercolor="#666666" borderopacity="1.0" fit-margin-bottom="0" fit-margin-left="0" fit-margin-right="0" fit-margin-top="0" id="base" inkscape:current-layer="svg15246" inkscape:cx="29.510588" inkscape:cy="21.262879" inkscape:document-units="mm" inkscape:pagecheckerboard="0" inkscape:pageopacity="0.0" inkscape:pageshadow="2" inkscape:snap-bbox="true" inkscape:snap-bbox-midpoints="true" inkscape:snap-nodes="false" inkscape:snap-others="false" inkscape:window-height="882" inkscape:window-maximized="0" inkscape:window-width="1600" inkscape:window-x="0" inkscape:window-y="18" inkscape:zoom="10.487761" pagecolor="#ffffff" showgrid="false" units="px">
	</sodipodi:namedview>
<g>
	<path fill="#4D4D4D" d="M5.31976,4.23099c0.01426,0.01426,0.02241,0.0326,0.02241,0.05298v0.64489
		c0,0.02038-0.00815,0.03871-0.02241,0.05298C5.3055,4.99609,5.28716,5.00424,5.26678,5.00424H5.0722
		c-0.02038,0-0.03056,0.01019-0.03056,0.03056v1.00146c0,0.02139-0.00713,0.03871-0.02241,0.05298
		c-0.01426,0.01528-0.0326,0.02241-0.05298,0.02241h-0.7325c-0.02038,0-0.03871-0.00713-0.05298-0.02241
		C4.1665,6.07498,4.15835,6.05766,4.15835,6.03627V5.0348c0-0.02038-0.01019-0.03056-0.03056-0.03056H2.56293
		c-0.02139,0-0.03871-0.00815-0.05298-0.02241c-0.01528-0.01426-0.02241-0.0326-0.02241-0.05298V4.41538
		c0-0.03769,0.00408-0.06928,0.01223-0.09373l0.83235-2.52862c0.01324-0.04177,0.03973-0.06316,0.0815-0.06316h0.79567
		c0.02445,0,0.04381,0.00713,0.05603,0.02241c0.01223,0.01426,0.01426,0.03668,0.00611,0.0652L3.52059,4.17088
		C3.51652,4.19635,3.52467,4.20857,3.54504,4.20857h0.58274c0.02038,0,0.03056-0.01019,0.03056-0.03056v-0.651
		c0-0.02139,0.00815-0.03871,0.02241-0.054c0.01426-0.01426,0.0326-0.02139,0.05298-0.02139h0.7325
		c0.02038,0,0.03871,0.00713,0.05298,0.02139c0.01528,0.01528,0.02241,0.0326,0.02241,0.054v0.651
		c0,0.02038,0.01019,0.03056,0.03056,0.03056h0.19459C5.28716,4.20857,5.3055,4.2157,5.31976,4.23099z"/>
</g>
</svg>
