<?xml version="1.0" encoding="utf-8"?>
<!-- Generator: Adobe Illustrator 28.6.0, SVG Export Plug-In . SVG Version: 9.03 Build 54939)  -->
<svg version="1.0"
	 id="svg15246" xmlns:sodipodi="http://sodipodi.sourceforge.net/DTD/sodipodi-0.dtd" xmlns:svg="http://www.w3.org/2000/svg" xmlns:inkscape="http://www.inkscape.org/namespaces/inkscape" sodipodi:docname="PJ301M.svg"
	 xmlns="http://www.w3.org/2000/svg" xmlns:xlink="http://www.w3.org/1999/xlink" x="0px" y="0px" width="7.82929px"
	 height="7.82929px" viewBox="0 0 7.82929 7.82929" enable-background="new 0 0 7.82929 7.82929" xml:space="preserve">
<sodipodi:namedview  bordercolor="#666666" borderopacity="1.0" fit-margin-bottom="0" fit-margin-left="0" fit-margin-right="0" fit-margin-top="0" id="base" inkscape:current-layer="svg15246" inkscape:cx="29.510588" inkscape:cy="21.262879" inkscape:document-units="mm" inkscape:pagecheckerboard="0" inkscape:pageopacity="0.0" inkscape:pageshadow="2" inkscape:snap-bbox="true" inkscape:snap-bbox-midpoints="true" inkscape:snap-nodes="false" inkscape:snap-others="false" inkscape:window-height="882" inkscape:window-maximized="0" inkscape:window-width="1600" inkscape:window-x="0" inkscape:window-y="18" inkscape:zoom="10.487761" pagecolor="#ffffff" showgrid="false" units="px">
	</sodipodi:namedview>
<g>
	<path fill="#4D4D4D" d="M3.83081,1.72986h0.75696c0.02038,0,0.03871,0.00764,0.05298,0.0219
		c0.01528,0.01477,0.02241,0.0326,0.02241,0.05349v4.23152c0,0.02088-0.00713,0.0382-0.02241,0.05298
		c-0.01426,0.01477-0.0326,0.0219-0.05298,0.0219H3.85526c-0.02038,0-0.03871-0.00713-0.05298-0.0219
		S3.77987,6.05765,3.77987,6.03677V2.61875c0-0.0163-0.01019-0.02496-0.03056-0.02496L3.26742,2.65033H3.25418
		c-0.04585,0-0.06826-0.02292-0.06826-0.06877L3.16656,2.04314c0-0.04177,0.01936-0.07081,0.05705-0.08762l0.51245-0.20681
		C3.76968,1.73649,3.80127,1.72986,3.83081,1.72986z"/>
</g>
</svg>
