<?xml version="1.0" encoding="UTF-8" standalone="no"?>
<!-- Generator: Adobe Illustrator 28.6.0, SVG Export Plug-In . SVG Version: 9.03 Build 54939)  -->

<svg
   version="1.0"
   id="svg15246"
   sodipodi:docname="goma_1.svg"
   x="0px"
   y="0px"
   width="7.82929px"
   height="7.82929px"
   viewBox="0 0 7.82929 7.82929"
   enable-background="new 0 0 7.82929 7.82929"
   xml:space="preserve"
   inkscape:version="1.3.2 (091e20e, 2023-11-25)"
   xmlns:inkscape="http://www.inkscape.org/namespaces/inkscape"
   xmlns:sodipodi="http://sodipodi.sourceforge.net/DTD/sodipodi-0.dtd"
   xmlns="http://www.w3.org/2000/svg"
   xmlns:svg="http://www.w3.org/2000/svg"><defs
   id="defs1" />
<sodipodi:namedview
   bordercolor="#666666"
   borderopacity="1.0"
   fit-margin-bottom="0"
   fit-margin-left="0"
   fit-margin-right="0"
   fit-margin-top="0"
   id="base"
   inkscape:current-layer="svg15246"
   inkscape:cx="4.7148438"
   inkscape:cy="5.7402344"
   inkscape:document-units="mm"
   inkscape:pagecheckerboard="0"
   inkscape:pageopacity="0.0"
   inkscape:pageshadow="2"
   inkscape:snap-bbox="true"
   inkscape:snap-bbox-midpoints="true"
   inkscape:snap-nodes="false"
   inkscape:snap-others="false"
   inkscape:window-height="882"
   inkscape:window-maximized="0"
   inkscape:window-width="1600"
   inkscape:window-x="0"
   inkscape:window-y="25"
   inkscape:zoom="256"
   pagecolor="#ffffff"
   showgrid="false"
   units="px"
   inkscape:showpageshadow="2"
   inkscape:deskcolor="#d1d1d1"
   showguides="false">
	</sodipodi:namedview>
<g
   id="g1">
	<path
   fill="#4d4d4d"
   d="m 3.83081,1.72986 h 0.75696 c 0.038722,0 0.07539,0.030441 0.07539,0.07539 v 4.23152 c 0,0.042316 -0.03414,0.07488 -0.07539,0.07488 H 3.85526 c -0.045539,0 -0.07539,-0.037741 -0.07539,-0.07488 V 2.61875 c 0,-0.0163 -0.01019,-0.02496 -0.03056,-0.02496 -0.1647581,0.020632 -0.3303344,0.037722 -0.49513,0.05654 -0.04585,0 -0.08762,-0.02292 -0.08762,-0.06877 V 2.04314 c 0,-0.04177 0.01936,-0.07081 0.05705,-0.08762 L 3.73606,1.74871 C 3.76968,1.73649 3.80127,1.72986 3.83081,1.72986 Z"
   id="path1"
   sodipodi:nodetypes="sssssssscsccccs" />
</g>
</svg>
