<?xml version="1.0" encoding="UTF-8" standalone="no"?>
<!-- Created with Inkscape (http://www.inkscape.org/) -->

<svg
   width="2.3968954mm"
   height="1.4817539mm"
   viewBox="0 0 2.3968954 1.4817539"
   version="1.1"
   id="svg485"
   inkscape:version="1.2.1 (9c6d41e, 2022-07-14)"
   sodipodi:docname="goma_led_ext.svg"
   xmlns:inkscape="http://www.inkscape.org/namespaces/inkscape"
   xmlns:sodipodi="http://sodipodi.sourceforge.net/DTD/sodipodi-0.dtd"
   xmlns="http://www.w3.org/2000/svg"
   xmlns:svg="http://www.w3.org/2000/svg">
  <sodipodi:namedview
     id="namedview487"
     pagecolor="#ffffff"
     bordercolor="#666666"
     borderopacity="1.0"
     inkscape:showpageshadow="2"
     inkscape:pageopacity="0.0"
     inkscape:pagecheckerboard="0"
     inkscape:deskcolor="#d1d1d1"
     inkscape:document-units="mm"
     showgrid="false"
     inkscape:zoom="20.70196"
     inkscape:cx="0.12076152"
     inkscape:cy="-12.293522"
     inkscape:window-width="1390"
     inkscape:window-height="1205"
     inkscape:window-x="0"
     inkscape:window-y="25"
     inkscape:window-maximized="0"
     inkscape:current-layer="layer1" />
  <defs
     id="defs482" />
  <g
     inkscape:label="Layer 1"
     inkscape:groupmode="layer"
     id="layer1"
     transform="translate(-45.072243,-77.919298)">
    <g
       id="g70"
       transform="matrix(0.33815792,0,0,0.33815792,27.862913,53.262662)"
       style="fill:#808080">
      <path
         d="m 53.53711,73.65015 c -0.01426,0.01528 -0.03158,0.02241 -0.05298,0.02241 h -1.27042 c -0.02139,0 -0.03158,0.01019 -0.03158,0.03056 l -0.12531,0.98924 c 0,0.02139 0.0092,0.03158 0.02547,0.03158 h 0.7325 c 0.02038,0 0.03769,0.0071 0.04992,0.02139 0.01223,0.01528 0.0163,0.0326 0.01223,0.054 l -0.07437,0.60719 c -0.0051,0.02038 -0.01426,0.03769 -0.02853,0.05298 -0.01528,0.01426 -0.0326,0.02139 -0.05298,0.02139 h -0.72639 c -0.02547,0 -0.03769,0.01121 -0.03769,0.03158 l -0.1192,0.99535 c -0.0082,0.02038 0,0.03158 0.02547,0.03158 h 1.26431 c 0.02038,0 0.03871,0.0071 0.05298,0.02139 0.01528,0.01426 0.02038,0.0326 0.0163,0.05298 l -0.07539,0.60719 c -0.0041,0.02139 -0.01324,0.03871 -0.02853,0.05298 -0.01426,0.01528 -0.0326,0.02241 -0.05298,0.02241 h -2.08443 c -0.02139,0 -0.03769,-0.0071 -0.04992,-0.02241 -0.01223,-0.01426 -0.01732,-0.03158 -0.01223,-0.05298 l 0.51958,-4.23101 c 0.0041,-0.02139 0.01324,-0.03871 0.02751,-0.05298 0.01528,-0.01528 0.0326,-0.02241 0.05298,-0.02241 h 2.08443 c 0.02139,0 0.03769,0.0071 0.05094,0.02241 0.01223,0.01426 0.0163,0.03158 0.01223,0.05298 l -0.07539,0.60719 c -0.0041,0.02038 -0.01324,0.03871 -0.02853,0.05298 z"
         fill="#ffffff"
         stroke-width="0"
         id="path64"
         style="fill:#808080" />
      <path
         d="m 53.37818,77.27396 c -0.0092,-0.01426 -0.0041,-0.03566 0.01223,-0.0652 l 0.87615,-1.5027 0.0061,-0.03668 -0.51347,-1.5027 -0.0061,-0.02547 c 0,-0.04075 0.02547,-0.06215 0.07539,-0.06215 h 0.77631 c 0.04177,0 0.06826,0.01834 0.0815,0.05603 l 0.20579,0.70805 c 0.01324,0.02445 0.02547,0.02445 0.03769,0 l 0.38204,-0.70805 c 0.02139,-0.03769 0.05196,-0.05603 0.09373,-0.05603 h 0.7702 c 0.02954,0 0.04788,0.0071 0.05603,0.02139 0.0082,0.01528 0.0041,0.03668 -0.01223,0.06622 l -0.87615,1.5027 c -0.0041,0.01223 -0.0041,0.02445 0,0.03668 l 0.50634,1.5027 0.0071,0.02547 c 0,0.04177 -0.02547,0.06215 -0.07539,0.06215 h -0.7702 c -0.04177,0 -0.06622,-0.01834 -0.07539,-0.05603 l -0.21191,-0.7325 c -0.0092,-0.03362 -0.01936,-0.03362 -0.03158,0 l -0.38816,0.7325 c -0.01732,0.03769 -0.04788,0.05603 -0.09373,0.05603 h -0.77631 c -0.02954,0 -0.04788,-0.0071 -0.05603,-0.02241 z"
         fill="#ffffff"
         stroke-width="0"
         id="path66"
         style="fill:#808080" />
      <path
         d="m 57.89343,74.67708 c -0.01426,0.01426 -0.0326,0.02139 -0.05298,0.02139 H 57.4961 c -0.0082,0 -0.01528,0.0031 -0.02241,0.0092 -0.0061,0.0071 -0.0092,0.01426 -0.0092,0.02241 l -0.18134,1.48946 c -0.0041,0.02139 -0.0061,0.04992 -0.0061,0.08762 0,0.08762 0.01936,0.14874 0.05909,0.18134 0.03973,0.03362 0.0978,0.0489 0.17217,0.04381 h 0.04381 c 0.02139,0 0.03769,0.0082 0.04992,0.02241 0.01324,0.01426 0.01732,0.0326 0.01324,0.05298 l -0.07539,0.61331 c -0.0041,0.02139 -0.01324,0.03871 -0.02853,0.05298 -0.01426,0.01528 -0.03158,0.02241 -0.05298,0.02241 h -0.24451 c -0.26692,0 -0.46864,-0.04075 -0.60618,-0.12225 -0.13855,-0.0815 -0.20681,-0.23432 -0.20681,-0.45947 0,-0.02954 0.0041,-0.0815 0.01223,-0.15689 l 0.22515,-1.8277 c 0,-0.02038 -0.0082,-0.03158 -0.02445,-0.03158 h -0.2007 c -0.02038,0 -0.03769,-0.0071 -0.04992,-0.02139 -0.01223,-0.01528 -0.01732,-0.0326 -0.01223,-0.05298 l 0.05603,-0.46966 c 0.0041,-0.02139 0.01324,-0.03871 0.02853,-0.054 0.01426,-0.01426 0.03158,-0.02139 0.05298,-0.02139 h 0.19968 c 0.02139,0 0.03158,-0.01019 0.03158,-0.03158 l 0.08762,-0.69481 c 0.0041,-0.02038 0.01324,-0.03871 0.02853,-0.05298 0.01426,-0.01426 0.03158,-0.02139 0.05298,-0.02139 h 0.68258 c 0.02038,0 0.03769,0.0071 0.04992,0.02139 0.01223,0.01426 0.0163,0.0326 0.01223,0.05298 L 57.546,74.04751 c 0,0.02139 0.01019,0.03158 0.03158,0.03158 h 0.33824 c 0.02038,0 0.03668,0.0071 0.04992,0.02139 0.01223,0.01528 0.0163,0.0326 0.01223,0.054 l -0.05603,0.46966 c -0.0041,0.02038 -0.01426,0.03769 -0.02853,0.05298 z"
         fill="#ffffff"
         stroke-width="0"
         id="path68"
         style="fill:#808080" />
    </g>
  </g>
</svg>
