<?xml version="1.0" encoding="utf-8"?>
<!-- Generator: Adobe Illustrator 28.6.0, SVG Export Plug-In . SVG Version: 9.03 Build 54939)  -->
<svg version="1.0"
	 id="svg113936" xmlns:sodipodi="http://sodipodi.sourceforge.net/DTD/sodipodi-0.dtd" xmlns:svg="http://www.w3.org/2000/svg" xmlns:inkscape="http://www.inkscape.org/namespaces/inkscape" xmlns:dc="http://purl.org/dc/elements/1.1/" xmlns:rdf="http://www.w3.org/1999/02/22-rdf-syntax-ns#" xmlns:cc="http://creativecommons.org/ns#"
	 xmlns="http://www.w3.org/2000/svg" xmlns:xlink="http://www.w3.org/1999/xlink" x="0px" y="0px" width="35.43307px"
	 height="35.43307px" viewBox="0 0 35.43307 35.43307" enable-background="new 0 0 35.43307 35.43307" xml:space="preserve">
<sodipodi:namedview  bordercolor="#666666" borderopacity="1.0" fit-margin-bottom="0" fit-margin-left="0" fit-margin-right="0" fit-margin-top="0" id="base" inkscape:current-layer="layer1" inkscape:cx="-45.569736" inkscape:cy="83.754679" inkscape:document-units="mm" inkscape:pageopacity="0.0" inkscape:pageshadow="2" inkscape:window-height="1422" inkscape:window-maximized="0" inkscape:window-width="2560" inkscape:window-x="0" inkscape:window-y="18" inkscape:zoom="2.8" pagecolor="#ffffff" showgrid="false">
	</sodipodi:namedview>
<g>
	
		<linearGradient id="SVGID_1_" gradientUnits="userSpaceOnUse" x1="-2978.98999" y1="2146.32617" x2="-2953.47876" y2="2146.32617" gradientTransform="matrix(0 1 1 0 -2341.22681 353.78467)">
		<stop  offset="0" style="stop-color:#828181"/>
		<stop  offset="1" style="stop-color:#575757"/>
	</linearGradient>
	<path fill="url(#SVGID_1_)" d="M-194.90036-2599.69409c-7.03368,0-12.75618-5.72192-12.75618-12.75513
		c0-7.03418,5.7225-12.7561,12.75618-12.7561c7.03366,0,12.75563,5.72192,12.75563,12.7561
		C-182.14473-2605.41602-187.86668-2599.69409-194.90036-2599.69409z"/>
</g>
<linearGradient id="SVGID_00000141456082147906610310000009789177501152900503_" gradientUnits="userSpaceOnUse" x1="-1314.95959" y1="-4441.63232" x2="-1290.2218" y2="-4441.63232" gradientTransform="matrix(0 1 -1 0 -4636.53271 -1309.84607)">
	<stop  offset="0.00559" style="stop-color:#FFFFFF"/>
	<stop  offset="1" style="stop-color:#7A7A7A"/>
</linearGradient>
<circle fill="url(#SVGID_00000141456082147906610310000009789177501152900503_)" cx="-194.90063" cy="-2612.43677" r="12.3689"/>
<circle fill="#E0E0E0" cx="-194.90063" cy="-2612.43677" r="11.63477"/>
<linearGradient id="SVGID_00000008150045012861446400000015984151209129429890_" gradientUnits="userSpaceOnUse" x1="-147.8882" y1="1764.27112" x2="-147.8882" y2="1767.35999" gradientTransform="matrix(1 0 0 -1 -47.00625 -846.63409)">
	<stop  offset="0" style="stop-color:#FFFBFD"/>
	<stop  offset="1" style="stop-color:#808080"/>
</linearGradient>
<path fill="url(#SVGID_00000008150045012861446400000015984151209129429890_)" d="M-206.4075-2613.99414l-0.4787,0.46436
	c-0.49011,0.64502-0.48662,1.53857,0.00854,2.17969l0.44371,0.41162l23.06136,0.0332l0.44835-0.42798
	c0.51234-0.63818,0.51607-1.54565,0.00896-2.18823l-0.45732-0.44678L-206.4075-2613.99414z"/>
<path opacity="0.3" enable-background="new    " d="M-194.90047-2620.95142c5.88124,0,10.64893,4.5332,10.64893,10.12524
	s-4.76768,11.13208-10.64893,11.13208s-10.64893-5.54004-10.64893-11.13208S-200.78171-2620.95142-194.90047-2620.95142z"/>
<linearGradient id="path109732_00000157300738358205472460000003625115639021727150_" gradientUnits="userSpaceOnUse" x1="-1029.05115" y1="-4008.96753" x2="-1008.48846" y2="-4008.96753" gradientTransform="matrix(0 1 -1 0 -4203.86816 -1593.66675)">
	<stop  offset="0" style="stop-color:#828181"/>
	<stop  offset="1" style="stop-color:#575757"/>
</linearGradient>
<path id="path109732_00000021825409866966656510000016532748346234210446_" inkscape:connector-curvature="0" fill="url(#path109732_00000157300738358205472460000003625115639021727150_)" d="
	M-197.19408-2602.4165c-5.53403-1.2666-8.99316-6.77954-7.72653-12.31372c1.26665-5.53394,6.77956-8.99316,12.31357-7.72632
	c5.53101,1.2666,8.99315,6.77954,7.72653,12.31348C-186.14717-2604.61206-191.66006-2601.1499-197.19408-2602.4165"/>
<linearGradient id="path109732_00000052098930349191730060000003089782745466139779_" gradientUnits="userSpaceOnUse" x1="-1028.82898" y1="-4008.96753" x2="-1008.71069" y2="-4008.96753" gradientTransform="matrix(0 1 -1 0 -4203.86816 -1593.66675)">
	<stop  offset="0" style="stop-color:#FFFCFC"/>
	<stop  offset="1" style="stop-color:#C2C2C2"/>
</linearGradient>
<path id="path109732_00000173144871293985343460000011737323852663088514_" inkscape:connector-curvature="0" opacity="0.79" fill="url(#path109732_00000052098930349191730060000003089782745466139779_)" enable-background="new    " d="
	M-197.14452-2602.63306c-5.4144-1.23926-8.79877-6.63306-7.55952-12.04761c1.23927-5.41431,6.63303-8.79883,12.04742-7.55933
	c5.41145,1.23926,8.79878,6.63281,7.55952,12.04736C-186.33636-2604.78125-191.73012-2601.3938-197.14452-2602.63306"/>
<linearGradient id="path109732_00000158724437134332744300000006836277626828841123_" gradientUnits="userSpaceOnUse" x1="-194.90065" y1="-1805.94104" x2="-194.90065" y2="-1786.93225" gradientTransform="matrix(1 0 0 1 0 -816)">
	<stop  offset="0" style="stop-color:#FFFCFC"/>
	<stop  offset="1" style="stop-color:#C2C2C2"/>
</linearGradient>
<path id="path109732_00000181783666915822318410000002835915533121502593_" inkscape:connector-curvature="0" fill="url(#path109732_00000158724437134332744300000006836277626828841123_)" d="
	M-197.02077-2603.17383c-5.11581-1.1709-8.31355-6.26709-7.14264-11.38306c1.17093-5.11572,6.26723-8.31348,11.38304-7.14258
	c5.11302,1.1709,8.31354,6.26733,7.14264,11.38306C-186.80867-2605.20337-191.90495-2602.00293-197.02077-2603.17383"/>
<linearGradient id="SVGID_00000045605563958534137780000016570894954855176582_" gradientUnits="userSpaceOnUse" x1="-811.24414" y1="-3343.89746" x2="-811.24414" y2="-3326.27002" gradientTransform="matrix(-1 0 0 0.50871 -1006.14478 -920.54944)">
	<stop  offset="0" style="stop-color:#FDFDFF"/>
	<stop  offset="1" style="stop-color:#FCFEFF;stop-opacity:0"/>
</linearGradient>
<ellipse opacity="0.9" fill="url(#SVGID_00000045605563958534137780000016570894954855176582_)" enable-background="new    " cx="-194.90063" cy="-2617.15649" rx="6.70728" ry="4.48364"/>
<circle fill="#383838" cx="-194.9422" cy="-2619.52563" r="1.36889"/>
<g>
	
		<linearGradient id="SVGID_00000039121680204593812160000002387091878685778324_" gradientUnits="userSpaceOnUse" x1="17.73001" y1="33.20181" x2="17.73001" y2="2.98685" gradientTransform="matrix(1 0 0 -1 0 35.81086)">
		<stop  offset="0" style="stop-color:#181717"/>
		<stop  offset="1" style="stop-color:#101010"/>
	</linearGradient>
	<path fill="url(#SVGID_00000039121680204593812160000002387091878685778324_)" d="M24.91389,2.60906H10.54612
		c-0.95198,0-1.83164,0.50787-2.30763,1.33231L1.05461,16.38422c-0.47599,0.82444-0.47599,1.84019,0,2.66463L8.23849,31.4917
		c0.47599,0.82444,1.35565,1.33231,2.30763,1.33231h14.36776c0.95198,0,1.83164-0.50787,2.30763-1.33231l7.18388-12.44285
		c0.47599-0.82444,0.47599-1.84019,0-2.66463L27.22152,3.94137C26.74553,3.11693,25.86586,2.60906,24.91389,2.60906z"/>
	
		<linearGradient id="SVGID_00000171686550064727860000000017112666863986065556_" gradientUnits="userSpaceOnUse" x1="17.7266" y1="32.45921" x2="17.7266" y2="3.73552" gradientTransform="matrix(1 0 0 -1 0 35.81086)">
		<stop  offset="0.00559" style="stop-color:#3E3E3E"/>
		<stop  offset="1" style="stop-color:#323232"/>
	</linearGradient>
	<polygon fill="url(#SVGID_00000171686550064727860000000017112666863986065556_)" points="26.01841,3.35165 9.43478,3.35165 
		1.14297,17.7135 9.43478,32.07534 26.01841,32.07534 34.31023,17.7135 	"/>
	
		<linearGradient id="SVGID_00000029749560657887411210000006906435206186885787_" gradientUnits="userSpaceOnUse" x1="17.72659" y1="17.21513" x2="17.72659" y2="32.45921" gradientTransform="matrix(1 0 0 -1 0 35.81086)">
		<stop  offset="0" style="stop-color:#7D7D7D"/>
		<stop  offset="1" style="stop-color:#404040;stop-opacity:0"/>
	</linearGradient>
	<path opacity="0.11" fill="url(#SVGID_00000029749560657887411210000006906435206186885787_)" enable-background="new    " d="
		M32.51785,14.60898L26.01833,3.35165H9.43484L2.93533,14.60898C12.06545,19.92465,23.38772,19.92465,32.51785,14.60898z"/>
	
		<linearGradient id="SVGID_00000039092286205597202610000000919665448096274570_" gradientUnits="userSpaceOnUse" x1="-1921.37" y1="1095.05017" x2="-1897.03906" y2="1095.05017" gradientTransform="matrix(0 -1 1 0 -1077.31995 -1891.58813)">
		<stop  offset="0" style="stop-color:#323232"/>
		<stop  offset="1" style="stop-color:#161616"/>
	</linearGradient>
	<circle fill="url(#SVGID_00000039092286205597202610000000919665448096274570_)" cx="17.73014" cy="17.61641" r="12.16551"/>
	<circle cx="17.73016" cy="17.60859" r="11.4293"/>
	<path fill="#545454" d="M26.01841,3.35165c0,0.48597-3.71229,0.87993-8.29163,0.87993S9.43515,3.83762,9.43515,3.35165H26.01841z"
		/>
	<g opacity="0.53">
		<path d="M26.01841,32.07534c0-0.48597-3.71229-0.87992-8.29163-0.87992s-8.29163,0.39396-8.29163,0.87992H26.01841z"/>
	</g>
	<g opacity="0.39">
		<path d="M34.38024,17.77617c-0.42086-0.24298-2.61818,2.77497-4.90785,6.7408s-3.80464,7.37774-3.38378,7.62072L34.38024,17.77617
			z"/>
	</g>
	<path opacity="0.5" fill="#616161" enable-background="new    " d="M34.38024,17.71317
		c-0.42086,0.24298-2.61818-2.77497-4.90785-6.7408s-3.80464-7.37774-3.38378-7.62073L34.38024,17.71317z"/>
	<g opacity="0.39">
		<path d="M1.14297,17.77617c0.42086-0.24298,2.61818,2.77497,4.90785,6.7408s3.80464,7.37774,3.38378,7.62072L1.14297,17.77617z"/>
	</g>
	<path opacity="0.5" fill="#616161" enable-background="new    " d="M1.14297,17.71317
		c0.42086,0.24298,2.61818-2.77497,4.90785-6.7408S9.85546,3.59463,9.4346,3.35164L1.14297,17.71317z"/>
</g>
<path opacity="0.3" enable-background="new    " d="M17.66878,11.6443c5.88124,0,10.64893,4.45357,10.64893,9.94733
	s-4.76769,10.93634-10.64893,10.93634S7.01985,27.08538,7.01985,21.59162S11.78754,11.6443,17.66878,11.6443z"/>
<linearGradient id="path109732_00000067200082828805082340000006514336322974203777_" gradientUnits="userSpaceOnUse" x1="1476.1333" y1="4380.78174" x2="1497.43079" y2="4380.78174" gradientTransform="matrix(0 1 1 0 -4363.06494 -1469.05249)">
	<stop  offset="0" style="stop-color:#FFFBFD"/>
	<stop  offset="1" style="stop-color:#2E2E2E"/>
</linearGradient>
<path id="path109732_00000016076149608001008070000006919947578358049950_" inkscape:connector-curvature="0" fill="url(#path109732_00000067200082828805082340000006514336322974203777_)" d="
	M15.34114,28.10779c-5.73177-1.31189-9.31452-7.02186-8.00263-12.75361c1.31191-5.73179,7.02182-9.31459,12.75359-8.00261
	c5.72866,1.31189,9.31452,7.02178,8.00263,12.75359C26.78282,25.83377,21.07291,29.41964,15.34114,28.10779"/>
<path id="path109732_00000147936449164165413000000004998968983015888823_" inkscape:connector-curvature="0" opacity="0.4" enable-background="new    " d="
	M15.34114,28.10779c-5.73177-1.31189-9.31452-7.02186-8.00263-12.75361c1.31191-5.73179,7.02182-9.31459,12.75359-8.00261
	c5.72866,1.31189,9.31452,7.02178,8.00263,12.75359C26.78282,25.83377,21.07291,29.41964,15.34114,28.10779"/>
<path id="path109732_00000077282385045360280040000012494531071361994125_" inkscape:connector-curvature="0" opacity="0.72" fill="#0D0D0D" enable-background="new    " d="
	M15.47214,27.53546c-5.41568-1.23955-8.80085-6.63463-7.56131-12.05028c1.23957-5.4157,6.63458-8.80091,12.05026-7.56129
	c5.41274,1.23955,8.80085,6.63454,7.56131,12.05026C26.28284,25.38685,20.88782,28.77496,15.47214,27.53546"/>
<linearGradient id="SVGID_00000173865463262354574680000004636856072761430659_" gradientUnits="userSpaceOnUse" x1="-455.81976" y1="-579.90363" x2="-455.81976" y2="-597.06512" gradientTransform="matrix(-1 0 0 -0.50871 -438.14478 -286.47659)">
	<stop  offset="0" style="stop-color:#FDFDFF"/>
	<stop  offset="1" style="stop-color:#FCFEFF;stop-opacity:0"/>
</linearGradient>
<ellipse opacity="0.07" fill="url(#SVGID_00000173865463262354574680000004636856072761430659_)" enable-background="new    " cx="17.67499" cy="12.89129" rx="7.1674" ry="4.36511"/>
<g>
</g>
</svg>
