<?xml version="1.0" encoding="utf-8"?>
<!-- Generator: Adobe Illustrator 28.6.0, SVG Export Plug-In . SVG Version: 9.03 Build 54939)  -->
<svg version="1.0"
	 id="svg113936" xmlns:sodipodi="http://sodipodi.sourceforge.net/DTD/sodipodi-0.dtd" xmlns:svg="http://www.w3.org/2000/svg" xmlns:inkscape="http://www.inkscape.org/namespaces/inkscape" xmlns:dc="http://purl.org/dc/elements/1.1/" xmlns:rdf="http://www.w3.org/1999/02/22-rdf-syntax-ns#" xmlns:cc="http://creativecommons.org/ns#"
	 xmlns="http://www.w3.org/2000/svg" xmlns:xlink="http://www.w3.org/1999/xlink" x="0px" y="0px" width="35.43307px"
	 height="35.43307px" viewBox="0 0 35.43307 35.43307" enable-background="new 0 0 35.43307 35.43307" xml:space="preserve">
<sodipodi:namedview  bordercolor="#666666" borderopacity="1.0" fit-margin-bottom="0" fit-margin-left="0" fit-margin-right="0" fit-margin-top="0" id="base" inkscape:current-layer="layer1" inkscape:cx="-45.569736" inkscape:cy="83.754679" inkscape:document-units="mm" inkscape:pageopacity="0.0" inkscape:pageshadow="2" inkscape:window-height="1422" inkscape:window-maximized="0" inkscape:window-width="2560" inkscape:window-x="0" inkscape:window-y="18" inkscape:zoom="2.8" pagecolor="#ffffff" showgrid="false">
	</sodipodi:namedview>
<g>
	
		<linearGradient id="SVGID_1_" gradientUnits="userSpaceOnUse" x1="-2978.98999" y1="2146.32617" x2="-2953.47876" y2="2146.32617" gradientTransform="matrix(0 1 1 0 -2341.22681 353.78467)">
		<stop  offset="0" style="stop-color:#828181"/>
		<stop  offset="1" style="stop-color:#575757"/>
	</linearGradient>
	<path fill="url(#SVGID_1_)" d="M-194.90036-2599.69409c-7.03368,0-12.75618-5.72192-12.75618-12.75513
		c0-7.03418,5.7225-12.7561,12.75618-12.7561c7.03366,0,12.75563,5.72192,12.75563,12.7561
		C-182.14473-2605.41602-187.86668-2599.69409-194.90036-2599.69409z"/>
</g>
<linearGradient id="SVGID_00000033336536320074435890000005194310822156388242_" gradientUnits="userSpaceOnUse" x1="-1314.95959" y1="-4441.63232" x2="-1290.2218" y2="-4441.63232" gradientTransform="matrix(0 1 -1 0 -4636.53271 -1309.84607)">
	<stop  offset="0.00559" style="stop-color:#FFFFFF"/>
	<stop  offset="1" style="stop-color:#7A7A7A"/>
</linearGradient>
<circle fill="url(#SVGID_00000033336536320074435890000005194310822156388242_)" cx="-194.90063" cy="-2612.43677" r="12.3689"/>
<circle fill="#E0E0E0" cx="-194.90063" cy="-2612.43677" r="11.63477"/>
<linearGradient id="SVGID_00000119091237614763755610000009464771386758849953_" gradientUnits="userSpaceOnUse" x1="-147.8882" y1="1764.27112" x2="-147.8882" y2="1767.35999" gradientTransform="matrix(1 0 0 -1 -47.00625 -846.63409)">
	<stop  offset="0" style="stop-color:#FFFBFD"/>
	<stop  offset="1" style="stop-color:#808080"/>
</linearGradient>
<path fill="url(#SVGID_00000119091237614763755610000009464771386758849953_)" d="M-206.4075-2613.99414l-0.4787,0.46436
	c-0.49011,0.64502-0.48662,1.53857,0.00854,2.17969l0.44371,0.41162l23.06136,0.0332l0.44835-0.42798
	c0.51234-0.63818,0.51607-1.54565,0.00896-2.18823l-0.45732-0.44678L-206.4075-2613.99414z"/>
<path opacity="0.3" enable-background="new    " d="M-194.90047-2620.95142c5.88124,0,10.64893,4.5332,10.64893,10.12524
	s-4.76768,11.13208-10.64893,11.13208s-10.64893-5.54004-10.64893-11.13208S-200.78171-2620.95142-194.90047-2620.95142z"/>
<linearGradient id="path109732_00000164481178667335308240000006209344576243412128_" gradientUnits="userSpaceOnUse" x1="-1029.05115" y1="-4008.96753" x2="-1008.48846" y2="-4008.96753" gradientTransform="matrix(0 1 -1 0 -4203.86816 -1593.66675)">
	<stop  offset="0" style="stop-color:#828181"/>
	<stop  offset="1" style="stop-color:#575757"/>
</linearGradient>
<path id="path109732_00000021825409866966656510000016532748346234210446_" inkscape:connector-curvature="0" fill="url(#path109732_00000164481178667335308240000006209344576243412128_)" d="
	M-197.19408-2602.4165c-5.53403-1.2666-8.99316-6.77954-7.72653-12.31372c1.26665-5.53394,6.77956-8.99316,12.31357-7.72632
	c5.53101,1.2666,8.99315,6.77954,7.72653,12.31348C-186.14717-2604.61206-191.66006-2601.1499-197.19408-2602.4165"/>
<linearGradient id="path109732_00000095299121015302033560000016198113697590000282_" gradientUnits="userSpaceOnUse" x1="-1028.82898" y1="-4008.96753" x2="-1008.71069" y2="-4008.96753" gradientTransform="matrix(0 1 -1 0 -4203.86816 -1593.66675)">
	<stop  offset="0" style="stop-color:#FFFCFC"/>
	<stop  offset="1" style="stop-color:#C2C2C2"/>
</linearGradient>
<path id="path109732_00000173144871293985343460000011737323852663088514_" inkscape:connector-curvature="0" opacity="0.79" fill="url(#path109732_00000095299121015302033560000016198113697590000282_)" enable-background="new    " d="
	M-197.14452-2602.63306c-5.4144-1.23926-8.79877-6.63306-7.55952-12.04761c1.23927-5.41431,6.63303-8.79883,12.04742-7.55933
	c5.41145,1.23926,8.79878,6.63281,7.55952,12.04736C-186.33636-2604.78125-191.73012-2601.3938-197.14452-2602.63306"/>
<linearGradient id="path109732_00000137095901157751255370000012486417845684558250_" gradientUnits="userSpaceOnUse" x1="-194.90065" y1="-1805.94104" x2="-194.90065" y2="-1786.93225" gradientTransform="matrix(1 0 0 1 0 -816)">
	<stop  offset="0" style="stop-color:#FFFCFC"/>
	<stop  offset="1" style="stop-color:#C2C2C2"/>
</linearGradient>
<path id="path109732_00000181783666915822318410000002835915533121502593_" inkscape:connector-curvature="0" fill="url(#path109732_00000137095901157751255370000012486417845684558250_)" d="
	M-197.02077-2603.17383c-5.11581-1.1709-8.31355-6.26709-7.14264-11.38306c1.17093-5.11572,6.26723-8.31348,11.38304-7.14258
	c5.11302,1.1709,8.31354,6.26733,7.14264,11.38306C-186.80867-2605.20337-191.90495-2602.00293-197.02077-2603.17383"/>
<linearGradient id="SVGID_00000142154321824337302720000011048444265556976816_" gradientUnits="userSpaceOnUse" x1="-811.24414" y1="-3343.89746" x2="-811.24414" y2="-3326.27002" gradientTransform="matrix(-1 0 0 0.50871 -1006.14478 -920.54944)">
	<stop  offset="0" style="stop-color:#FDFDFF"/>
	<stop  offset="1" style="stop-color:#FCFEFF;stop-opacity:0"/>
</linearGradient>
<ellipse opacity="0.9" fill="url(#SVGID_00000142154321824337302720000011048444265556976816_)" enable-background="new    " cx="-194.90063" cy="-2617.15649" rx="6.70728" ry="4.48364"/>
<circle fill="#383838" cx="-194.9422" cy="-2619.52563" r="1.36889"/>
<circle opacity="0.95" fill="#F2F2F2" enable-background="new    " cx="17.66878" cy="10.62751" r="1.36886"/>
<g>
</g>
</svg>
