<?xml version="1.0" encoding="utf-8"?>
<!-- Generator: Adobe Illustrator 28.6.0, SVG Export Plug-In . SVG Version: 9.03 Build 54939)  -->
<svg version="1.0"
	 id="svg15246" xmlns:inkscape="http://www.inkscape.org/namespaces/inkscape" xmlns:sodipodi="http://sodipodi.sourceforge.net/DTD/sodipodi-0.dtd" xmlns:svg="http://www.w3.org/2000/svg"
	 xmlns="http://www.w3.org/2000/svg" xmlns:xlink="http://www.w3.org/1999/xlink" x="0px" y="0px" width="28.4537px"
	 height="28.45984px" viewBox="0 0 28.4537 28.45984" enable-background="new 0 0 28.4537 28.45984" xml:space="preserve">
<sodipodi:namedview  bordercolor="#666666" borderopacity="1.0" fit-margin-bottom="0" fit-margin-left="0" fit-margin-right="0" fit-margin-top="0" id="base" inkscape:current-layer="svg15246" inkscape:cx="29.510588" inkscape:cy="21.262879" inkscape:document-units="mm" inkscape:pagecheckerboard="0" inkscape:pageopacity="0.0" inkscape:pageshadow="2" inkscape:snap-bbox="true" inkscape:snap-bbox-midpoints="true" inkscape:snap-nodes="false" inkscape:snap-others="false" inkscape:window-height="882" inkscape:window-maximized="0" inkscape:window-width="1600" inkscape:window-x="0" inkscape:window-y="18" inkscape:zoom="10.487761" pagecolor="#ffffff" showgrid="false" units="px">
	</sodipodi:namedview>
<g>
	<path fill="#4A4A4A" d="M23.15972,20.79999H5.29398c-0.78277,0-1.41732-0.63456-1.41732-1.41732v-8.99415
		c0-0.78277,0.63456-1.41732,1.41732-1.41732h17.86574c0.78276,0,1.41732,0.63456,1.41732,1.41732v8.99415
		C24.57705,20.16543,23.94249,20.79999,23.15972,20.79999z"/>
	<path fill="#141414" d="M23.15972,19.48864H5.29398c-0.78277,0-1.41732-0.63456-1.41732-1.41732V9.07717
		c0-0.78277,0.63456-1.41732,1.41732-1.41732h17.86574c0.78276,0,1.41732,0.63456,1.41732,1.41732v8.99415
		C24.57705,18.85408,23.94249,19.48864,23.15972,19.48864z"/>
	<path d="M23.15972,20.076H5.29398c-0.78277,0-1.41732-0.63456-1.41732-1.41732V9.66453c0-0.78277,0.63456-1.41732,1.41732-1.41732
		h17.86574c0.78276,0,1.41732,0.63456,1.41732,1.41732v8.99415C24.57705,19.44144,23.94249,20.076,23.15972,20.076z"/>
	<path fill="#141414" d="M21.88359,9.82554h-6.39701c-0.56137,0-1.03589,0.33211-1.26808,0.80397
		c-0.23212-0.47186-0.7067-0.80397-1.26814-0.80397H6.55341c-0.78682,0-1.42464,0.63782-1.42464,1.42464v6.39695
		c0,0.78682,0.63782,1.42464,1.42464,1.42464h6.39695c0.56144,0,1.03603-0.33211,1.26814-0.80397
		c0.23219,0.47186,0.7067,0.80397,1.26808,0.80397h6.39701c0.78682,0,1.42464-0.63782,1.42464-1.42464v-6.39696
		C23.30823,10.46335,22.67041,9.82554,21.88359,9.82554z"/>
	<path fill="#212121" d="M21.88359,9.44052h-6.39701c-0.56137,0-1.03589,0.33211-1.26808,0.80397
		c-0.23212-0.47186-0.7067-0.80397-1.26814-0.80397H6.55341c-0.78682,0-1.42464,0.63782-1.42464,1.42464v6.39695
		c0,0.78682,0.63782,1.42464,1.42464,1.42464h6.39695c0.56144,0,1.03603-0.33211,1.26814-0.80398
		c0.23219,0.47186,0.7067,0.80398,1.26808,0.80398h6.39701c0.78682,0,1.42464-0.63782,1.42464-1.42464v-6.39696
		C23.30823,10.07833,22.67041,9.44052,21.88359,9.44052z"/>
	<rect x="16.50155" y="11.88011" width="4.36707" height="4.36707"/>
	<rect x="7.56834" y="11.88011" width="4.36707" height="4.36707"/>
	<rect x="16.50155" y="15.94789" fill="#4A4A4A" width="4.36707" height="0.59858"/>
	<rect x="7.56834" y="15.94789" fill="#4A4A4A" width="4.36707" height="0.59858"/>
	<rect x="16.50155" y="11.58082" fill="#141414" width="4.36707" height="0.59858"/>
	<rect x="7.56834" y="11.58082" fill="#141414" width="4.36707" height="0.59858"/>
	<rect x="4.63645" y="8.91324" opacity="0.45" enable-background="new    " width="19.12522" height="2.28221"/>
</g>
<g>
	<path fill="#4A4A4A" d="M23.15972,20.79999H5.29398c-0.78277,0-1.41732-0.63456-1.41732-1.41732v-8.99415
		c0-0.78277,0.63456-1.41732,1.41732-1.41732h17.86574c0.78277,0,1.41732,0.63456,1.41732,1.41732v8.99415
		C24.57704,20.16544,23.94249,20.79999,23.15972,20.79999z"/>
	<path fill="#141414" d="M23.15972,19.48864H5.29398c-0.78277,0-1.41732-0.63456-1.41732-1.41732V9.07717
		c0-0.78277,0.63456-1.41732,1.41732-1.41732h17.86574c0.78277,0,1.41732,0.63456,1.41732,1.41732v8.99415
		C24.57704,18.85409,23.94249,19.48864,23.15972,19.48864z"/>
	<path d="M23.15972,20.076H5.29398c-0.78277,0-1.41732-0.63456-1.41732-1.41732V9.66453c0-0.78277,0.63456-1.41732,1.41732-1.41732
		h17.86574c0.78277,0,1.41732,0.63456,1.41732,1.41732v8.99415C24.57704,19.44145,23.94249,20.076,23.15972,20.076z"/>
	<path fill="#141414" d="M21.88359,9.82554h-6.39701c-0.56137,0-1.03589,0.33211-1.26808,0.80398
		c-0.23212-0.47186-0.7067-0.80398-1.26814-0.80398H6.55341c-0.78682,0-1.42464,0.63782-1.42464,1.42464v6.39695
		c0,0.78682,0.63782,1.42464,1.42464,1.42464h6.39695c0.56144,0,1.03603-0.33211,1.26814-0.80397
		c0.23219,0.47186,0.7067,0.80397,1.26808,0.80397h6.39701c0.78682,0,1.42464-0.63782,1.42464-1.42464v-6.39695
		C23.30823,10.46336,22.67041,9.82554,21.88359,9.82554z"/>
	<path fill="#212121" d="M21.88359,9.44052h-6.39701c-0.56137,0-1.03589,0.33211-1.26808,0.80397
		c-0.23212-0.47186-0.7067-0.80397-1.26814-0.80397H6.55341c-0.78682,0-1.42464,0.63782-1.42464,1.42464v6.39695
		c0,0.78682,0.63782,1.42464,1.42464,1.42464h6.39695c0.56144,0,1.03603-0.33211,1.26814-0.80398
		c0.23219,0.47186,0.7067,0.80398,1.26808,0.80398h6.39701c0.78682,0,1.42464-0.63782,1.42464-1.42464v-6.39695
		C23.30823,10.07834,22.67041,9.44052,21.88359,9.44052z"/>
	<rect x="16.50155" y="11.88012" width="4.36707" height="4.36707"/>
	<rect x="7.56834" y="11.88012" width="4.36707" height="4.36707"/>
	<rect x="16.50155" y="15.94789" fill="#4A4A4A" width="4.36707" height="0.59858"/>
	<rect x="7.56834" y="15.94789" fill="#4A4A4A" width="4.36707" height="0.59858"/>
	<rect x="16.50155" y="11.58083" fill="#141414" width="4.36707" height="0.59858"/>
	<rect x="7.56834" y="11.58083" fill="#141414" width="4.36707" height="0.59858"/>
	<rect x="4.63645" y="8.91324" opacity="0.45" width="19.12522" height="2.28221"/>
</g>
</svg>
