<?xml version="1.0" encoding="utf-8"?>
<!-- Generator: Adobe Illustrator 28.6.0, SVG Export Plug-In . SVG Version: 9.03 Build 54939)  -->
<svg version="1.0"
	 id="svg15246" xmlns:sodipodi="http://sodipodi.sourceforge.net/DTD/sodipodi-0.dtd" xmlns:svg="http://www.w3.org/2000/svg" xmlns:inkscape="http://www.inkscape.org/namespaces/inkscape" sodipodi:docname="PJ301M.svg"
	 xmlns="http://www.w3.org/2000/svg" xmlns:xlink="http://www.w3.org/1999/xlink" x="0px" y="0px" width="28.4537px"
	 height="17.26852px" viewBox="0 0 28.4537 17.26852" enable-background="new 0 0 28.4537 17.26852" xml:space="preserve">
<sodipodi:namedview  bordercolor="#666666" borderopacity="1.0" fit-margin-bottom="0" fit-margin-left="0" fit-margin-right="0" fit-margin-top="0" id="base" inkscape:current-layer="svg15246" inkscape:cx="29.510588" inkscape:cy="21.262879" inkscape:document-units="mm" inkscape:pagecheckerboard="0" inkscape:pageopacity="0.0" inkscape:pageshadow="2" inkscape:snap-bbox="true" inkscape:snap-bbox-midpoints="true" inkscape:snap-nodes="false" inkscape:snap-others="false" inkscape:window-height="882" inkscape:window-maximized="0" inkscape:window-width="1600" inkscape:window-x="0" inkscape:window-y="18" inkscape:zoom="10.487761" pagecolor="#ffffff" showgrid="false" units="px">
	</sodipodi:namedview>
<g>
	<path fill="#4A4A4A" d="M23.15972,15.20433H5.29398c-0.78277,0-1.41732-0.63456-1.41732-1.41732V4.79286
		c0-0.78277,0.63456-1.41732,1.41732-1.41732h17.86574c0.78276,0,1.41732,0.63456,1.41732,1.41732v8.99415
		C24.57705,14.56977,23.94249,15.20433,23.15972,15.20433z"/>
	<path fill="#141414" d="M23.15972,13.89298H5.29398c-0.78277,0-1.41732-0.63456-1.41732-1.41732V3.48151
		c0-0.78277,0.63456-1.41732,1.41732-1.41732h17.86574c0.78276,0,1.41732,0.63456,1.41732,1.41732v8.99415
		C24.57705,13.25842,23.94249,13.89298,23.15972,13.89298z"/>
	<path d="M23.15972,14.48034H5.29398c-0.78277,0-1.41732-0.63456-1.41732-1.41732V4.06887
		c0-0.78277,0.63456-1.41732,1.41732-1.41732h17.86574c0.78276,0,1.41732,0.63456,1.41732,1.41732v8.99415
		C24.57705,13.84578,23.94249,14.48034,23.15972,14.48034z"/>
	<path fill="#141414" d="M21.88359,4.22988h-6.39701c-0.56137,0-1.03589,0.33211-1.26808,0.80397
		c-0.23212-0.47186-0.7067-0.80397-1.26814-0.80397H6.55341c-0.78682,0-1.42464,0.63782-1.42464,1.42464v6.39695
		c0,0.78682,0.63782,1.42464,1.42464,1.42464h6.39695c0.56144,0,1.03603-0.33211,1.26814-0.80397
		c0.23219,0.47186,0.7067,0.80397,1.26808,0.80397h6.39701c0.78682,0,1.42464-0.63782,1.42464-1.42464V5.65451
		C23.30823,4.86769,22.67041,4.22988,21.88359,4.22988z"/>
	<path fill="#212121" d="M21.88359,3.84486h-6.39701c-0.56137,0-1.03589,0.33211-1.26808,0.80397
		c-0.23212-0.47186-0.7067-0.80397-1.26814-0.80397H6.55341c-0.78682,0-1.42464,0.63782-1.42464,1.42464v6.39695
		c0,0.78682,0.63782,1.42464,1.42464,1.42464h6.39695c0.56144,0,1.03603-0.33211,1.26814-0.80398
		c0.23219,0.47186,0.7067,0.80398,1.26808,0.80398h6.39701c0.78682,0,1.42464-0.63782,1.42464-1.42464V5.26949
		C23.30823,4.48267,22.67041,3.84486,21.88359,3.84486z"/>
	<rect x="16.50155" y="6.28445" width="4.36707" height="4.36707"/>
	<rect x="7.56834" y="6.28445" width="4.36707" height="4.36707"/>
	<rect x="16.50155" y="10.35223" fill="#4A4A4A" width="4.36707" height="0.59858"/>
	<rect x="7.56834" y="10.35223" fill="#4A4A4A" width="4.36707" height="0.59858"/>
	<rect x="16.50155" y="5.98516" fill="#141414" width="4.36707" height="0.59858"/>
	<rect x="7.56834" y="5.98516" fill="#141414" width="4.36707" height="0.59858"/>
	<rect x="4.63645" y="3.31758" opacity="0.45" width="19.12522" height="2.28221"/>
</g>
</svg>
