<?xml version="1.0" encoding="utf-8"?>
<!-- Generator: Adobe Illustrator 28.6.0, SVG Export Plug-In . SVG Version: 9.03 Build 54939)  -->
<svg version="1.0" id="uuid-1cbfdab7-17a0-4bfd-b29d-47e95eae33d0"
	 xmlns="http://www.w3.org/2000/svg" xmlns:xlink="http://www.w3.org/1999/xlink" x="0px" y="0px" width="30.61417px"
	 height="30.61417px" viewBox="0 0 30.61417 30.61417" enable-background="new 0 0 30.61417 30.61417" xml:space="preserve">
<g>
	<g>
		<circle cx="15.29431" cy="15.34163" r="4.3165"/>
		<circle fill="none" cx="15.29431" cy="15.34169" r="15"/>
		
			<linearGradient id="SVGID_1_" gradientUnits="userSpaceOnUse" x1="-2444.68994" y1="818.01318" x2="-2444.68994" y2="804.79407" gradientTransform="matrix(-1 0 0 1 -2429.39917 -796.11017)">
			<stop  offset="0" style="stop-color:#9D9C9C"/>
			<stop  offset="1" style="stop-color:#444141"/>
		</linearGradient>
		<circle fill="url(#SVGID_1_)" cx="15.29064" cy="15.29346" r="6.60956"/>
		<circle fill="none" cx="15.28523" cy="15.33796" r="2.39567"/>
		<g>
			<circle cx="15.29763" cy="15.33796" r="5.19224"/>
		</g>
		
			<linearGradient id="SVGID_00000101080274619482678660000003137002397734347665_" gradientUnits="userSpaceOnUse" x1="-2444.68457" y1="806.69946" x2="-2444.68457" y2="816.42358" gradientTransform="matrix(-1 0 0 1 -2429.39917 -796.11017)">
			<stop  offset="0" style="stop-color:#CACACA"/>
			<stop  offset="1" style="stop-color:#464343"/>
		</linearGradient>
		
			<circle opacity="0.32" fill="url(#SVGID_00000101080274619482678660000003137002397734347665_)" cx="15.28526" cy="15.45135" r="4.86205"/>
		
			<linearGradient id="SVGID_00000027590139887052993250000010877218623954214576_" gradientUnits="userSpaceOnUse" x1="-2444.69678" y1="815.22949" x2="-2444.69678" y2="807.67426" gradientTransform="matrix(-1 0 0 1 -2429.39917 -796.11017)">
			<stop  offset="0" style="stop-color:#CECDCD"/>
			<stop  offset="1" style="stop-color:#5A5757"/>
		</linearGradient>
		
			<circle opacity="0.32" fill="url(#SVGID_00000027590139887052993250000010877218623954214576_)" cx="15.29763" cy="15.34169" r="3.77761"/>
		<g opacity="0.5">
			<path fill="#343434" d="M15.28525,11.57905c2.65986,0,4.81753,1.28623,4.85677,3.8596
				c0.00035-0.02442,0.00365-0.04811,0.00365-0.0726c0-2.68525-2.17606-4.86206-4.86042-4.86206s-4.86046,2.17681-4.86046,4.86206
				c0,0.0245,0.00331,0.04818,0.00365,0.0726C10.46768,12.86527,12.6254,11.57905,15.28525,11.57905z"/>
			<path opacity="0.28" fill="#343434" enable-background="new    " d="M10.42845,15.43865
				c-0.00035,0.02372-0.00365,0.04666-0.00365,0.07047c0,2.60624,2.1761,4.71903,4.86047,4.71903
				C12.6254,20.22814,10.46768,18.09007,10.42845,15.43865z"/>
			<path opacity="0.28" fill="#343434" enable-background="new    " d="M15.28525,20.22814
				c2.68436,0,4.86042-2.11279,4.86042-4.71903c0-0.0238-0.00331-0.04674-0.00365-0.07047
				C20.10278,18.09007,17.94512,20.22814,15.28525,20.22814z"/>
		</g>
		<g>
			<g>
				<circle fill="#191919" cx="15.28156" cy="15.38879" r="8.29357"/>
				
					<linearGradient id="SVGID_00000091709316072450489080000005653848838394879920_" gradientUnits="userSpaceOnUse" x1="-2690.68091" y1="1168.26038" x2="-2690.68091" y2="1184.0603" gradientTransform="matrix(-1 0 0 1 -2675.39917 -1160.77148)">
					<stop  offset="0" style="stop-color:#CECDCD"/>
					<stop  offset="1" style="stop-color:#464343"/>
				</linearGradient>
				<circle fill="url(#SVGID_00000091709316072450489080000005653848838394879920_)" cx="15.28156" cy="15.38886" r="7.89994"/>
				<circle fill="#B5B5B5" cx="15.28156" cy="15.38886" r="7.03943"/>
				<g opacity="0.43">
					<path fill="#343434" d="M15.28157,7.95374c4.32176,0,7.82756,3.37184,7.89131,7.55308
						c0.00057-0.03968,0.00594-0.07816,0.00594-0.11797c0-4.36302-3.53568-7.8999-7.89725-7.8999s-7.89731,3.53688-7.89731,7.8999
						c0,0.03981,0.00537,0.07829,0.00594,0.11797C7.45395,11.32558,10.95981,7.95374,15.28157,7.95374z"/>
					<path opacity="0.28" fill="#343434" enable-background="new    " d="M7.39019,15.50682
						c-0.00057,0.03854-0.00594,0.07582-0.00594,0.11449c0,4.23463,3.53575,7.66751,7.89731,7.66751
						C10.95981,23.28882,7.45395,19.81487,7.39019,15.50682z"/>
					<path opacity="0.28" fill="#343434" enable-background="new    " d="M15.28157,23.28882
						c4.36157,0,7.89725-3.43288,7.89725-7.66751c0-0.03867-0.00537-0.07595-0.00594-0.11449
						C23.10912,19.81487,19.60333,23.28882,15.28157,23.28882z"/>
				</g>
				
					<linearGradient id="SVGID_00000141413796091747538140000017638943495188697250_" gradientUnits="userSpaceOnUse" x1="-2690.68091" y1="1181.86865" x2="-2690.68091" y2="1170.45203" gradientTransform="matrix(-1 0 0 1 -2675.39917 -1160.77148)">
					<stop  offset="0" style="stop-color:#CECDCD"/>
					<stop  offset="1" style="stop-color:#5A5757"/>
				</linearGradient>
				<circle fill="url(#SVGID_00000141413796091747538140000017638943495188697250_)" cx="15.28156" cy="15.38886" r="5.70832"/>
				<circle cx="15.28156" cy="15.38879" r="5.03874"/>
			</g>
			
				<linearGradient id="SVGID_00000013168307951891701610000005148732633483786430_" gradientUnits="userSpaceOnUse" x1="-2444.68457" y1="806.58978" x2="-2444.68457" y2="816.3139" gradientTransform="matrix(-1 0 0 1 -2429.39917 -796.11017)">
				<stop  offset="0" style="stop-color:#CACACA"/>
				<stop  offset="1" style="stop-color:#464343"/>
			</linearGradient>
			
				<circle opacity="0.32" fill="url(#SVGID_00000013168307951891701610000005148732633483786430_)" cx="15.28526" cy="15.34169" r="4.86205"/>
			
				<linearGradient id="SVGID_00000098213125527073833390000006270414291011671980_" gradientUnits="userSpaceOnUse" x1="-2444.69678" y1="815.22949" x2="-2444.69678" y2="807.67426" gradientTransform="matrix(-1 0 0 1 -2429.39917 -796.11017)">
				<stop  offset="0" style="stop-color:#CECDCD"/>
				<stop  offset="1" style="stop-color:#5A5757"/>
			</linearGradient>
			
				<circle opacity="0.32" fill="url(#SVGID_00000098213125527073833390000006270414291011671980_)" cx="15.29763" cy="15.34169" r="3.77761"/>
			<g opacity="0.5">
				<path fill="#343434" d="M15.28525,11.55469c2.65986,0,4.81753,1.28623,4.85677,3.8596
					c0.00035-0.02442,0.00365-0.04811,0.00365-0.0726c0-2.68525-2.17606-4.86206-4.86042-4.86206s-4.86046,2.17681-4.86046,4.86206
					c0,0.0245,0.00331,0.04818,0.00365,0.0726C10.46768,12.84091,12.6254,11.55469,15.28525,11.55469z"/>
				<path opacity="0.28" fill="#343434" enable-background="new    " d="M10.42845,15.41429
					c-0.00035,0.02372-0.00365,0.04666-0.00365,0.07047c0,2.60624,2.1761,4.71903,4.86047,4.71903
					C12.6254,20.20378,10.46768,18.06571,10.42845,15.41429z"/>
				<path opacity="0.28" fill="#343434" enable-background="new    " d="M15.28525,20.20378
					c2.68436,0,4.86042-2.11279,4.86042-4.71903c0-0.0238-0.00331-0.04674-0.00365-0.07047
					C20.10278,18.06571,17.94512,20.20378,15.28525,20.20378z"/>
			</g>
		</g>
		<path opacity="0.28" enable-background="new    " d="M19.52859,26.9907c1.2464-3.30058-1.42635-9.19517-2.93272-9.69662
			c-2.89493-0.9637-4.1495,1.54744-5.3959,4.84802c-1.24641,3.30059,0.16353,6.83878,3.05847,7.80248
			C16.00895,30.52732,18.57471,29.51666,19.52859,26.9907z"/>
		<g>
			
				<linearGradient id="SVGID_00000034778615689393105760000007975186730737166767_" gradientUnits="userSpaceOnUse" x1="-3163.40967" y1="-783.72546" x2="-3163.40967" y2="-776.17023" gradientTransform="matrix(-1 0 0 -1 -3148.1189 -764.60614)">
				<stop  offset="0" style="stop-color:#CECDCD"/>
				<stop  offset="1" style="stop-color:#5A5757"/>
			</linearGradient>
			
				<circle opacity="0.32" fill="url(#SVGID_00000034778615689393105760000007975186730737166767_)" enable-background="new    " cx="15.29064" cy="15.34169" r="3.77761"/>
			<g>
				
					<linearGradient id="SVGID_00000183936200214018483530000015985130041145743545_" gradientUnits="userSpaceOnUse" x1="-2246.85181" y1="2629.27393" x2="-2262.87231" y2="2629.27393" gradientTransform="matrix(6.123234e-17 -1 1 6.123234e-17 -2613.9834 -2234.27466)">
					<stop  offset="0" style="stop-color:#6F6E6E"/>
					<stop  offset="1" style="stop-color:#4B4B4B"/>
				</linearGradient>
				<path fill="url(#SVGID_00000183936200214018483530000015985130041145743545_)" d="M10.73791,24.04531
					c0,2.51025,2.04199,4.55225,4.55225,4.55225c2.51074,0,4.55322-2.04199,4.55322-4.55225
					c0-0.33154-0.03564-0.66211-0.10645-0.98291l-1.5874-8.05127c-0.21045-1.37842-1.44092-2.43408-2.85889-2.43408
					s-2.64844,1.05566-2.8623,2.45508l-1.58643,8.04102c-0.06836,0.31006-0.104,0.64062-0.104,0.97217V24.04531z"/>
				
					<linearGradient id="SVGID_00000113313275884347120040000016475601366906103710_" gradientUnits="userSpaceOnUse" x1="-2247.35181" y1="-1088.92468" x2="-2262.37256" y2="-1088.92468" gradientTransform="matrix(6.123234e-17 -1 -1 -6.123234e-17 -1073.63416 -2234.27466)">
					<stop  offset="0" style="stop-color:#999898"/>
					<stop  offset="1" style="stop-color:#FFFFFF"/>
				</linearGradient>
				<path fill="url(#SVGID_00000113313275884347120040000016475601366906103710_)" d="M15.29039,28.0977
					c-2.2382,0-4.05263-1.81442-4.05263-4.05263c0-0.30045,0.0327-0.59326,0.09472-0.87508l1.58996-8.0621
					c0.17571-1.14993,1.16902-2.03083,2.36807-2.03083s2.19236,0.88089,2.36807,2.03083l1.58996,8.0621
					c0.06203,0.28181,0.09472,0.57463,0.09472,0.87508c0,2.2382-1.81442,4.05263-4.05263,4.05263H15.2904L15.29039,28.0977z"/>
				
					<linearGradient id="SVGID_00000152229204325713530550000017179264637394750141_" gradientUnits="userSpaceOnUse" x1="-2262.37256" y1="-1088.92468" x2="-2247.35181" y2="-1088.92468" gradientTransform="matrix(6.123234e-17 -1 -1 -6.123234e-17 -1073.63416 -2234.27466)">
					<stop  offset="0" style="stop-color:#000000;stop-opacity:0"/>
					<stop  offset="1" style="stop-color:#000000;stop-opacity:0.96369"/>
					<stop  offset="1" style="stop-color:#000000"/>
				</linearGradient>
				<path fill="url(#SVGID_00000152229204325713530550000017179264637394750141_)" fill-opacity="0" d="M15.29039,28.0977
					c-2.2382,0-4.05263-1.81442-4.05263-4.05263c0-0.30045,0.0327-0.59326,0.09472-0.87508l1.58996-8.0621
					c0.17571-1.14993,1.16902-2.03083,2.36807-2.03083s2.19236,0.88089,2.36807,2.03083l1.58996,8.0621
					c0.06203,0.28181,0.09472,0.57463,0.09472,0.87508c0,2.2382-1.81442,4.05263-4.05263,4.05263H15.2904L15.29039,28.0977z"/>
				
					<linearGradient id="SVGID_00000149353048013892272520000016343793114350582973_" gradientUnits="userSpaceOnUse" x1="6.76399" y1="20.03346" x2="6.76399" y2="11.9282" gradientTransform="matrix(1 0 0 -1 8.52664 40.0259)">
					<stop  offset="0" style="stop-color:#CECDCD"/>
					<stop  offset="0.98883" style="stop-color:#5A5A5A"/>
				</linearGradient>
				<circle fill="url(#SVGID_00000149353048013892272520000016343793114350582973_)" cx="15.29063" cy="24.04507" r="4.05263"/>
				
					<linearGradient id="SVGID_00000166649863014631907650000001458919700508025790_" gradientUnits="userSpaceOnUse" x1="491.62213" y1="-2042.52673" x2="491.62213" y2="-2049.1731" gradientTransform="matrix(1 0 0 -0.50871 -476.33148 -1018.84509)">
					<stop  offset="0" style="stop-color:#CCCCCE"/>
					<stop  offset="1" style="stop-color:#D5D5D6;stop-opacity:0"/>
				</linearGradient>
				
					<ellipse opacity="0.78" fill="url(#SVGID_00000166649863014631907650000001458919700508025790_)" enable-background="new    " cx="15.29064" cy="21.89927" rx="2.66719" ry="1.69051"/>
			</g>
		</g>
	</g>
</g>
<g>
</g>
</svg>
