<?xml version="1.0" encoding="utf-8"?>
<!-- Generator: Adobe Illustrator 28.6.0, SVG Export Plug-In . SVG Version: 9.03 Build 54939)  -->
<svg version="1.0" id="uuid-1cbfdab7-17a0-4bfd-b29d-47e95eae33d0"
	 xmlns="http://www.w3.org/2000/svg" xmlns:xlink="http://www.w3.org/1999/xlink" x="0px" y="0px" width="30.61417px"
	 height="30.61417px" viewBox="0 0 30.61417 30.61417" enable-background="new 0 0 30.61417 30.61417" xml:space="preserve">
<g>
	<g>
		<circle cx="15.30709" cy="15.29453" r="4.3165"/>
		<circle fill="none" cx="15.30709" cy="15.29458" r="15"/>
		
			<linearGradient id="SVGID_1_" gradientUnits="userSpaceOnUse" x1="-2444.70264" y1="817.96606" x2="-2444.70264" y2="804.74695" gradientTransform="matrix(-1 0 0 1 -2429.39917 -796.11017)">
			<stop  offset="0" style="stop-color:#9D9C9C"/>
			<stop  offset="1" style="stop-color:#444141"/>
		</linearGradient>
		<circle fill="url(#SVGID_1_)" cx="15.30342" cy="15.24636" r="6.60956"/>
		<circle fill="none" cx="15.29801" cy="15.29085" r="2.39567"/>
		<g>
			<circle cx="15.3104" cy="15.29085" r="5.19224"/>
		</g>
		
			<linearGradient id="SVGID_00000000942021839662209120000002221287120191306129_" gradientUnits="userSpaceOnUse" x1="-2444.69727" y1="806.65234" x2="-2444.69727" y2="816.37646" gradientTransform="matrix(-1 0 0 1 -2429.39917 -796.11017)">
			<stop  offset="0" style="stop-color:#CACACA"/>
			<stop  offset="1" style="stop-color:#464343"/>
		</linearGradient>
		
			<circle opacity="0.32" fill="url(#SVGID_00000000942021839662209120000002221287120191306129_)" cx="15.29803" cy="15.40425" r="4.86205"/>
		
			<linearGradient id="SVGID_00000026154202692299625020000008319640716021463956_" gradientUnits="userSpaceOnUse" x1="-2444.70972" y1="815.18237" x2="-2444.70972" y2="807.62714" gradientTransform="matrix(-1 0 0 1 -2429.39917 -796.11017)">
			<stop  offset="0" style="stop-color:#CECDCD"/>
			<stop  offset="1" style="stop-color:#5A5757"/>
		</linearGradient>
		
			<circle opacity="0.32" fill="url(#SVGID_00000026154202692299625020000008319640716021463956_)" cx="15.3104" cy="15.29458" r="3.77761"/>
		<g opacity="0.5">
			<path fill="#343434" d="M15.29803,11.53195c2.65986,0,4.81753,1.28623,4.85676,3.8596
				c0.00035-0.02442,0.00365-0.04811,0.00365-0.0726c0-2.68525-2.17606-4.86206-4.86042-4.86206s-4.86046,2.17681-4.86046,4.86206
				c0,0.0245,0.00331,0.04818,0.00365,0.0726C10.48046,12.81817,12.63817,11.53195,15.29803,11.53195z"/>
			<path opacity="0.28" fill="#343434" enable-background="new    " d="M10.44122,15.39155
				c-0.00035,0.02372-0.00365,0.04666-0.00365,0.07047c0,2.60623,2.1761,4.71903,4.86047,4.71903
				C12.63817,20.18104,10.48046,18.04297,10.44122,15.39155z"/>
			<path opacity="0.28" fill="#343434" enable-background="new    " d="M15.29803,20.18104
				c2.68436,0,4.86042-2.11279,4.86042-4.71903c0-0.0238-0.00331-0.04674-0.00365-0.07047
				C20.11555,18.04297,17.95789,20.18104,15.29803,20.18104z"/>
		</g>
		<g>
			<g>
				<circle fill="#191919" cx="15.29433" cy="15.34169" r="8.29357"/>
				
					<linearGradient id="SVGID_00000048500295493631462670000011188985589073644420_" gradientUnits="userSpaceOnUse" x1="-2690.6936" y1="1168.21326" x2="-2690.6936" y2="1184.01318" gradientTransform="matrix(-1 0 0 1 -2675.39917 -1160.77148)">
					<stop  offset="0" style="stop-color:#CECDCD"/>
					<stop  offset="1" style="stop-color:#464343"/>
				</linearGradient>
				<circle fill="url(#SVGID_00000048500295493631462670000011188985589073644420_)" cx="15.29433" cy="15.34176" r="7.89994"/>
				<circle fill="#B5B5B5" cx="15.29433" cy="15.34176" r="7.03943"/>
				<g opacity="0.43">
					<path fill="#343434" d="M15.29434,7.90664c4.32176,0,7.82756,3.37184,7.89131,7.55308
						c0.00057-0.03968,0.00594-0.07816,0.00594-0.11797c0-4.36302-3.53568-7.8999-7.89725-7.8999s-7.89731,3.53688-7.89731,7.8999
						c0,0.03981,0.00537,0.07829,0.00594,0.11797C7.46672,11.27848,10.97258,7.90664,15.29434,7.90664z"/>
					<path opacity="0.28" fill="#343434" enable-background="new    " d="M7.40296,15.45972
						c-0.00057,0.03854-0.00594,0.07582-0.00594,0.11449c0,4.23463,3.53575,7.66751,7.89731,7.66751
						C10.97258,23.24171,7.46672,19.76777,7.40296,15.45972z"/>
					<path opacity="0.28" fill="#343434" enable-background="new    " d="M15.29434,23.24171
						c4.36157,0,7.89725-3.43288,7.89725-7.66751c0-0.03867-0.00537-0.07595-0.00594-0.11449
						C23.12189,19.76777,19.6161,23.24171,15.29434,23.24171z"/>
				</g>
				
					<linearGradient id="SVGID_00000096777340366320222260000014708517965334551217_" gradientUnits="userSpaceOnUse" x1="-2690.6936" y1="1181.82153" x2="-2690.6936" y2="1170.40491" gradientTransform="matrix(-1 0 0 1 -2675.39917 -1160.77148)">
					<stop  offset="0" style="stop-color:#CECDCD"/>
					<stop  offset="1" style="stop-color:#5A5757"/>
				</linearGradient>
				<circle fill="url(#SVGID_00000096777340366320222260000014708517965334551217_)" cx="15.29433" cy="15.34176" r="5.70832"/>
				<circle cx="15.29433" cy="15.34169" r="5.03874"/>
			</g>
			
				<linearGradient id="SVGID_00000146494452429331395330000004228684326262924179_" gradientUnits="userSpaceOnUse" x1="-2444.69727" y1="806.54272" x2="-2444.69727" y2="816.26678" gradientTransform="matrix(-1 0 0 1 -2429.39917 -796.11017)">
				<stop  offset="0" style="stop-color:#CACACA"/>
				<stop  offset="1" style="stop-color:#464343"/>
			</linearGradient>
			
				<circle opacity="0.32" fill="url(#SVGID_00000146494452429331395330000004228684326262924179_)" cx="15.29803" cy="15.29458" r="4.86205"/>
			
				<linearGradient id="SVGID_00000077295336654606842640000000101173713626264976_" gradientUnits="userSpaceOnUse" x1="-2444.70972" y1="815.18237" x2="-2444.70972" y2="807.62714" gradientTransform="matrix(-1 0 0 1 -2429.39917 -796.11017)">
				<stop  offset="0" style="stop-color:#CECDCD"/>
				<stop  offset="1" style="stop-color:#5A5757"/>
			</linearGradient>
			
				<circle opacity="0.32" fill="url(#SVGID_00000077295336654606842640000000101173713626264976_)" cx="15.3104" cy="15.29458" r="3.77761"/>
			<g opacity="0.5">
				<path fill="#343434" d="M15.29803,11.50759c2.65986,0,4.81753,1.28623,4.85676,3.8596
					c0.00035-0.02442,0.00365-0.04811,0.00365-0.0726c0-2.68525-2.17606-4.86206-4.86042-4.86206s-4.86046,2.17681-4.86046,4.86206
					c0,0.0245,0.00331,0.04818,0.00365,0.0726C10.48046,12.79381,12.63817,11.50759,15.29803,11.50759z"/>
				<path opacity="0.28" fill="#343434" enable-background="new    " d="M10.44122,15.36719
					c-0.00035,0.02372-0.00365,0.04666-0.00365,0.07047c0,2.60623,2.1761,4.71903,4.86047,4.71903
					C12.63817,20.15668,10.48046,18.01861,10.44122,15.36719z"/>
				<path opacity="0.28" fill="#343434" enable-background="new    " d="M15.29803,20.15668
					c2.68436,0,4.86042-2.11279,4.86042-4.71903c0-0.0238-0.00331-0.04674-0.00365-0.07047
					C20.11555,18.01861,17.95789,20.15668,15.29803,20.15668z"/>
			</g>
		</g>
		<path opacity="0.28" enable-background="new    " d="M19.54136,21.74312c1.2464-2.75057-1.42635-7.6629-2.93272-8.0808
			c-2.89493-0.80311-4.1495,1.28958-5.3959,4.04016c-1.24641,2.75059,0.16353,5.69918,3.05847,6.50229
			C16.02172,24.6904,18.58748,23.84817,19.54136,21.74312z"/>
		<g>
			<g>
				
					<linearGradient id="SVGID_00000113314397397437012210000003141459577806079882_" gradientUnits="userSpaceOnUse" x1="-1500.0863" y1="-1835.42993" x2="-1484.0658" y2="-1835.42993" gradientTransform="matrix(0 1 -1 0 -1820.11951 1502.50867)">
					<stop  offset="0" style="stop-color:#999898"/>
					<stop  offset="1" style="stop-color:#191919"/>
				</linearGradient>
				<path fill="url(#SVGID_00000113314397397437012210000003141459577806079882_)" d="M10.75767,6.97452
					c0-2.51025,2.04199-4.55225,4.55225-4.55225c2.51074,0,4.55322,2.04199,4.55322,4.55225
					c0,0.33154-0.03564,0.66211-0.10645,0.98291l-1.5874,8.05127c-0.21045,1.37842-1.44092,2.43408-2.85889,2.43408
					s-2.64844-1.05566-2.8623-2.45508l-1.58643-8.04102C10.79331,7.63663,10.75767,7.30607,10.75767,6.97452z"/>
			</g>
			
				<linearGradient id="SVGID_00000150080920686035253940000000732174387167208874_" gradientUnits="userSpaceOnUse" x1="-1499.58643" y1="1164.08862" x2="-1484.5658" y2="1164.08862" gradientTransform="matrix(0 1 1 0 -1148.77832 1502.50867)">
				<stop  offset="0" style="stop-color:#A8A7A7"/>
				<stop  offset="1" style="stop-color:#555555"/>
			</linearGradient>
			<path fill="url(#SVGID_00000150080920686035253940000000732174387167208874_)" d="M15.31015,2.92214
				c-2.2382,0-4.05263,1.81442-4.05263,4.05263c0,0.30045,0.0327,0.59326,0.09472,0.87508l1.58996,8.0621
				c0.17571,1.14993,1.16902,2.03083,2.36807,2.03083s2.19236-0.88089,2.36807-2.03083l1.58995-8.0621
				c0.06203-0.28181,0.09472-0.57463,0.09472-0.87508c0-2.2382-1.81442-4.05263-4.05263-4.05263H15.31015z"/>
			
				<linearGradient id="SVGID_00000023259058365459399240000017623361061908058039_" gradientUnits="userSpaceOnUse" x1="-1499.58643" y1="1164.08862" x2="-1484.5658" y2="1164.08862" gradientTransform="matrix(0 1 1 0 -1148.77832 1502.50867)">
				<stop  offset="0" style="stop-color:#000000;stop-opacity:0"/>
				<stop  offset="1" style="stop-color:#000000"/>
			</linearGradient>
			<path opacity="0.29" fill="url(#SVGID_00000023259058365459399240000017623361061908058039_)" d="M15.31015,2.92214
				c-2.2382,0-4.05263,1.81442-4.05263,4.05263c0,0.30045,0.0327,0.59326,0.09472,0.87508l1.58996,8.0621
				c0.17571,1.14993,1.16902,2.03083,2.36807,2.03083s2.19236-0.88089,2.36807-2.03083l1.58995-8.0621
				c0.06203-0.28181,0.09472-0.57463,0.09472-0.87508c0-2.2382-1.81442-4.05263-4.05263-4.05263H15.31015z"/>
			
				<linearGradient id="SVGID_00000013906389654438215830000014545663358912977040_" gradientUnits="userSpaceOnUse" x1="6.78375" y1="11.42344" x2="6.78375" y2="19.52869" gradientTransform="matrix(1 0 0 1 8.52664 -8.5013)">
				<stop  offset="0" style="stop-color:#CECDCD"/>
				<stop  offset="0.98883" style="stop-color:#5A5A5A"/>
			</linearGradient>
			<circle fill="url(#SVGID_00000013906389654438215830000014545663358912977040_)" cx="15.31039" cy="6.97477" r="4.05263"/>
			
				<linearGradient id="SVGID_00000176730897033225908000000012700132294616125085_" gradientUnits="userSpaceOnUse" x1="491.64188" y1="1684.7384" x2="491.64188" y2="1691.38464" gradientTransform="matrix(1 0 0 0.50871 -476.33145 -853.90485)">
				<stop  offset="0" style="stop-color:#CCCCCE"/>
				<stop  offset="1" style="stop-color:#D5D5D6;stop-opacity:0"/>
			</linearGradient>
			
				<ellipse opacity="0.78" fill="url(#SVGID_00000176730897033225908000000012700132294616125085_)" enable-background="new    " cx="15.3104" cy="4.82896" rx="2.66719" ry="1.69051"/>
		</g>
	</g>
</g>
<g>
</g>
</svg>
