<?xml version="1.0" encoding="UTF-8" standalone="no"?>
<!-- Created with Inkscape (http://www.inkscape.org/) -->

<svg
   width="71.120003mm"
   height="128.5mm"
   viewBox="0 0 71.120003 128.5"
   version="1.1"
   id="svg5"
   inkscape:version="1.2.1 (9c6d41e, 2022-07-14)"
   sodipodi:docname="Cosmos.svg"
   xmlns:inkscape="http://www.inkscape.org/namespaces/inkscape"
   xmlns:sodipodi="http://sodipodi.sourceforge.net/DTD/sodipodi-0.dtd"
   xmlns="http://www.w3.org/2000/svg"
   xmlns:svg="http://www.w3.org/2000/svg">
  <sodipodi:namedview
     id="namedview7"
     pagecolor="#ffffff"
     bordercolor="#666666"
     borderopacity="1.0"
     inkscape:showpageshadow="2"
     inkscape:pageopacity="0.0"
     inkscape:pagecheckerboard="0"
     inkscape:deskcolor="#d1d1d1"
     inkscape:document-units="mm"
     showgrid="false"
     inkscape:zoom="1.2938725"
     inkscape:cx="5.0236789"
     inkscape:cy="322.67476"
     inkscape:window-width="1390"
     inkscape:window-height="1205"
     inkscape:window-x="2764"
     inkscape:window-y="116"
     inkscape:window-maximized="0"
     inkscape:current-layer="layer2" />
  <defs
     id="defs2">
    <linearGradient
       id="uuid-cdd6d276-6de2-4480-a757-050c60532b88"
       x1="105"
       y1="0"
       x2="105"
       y2="380"
       gradientUnits="userSpaceOnUse">
      <stop
         offset="0"
         stop-color="#2a2a2b"
         id="stop2" />
      <stop
         offset="1"
         stop-color="#171717"
         id="stop4" />
    </linearGradient>
  </defs>
  <g
     inkscape:label="Layer 1"
     inkscape:groupmode="layer"
     id="layer1">
    <g
       id="uuid-f2666c1d-9238-4650-8dce-440c0b63173d"
       data-name="FND BG"
       transform="scale(0.33815789)"
       style="display:inline">
      <rect
         width="210"
         height="380"
         fill="url(#uuid-cdd6d276-6de2-4480-a757-050c60532b88)"
         stroke-width="0"
         id="rect9"
         x="0"
         y="0"
         style="fill:url(#uuid-cdd6d276-6de2-4480-a757-050c60532b88)" />
    </g>
    <g
       id="uuid-c5c9d36c-e1d3-4d6a-be55-6de9f1421962"
       data-name="FND GRAPH"
       transform="scale(0.33866667)"
       style="display:inline">
      <path
         d="m 13.7651,154.13321 c -2.6631,-1.50812 -6.06838,-0.61312 -7.60572,1.99904 -1.5376,2.61216 -0.62502,5.95237 2.03782,7.46048 2.6631,1.50818 6.06813,0.61318 7.60572,-1.99904 1.5376,-2.61216 0.62502,-5.9523 -2.03782,-7.46048 z m 0.91232,6.62476 h -4.42738 v -4.07991 H 9.27736 v 4.07991 H 7.28437 v -0.71971 h 1.26355 v -3.3602 H 8.54639 v -0.71971 h 2.43464 v 0.71971 h -0.0013 v 3.3602 h 3.69767 v 0.71971 z"
         fill="#ffffff"
         stroke-width="0"
         id="path12" />
      <path
         d="m 40.33827,22.69059 c -2.6631,-1.50812 -6.06838,-0.61312 -7.60572,1.99904 -1.5376,2.61216 -0.62528,5.95237 2.03782,7.46048 2.6631,1.50812 6.06838,0.61318 7.60572,-1.99904 1.5376,-2.61216 0.62502,-5.9523 -2.03782,-7.46048 z m 0.91232,6.62476 H 39.2576 v -4.07991 h -3.40681 v 4.07991 h -1.99325 v -0.71964 h 1.26355 V 24.5158 h 4.86622 v 4.07991 h 1.26329 v 0.71964 z"
         fill="#ffffff"
         stroke-width="0"
         id="path14" />
      <path
         d="m 13.7651,68.29813 c -2.6631,-1.50812 -6.06813,-0.61312 -7.60572,1.99904 -1.53734,2.61216 -0.62502,5.95237 2.03808,7.46048 2.6631,1.50818 6.06813,0.61318 7.60572,-1.99904 1.53734,-2.61216 0.62502,-5.9523 -2.03808,-7.46048 z m 0.91258,6.62483 H 12.68469 V 70.84299 H 9.27762 v 4.07997 H 7.28463 v -0.71971 h 1.26329 v -4.07991 h 4.86622 v 4.07991 h 1.26355 v 0.71971 z"
         fill="#ffffff"
         stroke-width="0"
         id="path16" />
      <path
         d="m 173.79146,22.66034 c -2.6631,-1.50812 -6.06838,-0.61312 -7.60572,1.99904 -1.5376,2.61216 -0.62502,5.9523 2.03782,7.46048 2.6631,1.50812 6.06813,0.61312 7.60572,-1.99904 1.5376,-2.61216 0.62502,-5.95237 -2.03782,-7.46048 z m 0.91232,6.62477 H 170.2764 V 25.2052 h -0.97268 v 4.07991 h -1.99299 V 28.5654 h 1.26355 v -3.3602 h -0.002 v -0.71971 h 2.43464 v 0.71971 h -0.001 v 3.3602 h 3.69767 v 0.71971 z"
         fill="#ffffff"
         stroke-width="0"
         id="path18" />
      <g
         id="g32">
        <path
           d="m 104.31349,109.97839 c -0.40829,0 -0.73933,0.33078 -0.73933,0.73946 0,0.40817 0.33104,0.73895 0.73933,0.73895 0.40829,0 0.73927,-0.33078 0.73927,-0.73895 0,-0.40867 -0.33097,-0.73946 -0.73927,-0.73946 z"
           fill="#ffffff"
           stroke-width="0"
           id="path20" />
        <g
           id="g28">
          <ellipse
             cx="101.75124"
             cy="109.25131"
             rx="5.9171801"
             ry="5.8651199"
             fill="none"
             stroke="#ffffff"
             stroke-miterlimit="10"
             stroke-width="0.5"
             id="ellipse22" />
          <ellipse
             cx="106.87567"
             cy="109.25131"
             rx="5.9171801"
             ry="5.8651199"
             fill="none"
             stroke="#ffffff"
             stroke-miterlimit="10"
             stroke-width="0.5"
             id="ellipse24" />
          <ellipse
             cx="104.31345"
             cy="107.78503"
             rx="5.9171801"
             ry="5.8651199"
             fill="none"
             stroke="#ffffff"
             stroke-miterlimit="10"
             stroke-width="0.5"
             id="ellipse26" />
        </g>
        <circle
           cx="104.31345"
           cy="110.71759"
           r="10.38916"
           fill="none"
           stroke="#ffffff"
           stroke-miterlimit="10"
           stroke-width="0.5"
           id="circle30" />
      </g>
      <g
         id="g52">
        <path
           d="m 7.43128,184.04335 h 23.3495 c -0.45923,-0.93461 -1.0165,-1.81134 -1.67685,-2.60327 H 9.10813 c -0.66035,0.79193 -1.21762,1.66866 -1.67685,2.60327 z"
           fill="#ffffff"
           stroke-width="0"
           id="path34" />
        <path
           d="M 6.61955,193.41685 H 31.5925 c 0.24403,-0.83635 0.40393,-1.7068 0.47544,-2.60372 H 6.14411 c 0.07151,0.89692 0.23141,1.76737 0.47544,2.60372 z"
           fill="#ffffff"
           stroke-width="0"
           id="path36" />
        <path
           d="m 19.10602,202.78227 c 2.92386,0 5.61317,-0.97544 7.78604,-2.60327 H 11.31997 c 2.17287,1.62783 4.86218,2.60327 7.78604,2.60327 z"
           fill="#ffffff"
           stroke-width="0"
           id="path38" />
        <path
           d="m 17.15329,176.91508 c -2.16721,0.32709 -4.15517,1.18453 -5.83348,2.44175 h 5.83348 z"
           fill="#ffffff"
           stroke-width="0"
           id="path40" />
        <path
           d="m 21.05876,179.35683 h 5.83348 c -1.67831,-1.25722 -3.66627,-2.11466 -5.83348,-2.44175 z"
           fill="#ffffff"
           stroke-width="0"
           id="path42" />
        <path
           d="M 17.15329,186.1266 H 6.61753 c -0.24352,0.83635 -0.40286,1.7068 -0.47381,2.60372 h 11.00957 z"
           fill="#ffffff"
           stroke-width="0"
           id="path44" />
        <path
           d="m 21.05876,188.73032 h 11.00957 c -0.07095,-0.89692 -0.23029,-1.76737 -0.47381,-2.60372 H 21.05876 Z"
           fill="#ffffff"
           stroke-width="0"
           id="path46" />
        <path
           d="M 17.15329,195.49965 H 7.43492 c 0.46013,0.93506 1.01874,1.81179 1.68016,2.60372 h 8.03821 z"
           fill="#ffffff"
           stroke-width="0"
           id="path48" />
        <path
           d="m 21.05876,198.10337 h 8.03821 c 0.66142,-0.79193 1.22003,-1.66866 1.68016,-2.60372 h -9.71837 z"
           fill="#ffffff"
           stroke-width="0"
           id="path50" />
      </g>
      <g
         id="g72">
        <path
           d="m 177.92032,195.654 h 23.3495 c -0.45923,0.93461 -1.0165,1.81134 -1.67685,2.60327 h -19.99579 c -0.66035,-0.79193 -1.21762,-1.66866 -1.67685,-2.60327 z"
           fill="#ffffff"
           stroke-width="0"
           id="path54" />
        <path
           d="m 177.10859,186.2805 h 24.97295 c 0.24403,0.83635 0.40393,1.7068 0.47544,2.60372 h -25.92383 c 0.0715,-0.89692 0.23141,-1.76737 0.47544,-2.60372 z"
           fill="#ffffff"
           stroke-width="0"
           id="path56" />
        <path
           d="m 189.59507,176.91509 c 2.92386,0 5.61317,0.97544 7.78604,2.60327 h -15.57209 c 2.17287,-1.62783 4.86218,-2.60327 7.78604,-2.60327 z"
           fill="#ffffff"
           stroke-width="0"
           id="path58" />
        <path
           d="m 187.64233,202.78227 c -2.16721,-0.32709 -4.15517,-1.18453 -5.83348,-2.44175 h 5.83348 z"
           fill="#ffffff"
           stroke-width="0"
           id="path60" />
        <path
           d="m 191.5478,200.34052 h 5.83348 c -1.67831,1.25722 -3.66627,2.11466 -5.83348,2.44175 z"
           fill="#ffffff"
           stroke-width="0"
           id="path62" />
        <path
           d="m 187.64233,193.57075 h -10.53576 c -0.24352,-0.83635 -0.40286,-1.7068 -0.47381,-2.60372 h 11.00957 z"
           fill="#ffffff"
           stroke-width="0"
           id="path64" />
        <path
           d="m 191.5478,190.96703 h 11.00957 c -0.0709,0.89692 -0.23029,1.76737 -0.47381,2.60372 H 191.5478 Z"
           fill="#ffffff"
           stroke-width="0"
           id="path66" />
        <path
           d="m 187.64233,184.19771 h -9.71837 c 0.46013,-0.93506 1.01874,-1.81179 1.68016,-2.60372 h 8.03821 z"
           fill="#ffffff"
           stroke-width="0"
           id="path68" />
        <path
           d="m 191.5478,181.59398 h 8.03821 c 0.66142,0.79193 1.22003,1.66866 1.68016,2.60372 h -9.71837 z"
           fill="#ffffff"
           stroke-width="0"
           id="path70" />
      </g>
      <g
         id="g86">
        <path
           d="m 104.31349,269.66275 c -0.40829,0 -0.73933,-0.33078 -0.73933,-0.73946 0,-0.40817 0.33104,-0.73895 0.73933,-0.73895 0.40829,0 0.73927,0.33078 0.73927,0.73895 0,0.40867 -0.33097,0.73946 -0.73927,0.73946 z"
           fill="#ffffff"
           stroke-width="0"
           id="path74" />
        <g
           id="g82">
          <ellipse
             cx="101.75124"
             cy="270.38983"
             rx="5.9171801"
             ry="5.8651199"
             fill="none"
             stroke="#ffffff"
             stroke-miterlimit="10"
             stroke-width="0.5"
             id="ellipse76" />
          <ellipse
             cx="106.87567"
             cy="270.38983"
             rx="5.9171801"
             ry="5.8651199"
             fill="none"
             stroke="#ffffff"
             stroke-miterlimit="10"
             stroke-width="0.5"
             id="ellipse78" />
          <ellipse
             cx="104.31345"
             cy="271.85611"
             rx="5.9171801"
             ry="5.8651199"
             fill="none"
             stroke="#ffffff"
             stroke-miterlimit="10"
             stroke-width="0.5"
             id="ellipse80" />
        </g>
        <circle
           cx="104.31345"
           cy="268.92355"
           r="10.38916"
           fill="none"
           stroke="#ffffff"
           stroke-miterlimit="10"
           stroke-width="0.5"
           id="circle84" />
      </g>
      <g
         id="g104">
        <path
           d="m 104.3206,299.09705 c 0.0785,0 0.15435,-0.01 0.23203,-0.0117 h -0.46406 c 0.0777,0.002 0.15384,0.0117 0.23203,0.0117 z"
           fill="#ffffff"
           stroke-width="0"
           id="path88" />
        <path
           d="M 110.01432,286.96487 H 98.62738 c -0.37415,0.44979 -0.68946,0.94798 -0.94951,1.47876 h 13.28595 c -0.2603,-0.53079 -0.57561,-1.02897 -0.94951,-1.47876 z"
           fill="#ffffff"
           stroke-width="0"
           id="path90" />
        <path
           d="M 111.42483,289.62645 H 97.21688 c -0.13805,0.47475 -0.22872,0.96937 -0.26896,1.47825 h 14.74587 c -0.0402,-0.50888 -0.13091,-1.0035 -0.26896,-1.47825 z"
           fill="#ffffff"
           stroke-width="0"
           id="path92" />
        <path
           d="m 96.94818,292.28802 c 0.0405,0.50888 0.13117,1.0035 0.26972,1.47825 h 14.20591 c 0.1383,-0.47475 0.22923,-0.96937 0.26972,-1.47825 H 96.94817 Z"
           fill="#ffffff"
           stroke-width="0"
           id="path94" />
        <path
           d="m 98.63095,296.42784 h 11.37955 c 0.37466,-0.44979 0.69048,-0.94798 0.95129,-1.47876 H 97.67992 c 0.26055,0.53079 0.57663,1.02897 0.95103,1.47876 z"
           fill="#ffffff"
           stroke-width="0"
           id="path96" />
        <path
           d="m 104.08857,299.08534 h 0.46406 c 1.5786,-0.0494 3.02935,-0.59089 4.20936,-1.47876 h -8.88251 c 1.17975,0.88787 2.6305,1.42935 4.2091,1.47876 z"
           fill="#ffffff"
           stroke-width="0"
           id="path98" />
        <path
           d="m 108.76224,285.78207 c -1.00656,-0.75747 -2.20923,-1.26431 -3.52193,-1.42782 v 1.42782 z"
           fill="#ffffff"
           stroke-width="0"
           id="path100" />
        <path
           d="m 103.40115,284.35424 c -1.3127,0.16301 -2.51538,0.67036 -3.52193,1.42782 h 3.52193 z"
           fill="#ffffff"
           stroke-width="0"
           id="path102" />
      </g>
      <path
         d="m 104.32073,283.29349 c 4.63979,0 8.40114,3.76084 8.40114,8.40088 0,4.63954 -3.76135,8.40088 -8.40114,8.40088 -4.63979,0 -8.40088,-3.76135 -8.40088,-8.40088 0,-4.64005 3.76109,-8.40088 8.40088,-8.40088 m 0,-1.04323 c -5.20751,0 -9.44412,4.23661 -9.44412,9.44412 0,5.20751 4.23661,9.44412 9.44412,9.44412 5.20751,0 9.44437,-4.23661 9.44437,-9.44412 0,-5.20751 -4.23661,-9.44412 -9.44437,-9.44412 z"
         fill="#ffffff"
         stroke-width="0"
         id="path106" />
      <g
         id="g130">
        <path
           d="m 131.03173,271.21822 c 0.0782,0 0.15435,-0.009 0.23203,-0.0117 h -0.46431 c 0.0779,0.003 0.15384,0.0117 0.23228,0.0117 z"
           fill="#ffffff"
           stroke-width="0"
           id="path108" />
        <path
           d="m 138.13571,261.74761 h -14.20795 c -0.13805,0.47526 -0.22872,0.96937 -0.26896,1.47876 h 14.74587 c -0.0402,-0.50939 -0.13091,-1.0035 -0.26896,-1.47876 z"
           fill="#ffffff"
           stroke-width="0"
           id="path110" />
        <path
           d="m 130.79945,271.2065 h 0.46431 c 1.57835,-0.0489 3.02935,-0.59089 4.20936,-1.47876 h -8.88277 c 1.17975,0.88787 2.63075,1.42986 4.2091,1.47876 z"
           fill="#ffffff"
           stroke-width="0"
           id="path112" />
        <path
           d="m 130.11203,256.47592 c -1.31245,0.16301 -2.51512,0.66985 -3.52168,1.42732 h 3.52168 z"
           fill="#ffffff"
           stroke-width="0"
           id="path114" />
        <path
           d="m 135.47286,257.90323 c -1.00656,-0.75747 -2.20898,-1.26431 -3.52142,-1.42732 v 1.42732 z"
           fill="#ffffff"
           stroke-width="0"
           id="path116" />
        <path
           d="m 130.11203,259.08604 h -4.77376 c -0.37389,0.44979 -0.68921,0.94798 -0.94951,1.47876 h 5.72327 z"
           fill="#ffffff"
           stroke-width="0"
           id="path118" />
        <path
           d="m 131.95144,260.5648 h 5.72327 c -0.2603,-0.53079 -0.57561,-1.02897 -0.94976,-1.47876 h -4.77351 z"
           fill="#ffffff"
           stroke-width="0"
           id="path120" />
        <path
           d="m 130.11203,264.40918 h -6.45297 c 0.0405,0.50939 0.13117,1.00401 0.26972,1.47876 h 6.18325 z"
           fill="#ffffff"
           stroke-width="0"
           id="path122" />
        <path
           d="m 131.95144,264.40918 v 1.47876 h 6.18325 c 0.13855,-0.47475 0.22923,-0.96937 0.26972,-1.47876 z"
           fill="#ffffff"
           stroke-width="0"
           id="path124" />
        <path
           d="m 130.11203,267.07075 h -5.72123 c 0.26055,0.53079 0.57663,1.02846 0.95103,1.47825 h 4.7702 z"
           fill="#ffffff"
           stroke-width="0"
           id="path126" />
        <path
           d="m 131.95144,268.54901 h 4.7702 c 0.3744,-0.44979 0.69048,-0.94747 0.95103,-1.47825 h -5.72123 z"
           fill="#ffffff"
           stroke-width="0"
           id="path128" />
      </g>
      <path
         d="m 131.03166,255.41489 c 4.63979,0 8.40114,3.76084 8.40114,8.40088 0,4.63954 -3.76135,8.40088 -8.40114,8.40088 -4.63979,0 -8.40088,-3.76135 -8.40088,-8.40088 0,-4.64005 3.76109,-8.40088 8.40088,-8.40088 m 0,-1.04323 c -5.20751,0 -9.44412,4.23661 -9.44412,9.44412 0,5.20751 4.23661,9.44412 9.44412,9.44412 5.20751,0 9.44437,-4.23661 9.44437,-9.44412 0,-5.20751 -4.23661,-9.44412 -9.44437,-9.44412 z"
         fill="#ffffff"
         stroke-width="0"
         id="path132" />
      <g
         id="g156">
        <path
           d="m 77.59493,123.29833 c 0.0787,0 0.15511,-0.009 0.2333,-0.0117 h -0.4666 c 0.07819,0.003 0.1546,0.0117 0.2333,0.0117 z"
           fill="#ffffff"
           stroke-width="0"
           id="path134" />
        <path
           d="m 77.59493,108.49286 c -0.07972,0 -0.15689,0.009 -0.23585,0.0117 h 0.4717 c -0.07896,-0.003 -0.15613,-0.0117 -0.23585,-0.0117 z"
           fill="#ffffff"
           stroke-width="0"
           id="path136" />
        <path
           d="m 77.83078,108.50458 h -0.4717 c -1.57708,0.0499 -3.02655,0.5914 -4.20528,1.47876 h 8.88251 c -1.17899,-0.88736 -2.62846,-1.42884 -4.20554,-1.47876 z"
           fill="#ffffff"
           stroke-width="0"
           id="path138" />
        <path
           d="M 83.28865,111.16615 H 71.90146 c -0.37389,0.44979 -0.68921,0.94798 -0.94925,1.47876 H 84.2379 c -0.26004,-0.53079 -0.57536,-1.02897 -0.94925,-1.47876 z"
           fill="#ffffff"
           stroke-width="0"
           id="path140" />
        <path
           d="m 73.1538,121.80785 c 1.1795,0.88736 2.62973,1.42935 4.20783,1.47876 h 0.4666 c 1.57809,-0.0494 3.02859,-0.5914 4.20808,-1.47876 z"
           fill="#ffffff"
           stroke-width="0"
           id="path142" />
        <path
           d="m 76.67548,113.82772 h -6.18452 c -0.13805,0.47526 -0.22846,0.96937 -0.2687,1.47876 h 6.45323 v -1.47876 z"
           fill="#ffffff"
           stroke-width="0"
           id="path144" />
        <path
           d="m 78.51463,115.30648 h 6.45323 c -0.04024,-0.50939 -0.13066,-1.0035 -0.2687,-1.47876 h -6.18452 v 1.47876 z"
           fill="#ffffff"
           stroke-width="0"
           id="path146" />
        <path
           d="m 76.67548,116.48929 h -6.45323 c 0.04075,0.50888 0.13142,1.0035 0.26972,1.47825 h 6.1835 v -1.47825 z"
           fill="#ffffff"
           stroke-width="0"
           id="path148" />
        <path
           d="m 78.51463,117.96755 h 6.1835 c 0.1383,-0.47475 0.22923,-0.96937 0.26947,-1.47825 h -6.45297 z"
           fill="#ffffff"
           stroke-width="0"
           id="path150" />
        <path
           d="m 76.67548,119.15086 h -5.72123 c 0.26055,0.53079 0.57663,1.02846 0.95103,1.47825 h 4.7702 z"
           fill="#ffffff"
           stroke-width="0"
           id="path152" />
        <path
           d="m 78.51463,120.62912 h 4.7702 c 0.37466,-0.44979 0.69048,-0.94747 0.95103,-1.47825 h -5.72123 z"
           fill="#ffffff"
           stroke-width="0"
           id="path154" />
      </g>
      <path
         d="m 77.595,107.49487 c 4.63979,0 8.40114,3.76084 8.40114,8.40088 0,4.63954 -3.76135,8.40088 -8.40114,8.40088 -4.63979,0 -8.40088,-3.76135 -8.40088,-8.40088 0,-4.64005 3.76109,-8.40088 8.40088,-8.40088 m 0,-1.04324 c -5.20751,0 -9.44412,4.23661 -9.44412,9.44412 0,5.20751 4.23661,9.44412 9.44412,9.44412 5.20751,0 9.44437,-4.23661 9.44437,-9.44412 0,-5.20751 -4.23661,-9.44412 -9.44437,-9.44412 z"
         fill="#ffffff"
         stroke-width="0"
         id="path158" />
      <g
         id="g180">
        <path
           d="m 86.72918,168.40022 c -0.08023,0 -0.15766,0.009 -0.23712,0.012 h 0.47424 c -0.07947,-0.003 -0.15715,-0.012 -0.23712,-0.012 z"
           fill="#ffffff"
           stroke-width="0"
           id="path160" />
        <path
           d="m 86.9663,168.41219 h -0.47424 c -1.57657,0.0502 -3.02553,0.59166 -4.20426,1.47851 h 8.88277 c -1.17873,-0.88685 -2.6277,-1.42833 -4.20426,-1.47851 z"
           fill="#ffffff"
           stroke-width="0"
           id="path162" />
        <path
           d="M 92.42265,171.07351 H 81.03571 c -0.37415,0.44979 -0.68921,0.94849 -0.94925,1.47876 h 13.28569 c -0.26004,-0.53028 -0.57536,-1.02897 -0.94951,-1.47876 z"
           fill="#ffffff"
           stroke-width="0"
           id="path164" />
        <path
           d="m 93.83341,173.73508 h -14.2082 c -0.13805,0.47526 -0.22846,0.96937 -0.2687,1.47876 h 14.74561 c -0.04024,-0.50939 -0.13066,-1.0035 -0.2687,-1.47876 z"
           fill="#ffffff"
           stroke-width="0"
           id="path166" />
        <path
           d="M 85.80947,176.39665 H 79.3565 c 0.0405,0.50939 0.13142,1.00401 0.26972,1.47876 h 6.18325 z"
           fill="#ffffff"
           stroke-width="0"
           id="path168" />
        <path
           d="m 87.64888,176.39665 v 1.47876 h 6.1835 c 0.1383,-0.47475 0.22897,-0.96937 0.26947,-1.47876 z"
           fill="#ffffff"
           stroke-width="0"
           id="path170" />
        <path
           d="m 82.28754,181.7152 c 1.00656,0.75747 2.20923,1.26431 3.52193,1.42732 v -1.42732 z"
           fill="#ffffff"
           stroke-width="0"
           id="path172" />
        <path
           d="m 87.64888,183.14252 c 1.3127,-0.16301 2.51538,-0.66985 3.52193,-1.42732 h -3.52193 z"
           fill="#ffffff"
           stroke-width="0"
           id="path174" />
        <path
           d="m 85.80947,179.05822 h -5.72123 c 0.26055,0.53079 0.57663,1.02846 0.95103,1.47825 h 4.7702 z"
           fill="#ffffff"
           stroke-width="0"
           id="path176" />
        <path
           d="m 87.64888,180.53647 h 4.7702 c 0.37466,-0.44979 0.69048,-0.94747 0.95103,-1.47825 h -5.72123 z"
           fill="#ffffff"
           stroke-width="0"
           id="path178" />
      </g>
      <g
         id="g202">
        <path
           d="m 121.92451,168.40002 c -0.0802,0 -0.15766,0.009 -0.23712,0.012 h 0.47424 c -0.0795,-0.003 -0.15715,-0.012 -0.23712,-0.012 z"
           fill="#ffffff"
           stroke-width="0"
           id="path182" />
        <path
           d="m 122.16164,168.412 h -0.47424 c -1.57657,0.0502 -3.02553,0.59166 -4.20426,1.47851 h 8.88277 c -1.17873,-0.88685 -2.6277,-1.42833 -4.20426,-1.47851 z"
           fill="#ffffff"
           stroke-width="0"
           id="path184" />
        <path
           d="m 127.61798,171.07331 h -11.38694 c -0.37415,0.44979 -0.68921,0.94849 -0.94925,1.47876 h 13.28569 c -0.26004,-0.53028 -0.57536,-1.02897 -0.94951,-1.47876 z"
           fill="#ffffff"
           stroke-width="0"
           id="path186" />
        <path
           d="m 129.02874,173.73488 h -14.2082 c -0.13805,0.47526 -0.22846,0.96937 -0.2687,1.47876 h 14.74561 c -0.0402,-0.50939 -0.13066,-1.0035 -0.2687,-1.47876 z"
           fill="#ffffff"
           stroke-width="0"
           id="path188" />
        <path
           d="m 121.00481,176.39645 h -6.45297 c 0.0405,0.50939 0.13142,1.00401 0.26972,1.47876 h 6.18325 z"
           fill="#ffffff"
           stroke-width="0"
           id="path190" />
        <path
           d="m 122.84422,176.39645 v 1.47876 h 6.1835 c 0.1383,-0.47475 0.22897,-0.96937 0.26947,-1.47876 z"
           fill="#ffffff"
           stroke-width="0"
           id="path192" />
        <path
           d="m 117.48288,181.71501 c 1.00656,0.75747 2.20923,1.26431 3.52193,1.42732 v -1.42732 z"
           fill="#ffffff"
           stroke-width="0"
           id="path194" />
        <path
           d="m 122.84422,183.14232 c 1.3127,-0.16301 2.51538,-0.66985 3.52193,-1.42732 h -3.52193 z"
           fill="#ffffff"
           stroke-width="0"
           id="path196" />
        <path
           d="m 121.00481,179.05802 h -5.72123 c 0.26055,0.53079 0.57663,1.02846 0.95103,1.47825 h 4.7702 z"
           fill="#ffffff"
           stroke-width="0"
           id="path198" />
        <path
           d="m 122.84422,180.53628 h 4.7702 c 0.37466,-0.44979 0.69048,-0.94747 0.95103,-1.47825 h -5.72123 z"
           fill="#ffffff"
           stroke-width="0"
           id="path200" />
      </g>
      <g
         id="g226">
        <path
           d="m 131.03159,108.47877 c 0.0787,0 0.15511,0.009 0.2333,0.0117 h -0.4666 c 0.0782,-0.003 0.1546,-0.0117 0.2333,-0.0117 z"
           fill="#ffffff"
           stroke-width="0"
           id="path204" />
        <path
           d="m 131.03159,123.28424 c -0.0797,0 -0.15689,-0.009 -0.23585,-0.0117 h 0.4717 c -0.079,0.003 -0.15613,0.0117 -0.23585,0.0117 z"
           fill="#ffffff"
           stroke-width="0"
           id="path206" />
        <path
           d="m 131.26743,123.27252 h -0.4717 c -1.57708,-0.0499 -3.02655,-0.5914 -4.20528,-1.47876 h 8.88251 c -1.17899,0.88736 -2.62846,1.42884 -4.20554,1.47876 z"
           fill="#ffffff"
           stroke-width="0"
           id="path208" />
        <path
           d="m 136.72531,120.61095 h -11.38719 c -0.37389,-0.44979 -0.68921,-0.94798 -0.94925,-1.47876 h 13.28569 c -0.26004,0.53079 -0.57536,1.02897 -0.94925,1.47876 z"
           fill="#ffffff"
           stroke-width="0"
           id="path210" />
        <path
           d="m 126.59046,109.96925 c 1.1795,-0.88736 2.62973,-1.42935 4.20783,-1.47876 h 0.4666 c 1.57809,0.0494 3.02859,0.5914 4.20808,1.47876 z"
           fill="#ffffff"
           stroke-width="0"
           id="path212" />
        <path
           d="m 130.11213,117.94938 h -6.18452 c -0.13805,-0.47526 -0.22846,-0.96937 -0.2687,-1.47876 h 6.45323 v 1.47876 z"
           fill="#ffffff"
           stroke-width="0"
           id="path214" />
        <path
           d="m 131.95129,116.47062 h 6.45323 c -0.0402,0.50939 -0.13066,1.0035 -0.2687,1.47876 h -6.18452 v -1.47876 z"
           fill="#ffffff"
           stroke-width="0"
           id="path216" />
        <path
           d="m 130.11213,115.28781 h -6.45323 c 0.0408,-0.50888 0.13142,-1.0035 0.26972,-1.47825 h 6.1835 v 1.47825 z"
           fill="#ffffff"
           stroke-width="0"
           id="path218" />
        <path
           d="m 131.95129,113.80956 h 6.1835 c 0.1383,0.47475 0.22923,0.96937 0.26947,1.47825 h -6.45297 z"
           fill="#ffffff"
           stroke-width="0"
           id="path220" />
        <path
           d="m 130.11213,112.62624 h -5.72123 c 0.26055,-0.53079 0.57663,-1.02846 0.95103,-1.47825 h 4.7702 z"
           fill="#ffffff"
           stroke-width="0"
           id="path222" />
        <path
           d="m 131.95129,111.14799 h 4.7702 c 0.37466,0.44979 0.69048,0.94747 0.95103,1.47825 h -5.72123 z"
           fill="#ffffff"
           stroke-width="0"
           id="path224" />
      </g>
      <path
         d="m 131.03166,124.28223 c 4.63979,0 8.40114,-3.76084 8.40114,-8.40088 0,-4.63954 -3.76135,-8.40088 -8.40114,-8.40088 -4.63979,0 -8.40088,3.76135 -8.40088,8.40088 0,4.64005 3.76109,8.40088 8.40088,8.40088 m 0,1.04324 c -5.20751,0 -9.44412,-4.23661 -9.44412,-9.44412 0,-5.20751 4.23661,-9.44412 9.44412,-9.44412 5.20751,0 9.44437,4.23661 9.44437,9.44412 0,5.20751 -4.23661,9.44412 -9.44437,9.44412 z"
         fill="#ffffff"
         stroke-width="0"
         id="path228" />
      <g
         id="g252">
        <path
           d="M 109.92753,157.38423 H 98.54059 c -0.37415,0.44979 -0.68946,0.94823 -0.94951,1.47876 h 13.28569 c -0.26004,-0.53053 -0.57536,-1.02897 -0.94925,-1.47876 z"
           fill="#ffffff"
           stroke-width="0"
           id="path230" />
        <path
           d="m 103.31436,154.77411 c -1.31245,0.16301 -2.51512,0.66985 -3.52168,1.42732 h 3.52168 z"
           fill="#ffffff"
           stroke-width="0"
           id="path232" />
        <path
           d="m 108.6752,156.20142 c -1.00656,-0.75747 -2.20923,-1.26431 -3.52168,-1.42732 v 1.42732 z"
           fill="#ffffff"
           stroke-width="0"
           id="path234" />
        <path
           d="m 103.31436,160.0458 h -6.18427 c -0.1383,0.47501 -0.22872,0.96937 -0.26896,1.47876 h 6.45323 z"
           fill="#ffffff"
           stroke-width="0"
           id="path236" />
        <path
           d="m 105.15352,161.52456 h 6.45348 c -0.0402,-0.50939 -0.13091,-1.00376 -0.26896,-1.47876 h -6.18452 z"
           fill="#ffffff"
           stroke-width="0"
           id="path238" />
        <path
           d="m 103.31436,162.70737 h -6.45297 c 0.0405,0.50939 0.13117,1.0035 0.26972,1.47851 h 6.18325 z"
           fill="#ffffff"
           stroke-width="0"
           id="path240" />
        <path
           d="m 105.15352,162.70737 v 1.47851 h 6.1835 c 0.1383,-0.47501 0.22923,-0.96912 0.26972,-1.47851 h -6.45323 z"
           fill="#ffffff"
           stroke-width="0"
           id="path242" />
        <path
           d="m 105.15352,166.8472 h 4.77045 c 0.3744,-0.44979 0.69023,-0.94747 0.95103,-1.47825 h -5.72149 v 1.47825 z"
           fill="#ffffff"
           stroke-width="0"
           id="path244" />
        <path
           d="m 103.31436,165.36894 h -5.72123 c 0.26055,0.53079 0.57638,1.02846 0.95103,1.47825 h 4.7702 z"
           fill="#ffffff"
           stroke-width="0"
           id="path246" />
        <path
           d="m 99.79243,168.02593 c 1.00656,0.75747 2.20923,1.26431 3.52193,1.42732 v -1.42732 z"
           fill="#ffffff"
           stroke-width="0"
           id="path248" />
        <path
           d="m 105.15352,169.45324 c 1.3127,-0.16301 2.51538,-0.66985 3.52193,-1.42732 h -3.52193 z"
           fill="#ffffff"
           stroke-width="0"
           id="path250" />
      </g>
      <g
         id="g272">
        <path
           d="m 104.23374,210.18017 c -0.0797,0 -0.15689,0.01 -0.23585,0.0122 h 0.4717 c -0.079,-0.003 -0.15613,-0.0122 -0.23585,-0.0122 z"
           fill="#ffffff"
           stroke-width="0"
           id="path254" />
        <path
           d="m 104.46959,210.1924 h -0.4717 c -1.57708,0.0499 -3.02655,0.5914 -4.20528,1.47876 h 8.88251 c -1.17899,-0.88736 -2.62846,-1.42884 -4.20554,-1.47876 z"
           fill="#ffffff"
           stroke-width="0"
           id="path256" />
        <path
           d="M 109.92746,212.85397 H 98.54027 c -0.37389,0.44979 -0.68921,0.94798 -0.94925,1.47825 h 13.28569 c -0.26004,-0.53028 -0.57536,-1.02846 -0.94925,-1.47825 z"
           fill="#ffffff"
           stroke-width="0"
           id="path258" />
        <path
           d="m 111.33797,215.51503 h -14.2082 c -0.13805,0.47526 -0.22846,0.96937 -0.2687,1.47876 h 14.74561 c -0.0402,-0.50939 -0.13066,-1.0035 -0.2687,-1.47876 z"
           fill="#ffffff"
           stroke-width="0"
           id="path260" />
        <path
           d="m 97.5928,220.83817 c 0.26055,0.53079 0.57689,1.02897 0.95129,1.47876 h 11.3793 c 0.37466,-0.44979 0.69073,-0.94798 0.95154,-1.47876 z"
           fill="#ffffff"
           stroke-width="0"
           id="path262" />
        <path
           d="m 99.79261,223.49567 c 1.00656,0.75747 2.20923,1.26431 3.52168,1.42732 v -1.42732 z"
           fill="#ffffff"
           stroke-width="0"
           id="path264" />
        <path
           d="m 105.15345,224.92298 c 1.31245,-0.16301 2.51487,-0.66985 3.52142,-1.42732 h -3.52142 z"
           fill="#ffffff"
           stroke-width="0"
           id="path266" />
        <path
           d="m 103.31429,218.1766 h -6.45323 c 0.04075,0.50939 0.13142,1.0035 0.26972,1.47876 h 6.1835 v -1.47876 z"
           fill="#ffffff"
           stroke-width="0"
           id="path268" />
        <path
           d="m 105.15345,219.65536 h 6.1835 c 0.1383,-0.47526 0.22923,-0.96937 0.26947,-1.47876 h -6.45297 z"
           fill="#ffffff"
           stroke-width="0"
           id="path270" />
      </g>
      <g
         id="g294">
        <path
           d="m 86.72911,211.29667 c 0.07845,0 0.15435,-0.01 0.23203,-0.0117 h -0.46406 c 0.07768,0.002 0.15358,0.0117 0.23203,0.0117 z"
           fill="#ffffff"
           stroke-width="0"
           id="path274" />
        <path
           d="m 86.72911,196.49121 c -0.07997,0 -0.15766,0.009 -0.23712,0.0117 h 0.47424 c -0.07947,-0.003 -0.15715,-0.0117 -0.23712,-0.0117 z"
           fill="#ffffff"
           stroke-width="0"
           id="path276" />
        <path
           d="m 86.96623,196.50292 h -0.47424 c -1.57657,0.0504 -3.02553,0.59191 -4.20401,1.47876 h 8.88251 c -1.17873,-0.88685 -2.6277,-1.42833 -4.20426,-1.47876 z"
           fill="#ffffff"
           stroke-width="0"
           id="path278" />
        <path
           d="m 93.83334,201.82606 h -14.2082 c -0.13805,0.47526 -0.22846,0.96937 -0.2687,1.47876 h 14.74561 c -0.04024,-0.50939 -0.13066,-1.0035 -0.2687,-1.47876 z"
           fill="#ffffff"
           stroke-width="0"
           id="path280" />
        <path
           d="m 80.08817,207.1487 c 0.26055,0.53079 0.57689,1.02897 0.95129,1.47876 h 11.3793 c 0.37466,-0.44979 0.69073,-0.94798 0.95154,-1.47876 z"
           fill="#ffffff"
           stroke-width="0"
           id="path282" />
        <path
           d="m 86.49708,211.28496 h 0.46406 c 1.5786,-0.0494 3.02935,-0.59089 4.20936,-1.47876 h -8.88251 c 1.17975,0.88787 2.6305,1.42935 4.2091,1.47876 z"
           fill="#ffffff"
           stroke-width="0"
           id="path284" />
        <path
           d="m 85.80966,199.16449 h -4.77402 c -0.37415,0.44979 -0.68921,0.94849 -0.94925,1.47876 h 5.72327 z"
           fill="#ffffff"
           stroke-width="0"
           id="path286" />
        <path
           d="m 87.64881,200.64326 h 5.72352 c -0.2603,-0.53028 -0.57561,-1.02897 -0.94951,-1.47876 H 87.6488 v 1.47876 z"
           fill="#ffffff"
           stroke-width="0"
           id="path288" />
        <path
           d="m 85.80966,204.48764 h -6.45297 c 0.0405,0.50939 0.13117,1.0035 0.26947,1.47825 h 6.1835 z"
           fill="#ffffff"
           stroke-width="0"
           id="path290" />
        <path
           d="m 87.64881,205.96589 h 6.1835 c 0.1383,-0.47475 0.22897,-0.96886 0.26947,-1.47825 h -6.45297 z"
           fill="#ffffff"
           stroke-width="0"
           id="path292" />
      </g>
      <g
         id="g316">
        <path
           d="m 121.92444,211.29687 c 0.0784,0 0.15435,-0.01 0.23203,-0.0117 h -0.46406 c 0.0777,0.002 0.15358,0.0117 0.23203,0.0117 z"
           fill="none"
           stroke-width="0"
           id="path296" />
        <path
           d="m 121.92444,196.4914 c -0.08,0 -0.15766,0.009 -0.23712,0.0117 h 0.47424 c -0.0795,-0.003 -0.15715,-0.0117 -0.23712,-0.0117 z"
           fill="none"
           stroke-width="0"
           id="path298" />
        <path
           d="m 122.16157,196.50312 h -0.47424 c -1.57657,0.0504 -3.02553,0.59191 -4.20401,1.47876 h 8.88251 c -1.17873,-0.88685 -2.6277,-1.42833 -4.20426,-1.47876 z"
           fill="#ffffff"
           stroke-width="0"
           id="path300" />
        <path
           d="m 129.02867,201.82626 h -14.2082 c -0.13805,0.47526 -0.22846,0.96937 -0.2687,1.47876 h 14.74561 c -0.0402,-0.50939 -0.13066,-1.0035 -0.2687,-1.47876 z"
           fill="#ffffff"
           stroke-width="0"
           id="path302" />
        <path
           d="m 115.28351,207.14889 c 0.26055,0.53079 0.57689,1.02897 0.95129,1.47876 h 11.3793 c 0.37466,-0.44979 0.69073,-0.94798 0.95154,-1.47876 z"
           fill="#ffffff"
           stroke-width="0"
           id="path304" />
        <path
           d="m 121.69242,211.28515 h 0.46406 c 1.5786,-0.0494 3.02935,-0.59089 4.20936,-1.47876 h -8.88251 c 1.17975,0.88787 2.6305,1.42935 4.2091,1.47876 z"
           fill="#ffffff"
           stroke-width="0"
           id="path306" />
        <path
           d="m 121.00499,199.16469 h -4.77402 c -0.37415,0.44979 -0.68921,0.94849 -0.94925,1.47876 h 5.72327 z"
           fill="#ffffff"
           stroke-width="0"
           id="path308" />
        <path
           d="m 122.84415,200.64345 h 5.72352 c -0.2603,-0.53028 -0.57561,-1.02897 -0.94951,-1.47876 h -4.77402 v 1.47876 z"
           fill="#ffffff"
           stroke-width="0"
           id="path310" />
        <path
           d="m 121.00499,204.48783 h -6.45297 c 0.0405,0.50939 0.13117,1.0035 0.26947,1.47825 h 6.1835 z"
           fill="#ffffff"
           stroke-width="0"
           id="path312" />
        <path
           d="m 122.84415,205.96608 h 6.1835 c 0.1383,-0.47475 0.22897,-0.96886 0.26947,-1.47825 h -6.45297 z"
           fill="#ffffff"
           stroke-width="0"
           id="path314" />
      </g>
      <path
         d="m 189.59508,175.06252 c -7.97656,0 -14.48175,6.3544 -14.75962,14.26455 h -3.09888 c -0.27813,-8.19808 -7.01661,-14.78611 -15.28124,-14.78611 -0.77428,0 -1.52894,0.0764 -2.27265,0.18784 -2.08341,-5.57765 -5.24087,-10.59343 -9.40464,-14.90518 l -0.75084,0.72435 c 4.01935,4.16205 7.07468,8.99585 9.10767,14.36624 -6.84775,1.52219 -11.98726,7.63501 -11.98726,14.93447 0,7.29907 5.13925,13.41132 11.98649,14.93377 -2.03247,5.36695 -5.08627,10.1991 -9.10283,14.35981 l 0.75084,0.72435 c 4.16173,-4.31092 7.31741,-9.3246 9.3998,-14.89862 0.74371,0.11156 1.49888,0.1879 2.27341,0.1879 8.26462,0 15.00311,-6.58751 15.28124,-14.7856 h 3.09888 c 0.27813,7.9099 6.78306,14.26424 14.75962,14.26424 8.15256,0 14.78585,-6.63336 14.78585,-14.78598 0,-8.15262 -6.6333,-14.78604 -14.78585,-14.78604 z m -33.13974,29.05015 c -7.86551,0 -14.26449,-6.39898 -14.26449,-14.26398 0,-7.86551 6.39898,-14.26449 14.26449,-14.26449 7.86551,0 14.26449,6.39898 14.26449,14.26449 0,7.865 -6.39898,14.26398 -14.26449,14.26398 z m 33.13974,-0.39707 c -7.64648,0 -13.86717,-6.22056 -13.86717,-13.86704 0,-7.64648 6.22069,-13.8671 13.86717,-13.8671 7.64648,0 13.86717,6.22056 13.86717,13.8671 0,7.64654 -6.22069,13.86704 -13.86717,13.86704 z"
         fill="#ffffff"
         stroke-width="0"
         id="path318" />
      <path
         d="m 168.10309,145.96512 0.74881,-0.72639 c -4.83463,-4.99 -8.39019,-11.13734 -10.28156,-17.77725 l -1.0035,0.28628 c 1.93823,6.80445 5.58191,13.1041 10.53625,18.21737 z"
         fill="#ffffff"
         stroke-width="0"
         id="path320" />
      <path
         d="m 168.88857,86.50232 -0.74881,-0.72639 c -4.98694,5.13467 -8.64845,11.46589 -10.5877,18.30906 l 1.0035,0.28424 c 1.89239,-6.6771 5.46526,-12.85551 10.33301,-17.86691 z"
         fill="#ffffff"
         stroke-width="0"
         id="path322" />
      <path
         d="m 39.5938,145.23873 0.74881,0.72639 c 4.95434,-5.11327 8.59802,-11.41292 10.53625,-18.21737 l -1.0035,-0.28628 c -1.89137,6.63992 -5.44692,12.78726 -10.28156,17.77725 z"
         fill="#ffffff"
         stroke-width="0"
         id="path324" />
      <path
         d="M 50.89363,104.08499 C 48.95438,97.24182 45.29287,90.9106 40.30593,85.77593 l -0.74881,0.72639 c 4.86775,5.01139 8.44062,11.1898 10.33301,17.86691 z"
         fill="#ffffff"
         stroke-width="0"
         id="path326" />
      <path
         d="m 147.51756,49.80321 -0.58886,-0.86087 c -9.34275,6.38318 -19.73536,10.49958 -30.88848,12.23457 l 0.15995,1.03101 c 11.30849,-1.75893 21.84525,-5.93237 31.31739,-12.4047 z"
         fill="#ffffff"
         stroke-width="0"
         id="path328" />
      <path
         d="M 92.63215,61.1825 C 81.48412,59.45363 71.09508,55.34538 61.75284,48.97289 L 61.165,49.83478 c 9.47112,6.46061 20.00482,10.62591 31.3072,12.37872 l 0.15995,-1.03101 z"
         fill="#ffffff"
         stroke-width="0"
         id="path330" />
      <path
         d="m 168.85189,234.55492 -0.74881,-0.72639 c -4.95434,5.11327 -8.59802,11.41292 -10.53625,18.21737 l 1.0035,0.28628 c 1.89137,-6.63992 5.44692,-12.78726 10.28156,-17.77725 z"
         fill="#ffffff"
         stroke-width="0"
         id="path332" />
      <path
         d="m 157.55206,275.70866 c 1.93976,6.84367 5.60076,13.1749 10.5877,18.30855 l 0.74881,-0.72639 c -4.86724,-5.01037 -8.44011,-11.18878 -10.33301,-17.8664 z"
         fill="#ffffff"
         stroke-width="0"
         id="path334" />
      <path
         d="m 40.3426,233.82853 -0.74881,0.72639 c 4.83463,4.99 8.39019,11.13734 10.28156,17.77725 l 1.0035,-0.28628 c -1.93823,-6.80445 -5.58191,-13.1041 -10.53625,-18.21737 z"
         fill="#ffffff"
         stroke-width="0"
         id="path336" />
      <path
         d="m 39.55712,293.29082 0.74881,0.72639 c 4.98694,-5.13365 8.64794,-11.46487 10.5877,-18.30855 l -1.0035,-0.28424 c -1.8929,6.67761 -5.46577,12.85602 -10.33301,17.8664 z"
         fill="#ffffff"
         stroke-width="0"
         id="path338" />
      <path
         d="m 116.04022,318.61624 c 11.15262,1.73499 21.54522,5.85189 30.88848,12.23558 l 0.58886,-0.86189 c -9.47315,-6.47233 -20.00941,-10.64526 -31.31739,-12.4047 z"
         fill="#ffffff"
         stroke-width="0"
         id="path340" />
      <path
         d="m 61.165,329.95835 0.58784,0.86189 c 9.34224,-6.37249 19.73179,-10.48022 30.87931,-12.2091 l -0.15995,-1.03101 c -11.30238,1.75333 -21.83558,5.91811 -31.3072,12.37821 z"
         fill="#ffffff"
         stroke-width="0"
         id="path342" />
      <path
         d="m 64.49744,219.14226 c -4.01069,-4.15409 -7.06068,-8.97771 -9.09289,-14.3344 6.89742,-1.48481 12.08506,-7.62457 12.08506,-14.95917 0,-7.33505 -5.18841,-13.47563 -12.08633,-14.96 2.03324,-5.36007 5.08475,-10.18535 9.09773,-14.34071 l -0.75084,-0.72435 c -4.15995,4.30761 -7.31486,9.31824 -9.39853,14.88945 -0.71086,-0.10156 -1.43139,-0.17211 -2.16975,-0.17211 -8.26462,0 -15.00311,6.58802 -15.28124,14.78611 h -2.91041 c -0.27813,-7.97885 -6.83858,-14.38865 -14.88391,-14.38865 -8.22158,0 -14.9104,6.68882 -14.9104,14.9104 0,8.22107 6.68882,14.90938 14.9104,14.90938 8.04558,0 14.60604,-6.40935 14.88391,-14.38789 h 2.91041 c 0.27813,8.19808 7.01661,14.7856 15.28124,14.7856 0.73887,0 1.45992,-0.0705 2.17103,-0.17224 2.08214,5.56778 5.23553,10.57611 9.39369,14.88296 l 0.75084,-0.72435 z m -45.39111,-15.4273 c -7.64648,0 -13.86717,-6.22018 -13.86717,-13.86615 0,-7.64648 6.22069,-13.86717 13.86717,-13.86717 7.64648,0 13.86717,6.22069 13.86717,13.86717 0,7.64597 -6.22069,13.86615 -13.86717,13.86615 z m 33.07555,0.39771 c -7.86551,0 -14.26449,-6.39898 -14.26449,-14.26398 0,-7.86551 6.39898,-14.26449 14.26449,-14.26449 7.86551,0 14.26449,6.39898 14.26449,14.26449 0,7.865 -6.39898,14.26398 -14.26449,14.26398 z"
         fill="#ffffff"
         stroke-width="0"
         id="path344" />
      <path
         d="m 82.52531,167.35861 -2.63152,-4.51888 -0.90162,0.52467 2.62566,4.50901 c -2.60274,1.68367 -4.33263,4.60598 -4.33263,7.92976 0,5.20751 4.23661,9.44412 9.44412,9.44412 5.20751,0 9.44412,-4.23661 9.44412,-9.44412 0,-5.20751 -4.23661,-9.44437 -9.44412,-9.44437 -1.51162,0 -2.93613,0.36581 -4.20401,0.99981 z m 12.6049,8.44456 c 0,4.63954 -3.76135,8.40088 -8.40088,8.40088 -4.64005,0 -8.40088,-3.76135 -8.40088,-8.40088 0,-4.63953 3.76084,-8.40114 8.40088,-8.40114 4.63954,0 8.40088,3.7616 8.40088,8.40114 z"
         fill="#ffffff"
         stroke-width="0"
         id="path346" />
      <path
         d="m 121.92445,185.2471 c 5.20776,0 9.44437,-4.23661 9.44437,-9.44412 0,-3.31015 -1.71512,-6.22298 -4.30028,-7.9099 l 2.57905,-4.53327 -0.90672,-0.5155 -2.57752,4.53078 c -1.27654,-0.64476 -2.71353,-1.01649 -4.2389,-1.01649 -5.20751,0 -9.44412,4.23686 -9.44412,9.44437 0,5.20751 4.23661,9.44412 9.44412,9.44412 z m 0,-17.84526 c 4.63979,0 8.40114,3.7616 8.40114,8.40114 0,4.63954 -3.76135,8.40088 -8.40114,8.40088 -4.63979,0 -8.40088,-3.76135 -8.40088,-8.40088 0,-4.63953 3.76109,-8.40114 8.40088,-8.40114 z"
         fill="#ffffff"
         stroke-width="0"
         id="path348" />
      <path
         d="m 104.23405,171.55803 c 5.20751,0 9.44412,-4.23661 9.44412,-9.44412 0,-5.03222 -3.95899,-9.14562 -8.92403,-9.41801 v -4.5949 h -1.04323 v 4.59503 c -4.96402,0.27399 -8.92123,4.38669 -8.92123,9.41788 0,5.20751 4.23661,9.44412 9.44437,9.44412 z m 0,-17.84526 c 4.63979,0 8.40088,3.76135 8.40088,8.40114 0,4.63954 -3.76109,8.40088 -8.40088,8.40088 -4.63979,0 -8.40114,-3.76135 -8.40114,-8.40088 0,-4.63979 3.76135,-8.40114 8.40114,-8.40114 z"
         fill="#ffffff"
         stroke-width="0"
         id="path350" />
      <path
         d="m 104.2338,208.13922 c -5.20751,0 -9.44412,4.23661 -9.44412,9.44412 0,5.03101 3.95746,9.14377 8.92123,9.41763 v 4.59541 h 1.04323 v -4.59528 c 4.96529,-0.27252 8.92403,-4.38586 8.92403,-9.41776 0,-5.20751 -4.23661,-9.44412 -9.44437,-9.44412 z m 0,17.845 c -4.63979,0 -8.40088,-3.76135 -8.40088,-8.40088 0,-4.64005 3.76109,-8.40088 8.40088,-8.40088 4.63979,0 8.40114,3.76084 8.40114,8.40088 0,4.63954 -3.76135,8.40088 -8.40114,8.40088 z"
         fill="#ffffff"
         stroke-width="0"
         id="path352" />
      <path
         d="m 86.72932,194.44989 c -5.20751,0 -9.44412,4.23661 -9.44412,9.44412 0,3.32384 1.72989,6.24609 4.33288,7.92963 l -2.62591,4.50932 0.90162,0.52467 2.63152,-4.51913 c 1.26788,0.63387 2.69264,0.99962 4.20401,0.99962 5.20751,0 9.44412,-4.23661 9.44412,-9.44412 0,-5.20751 -4.23661,-9.44412 -9.44412,-9.44412 z m 0,17.84501 c -4.64005,0 -8.40088,-3.76135 -8.40088,-8.40088 0,-4.64005 3.76084,-8.40088 8.40088,-8.40088 4.63954,0 8.40088,3.76084 8.40088,8.40088 0,4.63954 -3.76135,8.40088 -8.40088,8.40088 z"
         fill="#ffffff"
         stroke-width="0"
         id="path354" />
      <path
         d="m 126.1631,212.32196 2.57778,4.5311 0.90672,-0.5155 -2.57905,-4.53352 c 2.58516,-1.68685 4.30028,-4.59961 4.30028,-7.90983 0,-5.20751 -4.23661,-9.44412 -9.44437,-9.44412 -5.20776,0 -9.44412,4.23661 -9.44412,9.44412 0,5.20751 4.23661,9.44412 9.44412,9.44412 1.52512,0 2.96211,-0.37166 4.23865,-1.01636 z m -12.63953,-8.42776 c 0,-4.64005 3.76109,-8.40088 8.40088,-8.40088 4.63979,0 8.40114,3.76084 8.40114,8.40088 0,4.63954 -3.76135,8.40088 -8.40114,8.40088 -4.63979,0 -8.40088,-3.76135 -8.40088,-8.40088 z"
         fill="#ffffff"
         stroke-width="0"
         id="path356" />
      <g
         id="g376">
        <g
           id="g362">
          <ellipse
             cx="102.01972"
             cy="188.38226"
             rx="5.9171801"
             ry="5.8651199"
             fill="none"
             stroke="#ffffff"
             stroke-miterlimit="10"
             stroke-width="0.5"
             id="ellipse358" />
          <ellipse
             cx="107.14415"
             cy="191.31483"
             rx="5.9171801"
             ry="5.8651199"
             fill="none"
             stroke="#ffffff"
             stroke-miterlimit="10"
             stroke-width="0.5"
             id="ellipse360" />
        </g>
        <g
           id="g368">
          <ellipse
             cx="107.14415"
             cy="188.38226"
             rx="5.9171801"
             ry="5.8651199"
             fill="none"
             stroke="#ffffff"
             stroke-miterlimit="10"
             stroke-width="0.5"
             id="ellipse364" />
          <ellipse
             cx="102.01972"
             cy="191.31483"
             rx="5.9171801"
             ry="5.8651199"
             fill="none"
             stroke="#ffffff"
             stroke-miterlimit="10"
             stroke-width="0.5"
             id="ellipse366" />
        </g>
        <g
           id="g374">
          <ellipse
             cx="104.58193"
             cy="186.91599"
             rx="5.9171801"
             ry="5.8651199"
             fill="none"
             stroke="#ffffff"
             stroke-miterlimit="10"
             stroke-width="0.5"
             id="ellipse370" />
          <ellipse
             cx="104.58194"
             cy="192.78111"
             rx="5.9171801"
             ry="5.8651199"
             fill="none"
             stroke="#ffffff"
             stroke-miterlimit="10"
             stroke-width="0.5"
             id="ellipse372" />
        </g>
      </g>
      <circle
         cx="104.58193"
         cy="189.84856"
         r="10.38916"
         fill="none"
         stroke="#ffffff"
         stroke-miterlimit="10"
         stroke-width="0.5"
         id="circle378" />
      <rect
         x="103.83734"
         y="189.10397"
         width="1.48913"
         height="1.48913"
         rx="0.71371001"
         ry="0.71371001"
         fill="#ffffff"
         stroke-width="0"
         id="rect380" />
      <g
         id="g402">
        <path
           d="m 77.59487,256.3986 c -0.07997,0 -0.15766,0.009 -0.23712,0.0117 h 0.4745 c -0.07947,-0.003 -0.1574,-0.0117 -0.23738,-0.0117 z"
           fill="#ffffff"
           stroke-width="0"
           id="path382" />
        <path
           d="m 77.83225,256.41031 h -0.4745 c -1.57657,0.0499 -3.02553,0.59191 -4.20401,1.47876 h 8.88251 c -1.17873,-0.88685 -2.6277,-1.42884 -4.20401,-1.47876 z"
           fill="#ffffff"
           stroke-width="0"
           id="path384" />
        <path
           d="M 84.9678,264.39451 H 70.22244 c 0.0405,0.50939 0.13117,1.00401 0.26947,1.47876 h 14.20617 c 0.1383,-0.47475 0.22923,-0.96937 0.26972,-1.47876 z"
           fill="#ffffff"
           stroke-width="0"
           id="path386" />
        <path
           d="M 84.23606,267.05608 H 70.95393 c 0.26081,0.53079 0.57689,1.02897 0.95154,1.47876 h 11.3793 c 0.3744,-0.44979 0.69048,-0.94798 0.95129,-1.47876 z"
           fill="#ffffff"
           stroke-width="0"
           id="path388" />
        <path
           d="M 76.67542,259.07188 H 71.9014 c -0.37389,0.44979 -0.68921,0.94798 -0.94951,1.47876 h 5.72352 v -1.47876 z"
           fill="#ffffff"
           stroke-width="0"
           id="path390" />
        <path
           d="m 78.51483,260.55065 h 5.72327 c -0.2603,-0.53079 -0.57536,-1.02897 -0.94951,-1.47876 h -4.77376 z"
           fill="#ffffff"
           stroke-width="0"
           id="path392" />
        <path
           d="M 76.67542,261.73345 H 70.4909 c -0.13805,0.47475 -0.22846,0.96886 -0.2687,1.47825 h 6.45323 v -1.47825 z"
           fill="#ffffff"
           stroke-width="0"
           id="path394" />
        <path
           d="m 78.51483,263.21171 h 6.45297 c -0.04024,-0.50939 -0.13066,-1.0035 -0.2687,-1.47825 h -6.18427 z"
           fill="#ffffff"
           stroke-width="0"
           id="path396" />
        <path
           d="m 73.15374,269.71358 c 1.00656,0.75747 2.20923,1.26431 3.52168,1.42732 v -1.42732 z"
           fill="#ffffff"
           stroke-width="0"
           id="path398" />
        <path
           d="m 78.51483,269.71358 v 1.42732 c 1.31245,-0.16301 2.51487,-0.66985 3.52142,-1.42732 z"
           fill="#ffffff"
           stroke-width="0"
           id="path400" />
      </g>
      <path
         d="m 77.595,255.40049 c 4.63979,0 8.40114,3.76084 8.40114,8.40088 0,4.63954 -3.76135,8.40088 -8.40114,8.40088 -4.63979,0 -8.40088,-3.76135 -8.40088,-8.40088 0,-4.64005 3.76109,-8.40088 8.40088,-8.40088 m 0,-1.04323 c -5.20751,0 -9.44412,4.23661 -9.44412,9.44412 0,5.20751 4.23661,9.44412 9.44412,9.44412 5.20751,0 9.44437,-4.23661 9.44437,-9.44412 0,-5.20751 -4.23661,-9.44412 -9.44437,-9.44412 z"
         fill="#ffffff"
         stroke-width="0"
         id="path404" />
      <g
         id="g426">
        <path
           d="M 110.01432,83.2734 H 98.62713 c -0.37389,0.44979 -0.68921,0.94798 -0.94925,1.47825 h 13.28569 c -0.26004,-0.53028 -0.5751,-1.02846 -0.94925,-1.47825 z"
           fill="#ffffff"
           stroke-width="0"
           id="path406" />
        <path
           d="m 111.42483,85.93446 h -14.2082 c -0.13805,0.47526 -0.22846,0.96937 -0.2687,1.47876 h 14.74561 c -0.0402,-0.50939 -0.13066,-1.0035 -0.2687,-1.47876 z"
           fill="#ffffff"
           stroke-width="0"
           id="path408" />
        <path
           d="m 103.40115,80.66277 c -1.3127,0.16301 -2.51538,0.67036 -3.52219,1.42782 h 3.52219 z"
           fill="#ffffff"
           stroke-width="0"
           id="path410" />
        <path
           d="m 108.76249,82.0906 c -1.00656,-0.75747 -2.20923,-1.26482 -3.52193,-1.42782 v 1.42782 z"
           fill="#ffffff"
           stroke-width="0"
           id="path412" />
        <path
           d="m 105.24056,88.59603 v 1.47876 h 6.18325 c 0.1383,-0.47526 0.22923,-0.96937 0.26972,-1.47876 z"
           fill="#ffffff"
           stroke-width="0"
           id="path414" />
        <path
           d="m 103.40115,88.59603 h -6.45297 c 0.0405,0.50939 0.13117,1.0035 0.26947,1.47876 h 6.1835 z"
           fill="#ffffff"
           stroke-width="0"
           id="path416" />
        <path
           d="m 103.40115,91.25761 h -5.72149 c 0.26081,0.53079 0.57689,1.02897 0.95154,1.47876 h 4.76994 v -1.47876 z"
           fill="#ffffff"
           stroke-width="0"
           id="path418" />
        <path
           d="m 105.24056,92.73637 h 4.76994 c 0.37466,-0.44979 0.69073,-0.94798 0.95129,-1.47876 h -5.72123 z"
           fill="#ffffff"
           stroke-width="0"
           id="path420" />
        <path
           d="m 105.24056,95.34191 c 1.31219,-0.16301 2.51487,-0.66934 3.52117,-1.42681 h -3.52117 z"
           fill="#ffffff"
           stroke-width="0"
           id="path422" />
        <path
           d="m 99.87972,93.9151 c 1.00656,0.75747 2.20898,1.26431 3.52142,1.42732 V 93.9151 Z"
           fill="#ffffff"
           stroke-width="0"
           id="path424" />
      </g>
      <path
         d="m 104.32073,79.60186 c 4.63979,0 8.40114,3.76084 8.40114,8.40088 0,4.63954 -3.76135,8.40088 -8.40114,8.40088 -4.63979,0 -8.40088,-3.76135 -8.40088,-8.40088 0,-4.64005 3.76109,-8.40088 8.40088,-8.40088 m 0,-1.04323 c -5.20751,0 -9.44412,4.23661 -9.44412,9.44412 0,5.20751 4.23661,9.44412 9.44412,9.44412 5.20751,0 9.44437,-4.23661 9.44437,-9.44412 0,-5.20751 -4.23661,-9.44412 -9.44437,-9.44412 z"
         fill="#ffffff"
         stroke-width="0"
         id="path428" />
      <g
         id="g442">
        <path
           d="m 92.32359,23.34847 c -0.07335,0.62757 -0.30513,1.11149 -0.69481,1.45278 -0.38968,0.34129 -0.90825,0.51143 -1.55466,0.51143 -0.70092,0 -1.26278,-0.25164 -1.68507,-0.7539 -0.42229,-0.50226 -0.63368,-1.17466 -0.63368,-2.01719 v -0.57052 c 0,-0.55116 0.09831,-1.0361 0.29545,-1.45482 0.19714,-0.41872 0.47628,-0.73964 0.83744,-0.96377 0.36116,-0.22413 0.77988,-0.3362 1.25514,-0.3362 0.63012,0 1.13543,0.17625 1.51595,0.52773 0.38052,0.35148 0.60159,0.83846 0.66425,1.46093 h -0.7865 c -0.06775,-0.47373 -0.21547,-0.81706 -0.44215,-1.02999 -0.22668,-0.21293 -0.54403,-0.31888 -0.95154,-0.31888 -0.49971,0 -0.89194,0.18542 -1.17568,0.55422 -0.28373,0.37084 -0.42585,0.89653 -0.42585,1.57911 v 0.57459 c 0,0.64489 0.13448,1.15734 0.40344,1.53836 0.26896,0.38001 0.6454,0.57052 1.12881,0.57052 0.43451,0 0.76816,-0.09882 1.00044,-0.29545 0.23228,-0.19663 0.38663,-0.53995 0.46253,-1.02897 h 0.7865 z"
           fill="#ffffff"
           stroke-width="0"
           id="path430" />
        <path
           d="m 97.95542,22.45602 c 0,0.58173 -0.0978,1.08908 -0.29341,1.52206 -0.19561,0.43298 -0.47272,0.76409 -0.83133,0.99229 -0.35861,0.2282 -0.77682,0.34231 -1.25514,0.34231 -0.46711,0 -0.88176,-0.11512 -1.24292,-0.34435 -0.36116,-0.22923 -0.64183,-0.55727 -0.84151,-0.98211 -0.19968,-0.42484 -0.30207,-0.91792 -0.30767,-1.47724 v -0.42789 c 0,-0.57052 0.09933,-1.07482 0.29748,-1.51187 0.19815,-0.43705 0.47883,-0.77224 0.84151,-1.00452 0.36268,-0.23228 0.77784,-0.34842 1.24495,-0.34842 0.47526,0 0.89449,0.11512 1.25718,0.34435 0.36269,0.22923 0.64183,0.56237 0.83744,0.99841 0.19561,0.43604 0.29341,0.94339 0.29341,1.52206 v 0.37491 z m -0.77835,-0.38307 c 0,-0.70398 -0.1411,-1.24393 -0.42381,-1.61986 -0.28271,-0.37593 -0.678,-0.56441 -1.18586,-0.56441 -0.49462,0 -0.88379,0.18847 -1.16753,0.56441 -0.28374,0.37594 -0.42993,0.89857 -0.43808,1.56689 v 0.43604 c 0,0.68157 0.14314,1.21745 0.42993,1.60764 0.28679,0.39019 0.68106,0.58478 1.18383,0.58478 0.50532,0 0.89653,-0.1844 1.17364,-0.55218 0.27711,-0.36778 0.41974,-0.89551 0.42789,-1.58319 v -0.44011 z"
           fill="#ffffff"
           stroke-width="0"
           id="path432" />
        <path
           d="m 100.87729,22.58642 c -0.67087,-0.19255 -1.15938,-0.42993 -1.46501,-0.71111 -0.30563,-0.28118 -0.45845,-0.62859 -0.45845,-1.0412 0,-0.46762 0.18695,-0.85374 0.56033,-1.15938 0.37338,-0.30564 0.85934,-0.45845 1.45686,-0.45845 0.40751,0 0.77071,0.07845 1.0901,0.23636 0.31939,0.15791 0.56644,0.37491 0.74167,0.65202 0.17523,0.27711 0.26285,0.57969 0.26285,0.90875 h -0.7865 c 0,-0.35963 -0.1141,-0.64285 -0.34231,-0.84865 -0.22821,-0.2058 -0.55014,-0.30869 -0.96581,-0.30869 -0.38561,0 -0.68666,0.08558 -0.90264,0.2547 -0.21598,0.17116 -0.32397,0.40649 -0.32397,0.70907 0,0.24247 0.10239,0.44725 0.30767,0.61433 0.20528,0.16708 0.55422,0.3199 1.04731,0.45947 0.49309,0.13855 0.8787,0.29137 1.15734,0.45845 0.27864,0.16708 0.48494,0.36167 0.61942,0.58478 0.13448,0.22311 0.20172,0.48494 0.20172,0.7865 0,0.48087 -0.18746,0.86597 -0.56237,1.1553 -0.37491,0.28933 -0.87615,0.434 -1.50372,0.434 -0.40751,0 -0.78803,-0.07845 -1.14104,-0.23432 -0.35301,-0.15587 -0.62553,-0.36982 -0.81706,-0.64183 -0.19153,-0.27201 -0.2873,-0.57969 -0.2873,-0.92505 h 0.7865 c 0,0.35861 0.13244,0.64183 0.39733,0.84967 0.26489,0.20784 0.61891,0.31175 1.06157,0.31175 0.41312,0 0.72945,-0.08456 0.94951,-0.25266 0.22006,-0.1681 0.33009,-0.39834 0.33009,-0.6887 0,-0.29036 -0.10188,-0.5155 -0.30563,-0.67443 -0.20375,-0.15893 -0.57307,-0.31582 -1.10844,-0.47068 z"
           fill="#ffffff"
           stroke-width="0"
           id="path434" />
        <path
           d="m 105.09098,19.29779 1.93976,4.84126 1.93976,-4.84126 h 1.01471 v 5.93339 h -0.78243 v -2.3106 l 0.0733,-2.49398 -1.94791,4.80458 h -0.59904 l -1.94384,-4.79236 0.0774,2.48176 v 2.3106 h -0.78243 v -5.93339 h 1.01063 z"
           fill="#ffffff"
           stroke-width="0"
           id="path436" />
        <path
           d="m 115.93083,22.45602 c 0,0.58173 -0.0978,1.08908 -0.29341,1.52206 -0.19561,0.43298 -0.47272,0.76409 -0.83133,0.99229 -0.35861,0.2282 -0.77682,0.34231 -1.25514,0.34231 -0.46711,0 -0.88176,-0.11512 -1.24292,-0.34435 -0.36116,-0.22923 -0.64183,-0.55727 -0.84151,-0.98211 -0.19968,-0.42484 -0.30207,-0.91792 -0.30767,-1.47724 v -0.42789 c 0,-0.57052 0.0993,-1.07482 0.29748,-1.51187 0.19815,-0.43705 0.47883,-0.77224 0.84151,-1.00452 0.36268,-0.23228 0.77784,-0.34842 1.24495,-0.34842 0.47526,0 0.89449,0.11512 1.25718,0.34435 0.36269,0.22923 0.64183,0.56237 0.83744,0.99841 0.19561,0.43604 0.29341,0.94339 0.29341,1.52206 v 0.37491 z m -0.77835,-0.38307 c 0,-0.70398 -0.1411,-1.24393 -0.42381,-1.61986 -0.28271,-0.37593 -0.678,-0.56441 -1.18586,-0.56441 -0.49462,0 -0.88379,0.18847 -1.16753,0.56441 -0.28374,0.37594 -0.42993,0.89857 -0.43808,1.56689 v 0.43604 c 0,0.68157 0.14314,1.21745 0.42993,1.60764 0.28679,0.39019 0.68106,0.58478 1.18383,0.58478 0.50532,0 0.89653,-0.1844 1.17364,-0.55218 0.27711,-0.36778 0.41974,-0.89551 0.42789,-1.58319 v -0.44011 z"
           fill="#ffffff"
           stroke-width="0"
           id="path438" />
        <path
           d="m 118.8527,22.58642 c -0.67087,-0.19255 -1.15938,-0.42993 -1.46501,-0.71111 -0.30563,-0.28118 -0.45845,-0.62859 -0.45845,-1.0412 0,-0.46762 0.18695,-0.85374 0.56033,-1.15938 0.37338,-0.30564 0.85934,-0.45845 1.45686,-0.45845 0.40751,0 0.77071,0.07845 1.0901,0.23636 0.31939,0.15791 0.56644,0.37491 0.74167,0.65202 0.17523,0.27711 0.26285,0.57969 0.26285,0.90875 h -0.7865 c 0,-0.35963 -0.1141,-0.64285 -0.34231,-0.84865 -0.22821,-0.2058 -0.55014,-0.30869 -0.96581,-0.30869 -0.38561,0 -0.68666,0.08558 -0.90264,0.2547 -0.21598,0.17116 -0.32397,0.40649 -0.32397,0.70907 0,0.24247 0.10239,0.44725 0.30767,0.61433 0.20528,0.16708 0.55422,0.3199 1.04731,0.45947 0.49309,0.13855 0.8787,0.29137 1.15734,0.45845 0.27864,0.16708 0.48494,0.36167 0.61942,0.58478 0.13448,0.22311 0.20172,0.48494 0.20172,0.7865 0,0.48087 -0.18746,0.86597 -0.56237,1.1553 -0.37491,0.28933 -0.87615,0.434 -1.50372,0.434 -0.40751,0 -0.78803,-0.07845 -1.14104,-0.23432 -0.35301,-0.15587 -0.62553,-0.36982 -0.81706,-0.64183 -0.19153,-0.27201 -0.2873,-0.57969 -0.2873,-0.92505 h 0.7865 c 0,0.35861 0.13244,0.64183 0.39733,0.84967 0.26489,0.20784 0.61891,0.31175 1.06157,0.31175 0.41312,0 0.72945,-0.08456 0.94951,-0.25266 0.22006,-0.1681 0.33009,-0.39834 0.33009,-0.6887 0,-0.29036 -0.10188,-0.5155 -0.30563,-0.67443 -0.20375,-0.15893 -0.57307,-0.31582 -1.10844,-0.47068 z"
           fill="#ffffff"
           stroke-width="0"
           id="path440" />
      </g>
      <g
         id="g464">
        <path
           d="m 79.34444,360.17837 v -5.75626 h 2.01627 c 0.69818,0 1.22795,0.13363 1.5893,0.40167 0.36135,0.26725 0.54163,0.65944 0.54163,1.17576 0,0.28228 -0.07274,0.53056 -0.21744,0.74563 -0.1447,0.21428 -0.34632,0.37163 -0.60488,0.47204 0.29493,0.0735 0.52739,0.22298 0.69818,0.44674 0.16921,0.22377 0.2546,0.49814 0.2546,0.82232 0,0.55349 -0.17632,0.97255 -0.52977,1.2572 -0.35345,0.28465 -0.85632,0.42935 -1.51023,0.43488 h -2.23767 z m 1.18604,-3.34464 h 0.87767 c 0.59856,-0.0103 0.89744,-0.24907 0.89744,-0.71558 0,-0.26093 -0.07591,-0.44832 -0.22693,-0.56377 -0.15181,-0.11386 -0.39139,-0.17158 -0.71795,-0.17158 h -0.83023 v 1.45092 z m 0,0.83814 v 1.55372 h 1.01604 c 0.27912,0 0.49735,-0.0664 0.6539,-0.20005 0.15735,-0.13284 0.23563,-0.31628 0.23563,-0.55111 0,-0.52739 -0.27279,-0.79465 -0.81837,-0.80256 h -1.08721 z"
           fill="#ffffff"
           stroke-width="0"
           id="path444" />
        <path
           d="m 85.69767,359.22558 h 2.51836 v 0.95279 h -3.7044 v -5.75626 h 1.18604 z"
           fill="#ffffff"
           stroke-width="0"
           id="path446" />
        <path
           d="m 92.2209,358.99233 h -2.07953 l -0.39535,1.18604 h -1.26116 l 2.14278,-5.75626 h 1.09907 l 2.15464,5.75626 h -1.26116 l -0.3993,-1.18604 z m -1.75929,-0.9607 h 1.43906 l -0.72349,-2.15464 -0.71558,2.15464 z"
           fill="#ffffff"
           stroke-width="0"
           id="path448" />
        <path
           d="m 98.85483,358.26093 c -0.04507,0.61911 -0.27358,1.10697 -0.68553,1.46279 -0.41274,0.35581 -0.95674,0.53372 -1.6312,0.53372 -0.73772,0 -1.31809,-0.24828 -1.7419,-0.74483 -0.42223,-0.49735 -0.63414,-1.17893 -0.63414,-2.04632 v -0.35186 c 0,-0.55349 0.09726,-1.04134 0.29256,-1.46279 0.1953,-0.42145 0.47363,-0.74563 0.83655,-0.97018 0.36214,-0.22614 0.78279,-0.33842 1.26274,-0.33842 0.66418,0 1.19948,0.17791 1.60511,0.53372 0.40563,0.35581 0.64046,0.85553 0.70372,1.49837 H 97.6767 c -0.02926,-0.37163 -0.13205,-0.64125 -0.31074,-0.80809 -0.17712,-0.16763 -0.44832,-0.25144 -0.81204,-0.25144 -0.39535,0 -0.69107,0.14153 -0.88795,0.42539 -0.19609,0.28307 -0.29651,0.72269 -0.30205,1.31809 v 0.43488 c 0,0.62228 0.09409,1.07693 0.28307,1.36395 0.18819,0.28702 0.48549,0.43093 0.89111,0.43093 0.36609,0 0.63967,-0.0838 0.81995,-0.25065 0.18107,-0.16763 0.28465,-0.42698 0.31074,-0.77725 h 1.18604 z"
           fill="#ffffff"
           stroke-width="0"
           id="path450" />
        <path
           d="m 101.43645,357.86954 -0.61674,0.66418 v 1.64464 h -1.18604 v -5.75626 h 1.18604 v 2.60929 l 0.52186,-0.71558 1.46674,-1.89371 h 1.45883 l -2.04395,2.5579 2.10325,3.19836 h -1.41139 l -1.4786,-2.30883 z"
           fill="#ffffff"
           stroke-width="0"
           id="path452" />
        <path
           d="m 111.47037,360.17837 h -1.18604 l -2.30883,-3.78743 v 3.78743 h -1.18604 v -5.75626 h 1.18604 l 2.31278,3.79533 v -3.79533 h 1.18209 z"
           fill="#ffffff"
           stroke-width="0"
           id="path454" />
        <path
           d="m 117.23453,357.4307 c 0,0.56693 -0.10042,1.06348 -0.30046,1.49046 -0.20004,0.42698 -0.48707,0.75669 -0.86028,0.98837 -0.37242,0.23167 -0.80018,0.34791 -1.28251,0.34791 -0.47679,0 -0.90297,-0.11465 -1.27697,-0.34395 -0.374,-0.2293 -0.66418,-0.55665 -0.86976,-0.98283 -0.20558,-0.42539 -0.30995,-0.91483 -0.31232,-1.46832 v -0.28465 c 0,-0.56693 0.102,-1.06507 0.30679,-1.49679 0.204,-0.43014 0.4926,-0.76144 0.86502,-0.99153 0.37321,-0.23088 0.79939,-0.34632 1.27934,-0.34632 0.47995,0 0.90614,0.11544 1.27934,0.34632 0.37242,0.23009 0.66102,0.56139 0.86502,0.99153 0.20479,0.43172 0.30679,0.92907 0.30679,1.49283 v 0.25698 z m -1.20186,-0.26093 c 0,-0.6033 -0.10833,-1.0619 -0.32418,-1.37581 -0.21585,-0.31391 -0.52423,-0.47046 -0.92511,-0.47046 -0.39772,0 -0.7053,0.15498 -0.92116,0.46493 -0.21586,0.30916 -0.32577,0.76302 -0.32814,1.36158 v 0.2807 c 0,0.58749 0.10833,1.04372 0.32418,1.3679 0.21585,0.32418 0.52739,0.48628 0.93302,0.48628 0.39772,0 0.70372,-0.15656 0.91721,-0.46809 0.21349,-0.31312 0.32181,-0.76776 0.32418,-1.36632 v -0.2807 z"
           fill="#ffffff"
           stroke-width="0"
           id="path456" />
        <path
           d="m 119.35755,360.17837 h -1.18604 v -5.75626 h 1.18604 z"
           fill="#ffffff"
           stroke-width="0"
           id="path458" />
        <path
           d="m 123.44148,358.66814 c 0,-0.22377 -0.0791,-0.39614 -0.23721,-0.51553 -0.15814,-0.12019 -0.44279,-0.2467 -0.85395,-0.37953 -0.41116,-0.13363 -0.73693,-0.26488 -0.97651,-0.39377 -0.6539,-0.35344 -0.98046,-0.82865 -0.98046,-1.4272 0,-0.31074 0.0878,-0.58828 0.26251,-0.8326 0.17553,-0.24353 0.42698,-0.43409 0.7559,-0.57088 0.32735,-0.13679 0.69581,-0.20558 1.1046,-0.20558 0.41116,0 0.77725,0.0743 1.09907,0.22298 0.32181,0.14944 0.57167,0.35977 0.74879,0.63097 0.1787,0.27121 0.26725,0.57958 0.26725,0.92511 h -1.18604 c 0,-0.2633 -0.083,-0.46809 -0.24907,-0.61516 -0.16605,-0.14549 -0.3993,-0.21902 -0.69976,-0.21902 -0.29018,0 -0.51553,0.0609 -0.67604,0.18423 -0.16051,0.12177 -0.24116,0.28386 -0.24116,0.48391 0,0.18739 0.0941,0.34395 0.28307,0.47046 0.18819,0.12651 0.46572,0.24512 0.83181,0.35581 0.67446,0.20321 1.16627,0.45465 1.47465,0.75511 0.30837,0.30046 0.46256,0.67446 0.46256,1.12279 0,0.49814 -0.18819,0.88874 -0.56535,1.17181 -0.37716,0.28386 -0.884,0.42539 -1.52209,0.42539 -0.44279,0 -0.84604,-0.0806 -1.20976,-0.24353 -0.36372,-0.1613 -0.64125,-0.38349 -0.83181,-0.66576 -0.19135,-0.28228 -0.28702,-0.60883 -0.28702,-0.98046 h 1.19 c 0,0.63493 0.37953,0.95279 1.1386,0.95279 0.28228,0 0.50209,-0.0577 0.66023,-0.17158 0.15814,-0.11544 0.23721,-0.27516 0.23721,-0.48074 z"
           fill="#ffffff"
           stroke-width="0"
           id="path460" />
        <path
           d="m 128.89728,357.68373 h -2.2772 v 1.54185 h 2.67255 v 0.95279 h -3.85859 v -5.75626 h 3.85068 v 0.96069 h -2.66464 v 1.37186 h 2.2772 z"
           fill="#ffffff"
           stroke-width="0"
           id="path462" />
      </g>
      <path
         d="m 15.80649,218.10737 c -1.5376,-2.61222 -4.94263,-3.50722 -7.60572,-1.99904 -2.66284,1.50812 -3.57542,4.84832 -2.03782,7.46048 1.53734,2.61216 4.94263,3.50716 7.60572,1.99898 2.6631,-1.50812 3.57542,-4.84826 2.03782,-7.46042 z m -1.12499,4.62566 h -1.99325 v -4.07991 h -0.97243 v 4.07991 H 7.28819 v -0.71971 h 3.69793 v -3.3602 h -0.0013 v -0.71971 h 2.43464 v 0.71971 h -0.0015 v 3.3602 h 1.26355 v 0.71971 z"
         fill="#ffffff"
         stroke-width="0"
         id="path466" />
      <path
         d="m 13.76867,301.94341 c -2.66284,-1.50818 -6.06813,-0.61318 -7.60572,1.99904 -1.53734,2.61216 -0.62502,5.9523 2.03808,7.46042 2.6631,1.50818 6.06813,0.61318 7.60572,-1.99898 1.53734,-2.61216 0.62502,-5.95237 -2.03808,-7.46048 z m 0.91257,6.62476 h -1.99299 v -4.07991 H 9.28144 v 4.07991 H 7.28819 v -0.71971 h 1.26329 v -4.07991 h 4.86622 v 4.07991 h 1.26355 v 0.71971 z"
         fill="#ffffff"
         stroke-width="0"
         id="path468" />
      <path
         d="m 200.4362,216.15398 c -2.6631,-1.50812 -6.06813,-0.61312 -7.60572,1.99904 -1.53734,2.61216 -0.62502,5.95237 2.03808,7.46048 2.66284,1.50812 6.06813,0.61312 7.60572,-1.99904 1.53734,-2.61216 0.62502,-5.9523 -2.03808,-7.46048 z m 0.91258,6.62477 h -4.42763 v -4.07991 h -0.97243 v 4.07991 h -1.99299 v -0.71971 h 1.26329 v -3.3602 h -0.002 v -0.71971 h 2.43489 v 0.71971 h -0.002 v 3.3602 h 3.69793 z"
         fill="#ffffff"
         stroke-width="0"
         id="path470" />
      <path
         d="m 202.47402,303.98811 c -1.5376,-2.61216 -4.94263,-3.50716 -7.60572,-1.99904 -2.6631,1.50818 -3.57542,4.84832 -2.03782,7.46048 1.53734,2.61216 4.94263,3.50716 7.60572,1.99904 2.66284,-1.50812 3.57542,-4.84832 2.03782,-7.46048 z m -1.12524,4.62572 h -1.99299 v -4.07991 h -3.40681 v 4.07991 h -1.99325 v -0.71964 h 1.26355 v -4.07997 h 4.86622 v 4.07997 h 1.26329 v 0.71964 z"
         fill="#ffffff"
         stroke-width="0"
         id="path472" />
      <path
         d="m 200.44868,154.1427 c -2.66284,-1.50812 -6.06813,-0.61312 -7.60572,1.99904 -1.53734,2.61216 -0.62502,5.95237 2.03808,7.46048 2.66284,1.50818 6.06813,0.61318 7.60572,-1.99904 1.53734,-2.61216 0.62502,-5.9523 -2.03808,-7.46048 z m 0.91258,6.62476 h -4.42763 v -4.07991 h -0.97243 v 4.07991 h -1.99299 v -0.71971 h 1.26329 v -3.3602 h -0.001 v -0.71971 h 2.43464 v 0.71971 h -0.001 v 3.3602 h 3.69767 v 0.71971 z"
         fill="#ffffff"
         stroke-width="0"
         id="path474" />
      <path
         d="m 202.4865,70.30666 c -1.53734,-2.61216 -4.94263,-3.50716 -7.60572,-1.99904 -2.6631,1.50818 -3.57542,4.84832 -2.03782,7.46048 1.53734,2.61222 4.94263,3.50722 7.60572,1.99904 2.66284,-1.50812 3.57542,-4.84832 2.03782,-7.46048 z m -1.12524,4.62579 h -1.99299 v -4.07997 h -3.40681 v 4.07997 h -1.99299 v -0.71971 h 1.26329 v -4.07991 h 4.86622 v 4.07991 h 1.26329 v 0.71971 z"
         fill="#ffffff"
         stroke-width="0"
         id="path476" />
      <path
         d="m 40.37571,347.54694 c -2.66284,-1.50812 -6.06813,-0.61312 -7.60572,1.99904 -1.53734,2.61216 -0.62502,5.95237 2.03808,7.46048 2.6631,1.50818 6.06813,0.61318 7.60572,-1.99904 1.53734,-2.61216 0.62502,-5.9523 -2.03808,-7.46048 z m 0.91258,6.62483 H 39.2953 v -4.07997 h -3.40681 v 4.07997 h -1.99325 v -0.71971 h 1.26329 v -4.07991 h 4.86622 v 4.07991 h 1.26355 v 0.71971 z"
         fill="#ffffff"
         stroke-width="0"
         id="path478" />
      <path
         d="m 175.86698,349.57629 c -1.5376,-2.61222 -4.94288,-3.50716 -7.60572,-1.99904 -2.6631,1.50812 -3.57542,4.84832 -2.03808,7.46048 1.5376,2.61216 4.94288,3.50716 7.60572,1.99904 2.6631,-1.50818 3.57542,-4.84832 2.03808,-7.46048 z m -1.12525,4.62566 h -1.99299 v -4.07991 h -0.97243 v 4.07991 h -4.42763 v -0.71971 h 3.69793 v -3.3602 h -0.002 v -0.71971 h 2.43464 v 0.71971 h -0.001 v 3.3602 h 1.26329 v 0.71971 z"
         fill="#ffffff"
         stroke-width="0"
         id="path480" />
      <path
         d="m 104.31912,35.12707 c -2.8582,0 -5.17516,2.31697 -5.17516,5.1751 0,2.85813 2.31697,5.1751 5.17516,5.1751 2.85794,0 5.17491,-2.31697 5.17491,-5.1751 0,-2.85813 -2.31697,-5.1751 -5.17491,-5.1751 z m 0.58478,6.47302 v 1.75638 h -1.17771 v -1.79306 l -1.47112,-4.31556 h 1.23069 l 0.84763,3.01967 0.8191,-3.01967 h 1.23069 l -1.47927,4.35224 z"
         fill="#ffffff"
         stroke-width="0"
         id="path482" />
      <g
         id="g488">
        <path
           d="m 29.75541,114.55706 c -0.26896,0 -0.47679,0.11614 -0.6235,0.35046 -0.1467,0.2333 -0.22006,0.60006 -0.22006,1.10029 0,0.81503 0.27813,1.22254 0.8354,1.22254 0.32295,0 0.55931,-0.1304 0.70907,-0.39121 v -1.85419 c -0.14976,-0.28526 -0.38306,-0.42789 -0.70092,-0.42789 z"
           fill="#ffffff"
           stroke-width="0"
           id="path484" />
        <path
           d="m 29.92045,110.72064 c -2.8582,0 -5.17516,2.31697 -5.17516,5.1751 0,2.85813 2.31697,5.1751 5.17516,5.1751 2.85819,0 5.17516,-2.31697 5.17516,-5.1751 0,-2.85813 -2.31697,-5.1751 -5.17516,-5.1751 z m 1.68099,7.46328 c -0.49207,0 -0.83031,-0.22719 -1.01471,-0.68055 -0.2659,0.4503 -0.64489,0.67647 -1.13696,0.67647 -0.50226,0 -0.90774,-0.17931 -1.21439,-0.53588 -0.30665,-0.35759 -0.47373,-0.84763 -0.50124,-1.46909 l -0.0041,-0.24858 c 0,-0.71519 0.15486,-1.27959 0.46457,-1.69525 0.30971,-0.41566 0.73047,-0.6235 1.26329,-0.6235 0.44826,0 0.80382,0.20376 1.06768,0.61127 l 0.08558,-0.52977 h 1.02286 v 3.04412 c 0.0082,0.3199 0.10493,0.48087 0.28933,0.48087 0.03769,0 0.06826,-0.006 0.08965,-0.0163 l 0.0978,0.8843 c -0.1355,0.0672 -0.30563,0.10188 -0.50939,0.10188 z"
           fill="#ffffff"
           stroke-width="0"
           id="path486" />
      </g>
      <g
         id="g494">
        <path
           d="m 178.72594,115.4434 h -0.39529 v -0.86393 h 0.31786 c 0.46457,-0.0163 0.69685,-0.29137 0.69685,-0.82521 0,-0.22362 -0.0672,-0.40344 -0.20172,-0.53945 -0.13448,-0.13601 -0.31175,-0.20427 -0.5318,-0.20427 -0.23126,0 -0.42076,0.0769 -0.57052,0.23024 -0.14976,0.15384 -0.22413,0.36523 -0.22413,0.6347 v 3.09608 c 0.22311,0.1574 0.51652,0.23636 0.88023,0.23636 0.27711,0 0.49717,-0.0779 0.66017,-0.23381 0.163,-0.15587 0.24451,-0.35556 0.24451,-0.59955 0,-0.2929 -0.0744,-0.52111 -0.22209,-0.68513 -0.14772,-0.16402 -0.36574,-0.24604 -0.65406,-0.24604 z"
           fill="#ffffff"
           stroke-width="0"
           id="path490" />
        <path
           d="m 178.70964,110.72064 c -2.8582,0 -5.17516,2.31697 -5.17516,5.1751 0,2.85813 2.31697,5.1751 5.17516,5.1751 2.85794,0 5.17491,-2.31697 5.17491,-5.1751 0,-2.85813 -2.31697,-5.1751 -5.17491,-5.1751 z m 1.58522,6.97019 c -0.32295,0.31124 -0.76714,0.4666 -1.33257,0.4666 -0.42891,0 -0.81095,-0.10341 -1.14511,-0.30971 v 1.88271 h -1.17771 v -5.86819 c 0,-0.33976 0.0856,-0.64744 0.25673,-0.92302 0.17115,-0.27558 0.40853,-0.49105 0.71315,-0.64591 0.30462,-0.15486 0.63878,-0.23228 1.00248,-0.23228 0.58682,0 1.0524,0.14161 1.39573,0.42381 0.34333,0.28322 0.5155,0.67698 0.5155,1.18281 0,0.27202 -0.0683,0.51754 -0.20376,0.73811 -0.1355,0.22006 -0.32703,0.39682 -0.57459,0.52977 0.33416,0.1141 0.58988,0.29596 0.76816,0.54607 0.17829,0.2496 0.26692,0.55269 0.26692,0.90825 0,0.55676 -0.16199,0.99026 -0.48494,1.30099 z"
           fill="#ffffff"
           stroke-width="0"
           id="path492" />
      </g>
      <g
         id="g500">
        <path
           d="m 29.92631,258.65182 c -2.85794,0 -5.17516,2.31697 -5.17516,5.1751 0,2.85813 2.31722,5.17504 5.17516,5.17504 2.8582,0 5.17516,-2.31697 5.17516,-5.17504 0,-2.85807 -2.31697,-5.1751 -5.17516,-5.1751 z m 1.52206,7.80559 c -0.38204,0.40904 -0.88634,0.61331 -1.51391,0.61331 -0.63266,0 -1.14206,-0.19764 -1.52614,-0.59293 -0.38408,-0.39529 -0.57663,-0.92964 -0.57663,-1.60356 v -0.0448 c 0,-0.42942 0.12124,-0.81503 0.36472,-1.15734 0.24348,-0.34231 0.54912,-0.56084 0.91894,-0.6561 l -0.01223,-0.0245 c -0.51041,-0.26336 -0.76612,-0.62757 -0.76612,-1.09214 0,-0.41566 0.14976,-0.73913 0.4503,-0.96988 0.30054,-0.23075 0.70805,-0.34639 1.22458,-0.34639 0.27405,0 0.5369,0.0341 0.7865,0.10188 l 0.27711,0.0815 v 0.90468 c -0.40446,-0.12786 -0.72537,-0.19153 -0.96173,-0.19153 -0.20376,0 -0.36371,0.0346 -0.48087,0.10392 -0.11716,0.0693 -0.17523,0.16504 -0.17523,0.2873 0,0.21751 0.21598,0.40191 0.64795,0.55422 0.43197,0.15231 0.79159,0.34231 1.07787,0.57052 0.28628,0.22821 0.49818,0.48749 0.63368,0.77835 0.1355,0.29086 0.20376,0.65049 0.20376,1.07991 0,0.66017 -0.19051,1.19452 -0.57256,1.60356 z"
           fill="#ffffff"
           stroke-width="0"
           id="path496" />
        <path
           d="m 29.93446,263.43163 c -0.2822,0 -0.50735,0.11614 -0.67443,0.34791 -0.16708,0.23177 -0.25062,0.57154 -0.25062,1.01929 0,0.41515 0.08252,0.73913 0.24858,0.97243 0.16606,0.2333 0.39121,0.34995 0.67647,0.34995 0.28017,0 0.50124,-0.11665 0.66425,-0.34995 0.16301,-0.2333 0.24451,-0.58427 0.24451,-1.05393 0,-0.30105 -0.08558,-0.57612 -0.25673,-0.82572 -0.17115,-0.2496 -0.38816,-0.40293 -0.65202,-0.45998 z"
           fill="#ffffff"
           stroke-width="0"
           id="path498" />
      </g>
      <path
         d="m 178.71524,258.65175 c -2.85794,0 -5.17491,2.31697 -5.17491,5.1751 0,2.85813 2.31697,5.1751 5.17491,5.1751 2.8582,0 5.17516,-2.31697 5.17516,-5.1751 0,-2.85813 -2.31697,-5.1751 -5.17516,-5.1751 z m 1.44667,7.08023 c -0.36167,0.25266 -0.8242,0.37899 -1.38962,0.37899 -0.60618,0 -1.09825,-0.12174 -1.47724,-0.36472 -0.37899,-0.24298 -0.56848,-0.56441 -0.56848,-0.96377 0,-0.49971 0.27711,-0.84101 0.83133,-1.02286 -0.23636,-0.0978 -0.42076,-0.22872 -0.55422,-0.39325 -0.13346,-0.16453 -0.19968,-0.34435 -0.19968,-0.53995 0,-0.39936 0.17625,-0.71315 0.52773,-0.94136 0.35148,-0.22821 0.83235,-0.34231 1.44056,-0.34231 0.54607,0 0.99331,0.12633 1.34072,0.37899 0.34741,0.25266 0.52162,0.57612 0.52162,0.96988 h -1.17771 c 0,-0.13855 -0.0683,-0.25011 -0.20579,-0.33416 -0.13753,-0.084 -0.31684,-0.12633 -0.53995,-0.12633 -0.22006,0 -0.39631,0.0448 -0.52977,0.13448 -0.13346,0.0897 -0.19968,0.20783 -0.19968,0.35454 0,0.1411 0.0611,0.25419 0.18338,0.33824 0.12225,0.084 0.30563,0.12633 0.55014,0.12633 h 0.76205 v 0.7865 h -0.77835 c -0.53282,0.003 -0.79873,0.17778 -0.79873,0.52569 0,0.14925 0.0744,0.27507 0.22209,0.37695 0.14772,0.10188 0.34333,0.15282 0.58478,0.15282 0.2496,0 0.44928,-0.0474 0.59701,-0.14263 0.14773,-0.0953 0.22209,-0.21445 0.22209,-0.35861 h 1.17771 c 0,0.41821 -0.18032,0.7539 -0.54199,1.00656 z"
         fill="#ffffff"
         stroke-width="0"
         id="path502" />
      <path
         d="m 104.32472,334.24539 c -2.85794,0 -5.17491,2.31697 -5.17491,5.1751 0,2.85813 2.31697,5.17504 5.17491,5.17504 2.8582,0 5.17516,-2.31697 5.17516,-5.17504 0,-2.85807 -2.31697,-5.1751 -5.17516,-5.1751 z m 1.81751,2.09124 -1.46297,1.74874 c -0.31786,0.36116 -0.53486,0.67036 -0.65202,0.92709 -0.11716,0.25673 -0.17523,0.53995 -0.17523,0.85017 0,0.2226 0.0489,0.39325 0.1467,0.51143 0.0978,0.11818 0.29443,0.21955 0.59089,0.3036 0.29646,0.084 0.51652,0.1518 0.66017,0.20325 0.28017,0.0973 0.47781,0.21853 0.59293,0.3632 0.11512,0.14467 0.17319,0.32958 0.17319,0.55422 0,0.20376 -0.0907,0.43808 -0.27303,0.70296 -0.18236,0.26488 -0.40649,0.49105 -0.6724,0.67851 l -0.59904,-0.45641 c 0.26081,-0.27456 0.38612,-0.50277 0.37491,-0.68462 0.0112,-0.17116 -0.11003,-0.29494 -0.36269,-0.37084 l -0.36676,-0.0937 c -0.50226,-0.12735 -0.86698,-0.31328 -1.09417,-0.55778 -0.22719,-0.244 -0.34027,-0.57001 -0.34027,-0.97701 0,-0.41566 0.0846,-0.80993 0.2547,-1.18332 0.17014,-0.37287 0.45438,-0.79567 0.85374,-1.26838 l 0.82725,-0.97701 h -2.11092 v -0.94951 h 3.63502 v 0.67545 z"
         fill="#ffffff"
         stroke-width="0"
         id="path504" />
      <path
         d="m 29.92045,109.98136 c 3.26644,0 5.91442,2.64794 5.91442,5.91439 0,3.26645 -2.64798,5.91439 -5.91442,5.91439 -3.26644,0 -5.91439,-2.64794 -5.91439,-5.91439 0,-3.26645 2.64798,-5.91439 5.91439,-5.91439 m 0,-0.52162 c -3.54884,0 -6.436,2.88717 -6.436,6.436 0,3.54883 2.88717,6.436 6.436,6.436 3.54883,0 6.43603,-2.88717 6.43603,-6.436 0,-3.54883 -2.8872,-6.436 -6.43603,-6.436 z"
         fill="#ffffff"
         stroke-width="0"
         id="path506" />
      <path
         d="m 29.92632,257.91251 c 3.26644,0 5.91442,2.64794 5.91442,5.91439 0,3.26645 -2.64798,5.91439 -5.91442,5.91439 -3.26644,0 -5.91439,-2.64794 -5.91439,-5.91439 0,-3.26645 2.64798,-5.91439 5.91439,-5.91439 m 0,-0.52161 c -3.54884,0 -6.436,2.88717 -6.436,6.436 0,3.54883 2.88717,6.436 6.436,6.436 3.54883,0 6.43603,-2.88717 6.43603,-6.436 0,-3.54883 -2.8872,-6.436 -6.43603,-6.436 z"
         fill="#ffffff"
         stroke-width="0"
         id="path508" />
      <path
         d="m 178.71535,257.91248 c 3.26644,0 5.91442,2.64794 5.91442,5.91439 0,3.26645 -2.64798,5.91439 -5.91442,5.91439 -3.26644,0 -5.91439,-2.64794 -5.91439,-5.91439 0,-3.26645 2.64798,-5.91439 5.91439,-5.91439 m 0,-0.52162 c -3.54884,0 -6.436,2.88717 -6.436,6.436 0,3.54883 2.88717,6.436 6.436,6.436 3.54883,0 6.43603,-2.88717 6.43603,-6.436 0,-3.54883 -2.8872,-6.436 -6.43603,-6.436 z"
         fill="#ffffff"
         stroke-width="0"
         id="path510" />
      <path
         d="m 104.32484,333.50609 c 3.26644,0 5.91442,2.64794 5.91442,5.91439 0,3.26645 -2.64798,5.91439 -5.91442,5.91439 -3.26644,0 -5.91439,-2.64794 -5.91439,-5.91439 0,-3.26645 2.64798,-5.91439 5.91439,-5.91439 m 0,-0.52162 c -3.54884,0 -6.436,2.88717 -6.436,6.436 0,3.54883 2.88717,6.436 6.436,6.436 3.54883,0 6.43603,-2.88717 6.43603,-6.436 0,-3.54883 -2.8872,-6.436 -6.43603,-6.436 z"
         fill="#ffffff"
         stroke-width="0"
         id="path512" />
      <path
         d="m 178.70948,109.98139 c 3.26644,0 5.91442,2.64794 5.91442,5.91439 0,3.26645 -2.64798,5.91439 -5.91442,5.91439 -3.26644,0 -5.91439,-2.64794 -5.91439,-5.91439 0,-3.26645 2.64798,-5.91439 5.91439,-5.91439 m 0,-0.52162 c -3.54884,0 -6.436,2.88717 -6.436,6.436 0,3.54883 2.88717,6.436 6.436,6.436 3.54883,0 6.43603,-2.88717 6.43603,-6.436 0,-3.54883 -2.8872,-6.436 -6.43603,-6.436 z"
         fill="#ffffff"
         stroke-width="0"
         id="path514" />
      <path
         d="m 104.31896,34.38779 c 3.26644,0 5.91442,2.64794 5.91442,5.91439 0,3.26645 -2.64798,5.91439 -5.91442,5.91439 -3.26644,0 -5.91439,-2.64794 -5.91439,-5.91439 0,-3.26645 2.64798,-5.91439 5.91439,-5.91439 m 0,-0.52162 c -3.54884,0 -6.436,2.88717 -6.436,6.436 0,3.54883 2.88717,6.436 6.436,6.436 3.54883,0 6.43603,-2.88717 6.43603,-6.436 0,-3.54883 -2.8872,-6.436 -6.43603,-6.436 z"
         fill="#ffffff"
         stroke-width="0"
         id="path516" />
    </g>
  </g>
  <g
     inkscape:groupmode="layer"
     id="layer2"
     inkscape:label="components"
     style="display:none">
    <circle
       cx="17.677158"
       cy="14.229953"
       fill="#0000ff"
       stroke-width="0"
       id="circle519"
       style="display:inline"
       r="1.6933333"
       inkscape:label="xor_gate" />
    <circle
       cx="35.329193"
       cy="21.20112"
       fill="#0000ff"
       stroke-width="0"
       id="circle521"
       style="display:inline"
       r="1.6933333"
       inkscape:label="tz_clipper" />
    <circle
       cx="52.981251"
       cy="14.219716"
       fill="#0000ff"
       stroke-width="0"
       id="circle523"
       style="display:inline"
       r="1.6933333"
       inkscape:label="xor_trig" />
    <circle
       cx="60.230396"
       cy="26.72488"
       fill="#0000ff"
       stroke-width="0"
       id="circle525"
       style="display:inline"
       r="1.6933333"
       inkscape:label="and_gate" />
    <circle
       cx="52.986183"
       cy="39.245148"
       fill="#0000ff"
       stroke-width="0"
       id="circle527"
       style="display:inline"
       r="1.6933333"
       inkscape:label="min" />
    <circle
       cx="60.205734"
       cy="51.77523"
       fill="#0000ff"
       stroke-width="0"
       id="circle529"
       style="display:inline"
       r="1.6933333"
       inkscape:label="and_trig" />
    <circle
       cx="45.756748"
       cy="51.77523"
       fill="#0000ff"
       stroke-width="0"
       id="circle531"
       style="display:inline"
       r="1.6933333"
       inkscape:label="y" />
    <circle
       cx="10.428035"
       cy="26.725487"
       fill="#0000ff"
       stroke-width="0"
       id="circle533"
       style="display:inline"
       r="1.6933333"
       inkscape:label="or_gate" />
    <circle
       cx="17.66979"
       cy="39.245148"
       fill="#0000ff"
       stroke-width="0"
       id="circle535"
       style="display:inline"
       r="1.6933333"
       inkscape:label="max" />
    <circle
       cx="24.889341"
       cy="51.77523"
       fill="#0000ff"
       stroke-width="0"
       id="circle537"
       style="display:inline"
       r="1.6933333"
       inkscape:label="x" />
    <circle
       cx="10.440354"
       cy="51.77523"
       fill="#0000ff"
       stroke-width="0"
       id="circle543"
       style="display:inline"
       r="1.6933333"
       inkscape:label="org_trig" />
    <circle
       cx="35.329208"
       cy="46.259815"
       fill="#0000ff"
       stroke-width="0"
       id="circle545"
       style="display:inline"
       r="1.6933333"
       inkscape:label="sum" />
    <circle
       cx="44.376099"
       cy="39.230392"
       fill="#ff00ff"
       stroke-width="0"
       id="circle583"
       style="display:inline"
       r="2.5159376"
       inkscape:label="min" />
    <circle
       cx="35.331085"
       cy="29.792826"
       fill="#ff00ff"
       stroke-width="0"
       id="circle585"
       style="display:inline"
       r="2.5159376"
       inkscape:label="xor" />
    <circle
       cx="26.278872"
       cy="39.230385"
       fill="#ff00ff"
       stroke-width="0"
       id="circle593"
       style="display:inline"
       r="2.5159376"
       inkscape:label="max" />
    <circle
       cx="17.670288"
       cy="64.346664"
       fill="#00ff00"
       stroke-width="0"
       id="circle539"
       style="display:inline"
       r="1.6933333"
       inkscape:label="x" />
    <circle
       cx="52.962101"
       cy="64.346687"
       fill="#00ff00"
       stroke-width="0"
       id="circle541"
       style="display:inline"
       r="1.6933333"
       inkscape:label="y" />
    <circle
       cx="52.981236"
       cy="114.36082"
       fill="#0000ff"
       stroke-width="0"
       id="circle547"
       style="display:inline"
       r="1.6933333"
       inkscape:label="xnor_trig" />
    <circle
       cx="35.329201"
       cy="107.38966"
       fill="#0000ff"
       stroke-width="0"
       id="circle549"
       style="display:inline"
       r="1.6933333"
       inkscape:label="inv_tz_clipper" />
    <circle
       cx="17.677143"
       cy="114.37108"
       fill="#0000ff"
       stroke-width="0"
       id="circle551"
       style="display:inline"
       r="1.6933333"
       inkscape:label="xnor_gate" />
    <circle
       cx="10.427999"
       cy="101.86589"
       fill="#0000ff"
       stroke-width="0"
       id="circle553"
       style="display:inline"
       r="1.6933333"
       inkscape:label="nor_gate" />
    <circle
       cx="17.672213"
       cy="89.345627"
       fill="#0000ff"
       stroke-width="0"
       id="circle555"
       style="display:inline"
       r="1.6933333"
       inkscape:label="inv_max" />
    <circle
       cx="10.452662"
       cy="76.815544"
       fill="#0000ff"
       stroke-width="0"
       id="circle557"
       style="display:inline"
       r="1.6933333"
       inkscape:label="nor_trig" />
    <circle
       cx="24.901646"
       cy="76.815544"
       fill="#0000ff"
       stroke-width="0"
       id="circle559"
       style="display:inline"
       r="1.6933333"
       inkscape:label="inv_x" />
    <circle
       cx="60.230362"
       cy="101.8653"
       fill="#0000ff"
       stroke-width="0"
       id="circle561"
       style="display:inline"
       r="1.6933333"
       inkscape:label="nand_gate" />
    <circle
       cx="52.988605"
       cy="89.345627"
       fill="#0000ff"
       stroke-width="0"
       id="circle563"
       style="display:inline"
       r="1.6933333"
       inkscape:label="inv_min" />
    <circle
       cx="45.769054"
       cy="76.815544"
       fill="#0000ff"
       stroke-width="0"
       id="circle565"
       style="display:inline"
       r="1.6933333"
       inkscape:label="inv_y" />
    <circle
       cx="60.218037"
       cy="76.815544"
       fill="#0000ff"
       stroke-width="0"
       id="circle567"
       style="display:inline"
       r="1.6933333"
       inkscape:label="nand_trig" />
    <circle
       cx="35.329185"
       cy="82.330971"
       fill="#0000ff"
       stroke-width="0"
       id="circle569"
       style="display:inline"
       r="1.6933333"
       inkscape:label="diff" />
    <circle
       cx="44.376099"
       cy="89.349594"
       fill="#ff00ff"
       stroke-width="0"
       id="circle571"
       style="display:inline"
       r="2.5159376"
       inkscape:label="inv_min" />
    <circle
       cx="35.331085"
       cy="98.787163"
       fill="#ff00ff"
       stroke-width="0"
       id="circle573"
       style="display:inline"
       r="2.5159376"
       inkscape:label="xnor" />
    <circle
       cx="35.300495"
       cy="73.688225"
       fill="#ff00ff"
       stroke-width="0"
       id="circle575"
       style="display:inline"
       r="2.5159376"
       inkscape:label="diff" />
    <circle
       cx="29.37233"
       cy="69.05217"
       fill="#ff00ff"
       stroke-width="0"
       id="circle577"
       style="display:inline"
       r="2.5159376"
       inkscape:label="inv_x" />
    <circle
       cx="41.291744"
       cy="69.05217"
       fill="#ff00ff"
       stroke-width="0"
       id="circle579"
       style="display:inline"
       r="2.5159376"
       inkscape:label="inv_y" />
    <circle
       cx="26.278883"
       cy="89.349594"
       fill="#ff00ff"
       stroke-width="0"
       id="circle581"
       style="display:inline"
       r="2.5159376"
       inkscape:label="inv_max" />
    <circle
       cx="35.300495"
       cy="54.891762"
       fill="#ff00ff"
       stroke-width="0"
       id="circle587"
       style="display:inline"
       r="2.5159376"
       inkscape:label="sum" />
    <circle
       cx="29.37233"
       cy="59.527817"
       fill="#ff00ff"
       stroke-width="0"
       id="circle589"
       style="display:inline"
       r="2.5159376"
       inkscape:label="x" />
    <circle
       cx="41.291744"
       cy="59.527817"
       fill="#ff00ff"
       stroke-width="0"
       id="circle591"
       style="display:inline"
       r="2.5159376"
       inkscape:label="y" />
    <circle
       cx="64.275322"
       cy="64.318268"
       fill="#ff0000"
       stroke-width="0"
       id="circle595"
       style="display:inline"
       r="1.6933333"
       inkscape:label="pad_y" />
    <circle
       cx="6.4697585"
       cy="64.318268"
       fill="#ff0000"
       stroke-width="0"
       id="circle597"
       style="display:inline"
       r="1.6933333"
       inkscape:label="pad_x" />
  </g>
</svg>
