<?xml version="1.0" encoding="utf-8"?>
<!-- Generator: Adobe Illustrator 28.7.1, SVG Export Plug-In . SVG Version: 9.03 Build 54978)  -->
<svg version="1.0" id="Layer_1" xmlns="http://www.w3.org/2000/svg" xmlns:xlink="http://www.w3.org/1999/xlink" x="0px" y="0px"
	 width="210px" height="380px" viewBox="0 0 210 380" enable-background="new 0 0 210 380" xml:space="preserve">
<g id="uuid-0864970b-cf5e-45a9-b525-34cac071c23d">
	
		<linearGradient id="SVGID_1_" gradientUnits="userSpaceOnUse" x1="105" y1="379.88983" x2="105" y2="-0.10962" gradientTransform="matrix(1 0 0 -1 0 379.88983)">
		<stop  offset="0" style="stop-color:#EBCB86"/>
		<stop  offset="1" style="stop-color:#C1924F"/>
	</linearGradient>
	<rect x="0" y="0" fill="url(#SVGID_1_)" width="210" height="379.99945"/>
</g>
<g id="uuid-2107d614-b903-4621-be8b-9906156e3ef3">
	<path fill="#242425" d="M29.92047,121.81012c3.26642,0,5.91443-2.64795,5.91443-5.91437s-2.64801-5.91443-5.91443-5.91443
		s-5.91443,2.64795-5.91443,5.91443S26.65405,121.81012,29.92047,121.81012z M29.92047,110.72064
		c2.85815,0,5.17517,2.31696,5.17517,5.17511s-2.31702,5.17505-5.17517,5.17505s-5.17517-2.31696-5.17517-5.17505
		S27.06226,110.72064,29.92047,110.72064z"/>
	<path fill="#1C1C1C" d="M104.32074,283.29346c-4.63983,0-8.40088,3.76086-8.40088,8.40088
		c0,4.63959,3.76105,8.40094,8.40088,8.40094s8.40112-3.76135,8.40112-8.40094
		C112.72186,287.05432,108.96051,283.29346,104.32074,283.29346z"/>
	<path fill="#242425" d="M28.23541,117.64398c0.30664,0.35657,0.7121,0.53583,1.21436,0.53583
		c0.49207,0,0.87109-0.22614,1.13696-0.67645c0.18439,0.45337,0.52264,0.68054,1.01471,0.68054
		c0.20374,0,0.3739-0.03461,0.5094-0.10187l-0.09778-0.88428c-0.02142,0.01013-0.052,0.0163-0.08966,0.0163
		c-0.18445,0-0.28119-0.16101-0.28937-0.4809v-3.04413H30.6112l-0.08557,0.52979c-0.26392-0.40753-0.61945-0.61127-1.06769-0.61127
		c-0.53284,0-0.95361,0.20782-1.26331,0.62347s-0.4646,0.9801-0.4646,1.69525l0.00409,0.2486
		C27.76165,116.79633,27.9287,117.28638,28.23541,117.64398z M29.1319,114.90753c0.14673-0.23438,0.35455-0.35046,0.62354-0.35046
		c0.31781,0,0.55115,0.14258,0.70093,0.42786v1.85419c-0.14978,0.2608-0.38617,0.39124-0.70911,0.39124
		c-0.55725,0-0.83539-0.40753-0.83539-1.22253c0-0.50024,0.07336-0.867,0.22003-1.10028V114.90753z"/>
	<polygon fill="#262627" points="9.27759,70.84296 12.68469,70.84296 12.68469,74.92297 14.67767,74.92297 14.67767,74.20325 
		13.41412,74.20325 13.41412,70.12335 8.54791,70.12335 8.54791,74.20325 7.28461,74.20325 7.28461,74.92297 9.27759,74.92297 	"/>
	<polygon fill="#222223" points="9.27734,156.67804 10.25006,156.67804 10.25006,160.03827 10.25006,160.75793 12.24304,160.75793 
		14.67743,160.75793 14.67743,160.03827 12.24304,160.03827 10.97974,160.03827 10.97974,156.67804 10.98102,156.67804 
		10.98102,155.95837 10.97974,155.95837 8.54791,155.95837 8.54639,155.95837 8.54639,156.67804 8.54791,156.67804 
		8.54791,160.03827 7.28436,160.03827 7.28436,160.75793 9.27734,160.75793 	"/>
	<polygon fill="#29292A" points="35.85077,25.23541 39.25757,25.23541 39.25757,29.31537 41.25061,29.31537 41.25061,28.5957 
		39.9873,28.5957 39.9873,24.51581 35.12109,24.51581 35.12109,28.5957 33.85754,28.5957 33.85754,29.31537 35.85077,29.31537 	"/>
	<polygon fill="#181819" points="40.02472,349.37213 35.15851,349.37213 35.15851,353.45203 33.89526,353.45203 33.89526,354.17175 
		35.88849,354.17175 35.88849,350.0918 39.29529,350.0918 39.29529,354.17175 41.28827,354.17175 41.28827,353.45203 
		40.02472,353.45203 	"/>
	<path fill="#212122" d="M86.72931,167.40204c-4.64001,0-8.40088,3.7616-8.40088,8.40112s3.76086,8.40088,8.40088,8.40088
		c4.63953,0,8.40088-3.76135,8.40088-8.40088S91.36884,167.40204,86.72931,167.40204z"/>
	<polygon fill="#1B1B1B" points="13.41772,303.76855 8.55145,303.76855 8.55145,307.84845 7.28821,307.84845 7.28821,308.56818 
		9.28143,308.56818 9.28143,304.48822 12.68823,304.48822 12.68823,308.56818 14.68121,308.56818 14.68121,307.84845 
		13.41772,307.84845 	"/>
	<polygon fill="#1F1F1F" points="11.71582,222.73303 11.71582,222.01331 11.71582,218.65308 12.68823,218.65308 12.68823,222.73303 
		14.68152,222.73303 14.68152,222.01331 13.41797,222.01331 13.41797,218.65308 13.41949,218.65308 13.41949,217.93341 
		13.41797,217.93341 10.98615,217.93341 10.98486,217.93341 10.98486,218.65308 10.98615,218.65308 10.98615,222.01331 
		9.72284,222.01331 7.28821,222.01331 7.28821,222.73303 9.72284,222.73303 	"/>
	<path fill="#1D1D1D" d="M31.18347,262.99554c-0.28625-0.22815-0.64587-0.41815-1.07788-0.5705
		c-0.43195-0.15228-0.64795-0.33673-0.64795-0.5542c0-0.12225,0.05811-0.21802,0.17523-0.28729
		c0.11719-0.06927,0.27716-0.10394,0.4809-0.10394c0.23633,0,0.55725,0.06366,0.96173,0.19153v-0.90466l-0.2771-0.08148
		c-0.24963-0.06775-0.51245-0.10193-0.7865-0.10193c-0.51654,0-0.92407,0.11566-1.22461,0.34644
		c-0.30054,0.23071-0.45026,0.5542-0.45026,0.96985c0,0.4646,0.25568,0.8288,0.76611,1.09216l0.01221,0.02441
		c-0.36981,0.09528-0.67548,0.31378-0.91895,0.65613c-0.24347,0.34229-0.36475,0.72791-0.36475,1.15735v0.0448
		c0,0.67395,0.19257,1.20825,0.57666,1.60358c0.38409,0.39526,0.89349,0.5929,1.52612,0.5929
		c0.62756,0,1.1319-0.20422,1.51392-0.61328c0.38208-0.40906,0.57257-0.94342,0.57257-1.60358
		c0-0.42938-0.06824-0.78906-0.20374-1.0799c-0.1355-0.29089-0.34741-0.55017-0.63373-0.77838H31.18347z M30.59869,265.77124
		c-0.16296,0.23334-0.38409,0.34998-0.66425,0.34998c-0.28522,0-0.51038-0.11664-0.67645-0.34998
		c-0.16608-0.23328-0.2486-0.55725-0.2486-0.97241c0-0.44775,0.08356-0.78754,0.25061-1.01929
		c0.16711-0.23181,0.39227-0.3479,0.67444-0.3479c0.26385,0.05701,0.4809,0.21033,0.65204,0.45996
		c0.17114,0.24957,0.25671,0.52466,0.25671,0.82574C30.84319,265.18695,30.76171,265.53796,30.59869,265.77124z"/>
	<path fill="#191919" d="M102.5072,336.61066h2.1109l-0.82721,0.97705c-0.39935,0.47272-0.68359,0.89551-0.85376,1.26837
		c-0.1701,0.37335-0.2547,0.76764-0.2547,1.18329c0,0.40704,0.1131,0.73303,0.34027,0.97705
		c0.22717,0.24451,0.59192,0.43042,1.09418,0.55774l0.36676,0.09375c0.25269,0.07593,0.3739,0.19971,0.36267,0.37085
		c0.01123,0.18182-0.11407,0.41003-0.37488,0.68463l0.59906,0.45642c0.26587-0.1875,0.48999-0.41364,0.67236-0.67853
		s0.27307-0.49921,0.27307-0.70294c0-0.22467-0.05811-0.40961-0.17322-0.55426s-0.31274-0.26587-0.59296-0.36316
		c-0.14362-0.05145-0.36371-0.1192-0.66016-0.20325s-0.4931-0.18542-0.59088-0.30365
		c-0.09784-0.11816-0.14673-0.28882-0.14673-0.51141c0-0.31018,0.05811-0.59344,0.17523-0.85016
		c0.11719-0.25671,0.33417-0.56592,0.65204-0.92712l1.46295-1.74872v-0.67548h-3.63501V336.61066z"/>
	<path fill="#202020" d="M121.92444,212.29504c4.63983,0,8.40118-3.76129,8.40118-8.40088
		c0-4.64001-3.76135-8.40088-8.40118-8.40088s-8.40088,3.76086-8.40088,8.40088
		C113.52356,208.53375,117.28467,212.29504,121.92444,212.29504z"/>
	<path fill="#242425" d="M131.03168,107.48047c-4.63983,0-8.40088,3.76135-8.40088,8.40088
		c0,4.64001,3.76105,8.40088,8.40088,8.40088s8.40112-3.76086,8.40112-8.40088
		C139.4328,111.24182,135.67145,107.48047,131.03168,107.48047z"/>
	<path fill="#1D1D1D" d="M131.03168,272.21667c4.63977,0,8.40112-3.76135,8.40112-8.40094
		c0-4.64001-3.76135-8.40088-8.40112-8.40088s-8.40088,3.76086-8.40088,8.40088
		C122.6308,268.45532,126.39185,272.21667,131.03168,272.21667z"/>
	<circle fill="#202020" cx="86.72931" cy="203.89398" r="8.40088"/>
	<path fill="#242425" d="M104.31348,100.62842c-5.56299,0-10.08936,4.52637-10.08936,10.08936s4.52637,10.08936,10.08936,10.08936
		s10.08936-4.52637,10.08936-10.08936S109.87647,100.62842,104.31348,100.62842z"/>
	<path fill="#1D1D1D" d="M77.59497,272.20227c4.63983,0,8.40118-3.76135,8.40118-8.40094c0-4.64001-3.76135-8.40088-8.40118-8.40088
		s-8.40088,3.76086-8.40088,8.40088C69.19409,268.44092,72.9552,272.20227,77.59497,272.20227z"/>
	<path fill="#242425" d="M77.59497,107.49487c-4.63977,0-8.40088,3.7608-8.40088,8.40088c0,4.63953,3.76111,8.40088,8.40088,8.40088
		s8.40118-3.76135,8.40118-8.40088C85.99615,111.25567,82.2348,107.49487,77.59497,107.49487z"/>
	<path fill="#282829" d="M104.31897,34.38776c-3.26642,0-5.91437,2.64795-5.91437,5.91443s2.64795,5.91437,5.91437,5.91437
		s5.91443-2.64795,5.91443-5.91437S107.58539,34.38776,104.31897,34.38776z M104.31909,45.47723
		c-2.85815,0-5.17511-2.31696-5.17511-5.17511s2.31696-5.17505,5.17511-5.17505c2.85797,0,5.17493,2.31696,5.17493,5.17505
		S107.17706,45.47723,104.31909,45.47723z"/>
	<path fill="#191919" d="M98.41046,339.42047c0,3.26642,2.64795,5.91437,5.91437,5.91437s5.91443-2.64795,5.91443-5.91437
		s-2.64795-5.91443-5.91443-5.91443S98.41046,336.15399,98.41046,339.42047z M109.49988,339.42047
		c0,2.85809-2.31696,5.17505-5.17517,5.17505c-2.85791,0-5.17487-2.31696-5.17487-5.17505s2.31696-5.17511,5.17487-5.17511
		C107.18293,334.24536,109.49988,336.56232,109.49988,339.42047z"/>
	<path fill="#212121" d="M104.58203,179.75928c-5.56299,0-10.08936,4.52637-10.08936,10.08936s4.52637,10.08936,10.08936,10.08936
		s10.08936-4.52637,10.08936-10.08936S110.14503,179.75928,104.58203,179.75928z"/>
	<path fill="#222223" d="M95.83289,162.11389c0,4.63953,3.76135,8.40088,8.40118,8.40088s8.40088-3.76135,8.40088-8.40088
		c0-4.63977-3.76111-8.40112-8.40088-8.40112S95.83289,157.47412,95.83289,162.11389z"/>
	<polygon fill="#282829" points="104.33337,40.26752 103.48578,37.24786 102.25507,37.24786 103.7262,41.56342 103.7262,43.35645 
		104.90393,43.35645 104.90393,41.6001 106.38318,37.24786 105.15247,37.24786 	"/>
	<path fill="#262626" d="M95.91986,88.00275c0,4.63953,3.76105,8.40088,8.40088,8.40088s8.40112-3.76135,8.40112-8.40088
		c0-4.64008-3.76135-8.40088-8.40112-8.40088S95.91986,83.36267,95.91986,88.00275z"/>
	<path fill="#1D1D1D" d="M29.92633,257.91248c-3.26642,0-5.91437,2.64795-5.91437,5.91443s2.64795,5.91437,5.91437,5.91437
		s5.91443-2.64795,5.91443-5.91437S33.19275,257.91248,29.92633,257.91248z M29.92633,269.00195
		c-2.85797,0-5.17517-2.31696-5.17517-5.17505s2.3172-5.17511,5.17517-5.17511c2.85815,0,5.17517,2.31696,5.17517,5.17511
		S32.78448,269.00195,29.92633,269.00195z"/>
	<path fill="#242425" d="M177.8172,117.84772c0.33417,0.2063,0.71619,0.30969,1.14508,0.30969
		c0.56543,0,1.00964-0.15533,1.33258-0.46661c0.32294-0.31073,0.48492-0.7442,0.48492-1.30096
		c0-0.35553-0.08862-0.65863-0.26691-0.90826c-0.17828-0.25012-0.43402-0.43195-0.76819-0.54602
		c0.24762-0.133,0.43915-0.30975,0.57465-0.52979c0.1355-0.22058,0.20374-0.46613,0.20374-0.7381
		c0-0.50586-0.17218-0.8996-0.5155-1.1828c-0.34332-0.28223-0.8089-0.42383-1.39575-0.42383
		c-0.36371,0-0.69788,0.07739-1.00244,0.2323c-0.30463,0.15485-0.54199,0.3703-0.7132,0.64587
		c-0.17114,0.27557-0.25671,0.58325-0.25671,0.92303v5.86816h1.17773v-1.88269V117.84772z M177.8172,113.87549
		c0-0.26947,0.07434-0.4809,0.22412-0.6347c0.14978-0.15332,0.33923-0.23029,0.5705-0.23029
		c0.22009,0,0.39734,0.0683,0.5318,0.20428c0.13452,0.13605,0.20172,0.31586,0.20172,0.53943
		c0,0.53387-0.23224,0.80896-0.69684,0.82526h-0.31787v0.86389h0.39532c0.28833,0,0.50635,0.08203,0.65405,0.24603
		c0.14771,0.16406,0.22211,0.39227,0.22211,0.68518c0,0.24396-0.08154,0.44366-0.24451,0.59955
		c-0.16302,0.15588-0.38306,0.23376-0.66022,0.23376c-0.36371,0-0.6571-0.07892-0.88019-0.23633v-3.09607V113.87549z"/>
	<path fill="#1D1D1D" d="M178.71533,257.91248c-3.26636,0-5.91437,2.64795-5.91437,5.91437s2.64801,5.91437,5.91437,5.91437
		s5.91443-2.64789,5.91443-5.91437S181.98181,257.91248,178.71533,257.91248z M178.71521,269.00195
		c-2.85791,0-5.17487-2.31696-5.17487-5.17511s2.31696-5.17511,5.17487-5.17511c2.85822,0,5.17517,2.31696,5.17517,5.17511
		S181.57343,269.00195,178.71521,269.00195z"/>
	<path fill="#1D1D1D" d="M179.30408,265.08398c-0.14771,0.09528-0.34741,0.14264-0.59698,0.14264
		c-0.24146,0-0.43707-0.0509-0.58478-0.15277c-0.14771-0.10193-0.22211-0.22772-0.22211-0.37695
		c0-0.34796,0.26593-0.52319,0.79871-0.5257h0.77838v-0.7865h-0.76208c-0.24451,0-0.42786-0.0423-0.55011-0.12634
		s-0.18341-0.19714-0.18341-0.33826c0-0.14667,0.06622-0.26489,0.19971-0.35449c0.13348-0.08966,0.30969-0.13452,0.52979-0.13452
		c0.22308,0,0.4024,0.0423,0.53992,0.12634c0.13757,0.08405,0.20581,0.19562,0.20581,0.33417h1.17773
		c0-0.39374-0.17426-0.71722-0.52161-0.96991c-0.34741-0.25262-0.79468-0.37897-1.34076-0.37897
		c-0.60822,0-1.08905,0.11407-1.44055,0.34229s-0.52771,0.54199-0.52771,0.94141c0,0.19556,0.06622,0.37537,0.19965,0.53992
		c0.13348,0.16455,0.31787,0.29547,0.55426,0.39325c-0.55426,0.18188-0.83136,0.52313-0.83136,1.02289
		c0,0.39935,0.18951,0.72076,0.56848,0.96375c0.37903,0.24298,0.87109,0.36475,1.47723,0.36475
		c0.56543,0,1.02795-0.12634,1.38965-0.37903c0.36163-0.25262,0.54199-0.58832,0.54199-1.00653h-1.17773
		C179.52618,264.86957,179.45184,264.98877,179.30408,265.08398z"/>
	<path fill="#242425" d="M178.70947,121.81012c3.26642,0,5.91443-2.64789,5.91443-5.91437s-2.64801-5.91437-5.91443-5.91437
		s-5.91437,2.64795-5.91437,5.91437S175.44305,121.81012,178.70947,121.81012z M178.70966,110.72064
		c2.85791,0,5.17487,2.31696,5.17487,5.17511s-2.31696,5.17505-5.17487,5.17505c-2.85822,0-5.17517-2.31696-5.17517-5.17505
		S175.85144,110.72064,178.70966,110.72064z"/>
	<polygon fill="#222223" points="197.66357,160.04773 197.66357,156.68756 197.66486,156.68756 197.66486,155.96783 
		197.66357,155.96783 195.23151,155.96783 195.23022,155.96783 195.23022,156.68756 195.23151,156.68756 195.23151,160.04773 
		193.9682,160.04773 193.9682,160.76746 195.96118,160.76746 195.96118,156.68756 196.93365,156.68756 196.93365,160.04773 
		196.93365,160.76746 198.92688,160.76746 201.36127,160.76746 201.36127,160.04773 198.92688,160.04773 	"/>
	<polygon fill="#1B1B1B" points="200.08551,303.81421 195.2193,303.81421 195.2193,307.89417 193.95575,307.89417 
		193.95575,308.61383 195.94897,308.61383 195.94897,304.53387 199.35577,304.53387 199.35577,308.61383 201.34875,308.61383 
		201.34875,307.89417 200.08551,307.89417 	"/>
	<polygon fill="#181819" points="173.47845,350.12201 173.47974,350.12201 173.47974,349.40234 173.47845,349.40234 
		171.04663,349.40234 171.0451,349.40234 171.0451,350.12201 171.04663,350.12201 171.04663,353.48224 169.78308,353.48224 
		167.34869,353.48224 167.34869,354.2019 169.78308,354.2019 171.77631,354.2019 171.77631,353.48224 171.77631,350.12201 
		172.74872,350.12201 172.74872,354.2019 174.74176,354.2019 174.74176,353.48224 173.47845,353.48224 	"/>
	<polygon fill="#29292A" points="169.30371,25.2052 170.27643,25.2052 170.27643,28.56537 170.27643,29.2851 172.26941,29.2851 
		174.7038,29.2851 174.7038,28.56537 172.26941,28.56537 171.0061,28.56537 171.0061,25.2052 171.00739,25.2052 171.00739,24.48547 
		171.0061,24.48547 168.57428,24.48547 168.57275,24.48547 168.57275,25.2052 168.57428,25.2052 168.57428,28.56537 
		167.31073,28.56537 167.31073,29.2851 169.30371,29.2851 	"/>
	<polygon fill="#1F1F1F" points="197.65088,222.05902 197.65088,218.69885 197.6524,218.69885 197.6524,217.97913 
		197.65088,217.97913 195.21899,217.97913 195.21747,217.97913 195.21747,218.69885 195.21899,218.69885 195.21899,222.05902 
		193.95575,222.05902 193.95575,222.77875 195.94873,222.77875 195.94873,218.69885 196.92114,218.69885 196.92114,222.05902 
		196.92114,222.77875 198.91412,222.77875 201.34875,222.77875 201.34875,222.05902 198.91412,222.05902 	"/>
	<path fill="#212121" d="M189.59509,175.98145c-7.64648,0-13.86719,6.22058-13.86719,13.86713s6.2207,13.867,13.86719,13.867
		s13.86713-6.22058,13.86713-13.867S197.24158,175.98145,189.59509,175.98145z M189.59509,176.9151
		c2.92383,0,5.61316,0.9754,7.78601,2.60327h-15.57208C183.98187,177.8905,186.6712,176.9151,189.59509,176.9151z
		 M179.60413,181.59399h8.03821v2.6037h-9.71838C178.38409,183.26263,178.94269,182.38593,179.60413,181.59399z
		 M176.63275,190.96704h11.00958v2.6037h-10.53577C176.86304,192.73438,176.70374,191.86395,176.63275,190.96704z
		 M187.64233,202.78223c-2.16724-0.32709-4.15515-1.18451-5.8335-2.44171h5.8335V202.78223z M191.54779,202.78223v-2.44171h5.8335
		C195.70294,201.59772,193.71503,202.45514,191.54779,202.78223z M199.59296,198.25726h-19.99579
		c-0.66034-0.79193-1.21759-1.66864-1.67682-2.60327h23.34949C200.81061,196.58862,200.2533,197.46533,199.59296,198.25726z
		 M202.08356,193.57074h-10.53577v-2.6037h11.00958C202.48645,191.86395,202.32709,192.73438,202.08356,193.57074z
		 M202.55701,188.88422h-25.92383c0.07147-0.89691,0.23138-1.7674,0.4754-2.6037h24.97296
		C202.32556,187.11682,202.48547,187.9873,202.55701,188.88422z M201.26617,184.19769h-9.71838v-2.6037h8.03821
		C200.24744,182.38593,200.80603,183.26263,201.26617,184.19769z"/>
	
		<linearGradient id="SVGID_00000106848479640257841230000014140078182363826817_" gradientUnits="userSpaceOnUse" x1="105" y1="379.88983" x2="105" y2="-0.11017" gradientTransform="matrix(1 0 0 -1 0 379.88983)">
		<stop  offset="0" style="stop-color:#2A2A2B"/>
		<stop  offset="1" style="stop-color:#171717"/>
	</linearGradient>
	<path fill="url(#SVGID_00000106848479640257841230000014140078182363826817_)" d="M0,0v380h210V0H0z M194.8808,68.30762
		c2.66309-1.50812,6.06836-0.61316,7.60571,1.99902c1.5376,2.61218,0.625,5.95239-2.03784,7.46051
		c-2.66309,1.50818-6.06836,0.61316-7.60571-1.99908C191.30536,73.15595,192.21765,69.8158,194.8808,68.30762z M202.48676,161.60315
		c-1.5376,2.61224-4.94287,3.50726-7.60571,1.99908c-2.66309-1.50812-3.57544-4.84833-2.03809-7.46051
		c1.5376-2.61218,4.94287-3.50714,7.60571-1.99902C203.11176,155.65088,204.02411,158.99103,202.48676,161.60315z
		 M185.14551,115.89575c0,3.54883-2.88721,6.43604-6.43604,6.43604s-6.43597-2.88721-6.43597-6.43604
		s2.88715-6.43597,6.43597-6.43597S185.14551,112.34694,185.14551,115.89575z M166.18573,24.65936
		c1.53735-2.61212,4.94263-3.50714,7.60571-1.99902c2.66284,1.50812,3.57544,4.84833,2.03784,7.46045
		c-1.5376,2.61218-4.94263,3.5072-7.60571,1.99908C165.56073,30.61169,164.64813,27.27154,166.18573,24.65936z M168.13977,85.77594
		l0.74878,0.72638c-4.86774,5.01135-8.44061,11.18976-10.33301,17.86688l-1.00348-0.28424
		C159.49133,97.24182,163.15283,90.91058,168.13977,85.77594z M168.85187,145.23871l-0.74878,0.72638
		c-4.95435-5.11328-8.59802-11.4129-10.53625-18.21735l1.00348-0.28632c1.89142,6.63995,5.44696,12.78728,10.28156,17.77728
		V145.23871z M147.51758,49.80322c-9.47217,6.47229-20.00891,10.64575-31.31738,12.40466l-0.15997-1.03101
		c11.15314-1.73499,21.54572-5.85138,30.88849-12.23456l0.58887,0.8609V49.80322z M104.32074,301.13849
		c-5.20752,0-9.44415-4.23663-9.44415-9.44415s4.23663-9.44409,9.44415-9.44409s9.44434,4.23663,9.44434,9.44409
		S109.5285,301.13849,104.32074,301.13849z M110.76086,339.42047c0,3.54883-2.88721,6.43597-6.43604,6.43597
		s-6.43597-2.88715-6.43597-6.43597s2.88715-6.43604,6.43597-6.43604S110.76086,335.87164,110.76086,339.42047z M104.31348,279.6123
		c-5.89404,0-10.68896-4.79492-10.68896-10.68896s4.79492-10.68896,10.68896-10.68896s10.68896,4.79492,10.68896,10.68896
		S110.20751,279.6123,104.31348,279.6123z M113.67816,162.11389c0,5.20752-4.23657,9.44415-9.44409,9.44415
		s-9.4444-4.23663-9.4444-9.44415c0-5.03119,3.95721-9.14392,8.9212-9.41791v-4.59503h1.04327v4.59491
		C109.71917,152.96826,113.67815,157.08167,113.67816,162.11389z M131.36884,175.80298c0,5.20752-4.23663,9.44409-9.4444,9.44409
		s-9.44409-4.23657-9.44409-9.44409s4.23657-9.4444,9.44409-9.4444c1.52539,0,2.9624,0.37177,4.23889,1.01648l2.57758-4.53076
		l0.90668,0.5155l-2.57904,4.53326C129.65369,169.57996,131.36884,172.4928,131.36884,175.80298z M94.78967,217.58331
		c0-5.20752,4.23663-9.44409,9.44415-9.44409s9.44434,4.23657,9.44434,9.44409c0,5.03192-3.95874,9.14526-8.92401,9.41779v4.59528
		h-1.04327v-4.5954c-4.96375-0.27386-8.9212-4.38666-8.9212-9.41766H94.78967z M104.58203,200.5376
		c-5.89404,0-10.68896-4.79492-10.68896-10.68896s4.79492-10.68896,10.68896-10.68896s10.68896,4.79492,10.68896,10.68896
		S110.47607,200.5376,104.58203,200.5376z M96.17346,175.80316c0,5.20752-4.23663,9.44409-9.44415,9.44409
		s-9.44409-4.23657-9.44409-9.44409c0-3.32379,1.72986-6.24609,4.33264-7.92975l-2.62567-4.50903l0.90161-0.52466l2.63153,4.51886
		c1.26788-0.63397,2.69238-0.99982,4.20398-0.99982C91.93683,166.35876,96.17346,170.59564,96.17346,175.80316z M77.59497,125.33984
		c-5.20746,0-9.44409-4.23657-9.44409-9.44409s4.23663-9.44415,9.44409-9.44415c5.20776,0,9.4444,4.23663,9.4444,9.44415
		S82.80273,125.33984,77.59497,125.33984z M77.59497,254.35724c5.20776,0,9.4444,4.23663,9.4444,9.44409
		s-4.23663,9.44415-9.4444,9.44415c-5.20746,0-9.44409-4.23663-9.44409-9.44415S72.38751,254.35724,77.59497,254.35724z
		 M86.72931,213.33813c-1.51135,0-2.9361-0.36578-4.20398-0.99963l-2.63153,4.5191l-0.90161-0.52466l2.62592-4.50934
		c-2.60303-1.68353-4.33289-4.60577-4.33289-7.92963c0-5.20752,4.23657-9.44409,9.44409-9.44409s9.44415,4.23657,9.44415,9.44409
		S91.93683,213.33813,86.72931,213.33813z M112.48035,203.89417c0-5.20746,4.23657-9.44409,9.44409-9.44409
		s9.4444,4.23663,9.4444,9.44409c0,3.31024-1.71515,6.22302-4.30029,7.90985l2.57904,4.53351l-0.90668,0.5155l-2.57782-4.53107
		c-1.27655,0.64465-2.7135,1.01636-4.23865,1.01636C116.71692,213.33832,112.48035,209.10168,112.48035,203.89417z
		 M131.03168,254.37164c5.20776,0,9.44434,4.23663,9.44434,9.44409s-4.23657,9.44415-9.44434,9.44415
		s-9.44415-4.23663-9.44415-9.44415S125.82416,254.37164,131.03168,254.37164z M131.03168,125.32544
		c-5.20752,0-9.44415-4.23657-9.44415-9.44409s4.23663-9.44415,9.44415-9.44415s9.44434,4.23663,9.44434,9.44415
		S136.23944,125.32544,131.03168,125.32544z M115.14056,23.63947c0-0.02716,0.00903-0.05029,0.02917-0.0694
		c0.0191-0.02008,0.04224-0.02917,0.0694-0.02917h0.93951c0.02716,0,0.05127,0.00909,0.07037,0.02917
		c0.01917,0.0191,0.0282,0.04224,0.0282,0.0694v0.12372c0,0.22034,0.10156,0.4054,0.30579,0.55627
		c0.20221,0.15088,0.47778,0.22632,0.82385,0.22632c0.29071,0,0.50793-0.06134,0.65082-0.18506
		c0.14282-0.12372,0.21423-0.27563,0.21423-0.4577c0-0.13177-0.04425-0.24243-0.13177-0.33295
		c-0.0885-0.09155-0.20721-0.17102-0.35913-0.23938c-0.15088-0.06842-0.3913-0.16296-0.72021-0.28467
		c-0.36816-0.12573-0.67999-0.25549-0.93549-0.38727s-0.46973-0.31183-0.64276-0.53918
		c-0.17297-0.22833-0.25952-0.50995-0.25952-0.84497c0-0.3299,0.08453-0.61761,0.25549-0.86505
		c0.17004-0.24744,0.40643-0.43652,0.70819-0.5683c0.30273-0.13177,0.65082-0.19818,1.04712-0.19818
		c0.41742,0,0.78961,0.07446,1.11652,0.22229c0.32697,0.14886,0.58246,0.35608,0.76654,0.62268
		c0.18304,0.26654,0.27557,0.57538,0.27557,0.92639v0.12372c0,0.0282-0.01007,0.05133-0.02917,0.07043
		s-0.04224,0.02917-0.0694,0.02917h-0.94757c-0.02814,0-0.05127-0.01007-0.07037-0.02917s-0.02917-0.04224-0.02917-0.07043v-0.06537
		c0-0.23132-0.09454-0.42749-0.28369-0.58942c-0.19006-0.16199-0.44958-0.24347-0.77856-0.24347
		c-0.25848,0-0.46069,0.05536-0.60651,0.16498c-0.1449,0.10962-0.21832,0.26154-0.21832,0.45367
		c0,0.13678,0.04327,0.25244,0.12775,0.34601c0.08551,0.09357,0.21124,0.17706,0.37927,0.25146
		c0.16797,0.07343,0.42749,0.17401,0.77856,0.30078c0.39026,0.14282,0.69708,0.26855,0.91937,0.37823
		c0.22229,0.11066,0.42249,0.27356,0.6015,0.49084c0.17804,0.21729,0.26758,0.49792,0.26758,0.84497
		c0,0.51599-0.18909,0.9234-0.56836,1.22314c-0.37921,0.29974-0.89319,0.44965-1.54102,0.44965
		c-0.43958,0-0.82379-0.07043-1.15375-0.21021c-0.32996-0.14087-0.58344-0.341-0.76245-0.60156
		c-0.17804-0.26154-0.26758-0.56531-0.26758-0.91132v-0.18109L115.14056,23.63947z M110.11407,21.71118
		c0-0.40637,0.09058-0.76648,0.27161-1.07935c0.18207-0.31281,0.43555-0.55621,0.76245-0.72925
		c0.32697-0.17303,0.70514-0.25952,1.13367-0.25952c0.43353,0,0.81378,0.08649,1.14069,0.25952s0.58142,0.41644,0.76245,0.72925
		c0.18109,0.31287,0.27161,0.67297,0.27161,1.07935v1.76337c0,0.41241-0.09052,0.77753-0.27161,1.09637
		c-0.18103,0.31891-0.43555,0.56433-0.76245,0.73737c-0.3269,0.17297-0.70715,0.25952-1.14069,0.25952
		c-0.42853,0-0.8067-0.08752-1.13367-0.26355c-0.3269-0.17603-0.58038-0.42151-0.76245-0.73737
		c-0.18103-0.3158-0.27161-0.67993-0.27161-1.09235C110.11407,23.47454,110.11407,21.71117,110.11407,21.71118z M113.76508,88.00275
		c0,5.20752-4.23657,9.44409-9.44434,9.44409s-9.44415-4.23657-9.44415-9.44409s4.23663-9.44415,9.44415-9.44415
		S113.76508,82.79523,113.76508,88.00275z M104.33826,19.80804c0-0.02716,0.00903-0.05133,0.02814-0.07043
		c0.01917-0.0191,0.04327-0.02814,0.07043-0.02814h0.96362c0.05035,0,0.08856,0.02112,0.11572,0.06537l1.23621,1.92023
		c0.01611,0.0332,0.0332,0.0332,0.04932,0l1.24426-1.92023c0.02716-0.04425,0.06641-0.06537,0.11572-0.06537h0.96362
		c0.0282,0,0.05133,0.00903,0.07043,0.02814s0.02917,0.04327,0.02917,0.07043v5.57062c0,0.02716-0.01007,0.05029-0.02917,0.0694
		c-0.0191,0.02014-0.04224,0.02917-0.07043,0.02917h-0.96362c-0.0282,0-0.05133-0.00903-0.07043-0.02917
		c-0.0191-0.0191-0.02917-0.04224-0.02917-0.0694v-3.63428c0-0.02216-0.005-0.0332-0.01611-0.0332
		c-0.01105,0-0.02209,0.00806-0.03314,0.02515l-0.87317,1.36804c-0.02716,0.04321-0.06635,0.06537-0.11566,0.06537h-0.48584
		c-0.04932,0-0.08752-0.02216-0.11566-0.06537l-0.87311-1.36804c-0.01111-0.01709-0.02216-0.02313-0.0332-0.02112
		c-0.01111,0.00299-0.01611,0.01508-0.01611,0.03723v3.62622c0,0.02716-0.01007,0.05029-0.02917,0.0694
		c-0.0191,0.02014-0.04224,0.02917-0.07043,0.02917h-0.96362c-0.02716,0-0.05127-0.00903-0.07043-0.02917
		c-0.0191-0.0191-0.02814-0.04224-0.02814-0.0694v-5.57062L104.33826,19.80804z M110.755,40.30219
		c0,3.54883-2.88721,6.43597-6.43604,6.43597s-6.43604-2.88715-6.43604-6.43597s2.88721-6.43604,6.43604-6.43604
		S110.755,36.7533,110.755,40.30219z M99.22931,23.63947c0-0.02716,0.00909-0.05029,0.02917-0.0694
		c0.0191-0.02008,0.04224-0.02917,0.0694-0.02917h0.93951c0.02716,0,0.05133,0.00909,0.07043,0.02917
		c0.0191,0.0191,0.02814,0.04224,0.02814,0.0694v0.12372c0,0.22034,0.10162,0.4054,0.30579,0.55627
		c0.20221,0.15088,0.47784,0.22632,0.82385,0.22632c0.29071,0,0.508-0.06134,0.65082-0.18506s0.21423-0.27563,0.21423-0.4577
		c0-0.13177-0.04425-0.24243-0.13177-0.33295c-0.0885-0.09155-0.20721-0.17102-0.35907-0.23938
		c-0.15088-0.06842-0.3913-0.16296-0.72021-0.28467c-0.36816-0.12573-0.67999-0.25549-0.93549-0.38727
		s-0.46979-0.31183-0.64276-0.53918c-0.17303-0.22833-0.25952-0.50995-0.25952-0.84497c0-0.3299,0.08447-0.61761,0.25549-0.86505
		c0.16998-0.24744,0.40637-0.43652,0.70813-0.5683c0.3028-0.13177,0.65082-0.19818,1.04712-0.19818
		c0.41748,0,0.78967,0.07446,1.11658,0.22229c0.3269,0.14886,0.5824,0.35608,0.76648,0.62268
		c0.18304,0.26654,0.27563,0.57538,0.27563,0.92639v0.12372c0,0.0282-0.01007,0.05133-0.02917,0.07043
		c-0.01917,0.0191-0.0423,0.02917-0.06946,0.02917h-0.94751c-0.0282,0-0.05133-0.01007-0.07043-0.02917
		s-0.02917-0.04224-0.02917-0.07043v-0.06537c0-0.23132-0.09454-0.42749-0.28363-0.58942
		c-0.19012-0.16199-0.44965-0.24347-0.77856-0.24347c-0.25854,0-0.46069,0.05536-0.60657,0.16498
		c-0.14484,0.10962-0.21826,0.26154-0.21826,0.45367c0,0.13678,0.04321,0.25244,0.12775,0.34601
		c0.08551,0.09357,0.21124,0.17706,0.37921,0.25146c0.16797,0.07343,0.42749,0.17401,0.77856,0.30078
		c0.39026,0.14282,0.69708,0.26855,0.91937,0.37823c0.22229,0.11066,0.42249,0.27356,0.6015,0.49084
		c0.17804,0.21729,0.26758,0.49792,0.26758,0.84497c0,0.51599-0.18909,0.9234-0.5683,1.22314s-0.89325,0.44965-1.54102,0.44965
		c-0.43964,0-0.82385-0.07043-1.15381-0.21021c-0.3299-0.14087-0.58337-0.341-0.76245-0.60156
		c-0.17804-0.26154-0.26758-0.56531-0.26758-0.91132v-0.18109V23.63947z M94.20288,21.71118
		c0-0.40637,0.09052-0.76648,0.27161-1.07935c0.18201-0.31281,0.43555-0.55621,0.76245-0.72925s0.70514-0.25952,1.13361-0.25952
		c0.43359,0,0.81378,0.08649,1.14069,0.25952c0.32697,0.17303,0.58142,0.41644,0.76251,0.72925
		c0.18103,0.31287,0.27155,0.67297,0.27155,1.07935v1.76337c0,0.41241-0.09052,0.77753-0.27155,1.09637
		c-0.18109,0.31891-0.43555,0.56433-0.76251,0.73737c-0.3269,0.17297-0.70709,0.25952-1.14069,0.25952
		c-0.42847,0-0.8067-0.08752-1.13361-0.26355s-0.58044-0.42151-0.76245-0.73737c-0.18109-0.3158-0.27161-0.67993-0.27161-1.09235
		C94.20288,23.47454,94.20288,21.71117,94.20288,21.71118z M104.31348,100.02881c5.89404,0,10.68896,4.79492,10.68896,10.68896
		s-4.79492,10.68896-10.68896,10.68896s-10.68896-4.79492-10.68896-10.68896S98.41944,100.02881,104.31348,100.02881z
		 M89.1925,21.63776c0-0.3963,0.08752-0.74438,0.26355-1.04712c0.17603-0.30176,0.42548-0.53516,0.75037-0.70013
		c0.32391-0.16498,0.70013-0.24744,1.12866-0.24744c0.42242,0,0.79462,0.07843,1.11652,0.23535
		c0.32086,0.15594,0.57135,0.37823,0.74939,0.66693c0.17908,0.2887,0.26855,0.62268,0.26855,1.00085
		c0,0.05029-0.03314,0.08051-0.09955,0.09155l-0.96368,0.05731h-0.01605c-0.05536,0-0.08252-0.03015-0.08252-0.09052
		c0-0.29169-0.08948-0.52509-0.26855-0.70111c-0.17804-0.17499-0.41339-0.26355-0.7041-0.26355
		c-0.29675,0-0.53418,0.08856-0.7132,0.26355c-0.17804,0.17603-0.26758,0.40942-0.26758,0.70111v1.98566
		c0,0.28564,0.08954,0.51599,0.26758,0.69202c0.17902,0.17609,0.41644,0.26355,0.7132,0.26355
		c0.29071,0,0.52606-0.08746,0.7041-0.26355c0.17908-0.17603,0.26855-0.40637,0.26855-0.69202
		c0-0.06036,0.03223-0.09052,0.09857-0.09052l0.96368,0.0412c0.02814,0,0.05127,0.00806,0.07037,0.02417
		c0.01917,0.01709,0.02917,0.03619,0.02917,0.05835c0,0.37921-0.08948,0.71417-0.26855,1.00488
		c-0.17804,0.29169-0.42853,0.51703-0.74939,0.67596c-0.3219,0.15894-0.69409,0.23938-1.11652,0.23938
		c-0.42853,0-0.80475-0.08447-1.12866-0.25146c-0.32489-0.16797-0.57434-0.40234-0.75037-0.70514
		c-0.17603-0.30176-0.26355-0.65082-0.26355-1.04614v-1.90314L89.1925,21.63776z M61.75281,48.9729
		c9.34229,6.3725,19.73132,10.48071,30.87933,12.20959l-0.15991,1.03101c-11.30243-1.75281-21.83612-5.91809-31.30725-12.37872
		C61.16498,49.83478,61.75281,48.9729,61.75281,48.9729z M49.89014,104.3692c-1.8924-6.67712-5.46527-12.85553-10.33301-17.86688
		l0.74878-0.72638c4.98694,5.13464,8.64844,11.46588,10.58771,18.30902L49.89014,104.3692z M50.87885,127.74774
		c-1.93823,6.80444-5.58191,13.10406-10.53625,18.21735l-0.74878-0.72638c4.83459-4.98999,8.3902-11.13733,10.28156-17.77728
		C49.87538,127.46143,50.87886,127.74775,50.87885,127.74774z M32.73254,24.68964c1.53735-2.61218,4.94263-3.5072,7.60571-1.99908
		c2.66284,1.50818,3.57544,4.84833,2.03784,7.46051c-1.53735,2.61224-4.94263,3.50714-7.60571,1.99902
		S31.19494,27.30176,32.73254,24.68964z M29.92047,109.45972c3.54883,0,6.43604,2.88721,6.43604,6.43604
		s-2.88721,6.43597-6.43604,6.43597s-6.43604-2.88715-6.43604-6.43597S26.37164,109.45972,29.92047,109.45972z M6.15936,70.29718
		c1.5376-2.61218,4.94263-3.5072,7.60571-1.99908c2.66315,1.50818,3.57544,4.84833,2.03809,7.46051
		c-1.5376,2.61224-4.94263,3.5072-7.60571,1.99902C5.53436,76.24952,4.62201,72.90931,6.15936,70.29718z M6.15936,156.13226
		c1.53735-2.61218,4.94263-3.5072,7.60571-1.99908c2.66284,1.50818,3.57544,4.84833,2.03784,7.46051
		c-1.5376,2.61224-4.94263,3.5072-7.60571,1.99902C5.53436,162.08459,4.62176,158.74438,6.15936,156.13226z M15.80676,309.40387
		c-1.5376,2.61218-4.94263,3.50714-7.60577,1.99896c-2.66309-1.50812-3.57538-4.84827-2.03802-7.46039
		c1.5376-2.61224,4.94287-3.5072,7.60571-1.99902C16.43177,303.45154,17.34406,306.79175,15.80676,309.40387z M8.20074,216.10834
		c2.66315-1.50818,6.06812-0.61322,7.60571,1.99902c1.5376,2.61218,0.62531,5.95227-2.03778,7.46039
		c-2.66309,1.50818-6.06842,0.61322-7.60571-1.99896C4.62536,220.95667,5.5379,217.61646,8.20074,216.10834z M23.4903,263.8269
		c0-3.54883,2.88721-6.43604,6.43604-6.43604s6.43604,2.88721,6.43604,6.43604s-2.88721,6.43597-6.43604,6.43597
		S23.4903,267.37573,23.4903,263.8269z M42.41382,355.00739c-1.5376,2.61224-4.94263,3.50726-7.60577,1.99908
		c-2.66309-1.50812-3.57538-4.84833-2.03809-7.46051c1.53766-2.61218,4.94293-3.50714,7.60577-1.99902
		C43.03882,349.05511,43.95111,352.39526,42.41382,355.00739z M40.30591,294.01721l-0.74878-0.72638
		c4.86725-5.01038,8.44012-11.18878,10.33301-17.86646l1.00348,0.28424C48.95386,282.55231,45.29285,288.88354,40.30591,294.01721z
		 M39.59381,234.55493l0.74878-0.72644c4.95435,5.11328,8.59802,11.41296,10.53625,18.21741l-1.00348,0.28625
		C47.984,245.69226,44.4284,239.54492,39.59381,234.55493z M52.18188,205.15588c-8.26465,0-15.00311-6.58752-15.28125-14.78558
		h-2.9104c-0.27789,7.97852-6.83832,14.38788-14.88391,14.38788c-8.22156,0-14.9104-6.68829-14.9104-14.90936
		c0-8.22162,6.68884-14.9104,14.9104-14.9104c8.04535,0,14.60577,6.40979,14.88391,14.38861h2.9104
		c0.27814-8.19806,7.0166-14.78607,15.28125-14.78607c0.73834,0,1.45886,0.07056,2.16974,0.17212
		c2.08368-5.57123,5.23859-10.58185,9.39856-14.88947l0.75079,0.72437c-4.01294,4.15533-7.06445,8.98065-9.09772,14.3407
		c6.89795,1.48438,12.08636,7.62494,12.08636,14.96002c0,7.33459-5.18768,13.47437-12.08508,14.95917
		c2.03223,5.35669,5.08221,10.1803,9.0929,14.33441l-0.75085,0.7243c-4.15814-4.30682-7.31152-9.31512-9.39368-14.88293
		C53.64178,205.08533,52.92077,205.15588,52.18188,205.15588z M61.16498,329.95831
		c9.47162-6.46008,20.00482-10.62488,31.30725-12.37817l0.15991,1.03101c-11.14752,1.72888-21.53705,5.83661-30.87933,12.20911
		L61.16498,329.95831z M85.22961,356.11371c-0.06116,0.55115-0.33929,0.94952-0.83441,1.19403
		c-0.03363,0.0163-0.03668,0.03363-0.00916,0.04993c0.41772,0.22821,0.62653,0.59595,0.62653,1.10132
		c0,0.0509-0.0061,0.13647-0.01727,0.25873c-0.06622,0.53998-0.29547,0.94751-0.68872,1.22253
		c-0.39221,0.27612-0.87415,0.41364-1.44769,0.41364H80.7561c-0.0285,0-0.04993-0.00916-0.0672-0.02954
		c-0.0163-0.01935-0.02246-0.04279-0.0163-0.07031l0.69275-5.64197c0.00507-0.02753,0.01733-0.052,0.03772-0.07135
		c0.01935-0.01935,0.04279-0.0285,0.07025-0.0285h2.03656c1.15735,0,1.73602,0.43604,1.73602,1.31012
		C85.2459,355.94971,85.24078,356.04749,85.22961,356.11371z M89.61853,360.25403c-0.00513,0.02753-0.01733,0.05096-0.03772,0.07031
		c-0.01935,0.02039-0.04279,0.02954-0.07031,0.02954h-3.73889c-0.02856,0-0.04993-0.00916-0.06726-0.02954
		c-0.0163-0.01935-0.0224-0.04279-0.0163-0.07031l0.69275-5.64197c0.00513-0.02753,0.01733-0.052,0.03772-0.07135
		c0.01935-0.01935,0.04279-0.0285,0.07031-0.0285h0.95154c0.02747,0,0.04993,0.00916,0.0672,0.0285
		c0.0163,0.01935,0.02142,0.04382,0.0163,0.07135l-0.57556,4.69043c0,0.02753,0.01117,0.04181,0.03357,0.04181h2.64478
		c0.06213,0,0.09271,0.03357,0.09271,0.09979C89.71937,359.44409,89.61854,360.25403,89.61853,360.25403z M95.177,360.26221
		c0,0.02753-0.00818,0.04993-0.02448,0.06622c-0.01733,0.01733-0.0387,0.02545-0.0672,0.02545h-1.0351
		c-0.04993,0-0.08051-0.02747-0.09167-0.08356l-0.14166-0.81805c0-0.00507-0.00305-0.01221-0.00812-0.02039
		c-0.0061-0.00812-0.01428-0.01324-0.02545-0.01324h-1.99481c-0.0163,0-0.03058,0.01221-0.04175,0.03363l-0.34131,0.81805
		c-0.01733,0.05609-0.05298,0.08356-0.10901,0.08356h-1.0351c-0.03363,0-0.05707-0.01117-0.07031-0.03363
		c-0.01422-0.0224-0.01324-0.04993,0.00409-0.0835l2.44507-5.64105c0.02753-0.05603,0.06726-0.0835,0.11719-0.0835h1.26837
		c0.04993,0,0.08356,0.02747,0.09985,0.0835l1.05139,5.64105v0.02545H95.177z M100.28516,356.3725
		c-0.01117,0.05603-0.04785,0.08661-0.10901,0.09271l-0.9505,0.05804h-0.01733c-0.05603,0-0.07745-0.03058-0.06622-0.09167
		c0.00513-0.03363,0.00818-0.08051,0.00818-0.14264c0-0.25568-0.07642-0.45844-0.22925-0.60925
		c-0.15381-0.14972-0.36066-0.2251-0.6225-0.2251c-0.28931,0-0.53278,0.09064-0.73047,0.27197
		c-0.19763,0.18036-0.31274,0.41571-0.34637,0.70502l-0.24957,2.01105c-0.0061,0.03363-0.00922,0.08051-0.00922,0.14166
		c0,0.25061,0.07544,0.45129,0.2262,0.60107c0.14978,0.15076,0.35864,0.22516,0.62555,0.22516
		c0.28931,0,0.5318-0.08868,0.72638-0.26697s0.31177-0.41156,0.35046-0.70093c0.01123-0.0611,0.04688-0.09167,0.10797-0.09167
		l0.94342,0.04181c0.02747,0,0.04993,0.00708,0.0672,0.02032c0.01636,0.01428,0.02142,0.03571,0.01636,0.06317
		c-0.04486,0.38409-0.17218,0.72333-0.38409,1.01776c-0.21191,0.29547-0.48499,0.52368-0.82214,0.68463
		c-0.33624,0.16095-0.7132,0.24249-1.13086,0.24249c-0.57867,0-1.0351-0.15588-1.36823-0.46765
		c-0.33417-0.31171-0.50128-0.72943-0.50128-1.25208c0-0.13342,0.0061-0.23633,0.01733-0.30865l0.23334-1.92755
		c0.04987-0.40143,0.1803-0.75391,0.39221-1.06055c0.21088-0.30566,0.48694-0.54199,0.82623-0.70911
		c0.33923-0.16705,0.71722-0.25061,1.13489-0.25061c0.57867,0,1.03613,0.15076,1.37335,0.45032
		c0.33618,0.30054,0.50427,0.7019,0.50427,1.20215C100.30145,356.15857,100.29638,356.25024,100.28516,356.3725z
		 M105.65112,354.63647l-2.09467,2.37885c-0.0224,0.02246-0.0285,0.04181-0.01727,0.05908l1.51898,3.16235
		c0.0061,0.01117,0.00916,0.0285,0.00916,0.04993c0,0.0448-0.0285,0.0672-0.0835,0.0672h-1.06873
		c-0.05603,0-0.09167-0.0224-0.10797-0.0672l-1.1441-2.40332c-0.00513-0.01123-0.01324-0.0163-0.02448-0.0163
		c-0.01117,0-0.0224,0.00507-0.03363,0.0163l-0.5929,0.65912l-0.02448,0.04993l-0.20068,1.66162
		c-0.00513,0.02753-0.01837,0.05096-0.03772,0.07031c-0.01935,0.02039-0.04279,0.02954-0.07025,0.02954h-0.9516
		c-0.0285,0-0.04987-0.00916-0.0672-0.02954c-0.0163-0.01935-0.0224-0.04279-0.0163-0.07031l0.69275-5.64197
		c0.00513-0.02753,0.01733-0.052,0.03772-0.07135c0.01935-0.01935,0.04279-0.0285,0.07025-0.0285h0.9516
		c0.02747,0,0.04987,0.00916,0.0672,0.0285c0.0163,0.01935,0.02142,0.04382,0.0163,0.07135l-0.2832,2.33704
		c-0.0061,0.0163-0.00305,0.02649,0.00812,0.02856c0.01123,0.00305,0.02246-0.00104,0.03363-0.01227l2.16901-2.39514
		c0.03363-0.0387,0.07538-0.05804,0.12531-0.05804h1.06873c0.05499,0,0.0835,0.01935,0.0835,0.05804
		C105.68468,354.59265,105.67352,354.61511,105.65112,354.63647z M111.72711,360.25403
		c-0.00507,0.02753-0.01831,0.05096-0.03766,0.07031c-0.01941,0.02039-0.04279,0.02954-0.07031,0.02954h-0.91895
		c-0.04993,0-0.08252-0.0224-0.09985-0.0672l-1.66058-3.5719c-0.00616-0.0163-0.01428-0.02344-0.02551-0.02039
		c-0.01117,0.00311-0.01935,0.01532-0.02441,0.03772l-0.41772,3.52191c-0.00507,0.02753-0.01831,0.05096-0.03772,0.07031
		c-0.01935,0.02039-0.04279,0.02954-0.07025,0.02954h-0.95154c-0.02856,0-0.04993-0.00916-0.06726-0.02954
		c-0.0163-0.01935-0.0224-0.04279-0.0163-0.07031l0.69275-5.64197c0.00513-0.02753,0.01733-0.052,0.03772-0.07135
		c0.01935-0.01935,0.04279-0.0285,0.07031-0.0285h0.91791c0.0509,0,0.08661,0.02136,0.10901,0.06622l1.65247,3.55554
		c0.00507,0.0163,0.01428,0.02344,0.02545,0.02039c0.01019-0.00208,0.01935-0.01532,0.02448-0.03668l0.41766-3.50562
		c0.00513-0.02753,0.01733-0.052,0.03772-0.07135c0.01935-0.01935,0.04279-0.0285,0.07031-0.0285h0.95154
		c0.02753,0,0.04993,0.00916,0.0672,0.0285c0.01636,0.01935,0.02142,0.04382,0.01636,0.07135l-0.69281,5.64197H111.72711z
		 M117.32739,356.53955l-0.21704,1.78595c-0.04993,0.41772-0.18335,0.7865-0.40039,1.10638
		c-0.21698,0.31989-0.49817,0.56848-0.84351,0.74677c-0.34436,0.17828-0.72845,0.26691-1.15125,0.26691
		c-0.57867,0-1.03918-0.16296-1.38147-0.48798c-0.34229-0.32599-0.51349-0.76105-0.51349-1.30609
		c0-0.09985,0.00818-0.20886,0.02551-0.32599l0.21698-1.78595c0.04993-0.41156,0.18341-0.77631,0.40039-1.09314
		s0.49615-0.56335,0.83844-0.73859c0.34235-0.17523,0.7254-0.26288,1.14819-0.26288c0.58374,0,1.0473,0.16199,1.38959,0.48395
		c0.34131,0.32294,0.51245,0.75079,0.51245,1.28571C117.35179,356.32056,117.34367,356.42853,117.32739,356.53955z
		 M118.8963,360.25403c-0.00513,0.02753-0.01831,0.05096-0.03772,0.07031c-0.01935,0.02039-0.04279,0.02954-0.07025,0.02954
		h-0.95154c-0.02856,0-0.04993-0.00916-0.06726-0.02954c-0.0163-0.01935-0.0224-0.04279-0.0163-0.07031l0.69275-5.64197
		c0.00513-0.02753,0.01733-0.052,0.03772-0.07135c0.01935-0.01935,0.04279-0.0285,0.07031-0.0285h0.95154
		c0.02747,0,0.04993,0.00916,0.0672,0.0285c0.0163,0.01935,0.02142,0.04382,0.0163,0.07135L118.8963,360.25403z
		 M124.35492,356.23901l-0.01727,0.12531c-0.00513,0.02856-0.01733,0.052-0.03668,0.07135
		c-0.02039,0.01935-0.04382,0.02954-0.07135,0.02954h-0.93524c-0.02747,0-0.04993-0.01019-0.06622-0.02954
		c-0.01733-0.01935-0.0224-0.04279-0.01733-0.07135l0.00922-0.06622c0.02747-0.23431-0.04077-0.43298-0.20477-0.59698
		c-0.16406-0.164-0.41058-0.24652-0.73865-0.24652c-0.27301,0-0.49005,0.06311-0.651,0.18848
		c-0.16095,0.12427-0.24249,0.29541-0.24249,0.51245c0,0.12323,0.03973,0.22614,0.11719,0.30969
		c0.07843,0.08252,0.19354,0.16095,0.34637,0.23328s0.38513,0.17017,0.69684,0.29242
		c0.3454,0.13855,0.61334,0.25671,0.80591,0.35449c0.19153,0.0968,0.36572,0.24353,0.52161,0.43811
		c0.15485,0.19458,0.23328,0.43909,0.23328,0.73456c0,0.0387-0.00507,0.10797-0.0163,0.2088
		c-0.06726,0.52264-0.30463,0.93524-0.71417,1.23889c-0.40851,0.30359-0.93011,0.45538-1.56482,0.45538
		c-0.6062,0-1.08301-0.13654-1.4314-0.40955c-0.34741-0.27203-0.52161-0.64288-0.52161-1.1095
		c0-0.0509,0.0061-0.12531,0.01727-0.22614l0.02448-0.18341c0.0061-0.02747,0.01831-0.0509,0.03772-0.07025
		c0.01935-0.02039,0.04279-0.02954,0.07129-0.02954h0.92609c0.02747,0,0.04993,0.00916,0.0672,0.02954
		c0.0163,0.01935,0.02142,0.04279,0.0163,0.07025l-0.0163,0.12531c-0.0285,0.22314,0.04791,0.41058,0.22925,0.56342
		c0.1803,0.15283,0.44116,0.22925,0.7804,0.22925c0.31177,0,0.54608-0.06927,0.70502-0.20782
		c0.15894-0.13959,0.23834-0.30975,0.23834-0.5094c0-0.12225-0.04071-0.22516-0.12122-0.30872
		c-0.08044-0.08356-0.18951-0.1579-0.32599-0.22107c-0.13654-0.06421-0.3515-0.15485-0.64691-0.27203
		c-0.32196-0.12225-0.59497-0.24243-0.81708-0.36267c-0.22314-0.1192-0.40955-0.27917-0.55933-0.47986
		c-0.15076-0.20068-0.22516-0.44824-0.22516-0.74268c0-0.0387,0.00513-0.10901,0.0163-0.20886
		c0.06116-0.50635,0.29242-0.90771,0.69281-1.20624c0.40033-0.29749,0.89551-0.44623,1.48535-0.44623
		c0.37799,0,0.71313,0.06519,1.00555,0.19666c0.29236,0.13037,0.51752,0.31378,0.67645,0.55011
		c0.1579,0.23639,0.23737,0.51349,0.23737,0.83032C124.37122,356.06683,124.36614,356.13916,124.35492,356.23901z
		 M129.22778,355.42194c-0.00513,0.02753-0.01837,0.05096-0.03772,0.07031s-0.04279,0.02954-0.07025,0.02954h-2.66315
		c-0.01117,0-0.02032,0.00409-0.0285,0.01227c-0.00818,0.00812-0.01324,0.01831-0.01324,0.02954l-0.1579,1.29382
		c0,0.02753,0.01117,0.04175,0.03363,0.04175h1.74413c0.02753,0,0.04993,0.00922,0.06622,0.02856
		c0.01733,0.01935,0.0224,0.04382,0.01733,0.07129l-0.10089,0.80896c-0.00507,0.0285-0.01831,0.05194-0.03766,0.07129
		c-0.01941,0.01935-0.04285,0.02954-0.07031,0.02954h-1.74414c-0.02856,0-0.04181,0.01324-0.04181,0.04175l-0.16705,1.35193
		c0,0.02753,0.01117,0.04181,0.03363,0.04181h2.65393c0.0611,0,0.09167,0.03357,0.09167,0.09979l-0.10089,0.80994
		c-0.00507,0.02753-0.01727,0.05096-0.03668,0.07031c-0.02032,0.02039-0.04376,0.02954-0.07129,0.02954h-3.74707
		c-0.02856,0-0.04993-0.00916-0.06726-0.02954c-0.0163-0.01935-0.0224-0.04279-0.0163-0.07031l0.69275-5.64197
		c0.00513-0.02753,0.01733-0.052,0.03772-0.07135c0.01935-0.01935,0.04279-0.0285,0.07031-0.0285h3.73889
		c0.02856,0,0.052,0.00916,0.07135,0.0285s0.02649,0.04382,0.02039,0.07135L129.22778,355.42194z M146.92871,330.85181
		c-9.34326-6.38367-19.7359-10.50061-30.88849-12.2356l0.15997-1.03101c11.30798,1.75946,21.84424,5.93237,31.31738,12.40472
		L146.92871,330.85181z M158.55554,275.42438c1.89294,6.67767,5.46582,12.85608,10.33301,17.86646l-0.74878,0.72638
		c-4.98694-5.13367-8.64795-11.4649-10.58771-18.30859L158.55554,275.42438z M157.56683,252.0459
		c1.93823-6.80444,5.58191-13.10413,10.53625-18.21741l0.74878,0.72644c-4.83459,4.98999-8.39014,11.13733-10.28156,17.77722
		L157.56683,252.0459z M173.82892,357.03674c-2.66284,1.50812-6.06812,0.61316-7.60571-1.99902
		c-1.53735-2.61218-0.62506-5.95239,2.03802-7.46051c2.66284-1.50812,6.06818-0.61316,7.60577,1.99908
		C177.4043,352.18842,176.492,355.52856,173.82892,357.03674z M178.71533,270.26288c-3.54883,0-6.43597-2.88721-6.43597-6.43604
		s2.88715-6.43597,6.43597-6.43597s6.43604,2.88715,6.43604,6.43597S182.26416,270.26288,178.71533,270.26288z M200.43622,311.44855
		c-2.66309,1.50812-6.06842,0.61316-7.60571-1.99902c-1.5376-2.61218-0.62531-5.95227,2.03778-7.46045
		c2.66309-1.50812,6.06812-0.61316,7.60571,1.99902C204.0116,306.60022,203.09906,309.94043,200.43622,311.44855z
		 M202.4743,223.61444c-1.5376,2.61218-4.94293,3.50714-7.60577,1.99908c-2.66309-1.50812-3.57538-4.84833-2.03802-7.46051
		c1.5376-2.61218,4.94263-3.50714,7.60571-1.99902C203.0993,217.66217,204.0116,221.00232,202.4743,223.61444z M189.59509,204.63452
		c-7.97656,0-14.48151-6.35431-14.75964-14.26422h-3.09888c-0.27814,8.19806-7.0166,14.78558-15.28125,14.78558
		c-0.77454,0-1.52966-0.07635-2.27338-0.18793c-2.0824,5.57404-5.2381,10.58771-9.39984,14.89862l-0.75079-0.7243
		c4.01654-4.16071,7.07031-8.99286,9.10278-14.35986c-6.84723-1.5224-11.98645-7.63464-11.98645-14.93372
		c0-7.2995,5.13947-13.41229,11.98724-14.93451c-2.03302-5.37036-5.08832-10.20416-9.10767-14.36621l0.75085-0.72437
		c4.16376,4.31177,7.32123,9.32751,9.4046,14.90515c0.74371-0.11139,1.49841-0.18781,2.27264-0.18781
		c8.26465,0,15.00311,6.58801,15.28125,14.78607h3.09888c0.27789-7.9101,6.78308-14.26453,14.75964-14.26453
		c8.15253,0,14.78583,6.63342,14.78583,14.78607S197.74762,204.63452,189.59509,204.63452z"/>
	<path fill="#181818" d="M115.3772,355.45459c-0.29547,0-0.54608,0.09882-0.75189,0.29645s-0.32806,0.4574-0.36676,0.7804
		l-0.22516,1.83582c-0.0061,0.03973-0.00812,0.09784-0.00812,0.17523c0,0.27307,0.07739,0.49005,0.23328,0.651
		c0.15588,0.16199,0.36676,0.24249,0.6347,0.24249c0.30054,0,0.55219-0.09778,0.75494-0.29242
		c0.2027-0.19458,0.32703-0.45331,0.37183-0.77631l0.22516-1.83582c0.00513-0.03876,0.00818-0.0968,0.00818-0.17523
		c0-0.27814-0.07849-0.49817-0.23334-0.65918c-0.15588-0.16095-0.37085-0.24243-0.64282-0.24243H115.3772z"/>
	<path fill="#29292A" d="M112.33453,24.57092c0.30176,0,0.5462-0.09656,0.73328-0.2887
		c0.1861-0.19208,0.27966-0.44757,0.27966-0.76648v-1.81262c0-0.31885-0.09155-0.57538-0.27563-0.77051
		s-0.43048-0.29272-0.7373-0.29272c-0.3028,0-0.5462,0.0976-0.72925,0.29272c-0.18512,0.19513-0.27661,0.45166-0.27661,0.77051
		v1.81262c0,0.31891,0.09149,0.5744,0.27661,0.76648c0.18304,0.19214,0.42645,0.2887,0.72925,0.2887H112.33453z"/>
	<path fill="#181818" d="M93.25226,355.95172c-0.01117,0.00305-0.01935,0.01221-0.02545,0.02856l-1.01776,2.4787
		c-0.0061,0.03357,0.00305,0.0509,0.02441,0.0509h1.42737c0.0285,0,0.04175-0.01733,0.04175-0.0509l-0.42584-2.4787
		c-0.00513-0.02142-0.01324-0.03162-0.02448-0.02856H93.25226z"/>
	<path fill="#29292A" d="M96.42328,24.57092c0.30182,0,0.5462-0.09656,0.73334-0.2887c0.1861-0.19208,0.2796-0.44757,0.2796-0.76648
		v-1.81262c0-0.31885-0.09149-0.57538-0.27557-0.77051s-0.43054-0.29272-0.73737-0.29272c-0.30273,0-0.5462,0.0976-0.72925,0.29272
		c-0.18506,0.19513-0.27661,0.45166-0.27661,0.77051v1.81262c0,0.31891,0.09155,0.5744,0.27661,0.76648
		C95.87706,24.47436,96.12054,24.57092,96.42328,24.57092z"/>
	<path fill="#181818" d="M83.20404,357.86707h-1.00146c-0.02856,0-0.04181,0.01324-0.04181,0.04175l-0.17523,1.38556
		c0,0.02747,0.01123,0.04175,0.03363,0.04175h1.01776c0.27301,0,0.48798-0.07642,0.64691-0.23022
		c0.15894-0.15283,0.23743-0.36267,0.23743-0.62964c0-0.19458-0.06219-0.34534-0.1875-0.45129
		c-0.12531-0.10492-0.30157-0.1579-0.52972-0.1579H83.20404z"/>
	<path fill="#181818" d="M83.43732,355.52179h-0.95154c-0.01123,0-0.02039,0.00409-0.02856,0.01227
		c-0.00812,0.00812-0.01324,0.01831-0.01324,0.02954l-0.1579,1.302c-0.01117,0.02747,0,0.04175,0.03363,0.04175h0.9505
		c0.25067,0,0.45337-0.06012,0.60925-0.17932c0.15588-0.12018,0.24756-0.28827,0.27612-0.50531l0.00812-0.09985
		c0-0.18945-0.06213-0.33722-0.18744-0.44318c-0.12531-0.10492-0.30463-0.1579-0.53894-0.1579H83.43732z"/>
	<polygon fill="#262627" points="195.96143,70.85248 199.36829,70.85248 199.36829,74.93243 201.36127,74.93243 201.36127,74.21271 
		200.09796,74.21271 200.09796,70.13281 195.23175,70.13281 195.23175,74.21271 193.96844,74.21271 193.96844,74.93243 
		195.96143,74.93243 	"/>
	<path fill="#1F1F1F" d="M112.63495,217.58331c0-4.64001-3.76135-8.40088-8.40112-8.40088s-8.40094,3.76086-8.40094,8.40088
		c0,4.63953,3.76111,8.40088,8.40094,8.40088S112.63495,222.22284,112.63495,217.58331z"/>
	<path fill="#212121" d="M156.45532,175.58417c-7.86548,0-14.26447,6.39899-14.26447,14.26453
		c0,7.86499,6.39899,14.26398,14.26447,14.26398s14.26453-6.39899,14.26453-14.26398
		C170.71985,181.98315,164.32086,175.58417,156.45532,175.58417z"/>
	<path fill="#1D1D1D" d="M104.31348,258.83398c-5.56299,0-10.08936,4.52637-10.08936,10.08936s4.52637,10.08936,10.08936,10.08936
		s10.08936-4.52637,10.08936-10.08936S109.87647,258.83398,104.31348,258.83398z"/>
	<path fill="#212122" d="M113.52356,175.80298c0,4.63953,3.76111,8.40088,8.40088,8.40088s8.40118-3.76135,8.40118-8.40088
		s-3.76135-8.40112-8.40118-8.40112S113.52356,171.16345,113.52356,175.80298z"/>
	<path fill="#212121" d="M19.10632,175.98163c-7.64648,0-13.86719,6.2207-13.86719,13.86719
		c0,7.64594,6.2207,13.86615,13.86719,13.86615s13.86719-6.22021,13.86719-13.86615
		C32.97351,182.20233,26.75281,175.98163,19.10632,175.98163z M21.05878,176.91504c2.16718,0.32715,4.15515,1.18457,5.83344,2.44177
		h-5.83344V176.91504z M17.15326,176.91504v2.44177h-5.83344C12.9981,178.09961,14.98608,177.24219,17.15326,176.91504z
		 M6.61755,186.12659h10.53571v2.6037H6.14374c0.07092-0.89691,0.23029-1.76733,0.47382-2.6037H6.61755z M9.11505,198.10333
		c-0.66138-0.79193-1.22003-1.66864-1.68011-2.6037h9.71832v2.6037C17.15326,198.10333,9.11505,198.10333,9.11505,198.10333z
		 M19.10602,202.78223c-2.92383,0-5.61316-0.9754-7.78601-2.60327h15.57208
		C24.71918,201.80682,22.02991,202.78223,19.10602,202.78223z M29.09698,198.10333h-8.03821v-2.6037h9.71832
		C30.31701,196.43469,29.75835,197.3114,29.09698,198.10333z M31.59253,193.41681H6.61957
		c-0.24408-0.8363-0.40393-1.70679-0.47546-2.6037h25.92383C31.99647,191.71002,31.83656,192.58051,31.59253,193.41681z
		 M32.06836,188.73029H21.05878v-2.6037h10.53577c0.24353,0.83636,0.40283,1.70679,0.47382,2.6037H32.06836z M30.78076,184.04333
		H7.43127c0.45923-0.93463,1.01648-1.81134,1.67688-2.60327h19.99579C29.76428,182.23199,30.32153,183.1087,30.78076,184.04333z"/>
	<path fill="#212121" d="M66.44635,189.84869c0-7.86554-6.39893-14.26453-14.26447-14.26453s-14.26447,6.39899-14.26447,14.26453
		c0,7.86499,6.39893,14.26398,14.26447,14.26398S66.44635,197.71368,66.44635,189.84869z"/>
	<g>
		<path fill="#D7B06B" d="M112.52783,185.29883c-0.83368-1.43109-2.164-2.401-3.6507-2.82922
			c-1.11731-1.06177-2.62897-1.71863-4.2951-1.71863s-3.17804,0.65692-4.29547,1.71875
			c-1.48669,0.42828-2.81696,1.39813-3.65033,2.8291c-0.80841,1.38727-1.03448,2.99811-0.65063,4.54956
			c-0.38385,1.55188-0.15778,3.16278,0.65063,4.55005c0.83215,1.42871,2.16052,2.39398,3.6441,2.82324
			c1.11798,1.06512,2.63245,1.72412,4.3017,1.72412s3.18365-0.659,4.30151-1.72418c1.48364-0.42932,2.81207-1.39478,3.64429-2.82318
			c0.80786-1.38757,1.0343-2.99829,0.65027-4.55005c0.38403-1.55133,0.15759-3.16199-0.65027-4.54956H112.52783z
			 M110.78998,192.60791c-0.02808-0.99579-0.28931-1.93475-0.74078-2.75928c0.45154-0.82465,0.71277-1.76385,0.74078-2.75977
			c0.85211,0.71851,1.46783,1.66833,1.76886,2.75952C112.25775,190.93958,111.64209,191.8894,110.78998,192.60791z
			 M105.26678,196.55548c0.84045-0.51147,1.51733-1.2052,2.02173-2.01807c0.95709-0.02039,1.91895-0.26221,2.81281-0.74255
			c-0.20892,1.11829-0.75317,2.12097-1.52972,2.89819c-1.06964,0.27856-2.2207,0.24377-3.30481-0.13757H105.26678z
			 M100.59161,196.69263c-0.77637-0.77716-1.32056-1.77966-1.52936-2.89771c0.89392,0.48065,1.85626,0.72211,2.81342,0.74249
			c0.50439,0.81287,1.18134,1.50653,2.02148,2.01794C102.81274,196.93665,101.66144,196.97131,100.59161,196.69263z
			 M96.60492,189.84839c0.30115-1.09137,0.91675-2.04089,1.76868-2.75934c0.02808,0.99591,0.28931,1.935,0.74091,2.75958
			c-0.45154,0.82446-0.71277,1.76337-0.74091,2.75909C97.52167,191.88928,96.90607,190.93976,96.60492,189.84839z
			 M102.0293,182.81787c0.62476,0,1.25269,0.11456,1.86139,0.32812c-0.83496,0.5097-1.50842,1.19928-2.01117,2.00732
			c-0.95795,0.01984-1.92169,0.26465-2.81671,0.74536c0.20959-1.11798,0.75433-2.12018,1.53107-2.89691
			C101.06079,182.88025,101.54345,182.81787,102.0293,182.81787z M108.5697,183.00171
			c0.77673,0.77679,1.32147,1.77893,1.53107,2.89697c-0.89465-0.48053-1.85815-0.72528-2.81598-0.74506
			c-0.50275-0.80823-1.17657-1.49799-2.0116-2.00775c0.60876-0.21356,1.23676-0.328,1.86157-0.328
			C107.62042,182.81787,108.10291,182.88031,108.5697,183.00171z M110.19922,186.91602c0,0.83545-0.19208,1.62555-0.52643,2.33734
			c-0.40302-0.57019-0.90137-1.06787-1.47113-1.47443c-0.03314-0.3277-0.086-0.65515-0.17285-0.97961
			c-0.09509-0.35492-0.23053-0.69128-0.38312-1.01758c0.78998,0.06909,1.57739,0.29584,2.30792,0.71387
			c0.08374,0.04791,0.15192,0.11334,0.23254,0.16498C110.19006,186.74585,110.19921,186.82977,110.19922,186.91602z
			 M106.95959,193.93634c-0.5766-0.01971-1.14551-0.12457-1.68719-0.3139c0.3714-0.22577,0.72351-0.48633,1.04407-0.79034
			c0.4187-0.12097,0.82031-0.28137,1.19763-0.48236c-0.02521,0.13074-0.03009,0.26257-0.06488,0.39246
			c-0.1134,0.42322-0.28674,0.81744-0.48962,1.19415H106.95959z M101.71484,192.74268
			c-0.03485-0.13007-0.03973-0.26202-0.06494-0.39294c0.37701,0.20087,0.77832,0.36127,1.19659,0.48212
			c0.32062,0.30414,0.67279,0.5647,1.04425,0.79053c-0.5415,0.18921-1.11017,0.29407-1.68652,0.31378
			C102.00146,193.55963,101.82818,193.16559,101.71484,192.74268z M102.20294,185.76282
			c0.57098,0.01947,1.13263,0.12616,1.66962,0.31213c-0.36639,0.22412-0.70923,0.49005-1.02594,0.79047
			c-0.41833,0.12091-0.81964,0.28125-1.19672,0.48212c0.02521-0.13092,0.03009-0.26288,0.06494-0.39294
			C101.828,186.53235,102.00073,186.13879,102.20294,185.76282z M107.44922,186.95459
			c0.03485,0.13007,0.03973,0.26208,0.06494,0.39301c-0.37714-0.20099-0.77856-0.36133-1.19696-0.48224
			c-0.31665-0.30042-0.65936-0.56641-1.0257-0.79053c0.53699-0.18597,1.09869-0.29254,1.66956-0.31201
			C107.16333,186.13879,107.33606,186.53235,107.44922,186.95459z M106.00745,192.29291
			c-0.45612,0.1189-0.93219,0.18854-1.42542,0.18854c-0.49347,0-0.96973-0.0697-1.42609-0.18866
			c-0.33179-0.33191-0.63062-0.70551-0.87714-1.12872c-0.24323-0.41779-0.40631-0.86243-0.53235-1.31555
			c0.12604-0.45312,0.28912-0.89771,0.53235-1.31531c0.24591-0.42206,0.54266-0.79645,0.87335-1.12775
			c0.45746-0.11957,0.935-0.18964,1.42987-0.18964c0.49475,0,0.97229,0.07007,1.42969,0.18964
			c0.33063,0.3313,0.62726,0.70569,0.87305,1.12775c0.24341,0.41766,0.40662,0.8623,0.53271,1.31543
			c-0.1261,0.45312-0.28931,0.89777-0.53271,1.31543C106.63824,191.58734,106.33935,191.961,106.00745,192.29291z
			 M107.40332,188.23145c-0.08038-0.13806-0.1698-0.26752-0.25909-0.39697c0.16528,0.08441,0.32574,0.17615,0.48108,0.27582
			c0.00885,0.17242-0.01007,0.34326-0.01752,0.51495C107.54273,188.49286,107.47833,188.36023,107.40332,188.23145z
			 M105.04407,186.6394c-0.15314-0.01123-0.30609-0.02319-0.46204-0.02319c-0.15601,0-0.30902,0.01196-0.46216,0.02319
			c0.15057-0.09528,0.30383-0.18408,0.4621-0.26434C104.74022,186.45532,104.89349,186.54413,105.04407,186.6394z
			 M102.01935,187.83453c-0.08929,0.12946-0.17871,0.25891-0.25909,0.39691c-0.07489,0.12854-0.1391,0.26105-0.20404,0.39325
			c-0.00745-0.17157-0.02637-0.34222-0.01752-0.51459C101.69386,188.0105,101.85419,187.91882,102.01935,187.83453z
			 M101.10541,189.84857c-0.10474,0.42169-0.16492,0.85211-0.17712,1.28619c-0.43384-0.36926-0.80798-0.80322-1.11182-1.28613
			c0.30383-0.48291,0.67798-0.91687,1.11182-1.28613C100.94056,188.99652,101.00068,189.42688,101.10541,189.84857z
			 M101.55621,191.07257c0.06494,0.1322,0.12915,0.26471,0.20404,0.39325c0.08301,0.14258,0.18109,0.27039,0.27362,0.40381
			c-0.17017-0.0863-0.33557-0.17999-0.49518-0.28247C101.52985,191.41479,101.54883,191.24414,101.55621,191.07257z
			 M104.10614,193.05719c0.15759,0.0119,0.31525,0.02386,0.47589,0.02386c0.1604,0,0.31781-0.01196,0.47522-0.02386
			c-0.15454,0.09808-0.31305,0.18854-0.47565,0.27081C104.41901,193.24567,104.26063,193.15533,104.10614,193.05719z
			 M107.12952,191.86981c0.09259-0.13342,0.19073-0.26141,0.2738-0.40399c0.07501-0.12878,0.1394-0.26147,0.20447-0.39386
			c0.00745,0.17169,0.02643,0.34253,0.01758,0.51501C107.46552,191.68958,107.29993,191.78339,107.12952,191.86981z
			 M108.05841,189.84863c0.10474-0.42163,0.16486-0.85199,0.17712-1.28601c0.43365,0.3692,0.80774,0.80316,1.11157,1.28601
			c-0.30383,0.48285-0.67792,0.91681-1.11157,1.28601C108.22326,190.70068,108.16314,190.27032,108.05841,189.84863z
			 M104.82959,183.56299c0.7157,0.40985,1.30499,0.96759,1.76746,1.61737c-0.69659,0.06213-1.37744,0.24109-2.01477,0.52631
			c-0.63745-0.28546-1.31842-0.46448-2.0152-0.52661c0.4624-0.6496,1.05157-1.20728,1.7674-1.61707
			c0.08081-0.04626,0.16534-0.07886,0.24744-0.12067c0.08215,0.04181,0.16681,0.0744,0.24768,0.12067H104.82959z
			 M99.20996,186.49561c0.73108-0.41852,1.51849-0.64502,2.30853-0.71393c-0.15259,0.32629-0.28809,0.66266-0.38324,1.01764
			c-0.08691,0.3244-0.13989,0.65192-0.1731,0.97961c-0.56989,0.40662-1.06818,0.90424-1.47131,1.47449
			c-0.33441-0.71185-0.52649-1.50189-0.52649-2.3374c0-0.08618,0.00916-0.17017,0.01306-0.25543
			c0.08063-0.0517,0.1488-0.11707,0.23254-0.16498H99.20996z M98.96436,192.78125c0-0.83551,0.19208-1.62555,0.52649-2.3374
			c0.40314,0.57025,0.90155,1.06787,1.47137,1.47449c0.0332,0.3277,0.08612,0.65515,0.17303,0.97961
			c0.09546,0.35583,0.23114,0.69312,0.38428,1.02014c-0.79041-0.06879-1.57819-0.29895-2.30957-0.71692
			c-0.08374-0.04797-0.15192-0.11334-0.23254-0.16504C98.97351,192.95105,98.96436,192.86731,98.96436,192.78125z
			 M104.33447,196.13379c-0.71808-0.41107-1.30835-0.97113-1.77136-1.62335c0.69855-0.06189,1.37964-0.23938,2.01855-0.52557
			c0.6391,0.28632,1.32043,0.46362,2.01923,0.52557c-0.46301,0.65228-1.05328,1.21228-1.7713,1.62335
			c-0.08118,0.04639-0.1651,0.0835-0.24762,0.12543C104.49951,196.21729,104.41565,196.18018,104.33447,196.13379z
			 M109.95361,193.20117c-0.73126,0.41797-1.5188,0.64825-2.30902,0.7171c0.1532-0.32721,0.28882-0.66479,0.38422-1.02081
			c0.08679-0.32428,0.13971-0.65155,0.17285-0.97906c0.56976-0.40662,1.06805-0.90424,1.47113-1.47449
			c0.33435,0.71179,0.52643,1.50189,0.52643,2.33734c0,0.08606-0.00916,0.16986-0.01306,0.25494
			C110.10553,193.08783,110.03735,193.15326,109.95361,193.20117z M112.00928,185.60059
			c0.54858,0.94232,0.79626,1.99927,0.74048,3.06085c-0.4455-0.9303-1.1311-1.71179-1.98022-2.31879
			c-0.09973-1.06641-0.47302-2.05475-1.05164-2.89471C110.64355,183.91998,111.45135,184.64258,112.00928,185.60059z
			 M104.58203,181.35059c1.11719,0,2.15668,0.32861,3.03247,0.88794c-1.01508-0.078-2.05725,0.08899-3.03247,0.52728
			c-0.97534-0.43842-2.01764-0.60529-3.0329-0.52722C102.42506,181.6792,103.46466,181.35059,104.58203,181.35059z
			 M97.15479,185.60059c0.5578-0.95776,1.36536-1.68036,2.29077-2.1524c-0.57855,0.83997-0.95178,1.82819-1.05151,2.89447
			c-0.849,0.60699-1.53467,1.38861-1.9801,2.31879C96.35815,187.59967,96.60572,186.54266,97.15479,185.60059z M97.15479,194.09668
			c-0.54901-0.94202-0.79651-1.9989-0.74078-3.06067c0.44531,0.92993,1.13098,1.7113,1.98004,2.31818
			c0.10004,1.07013,0.47577,2.0614,1.05786,2.9032C98.52295,195.78577,97.71424,195.05719,97.15479,194.09668z M104.58203,198.34619
			c-1.12555,0-2.17261-0.33282-3.05243-0.89972c0.16669,0.01337,0.33289,0.03204,0.50067,0.03204
			c0.86145,0,1.72925-0.18829,2.55164-0.55829c0.82245,0.3703,1.69031,0.55829,2.55188,0.55829
			c0.16766,0,0.33368-0.01868,0.50024-0.03204C106.75427,198.01337,105.70739,198.34619,104.58203,198.34619z M112.00928,194.09668
			c-0.55975,0.96082-1.36877,1.68964-2.29797,2.16132c0.58228-0.84198,0.95819-1.83344,1.05823-2.90387
			c0.84906-0.60699,1.53491-1.38831,1.98029-2.31854C112.80573,192.09741,112.55824,193.15436,112.00928,194.09668z"/>
		<path fill="#D7B06B" d="M104.58185,189.10944c-0.40833,0-0.73938,0.33081-0.73938,0.73895
			c0,0.40869,0.33105,0.73944,0.73938,0.73944c0.40826,0,0.73926-0.33075,0.73926-0.73944
			C105.32111,189.44025,104.99011,189.10944,104.58185,189.10944z"/>
	</g>
	<g>
		<path fill="#DFBA76" d="M104.31348,109.97839c-0.40826,0-0.73932,0.33075-0.73932,0.73944
			c0,0.40814,0.33105,0.73895,0.73932,0.73895c0.40833,0,0.73926-0.33081,0.73926-0.73895
			C105.05273,110.30914,104.7218,109.97839,104.31348,109.97839z"/>
		<path fill="#DFBA76" d="M112.25928,106.16797c-0.83337-1.43097-2.1637-2.40076-3.65039-2.82898
			c-1.11731-1.06195-2.62909-1.71887-4.29541-1.71887c-1.66595,0-3.17749,0.65668-4.29474,1.71826
			c-1.487,0.42834-2.8175,1.39856-3.65106,2.82959c-0.82861,1.42188-1.05029,3.0791-0.62549,4.66602
			c0.42773,1.59668,1.45801,2.93115,2.90137,3.75684c0.97607,0.55908,2.04346,0.82422,3.09717,0.82422
			c0.88959,0,1.76514-0.19934,2.57263-0.5611c0.80762,0.36182,1.68323,0.5611,2.57288,0.5611
			c1.05371,0,2.12109-0.26562,3.09717-0.82422c1.44336-0.82568,2.47363-2.16016,2.90137-3.75684
			C113.30957,109.24709,113.08789,107.58985,112.25928,106.16797z M104.31348,113.35059c-0.49335,0-0.96948-0.0697-1.42566-0.1886
			c-0.33179-0.33191-0.63062-0.70557-0.87708-1.12878c-0.74756-1.2832-0.94775-2.77832-0.56445-4.20996
			c0.38623-1.44092,1.31641-2.64502,2.61963-3.39111c0.08081-0.04626,0.16534-0.07886,0.24744-0.12067
			c0.08215,0.04181,0.16681,0.0744,0.24768,0.12067c1.30322,0.74609,2.2334,1.9502,2.61963,3.39111
			c0.3833,1.43164,0.18311,2.92676-0.56445,4.20996c-0.24664,0.42316-0.54553,0.79675-0.87744,1.12866
			C105.28271,113.28078,104.80669,113.35054,104.31348,113.35059z M104.78864,113.92627
			c-0.15448,0.09821-0.31293,0.18854-0.47559,0.27087c-0.16254-0.08234-0.32104-0.17267-0.47546-0.27081
			c0.15759,0.0119,0.31525,0.02386,0.47589,0.02386c0.1604,0,0.31781-0.01202,0.47516-0.02393V113.92627z M101.76074,103.68701
			c0.62476,0,1.25269,0.11456,1.86139,0.32812c-1.36115,0.83093-2.34277,2.11432-2.75494,3.65283
			c-0.42529,1.5874-0.20361,3.24463,0.625,4.66699c0.08307,0.14258,0.18115,0.27057,0.27368,0.40399
			c-1.81897-0.92212-3.06958-2.79407-3.06958-4.9538c0-1.52509,0.62323-2.90802,1.62952-3.91431
			c0.4668-0.1214,0.94928-0.18384,1.43494-0.18384V103.68701z M107.13477,112.33496c0.82861-1.42236,1.05029-3.07959,0.625-4.66699
			c-0.41217-1.53864-1.39392-2.82202-2.75513-3.65295c0.60876-0.21356,1.23676-0.328,1.86157-0.328
			c0.48566,0,0.96814,0.06244,1.43494,0.18384c1.00629,1.00629,1.62952,2.38922,1.62952,3.91431
			c0,2.15924-1.25049,4.03094-3.06934,4.95331C106.9538,112.60517,107.05182,112.47736,107.13477,112.33496z M104.31348,102.21973
			c1.11731,0,2.15692,0.32867,3.03284,0.88818c-1.01514-0.078-2.05743,0.08881-3.03265,0.52698
			c-0.9751-0.43848-2.01709-0.60553-3.03198-0.52759C102.15735,102.54822,103.19659,102.21973,104.31348,102.21973z
			 M98.94141,114.07031c-1.30322-0.74609-2.2334-1.9502-2.61963-3.3916c-0.3833-1.43115-0.18311-2.92627,0.56445-4.20898
			c0.55792-0.95801,1.36572-1.6806,2.29138-2.15265c-0.68115,0.98889-1.08093,2.18274-1.08093,3.46808
			c0,2.80194,1.8963,5.16907,4.48193,5.91602c0.32056,0.30408,0.67267,0.56451,1.04407,0.79034
			C102.1272,115.01447,100.4198,114.91579,98.94141,114.07031z M112.30518,110.67871
			c-0.38623,1.44141-1.31641,2.64551-2.61963,3.3916c-1.47845,0.84546-3.18616,0.94434-4.68182,0.42139
			c0.37158-0.22583,0.72382-0.48657,1.04449-0.79071c2.58575-0.74725,4.48206-3.11426,4.48206-5.91583
			c0-1.28534-0.39978-2.47919-1.08093-3.46808c0.92566,0.47205,1.73346,1.19464,2.29138,2.15265
			C112.4883,107.75243,112.68848,109.24756,112.30518,110.67871z"/>
	</g>
	<g>
		<path fill="#CDA25F" d="M103.57416,268.92328c0,0.40869,0.33105,0.73944,0.73932,0.73944
			c0.40833,0,0.73926-0.33075,0.73926-0.73944c0-0.40814-0.33093-0.73895-0.73926-0.73895
			C103.90522,268.18433,103.57416,268.51514,103.57416,268.92328z"/>
		<path fill="#CDA25F" d="M112.88477,268.80713c-0.42773-1.59668-1.45801-2.93115-2.90137-3.75684
			c-1.79956-1.02991-3.90619-1.05786-5.66962-0.2688c-1.76361-0.78949-3.87036-0.76154-5.67023,0.2688
			c-1.44336,0.82568-2.47363,2.16016-2.90137,3.75684c-0.4248,1.58691-0.20312,3.24414,0.62549,4.66602
			c0.83221,1.42883,2.16071,2.39441,3.64459,2.82373c1.11786,1.06512,2.63208,1.72412,4.30121,1.72412
			s3.18347-0.65906,4.30133-1.72424c1.48376-0.42938,2.81232-1.3949,3.64447-2.82361
			C113.0879,272.05127,113.30958,270.39404,112.88477,268.80713z M96.88623,273.17139
			c-0.74756-1.28271-0.94775-2.77783-0.56445-4.20898c0.38623-1.44141,1.31641-2.64551,2.61963-3.3916
			c0.88281-0.50537,1.84814-0.74512,2.80078-0.74512c0.63647,0,1.26416,0.11749,1.86151,0.32428
			c-0.36646,0.22418-0.70935,0.49023-1.02606,0.79071c-2.58521,0.74719-4.48096,3.11365-4.48096,5.91528
			c0,1.28973,0.40283,2.487,1.08826,3.47784C98.25531,274.86188,97.44604,274.13251,96.88623,273.17139z M104.99817,275.63068
			c1.36481-0.83087,2.34875-2.11633,2.7616-3.65753c0.42529-1.5874,0.20361-3.24463-0.625-4.66699
			c-0.08026-0.13776-0.16949-0.26703-0.25861-0.39624c1.81091,0.9248,3.0545,2.7926,3.0545,4.94604
			c0,1.52386-0.62231,2.90576-1.6272,3.9118c-1.06982,0.27875-2.22101,0.2442-3.3053-0.13708H104.99817z M106.61621,267.60791
			c0.74756,1.2832,0.94775,2.77832,0.56445,4.20996c-0.38623,1.44092-1.31641,2.64502-2.61963,3.39111
			c-0.08118,0.04645-0.16504,0.0835-0.2475,0.12549c-0.08252-0.04199-0.16638-0.07904-0.24762-0.12549
			c-1.30322-0.74609-2.2334-1.9502-2.61963-3.39111c-0.3833-1.43164-0.18311-2.92676,0.56445-4.20996
			c0.24573-0.42181,0.5423-0.79602,0.8728-1.1272c0.45746-0.11963,0.93506-0.1897,1.42993-0.1897s0.97241,0.07007,1.42987,0.1897
			C106.07391,266.81189,106.37048,267.1861,106.61621,267.60791z M100.32452,275.76886
			c-1.00549-1.0061-1.62823-2.38849-1.62823-3.9129c0-2.15344,1.24359-4.02124,3.05444-4.94604
			c-0.08911,0.12921-0.17834,0.25848-0.25854,0.39624c-0.82861,1.42236-1.05029,3.07959-0.625,4.66699
			c0.4129,1.54132,1.39691,2.82697,2.7619,3.65778C102.54481,276.01276,101.39399,276.04742,100.32452,275.76886z
			 M104.31348,265.69141c-0.15607,0-0.3092,0.0119-0.4624,0.02319c0.15063-0.09534,0.30396-0.18408,0.46234-0.2644
			c0.15839,0.08032,0.31165,0.16913,0.46228,0.2644C104.6225,265.70337,104.46948,265.69141,104.31348,265.69141z
			 M104.31348,277.42139c-1.12531,0-2.17224-0.33282-3.052-0.89972c0.16669,0.01337,0.33289,0.03204,0.50073,0.03204
			c0.86145,0,1.72894-0.18823,2.55115-0.55823c0.82233,0.37024,1.68988,0.55823,2.55139,0.55823
			c0.16779,0,0.33405-0.01868,0.50073-0.03204C106.48572,277.08856,105.43884,277.42139,104.31348,277.42139z M111.74072,273.17139
			c-0.55969,0.96057-1.36865,1.68933-2.29773,2.16107c0.68481-0.9906,1.08728-2.18738,1.08728-3.4765
			c0-2.80157-1.89575-5.16803-4.4809-5.91528c-0.31671-0.30054-0.65955-0.56665-1.026-0.79083
			c0.59729-0.20679,1.22485-0.32416,1.86139-0.32416c0.95264,0,1.91797,0.24023,2.80078,0.74512
			c1.30322,0.74609,2.2334,1.9502,2.61963,3.3916C112.68848,270.39355,112.48829,271.88867,111.74072,273.17139z"/>
	</g>
	<path fill="#242425" d="M107.13477,112.33496c0.82861-1.42236,1.05029-3.07959,0.625-4.66699
		c-0.41217-1.53864-1.39392-2.82202-2.75513-3.65295c0.60876-0.21356,1.23676-0.328,1.86157-0.328
		c0.48566,0,0.96814,0.06244,1.43494,0.18384c1.00629,1.00629,1.62952,2.38922,1.62952,3.91431
		c0,2.15924-1.25049,4.03094-3.06934,4.95331C106.9538,112.60517,107.05182,112.47736,107.13477,112.33496z"/>
</g>
</svg>
