<?xml version="1.0" encoding="UTF-8"?>
<svg xmlns="http://www.w3.org/2000/svg" width="210" height="380" xmlns:xlink="http://www.w3.org/1999/xlink" viewBox="0 0 210 380">
  <defs>
    <linearGradient id="uuid-bb775ca7-9d2b-455b-bf8e-737dc80cd140" x1="105" y1="0" x2="105" y2="379.99944" gradientUnits="userSpaceOnUse">
      <stop offset="0" stop-color="#fff09c"/>
      <stop offset="1" stop-color="#ffcf60"/>
    </linearGradient>
    <linearGradient id="uuid-5b960465-3c85-46ca-b145-1c94d4c06f89" x1="105" y1="0" x2="105" y2="380" gradientUnits="userSpaceOnUse">
      <stop offset="0" stop-color="#2a2a2b"/>
      <stop offset="1" stop-color="#171717"/>
    </linearGradient>
  </defs>
  <g id="uuid-0864970b-cf5e-45a9-b525-34cac071c23d" data-name="FND_BG">
    <rect width="210" height="379.99944" fill="url(#uuid-bb775ca7-9d2b-455b-bf8e-737dc80cd140)"/>
  </g>
  <g id="uuid-2107d614-b903-4621-be8b-9906156e3ef3" data-name="Layer_18">
    <path d="M29.92047,121.81012c3.26642,0,5.91443-2.64795,5.91443-5.91437s-2.64801-5.91443-5.91443-5.91443-5.91443,2.64795-5.91443,5.91443,2.64801,5.91437,5.91443,5.91437ZM29.92047,110.72064c2.85815,0,5.17517,2.31696,5.17517,5.17511s-2.31702,5.17505-5.17517,5.17505-5.17517-2.31696-5.17517-5.17505,2.31696-5.17511,5.17517-5.17511Z" fill="#242425"/>
    <path d="M104.32074,283.29346c-4.63983,0-8.40088,3.76086-8.40088,8.40088,0,4.63959,3.76105,8.40094,8.40088,8.40094s8.40112-3.76135,8.40112-8.40094c0-4.64001-3.76135-8.40088-8.40112-8.40088Z" fill="#1c1c1c"/>
    <path d="M28.23541,117.64398c.30664.35657.7121.53583,1.21436.53583.49207,0,.87109-.22614,1.13696-.67645.18439.45337.52264.68054,1.01471.68054.20374,0,.3739-.03461.5094-.10187l-.09778-.88428c-.02142.01013-.052.0163-.08966.0163-.18445,0-.28119-.16101-.28937-.4809v-3.04413h-1.02283l-.08557.52979c-.26392-.40753-.61945-.61127-1.06769-.61127-.53284,0-.95361.20782-1.26331.62347s-.4646.9801-.4646,1.69525l.00409.2486c.02753.62146.19458,1.11151.50128,1.46912ZM29.1319,114.90753c.14673-.23438.35455-.35046.62354-.35046.31781,0,.55115.14258.70093.42786v1.85419c-.14978.2608-.38617.39124-.70911.39124-.55725,0-.83539-.40753-.83539-1.22253,0-.50024.07336-.867.22003-1.10028Z" fill="#242425"/>
    <polygon points="9.27759 70.84296 12.68469 70.84296 12.68469 74.92297 14.67767 74.92297 14.67767 74.20325 13.41412 74.20325 13.41412 70.12335 8.54791 70.12335 8.54791 74.20325 7.28461 74.20325 7.28461 74.92297 9.27759 74.92297 9.27759 70.84296" fill="#262627"/>
    <polygon points="9.27734 156.67804 10.25006 156.67804 10.25006 160.03827 10.25006 160.75793 12.24304 160.75793 14.67743 160.75793 14.67743 160.03827 12.24304 160.03827 10.97974 160.03827 10.97974 156.67804 10.98102 156.67804 10.98102 155.95837 10.97974 155.95837 8.54791 155.95837 8.54639 155.95837 8.54639 156.67804 8.54791 156.67804 8.54791 160.03827 7.28436 160.03827 7.28436 160.75793 9.27734 160.75793 9.27734 156.67804" fill="#222223"/>
    <polygon points="35.85077 25.23541 39.25757 25.23541 39.25757 29.31537 41.25061 29.31537 41.25061 28.5957 39.9873 28.5957 39.9873 24.51581 35.12109 24.51581 35.12109 28.5957 33.85754 28.5957 33.85754 29.31537 35.85077 29.31537 35.85077 25.23541" fill="#29292a"/>
    <polygon points="40.02472 349.37213 35.15851 349.37213 35.15851 353.45203 33.89526 353.45203 33.89526 354.17175 35.88849 354.17175 35.88849 350.0918 39.29529 350.0918 39.29529 354.17175 41.28827 354.17175 41.28827 353.45203 40.02472 353.45203 40.02472 349.37213" fill="#181819"/>
    <path d="M86.72931,167.40204c-4.64001,0-8.40088,3.7616-8.40088,8.40112s3.76086,8.40088,8.40088,8.40088c4.63953,0,8.40088-3.76135,8.40088-8.40088s-3.76135-8.40112-8.40088-8.40112Z" fill="#212122"/>
    <polygon points="13.41772 303.76855 8.55145 303.76855 8.55145 307.84845 7.28821 307.84845 7.28821 308.56818 9.28143 308.56818 9.28143 304.48822 12.68823 304.48822 12.68823 308.56818 14.68121 308.56818 14.68121 307.84845 13.41772 307.84845 13.41772 303.76855" fill="#1b1b1b"/>
    <polygon points="11.71582 222.73303 11.71582 222.01331 11.71582 218.65308 12.68823 218.65308 12.68823 222.73303 14.68152 222.73303 14.68152 222.01331 13.41797 222.01331 13.41797 218.65308 13.41949 218.65308 13.41949 217.93341 13.41797 217.93341 10.98615 217.93341 10.98486 217.93341 10.98486 218.65308 10.98615 218.65308 10.98615 222.01331 9.72284 222.01331 7.28821 222.01331 7.28821 222.73303 9.72284 222.73303 11.71582 222.73303" fill="#1f1f1f"/>
    <path d="M31.18347,262.99554c-.28625-.22815-.64587-.41815-1.07788-.5705-.43195-.15228-.64795-.33673-.64795-.5542,0-.12225.05811-.21802.17523-.28729.11719-.06927.27716-.10394.4809-.10394.23633,0,.55725.06366.96173.19153v-.90466l-.2771-.08148c-.24963-.06775-.51245-.10193-.7865-.10193-.51654,0-.92407.11566-1.22461.34644-.30054.23071-.45026.5542-.45026.96985,0,.4646.25568.8288.76611,1.09216l.01221.02441c-.36981.09528-.67548.31378-.91895.65613-.24347.34229-.36475.72791-.36475,1.15735v.0448c0,.67395.19257,1.20825.57666,1.60358.38409.39526.89349.5929,1.52612.5929.62756,0,1.1319-.20422,1.51392-.61328.38208-.40906.57257-.94342.57257-1.60358,0-.42938-.06824-.78906-.20374-1.0799-.1355-.29089-.34741-.55017-.63373-.77838ZM30.59869,265.77124c-.16296.23334-.38409.34998-.66425.34998-.28522,0-.51038-.11664-.67645-.34998-.16608-.23328-.2486-.55725-.2486-.97241,0-.44775.08356-.78754.25061-1.01929.16711-.23181.39227-.3479.67444-.3479.26385.05701.4809.21033.65204.45996.17114.24957.25671.52466.25671.82574,0,.4696-.08148.82062-.24451,1.05389Z" fill="#1d1d1d"/>
    <path d="M102.5072,336.61066h2.1109l-.82721.97705c-.39935.47272-.68359.89551-.85376,1.26837-.1701.37335-.2547.76764-.2547,1.18329,0,.40704.1131.73303.34027.97705.22717.24451.59192.43042,1.09418.55774l.36676.09375c.25269.07593.3739.19971.36267.37085.01123.18182-.11407.41003-.37488.68463l.59906.45642c.26587-.1875.48999-.41364.67236-.67853s.27307-.49921.27307-.70294c0-.22467-.05811-.40961-.17322-.55426s-.31274-.26587-.59296-.36316c-.14362-.05145-.36371-.1192-.66016-.20325s-.4931-.18542-.59088-.30365c-.09784-.11816-.14673-.28882-.14673-.51141,0-.31018.05811-.59344.17523-.85016.11719-.25671.33417-.56592.65204-.92712l1.46295-1.74872v-.67548h-3.63501v.94952Z" fill="#191919"/>
    <path d="M121.92444,212.29504c4.63983,0,8.40118-3.76129,8.40118-8.40088,0-4.64001-3.76135-8.40088-8.40118-8.40088s-8.40088,3.76086-8.40088,8.40088c0,4.63959,3.76111,8.40088,8.40088,8.40088Z" fill="#202020"/>
    <path d="M131.03168,107.48047c-4.63983,0-8.40088,3.76135-8.40088,8.40088,0,4.64001,3.76105,8.40088,8.40088,8.40088s8.40112-3.76086,8.40112-8.40088c0-4.63953-3.76135-8.40088-8.40112-8.40088Z" fill="#242425"/>
    <path d="M131.03168,272.21667c4.63977,0,8.40112-3.76135,8.40112-8.40094,0-4.64001-3.76135-8.40088-8.40112-8.40088s-8.40088,3.76086-8.40088,8.40088c0,4.63959,3.76105,8.40094,8.40088,8.40094Z" fill="#1d1d1d"/>
    <circle cx="86.72931" cy="203.89398" r="8.40088" fill="#202020"/>
    <path d="M104.31348,100.62842c-5.56299,0-10.08936,4.52637-10.08936,10.08936s4.52637,10.08936,10.08936,10.08936,10.08936-4.52637,10.08936-10.08936-4.52637-10.08936-10.08936-10.08936Z" fill="#242425"/>
    <path d="M77.59497,272.20227c4.63983,0,8.40118-3.76135,8.40118-8.40094,0-4.64001-3.76135-8.40088-8.40118-8.40088s-8.40088,3.76086-8.40088,8.40088c0,4.63959,3.76111,8.40094,8.40088,8.40094Z" fill="#1d1d1d"/>
    <path d="M77.59497,107.49487c-4.63977,0-8.40088,3.7608-8.40088,8.40088,0,4.63953,3.76111,8.40088,8.40088,8.40088s8.40118-3.76135,8.40118-8.40088c0-4.64008-3.76135-8.40088-8.40118-8.40088Z" fill="#242425"/>
    <path d="M104.31897,34.38776c-3.26642,0-5.91437,2.64795-5.91437,5.91443s2.64795,5.91437,5.91437,5.91437,5.91443-2.64795,5.91443-5.91437-2.64801-5.91443-5.91443-5.91443ZM104.31909,45.47723c-2.85815,0-5.17511-2.31696-5.17511-5.17511s2.31696-5.17505,5.17511-5.17505c2.85797,0,5.17493,2.31696,5.17493,5.17505s-2.31696,5.17511-5.17493,5.17511Z" fill="#282829"/>
    <path d="M98.41046,339.42047c0,3.26642,2.64795,5.91437,5.91437,5.91437s5.91443-2.64795,5.91443-5.91437-2.64795-5.91443-5.91443-5.91443-5.91437,2.64795-5.91437,5.91443ZM109.49988,339.42047c0,2.85809-2.31696,5.17505-5.17517,5.17505-2.85791,0-5.17487-2.31696-5.17487-5.17505s2.31696-5.17511,5.17487-5.17511c2.85822,0,5.17517,2.31696,5.17517,5.17511Z" fill="#191919"/>
    <path d="M104.58203,179.75928c-5.56299,0-10.08936,4.52637-10.08936,10.08936s4.52637,10.08936,10.08936,10.08936,10.08936-4.52637,10.08936-10.08936-4.52637-10.08936-10.08936-10.08936Z" fill="#212121"/>
    <path d="M95.83289,162.11389c0,4.63953,3.76135,8.40088,8.40118,8.40088s8.40088-3.76135,8.40088-8.40088c0-4.63977-3.76111-8.40112-8.40088-8.40112s-8.40118,3.76135-8.40118,8.40112Z" fill="#222223"/>
    <polygon points="104.33337 40.26752 103.48578 37.24786 102.25507 37.24786 103.7262 41.56342 103.7262 43.35645 104.90393 43.35645 104.90393 41.6001 106.38318 37.24786 105.15247 37.24786 104.33337 40.26752" fill="#282829"/>
    <path d="M95.91986,88.00275c0,4.63953,3.76105,8.40088,8.40088,8.40088s8.40112-3.76135,8.40112-8.40088c0-4.64008-3.76135-8.40088-8.40112-8.40088s-8.40088,3.7608-8.40088,8.40088Z" fill="#262626"/>
    <path d="M29.92633,257.91248c-3.26642,0-5.91437,2.64795-5.91437,5.91443s2.64795,5.91437,5.91437,5.91437,5.91443-2.64795,5.91443-5.91437-2.64801-5.91443-5.91443-5.91443ZM29.92633,269.00195c-2.85797,0-5.17517-2.31696-5.17517-5.17505s2.3172-5.17511,5.17517-5.17511c2.85815,0,5.17517,2.31696,5.17517,5.17511s-2.31702,5.17505-5.17517,5.17505Z" fill="#1d1d1d"/>
    <path d="M177.8172,117.84772c.33417.2063.71619.30969,1.14508.30969.56543,0,1.00964-.15533,1.33258-.46661.32294-.31073.48492-.7442.48492-1.30096,0-.35553-.08862-.65863-.26691-.90826-.17828-.25012-.43402-.43195-.76819-.54602.24762-.133.43915-.30975.57465-.52979.1355-.22058.20374-.46613.20374-.7381,0-.50586-.17218-.8996-.5155-1.1828-.34332-.28223-.8089-.42383-1.39575-.42383-.36371,0-.69788.07739-1.00244.2323-.30463.15485-.54199.3703-.7132.64587-.17114.27557-.25671.58325-.25671.92303v5.86816h1.17773v-1.88269ZM177.8172,113.87549c0-.26947.07434-.4809.22412-.6347.14978-.15332.33923-.23029.5705-.23029.22009,0,.39734.0683.5318.20428.13452.13605.20172.31586.20172.53943,0,.53387-.23224.80896-.69684.82526h-.31787v.86389h.39532c.28833,0,.50635.08203.65405.24603.14771.16406.22211.39227.22211.68518,0,.24396-.08154.44366-.24451.59955-.16302.15588-.38306.23376-.66022.23376-.36371,0-.6571-.07892-.88019-.23633v-3.09607Z" fill="#242425"/>
    <path d="M178.71533,257.91248c-3.26636,0-5.91437,2.64795-5.91437,5.91437s2.64801,5.91437,5.91437,5.91437,5.91443-2.64789,5.91443-5.91437-2.64795-5.91437-5.91443-5.91437ZM178.71521,269.00195c-2.85791,0-5.17487-2.31696-5.17487-5.17511s2.31696-5.17511,5.17487-5.17511c2.85822,0,5.17517,2.31696,5.17517,5.17511s-2.31696,5.17511-5.17517,5.17511Z" fill="#1d1d1d"/>
    <path d="M179.30408,265.08398c-.14771.09528-.34741.14264-.59698.14264-.24146,0-.43707-.0509-.58478-.15277-.14771-.10193-.22211-.22772-.22211-.37695,0-.34796.26593-.52319.79871-.5257h.77838v-.7865h-.76208c-.24451,0-.42786-.0423-.55011-.12634s-.18341-.19714-.18341-.33826c0-.14667.06622-.26489.19971-.35449.13348-.08966.30969-.13452.52979-.13452.22308,0,.4024.0423.53992.12634.13757.08405.20581.19562.20581.33417h1.17773c0-.39374-.17426-.71722-.52161-.96991-.34741-.25262-.79468-.37897-1.34076-.37897-.60822,0-1.08905.11407-1.44055.34229s-.52771.54199-.52771.94141c0,.19556.06622.37537.19965.53992.13348.16455.31787.29547.55426.39325-.55426.18188-.83136.52313-.83136,1.02289,0,.39935.18951.72076.56848.96375.37903.24298.87109.36475,1.47723.36475.56543,0,1.02795-.12634,1.38965-.37903.36163-.25262.54199-.58832.54199-1.00653h-1.17773c0,.14417-.07434.26337-.22211.35858Z" fill="#1d1d1d"/>
    <path d="M178.70947,121.81012c3.26642,0,5.91443-2.64789,5.91443-5.91437s-2.64801-5.91437-5.91443-5.91437-5.91437,2.64795-5.91437,5.91437,2.64795,5.91437,5.91437,5.91437ZM178.70966,110.72064c2.85791,0,5.17487,2.31696,5.17487,5.17511s-2.31696,5.17505-5.17487,5.17505c-2.85822,0-5.17517-2.31696-5.17517-5.17505s2.31696-5.17511,5.17517-5.17511Z" fill="#242425"/>
    <polygon points="197.66357 160.04773 197.66357 156.68756 197.66486 156.68756 197.66486 155.96783 197.66357 155.96783 195.23151 155.96783 195.23022 155.96783 195.23022 156.68756 195.23151 156.68756 195.23151 160.04773 193.9682 160.04773 193.9682 160.76746 195.96118 160.76746 195.96118 156.68756 196.93365 156.68756 196.93365 160.04773 196.93365 160.76746 198.92688 160.76746 201.36127 160.76746 201.36127 160.04773 198.92688 160.04773 197.66357 160.04773" fill="#222223"/>
    <polygon points="200.08551 303.81421 195.2193 303.81421 195.2193 307.89417 193.95575 307.89417 193.95575 308.61383 195.94897 308.61383 195.94897 304.53387 199.35577 304.53387 199.35577 308.61383 201.34875 308.61383 201.34875 307.89417 200.08551 307.89417 200.08551 303.81421" fill="#1b1b1b"/>
    <polygon points="173.47845 350.12201 173.47974 350.12201 173.47974 349.40234 173.47845 349.40234 171.04663 349.40234 171.0451 349.40234 171.0451 350.12201 171.04663 350.12201 171.04663 353.48224 169.78308 353.48224 167.34869 353.48224 167.34869 354.2019 169.78308 354.2019 171.77631 354.2019 171.77631 353.48224 171.77631 350.12201 172.74872 350.12201 172.74872 354.2019 174.74176 354.2019 174.74176 353.48224 173.47845 353.48224 173.47845 350.12201" fill="#181819"/>
    <polygon points="169.30371 25.2052 170.27643 25.2052 170.27643 28.56537 170.27643 29.2851 172.26941 29.2851 174.7038 29.2851 174.7038 28.56537 172.26941 28.56537 171.0061 28.56537 171.0061 25.2052 171.00739 25.2052 171.00739 24.48547 171.0061 24.48547 168.57428 24.48547 168.57275 24.48547 168.57275 25.2052 168.57428 25.2052 168.57428 28.56537 167.31073 28.56537 167.31073 29.2851 169.30371 29.2851 169.30371 25.2052" fill="#29292a"/>
    <polygon points="197.65088 222.05902 197.65088 218.69885 197.6524 218.69885 197.6524 217.97913 197.65088 217.97913 195.21899 217.97913 195.21747 217.97913 195.21747 218.69885 195.21899 218.69885 195.21899 222.05902 193.95575 222.05902 193.95575 222.77875 195.94873 222.77875 195.94873 218.69885 196.92114 218.69885 196.92114 222.05902 196.92114 222.77875 198.91412 222.77875 201.34875 222.77875 201.34875 222.05902 198.91412 222.05902 197.65088 222.05902" fill="#1f1f1f"/>
    <path d="M189.59509,175.98145c-7.64648,0-13.86719,6.22058-13.86719,13.86713s6.2207,13.867,13.86719,13.867,13.86713-6.22058,13.86713-13.867-6.22064-13.86713-13.86713-13.86713ZM189.59509,176.9151c2.92383,0,5.61316.9754,7.78601,2.60327h-15.57208c2.17285-1.62787,4.86218-2.60327,7.78607-2.60327ZM179.60413,181.59399h8.03821v2.6037h-9.71838c.46014-.93506,1.01874-1.81177,1.68018-2.6037ZM176.63275,190.96704h11.00958v2.6037h-10.53577c-.24353-.83636-.40283-1.70679-.47382-2.6037ZM187.64233,202.78223c-2.16724-.32709-4.15515-1.18451-5.8335-2.44171h5.8335v2.44171ZM191.54779,202.78223v-2.44171h5.8335c-1.67834,1.2572-3.66626,2.11462-5.8335,2.44171ZM199.59296,198.25726h-19.99579c-.66034-.79193-1.21759-1.66864-1.67682-2.60327h23.34949c-.45923.93463-1.01654,1.81134-1.67688,2.60327ZM202.08356,193.57074h-10.53577v-2.6037h11.00958c-.07092.89691-.23029,1.76733-.47382,2.6037ZM202.55701,188.88422h-25.92383c.07147-.89691.23138-1.7674.4754-2.6037h24.97296c.24402.8363.40393,1.70679.47546,2.6037ZM201.26617,184.19769h-9.71838v-2.6037h8.03821c.66144.79193,1.22003,1.66864,1.68018,2.6037Z" fill="#212121"/>
    <path d="M0,0v380h210V0H0ZM194.8808,68.30762c2.66309-1.50812,6.06836-.61316,7.60571,1.99902,1.5376,2.61218.625,5.95239-2.03784,7.46051-2.66309,1.50818-6.06836.61316-7.60571-1.99908-1.5376-2.61212-.62531-5.95227,2.03784-7.46045ZM202.48676,161.60315c-1.5376,2.61224-4.94287,3.50726-7.60571,1.99908-2.66309-1.50812-3.57544-4.84833-2.03809-7.46051,1.5376-2.61218,4.94287-3.50714,7.60571-1.99902,2.66309,1.50818,3.57544,4.84833,2.03809,7.46045ZM185.14551,115.89575c0,3.54883-2.88721,6.43604-6.43604,6.43604s-6.43597-2.88721-6.43597-6.43604,2.88715-6.43597,6.43597-6.43597,6.43604,2.88715,6.43604,6.43597ZM166.18573,24.65936c1.53735-2.61212,4.94263-3.50714,7.60571-1.99902,2.66284,1.50812,3.57544,4.84833,2.03784,7.46045-1.5376,2.61218-4.94263,3.5072-7.60571,1.99908-2.66284-1.50818-3.57544-4.84833-2.03784-7.46051ZM168.13977,85.77594l.74878.72638c-4.86774,5.01135-8.44061,11.18976-10.33301,17.86688l-1.00348-.28424c1.93927-6.84314,5.60077-13.17438,10.58771-18.30902ZM168.85187,145.23871l-.74878.72638c-4.95435-5.11328-8.59802-11.4129-10.53625-18.21735l1.00348-.28632c1.89142,6.63995,5.44696,12.78729,10.28156,17.77728ZM147.51758,49.80322c-9.47217,6.47229-20.00891,10.64575-31.31738,12.40466l-.15997-1.03101c11.15314-1.73499,21.54572-5.85138,30.88849-12.23456l.58887.8609ZM104.32074,301.13849c-5.20752,0-9.44415-4.23663-9.44415-9.44415s4.23663-9.44409,9.44415-9.44409,9.44434,4.23663,9.44434,9.44409-4.23657,9.44415-9.44434,9.44415ZM110.76086,339.42047c0,3.54883-2.88721,6.43597-6.43604,6.43597s-6.43597-2.88715-6.43597-6.43597,2.88715-6.43604,6.43597-6.43604,6.43604,2.88721,6.43604,6.43604ZM104.31348,279.6123c-5.89404,0-10.68896-4.79492-10.68896-10.68896s4.79492-10.68896,10.68896-10.68896,10.68896,4.79492,10.68896,10.68896-4.79492,10.68896-10.68896,10.68896ZM113.67816,162.11389c0,5.20752-4.23657,9.44415-9.44409,9.44415s-9.4444-4.23663-9.4444-9.44415c0-5.03119,3.95721-9.14392,8.9212-9.41791v-4.59503h1.04327v4.59491c4.96503.2724,8.92401,4.3858,8.92401,9.41803ZM131.36884,175.80298c0,5.20752-4.23663,9.44409-9.4444,9.44409s-9.44409-4.23657-9.44409-9.44409,4.23657-9.4444,9.44409-9.4444c1.52539,0,2.9624.37177,4.23889,1.01648l2.57758-4.53076.90668.5155-2.57904,4.53326c2.58514,1.68689,4.30029,4.59973,4.30029,7.90991ZM94.78967,217.58331c0-5.20752,4.23663-9.44409,9.44415-9.44409s9.44434,4.23657,9.44434,9.44409c0,5.03192-3.95874,9.14526-8.92401,9.41779v4.59528h-1.04327v-4.5954c-4.96375-.27386-8.9212-4.38666-8.9212-9.41766ZM104.58203,200.5376c-5.89404,0-10.68896-4.79492-10.68896-10.68896s4.79492-10.68896,10.68896-10.68896,10.68896,4.79492,10.68896,10.68896-4.79492,10.68896-10.68896,10.68896ZM96.17346,175.80316c0,5.20752-4.23663,9.44409-9.44415,9.44409s-9.44409-4.23657-9.44409-9.44409c0-3.32379,1.72986-6.24609,4.33264-7.92975l-2.62567-4.50903.90161-.52466,2.63153,4.51886c1.26788-.63397,2.69238-.99982,4.20398-.99982,5.20752,0,9.44415,4.23688,9.44415,9.4444ZM77.59497,125.33984c-5.20746,0-9.44409-4.23657-9.44409-9.44409s4.23663-9.44415,9.44409-9.44415c5.20776,0,9.4444,4.23663,9.4444,9.44415s-4.23663,9.44409-9.4444,9.44409ZM77.59497,254.35724c5.20776,0,9.4444,4.23663,9.4444,9.44409s-4.23663,9.44415-9.4444,9.44415c-5.20746,0-9.44409-4.23663-9.44409-9.44415s4.23663-9.44409,9.44409-9.44409ZM86.72931,213.33813c-1.51135,0-2.9361-.36578-4.20398-.99963l-2.63153,4.5191-.90161-.52466,2.62592-4.50934c-2.60303-1.68353-4.33289-4.60577-4.33289-7.92963,0-5.20752,4.23657-9.44409,9.44409-9.44409s9.44415,4.23657,9.44415,9.44409-4.23663,9.44415-9.44415,9.44415ZM112.48035,203.89417c0-5.20746,4.23657-9.44409,9.44409-9.44409s9.4444,4.23663,9.4444,9.44409c0,3.31024-1.71515,6.22302-4.30029,7.90985l2.57904,4.53351-.90668.5155-2.57782-4.53107c-1.27655.64465-2.7135,1.01636-4.23865,1.01636-5.20752,0-9.44409-4.23663-9.44409-9.44415ZM131.03168,254.37164c5.20776,0,9.44434,4.23663,9.44434,9.44409s-4.23657,9.44415-9.44434,9.44415-9.44415-4.23663-9.44415-9.44415,4.23663-9.44409,9.44415-9.44409ZM131.03168,125.32544c-5.20752,0-9.44415-4.23657-9.44415-9.44409s4.23663-9.44415,9.44415-9.44415,9.44434,4.23663,9.44434,9.44415-4.23657,9.44409-9.44434,9.44409ZM115.14056,23.63947c0-.02716.00903-.05029.02917-.0694.0191-.02008.04224-.02917.0694-.02917h.93951c.02716,0,.05127.00909.07037.02917.01917.0191.0282.04224.0282.0694v.12372c0,.22034.10156.4054.30579.55627.20221.15088.47778.22632.82385.22632.29071,0,.50793-.06134.65082-.18506.14282-.12372.21423-.27563.21423-.4577,0-.13177-.04425-.24243-.13177-.33295-.0885-.09155-.20721-.17102-.35913-.23938-.15088-.06842-.3913-.16296-.72021-.28467-.36816-.12573-.67999-.25549-.93549-.38727s-.46973-.31183-.64276-.53918c-.17297-.22833-.25952-.50995-.25952-.84497,0-.3299.08453-.61761.25549-.86505.17004-.24744.40643-.43652.70819-.5683.30273-.13177.65082-.19818,1.04712-.19818.41742,0,.78961.07446,1.11652.22229.32697.14886.58246.35608.76654.62268.18304.26654.27557.57538.27557.92639v.12372c0,.0282-.01007.05133-.02917.07043s-.04224.02917-.0694.02917h-.94757c-.02814,0-.05127-.01007-.07037-.02917s-.02917-.04224-.02917-.07043v-.06537c0-.23132-.09454-.42749-.28369-.58942-.19006-.16199-.44958-.24347-.77856-.24347-.25848,0-.46069.05536-.60651.16498-.1449.10962-.21832.26154-.21832.45367,0,.13678.04327.25244.12775.34601.08551.09357.21124.17706.37927.25146.16797.07343.42749.17401.77856.30078.39026.14282.69708.26855.91937.37823.22229.11066.42249.27356.6015.49084.17804.21729.26758.49792.26758.84497,0,.51599-.18909.9234-.56836,1.22314-.37921.29974-.89319.44965-1.54102.44965-.43958,0-.82379-.07043-1.15375-.21021-.32996-.14087-.58344-.341-.76245-.60156-.17804-.26154-.26758-.56531-.26758-.91132v-.18109ZM110.11407,21.71118c0-.40637.09058-.76648.27161-1.07935.18207-.31281.43555-.55621.76245-.72925.32697-.17303.70514-.25952,1.13367-.25952.43353,0,.81378.08649,1.14069.25952s.58142.41644.76245.72925c.18109.31287.27161.67297.27161,1.07935v1.76337c0,.41241-.09052.77753-.27161,1.09637-.18103.31891-.43555.56433-.76245.73737-.3269.17297-.70715.25952-1.14069.25952-.42853,0-.8067-.08752-1.13367-.26355-.3269-.17603-.58038-.42151-.76245-.73737-.18103-.3158-.27161-.67993-.27161-1.09235v-1.76337ZM113.76508,88.00275c0,5.20752-4.23657,9.44409-9.44434,9.44409s-9.44415-4.23657-9.44415-9.44409,4.23663-9.44415,9.44415-9.44415,9.44434,4.23663,9.44434,9.44415ZM104.33826,19.80804c0-.02716.00903-.05133.02814-.07043.01917-.0191.04327-.02814.07043-.02814h.96362c.05035,0,.08856.02112.11572.06537l1.23621,1.92023c.01611.0332.0332.0332.04932,0l1.24426-1.92023c.02716-.04425.06641-.06537.11572-.06537h.96362c.0282,0,.05133.00903.07043.02814s.02917.04327.02917.07043v5.57062c0,.02716-.01007.05029-.02917.0694-.0191.02014-.04224.02917-.07043.02917h-.96362c-.0282,0-.05133-.00903-.07043-.02917-.0191-.0191-.02917-.04224-.02917-.0694v-3.63428c0-.02216-.005-.0332-.01611-.0332-.01105,0-.02209.00806-.03314.02515l-.87317,1.36804c-.02716.04321-.06635.06537-.11566.06537h-.48584c-.04932,0-.08752-.02216-.11566-.06537l-.87311-1.36804c-.01111-.01709-.02216-.02313-.0332-.02112-.01111.00299-.01611.01508-.01611.03723v3.62622c0,.02716-.01007.05029-.02917.0694-.0191.02014-.04224.02917-.07043.02917h-.96362c-.02716,0-.05127-.00903-.07043-.02917-.0191-.0191-.02814-.04224-.02814-.0694v-5.57062ZM110.755,40.30219c0,3.54883-2.88721,6.43597-6.43604,6.43597s-6.43604-2.88715-6.43604-6.43597,2.88721-6.43604,6.43604-6.43604,6.43604,2.88715,6.43604,6.43604ZM99.22931,23.63947c0-.02716.00909-.05029.02917-.0694.0191-.02008.04224-.02917.0694-.02917h.93951c.02716,0,.05133.00909.07043.02917.0191.0191.02814.04224.02814.0694v.12372c0,.22034.10162.4054.30579.55627.20221.15088.47784.22632.82385.22632.29071,0,.508-.06134.65082-.18506s.21423-.27563.21423-.4577c0-.13177-.04425-.24243-.13177-.33295-.0885-.09155-.20721-.17102-.35907-.23938-.15088-.06842-.3913-.16296-.72021-.28467-.36816-.12573-.67999-.25549-.93549-.38727s-.46979-.31183-.64276-.53918c-.17303-.22833-.25952-.50995-.25952-.84497,0-.3299.08447-.61761.25549-.86505.16998-.24744.40637-.43652.70813-.5683.3028-.13177.65082-.19818,1.04712-.19818.41748,0,.78967.07446,1.11658.22229.3269.14886.5824.35608.76648.62268.18304.26654.27563.57538.27563.92639v.12372c0,.0282-.01007.05133-.02917.07043-.01917.0191-.0423.02917-.06946.02917h-.94751c-.0282,0-.05133-.01007-.07043-.02917s-.02917-.04224-.02917-.07043v-.06537c0-.23132-.09454-.42749-.28363-.58942-.19012-.16199-.44965-.24347-.77856-.24347-.25854,0-.46069.05536-.60657.16498-.14484.10962-.21826.26154-.21826.45367,0,.13678.04321.25244.12775.34601.08551.09357.21124.17706.37921.25146.16797.07343.42749.17401.77856.30078.39026.14282.69708.26855.91937.37823.22229.11066.42249.27356.6015.49084.17804.21729.26758.49792.26758.84497,0,.51599-.18909.9234-.5683,1.22314s-.89325.44965-1.54102.44965c-.43964,0-.82385-.07043-1.15381-.21021-.3299-.14087-.58337-.341-.76245-.60156-.17804-.26154-.26758-.56531-.26758-.91132v-.18109ZM94.20288,21.71118c0-.40637.09052-.76648.27161-1.07935.18201-.31281.43555-.55621.76245-.72925s.70514-.25952,1.13361-.25952c.43359,0,.81378.08649,1.14069.25952.32697.17303.58142.41644.76251.72925.18103.31287.27155.67297.27155,1.07935v1.76337c0,.41241-.09052.77753-.27155,1.09637-.18109.31891-.43555.56433-.76251.73737-.3269.17297-.70709.25952-1.14069.25952-.42847,0-.8067-.08752-1.13361-.26355s-.58044-.42151-.76245-.73737c-.18109-.3158-.27161-.67993-.27161-1.09235v-1.76337ZM104.31348,100.02881c5.89404,0,10.68896,4.79492,10.68896,10.68896s-4.79492,10.68896-10.68896,10.68896-10.68896-4.79492-10.68896-10.68896,4.79492-10.68896,10.68896-10.68896ZM89.1925,21.63776c0-.3963.08752-.74438.26355-1.04712.17603-.30176.42548-.53516.75037-.70013.32391-.16498.70013-.24744,1.12866-.24744.42242,0,.79462.07843,1.11652.23535.32086.15594.57135.37823.74939.66693.17908.2887.26855.62268.26855,1.00085,0,.05029-.03314.08051-.09955.09155l-.96368.05731h-.01605c-.05536,0-.08252-.03015-.08252-.09052,0-.29169-.08948-.52509-.26855-.70111-.17804-.17499-.41339-.26355-.7041-.26355-.29675,0-.53418.08856-.7132.26355-.17804.17603-.26758.40942-.26758.70111v1.98566c0,.28564.08954.51599.26758.69202.17902.17609.41644.26355.7132.26355.29071,0,.52606-.08746.7041-.26355.17908-.17603.26855-.40637.26855-.69202,0-.06036.03223-.09052.09857-.09052l.96368.0412c.02814,0,.05127.00806.07037.02417.01917.01709.02917.03619.02917.05835,0,.37921-.08948.71417-.26855,1.00488-.17804.29169-.42853.51703-.74939.67596-.3219.15894-.69409.23938-1.11652.23938-.42853,0-.80475-.08447-1.12866-.25146-.32489-.16797-.57434-.40234-.75037-.70514-.17603-.30176-.26355-.65082-.26355-1.04614v-1.90314ZM61.75281,48.9729c9.34229,6.3725,19.73132,10.48071,30.87933,12.20959l-.15991,1.03101c-11.30243-1.75281-21.83612-5.91809-31.30725-12.37872l.58783-.86188ZM49.89014,104.3692c-1.8924-6.67712-5.46527-12.85553-10.33301-17.86688l.74878-.72638c4.98694,5.13464,8.64844,11.46588,10.58771,18.30902l-1.00348.28424ZM50.87885,127.74774c-1.93823,6.80444-5.58191,13.10406-10.53625,18.21735l-.74878-.72638c4.83459-4.98999,8.3902-11.13733,10.28156-17.77728l1.00348.28632ZM32.73254,24.68964c1.53735-2.61218,4.94263-3.5072,7.60571-1.99908,2.66284,1.50818,3.57544,4.84833,2.03784,7.46051-1.53735,2.61224-4.94263,3.50714-7.60571,1.99902s-3.57544-4.84833-2.03784-7.46045ZM29.92047,109.45972c3.54883,0,6.43604,2.88721,6.43604,6.43604s-2.88721,6.43597-6.43604,6.43597-6.43604-2.88715-6.43604-6.43597,2.88721-6.43604,6.43604-6.43604ZM6.15936,70.29718c1.5376-2.61218,4.94263-3.5072,7.60571-1.99908,2.66315,1.50818,3.57544,4.84833,2.03809,7.46051-1.5376,2.61224-4.94263,3.5072-7.60571,1.99902-2.66309-1.50812-3.57544-4.84833-2.03809-7.46045ZM6.15936,156.13226c1.53735-2.61218,4.94263-3.5072,7.60571-1.99908,2.66284,1.50818,3.57544,4.84833,2.03784,7.46051-1.5376,2.61224-4.94263,3.5072-7.60571,1.99902-2.66284-1.50812-3.57544-4.84833-2.03784-7.46045ZM15.80676,309.40387c-1.5376,2.61218-4.94263,3.50714-7.60577,1.99896-2.66309-1.50812-3.57538-4.84827-2.03802-7.46039,1.5376-2.61224,4.94287-3.5072,7.60571-1.99902,2.66309,1.50812,3.57538,4.84833,2.03809,7.46045ZM8.20074,216.10834c2.66315-1.50818,6.06812-.61322,7.60571,1.99902,1.5376,2.61218.62531,5.95227-2.03778,7.46039-2.66309,1.50818-6.06842.61322-7.60571-1.99896-1.5376-2.61212-.62506-5.95233,2.03778-7.46045ZM23.4903,263.8269c0-3.54883,2.88721-6.43604,6.43604-6.43604s6.43604,2.88721,6.43604,6.43604-2.88721,6.43597-6.43604,6.43597-6.43604-2.88715-6.43604-6.43597ZM42.41382,355.00739c-1.5376,2.61224-4.94263,3.50726-7.60577,1.99908-2.66309-1.50812-3.57538-4.84833-2.03809-7.46051,1.53766-2.61218,4.94293-3.50714,7.60577-1.99902,2.66309,1.50818,3.57538,4.84833,2.03809,7.46045ZM40.30591,294.01721l-.74878-.72638c4.86725-5.01038,8.44012-11.18878,10.33301-17.86646l1.00348.28424c-1.93976,6.84369-5.60077,13.17493-10.58771,18.30859ZM39.59381,234.55493l.74878-.72644c4.95435,5.11328,8.59802,11.41296,10.53625,18.21741l-1.00348.28625c-1.89136-6.63989-5.44696-12.78723-10.28156-17.77722ZM52.18188,205.15588c-8.26465,0-15.00311-6.58752-15.28125-14.78558h-2.9104c-.27789,7.97852-6.83832,14.38788-14.88391,14.38788-8.22156,0-14.9104-6.68829-14.9104-14.90936,0-8.22162,6.68884-14.9104,14.9104-14.9104,8.04535,0,14.60577,6.40979,14.88391,14.38861h2.9104c.27814-8.19806,7.0166-14.78607,15.28125-14.78607.73834,0,1.45886.07056,2.16974.17212,2.08368-5.57123,5.23859-10.58185,9.39856-14.88947l.75079.72437c-4.01294,4.15533-7.06445,8.98065-9.09772,14.3407,6.89795,1.48438,12.08636,7.62494,12.08636,14.96002,0,7.33459-5.18768,13.47437-12.08508,14.95917,2.03223,5.35669,5.08221,10.1803,9.0929,14.33441l-.75085.7243c-4.15814-4.30682-7.31152-9.31512-9.39368-14.88293-.71112.10168-1.43213.17224-2.17102.17224ZM61.16498,329.95831c9.47162-6.46008,20.00482-10.62488,31.30725-12.37817l.15991,1.03101c-11.14752,1.72888-21.53705,5.83661-30.87933,12.20911l-.58783-.86194ZM85.22961,356.11371c-.06116.55115-.33929.94952-.83441,1.19403-.03363.0163-.03668.03363-.00916.04993.41772.22821.62653.59595.62653,1.10132,0,.0509-.0061.13647-.01727.25873-.06622.53998-.29547.94751-.68872,1.22253-.39221.27612-.87415.41364-1.44769.41364h-2.10278c-.0285,0-.04993-.00916-.0672-.02954-.0163-.01935-.02246-.04279-.0163-.07031l.69275-5.64197c.00507-.02753.01733-.052.03772-.07135.01935-.01935.04279-.0285.07025-.0285h2.03656c1.15735,0,1.73602.43604,1.73602,1.31012,0,.12738-.00513.22516-.0163.29138ZM89.61853,360.25403c-.00513.02753-.01733.05096-.03772.07031-.01935.02039-.04279.02954-.07031.02954h-3.73889c-.02856,0-.04993-.00916-.06726-.02954-.0163-.01935-.0224-.04279-.0163-.07031l.69275-5.64197c.00513-.02753.01733-.052.03772-.07135.01935-.01935.04279-.0285.07031-.0285h.95154c.02747,0,.04993.00916.0672.0285.0163.01935.02142.04382.0163.07135l-.57556,4.69043c0,.02753.01117.04181.03357.04181h2.64478c.06213,0,.09271.03357.09271.09979l-.10083.80994ZM95.177,360.26221c0,.02753-.00818.04993-.02448.06622-.01733.01733-.0387.02545-.0672.02545h-1.0351c-.04993,0-.08051-.02747-.09167-.08356l-.14166-.81805c0-.00507-.00305-.01221-.00812-.02039-.0061-.00812-.01428-.01324-.02545-.01324h-1.99481c-.0163,0-.03058.01221-.04175.03363l-.34131.81805c-.01733.05609-.05298.08356-.10901.08356h-1.0351c-.03363,0-.05707-.01117-.07031-.03363-.01422-.0224-.01324-.04993.00409-.0835l2.44507-5.64105c.02753-.05603.06726-.0835.11719-.0835h1.26837c.04993,0,.08356.02747.09985.0835l1.05139,5.64105v.02545ZM100.28516,356.3725c-.01117.05603-.04785.08661-.10901.09271l-.9505.05804h-.01733c-.05603,0-.07745-.03058-.06622-.09167.00513-.03363.00818-.08051.00818-.14264,0-.25568-.07642-.45844-.22925-.60925-.15381-.14972-.36066-.2251-.6225-.2251-.28931,0-.53278.09064-.73047.27197-.19763.18036-.31274.41571-.34637.70502l-.24957,2.01105c-.0061.03363-.00922.08051-.00922.14166,0,.25061.07544.45129.2262.60107.14978.15076.35864.22516.62555.22516.28931,0,.5318-.08868.72638-.26697s.31177-.41156.35046-.70093c.01123-.0611.04688-.09167.10797-.09167l.94342.04181c.02747,0,.04993.00708.0672.02032.01636.01428.02142.03571.01636.06317-.04486.38409-.17218.72333-.38409,1.01776-.21191.29547-.48499.52368-.82214.68463-.33624.16095-.7132.24249-1.13086.24249-.57867,0-1.0351-.15588-1.36823-.46765-.33417-.31171-.50128-.72943-.50128-1.25208,0-.13342.0061-.23633.01733-.30865l.23334-1.92755c.04987-.40143.1803-.75391.39221-1.06055.21088-.30566.48694-.54199.82623-.70911.33923-.16705.71722-.25061,1.13489-.25061.57867,0,1.03613.15076,1.37335.45032.33618.30054.50427.7019.50427,1.20215,0,.06116-.00507.15283-.0163.27509ZM105.65112,354.63647l-2.09467,2.37885c-.0224.02246-.0285.04181-.01727.05908l1.51898,3.16235c.0061.01117.00916.0285.00916.04993,0,.0448-.0285.0672-.0835.0672h-1.06873c-.05603,0-.09167-.0224-.10797-.0672l-1.1441-2.40332c-.00513-.01123-.01324-.0163-.02448-.0163-.01117,0-.0224.00507-.03363.0163l-.5929.65912-.02448.04993-.20068,1.66162c-.00513.02753-.01837.05096-.03772.07031-.01935.02039-.04279.02954-.07025.02954h-.9516c-.0285,0-.04987-.00916-.0672-.02954-.0163-.01935-.0224-.04279-.0163-.07031l.69275-5.64197c.00513-.02753.01733-.052.03772-.07135.01935-.01935.04279-.0285.07025-.0285h.9516c.02747,0,.04987.00916.0672.0285.0163.01935.02142.04382.0163.07135l-.2832,2.33704c-.0061.0163-.00305.02649.00812.02856.01123.00305.02246-.00104.03363-.01227l2.16901-2.39514c.03363-.0387.07538-.05804.12531-.05804h1.06873c.05499,0,.0835.01935.0835.05804,0,.0224-.01117.04486-.03357.06622ZM111.72711,360.25403c-.00507.02753-.01831.05096-.03766.07031-.01941.02039-.04279.02954-.07031.02954h-.91895c-.04993,0-.08252-.0224-.09985-.0672l-1.66058-3.5719c-.00616-.0163-.01428-.02344-.02551-.02039-.01117.00311-.01935.01532-.02441.03772l-.41772,3.52191c-.00507.02753-.01831.05096-.03772.07031-.01935.02039-.04279.02954-.07025.02954h-.95154c-.02856,0-.04993-.00916-.06726-.02954-.0163-.01935-.0224-.04279-.0163-.07031l.69275-5.64197c.00513-.02753.01733-.052.03772-.07135.01935-.01935.04279-.0285.07031-.0285h.91791c.0509,0,.08661.02136.10901.06622l1.65247,3.55554c.00507.0163.01428.02344.02545.02039.01019-.00208.01935-.01532.02448-.03668l.41766-3.50562c.00513-.02753.01733-.052.03772-.07135.01935-.01935.04279-.0285.07031-.0285h.95154c.02753,0,.04993.00916.0672.0285.01636.01935.02142.04382.01636.07135l-.69281,5.64197ZM117.32739,356.53955l-.21704,1.78595c-.04993.41772-.18335.7865-.40039,1.10638-.21698.31989-.49817.56848-.84351.74677-.34436.17828-.72845.26691-1.15125.26691-.57867,0-1.03918-.16296-1.38147-.48798-.34229-.32599-.51349-.76105-.51349-1.30609,0-.09985.00818-.20886.02551-.32599l.21698-1.78595c.04993-.41156.18341-.77631.40039-1.09314s.49615-.56335.83844-.73859c.34235-.17523.7254-.26288,1.14819-.26288.58374,0,1.0473.16199,1.38959.48395.34131.32294.51245.75079.51245,1.28571,0,.10596-.00812.21393-.02441.32495ZM118.8963,360.25403c-.00513.02753-.01831.05096-.03772.07031-.01935.02039-.04279.02954-.07025.02954h-.95154c-.02856,0-.04993-.00916-.06726-.02954-.0163-.01935-.0224-.04279-.0163-.07031l.69275-5.64197c.00513-.02753.01733-.052.03772-.07135.01935-.01935.04279-.0285.07031-.0285h.95154c.02747,0,.04993.00916.0672.0285.0163.01935.02142.04382.0163.07135l-.69275,5.64197ZM124.35492,356.23901l-.01727.12531c-.00513.02856-.01733.052-.03668.07135-.02039.01935-.04382.02954-.07135.02954h-.93524c-.02747,0-.04993-.01019-.06622-.02954-.01733-.01935-.0224-.04279-.01733-.07135l.00922-.06622c.02747-.23431-.04077-.43298-.20477-.59698-.16406-.164-.41058-.24652-.73865-.24652-.27301,0-.49005.06311-.651.18848-.16095.12427-.24249.29541-.24249.51245,0,.12323.03973.22614.11719.30969.07843.08252.19354.16095.34637.23328s.38513.17017.69684.29242c.3454.13855.61334.25671.80591.35449.19153.0968.36572.24353.52161.43811.15485.19458.23328.43909.23328.73456,0,.0387-.00507.10797-.0163.2088-.06726.52264-.30463.93524-.71417,1.23889-.40851.30359-.93011.45538-1.56482.45538-.6062,0-1.08301-.13654-1.4314-.40955-.34741-.27203-.52161-.64288-.52161-1.1095,0-.0509.0061-.12531.01727-.22614l.02448-.18341c.0061-.02747.01831-.0509.03772-.07025.01935-.02039.04279-.02954.07129-.02954h.92609c.02747,0,.04993.00916.0672.02954.0163.01935.02142.04279.0163.07025l-.0163.12531c-.0285.22314.04791.41058.22925.56342.1803.15283.44116.22925.7804.22925.31177,0,.54608-.06927.70502-.20782.15894-.13959.23834-.30975.23834-.5094,0-.12225-.04071-.22516-.12122-.30872-.08044-.08356-.18951-.1579-.32599-.22107-.13654-.06421-.3515-.15485-.64691-.27203-.32196-.12225-.59497-.24243-.81708-.36267-.22314-.1192-.40955-.27917-.55933-.47986-.15076-.20068-.22516-.44824-.22516-.74268,0-.0387.00513-.10901.0163-.20886.06116-.50635.29242-.90771.69281-1.20624.40033-.29749.89551-.44623,1.48535-.44623.37799,0,.71313.06519,1.00555.19666.29236.13037.51752.31378.67645.55011.1579.23639.23737.51349.23737.83032,0,.0448-.00507.11713-.0163.21698ZM129.22778,355.42194c-.00513.02753-.01837.05096-.03772.07031s-.04279.02954-.07025.02954h-2.66315c-.01117,0-.02032.00409-.0285.01227-.00818.00812-.01324.01831-.01324.02954l-.1579,1.29382c0,.02753.01117.04175.03363.04175h1.74414c.02753,0,.04993.00922.06622.02856.01733.01935.0224.04382.01733.07129l-.10089.80896c-.00507.0285-.01831.05194-.03766.07129-.01941.01935-.04285.02954-.07031.02954h-1.74414c-.02856,0-.04181.01324-.04181.04175l-.16705,1.35193c0,.02753.01117.04181.03363.04181h2.65393c.0611,0,.09167.03357.09167.09979l-.10089.80994c-.00507.02753-.01727.05096-.03668.07031-.02032.02039-.04376.02954-.07129.02954h-3.74707c-.02856,0-.04993-.00916-.06726-.02954-.0163-.01935-.0224-.04279-.0163-.07031l.69275-5.64197c.00513-.02753.01733-.052.03772-.07135.01935-.01935.04279-.0285.07031-.0285h3.73889c.02856,0,.052.00916.07135.0285s.02649.04382.02039.07135l-.09985.80988ZM146.92871,330.85181c-9.34326-6.38367-19.7359-10.50061-30.88849-12.2356l.15997-1.03101c11.30798,1.75946,21.84424,5.93237,31.31738,12.40472l-.58887.86188ZM158.55554,275.42438c1.89294,6.67767,5.46582,12.85608,10.33301,17.86646l-.74878.72638c-4.98694-5.13367-8.64795-11.4649-10.58771-18.30859l1.00348-.28424ZM157.56683,252.0459c1.93823-6.80444,5.58191-13.10413,10.53625-18.21741l.74878.72644c-4.83459,4.98999-8.39014,11.13733-10.28156,17.77722l-1.00348-.28625ZM173.82892,357.03674c-2.66284,1.50812-6.06812.61316-7.60571-1.99902-1.53735-2.61218-.62506-5.95239,2.03802-7.46051,2.66284-1.50812,6.06818-.61316,7.60577,1.99908,1.53729,2.61212.625,5.95227-2.03809,7.46045ZM178.71533,270.26288c-3.54883,0-6.43597-2.88721-6.43597-6.43604s2.88715-6.43597,6.43597-6.43597,6.43604,2.88715,6.43604,6.43597-2.88721,6.43604-6.43604,6.43604ZM200.43622,311.44855c-2.66309,1.50812-6.06842.61316-7.60571-1.99902-1.5376-2.61218-.62531-5.95227,2.03778-7.46045,2.66309-1.50812,6.06812-.61316,7.60571,1.99902,1.5376,2.61212.62506,5.95233-2.03778,7.46045ZM202.4743,223.61444c-1.5376,2.61218-4.94293,3.50714-7.60577,1.99908-2.66309-1.50812-3.57538-4.84833-2.03802-7.46051,1.5376-2.61218,4.94263-3.50714,7.60571-1.99902,2.66309,1.50818,3.57538,4.84833,2.03809,7.46045ZM189.59509,204.63452c-7.97656,0-14.48151-6.35431-14.75964-14.26422h-3.09888c-.27814,8.19806-7.0166,14.78558-15.28125,14.78558-.77454,0-1.52966-.07635-2.27338-.18793-2.0824,5.57404-5.2381,10.58771-9.39984,14.89862l-.75079-.7243c4.01654-4.16071,7.07031-8.99286,9.10278-14.35986-6.84723-1.5224-11.98645-7.63464-11.98645-14.93372,0-7.2995,5.13947-13.41229,11.98724-14.93451-2.03302-5.37036-5.08832-10.20416-9.10767-14.36621l.75085-.72437c4.16376,4.31177,7.32123,9.32751,9.4046,14.90515.74371-.11139,1.49841-.18781,2.27264-.18781,8.26465,0,15.00311,6.58801,15.28125,14.78607h3.09888c.27789-7.9101,6.78308-14.26453,14.75964-14.26453,8.15253,0,14.78583,6.63342,14.78583,14.78607s-6.6333,14.78595-14.78583,14.78595Z" fill="url(#uuid-5b960465-3c85-46ca-b145-1c94d4c06f89)"/>
    <path d="M115.3772,355.45459c-.29547,0-.54608.09882-.75189.29645s-.32806.4574-.36676.7804l-.22516,1.83582c-.0061.03973-.00812.09784-.00812.17523,0,.27307.07739.49005.23328.651.15588.16199.36676.24249.6347.24249.30054,0,.55219-.09778.75494-.29242.2027-.19458.32703-.45331.37183-.77631l.22516-1.83582c.00513-.03876.00818-.0968.00818-.17523,0-.27814-.07849-.49817-.23334-.65918-.15588-.16095-.37085-.24243-.64282-.24243Z" fill="#181818"/>
    <path d="M112.33453,24.57092c.30176,0,.5462-.09656.73328-.2887.1861-.19208.27966-.44757.27966-.76648v-1.81262c0-.31885-.09155-.57538-.27563-.77051s-.43048-.29272-.7373-.29272c-.3028,0-.5462.0976-.72925.29272-.18512.19513-.27661.45166-.27661.77051v1.81262c0,.31891.09149.5744.27661.76648.18304.19214.42645.2887.72925.2887Z" fill="#29292a"/>
    <path d="M93.25226,355.95172c-.01117.00305-.01935.01221-.02545.02856l-1.01776,2.4787c-.0061.03357.00305.0509.02441.0509h1.42737c.0285,0,.04175-.01733.04175-.0509l-.42584-2.4787c-.00513-.02142-.01324-.03162-.02448-.02856Z" fill="#181818"/>
    <path d="M96.42328,24.57092c.30182,0,.5462-.09656.73334-.2887.1861-.19208.2796-.44757.2796-.76648v-1.81262c0-.31885-.09149-.57538-.27557-.77051s-.43054-.29272-.73737-.29272c-.30273,0-.5462.0976-.72925.29272-.18506.19513-.27661.45166-.27661.77051v1.81262c0,.31891.09155.5744.27661.76648.18304.19214.42651.2887.72925.2887Z" fill="#29292a"/>
    <path d="M83.20404,357.86707h-1.00146c-.02856,0-.04181.01324-.04181.04175l-.17523,1.38556c0,.02747.01123.04175.03363.04175h1.01776c.27301,0,.48798-.07642.64691-.23022.15894-.15283.23743-.36267.23743-.62964,0-.19458-.06219-.34534-.1875-.45129-.12531-.10492-.30157-.1579-.52972-.1579Z" fill="#181818"/>
    <path d="M83.43732,355.52179h-.95154c-.01123,0-.02039.00409-.02856.01227-.00812.00812-.01324.01831-.01324.02954l-.1579,1.302c-.01117.02747,0,.04175.03363.04175h.9505c.25067,0,.45337-.06012.60925-.17932.15588-.12018.24756-.28827.27612-.50531l.00812-.09985c0-.18945-.06213-.33722-.18744-.44318-.12531-.10492-.30463-.1579-.53894-.1579Z" fill="#181818"/>
    <polygon points="195.96143 70.85248 199.36829 70.85248 199.36829 74.93243 201.36127 74.93243 201.36127 74.21271 200.09796 74.21271 200.09796 70.13281 195.23175 70.13281 195.23175 74.21271 193.96844 74.21271 193.96844 74.93243 195.96143 74.93243 195.96143 70.85248" fill="#262627"/>
    <path d="M112.63495,217.58331c0-4.64001-3.76135-8.40088-8.40112-8.40088s-8.40094,3.76086-8.40094,8.40088c0,4.63953,3.76111,8.40088,8.40094,8.40088s8.40112-3.76135,8.40112-8.40088Z" fill="#1f1f1f"/>
    <path d="M156.45532,175.58417c-7.86548,0-14.26447,6.39899-14.26447,14.26453,0,7.86499,6.39899,14.26398,14.26447,14.26398s14.26453-6.39899,14.26453-14.26398c0-7.86554-6.39899-14.26453-14.26453-14.26453Z" fill="#212121"/>
    <path d="M104.31348,258.83398c-5.56299,0-10.08936,4.52637-10.08936,10.08936s4.52637,10.08936,10.08936,10.08936,10.08936-4.52637,10.08936-10.08936-4.52637-10.08936-10.08936-10.08936Z" fill="#1d1d1d"/>
    <path d="M113.52356,175.80298c0,4.63953,3.76111,8.40088,8.40088,8.40088s8.40118-3.76135,8.40118-8.40088-3.76135-8.40112-8.40118-8.40112-8.40088,3.7616-8.40088,8.40112Z" fill="#212122"/>
    <path d="M19.10632,175.98163c-7.64648,0-13.86719,6.2207-13.86719,13.86719,0,7.64594,6.2207,13.86615,13.86719,13.86615s13.86719-6.22021,13.86719-13.86615c0-7.64648-6.2207-13.86719-13.86719-13.86719ZM21.05878,176.91504c2.16718.32715,4.15515,1.18457,5.83344,2.44177h-5.83344v-2.44177ZM17.15326,176.91504v2.44177h-5.83344c1.67828-1.2572,3.66626-2.11462,5.83344-2.44177ZM6.61755,186.12659h10.53571v2.6037H6.14374c.07092-.89691.23029-1.76733.47382-2.6037ZM9.11505,198.10333c-.66138-.79193-1.22003-1.66864-1.68011-2.6037h9.71832v2.6037h-8.03821ZM19.10602,202.78223c-2.92383,0-5.61316-.9754-7.78601-2.60327h15.57208c-2.17291,1.62787-4.86218,2.60327-7.78607,2.60327ZM29.09698,198.10333h-8.03821v-2.6037h9.71832c-.46008.93506-1.01874,1.81177-1.68011,2.6037ZM31.59253,193.41681H6.61957c-.24408-.8363-.40393-1.70679-.47546-2.6037h25.92383c-.07147.89691-.23138,1.7674-.4754,2.6037ZM32.06836,188.73029h-11.00958v-2.6037h10.53577c.24353.83636.40283,1.70679.47382,2.6037ZM30.78076,184.04333H7.43127c.45923-.93463,1.01648-1.81134,1.67688-2.60327h19.99579c.66034.79193,1.21759,1.66864,1.67682,2.60327Z" fill="#212121"/>
    <path d="M66.44635,189.84869c0-7.86554-6.39893-14.26453-14.26447-14.26453s-14.26447,6.39899-14.26447,14.26453c0,7.86499,6.39893,14.26398,14.26447,14.26398s14.26447-6.39899,14.26447-14.26398Z" fill="#212121"/>
    <g>
      <path d="M112.52783,185.29883c-.83368-1.43109-2.164-2.401-3.6507-2.82922-1.11731-1.06177-2.62897-1.71863-4.2951-1.71863s-3.17804.65692-4.29547,1.71875c-1.48669.42828-2.81696,1.39813-3.65033,2.8291-.80841,1.38727-1.03448,2.99811-.65063,4.54956-.38385,1.55188-.15778,3.16278.65063,4.55005.83215,1.42871,2.16052,2.39398,3.6441,2.82324,1.11798,1.06512,2.63245,1.72412,4.3017,1.72412s3.18365-.659,4.30151-1.72418c1.48364-.42932,2.81207-1.39478,3.64429-2.82318.80786-1.38757,1.0343-2.99829.65027-4.55005.38403-1.55133.15759-3.16199-.65027-4.54956ZM110.78998,192.60791c-.02808-.99579-.28931-1.93475-.74078-2.75928.45154-.82465.71277-1.76385.74078-2.75977.85211.71851,1.46783,1.66833,1.76886,2.75952-.30109,1.09119-.91675,2.04102-1.76886,2.75952ZM105.26678,196.55548c.84045-.51147,1.51733-1.2052,2.02173-2.01807.95709-.02039,1.91895-.26221,2.81281-.74255-.20892,1.11829-.75317,2.12097-1.52972,2.89819-1.06964.27856-2.2207.24377-3.30481-.13757ZM100.59161,196.69263c-.77637-.77716-1.32056-1.77966-1.52936-2.89771.89392.48065,1.85626.72211,2.81342.74249.50439.81287,1.18134,1.50653,2.02148,2.01794-1.08441.38129-2.23572.41595-3.30554.13727ZM96.60492,189.84839c.30115-1.09137.91675-2.04089,1.76868-2.75934.02808.99591.28931,1.935.74091,2.75958-.45154.82446-.71277,1.76337-.74091,2.75909-.85193-.71844-1.46753-1.66797-1.76868-2.75934ZM102.0293,182.81787c.62476,0,1.25269.11456,1.86139.32812-.83496.5097-1.50842,1.19928-2.01117,2.00732-.95795.01984-1.92169.26465-2.81671.74536.20959-1.11798.75433-2.12018,1.53107-2.89691.46692-.12152.94958-.1839,1.43542-.1839ZM108.5697,183.00171c.77673.77679,1.32147,1.77893,1.53107,2.89697-.89465-.48053-1.85815-.72528-2.81598-.74506-.50275-.80823-1.17657-1.49799-2.0116-2.00775.60876-.21356,1.23676-.328,1.86157-.328.48566,0,.96814.06244,1.43494.18384ZM110.19922,186.91602c0,.83545-.19208,1.62555-.52643,2.33734-.40302-.57019-.90137-1.06787-1.47113-1.47443-.03314-.3277-.086-.65515-.17285-.97961-.09509-.35492-.23053-.69128-.38312-1.01758.78998.06909,1.57739.29584,2.30792.71387.08374.04791.15192.11334.23254.16498.00391.08527.01306.16919.01306.25543ZM106.95959,193.93634c-.5766-.01971-1.14551-.12457-1.68719-.3139.3714-.22577.72351-.48633,1.04407-.79034.4187-.12097.82031-.28137,1.19763-.48236-.02521.13074-.03009.26257-.06488.39246-.1134.42322-.28674.81744-.48962,1.19415ZM101.71484,192.74268c-.03485-.13007-.03973-.26202-.06494-.39294.37701.20087.77832.36127,1.19659.48212.32062.30414.67279.5647,1.04425.79053-.5415.18921-1.11017.29407-1.68652.31378-.20276-.37653-.37604-.77057-.48938-1.19348ZM102.20294,185.76282c.57098.01947,1.13263.12616,1.66962.31213-.36639.22412-.70923.49005-1.02594.79047-.41833.12091-.81964.28125-1.19672.48212.02521-.13092.03009-.26288.06494-.39294.11316-.42224.28589-.8158.4881-1.19177ZM107.44922,186.95459c.03485.13007.03973.26208.06494.39301-.37714-.20099-.77856-.36133-1.19696-.48224-.31665-.30042-.65936-.56641-1.0257-.79053.53699-.18597,1.09869-.29254,1.66956-.31201.20227.37598.375.76953.48816,1.19177ZM106.00745,192.29291c-.45612.1189-.93219.18854-1.42542.18854-.49347,0-.96973-.0697-1.42609-.18866-.33179-.33191-.63062-.70551-.87714-1.12872-.24323-.41779-.40631-.86243-.53235-1.31555.12604-.45312.28912-.89771.53235-1.31531.24591-.42206.54266-.79645.87335-1.12775.45746-.11957.935-.18964,1.42987-.18964.49475,0,.97229.07007,1.42969.18964.33063.3313.62726.70569.87305,1.12775.24341.41766.40662.8623.53271,1.31543-.1261.45312-.28931.89777-.53271,1.31543-.24652.42328-.54541.79694-.87732,1.12885ZM107.40332,188.23145c-.08038-.13806-.1698-.26752-.25909-.39697.16528.08441.32574.17615.48108.27582.00885.17242-.01007.34326-.01752.51495-.06506-.13239-.12946-.26501-.20447-.3938ZM105.04407,186.6394c-.15314-.01123-.30609-.02319-.46204-.02319-.15601,0-.30902.01196-.46216.02319.15057-.09528.30383-.18408.4621-.26434.15826.08026.31152.16907.4621.26434ZM102.01935,187.83453c-.08929.12946-.17871.25891-.25909.39691-.07489.12854-.1391.26105-.20404.39325-.00745-.17157-.02637-.34222-.01752-.51459.15515-.09961.31549-.19128.48065-.27557ZM101.10541,189.84857c-.10474.42169-.16492.85211-.17712,1.28619-.43384-.36926-.80798-.80322-1.11182-1.28613.30383-.48291.67798-.91687,1.11182-1.28613.01227.43402.07239.86438.17712,1.28607ZM101.55621,191.07257c.06494.1322.12915.26471.20404.39325.08301.14258.18109.27039.27362.40381-.17017-.0863-.33557-.17999-.49518-.28247-.00885-.17236.01013-.34302.01752-.51459ZM104.10614,193.05719c.15759.0119.31525.02386.47589.02386.1604,0,.31781-.01196.47522-.02386-.15454.09808-.31305.18854-.47565.27081-.1626-.08234-.32098-.17267-.47546-.27081ZM107.12952,191.86981c.09259-.13342.19073-.26141.2738-.40399.07501-.12878.1394-.26147.20447-.39386.00745.17169.02643.34253.01758.51501-.15985.1026-.32544.19641-.49585.28284ZM108.05841,189.84863c.10474-.42163.16486-.85199.17712-1.28601.43365.3692.80774.80316,1.11157,1.28601-.30383.48285-.67792.91681-1.11157,1.28601-.01227-.43396-.07239-.86432-.17712-1.28601ZM104.82959,183.56299c.7157.40985,1.30499.96759,1.76746,1.61737-.69659.06213-1.37744.24109-2.01477.52631-.63745-.28546-1.31842-.46448-2.0152-.52661.4624-.6496,1.05157-1.20728,1.7674-1.61707.08081-.04626.16534-.07886.24744-.12067.08215.04181.16681.0744.24768.12067ZM99.20996,186.49561c.73108-.41852,1.51849-.64502,2.30853-.71393-.15259.32629-.28809.66266-.38324,1.01764-.08691.3244-.13989.65192-.1731.97961-.56989.40662-1.06818.90424-1.47131,1.47449-.33441-.71185-.52649-1.50189-.52649-2.3374,0-.08618.00916-.17017.01306-.25543.08063-.0517.1488-.11707.23254-.16498ZM98.96436,192.78125c0-.83551.19208-1.62555.52649-2.3374.40314.57025.90155,1.06787,1.47137,1.47449.0332.3277.08612.65515.17303.97961.09546.35583.23114.69312.38428,1.02014-.79041-.06879-1.57819-.29895-2.30957-.71692-.08374-.04797-.15192-.11334-.23254-.16504-.00391-.08508-.01306-.16882-.01306-.25488ZM104.33447,196.13379c-.71808-.41107-1.30835-.97113-1.77136-1.62335.69855-.06189,1.37964-.23938,2.01855-.52557.6391.28632,1.32043.46362,2.01923.52557-.46301.65228-1.05328,1.21228-1.7713,1.62335-.08118.04639-.1651.0835-.24762.12543-.08246-.04193-.16632-.07904-.2475-.12543ZM109.95361,193.20117c-.73126.41797-1.5188.64825-2.30902.7171.1532-.32721.28882-.66479.38422-1.02081.08679-.32428.13971-.65155.17285-.97906.56976-.40662,1.06805-.90424,1.47113-1.47449.33435.71179.52643,1.50189.52643,2.33734,0,.08606-.00916.16986-.01306.25494-.08063.05164-.1488.11707-.23254.16498ZM112.00928,185.60059c.54858.94232.79626,1.99927.74048,3.06085-.4455-.9303-1.1311-1.71179-1.98022-2.31879-.09973-1.06641-.47302-2.05475-1.05164-2.89471.92566.47205,1.73346,1.19464,2.29138,2.15265ZM104.58203,181.35059c1.11719,0,2.15668.32861,3.03247.88794-1.01508-.078-2.05725.08899-3.03247.52728-.97534-.43842-2.01764-.60529-3.0329-.52722.87592-.55939,1.91553-.888,3.0329-.888ZM97.15479,185.60059c.5578-.95776,1.36536-1.68036,2.29077-2.1524-.57855.83997-.95178,1.82819-1.05151,2.89447-.849.60699-1.53467,1.38861-1.9801,2.31879-.05579-1.06177.19177-2.11877.74084-3.06085ZM97.15479,194.09668c-.54901-.94202-.79651-1.9989-.74078-3.06067.44531.92993,1.13098,1.7113,1.98004,2.31818.10004,1.07013.47577,2.0614,1.05786,2.9032-.92896-.47162-1.73767-1.2002-2.29712-2.16071ZM104.58203,198.34619c-1.12555,0-2.17261-.33282-3.05243-.89972.16669.01337.33289.03204.50067.03204.86145,0,1.72925-.18829,2.55164-.55829.82245.3703,1.69031.55829,2.55188.55829.16766,0,.33368-.01868.50024-.03204-.87976.56689-1.92664.89972-3.052.89972ZM112.00928,194.09668c-.55975.96082-1.36877,1.68964-2.29797,2.16132.58228-.84198.95819-1.83344,1.05823-2.90387.84906-.60699,1.53491-1.38831,1.98029-2.31854.05591,1.06183-.19159,2.11877-.74054,3.0611Z" fill="#ffe07e"/>
      <path d="M104.58185,189.10944c-.40833,0-.73938.33081-.73938.73895,0,.40869.33105.73944.73938.73944.40826,0,.73926-.33075.73926-.73944,0-.40814-.33099-.73895-.73926-.73895Z" fill="#ffe07e"/>
    </g>
    <g>
      <path d="M104.31348,109.97839c-.40826,0-.73932.33075-.73932.73944,0,.40814.33105.73895.73932.73895.40833,0,.73926-.33081.73926-.73895,0-.40869-.33093-.73944-.73926-.73944Z" fill="#ffe68a"/>
      <path d="M112.25928,106.16797c-.83337-1.43097-2.1637-2.40076-3.65039-2.82898-1.11731-1.06195-2.62909-1.71887-4.29541-1.71887-1.66595,0-3.17749.65668-4.29474,1.71826-1.487.42834-2.8175,1.39856-3.65106,2.82959-.82861,1.42188-1.05029,3.0791-.62549,4.66602.42773,1.59668,1.45801,2.93115,2.90137,3.75684.97607.55908,2.04346.82422,3.09717.82422.88959,0,1.76514-.19934,2.57263-.5611.80762.36182,1.68323.5611,2.57288.5611,1.05371,0,2.12109-.26562,3.09717-.82422,1.44336-.82568,2.47363-2.16016,2.90137-3.75684.4248-1.58691.20312-3.24414-.62549-4.66602ZM104.31348,113.35059c-.49335,0-.96948-.0697-1.42566-.1886-.33179-.33191-.63062-.70557-.87708-1.12878-.74756-1.2832-.94775-2.77832-.56445-4.20996.38623-1.44092,1.31641-2.64502,2.61963-3.39111.08081-.04626.16534-.07886.24744-.12067.08215.04181.16681.0744.24768.12067,1.30322.74609,2.2334,1.9502,2.61963,3.39111.3833,1.43164.18311,2.92676-.56445,4.20996-.24664.42316-.54553.79675-.87744,1.12866-.45605.1189-.93207.18866-1.42529.18872ZM104.78864,113.92627c-.15448.09821-.31293.18854-.47559.27087-.16254-.08234-.32104-.17267-.47546-.27081.15759.0119.31525.02386.47589.02386.1604,0,.31781-.01202.47516-.02393ZM101.76074,103.68701c.62476,0,1.25269.11456,1.86139.32812-1.36115.83093-2.34277,2.11432-2.75494,3.65283-.42529,1.5874-.20361,3.24463.625,4.66699.08307.14258.18115.27057.27368.40399-1.81897-.92212-3.06958-2.79407-3.06958-4.9538,0-1.52509.62323-2.90802,1.62952-3.91431.4668-.1214.94928-.18384,1.43494-.18384ZM107.13477,112.33496c.82861-1.42236,1.05029-3.07959.625-4.66699-.41217-1.53864-1.39392-2.82202-2.75513-3.65295.60876-.21356,1.23676-.328,1.86157-.328.48566,0,.96814.06244,1.43494.18384,1.00629,1.00629,1.62952,2.38922,1.62952,3.91431,0,2.15924-1.25049,4.03094-3.06934,4.95331.09247-.1333.19049-.26111.27344-.4035ZM104.31348,102.21973c1.11731,0,2.15692.32867,3.03284.88818-1.01514-.078-2.05743.08881-3.03265.52698-.9751-.43848-2.01709-.60553-3.03198-.52759.87567-.55908,1.91492-.88757,3.0318-.88757ZM98.94141,114.07031c-1.30322-.74609-2.2334-1.9502-2.61963-3.3916-.3833-1.43115-.18311-2.92627.56445-4.20898.55792-.95801,1.36572-1.6806,2.29138-2.15265-.68115.98889-1.08093,2.18274-1.08093,3.46808,0,2.80194,1.8963,5.16907,4.48193,5.91602.32056.30408.67267.56451,1.04407.79034-1.49548.52295-3.20288.42426-4.68127-.4212ZM112.30518,110.67871c-.38623,1.44141-1.31641,2.64551-2.61963,3.3916-1.47845.84546-3.18616.94434-4.68182.42139.37158-.22583.72382-.48657,1.04449-.79071,2.58575-.74725,4.48206-3.11426,4.48206-5.91583,0-1.28534-.39978-2.47919-1.08093-3.46808.92566.47205,1.73346,1.19464,2.29138,2.15265.74756,1.28271.94775,2.77783.56445,4.20898Z" fill="#ffe68a"/>
    </g>
    <g>
      <path d="M103.57416,268.92328c0,.40869.33105.73944.73932.73944.40833,0,.73926-.33075.73926-.73944,0-.40814-.33093-.73895-.73926-.73895-.40826,0-.73932.33081-.73932.73895Z" fill="#ffd972"/>
      <path d="M112.88477,268.80713c-.42773-1.59668-1.45801-2.93115-2.90137-3.75684-1.79956-1.02991-3.90619-1.05786-5.66962-.2688-1.76361-.78949-3.87036-.76154-5.67023.2688-1.44336.82568-2.47363,2.16016-2.90137,3.75684-.4248,1.58691-.20312,3.24414.62549,4.66602.83221,1.42883,2.16071,2.39441,3.64459,2.82373,1.11786,1.06512,2.63208,1.72412,4.30121,1.72412s3.18347-.65906,4.30133-1.72424c1.48376-.42938,2.81232-1.3949,3.64447-2.82361.82861-1.42188,1.05029-3.0791.62549-4.66602ZM96.88623,273.17139c-.74756-1.28271-.94775-2.77783-.56445-4.20898.38623-1.44141,1.31641-2.64551,2.61963-3.3916.88281-.50537,1.84814-.74512,2.80078-.74512.63647,0,1.26416.11749,1.86151.32428-.36646.22418-.70935.49023-1.02606.79071-2.58521.74719-4.48096,3.11365-4.48096,5.91528,0,1.28973.40283,2.487,1.08826,3.47784-.92963-.47192-1.73889-1.20129-2.29871-2.16241ZM104.99817,275.63068c1.36481-.83087,2.34875-2.11633,2.7616-3.65753.42529-1.5874.20361-3.24463-.625-4.66699-.08026-.13776-.16949-.26703-.25861-.39624,1.81091.9248,3.0545,2.7926,3.0545,4.94604,0,1.52386-.62231,2.90576-1.6272,3.9118-1.06982.27875-2.22101.2442-3.3053-.13708ZM106.61621,267.60791c.74756,1.2832.94775,2.77832.56445,4.20996-.38623,1.44092-1.31641,2.64502-2.61963,3.39111-.08118.04645-.16504.0835-.2475.12549-.08252-.04199-.16638-.07904-.24762-.12549-1.30322-.74609-2.2334-1.9502-2.61963-3.39111-.3833-1.43164-.18311-2.92676.56445-4.20996.24573-.42181.5423-.79602.8728-1.1272.45746-.11963.93506-.1897,1.42993-.1897s.97241.07007,1.42987.1897c.33057.33118.62714.70538.87286,1.1272ZM100.32452,275.76886c-1.00549-1.0061-1.62823-2.38849-1.62823-3.9129,0-2.15344,1.24359-4.02124,3.05444-4.94604-.08911.12921-.17834.25848-.25854.39624-.82861,1.42236-1.05029,3.07959-.625,4.66699.4129,1.54132,1.39691,2.82697,2.7619,3.65778-1.08429.38184-2.23511.4165-3.30457.13794ZM104.31348,265.69141c-.15607,0-.3092.0119-.4624.02319.15063-.09534.30396-.18408.46234-.2644.15839.08032.31165.16913.46228.2644-.1532-.01123-.30621-.02319-.46222-.02319ZM104.31348,277.42139c-1.12531,0-2.17224-.33282-3.052-.89972.16669.01337.33289.03204.50073.03204.86145,0,1.72894-.18823,2.55115-.55823.82233.37024,1.68988.55823,2.55139.55823.16779,0,.33405-.01868.50073-.03204-.87976.56689-1.92664.89972-3.052.89972ZM111.74072,273.17139c-.55969.96057-1.36865,1.68933-2.29773,2.16107.68481-.9906,1.08728-2.18738,1.08728-3.4765,0-2.80157-1.89575-5.16803-4.4809-5.91528-.31671-.30054-.65955-.56665-1.026-.79083.59729-.20679,1.22485-.32416,1.86139-.32416.95264,0,1.91797.24023,2.80078.74512,1.30322.74609,2.2334,1.9502,2.61963,3.3916.3833,1.43115.18311,2.92627-.56445,4.20898Z" fill="#ffd972"/>
    </g>
    <path d="M107.13477,112.33496c.82861-1.42236,1.05029-3.07959.625-4.66699-.41217-1.53864-1.39392-2.82202-2.75513-3.65295.60876-.21356,1.23676-.328,1.86157-.328.48566,0,.96814.06244,1.43494.18384,1.00629,1.00629,1.62952,2.38922,1.62952,3.91431,0,2.15924-1.25049,4.03094-3.06934,4.95331.09247-.1333.19049-.26111.27344-.4035Z" fill="#242425"/>
  </g>
</svg>