<?xml version="1.0" encoding="UTF-8" standalone="no"?>
<!-- Created with Inkscape (http://www.inkscape.org/) -->

<svg
   width="71.120003mm"
   height="128.5mm"
   viewBox="0 0 71.120003 128.5"
   version="1.1"
   id="svg5"
   inkscape:version="1.2.1 (9c6d41e, 2022-07-14)"
   sodipodi:docname="Cosmos.svg"
   xmlns:inkscape="http://www.inkscape.org/namespaces/inkscape"
   xmlns:sodipodi="http://sodipodi.sourceforge.net/DTD/sodipodi-0.dtd"
   xmlns="http://www.w3.org/2000/svg"
   xmlns:svg="http://www.w3.org/2000/svg">
  <sodipodi:namedview
     id="namedview7"
     pagecolor="#ffffff"
     bordercolor="#666666"
     borderopacity="1.0"
     inkscape:showpageshadow="2"
     inkscape:pageopacity="0.0"
     inkscape:pagecheckerboard="0"
     inkscape:deskcolor="#d1d1d1"
     inkscape:document-units="mm"
     showgrid="false"
     inkscape:zoom="3.6596241"
     inkscape:cx="94.955108"
     inkscape:cy="262.1854"
     inkscape:window-width="2560"
     inkscape:window-height="1301"
     inkscape:window-x="0"
     inkscape:window-y="25"
     inkscape:window-maximized="1"
     inkscape:current-layer="layer1" />
  <defs
     id="defs2">
    <linearGradient
       id="uuid-cdd6d276-6de2-4480-a757-050c60532b88"
       x1="105"
       y1="0"
       x2="105"
       y2="380"
       gradientUnits="userSpaceOnUse">
      <stop
         offset="0"
         stop-color="#2a2a2b"
         id="stop2" />
      <stop
         offset="1"
         stop-color="#171717"
         id="stop4" />
    </linearGradient>
  </defs>
  <g
     inkscape:groupmode="layer"
     id="layer3"
     inkscape:label="background"
     sodipodi:insensitive="true">
    <g
       id="uuid-f2666c1d-9238-4650-8dce-440c0b63173d"
       data-name="FND BG"
       transform="scale(0.3381579)"
       style="display:inline">
      <rect
         width="210"
         height="380"
         fill="url(#uuid-cdd6d276-6de2-4480-a757-050c60532b88)"
         stroke-width="0"
         id="rect9"
         x="0"
         y="0"
         style="fill:url(#uuid-cdd6d276-6de2-4480-a757-050c60532b88)" />
    </g>
  </g>
  <g
     inkscape:label="Layer 1"
     inkscape:groupmode="layer"
     id="layer1">
    <path
       d="m 4.6617806,52.199781 c -0.9019032,-0.51075 -2.0551581,-0.207643 -2.5758039,0.677008 -0.5207339,0.884652 -0.2116734,2.01587 0.6901417,2.526616 0.9019032,0.51077 2.0550734,0.207664 2.5758039,-0.677008 0.5207339,-0.884652 0.2116734,-2.015846 -0.6901417,-2.526616 z M 4.970753,54.443366 H 3.4713469 V 53.061637 H 3.1419326 v 1.381729 H 2.4669733 v -0.243741 h 0.4279223 v -1.137988 h -5.182e-4 v -0.243742 h 0.8245315 v 0.243742 h -4.403e-4 v 1.137988 h 1.2522776 v 0.243741 z"
       fill="#ffffff"
       stroke-width="0"
       id="path12" />
    <path
       d="m 13.661228,7.6845466 c -0.901904,-0.51075 -2.055158,-0.2076434 -2.575804,0.6770082 -0.520734,0.8846515 -0.211762,2.0158692 0.690141,2.5266162 0.901904,0.51075 2.055158,0.207663 2.575804,-0.677009 0.520734,-0.8846511 0.211674,-2.0158451 -0.690141,-2.5266154 z M 13.9702,9.928132 H 13.295241 V 8.5464024 H 12.141468 V 9.928132 H 11.46642 V 9.6844139 h 0.427923 V 8.3026843 h 1.648026 v 1.3817296 h 0.427834 V 9.928132 Z"
       fill="#ffffff"
       stroke-width="0"
       id="path14" />
    <path
       d="M 4.6617806,23.1303 C 3.7598774,22.61955 2.6067072,22.922657 2.0859767,23.807308 1.5653309,24.69196 1.8743033,25.823178 2.7762065,26.333924 3.6781097,26.844695 4.8312799,26.541588 5.3520103,25.656916 5.8726562,24.772265 5.5636838,23.641071 4.6617806,23.1303 Z M 4.970841,25.373909 H 4.2958817 V 23.99216 h -1.153861 v 1.381749 H 2.4670614 v -0.243741 h 0.4278342 v -1.38173 h 1.6480265 v 1.38173 h 0.4279223 v 0.243741 z"
       fill="#ffffff"
       stroke-width="0"
       id="path16" />
    <path
       d="m 58.857375,7.6743019 c -0.901903,-0.51075 -2.055158,-0.2076433 -2.575804,0.6770082 -0.520734,0.8846515 -0.211673,2.0158459 0.690142,2.5266159 0.901903,0.51075 2.055073,0.207643 2.575804,-0.677008 0.520734,-0.8846517 0.211673,-2.0158695 -0.690142,-2.5266161 z m 0.308972,2.2435888 H 57.666941 V 8.5361612 H 57.337527 V 9.9178907 H 56.662568 V 9.6741489 H 57.09049 V 8.5361612 h -6.77e-4 V 8.2924194 h 0.824531 v 0.2437418 h -3.39e-4 v 1.1379877 h 1.252278 v 0.2437418 z"
       fill="#ffffff"
       stroke-width="0"
       id="path18" />
    <g
       id="g32"
       transform="scale(0.33866667)">
      <path
         d="m 104.31349,109.97839 c -0.40829,0 -0.73933,0.33078 -0.73933,0.73946 0,0.40817 0.33104,0.73895 0.73933,0.73895 0.40829,0 0.73927,-0.33078 0.73927,-0.73895 0,-0.40867 -0.33097,-0.73946 -0.73927,-0.73946 z"
         fill="#ffffff"
         stroke-width="0"
         id="path20" />
      <g
         id="g28">
        <ellipse
           cx="101.75124"
           cy="109.25131"
           rx="5.9171801"
           ry="5.8651199"
           fill="none"
           stroke="#ffffff"
           stroke-miterlimit="10"
           stroke-width="0.5"
           id="ellipse22" />
        <ellipse
           cx="106.87567"
           cy="109.25131"
           rx="5.9171801"
           ry="5.8651199"
           fill="none"
           stroke="#ffffff"
           stroke-miterlimit="10"
           stroke-width="0.5"
           id="ellipse24" />
        <ellipse
           cx="104.31345"
           cy="107.78503"
           rx="5.9171801"
           ry="5.8651199"
           fill="none"
           stroke="#ffffff"
           stroke-miterlimit="10"
           stroke-width="0.5"
           id="ellipse26" />
      </g>
      <circle
         cx="104.31345"
         cy="110.71759"
         r="10.38916"
         fill="none"
         stroke="#ffffff"
         stroke-miterlimit="10"
         stroke-width="0.5"
         id="circle30" />
    </g>
    <g
       id="g52"
       transform="scale(0.33866667)">
      <path
         d="m 7.43128,184.04335 h 23.3495 c -0.45923,-0.93461 -1.0165,-1.81134 -1.67685,-2.60327 H 9.10813 c -0.66035,0.79193 -1.21762,1.66866 -1.67685,2.60327 z"
         fill="#ffffff"
         stroke-width="0"
         id="path34" />
      <path
         d="M 6.61955,193.41685 H 31.5925 c 0.24403,-0.83635 0.40393,-1.7068 0.47544,-2.60372 H 6.14411 c 0.07151,0.89692 0.23141,1.76737 0.47544,2.60372 z"
         fill="#ffffff"
         stroke-width="0"
         id="path36" />
      <path
         d="m 19.10602,202.78227 c 2.92386,0 5.61317,-0.97544 7.78604,-2.60327 H 11.31997 c 2.17287,1.62783 4.86218,2.60327 7.78604,2.60327 z"
         fill="#ffffff"
         stroke-width="0"
         id="path38" />
      <path
         d="m 17.15329,176.91508 c -2.16721,0.32709 -4.15517,1.18453 -5.83348,2.44175 h 5.83348 z"
         fill="#ffffff"
         stroke-width="0"
         id="path40" />
      <path
         d="m 21.05876,179.35683 h 5.83348 c -1.67831,-1.25722 -3.66627,-2.11466 -5.83348,-2.44175 z"
         fill="#ffffff"
         stroke-width="0"
         id="path42" />
      <path
         d="M 17.15329,186.1266 H 6.61753 c -0.24352,0.83635 -0.40286,1.7068 -0.47381,2.60372 h 11.00957 z"
         fill="#ffffff"
         stroke-width="0"
         id="path44" />
      <path
         d="m 21.05876,188.73032 h 11.00957 c -0.07095,-0.89692 -0.23029,-1.76737 -0.47381,-2.60372 H 21.05876 Z"
         fill="#ffffff"
         stroke-width="0"
         id="path46" />
      <path
         d="M 17.15329,195.49965 H 7.43492 c 0.46013,0.93506 1.01874,1.81179 1.68016,2.60372 h 8.03821 z"
         fill="#ffffff"
         stroke-width="0"
         id="path48" />
      <path
         d="m 21.05876,198.10337 h 8.03821 c 0.66142,-0.79193 1.22003,-1.66866 1.68016,-2.60372 h -9.71837 z"
         fill="#ffffff"
         stroke-width="0"
         id="path50" />
    </g>
    <g
       id="g72"
       transform="scale(0.33866667)">
      <path
         d="m 177.92032,195.654 h 23.3495 c -0.45923,0.93461 -1.0165,1.81134 -1.67685,2.60327 h -19.99579 c -0.66035,-0.79193 -1.21762,-1.66866 -1.67685,-2.60327 z"
         fill="#ffffff"
         stroke-width="0"
         id="path54" />
      <path
         d="m 177.10859,186.2805 h 24.97295 c 0.24403,0.83635 0.40393,1.7068 0.47544,2.60372 h -25.92383 c 0.0715,-0.89692 0.23141,-1.76737 0.47544,-2.60372 z"
         fill="#ffffff"
         stroke-width="0"
         id="path56" />
      <path
         d="m 189.59507,176.91509 c 2.92386,0 5.61317,0.97544 7.78604,2.60327 h -15.57209 c 2.17287,-1.62783 4.86218,-2.60327 7.78604,-2.60327 z"
         fill="#ffffff"
         stroke-width="0"
         id="path58" />
      <path
         d="m 187.64233,202.78227 c -2.16721,-0.32709 -4.15517,-1.18453 -5.83348,-2.44175 h 5.83348 z"
         fill="#ffffff"
         stroke-width="0"
         id="path60" />
      <path
         d="m 191.5478,200.34052 h 5.83348 c -1.67831,1.25722 -3.66627,2.11466 -5.83348,2.44175 z"
         fill="#ffffff"
         stroke-width="0"
         id="path62" />
      <path
         d="m 187.64233,193.57075 h -10.53576 c -0.24352,-0.83635 -0.40286,-1.7068 -0.47381,-2.60372 h 11.00957 z"
         fill="#ffffff"
         stroke-width="0"
         id="path64" />
      <path
         d="m 191.5478,190.96703 h 11.00957 c -0.0709,0.89692 -0.23029,1.76737 -0.47381,2.60372 H 191.5478 Z"
         fill="#ffffff"
         stroke-width="0"
         id="path66" />
      <path
         d="m 187.64233,184.19771 h -9.71837 c 0.46013,-0.93506 1.01874,-1.81179 1.68016,-2.60372 h 8.03821 z"
         fill="#ffffff"
         stroke-width="0"
         id="path68" />
      <path
         d="m 191.5478,181.59398 h 8.03821 c 0.66142,0.79193 1.22003,1.66866 1.68016,2.60372 h -9.71837 z"
         fill="#ffffff"
         stroke-width="0"
         id="path70" />
    </g>
    <g
       id="g86"
       transform="scale(0.33866667)">
      <path
         d="m 104.31349,269.66275 c -0.40829,0 -0.73933,-0.33078 -0.73933,-0.73946 0,-0.40817 0.33104,-0.73895 0.73933,-0.73895 0.40829,0 0.73927,0.33078 0.73927,0.73895 0,0.40867 -0.33097,0.73946 -0.73927,0.73946 z"
         fill="#ffffff"
         stroke-width="0"
         id="path74" />
      <g
         id="g82">
        <ellipse
           cx="101.75124"
           cy="270.38983"
           rx="5.9171801"
           ry="5.8651199"
           fill="none"
           stroke="#ffffff"
           stroke-miterlimit="10"
           stroke-width="0.5"
           id="ellipse76" />
        <ellipse
           cx="106.87567"
           cy="270.38983"
           rx="5.9171801"
           ry="5.8651199"
           fill="none"
           stroke="#ffffff"
           stroke-miterlimit="10"
           stroke-width="0.5"
           id="ellipse78" />
        <ellipse
           cx="104.31345"
           cy="271.85611"
           rx="5.9171801"
           ry="5.8651199"
           fill="none"
           stroke="#ffffff"
           stroke-miterlimit="10"
           stroke-width="0.5"
           id="ellipse80" />
      </g>
      <circle
         cx="104.31345"
         cy="268.92355"
         r="10.38916"
         fill="none"
         stroke="#ffffff"
         stroke-miterlimit="10"
         stroke-width="0.5"
         id="circle84" />
    </g>
    <g
       id="g104"
       transform="scale(0.33866667)"
       style="fill:#4d4d4d">
      <path
         d="m 104.3206,299.09705 c 0.0785,0 0.15435,-0.01 0.23203,-0.0117 h -0.46406 c 0.0777,0.002 0.15384,0.0117 0.23203,0.0117 z"
         fill="#ffffff"
         stroke-width="0"
         id="path88"
         style="fill:#4d4d4d" />
      <path
         d="M 110.01432,286.96487 H 98.62738 c -0.37415,0.44979 -0.68946,0.94798 -0.94951,1.47876 h 13.28595 c -0.2603,-0.53079 -0.57561,-1.02897 -0.94951,-1.47876 z"
         fill="#ffffff"
         stroke-width="0"
         id="path90"
         style="fill:#4d4d4d" />
      <path
         d="M 111.42483,289.62645 H 97.21688 c -0.13805,0.47475 -0.22872,0.96937 -0.26896,1.47825 h 14.74587 c -0.0402,-0.50888 -0.13091,-1.0035 -0.26896,-1.47825 z"
         fill="#ffffff"
         stroke-width="0"
         id="path92"
         style="fill:#4d4d4d" />
      <path
         d="m 96.94818,292.28802 c 0.0405,0.50888 0.13117,1.0035 0.26972,1.47825 h 14.20591 c 0.1383,-0.47475 0.22923,-0.96937 0.26972,-1.47825 H 96.94817 Z"
         fill="#ffffff"
         stroke-width="0"
         id="path94"
         style="fill:#4d4d4d" />
      <path
         d="m 98.63095,296.42784 h 11.37955 c 0.37466,-0.44979 0.69048,-0.94798 0.95129,-1.47876 H 97.67992 c 0.26055,0.53079 0.57663,1.02897 0.95103,1.47876 z"
         fill="#ffffff"
         stroke-width="0"
         id="path96"
         style="fill:#4d4d4d" />
      <path
         d="m 104.08857,299.08534 h 0.46406 c 1.5786,-0.0494 3.02935,-0.59089 4.20936,-1.47876 h -8.88251 c 1.17975,0.88787 2.6305,1.42935 4.2091,1.47876 z"
         fill="#ffffff"
         stroke-width="0"
         id="path98"
         style="fill:#4d4d4d" />
      <path
         d="m 108.76224,285.78207 c -1.00656,-0.75747 -2.20923,-1.26431 -3.52193,-1.42782 v 1.42782 z"
         fill="#ffffff"
         stroke-width="0"
         id="path100"
         style="fill:#4d4d4d" />
      <path
         d="m 103.40115,284.35424 c -1.3127,0.16301 -2.51538,0.67036 -3.52193,1.42782 h 3.52193 z"
         fill="#ffffff"
         stroke-width="0"
         id="path102"
         style="fill:#4d4d4d" />
    </g>
    <path
       d="m 35.329954,95.942063 c 1.571342,0 2.845186,1.273671 2.845186,2.845098 0,1.571259 -1.273844,2.845099 -2.845186,2.845099 -1.571342,0 -2.845098,-1.27384 -2.845098,-2.845099 0,-1.57143 1.273756,-2.845098 2.845098,-2.845098 m 0,-0.353307 c -1.76361,0 -3.198408,1.434798 -3.198408,3.198408 0,1.763606 1.434798,3.198406 3.198408,3.198406 1.76361,0 3.198494,-1.4348 3.198494,-3.198406 0,-1.76361 -1.434799,-3.198408 -3.198494,-3.198408 z"
       fill="#ffffff"
       stroke-width="0"
       id="path106" />
    <g
       id="g130"
       transform="scale(0.33866667)"
       style="fill:#4d4d4d">
      <path
         d="m 131.03173,271.21822 c 0.0782,0 0.15435,-0.009 0.23203,-0.0117 h -0.46431 c 0.0779,0.003 0.15384,0.0117 0.23228,0.0117 z"
         fill="#ffffff"
         stroke-width="0"
         id="path108"
         style="fill:#4d4d4d" />
      <path
         d="m 138.13571,261.74761 h -14.20795 c -0.13805,0.47526 -0.22872,0.96937 -0.26896,1.47876 h 14.74587 c -0.0402,-0.50939 -0.13091,-1.0035 -0.26896,-1.47876 z"
         fill="#ffffff"
         stroke-width="0"
         id="path110"
         style="fill:#4d4d4d" />
      <path
         d="m 130.79945,271.2065 h 0.46431 c 1.57835,-0.0489 3.02935,-0.59089 4.20936,-1.47876 h -8.88277 c 1.17975,0.88787 2.63075,1.42986 4.2091,1.47876 z"
         fill="#ffffff"
         stroke-width="0"
         id="path112"
         style="fill:#4d4d4d" />
      <path
         d="m 130.11203,256.47592 c -1.31245,0.16301 -2.51512,0.66985 -3.52168,1.42732 h 3.52168 z"
         fill="#ffffff"
         stroke-width="0"
         id="path114"
         style="fill:#4d4d4d" />
      <path
         d="m 135.47286,257.90323 c -1.00656,-0.75747 -2.20898,-1.26431 -3.52142,-1.42732 v 1.42732 z"
         fill="#ffffff"
         stroke-width="0"
         id="path116"
         style="fill:#4d4d4d" />
      <path
         d="m 130.11203,259.08604 h -4.77376 c -0.37389,0.44979 -0.68921,0.94798 -0.94951,1.47876 h 5.72327 z"
         fill="#ffffff"
         stroke-width="0"
         id="path118"
         style="fill:#4d4d4d" />
      <path
         d="m 131.95144,260.5648 h 5.72327 c -0.2603,-0.53079 -0.57561,-1.02897 -0.94976,-1.47876 h -4.77351 z"
         fill="#ffffff"
         stroke-width="0"
         id="path120"
         style="fill:#4d4d4d" />
      <path
         d="m 130.11203,264.40918 h -6.45297 c 0.0405,0.50939 0.13117,1.00401 0.26972,1.47876 h 6.18325 z"
         fill="#ffffff"
         stroke-width="0"
         id="path122"
         style="fill:#4d4d4d" />
      <path
         d="m 131.95144,264.40918 v 1.47876 h 6.18325 c 0.13855,-0.47475 0.22923,-0.96937 0.26972,-1.47876 z"
         fill="#ffffff"
         stroke-width="0"
         id="path124"
         style="fill:#4d4d4d" />
      <path
         d="m 130.11203,267.07075 h -5.72123 c 0.26055,0.53079 0.57663,1.02846 0.95103,1.47825 h 4.7702 z"
         fill="#ffffff"
         stroke-width="0"
         id="path126"
         style="fill:#4d4d4d" />
      <path
         d="m 131.95144,268.54901 h 4.7702 c 0.3744,-0.44979 0.69048,-0.94747 0.95103,-1.47825 h -5.72123 z"
         fill="#ffffff"
         stroke-width="0"
         id="path128"
         style="fill:#4d4d4d" />
    </g>
    <path
       d="m 44.376056,86.50051 c 1.571342,0 2.845186,1.273671 2.845186,2.845098 0,1.571258 -1.273844,2.845098 -2.845186,2.845098 -1.571342,0 -2.845098,-1.273844 -2.845098,-2.845098 0,-1.57143 1.273756,-2.845098 2.845098,-2.845098 m 0,-0.353307 c -1.76361,0 -3.198409,1.434799 -3.198409,3.198409 0,1.76361 1.434799,3.198408 3.198409,3.198408 1.76361,0 3.198493,-1.434798 3.198493,-3.198408 0,-1.76361 -1.434798,-3.198409 -3.198493,-3.198409 z"
       fill="#ffffff"
       stroke-width="0"
       id="path132" />
    <g
       id="g156"
       transform="scale(0.33866667)"
       style="fill:#4d4d4d">
      <path
         d="m 77.59493,123.29833 c 0.0787,0 0.15511,-0.009 0.2333,-0.0117 h -0.4666 c 0.07819,0.003 0.1546,0.0117 0.2333,0.0117 z"
         fill="#ffffff"
         stroke-width="0"
         id="path134"
         style="fill:#4d4d4d" />
      <path
         d="m 77.59493,108.49286 c -0.07972,0 -0.15689,0.009 -0.23585,0.0117 h 0.4717 c -0.07896,-0.003 -0.15613,-0.0117 -0.23585,-0.0117 z"
         fill="#ffffff"
         stroke-width="0"
         id="path136"
         style="fill:#4d4d4d" />
      <path
         d="m 77.83078,108.50458 h -0.4717 c -1.57708,0.0499 -3.02655,0.5914 -4.20528,1.47876 h 8.88251 c -1.17899,-0.88736 -2.62846,-1.42884 -4.20554,-1.47876 z"
         fill="#ffffff"
         stroke-width="0"
         id="path138"
         style="fill:#4d4d4d" />
      <path
         d="M 83.28865,111.16615 H 71.90146 c -0.37389,0.44979 -0.68921,0.94798 -0.94925,1.47876 H 84.2379 c -0.26004,-0.53079 -0.57536,-1.02897 -0.94925,-1.47876 z"
         fill="#ffffff"
         stroke-width="0"
         id="path140"
         style="fill:#4d4d4d" />
      <path
         d="m 73.1538,121.80785 c 1.1795,0.88736 2.62973,1.42935 4.20783,1.47876 h 0.4666 c 1.57809,-0.0494 3.02859,-0.5914 4.20808,-1.47876 z"
         fill="#ffffff"
         stroke-width="0"
         id="path142"
         style="fill:#4d4d4d" />
      <path
         d="m 76.67548,113.82772 h -6.18452 c -0.13805,0.47526 -0.22846,0.96937 -0.2687,1.47876 h 6.45323 v -1.47876 z"
         fill="#ffffff"
         stroke-width="0"
         id="path144"
         style="fill:#4d4d4d" />
      <path
         d="m 78.51463,115.30648 h 6.45323 c -0.04024,-0.50939 -0.13066,-1.0035 -0.2687,-1.47876 h -6.18452 v 1.47876 z"
         fill="#ffffff"
         stroke-width="0"
         id="path146"
         style="fill:#4d4d4d" />
      <path
         d="m 76.67548,116.48929 h -6.45323 c 0.04075,0.50888 0.13142,1.0035 0.26972,1.47825 h 6.1835 v -1.47825 z"
         fill="#ffffff"
         stroke-width="0"
         id="path148"
         style="fill:#4d4d4d" />
      <path
         d="m 78.51463,117.96755 h 6.1835 c 0.1383,-0.47475 0.22923,-0.96937 0.26947,-1.47825 h -6.45297 z"
         fill="#ffffff"
         stroke-width="0"
         id="path150"
         style="fill:#4d4d4d" />
      <path
         d="m 76.67548,119.15086 h -5.72123 c 0.26055,0.53079 0.57663,1.02846 0.95103,1.47825 h 4.7702 z"
         fill="#ffffff"
         stroke-width="0"
         id="path152"
         style="fill:#4d4d4d" />
      <path
         d="m 78.51463,120.62912 h 4.7702 c 0.37466,-0.44979 0.69048,-0.94747 0.95103,-1.47825 h -5.72123 z"
         fill="#ffffff"
         stroke-width="0"
         id="path154"
         style="fill:#4d4d4d" />
    </g>
    <path
       d="m 26.27884,36.40493 c 1.571342,0 2.845186,1.273671 2.845186,2.845098 0,1.571257 -1.273844,2.845098 -2.845186,2.845098 -1.571342,0 -2.845098,-1.273844 -2.845098,-2.845098 0,-1.571431 1.273756,-2.845098 2.845098,-2.845098 m 0,-0.353311 c -1.76361,0 -3.198408,1.434799 -3.198408,3.198409 0,1.76361 1.434798,3.198408 3.198408,3.198408 1.76361,0 3.198494,-1.434798 3.198494,-3.198408 0,-1.76361 -1.434799,-3.198409 -3.198494,-3.198409 z"
       fill="#ffffff"
       stroke-width="0"
       id="path158" />
    <g
       id="g180"
       transform="scale(0.33866667)"
       style="fill:#4d4d4d">
      <path
         d="m 86.72918,168.40022 c -0.08023,0 -0.15766,0.009 -0.23712,0.012 h 0.47424 c -0.07947,-0.003 -0.15715,-0.012 -0.23712,-0.012 z"
         fill="#ffffff"
         stroke-width="0"
         id="path160"
         style="fill:#4d4d4d" />
      <path
         d="m 86.9663,168.41219 h -0.47424 c -1.57657,0.0502 -3.02553,0.59166 -4.20426,1.47851 h 8.88277 c -1.17873,-0.88685 -2.6277,-1.42833 -4.20426,-1.47851 z"
         fill="#ffffff"
         stroke-width="0"
         id="path162"
         style="fill:#4d4d4d" />
      <path
         d="M 92.42265,171.07351 H 81.03571 c -0.37415,0.44979 -0.68921,0.94849 -0.94925,1.47876 h 13.28569 c -0.26004,-0.53028 -0.57536,-1.02897 -0.94951,-1.47876 z"
         fill="#ffffff"
         stroke-width="0"
         id="path164"
         style="fill:#4d4d4d" />
      <path
         d="m 93.83341,173.73508 h -14.2082 c -0.13805,0.47526 -0.22846,0.96937 -0.2687,1.47876 h 14.74561 c -0.04024,-0.50939 -0.13066,-1.0035 -0.2687,-1.47876 z"
         fill="#ffffff"
         stroke-width="0"
         id="path166"
         style="fill:#4d4d4d" />
      <path
         d="M 85.80947,176.39665 H 79.3565 c 0.0405,0.50939 0.13142,1.00401 0.26972,1.47876 h 6.18325 z"
         fill="#ffffff"
         stroke-width="0"
         id="path168"
         style="fill:#4d4d4d" />
      <path
         d="m 87.64888,176.39665 v 1.47876 h 6.1835 c 0.1383,-0.47475 0.22897,-0.96937 0.26947,-1.47876 z"
         fill="#ffffff"
         stroke-width="0"
         id="path170"
         style="fill:#4d4d4d" />
      <path
         d="m 82.28754,181.7152 c 1.00656,0.75747 2.20923,1.26431 3.52193,1.42732 v -1.42732 z"
         fill="#ffffff"
         stroke-width="0"
         id="path172"
         style="fill:#4d4d4d" />
      <path
         d="m 87.64888,183.14252 c 1.3127,-0.16301 2.51538,-0.66985 3.52193,-1.42732 h -3.52193 z"
         fill="#ffffff"
         stroke-width="0"
         id="path174"
         style="fill:#4d4d4d" />
      <path
         d="m 85.80947,179.05822 h -5.72123 c 0.26055,0.53079 0.57663,1.02846 0.95103,1.47825 h 4.7702 z"
         fill="#ffffff"
         stroke-width="0"
         id="path176"
         style="fill:#4d4d4d" />
      <path
         d="m 87.64888,180.53647 h 4.7702 c 0.37466,-0.44979 0.69048,-0.94747 0.95103,-1.47825 h -5.72123 z"
         fill="#ffffff"
         stroke-width="0"
         id="path178"
         style="fill:#4d4d4d" />
    </g>
    <g
       id="g202"
       transform="scale(0.33866667)"
       style="fill:#4d4d4d">
      <path
         d="m 121.92451,168.40002 c -0.0802,0 -0.15766,0.009 -0.23712,0.012 h 0.47424 c -0.0795,-0.003 -0.15715,-0.012 -0.23712,-0.012 z"
         fill="#ffffff"
         stroke-width="0"
         id="path182"
         style="fill:#4d4d4d" />
      <path
         d="m 122.16164,168.412 h -0.47424 c -1.57657,0.0502 -3.02553,0.59166 -4.20426,1.47851 h 8.88277 c -1.17873,-0.88685 -2.6277,-1.42833 -4.20426,-1.47851 z"
         fill="#ffffff"
         stroke-width="0"
         id="path184"
         style="fill:#4d4d4d" />
      <path
         d="m 127.61798,171.07331 h -11.38694 c -0.37415,0.44979 -0.68921,0.94849 -0.94925,1.47876 h 13.28569 c -0.26004,-0.53028 -0.57536,-1.02897 -0.94951,-1.47876 z"
         fill="#ffffff"
         stroke-width="0"
         id="path186"
         style="fill:#4d4d4d" />
      <path
         d="m 129.02874,173.73488 h -14.2082 c -0.13805,0.47526 -0.22846,0.96937 -0.2687,1.47876 h 14.74561 c -0.0402,-0.50939 -0.13066,-1.0035 -0.2687,-1.47876 z"
         fill="#ffffff"
         stroke-width="0"
         id="path188"
         style="fill:#4d4d4d" />
      <path
         d="m 121.00481,176.39645 h -6.45297 c 0.0405,0.50939 0.13142,1.00401 0.26972,1.47876 h 6.18325 z"
         fill="#ffffff"
         stroke-width="0"
         id="path190"
         style="fill:#4d4d4d" />
      <path
         d="m 122.84422,176.39645 v 1.47876 h 6.1835 c 0.1383,-0.47475 0.22897,-0.96937 0.26947,-1.47876 z"
         fill="#ffffff"
         stroke-width="0"
         id="path192"
         style="fill:#4d4d4d" />
      <path
         d="m 117.48288,181.71501 c 1.00656,0.75747 2.20923,1.26431 3.52193,1.42732 v -1.42732 z"
         fill="#ffffff"
         stroke-width="0"
         id="path194"
         style="fill:#4d4d4d" />
      <path
         d="m 122.84422,183.14232 c 1.3127,-0.16301 2.51538,-0.66985 3.52193,-1.42732 h -3.52193 z"
         fill="#ffffff"
         stroke-width="0"
         id="path196"
         style="fill:#4d4d4d" />
      <path
         d="m 121.00481,179.05802 h -5.72123 c 0.26055,0.53079 0.57663,1.02846 0.95103,1.47825 h 4.7702 z"
         fill="#ffffff"
         stroke-width="0"
         id="path198"
         style="fill:#4d4d4d" />
      <path
         d="m 122.84422,180.53628 h 4.7702 c 0.37466,-0.44979 0.69048,-0.94747 0.95103,-1.47825 h -5.72123 z"
         fill="#ffffff"
         stroke-width="0"
         id="path200"
         style="fill:#4d4d4d" />
    </g>
    <g
       id="g226"
       transform="scale(0.33866667)"
       style="fill:#4d4d4d">
      <path
         d="m 131.03159,108.47877 c 0.0787,0 0.15511,0.009 0.2333,0.0117 h -0.4666 c 0.0782,-0.003 0.1546,-0.0117 0.2333,-0.0117 z"
         fill="#ffffff"
         stroke-width="0"
         id="path204"
         style="fill:#4d4d4d" />
      <path
         d="m 131.03159,123.28424 c -0.0797,0 -0.15689,-0.009 -0.23585,-0.0117 h 0.4717 c -0.079,0.003 -0.15613,0.0117 -0.23585,0.0117 z"
         fill="#ffffff"
         stroke-width="0"
         id="path206"
         style="fill:#4d4d4d" />
      <path
         d="m 131.26743,123.27252 h -0.4717 c -1.57708,-0.0499 -3.02655,-0.5914 -4.20528,-1.47876 h 8.88251 c -1.17899,0.88736 -2.62846,1.42884 -4.20554,1.47876 z"
         fill="#ffffff"
         stroke-width="0"
         id="path208"
         style="fill:#4d4d4d" />
      <path
         d="m 136.72531,120.61095 h -11.38719 c -0.37389,-0.44979 -0.68921,-0.94798 -0.94925,-1.47876 h 13.28569 c -0.26004,0.53079 -0.57536,1.02897 -0.94925,1.47876 z"
         fill="#ffffff"
         stroke-width="0"
         id="path210"
         style="fill:#4d4d4d" />
      <path
         d="m 126.59046,109.96925 c 1.1795,-0.88736 2.62973,-1.42935 4.20783,-1.47876 h 0.4666 c 1.57809,0.0494 3.02859,0.5914 4.20808,1.47876 z"
         fill="#ffffff"
         stroke-width="0"
         id="path212"
         style="fill:#4d4d4d" />
      <path
         d="m 130.11213,117.94938 h -6.18452 c -0.13805,-0.47526 -0.22846,-0.96937 -0.2687,-1.47876 h 6.45323 v 1.47876 z"
         fill="#ffffff"
         stroke-width="0"
         id="path214"
         style="fill:#4d4d4d" />
      <path
         d="m 131.95129,116.47062 h 6.45323 c -0.0402,0.50939 -0.13066,1.0035 -0.2687,1.47876 h -6.18452 v -1.47876 z"
         fill="#ffffff"
         stroke-width="0"
         id="path216"
         style="fill:#4d4d4d" />
      <path
         d="m 130.11213,115.28781 h -6.45323 c 0.0408,-0.50888 0.13142,-1.0035 0.26972,-1.47825 h 6.1835 v 1.47825 z"
         fill="#ffffff"
         stroke-width="0"
         id="path218"
         style="fill:#4d4d4d" />
      <path
         d="m 131.95129,113.80956 h 6.1835 c 0.1383,0.47475 0.22923,0.96937 0.26947,1.47825 h -6.45297 z"
         fill="#ffffff"
         stroke-width="0"
         id="path220"
         style="fill:#4d4d4d" />
      <path
         d="m 130.11213,112.62624 h -5.72123 c 0.26055,-0.53079 0.57663,-1.02846 0.95103,-1.47825 h 4.7702 z"
         fill="#ffffff"
         stroke-width="0"
         id="path222"
         style="fill:#4d4d4d" />
      <path
         d="m 131.95129,111.14799 h 4.7702 c 0.37466,0.44979 0.69048,0.94747 0.95103,1.47825 h -5.72123 z"
         fill="#ffffff"
         stroke-width="0"
         id="path224"
         style="fill:#4d4d4d" />
    </g>
    <path
       d="m 44.376056,42.090249 c 1.571342,0 2.845186,-1.273671 2.845186,-2.845098 0,-1.571258 -1.273844,-2.845098 -2.845186,-2.845098 -1.571342,0 -2.845098,1.273844 -2.845098,2.845098 0,1.57143 1.273756,2.845098 2.845098,2.845098 m 0,0.353311 c -1.76361,0 -3.198409,-1.434799 -3.198409,-3.198409 0,-1.76361 1.434799,-3.198409 3.198409,-3.198409 1.76361,0 3.198493,1.434799 3.198493,3.198409 0,1.76361 -1.434798,3.198409 -3.198493,3.198409 z"
       fill="#ffffff"
       stroke-width="0"
       id="path228" />
    <g
       id="g252"
       transform="scale(0.33866667)"
       style="fill:#4d4d4d">
      <path
         d="M 109.92753,157.38423 H 98.54059 c -0.37415,0.44979 -0.68946,0.94823 -0.94951,1.47876 h 13.28569 c -0.26004,-0.53053 -0.57536,-1.02897 -0.94925,-1.47876 z"
         fill="#ffffff"
         stroke-width="0"
         id="path230"
         style="fill:#4d4d4d" />
      <path
         d="m 103.31436,154.77411 c -1.31245,0.16301 -2.51512,0.66985 -3.52168,1.42732 h 3.52168 z"
         fill="#ffffff"
         stroke-width="0"
         id="path232"
         style="fill:#4d4d4d" />
      <path
         d="m 108.6752,156.20142 c -1.00656,-0.75747 -2.20923,-1.26431 -3.52168,-1.42732 v 1.42732 z"
         fill="#ffffff"
         stroke-width="0"
         id="path234"
         style="fill:#4d4d4d" />
      <path
         d="m 103.31436,160.0458 h -6.18427 c -0.1383,0.47501 -0.22872,0.96937 -0.26896,1.47876 h 6.45323 z"
         fill="#ffffff"
         stroke-width="0"
         id="path236"
         style="fill:#4d4d4d" />
      <path
         d="m 105.15352,161.52456 h 6.45348 c -0.0402,-0.50939 -0.13091,-1.00376 -0.26896,-1.47876 h -6.18452 z"
         fill="#ffffff"
         stroke-width="0"
         id="path238"
         style="fill:#4d4d4d" />
      <path
         d="m 103.31436,162.70737 h -6.45297 c 0.0405,0.50939 0.13117,1.0035 0.26972,1.47851 h 6.18325 z"
         fill="#ffffff"
         stroke-width="0"
         id="path240"
         style="fill:#4d4d4d" />
      <path
         d="m 105.15352,162.70737 v 1.47851 h 6.1835 c 0.1383,-0.47501 0.22923,-0.96912 0.26972,-1.47851 h -6.45323 z"
         fill="#ffffff"
         stroke-width="0"
         id="path242"
         style="fill:#4d4d4d" />
      <path
         d="m 105.15352,166.8472 h 4.77045 c 0.3744,-0.44979 0.69023,-0.94747 0.95103,-1.47825 h -5.72149 v 1.47825 z"
         fill="#ffffff"
         stroke-width="0"
         id="path244"
         style="fill:#4d4d4d" />
      <path
         d="m 103.31436,165.36894 h -5.72123 c 0.26055,0.53079 0.57638,1.02846 0.95103,1.47825 h 4.7702 z"
         fill="#ffffff"
         stroke-width="0"
         id="path246"
         style="fill:#4d4d4d" />
      <path
         d="m 99.79243,168.02593 c 1.00656,0.75747 2.20923,1.26431 3.52193,1.42732 v -1.42732 z"
         fill="#ffffff"
         stroke-width="0"
         id="path248"
         style="fill:#4d4d4d" />
      <path
         d="m 105.15352,169.45324 c 1.3127,-0.16301 2.51538,-0.66985 3.52193,-1.42732 h -3.52193 z"
         fill="#ffffff"
         stroke-width="0"
         id="path250"
         style="fill:#4d4d4d" />
    </g>
    <g
       id="g272"
       transform="scale(0.33866667)"
       style="fill:#4d4d4d">
      <path
         d="m 104.23374,210.18017 c -0.0797,0 -0.15689,0.01 -0.23585,0.0122 h 0.4717 c -0.079,-0.003 -0.15613,-0.0122 -0.23585,-0.0122 z"
         fill="#ffffff"
         stroke-width="0"
         id="path254"
         style="fill:#4d4d4d" />
      <path
         d="m 104.46959,210.1924 h -0.4717 c -1.57708,0.0499 -3.02655,0.5914 -4.20528,1.47876 h 8.88251 c -1.17899,-0.88736 -2.62846,-1.42884 -4.20554,-1.47876 z"
         fill="#ffffff"
         stroke-width="0"
         id="path256"
         style="fill:#4d4d4d" />
      <path
         d="M 109.92746,212.85397 H 98.54027 c -0.37389,0.44979 -0.68921,0.94798 -0.94925,1.47825 h 13.28569 c -0.26004,-0.53028 -0.57536,-1.02846 -0.94925,-1.47825 z"
         fill="#ffffff"
         stroke-width="0"
         id="path258"
         style="fill:#4d4d4d" />
      <path
         d="m 111.33797,215.51503 h -14.2082 c -0.13805,0.47526 -0.22846,0.96937 -0.2687,1.47876 h 14.74561 c -0.0402,-0.50939 -0.13066,-1.0035 -0.2687,-1.47876 z"
         fill="#ffffff"
         stroke-width="0"
         id="path260"
         style="fill:#4d4d4d" />
      <path
         d="m 97.5928,220.83817 c 0.26055,0.53079 0.57689,1.02897 0.95129,1.47876 h 11.3793 c 0.37466,-0.44979 0.69073,-0.94798 0.95154,-1.47876 z"
         fill="#ffffff"
         stroke-width="0"
         id="path262"
         style="fill:#4d4d4d" />
      <path
         d="m 99.79261,223.49567 c 1.00656,0.75747 2.20923,1.26431 3.52168,1.42732 v -1.42732 z"
         fill="#ffffff"
         stroke-width="0"
         id="path264"
         style="fill:#4d4d4d" />
      <path
         d="m 105.15345,224.92298 c 1.31245,-0.16301 2.51487,-0.66985 3.52142,-1.42732 h -3.52142 z"
         fill="#ffffff"
         stroke-width="0"
         id="path266"
         style="fill:#4d4d4d" />
      <path
         d="m 103.31429,218.1766 h -6.45323 c 0.04075,0.50939 0.13142,1.0035 0.26972,1.47876 h 6.1835 v -1.47876 z"
         fill="#ffffff"
         stroke-width="0"
         id="path268"
         style="fill:#4d4d4d" />
      <path
         d="m 105.15345,219.65536 h 6.1835 c 0.1383,-0.47526 0.22923,-0.96937 0.26947,-1.47876 h -6.45297 z"
         fill="#ffffff"
         stroke-width="0"
         id="path270"
         style="fill:#4d4d4d" />
    </g>
    <g
       id="g294"
       transform="scale(0.33866667)"
       style="fill:#4d4d4d">
      <path
         d="m 86.72911,211.29667 c 0.07845,0 0.15435,-0.01 0.23203,-0.0117 h -0.46406 c 0.07768,0.002 0.15358,0.0117 0.23203,0.0117 z"
         fill="#ffffff"
         stroke-width="0"
         id="path274"
         style="fill:#4d4d4d" />
      <path
         d="m 86.72911,196.49121 c -0.07997,0 -0.15766,0.009 -0.23712,0.0117 h 0.47424 c -0.07947,-0.003 -0.15715,-0.0117 -0.23712,-0.0117 z"
         fill="#ffffff"
         stroke-width="0"
         id="path276"
         style="fill:#4d4d4d" />
      <path
         d="m 86.96623,196.50292 h -0.47424 c -1.57657,0.0504 -3.02553,0.59191 -4.20401,1.47876 h 8.88251 c -1.17873,-0.88685 -2.6277,-1.42833 -4.20426,-1.47876 z"
         fill="#ffffff"
         stroke-width="0"
         id="path278"
         style="fill:#4d4d4d" />
      <path
         d="m 93.83334,201.82606 h -14.2082 c -0.13805,0.47526 -0.22846,0.96937 -0.2687,1.47876 h 14.74561 c -0.04024,-0.50939 -0.13066,-1.0035 -0.2687,-1.47876 z"
         fill="#ffffff"
         stroke-width="0"
         id="path280"
         style="fill:#4d4d4d" />
      <path
         d="m 80.08817,207.1487 c 0.26055,0.53079 0.57689,1.02897 0.95129,1.47876 h 11.3793 c 0.37466,-0.44979 0.69073,-0.94798 0.95154,-1.47876 z"
         fill="#ffffff"
         stroke-width="0"
         id="path282"
         style="fill:#4d4d4d" />
      <path
         d="m 86.49708,211.28496 h 0.46406 c 1.5786,-0.0494 3.02935,-0.59089 4.20936,-1.47876 h -8.88251 c 1.17975,0.88787 2.6305,1.42935 4.2091,1.47876 z"
         fill="#ffffff"
         stroke-width="0"
         id="path284"
         style="fill:#4d4d4d" />
      <path
         d="m 85.80966,199.16449 h -4.77402 c -0.37415,0.44979 -0.68921,0.94849 -0.94925,1.47876 h 5.72327 z"
         fill="#ffffff"
         stroke-width="0"
         id="path286"
         style="fill:#4d4d4d" />
      <path
         d="m 87.64881,200.64326 h 5.72352 c -0.2603,-0.53028 -0.57561,-1.02897 -0.94951,-1.47876 H 87.6488 v 1.47876 z"
         fill="#ffffff"
         stroke-width="0"
         id="path288"
         style="fill:#4d4d4d" />
      <path
         d="m 85.80966,204.48764 h -6.45297 c 0.0405,0.50939 0.13117,1.0035 0.26947,1.47825 h 6.1835 z"
         fill="#ffffff"
         stroke-width="0"
         id="path290"
         style="fill:#4d4d4d" />
      <path
         d="m 87.64881,205.96589 h 6.1835 c 0.1383,-0.47475 0.22897,-0.96886 0.26947,-1.47825 h -6.45297 z"
         fill="#ffffff"
         stroke-width="0"
         id="path292"
         style="fill:#4d4d4d" />
    </g>
    <g
       id="g316"
       transform="scale(0.33866667)"
       style="fill:#4d4d4d">
      <path
         d="m 121.92444,211.29687 c 0.0784,0 0.15435,-0.01 0.23203,-0.0117 h -0.46406 c 0.0777,0.002 0.15358,0.0117 0.23203,0.0117 z"
         fill="none"
         stroke-width="0"
         id="path296"
         style="fill:#4d4d4d" />
      <path
         d="m 121.92444,196.4914 c -0.08,0 -0.15766,0.009 -0.23712,0.0117 h 0.47424 c -0.0795,-0.003 -0.15715,-0.0117 -0.23712,-0.0117 z"
         fill="none"
         stroke-width="0"
         id="path298"
         style="fill:#4d4d4d" />
      <path
         d="m 122.16157,196.50312 h -0.47424 c -1.57657,0.0504 -3.02553,0.59191 -4.20401,1.47876 h 8.88251 c -1.17873,-0.88685 -2.6277,-1.42833 -4.20426,-1.47876 z"
         fill="#ffffff"
         stroke-width="0"
         id="path300"
         style="fill:#4d4d4d" />
      <path
         d="m 129.02867,201.82626 h -14.2082 c -0.13805,0.47526 -0.22846,0.96937 -0.2687,1.47876 h 14.74561 c -0.0402,-0.50939 -0.13066,-1.0035 -0.2687,-1.47876 z"
         fill="#ffffff"
         stroke-width="0"
         id="path302"
         style="fill:#4d4d4d" />
      <path
         d="m 115.28351,207.14889 c 0.26055,0.53079 0.57689,1.02897 0.95129,1.47876 h 11.3793 c 0.37466,-0.44979 0.69073,-0.94798 0.95154,-1.47876 z"
         fill="#ffffff"
         stroke-width="0"
         id="path304"
         style="fill:#4d4d4d" />
      <path
         d="m 121.69242,211.28515 h 0.46406 c 1.5786,-0.0494 3.02935,-0.59089 4.20936,-1.47876 h -8.88251 c 1.17975,0.88787 2.6305,1.42935 4.2091,1.47876 z"
         fill="#ffffff"
         stroke-width="0"
         id="path306"
         style="fill:#4d4d4d" />
      <path
         d="m 121.00499,199.16469 h -4.77402 c -0.37415,0.44979 -0.68921,0.94849 -0.94925,1.47876 h 5.72327 z"
         fill="#ffffff"
         stroke-width="0"
         id="path308"
         style="fill:#4d4d4d" />
      <path
         d="m 122.84415,200.64345 h 5.72352 c -0.2603,-0.53028 -0.57561,-1.02897 -0.94951,-1.47876 h -4.77402 v 1.47876 z"
         fill="#ffffff"
         stroke-width="0"
         id="path310"
         style="fill:#4d4d4d" />
      <path
         d="m 121.00499,204.48783 h -6.45297 c 0.0405,0.50939 0.13117,1.0035 0.26947,1.47825 h 6.1835 z"
         fill="#ffffff"
         stroke-width="0"
         id="path312"
         style="fill:#4d4d4d" />
      <path
         d="m 122.84415,205.96608 h 6.1835 c 0.1383,-0.47475 0.22897,-0.96886 0.26947,-1.47825 h -6.45297 z"
         fill="#ffffff"
         stroke-width="0"
         id="path314"
         style="fill:#4d4d4d" />
    </g>
    <path
       d="m 64.209534,59.287841 c -2.701395,0 -4.904486,2.152023 -4.998591,4.830927 h -1.049487 c -0.09419,-2.776416 -2.376292,-5.007562 -5.175247,-5.007562 -0.262223,0 -0.517801,0.02587 -0.769671,0.06361 C 51.510957,57.285857 50.44163,55.587179 49.0315,54.126933 l -0.254284,0.245313 c 1.361219,1.409548 2.395958,3.046595 3.084464,4.865367 -2.319105,0.515515 -4.059686,2.585723 -4.059686,5.057807 0,2.471952 1.740493,4.541967 4.059425,5.05757 -0.68833,1.817608 -1.72255,3.454096 -3.082825,4.863189 l 0.254284,0.245314 c 1.40944,-1.459965 2.478163,-3.157932 3.183399,-5.045666 0.25187,0.03778 0.507621,0.06364 0.769929,0.06364 2.798951,0 5.081053,-2.23097 5.175246,-5.00739 h 1.049488 c 0.09419,2.67882 2.297196,4.830823 4.998591,4.830823 2.761,0 5.007475,-2.246498 5.007475,-5.007519 0,-2.76102 -2.246478,-5.007539 -5.007475,-5.007539 z m -11.223325,9.838317 c -2.663786,0 -4.830907,-2.167121 -4.830907,-4.830734 0,-2.663786 2.167121,-4.830908 4.830907,-4.830908 2.663786,0 4.830907,2.167122 4.830907,4.830908 0,2.663613 -2.167121,4.830734 -4.830907,4.830734 z m 11.223325,-0.134474 c -2.589608,0 -4.696348,-2.106696 -4.696348,-4.696304 0,-2.589608 2.10674,-4.696325 4.696348,-4.696325 2.589608,0 4.696349,2.106696 4.696349,4.696325 0,2.589628 -2.106741,4.696304 -4.696349,4.696304 z"
       fill="#ffffff"
       stroke-width="0"
       id="path318" />
    <path
       d="m 56.930914,49.433521 0.253597,-0.246004 C 55.547183,47.49757 54.343033,45.415671 53.702489,43.166955 l -0.339852,0.09695 c 0.656414,2.304441 1.890407,4.437922 3.568277,6.169617 z"
       fill="#ffffff"
       stroke-width="0"
       id="path320" />
    <path
       d="m 57.19693,29.295453 -0.253597,-0.246004 c -1.688911,1.738941 -2.928942,3.883114 -3.585701,6.200668 l 0.339852,0.09626 c 0.640889,-2.261312 1.850901,-4.353733 3.499446,-6.050927 z"
       fill="#ffffff"
       stroke-width="0"
       id="path322" />
    <path
       d="m 13.4091,49.187517 0.253597,0.246004 c 1.67787,-1.731694 2.911863,-3.865175 3.568277,-6.169616 l -0.339852,-0.09695 c -0.640544,2.248719 -1.84469,4.330618 -3.482022,6.020562 z"
       fill="#ffffff"
       stroke-width="0"
       id="path324" />
    <path
       d="M 17.235976,35.250117 C 16.579217,32.932563 15.339185,30.78839 13.650275,29.049449 l -0.253597,0.246004 c 1.648545,1.69719 2.858557,3.789612 3.499446,6.050927 z"
       fill="#ffffff"
       stroke-width="0"
       id="path326" />
    <path
       d="m 49.959281,16.866687 -0.199427,-0.291548 c -3.164078,2.161771 -6.683709,3.555858 -10.460899,4.143441 l 0.05417,0.349169 c 3.829808,-0.595691 7.398258,-2.009096 10.606156,-4.201058 z"
       fill="#ffffff"
       stroke-width="0"
       id="path328" />
    <path
       d="M 31.371422,20.720474 C 27.595956,20.134963 24.077534,18.743636 20.913629,16.585486 l -0.199082,0.291893 c 3.207553,2.187993 6.774966,3.598642 10.602705,4.19226 l 0.05417,-0.349169 z"
       fill="#ffffff"
       stroke-width="0"
       id="path330" />
    <path
       d="M 57.184507,79.435934 56.93091,79.18993 c -1.67787,1.731694 -2.911862,3.865175 -3.568276,6.169616 l 0.339852,0.09695 c 0.640544,-2.248719 1.84469,-4.330619 3.482021,-6.020562 z"
       fill="#ffffff"
       stroke-width="0"
       id="path332" />
    <path
       d="m 53.357632,93.373334 c 0.656932,2.317723 1.89679,4.461899 3.585701,6.200495 L 57.19693,99.327825 C 55.548558,97.63098 54.338546,95.538558 53.697484,93.277071 Z"
       fill="#ffffff"
       stroke-width="0"
       id="path334" />
    <path
       d="m 13.662694,79.18993 -0.253597,0.246004 c 1.637328,1.689946 2.841478,3.771846 3.482022,6.020562 l 0.339852,-0.09695 c -0.656414,-2.30444 -1.890407,-4.437922 -3.568277,-6.169616 z"
       fill="#ffffff"
       stroke-width="0"
       id="path336" />
    <path
       d="m 13.396678,99.327825 0.253597,0.246004 c 1.68891,-1.738596 2.928769,-3.882769 3.585701,-6.200495 l -0.339852,-0.09626 c -0.641062,2.261484 -1.851074,4.353906 -3.499446,6.050754 z"
       fill="#ffffff"
       stroke-width="0"
       id="path338" />
    <path
       d="m 39.298955,107.9047 c 3.777021,0.58758 7.296648,1.98184 10.460899,4.14378 l 0.199427,-0.29189 c -3.20824,-2.19196 -6.77652,-3.60519 -10.606156,-4.20106 z"
       fill="#ffffff"
       stroke-width="0"
       id="path340" />
    <path
       d="m 20.714547,111.7459 0.199082,0.29189 c 3.163905,-2.15815 6.682499,-3.5493 10.457793,-4.13482 l -0.05417,-0.34916 c -3.827739,0.59379 -7.394983,2.00426 -10.602705,4.19208 z"
       fill="#ffffff"
       stroke-width="0"
       id="path342" />
    <path
       d="m 21.843133,74.216179 c -1.358287,-1.406851 -2.391217,-3.040451 -3.079459,-4.854583 2.335927,-0.502856 4.092807,-2.582188 4.092807,-5.066172 0,-2.484137 -1.757141,-4.563747 -4.093237,-5.066454 0.688591,-1.815277 1.722036,-3.449438 3.081098,-4.85672 l -0.254284,-0.245313 c -1.408837,1.458843 -2.477299,3.155777 -3.182969,5.04256 -0.240745,-0.03439 -0.484764,-0.05829 -0.734822,-0.05829 -2.798951,0 -5.081053,2.231143 -5.175247,5.007563 h -0.985659 c -0.09419,-2.702171 -2.3159987,-4.872956 -5.0406838,-4.872956 -2.7843752,0 -5.0496556,2.26528 -5.0496556,5.049655 0,2.784202 2.2652804,5.04931 5.0496556,5.04931 2.7247697,0 4.9465788,-2.170633 5.0406838,-4.872699 h 0.985659 c 0.09419,2.776417 2.376292,5.00739 5.175247,5.00739 0.250231,0 0.494426,-0.02388 0.735255,-0.05833 0.705152,1.885622 1.7731,3.581776 3.18133,5.040363 L 21.843137,74.21619 Z M 6.4706772,68.991467 c -2.589608,0 -4.6963483,-2.106568 -4.6963483,-4.696003 0,-2.589608 2.1067403,-4.696348 4.6963483,-4.696348 2.5896079,0 4.6963478,2.10674 4.6963478,4.696348 0,2.589435 -2.1067399,4.696003 -4.6963478,4.696003 z m 11.2015868,0.134691 c -2.663787,0 -4.830908,-2.167121 -4.830908,-4.830734 0,-2.663786 2.167121,-4.830908 4.830908,-4.830908 2.663786,0 4.830907,2.167122 4.830907,4.830908 0,2.663613 -2.167121,4.830734 -4.830907,4.830734 z"
       fill="#ffffff"
       stroke-width="0"
       id="path344" />
    <path
       d="m 27.948572,56.678783 -0.891208,-1.530394 -0.305349,0.177688 0.889224,1.527052 c -0.881462,0.570203 -1.467318,1.559892 -1.467318,2.685545 0,1.76361 1.434799,3.198409 3.198409,3.198409 1.76361,0 3.198409,-1.434799 3.198409,-3.198409 0,-1.76361 -1.434799,-3.198493 -3.198409,-3.198493 -0.511935,0 -0.994369,0.123887 -1.423758,0.338602 z m 4.268859,2.859891 c 0,1.571258 -1.273843,2.845098 -2.845098,2.845098 -1.57143,0 -2.845098,-1.273844 -2.845098,-2.845098 0,-1.571254 1.273671,-2.845186 2.845098,-2.845186 1.571258,0 2.845098,1.273929 2.845098,2.845186 z"
       fill="#ffffff"
       stroke-width="0"
       id="path346" />
    <path
       d="m 41.291747,62.737018 c 1.763695,0 3.198494,-1.434798 3.198494,-3.198408 0,-1.121038 -0.580854,-2.107516 -1.456362,-2.67882 l 0.873439,-1.535267 -0.307076,-0.174583 -0.87292,1.534424 C 42.295,56.466006 41.808339,56.340113 41.291747,56.340113 c -1.76361,0 -3.198408,1.434883 -3.198408,3.198493 0,1.76361 1.434798,3.198409 3.198408,3.198409 z m 0,-6.043594 c 1.571343,0 2.845187,1.273928 2.845187,2.845186 0,1.571257 -1.273844,2.845098 -2.845187,2.845098 -1.571342,0 -2.845098,-1.273844 -2.845098,-2.845098 0,-1.571254 1.273756,-2.845186 2.845098,-2.845186 z"
       fill="#ffffff"
       stroke-width="0"
       id="path348" />
    <path
       d="m 35.300599,58.100987 c 1.76361,0 3.198408,-1.434799 3.198408,-3.198409 0,-1.704245 -1.340778,-3.097317 -3.022271,-3.189566 v -1.55614 h -0.353307 v 1.556184 c -1.681149,0.09279 -3.021324,1.485626 -3.021324,3.189522 0,1.76361 1.434799,3.198409 3.198494,3.198409 z m 0,-6.043595 c 1.571342,0 2.845098,1.273844 2.845098,2.845186 0,1.571258 -1.273756,2.845098 -2.845098,2.845098 -1.571343,0 -2.845186,-1.273844 -2.845186,-2.845098 0,-1.571342 1.273843,-2.845186 2.845186,-2.845186 z"
       fill="#ffffff"
       stroke-width="0"
       id="path350" />
    <path
       d="m 35.300514,70.489817 c -1.76361,0 -3.198409,1.434798 -3.198409,3.198408 0,1.703836 1.34026,3.09669 3.021324,3.189438 v 1.556312 h 0.353307 v -1.556268 c 1.681578,-0.09229 3.022271,-1.485345 3.022271,-3.189482 0,-1.76361 -1.434798,-3.198408 -3.198493,-3.198408 z m 0,6.043506 c -1.571342,0 -2.845098,-1.273844 -2.845098,-2.845098 0,-1.57143 1.273756,-2.845098 2.845098,-2.845098 1.571342,0 2.845186,1.273671 2.845186,2.845098 0,1.571258 -1.273844,2.845098 -2.845186,2.845098 z"
       fill="#ffffff"
       stroke-width="0"
       id="path352" />
    <path
       d="m 29.37233,65.853697 c -1.76361,0 -3.198409,1.434798 -3.198409,3.198408 0,1.125674 0.585856,2.115343 1.467402,2.685502 l -0.889308,1.527156 0.305349,0.177688 0.891208,-1.530478 c 0.429389,0.21467 0.911907,0.338538 1.423758,0.338538 1.76361,0 3.198409,-1.434799 3.198409,-3.198409 0,-1.76361 -1.434799,-3.198409 -3.198409,-3.198409 z m 0,6.04351 c -1.57143,0 -2.845098,-1.273844 -2.845098,-2.845098 0,-1.57143 1.273671,-2.845098 2.845098,-2.845098 1.571258,0 2.845098,1.273671 2.845098,2.845098 0,1.571257 -1.273844,2.845098 -2.845098,2.845098 z"
       fill="#ffffff"
       stroke-width="0"
       id="path354" />
    <path
       d="m 42.727237,71.906371 0.873008,1.534533 0.307076,-0.174583 -0.873438,-1.535352 c 0.875507,-0.57128 1.456361,-1.557735 1.456361,-2.678796 0,-1.76361 -1.434798,-3.198409 -3.198493,-3.198409 -1.763695,0 -3.198409,1.434799 -3.198409,3.198409 0,1.76361 1.434799,3.198409 3.198409,3.198409 0.516507,0 1.003168,-0.125869 1.435489,-0.344207 z M 38.446649,69.05217 c 0,-1.571431 1.273756,-2.845098 2.845098,-2.845098 1.571343,0 2.845187,1.273671 2.845187,2.845098 0,1.571257 -1.273844,2.845098 -2.845187,2.845098 -1.571342,0 -2.845098,-1.273844 -2.845098,-2.845098 z"
       fill="#ffffff"
       stroke-width="0"
       id="path356" />
    <g
       id="g376"
       transform="scale(0.33866667)">
      <g
         id="g362">
        <ellipse
           cx="102.01972"
           cy="188.38226"
           rx="5.9171801"
           ry="5.8651199"
           fill="none"
           stroke="#ffffff"
           stroke-miterlimit="10"
           stroke-width="0.5"
           id="ellipse358" />
        <ellipse
           cx="107.14415"
           cy="191.31483"
           rx="5.9171801"
           ry="5.8651199"
           fill="none"
           stroke="#ffffff"
           stroke-miterlimit="10"
           stroke-width="0.5"
           id="ellipse360" />
      </g>
      <g
         id="g368">
        <ellipse
           cx="107.14415"
           cy="188.38226"
           rx="5.9171801"
           ry="5.8651199"
           fill="none"
           stroke="#ffffff"
           stroke-miterlimit="10"
           stroke-width="0.5"
           id="ellipse364" />
        <ellipse
           cx="102.01972"
           cy="191.31483"
           rx="5.9171801"
           ry="5.8651199"
           fill="none"
           stroke="#ffffff"
           stroke-miterlimit="10"
           stroke-width="0.5"
           id="ellipse366" />
      </g>
      <g
         id="g374">
        <ellipse
           cx="104.58193"
           cy="186.91599"
           rx="5.9171801"
           ry="5.8651199"
           fill="none"
           stroke="#ffffff"
           stroke-miterlimit="10"
           stroke-width="0.5"
           id="ellipse370" />
        <ellipse
           cx="104.58194"
           cy="192.78111"
           rx="5.9171801"
           ry="5.8651199"
           fill="none"
           stroke="#ffffff"
           stroke-miterlimit="10"
           stroke-width="0.5"
           id="ellipse372" />
      </g>
    </g>
    <circle
       cx="35.418415"
       cy="64.29538"
       r="3.5184622"
       fill="none"
       stroke="#ffffff"
       stroke-miterlimit="10"
       stroke-width="0.169333"
       id="circle378" />
    <rect
       x="35.166248"
       y="64.043213"
       width="0.50431871"
       height="0.50431871"
       rx="0.2417098"
       ry="0.2417098"
       fill="#ffffff"
       stroke-width="0"
       id="rect380" />
    <g
       id="g402"
       transform="scale(0.33866667)"
       style="fill:#4d4d4d">
      <path
         d="m 77.59487,256.3986 c -0.07997,0 -0.15766,0.009 -0.23712,0.0117 h 0.4745 c -0.07947,-0.003 -0.1574,-0.0117 -0.23738,-0.0117 z"
         fill="#ffffff"
         stroke-width="0"
         id="path382"
         style="fill:#4d4d4d" />
      <path
         d="m 77.83225,256.41031 h -0.4745 c -1.57657,0.0499 -3.02553,0.59191 -4.20401,1.47876 h 8.88251 c -1.17873,-0.88685 -2.6277,-1.42884 -4.20401,-1.47876 z"
         fill="#ffffff"
         stroke-width="0"
         id="path384"
         style="fill:#4d4d4d" />
      <path
         d="M 84.9678,264.39451 H 70.22244 c 0.0405,0.50939 0.13117,1.00401 0.26947,1.47876 h 14.20617 c 0.1383,-0.47475 0.22923,-0.96937 0.26972,-1.47876 z"
         fill="#ffffff"
         stroke-width="0"
         id="path386"
         style="fill:#4d4d4d" />
      <path
         d="M 84.23606,267.05608 H 70.95393 c 0.26081,0.53079 0.57689,1.02897 0.95154,1.47876 h 11.3793 c 0.3744,-0.44979 0.69048,-0.94798 0.95129,-1.47876 z"
         fill="#ffffff"
         stroke-width="0"
         id="path388"
         style="fill:#4d4d4d" />
      <path
         d="M 76.67542,259.07188 H 71.9014 c -0.37389,0.44979 -0.68921,0.94798 -0.94951,1.47876 h 5.72352 v -1.47876 z"
         fill="#ffffff"
         stroke-width="0"
         id="path390"
         style="fill:#4d4d4d" />
      <path
         d="m 78.51483,260.55065 h 5.72327 c -0.2603,-0.53079 -0.57536,-1.02897 -0.94951,-1.47876 h -4.77376 z"
         fill="#ffffff"
         stroke-width="0"
         id="path392"
         style="fill:#4d4d4d" />
      <path
         d="M 76.67542,261.73345 H 70.4909 c -0.13805,0.47475 -0.22846,0.96886 -0.2687,1.47825 h 6.45323 v -1.47825 z"
         fill="#ffffff"
         stroke-width="0"
         id="path394"
         style="fill:#4d4d4d" />
      <path
         d="m 78.51483,263.21171 h 6.45297 c -0.04024,-0.50939 -0.13066,-1.0035 -0.2687,-1.47825 h -6.18427 z"
         fill="#ffffff"
         stroke-width="0"
         id="path396"
         style="fill:#4d4d4d" />
      <path
         d="m 73.15374,269.71358 c 1.00656,0.75747 2.20923,1.26431 3.52168,1.42732 v -1.42732 z"
         fill="#ffffff"
         stroke-width="0"
         id="path398"
         style="fill:#4d4d4d" />
      <path
         d="m 78.51483,269.71358 v 1.42732 c 1.31245,-0.16301 2.51487,-0.66985 3.52142,-1.42732 z"
         fill="#ffffff"
         stroke-width="0"
         id="path400"
         style="fill:#4d4d4d" />
    </g>
    <path
       d="m 26.27884,86.495633 c 1.571342,0 2.845186,1.273672 2.845186,2.845099 0,1.571257 -1.273844,2.845098 -2.845186,2.845098 -1.571342,0 -2.845098,-1.273844 -2.845098,-2.845098 0,-1.571431 1.273756,-2.845099 2.845098,-2.845099 m 0,-0.353307 c -1.76361,0 -3.198408,1.434799 -3.198408,3.198409 0,1.76361 1.434798,3.198409 3.198408,3.198409 1.76361,0 3.198494,-1.434799 3.198494,-3.198409 0,-1.76361 -1.434799,-3.198409 -3.198494,-3.198409 z"
       fill="#ffffff"
       stroke-width="0"
       id="path404" />
    <g
       id="g426"
       transform="scale(0.33866667)"
       style="fill:#4d4d4d">
      <path
         d="M 110.01432,83.2734 H 98.62713 c -0.37389,0.44979 -0.68921,0.94798 -0.94925,1.47825 h 13.28569 c -0.26004,-0.53028 -0.5751,-1.02846 -0.94925,-1.47825 z"
         fill="#ffffff"
         stroke-width="0"
         id="path406"
         style="fill:#4d4d4d" />
      <path
         d="m 111.42483,85.93446 h -14.2082 c -0.13805,0.47526 -0.22846,0.96937 -0.2687,1.47876 h 14.74561 c -0.0402,-0.50939 -0.13066,-1.0035 -0.2687,-1.47876 z"
         fill="#ffffff"
         stroke-width="0"
         id="path408"
         style="fill:#4d4d4d" />
      <path
         d="m 103.40115,80.66277 c -1.3127,0.16301 -2.51538,0.67036 -3.52219,1.42782 h 3.52219 z"
         fill="#ffffff"
         stroke-width="0"
         id="path410"
         style="fill:#4d4d4d" />
      <path
         d="m 108.76249,82.0906 c -1.00656,-0.75747 -2.20923,-1.26482 -3.52193,-1.42782 v 1.42782 z"
         fill="#ffffff"
         stroke-width="0"
         id="path412"
         style="fill:#4d4d4d" />
      <path
         d="m 105.24056,88.59603 v 1.47876 h 6.18325 c 0.1383,-0.47526 0.22923,-0.96937 0.26972,-1.47876 z"
         fill="#ffffff"
         stroke-width="0"
         id="path414"
         style="fill:#4d4d4d" />
      <path
         d="m 103.40115,88.59603 h -6.45297 c 0.0405,0.50939 0.13117,1.0035 0.26947,1.47876 h 6.1835 z"
         fill="#ffffff"
         stroke-width="0"
         id="path416"
         style="fill:#4d4d4d" />
      <path
         d="m 103.40115,91.25761 h -5.72149 c 0.26081,0.53079 0.57689,1.02897 0.95154,1.47876 h 4.76994 v -1.47876 z"
         fill="#ffffff"
         stroke-width="0"
         id="path418"
         style="fill:#4d4d4d" />
      <path
         d="m 105.24056,92.73637 h 4.76994 c 0.37466,-0.44979 0.69073,-0.94798 0.95129,-1.47876 h -5.72123 z"
         fill="#ffffff"
         stroke-width="0"
         id="path420"
         style="fill:#4d4d4d" />
      <path
         d="m 105.24056,95.34191 c 1.31219,-0.16301 2.51487,-0.66934 3.52117,-1.42681 h -3.52117 z"
         fill="#ffffff"
         stroke-width="0"
         id="path422"
         style="fill:#4d4d4d" />
      <path
         d="m 99.87972,93.9151 c 1.00656,0.75747 2.20898,1.26431 3.52142,1.42732 V 93.9151 Z"
         fill="#ffffff"
         stroke-width="0"
         id="path424"
         style="fill:#4d4d4d" />
    </g>
    <path
       d="m 35.329954,26.958497 c 1.571342,0 2.845186,1.273671 2.845186,2.845098 0,1.571257 -1.273844,2.845098 -2.845186,2.845098 -1.571342,0 -2.845098,-1.273844 -2.845098,-2.845098 0,-1.57143 1.273756,-2.845098 2.845098,-2.845098 m 0,-0.353307 c -1.76361,0 -3.198408,1.434798 -3.198408,3.198408 0,1.76361 1.434798,3.198409 3.198408,3.198409 1.76361,0 3.198494,-1.434799 3.198494,-3.198409 0,-1.76361 -1.434799,-3.198408 -3.198494,-3.198408 z"
       fill="#ffffff"
       stroke-width="0"
       id="path428" />
    <g
       id="g442"
       transform="scale(0.33866667)">
      <path
         d="m 92.32359,23.34847 c -0.07335,0.62757 -0.30513,1.11149 -0.69481,1.45278 -0.38968,0.34129 -0.90825,0.51143 -1.55466,0.51143 -0.70092,0 -1.26278,-0.25164 -1.68507,-0.7539 -0.42229,-0.50226 -0.63368,-1.17466 -0.63368,-2.01719 v -0.57052 c 0,-0.55116 0.09831,-1.0361 0.29545,-1.45482 0.19714,-0.41872 0.47628,-0.73964 0.83744,-0.96377 0.36116,-0.22413 0.77988,-0.3362 1.25514,-0.3362 0.63012,0 1.13543,0.17625 1.51595,0.52773 0.38052,0.35148 0.60159,0.83846 0.66425,1.46093 h -0.7865 c -0.06775,-0.47373 -0.21547,-0.81706 -0.44215,-1.02999 -0.22668,-0.21293 -0.54403,-0.31888 -0.95154,-0.31888 -0.49971,0 -0.89194,0.18542 -1.17568,0.55422 -0.28373,0.37084 -0.42585,0.89653 -0.42585,1.57911 v 0.57459 c 0,0.64489 0.13448,1.15734 0.40344,1.53836 0.26896,0.38001 0.6454,0.57052 1.12881,0.57052 0.43451,0 0.76816,-0.09882 1.00044,-0.29545 0.23228,-0.19663 0.38663,-0.53995 0.46253,-1.02897 h 0.7865 z"
         fill="#ffffff"
         stroke-width="0"
         id="path430" />
      <path
         d="m 97.95542,22.45602 c 0,0.58173 -0.0978,1.08908 -0.29341,1.52206 -0.19561,0.43298 -0.47272,0.76409 -0.83133,0.99229 -0.35861,0.2282 -0.77682,0.34231 -1.25514,0.34231 -0.46711,0 -0.88176,-0.11512 -1.24292,-0.34435 -0.36116,-0.22923 -0.64183,-0.55727 -0.84151,-0.98211 -0.19968,-0.42484 -0.30207,-0.91792 -0.30767,-1.47724 v -0.42789 c 0,-0.57052 0.09933,-1.07482 0.29748,-1.51187 0.19815,-0.43705 0.47883,-0.77224 0.84151,-1.00452 0.36268,-0.23228 0.77784,-0.34842 1.24495,-0.34842 0.47526,0 0.89449,0.11512 1.25718,0.34435 0.36269,0.22923 0.64183,0.56237 0.83744,0.99841 0.19561,0.43604 0.29341,0.94339 0.29341,1.52206 v 0.37491 z m -0.77835,-0.38307 c 0,-0.70398 -0.1411,-1.24393 -0.42381,-1.61986 -0.28271,-0.37593 -0.678,-0.56441 -1.18586,-0.56441 -0.49462,0 -0.88379,0.18847 -1.16753,0.56441 -0.28374,0.37594 -0.42993,0.89857 -0.43808,1.56689 v 0.43604 c 0,0.68157 0.14314,1.21745 0.42993,1.60764 0.28679,0.39019 0.68106,0.58478 1.18383,0.58478 0.50532,0 0.89653,-0.1844 1.17364,-0.55218 0.27711,-0.36778 0.41974,-0.89551 0.42789,-1.58319 v -0.44011 z"
         fill="#ffffff"
         stroke-width="0"
         id="path432" />
      <path
         d="m 100.87729,22.58642 c -0.67087,-0.19255 -1.15938,-0.42993 -1.46501,-0.71111 -0.30563,-0.28118 -0.45845,-0.62859 -0.45845,-1.0412 0,-0.46762 0.18695,-0.85374 0.56033,-1.15938 0.37338,-0.30564 0.85934,-0.45845 1.45686,-0.45845 0.40751,0 0.77071,0.07845 1.0901,0.23636 0.31939,0.15791 0.56644,0.37491 0.74167,0.65202 0.17523,0.27711 0.26285,0.57969 0.26285,0.90875 h -0.7865 c 0,-0.35963 -0.1141,-0.64285 -0.34231,-0.84865 -0.22821,-0.2058 -0.55014,-0.30869 -0.96581,-0.30869 -0.38561,0 -0.68666,0.08558 -0.90264,0.2547 -0.21598,0.17116 -0.32397,0.40649 -0.32397,0.70907 0,0.24247 0.10239,0.44725 0.30767,0.61433 0.20528,0.16708 0.55422,0.3199 1.04731,0.45947 0.49309,0.13855 0.8787,0.29137 1.15734,0.45845 0.27864,0.16708 0.48494,0.36167 0.61942,0.58478 0.13448,0.22311 0.20172,0.48494 0.20172,0.7865 0,0.48087 -0.18746,0.86597 -0.56237,1.1553 -0.37491,0.28933 -0.87615,0.434 -1.50372,0.434 -0.40751,0 -0.78803,-0.07845 -1.14104,-0.23432 -0.35301,-0.15587 -0.62553,-0.36982 -0.81706,-0.64183 -0.19153,-0.27201 -0.2873,-0.57969 -0.2873,-0.92505 h 0.7865 c 0,0.35861 0.13244,0.64183 0.39733,0.84967 0.26489,0.20784 0.61891,0.31175 1.06157,0.31175 0.41312,0 0.72945,-0.08456 0.94951,-0.25266 0.22006,-0.1681 0.33009,-0.39834 0.33009,-0.6887 0,-0.29036 -0.10188,-0.5155 -0.30563,-0.67443 -0.20375,-0.15893 -0.57307,-0.31582 -1.10844,-0.47068 z"
         fill="#ffffff"
         stroke-width="0"
         id="path434" />
      <path
         d="m 105.09098,19.29779 1.93976,4.84126 1.93976,-4.84126 h 1.01471 v 5.93339 h -0.78243 v -2.3106 l 0.0733,-2.49398 -1.94791,4.80458 h -0.59904 l -1.94384,-4.79236 0.0774,2.48176 v 2.3106 h -0.78243 v -5.93339 h 1.01063 z"
         fill="#ffffff"
         stroke-width="0"
         id="path436" />
      <path
         d="m 115.93083,22.45602 c 0,0.58173 -0.0978,1.08908 -0.29341,1.52206 -0.19561,0.43298 -0.47272,0.76409 -0.83133,0.99229 -0.35861,0.2282 -0.77682,0.34231 -1.25514,0.34231 -0.46711,0 -0.88176,-0.11512 -1.24292,-0.34435 -0.36116,-0.22923 -0.64183,-0.55727 -0.84151,-0.98211 -0.19968,-0.42484 -0.30207,-0.91792 -0.30767,-1.47724 v -0.42789 c 0,-0.57052 0.0993,-1.07482 0.29748,-1.51187 0.19815,-0.43705 0.47883,-0.77224 0.84151,-1.00452 0.36268,-0.23228 0.77784,-0.34842 1.24495,-0.34842 0.47526,0 0.89449,0.11512 1.25718,0.34435 0.36269,0.22923 0.64183,0.56237 0.83744,0.99841 0.19561,0.43604 0.29341,0.94339 0.29341,1.52206 v 0.37491 z m -0.77835,-0.38307 c 0,-0.70398 -0.1411,-1.24393 -0.42381,-1.61986 -0.28271,-0.37593 -0.678,-0.56441 -1.18586,-0.56441 -0.49462,0 -0.88379,0.18847 -1.16753,0.56441 -0.28374,0.37594 -0.42993,0.89857 -0.43808,1.56689 v 0.43604 c 0,0.68157 0.14314,1.21745 0.42993,1.60764 0.28679,0.39019 0.68106,0.58478 1.18383,0.58478 0.50532,0 0.89653,-0.1844 1.17364,-0.55218 0.27711,-0.36778 0.41974,-0.89551 0.42789,-1.58319 v -0.44011 z"
         fill="#ffffff"
         stroke-width="0"
         id="path438" />
      <path
         d="m 118.8527,22.58642 c -0.67087,-0.19255 -1.15938,-0.42993 -1.46501,-0.71111 -0.30563,-0.28118 -0.45845,-0.62859 -0.45845,-1.0412 0,-0.46762 0.18695,-0.85374 0.56033,-1.15938 0.37338,-0.30564 0.85934,-0.45845 1.45686,-0.45845 0.40751,0 0.77071,0.07845 1.0901,0.23636 0.31939,0.15791 0.56644,0.37491 0.74167,0.65202 0.17523,0.27711 0.26285,0.57969 0.26285,0.90875 h -0.7865 c 0,-0.35963 -0.1141,-0.64285 -0.34231,-0.84865 -0.22821,-0.2058 -0.55014,-0.30869 -0.96581,-0.30869 -0.38561,0 -0.68666,0.08558 -0.90264,0.2547 -0.21598,0.17116 -0.32397,0.40649 -0.32397,0.70907 0,0.24247 0.10239,0.44725 0.30767,0.61433 0.20528,0.16708 0.55422,0.3199 1.04731,0.45947 0.49309,0.13855 0.8787,0.29137 1.15734,0.45845 0.27864,0.16708 0.48494,0.36167 0.61942,0.58478 0.13448,0.22311 0.20172,0.48494 0.20172,0.7865 0,0.48087 -0.18746,0.86597 -0.56237,1.1553 -0.37491,0.28933 -0.87615,0.434 -1.50372,0.434 -0.40751,0 -0.78803,-0.07845 -1.14104,-0.23432 -0.35301,-0.15587 -0.62553,-0.36982 -0.81706,-0.64183 -0.19153,-0.27201 -0.2873,-0.57969 -0.2873,-0.92505 h 0.7865 c 0,0.35861 0.13244,0.64183 0.39733,0.84967 0.26489,0.20784 0.61891,0.31175 1.06157,0.31175 0.41312,0 0.72945,-0.08456 0.94951,-0.25266 0.22006,-0.1681 0.33009,-0.39834 0.33009,-0.6887 0,-0.29036 -0.10188,-0.5155 -0.30563,-0.67443 -0.20375,-0.15893 -0.57307,-0.31582 -1.10844,-0.47068 z"
         fill="#ffffff"
         stroke-width="0"
         id="path440" />
    </g>
    <g
       id="g464"
       transform="scale(0.33866667)">
      <path
         d="m 79.34444,360.17837 v -5.75626 h 2.01627 c 0.69818,0 1.22795,0.13363 1.5893,0.40167 0.36135,0.26725 0.54163,0.65944 0.54163,1.17576 0,0.28228 -0.07274,0.53056 -0.21744,0.74563 -0.1447,0.21428 -0.34632,0.37163 -0.60488,0.47204 0.29493,0.0735 0.52739,0.22298 0.69818,0.44674 0.16921,0.22377 0.2546,0.49814 0.2546,0.82232 0,0.55349 -0.17632,0.97255 -0.52977,1.2572 -0.35345,0.28465 -0.85632,0.42935 -1.51023,0.43488 h -2.23767 z m 1.18604,-3.34464 h 0.87767 c 0.59856,-0.0103 0.89744,-0.24907 0.89744,-0.71558 0,-0.26093 -0.07591,-0.44832 -0.22693,-0.56377 -0.15181,-0.11386 -0.39139,-0.17158 -0.71795,-0.17158 h -0.83023 v 1.45092 z m 0,0.83814 v 1.55372 h 1.01604 c 0.27912,0 0.49735,-0.0664 0.6539,-0.20005 0.15735,-0.13284 0.23563,-0.31628 0.23563,-0.55111 0,-0.52739 -0.27279,-0.79465 -0.81837,-0.80256 h -1.08721 z"
         fill="#ffffff"
         stroke-width="0"
         id="path444" />
      <path
         d="m 85.69767,359.22558 h 2.51836 v 0.95279 h -3.7044 v -5.75626 h 1.18604 z"
         fill="#ffffff"
         stroke-width="0"
         id="path446" />
      <path
         d="m 92.2209,358.99233 h -2.07953 l -0.39535,1.18604 h -1.26116 l 2.14278,-5.75626 h 1.09907 l 2.15464,5.75626 h -1.26116 l -0.3993,-1.18604 z m -1.75929,-0.9607 h 1.43906 l -0.72349,-2.15464 -0.71558,2.15464 z"
         fill="#ffffff"
         stroke-width="0"
         id="path448" />
      <path
         d="m 98.85483,358.26093 c -0.04507,0.61911 -0.27358,1.10697 -0.68553,1.46279 -0.41274,0.35581 -0.95674,0.53372 -1.6312,0.53372 -0.73772,0 -1.31809,-0.24828 -1.7419,-0.74483 -0.42223,-0.49735 -0.63414,-1.17893 -0.63414,-2.04632 v -0.35186 c 0,-0.55349 0.09726,-1.04134 0.29256,-1.46279 0.1953,-0.42145 0.47363,-0.74563 0.83655,-0.97018 0.36214,-0.22614 0.78279,-0.33842 1.26274,-0.33842 0.66418,0 1.19948,0.17791 1.60511,0.53372 0.40563,0.35581 0.64046,0.85553 0.70372,1.49837 H 97.6767 c -0.02926,-0.37163 -0.13205,-0.64125 -0.31074,-0.80809 -0.17712,-0.16763 -0.44832,-0.25144 -0.81204,-0.25144 -0.39535,0 -0.69107,0.14153 -0.88795,0.42539 -0.19609,0.28307 -0.29651,0.72269 -0.30205,1.31809 v 0.43488 c 0,0.62228 0.09409,1.07693 0.28307,1.36395 0.18819,0.28702 0.48549,0.43093 0.89111,0.43093 0.36609,0 0.63967,-0.0838 0.81995,-0.25065 0.18107,-0.16763 0.28465,-0.42698 0.31074,-0.77725 h 1.18604 z"
         fill="#ffffff"
         stroke-width="0"
         id="path450" />
      <path
         d="m 101.43645,357.86954 -0.61674,0.66418 v 1.64464 h -1.18604 v -5.75626 h 1.18604 v 2.60929 l 0.52186,-0.71558 1.46674,-1.89371 h 1.45883 l -2.04395,2.5579 2.10325,3.19836 h -1.41139 l -1.4786,-2.30883 z"
         fill="#ffffff"
         stroke-width="0"
         id="path452" />
      <path
         d="m 111.47037,360.17837 h -1.18604 l -2.30883,-3.78743 v 3.78743 h -1.18604 v -5.75626 h 1.18604 l 2.31278,3.79533 v -3.79533 h 1.18209 z"
         fill="#ffffff"
         stroke-width="0"
         id="path454" />
      <path
         d="m 117.23453,357.4307 c 0,0.56693 -0.10042,1.06348 -0.30046,1.49046 -0.20004,0.42698 -0.48707,0.75669 -0.86028,0.98837 -0.37242,0.23167 -0.80018,0.34791 -1.28251,0.34791 -0.47679,0 -0.90297,-0.11465 -1.27697,-0.34395 -0.374,-0.2293 -0.66418,-0.55665 -0.86976,-0.98283 -0.20558,-0.42539 -0.30995,-0.91483 -0.31232,-1.46832 v -0.28465 c 0,-0.56693 0.102,-1.06507 0.30679,-1.49679 0.204,-0.43014 0.4926,-0.76144 0.86502,-0.99153 0.37321,-0.23088 0.79939,-0.34632 1.27934,-0.34632 0.47995,0 0.90614,0.11544 1.27934,0.34632 0.37242,0.23009 0.66102,0.56139 0.86502,0.99153 0.20479,0.43172 0.30679,0.92907 0.30679,1.49283 v 0.25698 z m -1.20186,-0.26093 c 0,-0.6033 -0.10833,-1.0619 -0.32418,-1.37581 -0.21585,-0.31391 -0.52423,-0.47046 -0.92511,-0.47046 -0.39772,0 -0.7053,0.15498 -0.92116,0.46493 -0.21586,0.30916 -0.32577,0.76302 -0.32814,1.36158 v 0.2807 c 0,0.58749 0.10833,1.04372 0.32418,1.3679 0.21585,0.32418 0.52739,0.48628 0.93302,0.48628 0.39772,0 0.70372,-0.15656 0.91721,-0.46809 0.21349,-0.31312 0.32181,-0.76776 0.32418,-1.36632 v -0.2807 z"
         fill="#ffffff"
         stroke-width="0"
         id="path456" />
      <path
         d="m 119.35755,360.17837 h -1.18604 v -5.75626 h 1.18604 z"
         fill="#ffffff"
         stroke-width="0"
         id="path458" />
      <path
         d="m 123.44148,358.66814 c 0,-0.22377 -0.0791,-0.39614 -0.23721,-0.51553 -0.15814,-0.12019 -0.44279,-0.2467 -0.85395,-0.37953 -0.41116,-0.13363 -0.73693,-0.26488 -0.97651,-0.39377 -0.6539,-0.35344 -0.98046,-0.82865 -0.98046,-1.4272 0,-0.31074 0.0878,-0.58828 0.26251,-0.8326 0.17553,-0.24353 0.42698,-0.43409 0.7559,-0.57088 0.32735,-0.13679 0.69581,-0.20558 1.1046,-0.20558 0.41116,0 0.77725,0.0743 1.09907,0.22298 0.32181,0.14944 0.57167,0.35977 0.74879,0.63097 0.1787,0.27121 0.26725,0.57958 0.26725,0.92511 h -1.18604 c 0,-0.2633 -0.083,-0.46809 -0.24907,-0.61516 -0.16605,-0.14549 -0.3993,-0.21902 -0.69976,-0.21902 -0.29018,0 -0.51553,0.0609 -0.67604,0.18423 -0.16051,0.12177 -0.24116,0.28386 -0.24116,0.48391 0,0.18739 0.0941,0.34395 0.28307,0.47046 0.18819,0.12651 0.46572,0.24512 0.83181,0.35581 0.67446,0.20321 1.16627,0.45465 1.47465,0.75511 0.30837,0.30046 0.46256,0.67446 0.46256,1.12279 0,0.49814 -0.18819,0.88874 -0.56535,1.17181 -0.37716,0.28386 -0.884,0.42539 -1.52209,0.42539 -0.44279,0 -0.84604,-0.0806 -1.20976,-0.24353 -0.36372,-0.1613 -0.64125,-0.38349 -0.83181,-0.66576 -0.19135,-0.28228 -0.28702,-0.60883 -0.28702,-0.98046 h 1.19 c 0,0.63493 0.37953,0.95279 1.1386,0.95279 0.28228,0 0.50209,-0.0577 0.66023,-0.17158 0.15814,-0.11544 0.23721,-0.27516 0.23721,-0.48074 z"
         fill="#ffffff"
         stroke-width="0"
         id="path460" />
      <path
         d="m 128.89728,357.68373 h -2.2772 v 1.54185 h 2.67255 v 0.95279 h -3.85859 v -5.75626 h 3.85068 v 0.96069 h -2.66464 v 1.37186 h 2.2772 z"
         fill="#ffffff"
         stroke-width="0"
         id="path462" />
    </g>
    <path
       d="m 5.3531313,73.865697 c -0.5207338,-0.884672 -1.673904,-1.187779 -2.5758038,-0.677009 -0.9018152,0.51075 -1.2108756,1.641965 -0.6901417,2.526616 0.5206458,0.884652 1.673904,1.187759 2.5758038,0.676988 0.9019032,-0.51075 1.2108756,-1.641944 0.6901417,-2.526595 z M 4.9721347,75.432254 H 4.2970874 v -1.38173 H 3.9677577 v 1.38173 H 2.468267 v -0.243742 h 1.2523657 v -1.137988 h -4.403e-4 v -0.243742 h 0.8245314 v 0.243742 h -5.08e-4 v 1.137988 h 0.4279223 v 0.243742 z"
       fill="#ffffff"
       stroke-width="0"
       id="path466" />
    <path
       d="m 4.6629896,102.25817 c -0.9018151,-0.51077 -2.0550734,-0.20766 -2.5758038,0.67701 -0.5206459,0.88465 -0.2116735,2.01584 0.6902297,2.52659 0.9019032,0.51077 2.0550734,0.20767 2.5758039,-0.67698 0.5206458,-0.88466 0.2116734,-2.01587 -0.6902298,-2.52662 z m 0.3090571,2.24358 H 4.2970874 v -1.38172 h -1.153773 v 1.38172 H 2.468267 v -0.24374 h 0.4278343 v -1.38173 h 1.6480265 v 1.38173 H 4.97205 v 0.24374 z"
       fill="#ffffff"
       stroke-width="0"
       id="path468" />
    <path
       d="m 67.88106,73.204149 c -0.901903,-0.51075 -2.055073,-0.207644 -2.575803,0.677008 -0.520646,0.884651 -0.211674,2.015869 0.690229,2.526616 0.901815,0.51075 2.055074,0.207643 2.575804,-0.677008 0.520646,-0.884652 0.211674,-2.015846 -0.69023,-2.526616 z m 0.309061,2.243588 H 66.69063 V 74.066008 H 66.3613 v 1.381729 h -0.674959 v -0.243741 h 0.427834 v -1.137988 h -6.77e-4 v -0.243742 h 0.824616 v 0.243742 h -6.77e-4 v 1.137988 h 1.252365 z"
       fill="#ffffff"
       stroke-width="0"
       id="path470"
       style="display:none" />
    <path
       d="m 68.571202,102.95064 c -0.520734,-0.88465 -1.673904,-1.18776 -2.575804,-0.67701 -0.901903,0.51077 -1.210875,1.64197 -0.690141,2.52662 0.520645,0.88465 1.673904,1.18776 2.575803,0.67701 0.901816,-0.51075 1.210876,-1.64197 0.690142,-2.52662 z m -0.381081,1.56658 h -0.674959 v -1.38173 h -1.153773 v 1.38173 h -0.675048 v -0.24372 h 0.427922 v -1.38175 h 1.648027 v 1.38175 h 0.427834 v 0.24372 z"
       fill="#ffffff"
       stroke-width="0"
       id="path472" />
    <path
       d="m 67.885287,52.202995 c -0.901815,-0.51075 -2.055073,-0.207643 -2.575804,0.677008 -0.520646,0.884652 -0.211673,2.015869 0.69023,2.526616 0.901815,0.51077 2.055073,0.207664 2.575804,-0.677008 0.520646,-0.884652 0.211673,-2.015846 -0.69023,-2.526616 z m 0.30906,2.243585 h -1.49949 v -1.381729 h -0.32933 v 1.381729 h -0.674959 v -0.243741 h 0.427834 v -1.137988 h -3.39e-4 v -0.243742 h 0.824532 v 0.243742 h -3.39e-4 v 1.137988 h 1.252278 v 0.243741 z"
       fill="#ffffff"
       stroke-width="0"
       id="path474" />
    <path
       d="m 68.575429,23.810522 c -0.520646,-0.884651 -1.673904,-1.187758 -2.575804,-0.677008 -0.901903,0.51077 -1.210876,1.641965 -0.690142,2.526616 0.520646,0.884672 1.673904,1.187779 2.575804,0.677008 0.901815,-0.51075 1.210876,-1.641964 0.690142,-2.526616 z m -0.381082,1.566601 h -0.674959 v -1.38175 h -1.153773 v 1.38175 h -0.674959 v -0.243741 h 0.427834 v -1.38173 h 1.648027 v 1.38173 h 0.427834 v 0.243741 z"
       fill="#ffffff"
       stroke-width="0"
       id="path476" />
    <path
       d="m 13.673907,117.70256 c -0.901815,-0.51075 -2.055073,-0.20764 -2.575804,0.67701 -0.520645,0.88465 -0.211673,2.01587 0.69023,2.52662 0.901903,0.51077 2.055074,0.20766 2.575804,-0.67701 0.520646,-0.88465 0.211673,-2.01584 -0.69023,-2.52662 z m 0.309061,2.24361 h -0.67496 v -1.38175 h -1.153773 v 1.38175 h -0.675047 v -0.24374 h 0.427834 v -1.38173 h 1.648027 v 1.38173 h 0.427922 v 0.24374 z"
       fill="#ffffff"
       stroke-width="0"
       id="path478" />
    <path
       d="m 59.560284,118.38984 c -0.520733,-0.88467 -1.673988,-1.18776 -2.575803,-0.67701 -0.901904,0.51075 -1.210876,1.64196 -0.69023,2.52662 0.520734,0.88465 1.673989,1.18775 2.575804,0.677 0.901903,-0.51077 1.210875,-1.64196 0.690229,-2.52661 z m -0.381084,1.56655 h -0.674959 v -1.38172 h -0.32933 v 1.38172 H 56.67542 v -0.24374 h 1.252366 v -1.13798 h -6.78e-4 v -0.24375 h 0.824532 v 0.24375 h -3.39e-4 v 1.13798 h 0.427834 v 0.24374 z"
       fill="#ffffff"
       stroke-width="0"
       id="path480" />
    <path
       d="m 35.329409,11.896368 c -0.967977,0 -1.752654,0.78468 -1.752654,1.752634 0,0.967953 0.78468,1.752634 1.752654,1.752634 0.967889,0 1.75257,-0.784681 1.75257,-1.752634 0,-0.967954 -0.784681,-1.752634 -1.75257,-1.752634 z m 0.198045,2.192196 v 0.594827 h -0.398851 v -0.607249 l -0.498219,-1.461537 h 0.416794 l 0.287064,1.022662 0.277402,-1.022662 h 0.416793 l -0.500979,1.473959 z"
       fill="#ffffff"
       stroke-width="0"
       id="path482" />
    <g
       id="g488"
       transform="scale(0.33866667)">
      <path
         d="m 29.75541,114.55706 c -0.26896,0 -0.47679,0.11614 -0.6235,0.35046 -0.1467,0.2333 -0.22006,0.60006 -0.22006,1.10029 0,0.81503 0.27813,1.22254 0.8354,1.22254 0.32295,0 0.55931,-0.1304 0.70907,-0.39121 v -1.85419 c -0.14976,-0.28526 -0.38306,-0.42789 -0.70092,-0.42789 z"
         fill="#ffffff"
         stroke-width="0"
         id="path484" />
      <path
         d="m 29.92045,110.72064 c -2.8582,0 -5.17516,2.31697 -5.17516,5.1751 0,2.85813 2.31697,5.1751 5.17516,5.1751 2.85819,0 5.17516,-2.31697 5.17516,-5.1751 0,-2.85813 -2.31697,-5.1751 -5.17516,-5.1751 z m 1.68099,7.46328 c -0.49207,0 -0.83031,-0.22719 -1.01471,-0.68055 -0.2659,0.4503 -0.64489,0.67647 -1.13696,0.67647 -0.50226,0 -0.90774,-0.17931 -1.21439,-0.53588 -0.30665,-0.35759 -0.47373,-0.84763 -0.50124,-1.46909 l -0.0041,-0.24858 c 0,-0.71519 0.15486,-1.27959 0.46457,-1.69525 0.30971,-0.41566 0.73047,-0.6235 1.26329,-0.6235 0.44826,0 0.80382,0.20376 1.06768,0.61127 l 0.08558,-0.52977 h 1.02286 v 3.04412 c 0.0082,0.3199 0.10493,0.48087 0.28933,0.48087 0.03769,0 0.06826,-0.006 0.08965,-0.0163 l 0.0978,0.8843 c -0.1355,0.0672 -0.30563,0.10188 -0.50939,0.10188 z"
         fill="#ffffff"
         stroke-width="0"
         id="path486" />
    </g>
    <g
       id="g494"
       transform="scale(0.33866667)">
      <path
         d="m 178.72594,115.4434 h -0.39529 v -0.86393 h 0.31786 c 0.46457,-0.0163 0.69685,-0.29137 0.69685,-0.82521 0,-0.22362 -0.0672,-0.40344 -0.20172,-0.53945 -0.13448,-0.13601 -0.31175,-0.20427 -0.5318,-0.20427 -0.23126,0 -0.42076,0.0769 -0.57052,0.23024 -0.14976,0.15384 -0.22413,0.36523 -0.22413,0.6347 v 3.09608 c 0.22311,0.1574 0.51652,0.23636 0.88023,0.23636 0.27711,0 0.49717,-0.0779 0.66017,-0.23381 0.163,-0.15587 0.24451,-0.35556 0.24451,-0.59955 0,-0.2929 -0.0744,-0.52111 -0.22209,-0.68513 -0.14772,-0.16402 -0.36574,-0.24604 -0.65406,-0.24604 z"
         fill="#ffffff"
         stroke-width="0"
         id="path490" />
      <path
         d="m 178.70964,110.72064 c -2.8582,0 -5.17516,2.31697 -5.17516,5.1751 0,2.85813 2.31697,5.1751 5.17516,5.1751 2.85794,0 5.17491,-2.31697 5.17491,-5.1751 0,-2.85813 -2.31697,-5.1751 -5.17491,-5.1751 z m 1.58522,6.97019 c -0.32295,0.31124 -0.76714,0.4666 -1.33257,0.4666 -0.42891,0 -0.81095,-0.10341 -1.14511,-0.30971 v 1.88271 h -1.17771 v -5.86819 c 0,-0.33976 0.0856,-0.64744 0.25673,-0.92302 0.17115,-0.27558 0.40853,-0.49105 0.71315,-0.64591 0.30462,-0.15486 0.63878,-0.23228 1.00248,-0.23228 0.58682,0 1.0524,0.14161 1.39573,0.42381 0.34333,0.28322 0.5155,0.67698 0.5155,1.18281 0,0.27202 -0.0683,0.51754 -0.20376,0.73811 -0.1355,0.22006 -0.32703,0.39682 -0.57459,0.52977 0.33416,0.1141 0.58988,0.29596 0.76816,0.54607 0.17829,0.2496 0.26692,0.55269 0.26692,0.90825 0,0.55676 -0.16199,0.99026 -0.48494,1.30099 z"
         fill="#ffffff"
         stroke-width="0"
         id="path492" />
    </g>
    <g
       id="g500"
       transform="scale(0.33866667)">
      <path
         d="m 29.92631,258.65182 c -2.85794,0 -5.17516,2.31697 -5.17516,5.1751 0,2.85813 2.31722,5.17504 5.17516,5.17504 2.8582,0 5.17516,-2.31697 5.17516,-5.17504 0,-2.85807 -2.31697,-5.1751 -5.17516,-5.1751 z m 1.52206,7.80559 c -0.38204,0.40904 -0.88634,0.61331 -1.51391,0.61331 -0.63266,0 -1.14206,-0.19764 -1.52614,-0.59293 -0.38408,-0.39529 -0.57663,-0.92964 -0.57663,-1.60356 v -0.0448 c 0,-0.42942 0.12124,-0.81503 0.36472,-1.15734 0.24348,-0.34231 0.54912,-0.56084 0.91894,-0.6561 l -0.01223,-0.0245 c -0.51041,-0.26336 -0.76612,-0.62757 -0.76612,-1.09214 0,-0.41566 0.14976,-0.73913 0.4503,-0.96988 0.30054,-0.23075 0.70805,-0.34639 1.22458,-0.34639 0.27405,0 0.5369,0.0341 0.7865,0.10188 l 0.27711,0.0815 v 0.90468 c -0.40446,-0.12786 -0.72537,-0.19153 -0.96173,-0.19153 -0.20376,0 -0.36371,0.0346 -0.48087,0.10392 -0.11716,0.0693 -0.17523,0.16504 -0.17523,0.2873 0,0.21751 0.21598,0.40191 0.64795,0.55422 0.43197,0.15231 0.79159,0.34231 1.07787,0.57052 0.28628,0.22821 0.49818,0.48749 0.63368,0.77835 0.1355,0.29086 0.20376,0.65049 0.20376,1.07991 0,0.66017 -0.19051,1.19452 -0.57256,1.60356 z"
         fill="#ffffff"
         stroke-width="0"
         id="path496" />
      <path
         d="m 29.93446,263.43163 c -0.2822,0 -0.50735,0.11614 -0.67443,0.34791 -0.16708,0.23177 -0.25062,0.57154 -0.25062,1.01929 0,0.41515 0.08252,0.73913 0.24858,0.97243 0.16606,0.2333 0.39121,0.34995 0.67647,0.34995 0.28017,0 0.50124,-0.11665 0.66425,-0.34995 0.16301,-0.2333 0.24451,-0.58427 0.24451,-1.05393 0,-0.30105 -0.08558,-0.57612 -0.25673,-0.82572 -0.17115,-0.2496 -0.38816,-0.40293 -0.65202,-0.45998 z"
         fill="#ffffff"
         stroke-width="0"
         id="path498" />
    </g>
    <path
       d="m 60.524895,87.596727 c -0.967889,0 -1.752569,0.78468 -1.752569,1.752634 0,0.967953 0.78468,1.752634 1.752569,1.752634 0.967977,0 1.752654,-0.784681 1.752654,-1.752634 0,-0.967954 -0.78468,-1.752634 -1.752654,-1.752634 z m 0.489939,2.397838 c -0.122485,0.08557 -0.279129,0.128351 -0.470618,0.128351 -0.205293,0 -0.371941,-0.04123 -0.500292,-0.123518 -0.128351,-0.08229 -0.192525,-0.191147 -0.192525,-0.326397 0,-0.169235 0.09385,-0.284822 0.281544,-0.346409 -0.08005,-0.03312 -0.142498,-0.07746 -0.187696,-0.13318 -0.0452,-0.05572 -0.06762,-0.11662 -0.06762,-0.182864 0,-0.135249 0.05969,-0.24152 0.178724,-0.318807 0.119035,-0.07729 0.28189,-0.115929 0.48787,-0.115929 0.184936,0 0.336401,0.04278 0.454057,0.128351 0.117657,0.08557 0.176656,0.195113 0.176656,0.328467 h -0.398851 c 0,-0.04692 -0.02313,-0.0847 -0.06969,-0.113169 -0.04658,-0.02845 -0.107303,-0.04278 -0.182863,-0.04278 -0.07453,0 -0.134217,0.01517 -0.179415,0.04554 -0.0452,0.03038 -0.06762,0.07039 -0.06762,0.120071 0,0.04779 0.02069,0.08608 0.06211,0.11455 0.0414,0.02845 0.103506,0.04278 0.186314,0.04278 H 60.783 v 0.266361 h -0.263602 c -0.180448,0.001 -0.270503,0.06021 -0.270503,0.178034 0,0.05055 0.0252,0.09316 0.07522,0.12766 0.05003,0.0345 0.116274,0.05176 0.198045,0.05176 0.08453,0 0.152156,-0.01605 0.202187,-0.0483 0.05003,-0.03227 0.07522,-0.07263 0.07522,-0.121449 h 0.398851 c 0,0.141634 -0.06107,0.255321 -0.183554,0.340889 z"
       fill="#ffffff"
       stroke-width="0"
       id="path502" />
    <path
       d="m 35.331306,113.19777 c -0.96789,0 -1.75257,0.78468 -1.75257,1.75264 0,0.96795 0.78468,1.75261 1.75257,1.75261 0.967977,0 1.752654,-0.78468 1.752654,-1.75261 0,-0.96794 -0.784681,-1.75264 -1.752654,-1.75264 z m 0.61553,0.70824 -0.49546,0.59224 c -0.107648,0.12231 -0.181139,0.22703 -0.220817,0.31397 -0.03968,0.087 -0.05935,0.18286 -0.05935,0.28793 0,0.0754 0.01656,0.13318 0.04968,0.1732 0.03312,0.04 0.09971,0.0744 0.200115,0.10282 0.100401,0.0284 0.174928,0.0514 0.223577,0.0688 0.09488,0.033 0.161818,0.074 0.200806,0.12301 0.03899,0.049 0.05865,0.11161 0.05865,0.18769 0,0.069 -0.03072,0.14837 -0.09247,0.23807 -0.06176,0.0897 -0.137664,0.1663 -0.227719,0.22979 l -0.202875,-0.15457 c 0.08833,-0.093 0.130766,-0.17027 0.126969,-0.23186 0.0038,-0.058 -0.03726,-0.0999 -0.122831,-0.12559 l -0.124209,-0.0317 c -0.170099,-0.0431 -0.293617,-0.1061 -0.370559,-0.1889 -0.07694,-0.0826 -0.115238,-0.19305 -0.115238,-0.33089 0,-0.14077 0.02865,-0.27429 0.08626,-0.40075 0.05762,-0.12627 0.153884,-0.26946 0.289134,-0.42955 l 0.280162,-0.33088 h -0.714899 v -0.32157 h 1.231061 v 0.22875 z"
       fill="#ffffff"
       stroke-width="0"
       id="path504" />
    <path
       d="m 10.133059,37.247021 c 1.106235,0 2.003017,0.896769 2.003017,2.003007 0,1.106237 -0.896782,2.003006 -2.003017,2.003006 -1.1062342,0 -2.0030066,-0.896769 -2.0030066,-2.003006 0,-1.106238 0.8967826,-2.003007 2.0030066,-2.003007 m 0,-0.176655 c -1.2018737,0 -2.1796585,0.977788 -2.1796585,2.179658 0,1.201871 0.9777882,2.179659 2.1796585,2.179659 1.201871,0 2.179669,-0.977788 2.179669,-2.179659 0,-1.20187 -0.977798,-2.179658 -2.179669,-2.179658 z"
       fill="#ffffff"
       stroke-width="0"
       id="path506" />
    <path
       d="m 10.135047,87.346371 c 1.106234,0 2.003017,0.896769 2.003017,2.003007 0,1.106237 -0.896783,2.003006 -2.003017,2.003006 -1.1062342,0 -2.0030066,-0.896769 -2.0030066,-2.003006 0,-1.106238 0.8967825,-2.003007 2.0030066,-2.003007 m 0,-0.176652 c -1.2018737,0 -2.1796585,0.977788 -2.1796585,2.179659 0,1.20187 0.9777882,2.179658 2.1796585,2.179658 1.201871,0 2.179669,-0.977788 2.179669,-2.179658 0,-1.201871 -0.977798,-2.179659 -2.179669,-2.179659 z"
       fill="#ffffff"
       stroke-width="0"
       id="path508" />
    <path
       d="m 60.524932,87.346361 c 1.106235,0 2.003017,0.896769 2.003017,2.003007 0,1.106237 -0.896782,2.003006 -2.003017,2.003006 -1.106234,0 -2.003006,-0.896769 -2.003006,-2.003006 0,-1.106238 0.896782,-2.003007 2.003006,-2.003007 m 0,-0.176656 c -1.201873,0 -2.179658,0.977789 -2.179658,2.179659 0,1.201871 0.977788,2.179659 2.179658,2.179659 1.201871,0 2.179669,-0.977788 2.179669,-2.179659 0,-1.20187 -0.977798,-2.179659 -2.179669,-2.179659 z"
       fill="#ffffff"
       stroke-width="0"
       id="path510" />
    <path
       d="m 35.331346,112.9474 c 1.106235,0 2.003017,0.89677 2.003017,2.003 0,1.10624 -0.896782,2.00301 -2.003017,2.00301 -1.106234,0 -2.003007,-0.89677 -2.003007,-2.00301 0,-1.10623 0.896783,-2.003 2.003007,-2.003 m 0,-0.17666 c -1.201874,0 -2.179659,0.97779 -2.179659,2.17966 0,1.20187 0.977789,2.17966 2.179659,2.17966 1.201871,0 2.179669,-0.97779 2.179669,-2.17966 0,-1.20187 -0.977798,-2.17966 -2.179669,-2.17966 z"
       fill="#ffffff"
       stroke-width="0"
       id="path512" />
    <path
       d="m 60.522944,37.247031 c 1.106235,0 2.003017,0.896769 2.003017,2.003007 0,1.106238 -0.896782,2.003007 -2.003017,2.003007 -1.106234,0 -2.003006,-0.896769 -2.003006,-2.003007 0,-1.106238 0.896782,-2.003007 2.003006,-2.003007 m 0,-0.176655 c -1.201873,0 -2.179658,0.977788 -2.179658,2.179658 0,1.201871 0.977788,2.179659 2.179658,2.179659 1.201871,0 2.179669,-0.977788 2.179669,-2.179659 0,-1.20187 -0.977798,-2.179658 -2.179669,-2.179658 z"
       fill="#ffffff"
       stroke-width="0"
       id="path514" />
    <path
       d="m 35.329355,11.645998 c 1.106234,0 2.003017,0.896769 2.003017,2.003007 0,1.106238 -0.896783,2.003007 -2.003017,2.003007 -1.106235,0 -2.003007,-0.896769 -2.003007,-2.003007 0,-1.106238 0.896783,-2.003007 2.003007,-2.003007 m 0,-0.176655 c -1.201874,0 -2.179659,0.977788 -2.179659,2.179659 0,1.20187 0.977788,2.179658 2.179659,2.179658 1.20187,0 2.179669,-0.977788 2.179669,-2.179658 0,-1.201871 -0.977799,-2.179659 -2.179669,-2.179659 z"
       fill="#ffffff"
       stroke-width="0"
       id="path516" />
  </g>
  <g
     inkscape:groupmode="layer"
     id="layer2"
     inkscape:label="components"
     style="display:none">
    <circle
       cx="17.677158"
       cy="14.229953"
       fill="#0000ff"
       stroke-width="0"
       id="circle519"
       style="display:inline"
       r="1.6933333"
       inkscape:label="xor_gate" />
    <circle
       cx="35.329193"
       cy="21.20112"
       fill="#0000ff"
       stroke-width="0"
       id="circle521"
       style="display:inline"
       r="1.6933333"
       inkscape:label="tz_clipper" />
    <circle
       cx="52.981251"
       cy="14.219716"
       fill="#0000ff"
       stroke-width="0"
       id="circle523"
       style="display:inline"
       r="1.6933333"
       inkscape:label="xor_trig" />
    <circle
       cx="60.230396"
       cy="26.72488"
       fill="#0000ff"
       stroke-width="0"
       id="circle525"
       style="display:inline"
       r="1.6933333"
       inkscape:label="and_gate" />
    <circle
       cx="52.986183"
       cy="39.245148"
       fill="#0000ff"
       stroke-width="0"
       id="circle527"
       style="display:inline"
       r="1.6933333"
       inkscape:label="min" />
    <circle
       cx="60.205734"
       cy="51.77523"
       fill="#0000ff"
       stroke-width="0"
       id="circle529"
       style="display:inline"
       r="1.6933333"
       inkscape:label="and_trig" />
    <circle
       cx="45.756748"
       cy="51.77523"
       fill="#0000ff"
       stroke-width="0"
       id="circle531"
       style="display:inline"
       r="1.6933333"
       inkscape:label="y" />
    <circle
       cx="10.428035"
       cy="26.725487"
       fill="#0000ff"
       stroke-width="0"
       id="circle533"
       style="display:inline"
       r="1.6933333"
       inkscape:label="or_gate" />
    <circle
       cx="17.66979"
       cy="39.245148"
       fill="#0000ff"
       stroke-width="0"
       id="circle535"
       style="display:inline"
       r="1.6933333"
       inkscape:label="max" />
    <circle
       cx="24.889341"
       cy="51.77523"
       fill="#0000ff"
       stroke-width="0"
       id="circle537"
       style="display:inline"
       r="1.6933333"
       inkscape:label="x" />
    <circle
       cx="10.440354"
       cy="51.77523"
       fill="#0000ff"
       stroke-width="0"
       id="circle543"
       style="display:inline"
       r="1.6933333"
       inkscape:label="org_trig" />
    <circle
       cx="35.329208"
       cy="46.259815"
       fill="#0000ff"
       stroke-width="0"
       id="circle545"
       style="display:inline"
       r="1.6933333"
       inkscape:label="sum" />
    <circle
       cx="44.376099"
       cy="39.230392"
       fill="#ff00ff"
       stroke-width="0"
       id="circle583"
       style="display:inline"
       r="2.5159376"
       inkscape:label="min" />
    <circle
       cx="35.331085"
       cy="29.792826"
       fill="#ff00ff"
       stroke-width="0"
       id="circle585"
       style="display:inline"
       r="2.5159376"
       inkscape:label="xor" />
    <circle
       cx="26.278872"
       cy="39.230385"
       fill="#ff00ff"
       stroke-width="0"
       id="circle593"
       style="display:inline"
       r="2.5159376"
       inkscape:label="max" />
    <circle
       cx="17.670288"
       cy="64.346664"
       fill="#00ff00"
       stroke-width="0"
       id="circle539"
       style="display:inline"
       r="1.6933333"
       inkscape:label="x" />
    <circle
       cx="52.962101"
       cy="64.346687"
       fill="#00ff00"
       stroke-width="0"
       id="circle541"
       style="display:inline"
       r="1.6933333"
       inkscape:label="y" />
    <circle
       cx="52.981236"
       cy="114.36082"
       fill="#0000ff"
       stroke-width="0"
       id="circle547"
       style="display:inline"
       r="1.6933333"
       inkscape:label="xnor_trig" />
    <circle
       cx="35.329201"
       cy="107.38966"
       fill="#0000ff"
       stroke-width="0"
       id="circle549"
       style="display:inline"
       r="1.6933333"
       inkscape:label="inv_tz_clipper" />
    <circle
       cx="17.677143"
       cy="114.37108"
       fill="#0000ff"
       stroke-width="0"
       id="circle551"
       style="display:inline"
       r="1.6933333"
       inkscape:label="xnor_gate" />
    <circle
       cx="10.427999"
       cy="101.86589"
       fill="#0000ff"
       stroke-width="0"
       id="circle553"
       style="display:inline"
       r="1.6933333"
       inkscape:label="nor_gate" />
    <circle
       cx="17.672213"
       cy="89.345627"
       fill="#0000ff"
       stroke-width="0"
       id="circle555"
       style="display:inline"
       r="1.6933333"
       inkscape:label="inv_max" />
    <circle
       cx="10.452662"
       cy="76.815544"
       fill="#0000ff"
       stroke-width="0"
       id="circle557"
       style="display:inline"
       r="1.6933333"
       inkscape:label="nor_trig" />
    <circle
       cx="24.901646"
       cy="76.815544"
       fill="#0000ff"
       stroke-width="0"
       id="circle559"
       style="display:inline"
       r="1.6933333"
       inkscape:label="inv_x" />
    <circle
       cx="60.230362"
       cy="101.8653"
       fill="#0000ff"
       stroke-width="0"
       id="circle561"
       style="display:inline"
       r="1.6933333"
       inkscape:label="nand_gate" />
    <circle
       cx="52.988605"
       cy="89.345627"
       fill="#0000ff"
       stroke-width="0"
       id="circle563"
       style="display:inline"
       r="1.6933333"
       inkscape:label="inv_min" />
    <circle
       cx="45.769054"
       cy="76.815544"
       fill="#0000ff"
       stroke-width="0"
       id="circle565"
       style="display:inline"
       r="1.6933333"
       inkscape:label="inv_y" />
    <circle
       cx="60.218037"
       cy="76.815544"
       fill="#0000ff"
       stroke-width="0"
       id="circle567"
       style="display:inline"
       r="1.6933333"
       inkscape:label="nand_trig" />
    <circle
       cx="35.329185"
       cy="82.330971"
       fill="#0000ff"
       stroke-width="0"
       id="circle569"
       style="display:inline"
       r="1.6933333"
       inkscape:label="diff" />
    <circle
       cx="44.376099"
       cy="89.349594"
       fill="#ff00ff"
       stroke-width="0"
       id="circle571"
       style="display:inline"
       r="2.5159376"
       inkscape:label="inv_min" />
    <circle
       cx="35.331085"
       cy="98.787163"
       fill="#ff00ff"
       stroke-width="0"
       id="circle573"
       style="display:inline"
       r="2.5159376"
       inkscape:label="xnor" />
    <circle
       cx="35.300495"
       cy="73.688225"
       fill="#ff00ff"
       stroke-width="0"
       id="circle575"
       style="display:inline"
       r="2.5159376"
       inkscape:label="diff" />
    <circle
       cx="29.37233"
       cy="69.05217"
       fill="#ff00ff"
       stroke-width="0"
       id="circle577"
       style="display:inline"
       r="2.5159376"
       inkscape:label="inv_x" />
    <circle
       cx="41.291744"
       cy="69.05217"
       fill="#ff00ff"
       stroke-width="0"
       id="circle579"
       style="display:inline"
       r="2.5159376"
       inkscape:label="inv_y" />
    <circle
       cx="26.278883"
       cy="89.349594"
       fill="#ff00ff"
       stroke-width="0"
       id="circle581"
       style="display:inline"
       r="2.5159376"
       inkscape:label="inv_max" />
    <circle
       cx="35.300495"
       cy="54.891762"
       fill="#ff00ff"
       stroke-width="0"
       id="circle587"
       style="display:inline"
       r="2.5159376"
       inkscape:label="sum" />
    <circle
       cx="29.37233"
       cy="59.527817"
       fill="#ff00ff"
       stroke-width="0"
       id="circle589"
       style="display:inline"
       r="2.5159376"
       inkscape:label="x" />
    <circle
       cx="41.291744"
       cy="59.527817"
       fill="#ff00ff"
       stroke-width="0"
       id="circle591"
       style="display:inline"
       r="2.5159376"
       inkscape:label="y" />
    <circle
       cx="64.275322"
       cy="64.318268"
       fill="#ff0000"
       stroke-width="0"
       id="circle595"
       style="display:inline"
       r="1.6933333"
       inkscape:label="pad_y" />
    <circle
       cx="6.4697585"
       cy="64.318268"
       fill="#ff0000"
       stroke-width="0"
       id="circle597"
       style="display:inline"
       r="1.6933333"
       inkscape:label="pad_x" />
  </g>
</svg>
