<?xml version="1.0" encoding="utf-8"?>
<!-- Generator: Adobe Illustrator 28.7.1, SVG Export Plug-In . SVG Version: 9.03 Build 54978)  -->
<svg version="1.0" id="uuid-afea4600-5b17-4eb7-9e6b-87dd4b88129e"
	 xmlns="http://www.w3.org/2000/svg" xmlns:xlink="http://www.w3.org/1999/xlink" x="0px" y="0px" width="60px" height="380px"
	 viewBox="0 0 60 380" enable-background="new 0 0 60 380" xml:space="preserve">
<linearGradient id="SVGID_1_" gradientUnits="userSpaceOnUse" x1="30" y1="379.88983" x2="30" y2="-0.10968" gradientTransform="matrix(1 0 0 -1 0 379.88983)">
	<stop  offset="0" style="stop-color:#EBCB86"/>
	<stop  offset="1" style="stop-color:#C1924F"/>
</linearGradient>
<rect y="0" fill="url(#SVGID_1_)" width="60" height="379.99951"/>
<g>
	
		<ellipse transform="matrix(0.1052 -0.99445 0.99445 0.1052 -318.84265 314.26987)" fill="#191919" cx="15.21394" cy="334.31122" rx="13.30745" ry="13.30746"/>
	<path fill="#181818" d="M8.15131,357.86713H7.14985c-0.02856,0-0.04181,0.01324-0.04181,0.04175l-0.17523,1.38556
		c0,0.02747,0.01123,0.04175,0.03363,0.04175H7.9842c0.27301,0,0.48798-0.07642,0.64691-0.23022
		c0.15894-0.15283,0.23743-0.36267,0.23743-0.62964c0-0.19458-0.06219-0.34534-0.1875-0.45129
		C8.55573,357.9201,8.37947,357.86713,8.15131,357.86713z"/>
	
		<linearGradient id="SVGID_00000044142891506046596840000017415331776982325938_" gradientUnits="userSpaceOnUse" x1="30" y1="379.88983" x2="30" y2="-0.11017" gradientTransform="matrix(1 0 0 -1 0 379.88983)">
		<stop  offset="0" style="stop-color:#2A2A2B"/>
		<stop  offset="1" style="stop-color:#171717"/>
	</linearGradient>
	<path fill="url(#SVGID_00000044142891506046596840000017415331776982325938_)" d="M0,0v380h60V0H0z M57.03357,155.10184
		l-0.47473,0.05609H56.5456c-0.04181,0-0.06213-0.02246-0.06213-0.0683l0.04987-0.53894
		c0.00409-0.04071,0.02753-0.07025,0.06927-0.08759l0.51862-0.20581c0.03357-0.01324,0.06519-0.01935,0.09473-0.01935h0.73151
		c0.04681,0,0.06927,0.02545,0.06927,0.07538l-0.51959,4.23102c-0.00409,0.02136-0.01324,0.0387-0.02856,0.05298
		c-0.01422,0.01526-0.03156,0.0224-0.05298,0.0224h-0.71313c-0.02136,0-0.03766-0.00714-0.04993-0.0224
		c-0.01324-0.01428-0.01727-0.03162-0.01324-0.05298l0.41974-3.41699c0-0.01733-0.00812-0.02551-0.02545-0.02551H57.03357z
		 M53.70319,236.7247h0.3382c0.02039,0,0.03668,0.00714,0.04993,0.02142c0.01227,0.01526,0.0163,0.03259,0.01227,0.05402
		l-0.05603,0.4696c-0.00409,0.02039-0.01428,0.03772-0.02856,0.05298c-0.01422,0.01428-0.03259,0.02142-0.05298,0.02142h-0.34436
		c-0.00812,0-0.01526,0.00305-0.0224,0.00916c-0.0061,0.00714-0.00916,0.01428-0.00916,0.0224l-0.18134,1.48952
		c-0.00409,0.02136-0.0061,0.04993-0.0061,0.08759c0,0.08765,0.01935,0.14874,0.05908,0.18134
		c0.03973,0.03363,0.09778,0.04895,0.17218,0.04382h0.04376c0.02142,0,0.03772,0.00818,0.04993,0.0224
		c0.01324,0.01428,0.01733,0.03259,0.01324,0.05298l-0.07538,0.61334c-0.00409,0.02136-0.01324,0.0387-0.0285,0.05298
		c-0.01428,0.01526-0.03162,0.0224-0.05298,0.0224h-0.24451c-0.26691,0-0.46863-0.04077-0.6062-0.12225
		c-0.13855-0.08148-0.20679-0.23431-0.20679-0.45947c0-0.02954,0.00409-0.08148,0.01221-0.15692l0.22516-1.82771
		c0-0.02032-0.00818-0.03156-0.02448-0.03156H52.5387c-0.02039,0-0.03766-0.00714-0.04993-0.02142
		c-0.01221-0.01526-0.01733-0.03259-0.01221-0.05298l0.05603-0.4696c0.00409-0.02142,0.01324-0.03876,0.0285-0.05402
		c0.01428-0.01428,0.03162-0.02142,0.05298-0.02142h0.19971c0.02136,0,0.03156-0.01019,0.03156-0.03156l0.08765-0.69482
		c0.00409-0.02039,0.01324-0.0387,0.0285-0.05298c0.01428-0.01422,0.03162-0.02136,0.05298-0.02136h0.68262
		c0.02032,0,0.03766,0.00714,0.04993,0.02136c0.01221,0.01428,0.0163,0.03259,0.01221,0.05298l-0.08765,0.69482
		c0,0.02136,0.01019,0.03156,0.03162,0.03156H53.70319z M53.47394,320.45752c0.03973,0.03363,0.09784,0.04889,0.17218,0.04382
		h0.04382c0.02136,0,0.03766,0.00812,0.04993,0.0224c0.01324,0.01428,0.01727,0.03259,0.01324,0.05298L53.67767,321.19
		c-0.00403,0.02142-0.01324,0.03876-0.0285,0.05298c-0.01428,0.01532-0.03156,0.0224-0.05298,0.0224h-0.24451
		c-0.26691,0-0.46863-0.04071-0.60614-0.12225c-0.13861-0.08148-0.20685-0.23431-0.20685-0.45947
		c0-0.02954,0.00409-0.08148,0.01221-0.15686l0.22516-1.8277c0-0.02039-0.00812-0.03156-0.02441-0.03156h-0.20074
		c-0.02032,0-0.03766-0.00714-0.04987-0.02142c-0.01227-0.01526-0.01733-0.03259-0.01227-0.05298l0.05603-0.46967
		c0.00409-0.02136,0.01324-0.0387,0.02856-0.05402c0.01422-0.01422,0.03156-0.02136,0.05298-0.02136h0.19965
		c0.02142,0,0.03162-0.01019,0.03162-0.03162l0.08759-0.69476c0.00409-0.02039,0.01324-0.03876,0.0285-0.05298
		c0.01428-0.01428,0.03162-0.02142,0.05298-0.02142h0.68262c0.02039,0,0.03772,0.00714,0.04993,0.02142
		c0.01221,0.01422,0.0163,0.03259,0.01221,0.05298l-0.08759,0.69476c0,0.02142,0.01019,0.03162,0.03156,0.03162h0.33826
		c0.02039,0,0.03668,0.00714,0.04993,0.02136c0.01221,0.01532,0.0163,0.03265,0.01221,0.05402l-0.05603,0.46967
		c-0.00409,0.02039-0.01428,0.03772-0.0285,0.05298c-0.01428,0.01428-0.03265,0.02142-0.05298,0.02142h-0.34436
		c-0.00818,0-0.01532,0.00305-0.0224,0.00916c-0.00616,0.00714-0.00922,0.01422-0.00922,0.0224l-0.18134,1.48944
		c-0.00409,0.02142-0.0061,0.04993-0.0061,0.08765c0,0.08759,0.01935,0.14874,0.05908,0.18134H53.47394z M50.60504,157.73135
		l0.27612-2.25354c0.00403-0.02142,0.01324-0.03876,0.02747-0.05402c0.01532-0.01428,0.03259-0.02136,0.05402-0.02136h0.71313
		c0.02142,0,0.03772,0.00708,0.04993,0.02136c0.01324,0.01526,0.01733,0.03259,0.01324,0.05402l-0.25061,2.05896
		c-0.00409,0.02136-0.0061,0.05194-0.0061,0.09369c0,0.09174,0.01935,0.16199,0.05908,0.2099
		c0.03973,0.04785,0.0968,0.07233,0.17218,0.07233c0.09167,0,0.16705-0.03564,0.22516-0.10699
		c0.05804-0.07025,0.09576-0.16602,0.11304-0.28729l0.24963-2.04059c0.00507-0.02142,0.01428-0.03876,0.0285-0.05402
		c0.01428-0.01428,0.03259-0.02136,0.05298-0.02136h0.71417c0.02039,0,0.03772,0.00708,0.04993,0.02136
		c0.01221,0.01526,0.0163,0.03259,0.01221,0.05402l-0.37488,3.06653c-0.00513,0.02136-0.01428,0.0387-0.02856,0.05298
		c-0.01422,0.01526-0.03259,0.0224-0.05298,0.0224h-0.71411c-0.02039,0-0.03772-0.00714-0.04993-0.0224
		c-0.01227-0.01428-0.0163-0.03162-0.01227-0.05298l0.01227-0.10596c0.00403-0.01221,0.00201-0.02142-0.0061-0.02545
		c-0.00818-0.00409-0.01636,0-0.02551,0.01324c-0.13342,0.1579-0.32495,0.23737-0.57562,0.23737
		c-0.21698,0-0.39423-0.06116-0.5318-0.18439c-0.13751-0.12329-0.20679-0.31177-0.20679-0.56647
		C50.59284,157.87497,50.59693,157.81491,50.60504,157.73135z M47.77588,157.43082l0.24451-2.00293
		c0.04584-0.37592,0.1936-0.67645,0.44421-0.90161s0.56134-0.33826,0.93317-0.33826c0.33722,0,0.60419,0.09271,0.80078,0.27814
		c0.19666,0.1864,0.29443,0.44012,0.29443,0.76105c0,0.04175-0.00409,0.10901-0.01221,0.20068l-0.24451,2.00293
		c-0.04584,0.37488-0.19562,0.67542-0.44727,0.90057c-0.25262,0.2262-0.56439,0.33826-0.93628,0.33826
		c-0.3382,0-0.60413-0.09271-0.79767-0.27814c-0.19458-0.18542-0.29138-0.43909-0.29138-0.76105
		C47.76366,157.58871,47.76775,157.52249,47.77588,157.43082z M46.84271,238.75316l0.24451-2.00294
		c0.04584-0.37598,0.19354-0.67651,0.44415-0.90167c0.25061-0.2251,0.56134-0.3382,0.93323-0.3382
		c0.33722,0,0.60413,0.09271,0.80078,0.27814c0.19659,0.1864,0.29437,0.44012,0.29437,0.76099
		c0,0.04181-0.00403,0.10901-0.01221,0.20074l-0.24451,2.00294c-0.04584,0.37488-0.19562,0.67542-0.44727,0.90057
		c-0.25262,0.2262-0.56439,0.33826-0.93622,0.33826c-0.33826,0-0.60413-0.09271-0.79773-0.27814
		c-0.19458-0.18542-0.29138-0.43909-0.29138-0.76105C46.83043,238.91106,46.83452,238.84483,46.84271,238.75316z M42.1936,21.09827
		h0.58679v4.45001H42.1936V21.09827z M40.49219,21.09827h0.58685v4.45001h-0.58685V21.09827z M34.95819,19.79016
		c0.0163-0.05603,0.05298-0.08356,0.10797-0.08356h1.31018c0.05707,0,0.09369,0.02753,0.11005,0.08356l1.80121,5.64099
		c0.0061,0.01123,0.01013,0.02545,0.01013,0.04175c0,0.04993-0.03052,0.07538-0.09167,0.07538h-1.06158
		c-0.05499,0-0.09167-0.02747-0.10797-0.0835l-0.25061-0.81812c-0.01019-0.02136-0.02448-0.03363-0.04077-0.03363H34.6913
		c-0.0163,0-0.03058,0.01227-0.04077,0.03363l-0.24249,0.81812c-0.0163,0.05603-0.05298,0.0835-0.10797,0.0835h-1.06158
		c-0.03259,0-0.05707-0.00916-0.07336-0.02954c-0.01831-0.01935-0.02032-0.04785-0.01013-0.08759l1.80322-5.64099L34.95819,19.79016
		z M27.46399,19.80646c0-0.02753,0.01019-0.05194,0.02856-0.07135c0.02039-0.01935,0.0448-0.0285,0.07129-0.0285h0.97601
		c0.05096,0,0.08966,0.02142,0.11816,0.06622l1.2511,1.94489c0.0163,0.03357,0.03461,0.03357,0.0509,0l1.25922-1.94489
		c0.02856-0.0448,0.06726-0.06622,0.11816-0.06622h0.97601c0.02856,0,0.05096,0.00916,0.07135,0.0285
		c0.01831,0.01941,0.0285,0.04382,0.0285,0.07135v5.64203c0,0.02747-0.01019,0.0509-0.0285,0.07025
		c-0.02039,0.02039-0.04279,0.02954-0.07135,0.02954h-0.97601c-0.0285,0-0.05298-0.00916-0.07129-0.02954
		c-0.02039-0.01935-0.03058-0.04279-0.03058-0.07025v-3.68091c0-0.0224-0.00403-0.03357-0.0163-0.03357
		c-0.01019,0-0.0224,0.00812-0.03259,0.02545l-0.88428,1.38556c-0.02856,0.04376-0.06726,0.06622-0.11823,0.06622h-0.49103
		c-0.05096,0-0.08966-0.02246-0.11816-0.06622l-0.88434-1.38556c-0.01019-0.01733-0.0224-0.02344-0.03259-0.02142
		c-0.01221,0.00305-0.0163,0.01532-0.0163,0.03772v3.67273c0,0.02747-0.01019,0.0509-0.03058,0.07025
		c-0.01831,0.02039-0.04279,0.02954-0.07129,0.02954h-0.97601c-0.02649,0-0.0509-0.00916-0.07129-0.02954
		c-0.01837-0.01935-0.02856-0.04279-0.02856-0.07025v-5.64203L27.46399,19.80646z M22.16431,21.73401
		c0-0.41162,0.09167-0.77637,0.27509-1.0932c0.18335-0.31683,0.44012-0.56335,0.77222-0.73859
		c0.33008-0.17523,0.71313-0.26288,1.14716-0.26288c0.44012,0,0.8252,0.08765,1.15527,0.26288
		c0.33215,0.17523,0.58887,0.42175,0.77228,0.73859c0.18335,0.31683,0.27509,0.68158,0.27509,1.0932v1.78589
		c0,0.41772-0.09174,0.78754-0.27509,1.11047c-0.18341,0.32294-0.44012,0.57153-0.77228,0.74677
		c-0.33008,0.17523-0.71515,0.26288-1.15527,0.26288c-0.43402,0-0.81708-0.08862-1.14716-0.26697
		c-0.33209-0.17828-0.58887-0.42682-0.77222-0.74677c-0.18341-0.31989-0.27509-0.68866-0.27509-1.10638V21.73401z M17.05615,21.6922
		c0-0.40546,0.09167-0.76508,0.271-1.07581c0.18134-0.31177,0.43604-0.55219,0.76404-0.72235
		c0.32806-0.1701,0.70703-0.2547,1.13495-0.2547c0.42383,0,0.79669,0.08356,1.12268,0.25067
		c0.32605,0.16705,0.57867,0.39325,0.76001,0.6795c0.18134,0.28729,0.271,0.60516,0.271,0.95563v0.05908
		c0,0.02753-0.01019,0.0509-0.0285,0.07031c-0.02039,0.02032-0.0448,0.02954-0.07129,0.02954h-0.97601
		c-0.0285,0-0.05298-0.00922-0.07135-0.02954c-0.02032-0.01941-0.03052-0.04279-0.03052-0.07031v-0.02545
		c0-0.25574-0.08765-0.47174-0.26697-0.64697c-0.17725-0.17523-0.41357-0.26282-0.70905-0.26282
		c-0.2995,0-0.53998,0.09375-0.72131,0.28015c-0.18134,0.18646-0.271,0.42993-0.271,0.73047v1.93567
		c0,0.30054,0.09784,0.54407,0.29138,0.73047c0.19562,0.18646,0.44214,0.27917,0.74371,0.27917
		c0.28937,0,0.51959-0.07642,0.69275-0.22925c0.1712-0.15277,0.25879-0.36572,0.25879-0.63873V23.362
		c0-0.0285-0.01428-0.04175-0.04279-0.04175h-0.93524c-0.02649,0-0.0509-0.01019-0.06927-0.02954
		c-0.02039-0.01941-0.03058-0.04279-0.03058-0.07135v-0.76715c0-0.02747,0.01019-0.05194,0.03058-0.07129
		c0.01837-0.01935,0.04279-0.02954,0.06927-0.02954h2.0376c0.02649,0,0.0509,0.01019,0.07129,0.02954
		c0.01831,0.01935,0.0285,0.04382,0.0285,0.07129v1.10132c0,0.42279-0.08966,0.79059-0.26691,1.10132
		c-0.17932,0.31171-0.42993,0.55011-0.75592,0.71417c-0.32599,0.164-0.70294,0.24652-1.13086,0.24652
		s-0.80688-0.08661-1.13495-0.25879c-0.328-0.17316-0.5827-0.41357-0.76404-0.72229c-0.17932-0.30872-0.271-0.66626-0.271-1.07275
		C17.05614,23.56171,17.05614,21.6922,17.05615,21.6922z M16.1015,41.91407h13.30737v1.04321H16.1015
		C16.1015,42.95728,16.1015,41.91407,16.1015,41.91407z M9.09204,31.63191h1.73901v-1.73804h0.78247v1.73804h1.73804v0.78247
		h-1.73804v1.73804h-0.78247v-1.73804H9.09204V31.63191z M11.5766,60.01209v1.41919h-0.78247v-1.41919H9.37396v-0.78241h1.42017
		V57.81h0.78247v1.41968h1.41913v0.78241H11.5766z M12.67383,62.50404v0.78241H9.6969v-0.78241H12.67383z M4.73462,73.24098
		c0-0.04584,0.02441-0.06927,0.07434-0.06927h0.78247c0.04584,0,0.06927,0.02344,0.06927,0.06927l0.08148,2.75378
		c0,0.01727,0.00507,0.02545,0.01526,0.02545s0.01733-0.00818,0.02246-0.02545l0.74469-2.75378
		c0.01227-0.04584,0.04181-0.06927,0.08765-0.06927H7.3692c0.04993,0,0.0672,0.02747,0.04993,0.08148l-1.39575,4.23102
		c-0.01221,0.04688-0.04175,0.06927-0.08765,0.06927H5.15332c-0.04584,0-0.06824-0.0224-0.06824-0.06927L4.73462,73.2532
		C4.73462,73.2532,4.73462,73.24099,4.73462,73.24098z M1.73633,76.43282c0.00818-0.04993,0.03564-0.07538,0.08148-0.07538H2.5249
		c0.04584,0,0.06927,0.02545,0.06927,0.07538v0.10083c0.01221,0.20789,0.09576,0.31281,0.24957,0.31281
		c0.07947,0,0.14874-0.02856,0.20679-0.08459c0.05811-0.05701,0.10193-0.13446,0.13147-0.23529
		c0.02545-0.10803,0.04376-0.22314,0.05603-0.34436c0.01324-0.07843,0.01935-0.18542,0.01935-0.31891
		c-0.01221-0.19562-0.09784-0.29443-0.25671-0.29443c-0.15894,0-0.26697,0.07336-0.32605,0.21906
		c-0.02039,0.04688-0.04993,0.06927-0.08759,0.06927h-0.7132c-0.04584,0-0.06927-0.02545-0.06927-0.07538l0.31378-2.53473
		c0.00409-0.02142,0.01324-0.0387,0.02753-0.05298c0.01532-0.01526,0.03259-0.0224,0.05402-0.0224h2.14655
		c0.02039,0,0.03772,0.00714,0.04993,0.0224c0.01227,0.01428,0.0163,0.03156,0.01227,0.05298l-0.0744,0.60718
		c-0.00409,0.02039-0.01428,0.0387-0.0285,0.05298c-0.01428,0.01532-0.03259,0.0224-0.05298,0.0224H2.91914
		c-0.02039,0-0.03156,0.01019-0.03156,0.03058l-0.13141,1.05243c0,0.01221,0.00305,0.02039,0.01013,0.02441
		c0.00616,0.00409,0.01532,0,0.02753-0.01221c0.07538-0.07129,0.16199-0.12531,0.25983-0.16302
		c0.09778-0.03766,0.19965-0.05603,0.30359-0.05603c0.25873,0,0.45642,0.08765,0.59192,0.26288s0.1925,0.4187,0.17212,0.73248
		c0,0.03363-0.00201,0.08862-0.0061,0.16504c-0.00507,0.07745-0.01117,0.15179-0.01935,0.22314
		c-0.02039,0.16602-0.04382,0.29846-0.06824,0.39423c-0.05505,0.32092-0.19458,0.57153-0.41974,0.75085
		s-0.51141,0.26898-0.85785,0.26898c-0.32495,0-0.5766-0.08356-0.75391-0.25061c-0.17725-0.16608-0.26587-0.41467-0.26587-0.74475
		C1.73023,76.60806,1.73633,76.43282,1.73633,76.43282z M15.21399,75.99178c3.3028,0,6.33966,1.13281,8.76758,3.01508
		l2.46674-2.96222c-0.86676-0.89313-1.40594-2.10608-1.40594-3.44586c0-2.73341,2.224-4.95741,4.9574-4.95741
		c1.00885,0,1.94586,0.3064,2.72961,0.82605c3.61896-4.51971,5.62036-10.16193,5.62036-15.96008v-0.60822h1.04321v0.60822
		c0,6.03979-2.08594,11.91748-5.85956,16.62408c0.87823,0.89484,1.42377,2.11761,1.42377,3.46736
		c0,1.34021-0.53943,2.55359-1.40668,3.44678l4.10583,4.98309l-0.80078,0.66833l-4.10278-4.97949
		c-0.78827,0.52856-1.73468,0.83868-2.75299,0.83868c-1.0188,0-1.96576-0.3103-2.75403-0.83929l-2.46454,2.95972
		c2.92798,2.62915,4.78339,6.43018,4.78339,10.66577c0,7.91302-6.43768,14.35071-14.35059,14.35071S0.8634,98.25539,0.8634,90.34236
		S7.30108,75.99178,15.21399,75.99178z M29.40887,123.23702v1.04321H16.1015v-1.04321H29.40887z M11.5766,141.33504v1.4192h-0.78247
		v-1.4192H9.37396v-0.78241h1.42017v-1.41968h0.78247v1.41968h1.41913v0.78241H11.5766z M12.67383,143.827v0.78241H9.6969V143.827
		H12.67383z M11.61353,113.73731v1.73804h-0.78247v-1.73804H9.09205v-0.78241h1.73901v-1.73804h0.78247v1.73804h1.73804v0.78241
		H11.61353z M7.41913,154.57614l-1.39575,4.23102c-0.01221,0.04688-0.04175,0.06927-0.08765,0.06927H5.15332
		c-0.04584,0-0.06824-0.0224-0.06824-0.06927l-0.35046-4.23102v-0.01221c0-0.04584,0.02441-0.06927,0.07434-0.06927h0.78247
		c0.04584,0,0.06927,0.02344,0.06927,0.06927l0.08148,2.75378c0,0.01727,0.00507,0.02545,0.01526,0.02545
		s0.01733-0.00818,0.02246-0.02545l0.74469-2.75378c0.01227-0.04584,0.04181-0.06927,0.08765-0.06927H7.3692
		C7.41913,154.49466,7.4364,154.52219,7.41913,154.57614z M2.7663,156.36008c0.00616,0.00403,0.01532,0,0.02753-0.01227
		c0.07538-0.07129,0.16199-0.12531,0.25983-0.16296c0.09778-0.03772,0.19965-0.05609,0.30359-0.05609
		c0.25873,0,0.45642,0.08765,0.59192,0.26288c0.1355,0.17523,0.1925,0.4187,0.17212,0.73248
		c0,0.03363-0.00201,0.08862-0.0061,0.16504c-0.00507,0.07745-0.01117,0.15179-0.01935,0.22314
		c-0.02039,0.16608-0.04382,0.29852-0.06824,0.39429c-0.05505,0.32086-0.19458,0.57153-0.41974,0.75079
		c-0.22516,0.17932-0.51141,0.26898-0.85785,0.26898c-0.32495,0-0.5766-0.08356-0.75391-0.25061
		c-0.17725-0.16608-0.26587-0.41467-0.26587-0.74475l0.0061-0.17523c0.00818-0.04993,0.03564-0.07538,0.08148-0.07538H2.5249
		c0.04584,0,0.06927,0.02545,0.06927,0.07538v0.10089c0.01221,0.20782,0.09576,0.31274,0.24957,0.31274
		c0.07947,0,0.14874-0.0285,0.20679-0.08453c0.05811-0.05707,0.10193-0.13452,0.13147-0.23535
		c0.02545-0.10797,0.04376-0.22314,0.05603-0.34436c0.01324-0.07843,0.01935-0.18542,0.01935-0.31885
		c-0.01221-0.19562-0.09784-0.29443-0.25671-0.29443c-0.15894,0-0.26697,0.0733-0.32605,0.21899
		c-0.02039,0.04688-0.04993,0.06927-0.08759,0.06927h-0.7132c-0.04584,0-0.06927-0.02545-0.06927-0.07538l0.31378-2.53473
		c0.00409-0.02136,0.01324-0.0387,0.02753-0.05298c0.01532-0.01526,0.03259-0.0224,0.05402-0.0224h2.14655
		c0.02039,0,0.03772,0.00714,0.04993,0.0224c0.01227,0.01428,0.0163,0.03162,0.01227,0.05298l-0.0744,0.60718
		c-0.00409,0.02039-0.01428,0.03876-0.0285,0.05298c-0.01428,0.01532-0.03259,0.02246-0.05298,0.02246H2.91914
		c-0.02039,0-0.03156,0.01013-0.03156,0.03052l-0.13141,1.05243C2.75617,156.34781,2.75922,156.35599,2.7663,156.36008z
		 M15.21399,157.31473c3.3028,0,6.33966,1.13281,8.76758,3.01508l2.46674-2.96222c-0.86676-0.89307-1.40594-2.10608-1.40594-3.44586
		c0-2.7334,2.224-4.9574,4.9574-4.9574c1.00885,0,1.94586,0.3064,2.72961,0.82605
		c3.61896-4.51971,5.62036-10.16194,5.62036-15.96004v-0.60822h1.04321v0.60822c0,6.03973-2.08594,11.91743-5.85956,16.62404
		c0.87823,0.8949,1.42377,2.11761,1.42377,3.46735c0,1.34021-0.53943,2.55359-1.40668,3.44684l4.12396,4.90088l-0.80072,0.66833
		l-4.12097-4.89734c-0.78827,0.52856-1.73468,0.83868-2.75299,0.83868c-1.0188,0-1.96576-0.31024-2.75403-0.83929l-2.46454,2.95972
		c2.92798,2.62915,4.78339,6.43018,4.78339,10.66577c0,7.91302-6.43768,14.35071-14.35059,14.35071
		S0.8634,179.57834,0.8634,171.66531S7.30108,157.31473,15.21399,157.31473z M29.40887,204.55997v1.04321H16.1015v-1.04321H29.40887
		z M11.5766,222.65799v1.41919h-0.78247v-1.41919H9.37396v-0.78241h1.42017v-1.41968h0.78247v1.41968h1.41913v0.78241H11.5766z
		 M12.67383,225.14993v0.78247H9.6969v-0.78247H12.67383z M11.61353,195.06027v1.73804h-0.78247v-1.73804H9.09205v-0.78241h1.73901
		v-1.73804h0.78247v1.73804h1.73804v0.78241H11.61353z M7.41913,235.89908l-1.39575,4.23103
		c-0.01221,0.04688-0.04175,0.06927-0.08765,0.06927H5.15332c-0.04584,0-0.06824-0.0224-0.06824-0.06927l-0.35046-4.23103v-0.01221
		c0-0.04584,0.02441-0.06927,0.07434-0.06927h0.78247c0.04584,0,0.06927,0.02344,0.06927,0.06927l0.08148,2.7538
		c0,0.01733,0.00507,0.02545,0.01526,0.02545s0.01733-0.00812,0.02246-0.02545l0.74469-2.7538
		c0.01227-0.04584,0.04181-0.06927,0.08765-0.06927H7.3692C7.41913,235.8176,7.4364,235.84512,7.41913,235.89908z M2.7663,237.68303
		c0.00616,0.00403,0.01532,0,0.02753-0.01227c0.07538-0.07129,0.16199-0.12531,0.25983-0.16296
		c0.09778-0.03773,0.19965-0.05605,0.30359-0.05605c0.25873,0,0.45642,0.0876,0.59192,0.26283
		c0.1355,0.17523,0.1925,0.4187,0.17212,0.73254c0,0.03357-0.00201,0.08862-0.0061,0.16504
		c-0.00507,0.07739-0.01117,0.15179-0.01935,0.22308c-0.02039,0.16608-0.04382,0.29852-0.06824,0.39429
		c-0.05505,0.32092-0.19458,0.57153-0.41974,0.75085c-0.22516,0.17926-0.51141,0.26892-0.85785,0.26892
		c-0.32495,0-0.5766-0.08356-0.75391-0.25061c-0.17725-0.16608-0.26587-0.41461-0.26587-0.74475l0.0061-0.17523
		c0.00818-0.04987,0.03564-0.07538,0.08148-0.07538H2.5249c0.04584,0,0.06927,0.02551,0.06927,0.07538v0.10089
		c0.01221,0.20782,0.09576,0.31274,0.24957,0.31274c0.07947,0,0.14874-0.0285,0.20679-0.08453
		c0.05811-0.05707,0.10193-0.13446,0.13147-0.23535c0.02545-0.10797,0.04376-0.22308,0.05603-0.34436
		c0.01324-0.07843,0.01935-0.18542,0.01935-0.31885c-0.01221-0.19562-0.09784-0.29443-0.25671-0.29443
		c-0.15894,0-0.26697,0.07336-0.32605,0.21906c-0.02039,0.04681-0.04993,0.06927-0.08759,0.06927h-0.7132
		c-0.04584,0-0.06927-0.02551-0.06927-0.07544l0.31378-2.53474c0.00409-0.02136,0.01324-0.0387,0.02753-0.05298
		c0.01532-0.01526,0.03259-0.0224,0.05402-0.0224h2.14655c0.02039,0,0.03772,0.00714,0.04993,0.0224
		c0.01227,0.01428,0.0163,0.03162,0.01227,0.05298l-0.0744,0.60724c-0.00409,0.02032-0.01428,0.0387-0.0285,0.05298
		c-0.01428,0.01526-0.03259,0.0224-0.05298,0.0224H2.91914c-0.02039,0-0.03156,0.01019-0.03156,0.03058l-0.13141,1.05238
		C2.75617,237.67076,2.75922,237.67894,2.7663,237.68303z M15.21399,238.63768c3.3028,0,6.33966,1.13281,8.76758,3.01508
		l2.46674-2.96222c-0.86676-0.89307-1.40594-2.10609-1.40594-3.44582c0-2.7334,2.224-4.9574,4.9574-4.9574
		c1.00885,0,1.94586,0.3064,2.72961,0.82599c3.61896-4.51965,5.62036-10.16187,5.62036-15.96002v-0.60822h1.04321v0.60822
		c0,6.03979-2.08594,11.91748-5.85956,16.62402c0.87823,0.8949,1.42377,2.11761,1.42377,3.46741
		c0,1.34021-0.53943,2.55354-1.40668,3.44679l4.13531,4.95007l-0.80078,0.66833l-4.13226-4.94653
		c-0.78827,0.52856-1.73468,0.83875-2.75299,0.83875c-1.0188,0-1.96576-0.3103-2.75403-0.83929l-2.46454,2.95966
		c2.92798,2.62915,4.78339,6.43018,4.78339,10.66577c0,7.91301-6.43768,14.35069-14.35059,14.35069
		S0.8634,260.90128,0.8634,252.98827C0.8634,245.07524,7.30108,238.63768,15.21399,238.63768z M29.40887,285.88293v1.04327H16.1015
		v-1.04327H29.40887z M11.5766,303.98102v1.41913h-0.78247v-1.41913H9.37396v-0.78247h1.42017v-1.41968h0.78247v1.41968h1.41913
		v0.78247H11.5766z M12.67383,306.47296v0.78241H9.6969v-0.78241H12.67383z M11.61353,276.38321v1.73804h-0.78247v-1.73804H9.09205
		v-0.78241h1.73901v-1.73804h0.78247v1.73804h1.73804v0.78241H11.61353z M7.41913,317.22211l-1.39575,4.23102
		c-0.01221,0.04681-0.04175,0.06927-0.08765,0.06927H5.15332c-0.04584,0-0.06824-0.02246-0.06824-0.06927l-0.35046-4.23102v-0.01227
		c0-0.04584,0.02441-0.06927,0.07434-0.06927h0.78247c0.04584,0,0.06927,0.02344,0.06927,0.06927l0.08148,2.75378
		c0,0.01733,0.00507,0.02545,0.01526,0.02545s0.01733-0.00812,0.02246-0.02545l0.74469-2.75378
		c0.01227-0.04584,0.04181-0.06927,0.08765-0.06927H7.3692C7.41913,317.14056,7.4364,317.16809,7.41913,317.22211z
		 M2.7663,319.00598c0.00616,0.00409,0.01532,0,0.02753-0.01221c0.07538-0.07135,0.16199-0.12531,0.25983-0.16302
		c0.09778-0.03772,0.19965-0.05603,0.30359-0.05603c0.25873,0,0.45642,0.08759,0.59192,0.26282
		c0.1355,0.17523,0.1925,0.41876,0.17212,0.73254c0,0.03363-0.00201,0.08862-0.0061,0.16504
		c-0.00507,0.07739-0.01117,0.15179-0.01935,0.22308c-0.02039,0.16608-0.04382,0.29852-0.06824,0.39429
		c-0.05505,0.32092-0.19458,0.57153-0.41974,0.75085s-0.51141,0.26892-0.85785,0.26892c-0.32495,0-0.5766-0.0835-0.75391-0.25061
		c-0.17725-0.16602-0.26587-0.41461-0.26587-0.74469l0.0061-0.17523c0.00818-0.04993,0.03564-0.07544,0.08148-0.07544H2.5249
		c0.04584,0,0.06927,0.02551,0.06927,0.07544v0.10083c0.01221,0.20782,0.09576,0.31274,0.24957,0.31274
		c0.07947,0,0.14874-0.0285,0.20679-0.08453c0.05811-0.05707,0.10193-0.13446,0.13147-0.23535
		c0.02545-0.10797,0.04376-0.22308,0.05603-0.34436c0.01324-0.07843,0.01935-0.18536,0.01935-0.31885
		c-0.01221-0.19562-0.09784-0.29443-0.25671-0.29443c-0.15894,0-0.26697,0.07336-0.32605,0.21906
		c-0.02039,0.04688-0.04993,0.06927-0.08759,0.06927h-0.7132c-0.04584,0-0.06927-0.02551-0.06927-0.07538l0.31378-2.53473
		c0.00409-0.02142,0.01324-0.03876,0.02753-0.05298c0.01532-0.01532,0.03259-0.02246,0.05402-0.02246h2.14655
		c0.02039,0,0.03772,0.00714,0.04993,0.02246c0.01227,0.01422,0.0163,0.03156,0.01227,0.05298l-0.0744,0.60718
		c-0.00409,0.02039-0.01428,0.0387-0.0285,0.05298c-0.01428,0.01526-0.03259,0.0224-0.05298,0.0224H2.91914
		c-0.02039,0-0.03156,0.01019-0.03156,0.03058l-0.13141,1.05237C2.75617,318.99377,2.75922,319.00189,2.7663,319.00598z
		 M10.22961,356.11377c-0.06116,0.55115-0.33929,0.94952-0.83441,1.19403c-0.03363,0.0163-0.03668,0.03363-0.00916,0.04993
		c0.41772,0.22821,0.62653,0.59595,0.62653,1.10132c0,0.0509-0.0061,0.13647-0.01727,0.25873
		c-0.06622,0.53998-0.29547,0.94751-0.68872,1.22253c-0.39221,0.27612-0.87415,0.41364-1.44769,0.41364H5.75611
		c-0.0285,0-0.04993-0.00916-0.0672-0.02954c-0.0163-0.01935-0.02246-0.04279-0.0163-0.07031l0.69275-5.64197
		c0.00507-0.02753,0.01733-0.052,0.03772-0.07135c0.01935-0.01935,0.04279-0.0285,0.07025-0.0285h2.03656
		c1.15735,0,1.73602,0.43604,1.73602,1.31012C10.24591,355.94977,10.24078,356.04755,10.22961,356.11377z M14.61853,360.25409
		c-0.00513,0.02753-0.01733,0.05096-0.03772,0.07031c-0.01935,0.02039-0.04279,0.02954-0.07031,0.02954h-3.73889
		c-0.02856,0-0.04993-0.00916-0.06726-0.02954c-0.0163-0.01935-0.0224-0.04279-0.0163-0.07031l0.69275-5.64197
		c0.00513-0.02753,0.01733-0.052,0.03772-0.07135c0.01935-0.01935,0.04279-0.0285,0.07031-0.0285h0.95154
		c0.02747,0,0.04993,0.00916,0.0672,0.0285c0.0163,0.01935,0.02142,0.04382,0.0163,0.07135l-0.57556,4.69043
		c0,0.02753,0.01117,0.04181,0.03357,0.04181h2.64478c0.06213,0,0.09271,0.03357,0.09271,0.09979l-0.10083,0.80994H14.61853z
		 M20.177,360.26227c0,0.02753-0.00818,0.04993-0.02448,0.06622c-0.01733,0.01733-0.0387,0.02545-0.0672,0.02545h-1.0351
		c-0.04993,0-0.08051-0.02747-0.09167-0.08356l-0.14166-0.81805c0-0.00507-0.00305-0.01221-0.00812-0.02039
		c-0.0061-0.00812-0.01428-0.01324-0.02545-0.01324h-1.99481c-0.0163,0-0.03058,0.01221-0.04175,0.03363l-0.34131,0.81805
		c-0.01733,0.05609-0.05298,0.08356-0.10901,0.08356h-1.0351c-0.03363,0-0.05707-0.01117-0.07031-0.03363
		c-0.01422-0.0224-0.01324-0.04993,0.00409-0.0835l2.44507-5.64105c0.02753-0.05603,0.06726-0.0835,0.11719-0.0835h1.26837
		c0.04993,0,0.08356,0.02747,0.09985,0.0835l1.05139,5.64105v0.02545H20.177z M25.28516,356.37256
		c-0.01117,0.05603-0.04785,0.08661-0.10901,0.09271l-0.9505,0.05804h-0.01733c-0.05603,0-0.07745-0.03058-0.06622-0.09167
		c0.00513-0.03363,0.00818-0.08051,0.00818-0.14264c0-0.25568-0.07642-0.45844-0.22925-0.60925
		c-0.15381-0.14972-0.36066-0.2251-0.6225-0.2251c-0.28931,0-0.53278,0.09064-0.73047,0.27197
		c-0.19763,0.18036-0.31274,0.41571-0.34637,0.70502l-0.24957,2.01105c-0.0061,0.03363-0.00922,0.08051-0.00922,0.14166
		c0,0.25061,0.07544,0.45129,0.2262,0.60107c0.14978,0.15076,0.35864,0.22516,0.62555,0.22516
		c0.28931,0,0.5318-0.08868,0.72638-0.26697s0.31177-0.41156,0.35046-0.70093c0.01123-0.0611,0.04688-0.09167,0.10797-0.09167
		l0.94342,0.04181c0.02747,0,0.04993,0.00708,0.0672,0.02032c0.01636,0.01428,0.02142,0.03571,0.01636,0.06317
		c-0.04486,0.38409-0.17218,0.72333-0.38409,1.01776c-0.21191,0.29547-0.48499,0.52368-0.82214,0.68463
		c-0.33624,0.16095-0.7132,0.24249-1.13086,0.24249c-0.57867,0-1.0351-0.15588-1.36823-0.46765
		c-0.33417-0.31171-0.50128-0.72943-0.50128-1.25208c0-0.13342,0.0061-0.23633,0.01733-0.30865l0.23334-1.92755
		c0.04987-0.40143,0.1803-0.75391,0.39221-1.06055c0.21088-0.30566,0.48694-0.54199,0.82623-0.70911
		c0.33923-0.16705,0.71722-0.25061,1.13489-0.25061c0.57867,0,1.03613,0.15076,1.37335,0.45032
		c0.33618,0.30054,0.50427,0.7019,0.50427,1.20215C25.30145,356.15863,25.29638,356.25031,25.28516,356.37256z M15.21399,348.66193
		c-7.9129,0-14.35059-6.43768-14.35059-14.35071s6.43768-14.35059,14.35059-14.35059c3.3028,0,6.33966,1.13287,8.76758,3.01514
		l2.46674-2.96228c-0.86676-0.89307-1.40594-2.10608-1.40594-3.4458c0-2.7334,2.224-4.9574,4.9574-4.9574
		c1.00885,0,1.94586,0.3064,2.72961,0.82605c3.61896-4.51971,5.62036-10.16193,5.62036-15.96008v-0.60822h1.04321v0.60822
		c0,6.03979-2.08594,11.91748-5.85956,16.62402c0.87823,0.8949,1.42377,2.11761,1.42377,3.46741
		c0,1.34021-0.53943,2.55359-1.40668,3.44678l4.29675,5.13275l-0.80072,0.66833l-4.29376-5.12921
		c-0.78827,0.52856-1.73468,0.83875-2.75299,0.83875c-1.0188,0-1.96576-0.3103-2.75403-0.83929l-2.4646,2.95966
		c2.92798,2.62915,4.78345,6.43024,4.78345,10.66577C29.56458,342.22424,23.1269,348.66193,15.21399,348.66193z M30.65112,354.63654
		l-2.09467,2.37885c-0.0224,0.02246-0.0285,0.04181-0.01727,0.05908l1.51898,3.16235c0.0061,0.01117,0.00916,0.0285,0.00916,0.04993
		c0,0.0448-0.0285,0.0672-0.0835,0.0672h-1.06873c-0.05603,0-0.09167-0.0224-0.10797-0.0672l-1.1441-2.40332
		c-0.00513-0.01123-0.01324-0.0163-0.02448-0.0163c-0.01117,0-0.0224,0.00507-0.03363,0.0163l-0.5929,0.65912l-0.02448,0.04993
		l-0.20068,1.66162c-0.00513,0.02753-0.01837,0.05096-0.03772,0.07031c-0.01935,0.02039-0.04279,0.02954-0.07025,0.02954h-0.9516
		c-0.0285,0-0.04987-0.00916-0.0672-0.02954c-0.0163-0.01935-0.0224-0.04279-0.0163-0.07031l0.69275-5.64197
		c0.00513-0.02753,0.01733-0.052,0.03772-0.07135c0.01935-0.01935,0.04279-0.0285,0.07025-0.0285h0.9516
		c0.02747,0,0.04987,0.00916,0.0672,0.0285c0.0163,0.01935,0.02142,0.04382,0.0163,0.07135l-0.2832,2.33704
		c-0.0061,0.0163-0.00305,0.02649,0.00812,0.02856c0.01123,0.00305,0.02246-0.00104,0.03363-0.01227l2.16901-2.39514
		c0.03363-0.0387,0.07538-0.05804,0.12531-0.05804h1.06873c0.05499,0,0.0835,0.01935,0.0835,0.05804
		c0,0.0224-0.01117,0.04486-0.03357,0.06622H30.65112z M36.72711,360.25409c-0.00507,0.02753-0.01831,0.05096-0.03766,0.07031
		c-0.01941,0.02039-0.04279,0.02954-0.07031,0.02954H35.7002c-0.04993,0-0.08252-0.0224-0.09985-0.0672l-1.66058-3.5719
		c-0.00616-0.0163-0.01428-0.02344-0.02551-0.02039c-0.01117,0.00311-0.01935,0.01532-0.02441,0.03772l-0.41772,3.52191
		c-0.00507,0.02753-0.01831,0.05096-0.03772,0.07031c-0.01935,0.02039-0.04279,0.02954-0.07025,0.02954h-0.95154
		c-0.02856,0-0.04993-0.00916-0.06726-0.02954c-0.0163-0.01935-0.0224-0.04279-0.0163-0.07031l0.69275-5.64197
		c0.00513-0.02753,0.01733-0.052,0.03772-0.07135c0.01935-0.01935,0.04279-0.0285,0.07031-0.0285h0.91791
		c0.0509,0,0.08661,0.02136,0.10901,0.06622l1.65247,3.55554c0.00507,0.0163,0.01428,0.02344,0.02545,0.02039
		c0.01019-0.00208,0.01935-0.01532,0.02448-0.03668l0.41766-3.50562c0.00513-0.02753,0.01733-0.052,0.03772-0.07135
		c0.01935-0.01935,0.04279-0.0285,0.07031-0.0285h0.95154c0.02753,0,0.04993,0.00916,0.0672,0.0285
		c0.01636,0.01935,0.02142,0.04382,0.01636,0.07135l-0.69281,5.64197H36.72711z M42.32739,356.53961l-0.21704,1.78595
		c-0.04993,0.41772-0.18335,0.7865-0.40039,1.10638c-0.21698,0.31989-0.49817,0.56848-0.84351,0.74677
		c-0.34436,0.17828-0.72845,0.26691-1.15125,0.26691c-0.57867,0-1.03918-0.16296-1.38147-0.48798
		c-0.34229-0.32599-0.51349-0.76105-0.51349-1.30609c0-0.09985,0.00818-0.20886,0.02551-0.32599l0.21698-1.78595
		c0.04993-0.41156,0.18341-0.77631,0.40039-1.09314s0.49615-0.56335,0.83844-0.73859
		c0.34235-0.17523,0.7254-0.26288,1.14819-0.26288c0.58374,0,1.0473,0.16199,1.38959,0.48395
		c0.34131,0.32294,0.51245,0.75079,0.51245,1.28571C42.35179,356.32062,42.34367,356.42859,42.32739,356.53961z M43.8963,360.25409
		c-0.00513,0.02753-0.01831,0.05096-0.03772,0.07031c-0.01935,0.02039-0.04279,0.02954-0.07025,0.02954h-0.95154
		c-0.02856,0-0.04993-0.00916-0.06726-0.02954c-0.0163-0.01935-0.0224-0.04279-0.0163-0.07031l0.69275-5.64197
		c0.00513-0.02753,0.01733-0.052,0.03772-0.07135c0.01935-0.01935,0.04279-0.0285,0.07031-0.0285h0.95154
		c0.02747,0,0.04993,0.00916,0.0672,0.0285c0.0163,0.01935,0.02142,0.04382,0.0163,0.07135
		C44.58905,354.61212,43.8963,360.25409,43.8963,360.25409z M49.35492,356.23907l-0.01727,0.12531
		c-0.00513,0.02856-0.01733,0.052-0.03668,0.07135c-0.02039,0.01935-0.04382,0.02954-0.07135,0.02954h-0.93524
		c-0.02747,0-0.04993-0.01019-0.06622-0.02954c-0.01733-0.01935-0.0224-0.04279-0.01733-0.07135l0.00922-0.06622
		c0.02747-0.23431-0.04077-0.43298-0.20477-0.59698c-0.16406-0.164-0.41058-0.24652-0.73865-0.24652
		c-0.27301,0-0.49005,0.06311-0.651,0.18848c-0.16095,0.12427-0.24249,0.29541-0.24249,0.51245
		c0,0.12323,0.03973,0.22614,0.11719,0.30969c0.07843,0.08252,0.19354,0.16095,0.34637,0.23328s0.38513,0.17017,0.69684,0.29242
		c0.3454,0.13855,0.61334,0.25671,0.80591,0.35449c0.19153,0.0968,0.36572,0.24353,0.52161,0.43811
		c0.15485,0.19458,0.23328,0.43909,0.23328,0.73456c0,0.0387-0.00507,0.10797-0.0163,0.2088
		c-0.06726,0.52264-0.30463,0.93524-0.71417,1.23889c-0.40851,0.30359-0.93011,0.45538-1.56482,0.45538
		c-0.6062,0-1.08301-0.13654-1.4314-0.40955c-0.34741-0.27203-0.52161-0.64288-0.52161-1.1095
		c0-0.0509,0.0061-0.12531,0.01727-0.22614l0.02448-0.18341c0.0061-0.02747,0.01831-0.0509,0.03772-0.07025
		c0.01935-0.02039,0.04279-0.02954,0.07129-0.02954h0.92609c0.02747,0,0.04993,0.00916,0.0672,0.02954
		c0.0163,0.01935,0.02142,0.04279,0.0163,0.07025l-0.0163,0.12531c-0.0285,0.22314,0.04791,0.41058,0.22925,0.56342
		c0.1803,0.15283,0.44116,0.22925,0.7804,0.22925c0.31177,0,0.54608-0.06927,0.70502-0.20782
		c0.15894-0.13959,0.23834-0.30975,0.23834-0.5094c0-0.12225-0.04071-0.22516-0.12122-0.30872
		c-0.08044-0.08356-0.18951-0.1579-0.32599-0.22107c-0.13654-0.06421-0.3515-0.15485-0.64691-0.27203
		c-0.32196-0.12225-0.59497-0.24243-0.81708-0.36267c-0.22314-0.1192-0.40955-0.27917-0.55933-0.47986
		c-0.15076-0.20068-0.22516-0.44824-0.22516-0.74268c0-0.0387,0.00513-0.10901,0.0163-0.20886
		c0.06116-0.50635,0.29242-0.90771,0.69281-1.20624c0.40033-0.29749,0.89551-0.44623,1.48535-0.44623
		c0.37799,0,0.71313,0.06519,1.00555,0.19666c0.29236,0.13037,0.51752,0.31378,0.67645,0.55011
		c0.1579,0.23639,0.23737,0.51349,0.23737,0.83032c0,0.0448-0.00507,0.11713-0.0163,0.21698H49.35492z M49.55975,318.07355
		l-0.24451,2.00293c-0.04584,0.37494-0.19556,0.67548-0.4472,0.90063c-0.25269,0.22614-0.56439,0.3382-0.93628,0.3382
		c-0.33826,0-0.60413-0.09271-0.79773-0.27814c-0.19458-0.18536-0.29132-0.43909-0.29132-0.76099
		c0-0.04181,0.00403-0.10803,0.01221-0.19971l0.24451-2.00293c0.04584-0.37592,0.19354-0.67645,0.44421-0.90161
		c0.25061-0.22516,0.56134-0.33826,0.93317-0.33826c0.33722,0,0.60413,0.09271,0.80078,0.27814
		c0.19659,0.18646,0.29443,0.44012,0.29443,0.76105C49.57202,317.91461,49.56793,317.98187,49.55975,318.07355z M49.67188,239.0537
		l0.27606-2.25356c0.00409-0.02142,0.01324-0.03876,0.02753-0.05402c0.01526-0.01428,0.03259-0.02142,0.05396-0.02142h0.7132
		c0.02136,0,0.03766,0.00714,0.04987,0.02142c0.01324,0.01526,0.01733,0.03259,0.01324,0.05402l-0.25061,2.05898
		c-0.00403,0.02136-0.0061,0.05194-0.0061,0.09369c0,0.09167,0.01935,0.16199,0.05908,0.2099
		c0.03973,0.04785,0.0968,0.07233,0.17218,0.07233c0.09167,0,0.16711-0.03564,0.22516-0.10699
		c0.05804-0.07031,0.09576-0.16608,0.1131-0.28729l0.24957-2.0406c0.00513-0.02142,0.01428-0.03876,0.02856-0.05402
		c0.01422-0.01428,0.03259-0.02142,0.05298-0.02142h0.71417c0.02032,0,0.03766,0.00714,0.04987,0.02142
		c0.01227,0.01526,0.01636,0.03259,0.01227,0.05402l-0.37494,3.06654c-0.00507,0.02136-0.01422,0.0387-0.0285,0.05298
		c-0.01428,0.01526-0.03259,0.0224-0.05298,0.0224h-0.71417c-0.02039,0-0.03772-0.00714-0.04993-0.0224
		c-0.01221-0.01428-0.0163-0.03162-0.01221-0.05298l0.01221-0.10596c0.00409-0.01227,0.00201-0.02142-0.0061-0.02551
		c-0.00818-0.00403-0.0163,0-0.02545,0.01324c-0.13348,0.15796-0.32501,0.23743-0.57562,0.23743
		c-0.21704,0-0.39429-0.06116-0.5318-0.18445c-0.13757-0.12323-0.20685-0.31171-0.20685-0.56641
		c0-0.03772,0.00409-0.09784,0.01227-0.18134H49.67188z M49.68408,320.37701l0.27606-2.25354
		c0.00409-0.02136,0.01324-0.0387,0.02753-0.05402c0.01526-0.01422,0.03259-0.02136,0.05402-0.02136h0.71313
		c0.02136,0,0.03766,0.00714,0.04993,0.02136c0.01324,0.01532,0.01733,0.03265,0.01324,0.05402l-0.25061,2.05896
		c-0.00409,0.02142-0.00616,0.05194-0.00616,0.09375c0,0.09167,0.01941,0.16199,0.05914,0.20984
		c0.03973,0.04791,0.09674,0.07233,0.17212,0.07233c0.09174,0,0.16711-0.03564,0.22516-0.10693
		c0.05811-0.07031,0.09576-0.16608,0.1131-0.28729l0.24963-2.04065c0.00507-0.02136,0.01422-0.0387,0.0285-0.05402
		c0.01428-0.01422,0.03259-0.02136,0.05298-0.02136h0.71417c0.02039,0,0.03766,0.00714,0.04993,0.02136
		c0.01221,0.01532,0.0163,0.03265,0.01221,0.05402L51.86321,321.19c-0.00507,0.02142-0.01422,0.03876-0.0285,0.05298
		c-0.01428,0.01532-0.03259,0.0224-0.05298,0.0224h-0.71417c-0.02039,0-0.03766-0.00708-0.04993-0.0224
		c-0.01221-0.01422-0.0163-0.03156-0.01221-0.05298l0.01221-0.10596c0.00409-0.01221,0.00208-0.02136-0.0061-0.02545
		c-0.00812-0.00409-0.0163,0-0.02545,0.01324c-0.13348,0.1579-0.32501,0.23737-0.57562,0.23737
		c-0.21698,0-0.39429-0.0611-0.5318-0.18439s-0.20679-0.31177-0.20679-0.56647
		C49.67188,320.52069,49.6759,320.46057,49.68408,320.37701z M54.22778,355.422c-0.00513,0.02753-0.01837,0.05096-0.03772,0.07031
		s-0.04279,0.02954-0.07025,0.02954h-2.66315c-0.01117,0-0.02032,0.00409-0.0285,0.01227
		c-0.00818,0.00812-0.01324,0.01831-0.01324,0.02954l-0.1579,1.29382c0,0.02753,0.01117,0.04175,0.03363,0.04175h1.74414
		c0.02753,0,0.04993,0.00922,0.06622,0.02856c0.01733,0.01935,0.0224,0.04382,0.01733,0.07129l-0.10089,0.80896
		c-0.00507,0.0285-0.01831,0.05194-0.03766,0.07129c-0.01941,0.01935-0.04285,0.02954-0.07031,0.02954h-1.74414
		c-0.02856,0-0.04181,0.01324-0.04181,0.04175l-0.16705,1.35193c0,0.02753,0.01117,0.04181,0.03363,0.04181h2.65393
		c0.0611,0,0.09167,0.03357,0.09167,0.09979l-0.10089,0.80994c-0.00507,0.02753-0.01727,0.05096-0.03668,0.07031
		c-0.02032,0.02039-0.04376,0.02954-0.07129,0.02954h-3.74707c-0.02856,0-0.04993-0.00916-0.06726-0.02954
		c-0.0163-0.01935-0.0224-0.04279-0.0163-0.07031l0.69275-5.64197c0.00513-0.02753,0.01733-0.052,0.03772-0.07135
		c0.01935-0.01935,0.04279-0.0285,0.07031-0.0285h3.73889c0.02856,0,0.052,0.00916,0.07135,0.0285s0.02649,0.04382,0.02039,0.07135
		L54.22778,355.422z M54.98071,155.94748c-0.00409,0.02032-0.01422,0.03766-0.0285,0.05298
		c-0.01428,0.01422-0.03259,0.02136-0.05298,0.02136h-0.34436c-0.00812,0-0.01526,0.00305-0.0224,0.00916
		c-0.0061,0.00714-0.00916,0.01428-0.00916,0.02246l-0.18134,1.48944c-0.00409,0.02136-0.00616,0.04993-0.00616,0.08759
		c0,0.08765,0.01935,0.14874,0.05908,0.1814c0.03973,0.03357,0.09784,0.04889,0.17218,0.04376h0.04382
		c0.02142,0,0.03772,0.00818,0.04993,0.0224c0.01324,0.01428,0.01733,0.03265,0.01324,0.05298l-0.07538,0.61334
		c-0.00409,0.02136-0.01324,0.0387-0.02856,0.05298c-0.01422,0.01526-0.03156,0.0224-0.05298,0.0224h-0.24451
		c-0.26691,0-0.46863-0.04077-0.60614-0.12225c-0.13855-0.08148-0.20685-0.23431-0.20685-0.45947
		c0-0.02954,0.00409-0.08148,0.01227-0.15686l0.22516-1.8277c0-0.02039-0.00818-0.03162-0.02448-0.03162h-0.20068
		c-0.02039,0-0.03772-0.00714-0.04993-0.02136c-0.01221-0.01532-0.01733-0.03265-0.01221-0.05298l0.05603-0.46967
		c0.00403-0.02142,0.01324-0.03876,0.0285-0.05402c0.01428-0.01428,0.03156-0.02136,0.05298-0.02136h0.19971
		c0.02136,0,0.03156-0.01019,0.03156-0.03162l0.08759-0.69482c0.00409-0.02032,0.01324-0.0387,0.02856-0.05298
		c0.01428-0.01422,0.03156-0.02136,0.05298-0.02136h0.68256c0.02039,0,0.03772,0.00714,0.04993,0.02136
		c0.01221,0.01428,0.0163,0.03265,0.01221,0.05298l-0.08759,0.69482c0,0.02142,0.01019,0.03162,0.03156,0.03162h0.33826
		c0.02039,0,0.03668,0.00708,0.04993,0.02136c0.01221,0.01526,0.0163,0.03259,0.01221,0.05402l-0.05603,0.46967H54.98071z
		 M55.23035,239.91966c-0.01227-0.01428-0.0163-0.03162-0.01227-0.05298l0.08154-0.63165c0-0.03363,0.01221-0.06519,0.03766-0.09375
		c0.12939-0.15485,0.2608-0.30463,0.39429-0.45129c0.42175-0.47986,0.72028-0.83643,0.89551-1.06976
		c0.29547-0.40956,0.44421-0.74776,0.44421-1.01472c0-0.10797-0.02344-0.19153-0.06927-0.25061
		c-0.04584-0.05804-0.10803-0.08759-0.1875-0.08759c-0.09576,0-0.17621,0.0387-0.24146,0.11615
		c-0.06415,0.07739-0.10083,0.17621-0.10901,0.29749l-0.03156,0.25671c-0.00409,0.02039-0.01428,0.0387-0.03156,0.05298
		c-0.01636,0.01526-0.03467,0.0224-0.05609,0.0224H55.6256c-0.02136,0-0.03772-0.00714-0.0509-0.0224
		c-0.01227-0.01428-0.01636-0.03259-0.01227-0.05298l0.03772-0.29443c0.05804-0.34229,0.21088-0.61633,0.45642-0.82318
		c0.24652-0.20679,0.54297-0.30969,0.8894-0.30969c0.30457,0,0.54706,0.09167,0.72943,0.27509
		c0.18134,0.18439,0.27203,0.42993,0.27203,0.73859c0,0.03772-0.00409,0.10291-0.01227,0.19458
		c-0.02954,0.21704-0.08966,0.42279-0.18237,0.61639c-0.09167,0.19356-0.2251,0.40547-0.40033,0.6357
		c-0.19153,0.24146-0.42383,0.51245-0.69482,0.81299c-0.04993,0.06317-0.10187,0.12329-0.15588,0.18237
		c-0.05499,0.05811-0.10901,0.11816-0.16302,0.18134c-0.00812,0.00818-0.01019,0.0163-0.0061,0.02448
		c0.00409,0.00916,0.01019,0.01324,0.01837,0.01324h1.27039c0.02142,0,0.03772,0.00714,0.05096,0.02136
		c0.01221,0.01428,0.0163,0.03265,0.01221,0.05298l-0.07538,0.60724c0,0.02136-0.00818,0.0387-0.02448,0.05298
		c-0.01727,0.01526-0.03564,0.0224-0.05701,0.0224h-2.24646C55.25989,239.94206,55.24359,239.93492,55.23035,239.91966z
		 M57.95966,317.58453c-0.00409,0.02954-0.01837,0.06116-0.04382,0.09375l-0.78851,0.8833
		c-0.01733,0.02441-0.01532,0.03766,0.0061,0.03766c0.17523,0.0163,0.31482,0.09985,0.41974,0.24963
		c0.10388,0.15076,0.15588,0.3382,0.15588,0.56335c0,0.16302-0.00818,0.31787-0.02448,0.46356
		c-0.02954,0.20068-0.05707,0.35657-0.08148,0.46967c-0.07135,0.30054-0.21399,0.53687-0.42889,0.71008
		c-0.21497,0.17322-0.48291,0.25977-0.80487,0.25977c-0.33313,0-0.59393-0.09167-0.78241-0.27502
		c-0.18744-0.18341-0.271-0.42792-0.24963-0.73254c0-0.07538,0.00818-0.19659,0.02448-0.36267
		c0.00812-0.05096,0.03564-0.07538,0.08148-0.07538h0.70703c0.05505,0,0.07745,0.02441,0.06927,0.07538
		c-0.01221,0.09167-0.01935,0.18134-0.01935,0.26898c0,0.10797,0.02344,0.1925,0.06927,0.25366
		c0.04584,0.06012,0.11108,0.09064,0.19458,0.09064c0.07849,0,0.14874-0.02954,0.20886-0.08759
		c0.06116-0.05908,0.10596-0.13757,0.13452-0.2384c0.01324-0.06213,0.03766-0.21295,0.07538-0.45032
		c0.02136-0.19659,0.02954-0.35046,0.02545-0.4635c-0.00409-0.09174-0.02954-0.1651-0.07538-0.21906
		c-0.04584-0.05402-0.10596-0.08154-0.18134-0.08154c-0.06317,0-0.12738,0.02753-0.19458,0.08154
		c-0.02448,0.01733-0.04181,0.02545-0.04993,0.02545c-0.02039,0-0.03772-0.01019-0.04993-0.03156l-0.31891-0.38208
		c-0.00916-0.00812-0.01324-0.0224-0.01324-0.04376c0-0.02448,0.00916-0.0459,0.02551-0.06219l0.84454-0.93317
		c0.01733-0.02448,0.01324-0.03772-0.01221-0.03772h-1.09521c-0.02136,0-0.03772-0.00714-0.04993-0.02136
		c-0.01221-0.01428-0.01733-0.03265-0.01221-0.05298l0.07434-0.60114c0.00409-0.02136,0.01428-0.0387,0.02856-0.05298
		c0.01422-0.01526,0.03259-0.0224,0.05298-0.0224h2.09052c0.02142,0,0.03772,0.00714,0.04993,0.0224
		c0.01324,0.01428,0.01733,0.03162,0.01324,0.05298l-0.07538,0.62555H57.95966z"/>
	<path fill="#29292A" d="M24.35876,24.63037c0.30566,0,0.5542-0.09778,0.74371-0.29236
		c0.18744-0.19458,0.2832-0.45337,0.2832-0.77631v-1.83588c0-0.32294-0.09369-0.58276-0.27911-0.7804
		c-0.1875-0.19763-0.43604-0.29645-0.7478-0.29645c-0.30566,0-0.55219,0.09882-0.73761,0.29645
		c-0.18744,0.19763-0.28119,0.45746-0.28119,0.7804v1.83588c0,0.32294,0.09375,0.58173,0.28119,0.77631
		C23.80657,24.53259,24.0531,24.63037,24.35876,24.63037z"/>
	<path fill="#181818" d="M8.38458,355.52185H7.43304c-0.01123,0-0.02039,0.00409-0.02856,0.01227
		c-0.00812,0.00812-0.01324,0.01831-0.01324,0.02954l-0.1579,1.302c-0.01117,0.02747,0,0.04175,0.03363,0.04175h0.9505
		c0.25067,0,0.45337-0.06012,0.60925-0.17932c0.15588-0.12018,0.24756-0.28827,0.27612-0.50531l0.00812-0.09985
		c0-0.18945-0.06213-0.33722-0.18744-0.44318C8.79821,355.57483,8.61889,355.52185,8.38458,355.52185z"/>
	<path fill="#1A1A1A" d="M29.99976,320.48181c2.15778,0,3.91418-1.75635,3.91418-3.91412s-1.75641-3.91418-3.91418-3.91418
		s-3.91412,1.75641-3.91412,3.91418S27.84199,320.48181,29.99976,320.48181z"/>
	<path fill="#181818" d="M18.19952,355.95178c-0.01117,0.00305-0.01935,0.01221-0.02545,0.02856l-1.01776,2.4787
		c-0.0061,0.03357,0.00305,0.0509,0.02441,0.0509h1.42737c0.0285,0,0.04175-0.01733,0.04175-0.0509l-0.42584-2.4787
		C18.21887,355.95892,18.21076,355.94873,18.19952,355.95178z"/>
	<path fill="#29292A" d="M36.45172,23.70428c0.03467,0,0.0448-0.01727,0.03467-0.0509l-0.75189-2.4787
		c-0.0061-0.02142-0.01428-0.03162-0.02448-0.02856c-0.01221,0.00311-0.02032,0.01227-0.02441,0.02856l-0.7356,2.4787
		c-0.0061,0.03363,0.00616,0.0509,0.03259,0.0509C34.9826,23.70428,36.45173,23.70428,36.45172,23.70428z"/>
	<path fill="#222223" d="M29.99976,157.83591c2.15778,0,3.91418-1.75641,3.91418-3.91418s-1.75641-3.91412-3.91418-3.91412
		s-3.91412,1.75635-3.91412,3.91412S27.84199,157.83591,29.99976,157.83591z"/>
	<circle fill="#262626" cx="15.21397" cy="90.34237" r="13.30733"/>
	<circle fill="#1D1D1E" cx="15.21398" cy="252.98831" r="13.30733"/>
	<path fill="#272727" d="M29.99976,76.51295c2.15778,0,3.91418-1.75641,3.91418-3.91418c0-2.15778-1.75641-3.91418-3.91418-3.91418
		s-3.91412,1.75641-3.91412,3.91418C26.08564,74.75655,27.84199,76.51295,29.99976,76.51295z"/>
	<path fill="#1E1E1F" d="M29.99976,239.15886c2.15778,0,3.91418-1.75636,3.91418-3.91414s-1.75641-3.91418-3.91418-3.91418
		s-3.91412,1.75635-3.91412,3.91418S27.84199,239.15886,29.99976,239.15886z"/>
	<circle fill="#222222" cx="15.21396" cy="171.66533" r="13.30733"/>
	<path fill="#1E1E1F" d="M48.00714,239.23503c0.11719,0,0.21399-0.04077,0.29138-0.12225
		c0.07745-0.08154,0.12427-0.18848,0.14062-0.32196l0.25671-2.07832c0.00409-0.01733,0.0061-0.04175,0.0061-0.07538
		c0-0.1131-0.02954-0.20276-0.08759-0.26898c-0.05811-0.0672-0.13757-0.10083-0.23743-0.10083
		c-0.11304,0-0.20782,0.04071-0.28522,0.12225c-0.07745,0.08148-0.12433,0.18945-0.14062,0.32294l-0.25671,2.07832
		c-0.00409,0.0163-0.0061,0.04077-0.0061,0.0744c0,0.1131,0.0285,0.2027,0.08759,0.26892
		c0.05811,0.06726,0.1355,0.10089,0.23126,0.10089H48.00714z"/>
	<path fill="#181818" d="M40.32446,355.45465c-0.29547,0-0.54608,0.09882-0.75189,0.29645s-0.32806,0.4574-0.36676,0.7804
		l-0.22516,1.83582c-0.0061,0.03973-0.00812,0.09784-0.00812,0.17523c0,0.27307,0.07739,0.49005,0.23328,0.651
		c0.15588,0.16199,0.36676,0.24249,0.6347,0.24249c0.30054,0,0.55219-0.09778,0.75494-0.29242
		c0.2027-0.19458,0.32703-0.45331,0.37183-0.77631l0.22516-1.83582c0.00513-0.03876,0.00818-0.0968,0.00818-0.17523
		c0-0.27814-0.07849-0.49817-0.23334-0.65918C40.8114,355.53613,40.59643,355.45465,40.32446,355.45465z"/>
	<path fill="#1A1A1A" d="M48.38922,317.59064c-0.1131,0-0.20782,0.04077-0.28528,0.12225
		c-0.07745,0.08154-0.12427,0.18951-0.14056,0.323l-0.25677,2.07831c-0.00409,0.0163-0.0061,0.04071-0.0061,0.07434
		c0,0.1131,0.0285,0.20276,0.08765,0.26898c0.05804,0.06726,0.1355,0.10083,0.23126,0.10083
		c0.11713,0,0.21393-0.04071,0.29132-0.12225c0.07745-0.08148,0.12433-0.18848,0.14062-0.3219l0.25671-2.07831
		c0.00409-0.01733,0.0061-0.04181,0.0061-0.07544c0-0.11304-0.02954-0.2027-0.08759-0.26892
		C48.56847,317.62427,48.48901,317.59064,48.38922,317.59064z"/>
	<path fill="#222223" d="M48.94037,157.91269c0.11713,0,0.21393-0.04077,0.29138-0.12225
		c0.07739-0.08148,0.12427-0.18848,0.14056-0.32196l0.25677-2.07831c0.00403-0.01727,0.0061-0.04175,0.0061-0.07538
		c0-0.1131-0.02954-0.20276-0.08765-0.26898c-0.05804-0.0672-0.13751-0.10083-0.23737-0.10083
		c-0.1131,0-0.20782,0.04077-0.28528,0.12225c-0.07739,0.08148-0.12427,0.18951-0.14056,0.32294l-0.25671,2.07831
		c-0.00409,0.0163-0.00616,0.04077-0.00616,0.0744c0,0.1131,0.02856,0.20276,0.08765,0.26898
		C48.76714,157.87906,48.8446,157.91269,48.94037,157.91269z"/>
</g>
</svg>
