<?xml version="1.0" encoding="UTF-8" standalone="no"?>
<!-- Created with Inkscape (http://www.inkscape.org/) -->

<svg
   width="20.32mm"
   height="128.5mm"
   viewBox="0 0 20.32 128.5"
   version="1.1"
   id="svg10419"
   inkscape:version="1.2.1 (9c6d41e, 2022-07-14)"
   sodipodi:docname="GOMAII.svg"
   xmlns:inkscape="http://www.inkscape.org/namespaces/inkscape"
   xmlns:sodipodi="http://sodipodi.sourceforge.net/DTD/sodipodi-0.dtd"
   xmlns="http://www.w3.org/2000/svg"
   xmlns:svg="http://www.w3.org/2000/svg">
  <sodipodi:namedview
     id="namedview10421"
     pagecolor="#ffffff"
     bordercolor="#666666"
     borderopacity="1.0"
     inkscape:showpageshadow="2"
     inkscape:pageopacity="0.0"
     inkscape:pagecheckerboard="0"
     inkscape:deskcolor="#d1d1d1"
     inkscape:document-units="mm"
     showgrid="false"
     inkscape:zoom="1.2938725"
     inkscape:cx="-110.1345"
     inkscape:cy="318.03752"
     inkscape:window-width="1390"
     inkscape:window-height="1205"
     inkscape:window-x="767"
     inkscape:window-y="25"
     inkscape:window-maximized="0"
     inkscape:current-layer="layer3" />
  <defs
     id="defs10416">
    <linearGradient
       id="uuid-1fd2844f-1225-48b8-94c3-9f46fcf4c71e"
       x1="30"
       y1="0"
       x2="30"
       y2="379.99997"
       gradientUnits="userSpaceOnUse"
       gradientTransform="scale(1.0015045)">
      <stop
         offset="0"
         stop-color="#2a2a2b"
         id="stop2" />
      <stop
         offset="1"
         stop-color="#171717"
         id="stop4" />
    </linearGradient>
    <linearGradient
       id="uuid-1fd2844f-1225-48b8-94c3-9f46fcf4c71e-1"
       x1="30"
       y1="0"
       x2="30"
       y2="379.99997"
       gradientUnits="userSpaceOnUse">
      <stop
         offset="0"
         stop-color="#2a2a2b"
         id="stop2-0" />
      <stop
         offset="1"
         stop-color="#171717"
         id="stop4-1" />
    </linearGradient>
  </defs>
  <g
     inkscape:label="Layer 1"
     inkscape:groupmode="layer"
     id="layer1">
    <g
       id="uuid-20daf340-977c-4cc8-8386-921bfc919077"
       data-name="FND BG"
       transform="scale(0.33866667)">
      <rect
         width="60"
         height="379.99997"
         fill="url(#uuid-1fd2844f-1225-48b8-94c3-9f46fcf4c71e)"
         stroke-width="0"
         id="rect9"
         x="0"
         y="0"
         style="fill:url(#uuid-1fd2844f-1225-48b8-94c3-9f46fcf4c71e-1)" />
    </g>
    <g
       id="uuid-717b6d93-fe5f-4936-a71b-f08f4994a64d"
       data-name="FND GRAPH"
       transform="scale(0.33815792)">
      <g
         id="g32">
        <path
           d="m 9.38604,357.35767 c 0.4177,0.22821 0.62655,0.59599 0.62655,1.1013 0,0.0509 -0.0061,0.13652 -0.01732,0.25877 -0.06622,0.53995 -0.29545,0.94747 -0.6887,1.22254 -0.39223,0.27609 -0.87412,0.41363 -1.44769,0.41363 H 5.75611 c -0.02853,0 -0.04992,-0.009 -0.06724,-0.0295 -0.0163,-0.0194 -0.02241,-0.0428 -0.0163,-0.0703 l 0.69277,-5.64202 c 0.00509,-0.0275 0.01732,-0.052 0.03769,-0.0713 0.01936,-0.0194 0.04279,-0.0285 0.0703,-0.0285 h 2.03655 c 1.15734,0 1.73601,0.43604 1.73601,1.31015 0,0.12735 -0.0051,0.22515 -0.0163,0.29137 -0.06113,0.55116 -0.33925,0.94951 -0.83438,1.19401 -0.03362,0.0163 -0.03668,0.0336 -0.00917,0.0499 z m -0.75492,1.74823 c 0.15893,-0.15282 0.23738,-0.36269 0.23738,-0.62961 0,-0.19459 -0.06215,-0.34537 -0.18746,-0.45132 -0.12531,-0.10493 -0.30156,-0.15791 -0.52977,-0.15791 H 7.14981 c -0.02853,0 -0.04177,0.0132 -0.04177,0.0418 l -0.17523,1.38554 c 0,0.0275 0.01121,0.0418 0.03362,0.0418 h 1.01776 c 0.27303,0 0.488,-0.0764 0.64693,-0.23024 z m -1.22661,-3.57185 c -0.00815,0.008 -0.01324,0.0183 -0.01324,0.0295 l -0.15791,1.302 c -0.01121,0.0275 0,0.0418 0.03362,0.0418 H 8.2175 c 0.25062,0 0.45336,-0.0601 0.60923,-0.17931 0.15587,-0.12022 0.24756,-0.28832 0.27609,-0.50532 l 0.00815,-0.0998 c 0,-0.18949 -0.06215,-0.33722 -0.18746,-0.44317 -0.12531,-0.10493 -0.30462,-0.15791 -0.53894,-0.15791 H 7.43303 c -0.01121,0 -0.02038,0.004 -0.02853,0.0122 z"
           fill="#ffffff"
           stroke-width="0"
           id="path12" />
        <path
           d="m 10.70435,360.32436 c -0.0163,-0.0194 -0.02241,-0.0428 -0.0163,-0.0703 l 0.69277,-5.64202 c 0.0051,-0.0275 0.01732,-0.052 0.03769,-0.0713 0.01936,-0.0194 0.04279,-0.0285 0.0703,-0.0285 h 0.95154 c 0.02751,0 0.04992,0.009 0.06724,0.0285 0.0163,0.0194 0.02139,0.0438 0.0163,0.0713 l -0.57561,4.69048 c 0,0.0275 0.01121,0.0418 0.03362,0.0418 h 2.64476 c 0.06215,0 0.09271,0.0336 0.09271,0.0998 l -0.10086,0.80993 c -0.0051,0.0275 -0.01732,0.0509 -0.03769,0.0703 -0.01936,0.0204 -0.04279,0.0295 -0.0703,0.0295 h -3.73893 c -0.02853,0 -0.04992,-0.009 -0.06724,-0.0295 z"
           fill="#ffffff"
           stroke-width="0"
           id="path14" />
        <path
           d="m 18.95853,360.27037 -0.14161,-0.81808 c 0,-0.005 -0.0031,-0.0122 -0.0082,-0.0204 -0.0061,-0.008 -0.01426,-0.0132 -0.02547,-0.0132 h -1.99478 c -0.0163,0 -0.03056,0.0122 -0.04177,0.0336 l -0.34129,0.81808 c -0.01732,0.056 -0.05298,0.0835 -0.10901,0.0835 h -1.03508 c -0.03362,0 -0.05705,-0.0112 -0.0703,-0.0336 -0.01426,-0.0224 -0.01324,-0.0499 0.0041,-0.0835 l 2.44508,-5.641 c 0.02751,-0.056 0.06724,-0.0835 0.11716,-0.0835 h 1.26838 c 0.04992,0 0.08354,0.0275 0.09984,0.0835 l 1.05138,5.641 v 0.0255 c 0,0.0275 -0.0082,0.0499 -0.02445,0.0662 -0.01732,0.0173 -0.03871,0.0255 -0.06724,0.0255 h -1.03508 c -0.04992,0 -0.08048,-0.0275 -0.09169,-0.0835 z m -1.77778,-1.76046 h 1.42732 c 0.02853,0 0.04177,-0.0173 0.04177,-0.0509 l -0.42585,-2.4787 c -0.0051,-0.0214 -0.01324,-0.0316 -0.02445,-0.0285 -0.01121,0.003 -0.01936,0.0122 -0.02547,0.0285 l -1.01776,2.4787 c -0.0061,0.0336 0.0031,0.0509 0.02445,0.0509 z"
           fill="#ffffff"
           stroke-width="0"
           id="path16" />
        <path
           d="m 21.32109,359.95353 c -0.33416,-0.31175 -0.50124,-0.72945 -0.50124,-1.25208 0,-0.13346 0.0061,-0.23636 0.01732,-0.30869 l 0.2333,-1.92754 c 0.04992,-0.4014 0.18032,-0.7539 0.39223,-1.06055 0.21089,-0.30563 0.48698,-0.54199 0.82623,-0.70907 0.33925,-0.16708 0.71722,-0.25062 1.13492,-0.25062 0.57867,0 1.0361,0.15078 1.37332,0.4503 0.3362,0.30054 0.5043,0.70194 0.5043,1.20216 0,0.0611 -0.0051,0.15282 -0.0163,0.27507 -0.01121,0.056 -0.04788,0.0866 -0.10901,0.0927 l -0.95052,0.0581 h -0.01732 c -0.05603,0 -0.07743,-0.0306 -0.06622,-0.0917 0.0051,-0.0336 0.0082,-0.0805 0.0082,-0.14263 0,-0.25571 -0.07641,-0.45845 -0.22923,-0.60923 -0.15384,-0.14976 -0.36065,-0.22515 -0.62248,-0.22515 -0.28933,0 -0.53282,0.0907 -0.73047,0.27202 -0.19764,0.18032 -0.31277,0.41566 -0.34639,0.705 l -0.2496,2.01108 c -0.0061,0.0336 -0.0092,0.0805 -0.0092,0.14161 0,0.25062 0.07539,0.45132 0.22617,0.60108 0.14976,0.15078 0.35861,0.22515 0.62553,0.22515 0.28933,0 0.5318,-0.0886 0.72639,-0.26692 0.19459,-0.17829 0.31175,-0.41159 0.35046,-0.70092 0.01121,-0.0611 0.04686,-0.0917 0.10799,-0.0917 l 0.94339,0.0418 c 0.02751,0 0.04992,0.007 0.06724,0.0204 0.0163,0.0143 0.02139,0.0357 0.0163,0.0632 -0.04483,0.38408 -0.17217,0.72334 -0.38408,1.01776 -0.21191,0.29545 -0.48494,0.52365 -0.82216,0.68462 -0.3362,0.16097 -0.71315,0.24247 -1.13085,0.24247 -0.57867,0 -1.03508,-0.15587 -1.36823,-0.46762 z"
           fill="#ffffff"
           stroke-width="0"
           id="path18" />
        <path
           d="m 25.66008,360.32436 c -0.0163,-0.0194 -0.02241,-0.0428 -0.0163,-0.0703 l 0.69277,-5.64202 c 0.0051,-0.0275 0.01732,-0.052 0.03769,-0.0713 0.01936,-0.0194 0.04279,-0.0285 0.0703,-0.0285 h 0.95154 c 0.02751,0 0.04992,0.009 0.06724,0.0285 0.0163,0.0194 0.02139,0.0438 0.0163,0.0713 l -0.28322,2.33709 c -0.0061,0.0163 -0.0031,0.0265 0.0082,0.0285 0.01121,0.003 0.02241,-10e-4 0.03362,-0.0122 l 2.16899,-2.39516 c 0.03362,-0.0387 0.07539,-0.0581 0.12531,-0.0581 h 1.0687 c 0.05501,0 0.08354,0.0194 0.08354,0.0581 0,0.0224 -0.01121,0.0448 -0.03362,0.0662 l -2.09462,2.37886 c -0.02241,0.0224 -0.02853,0.0418 -0.01732,0.0591 l 1.51901,3.1623 c 0.0061,0.0112 0.0092,0.0285 0.0092,0.0499 0,0.0448 -0.02853,0.0672 -0.08354,0.0672 h -1.0687 c -0.05603,0 -0.09169,-0.0224 -0.10799,-0.0672 l -1.14409,-2.40331 c -0.0051,-0.0112 -0.01324,-0.0163 -0.02445,-0.0163 -0.01121,0 -0.02241,0.005 -0.03362,0.0163 l -0.59293,0.65915 -0.02445,0.0499 -0.2007,1.66164 c -0.0051,0.0275 -0.01834,0.0509 -0.03769,0.0703 -0.01936,0.0204 -0.04279,0.0295 -0.0703,0.0295 h -0.95154 c -0.02853,0 -0.04992,-0.009 -0.06724,-0.0295 z"
           fill="#ffffff"
           stroke-width="0"
           id="path20" />
        <path
           d="m 36.31452,354.54073 c 0.01936,-0.0194 0.04279,-0.0285 0.0703,-0.0285 h 0.95154 c 0.02751,0 0.04992,0.009 0.06724,0.0285 0.0163,0.0194 0.02139,0.0438 0.0163,0.0713 l -0.69277,5.64202 c -0.0051,0.0275 -0.01834,0.0509 -0.03769,0.0703 -0.01936,0.0204 -0.04279,0.0295 -0.0703,0.0295 H 35.7002 c -0.04992,0 -0.08252,-0.0224 -0.09984,-0.0672 l -1.66062,-3.57185 c -0.0061,-0.0163 -0.01426,-0.0234 -0.02547,-0.0204 -0.01121,0.003 -0.01936,0.0153 -0.02445,0.0377 l -0.4177,3.52193 c -0.0051,0.0275 -0.01834,0.0509 -0.03769,0.0703 -0.01936,0.0204 -0.04279,0.0295 -0.0703,0.0295 h -0.95154 c -0.02853,0 -0.04992,-0.009 -0.06724,-0.0295 -0.0163,-0.0194 -0.02241,-0.0428 -0.0163,-0.0703 l 0.69277,-5.64202 c 0.0051,-0.0275 0.01732,-0.052 0.03769,-0.0713 0.01936,-0.0194 0.04279,-0.0285 0.0703,-0.0285 h 0.91792 c 0.05094,0 0.0866,0.0214 0.10901,0.0662 l 1.65247,3.55555 c 0.0051,0.0163 0.01426,0.0234 0.02547,0.0204 0.01019,-0.002 0.01936,-0.0153 0.02445,-0.0367 l 0.4177,-3.50563 c 0.0051,-0.0275 0.01732,-0.052 0.03769,-0.0713 z"
           fill="#ffffff"
           stroke-width="0"
           id="path22" />
        <path
           d="m 38.33374,359.9576 c -0.34231,-0.32601 -0.51347,-0.76103 -0.51347,-1.30608 0,-0.0998 0.0082,-0.20885 0.02547,-0.32601 l 0.217,-1.78593 c 0.04992,-0.41159 0.18338,-0.77631 0.40038,-1.09315 0.217,-0.31684 0.49615,-0.56339 0.83846,-0.73862 0.34231,-0.17523 0.72537,-0.26285 1.14817,-0.26285 0.58376,0 1.04731,0.16199 1.38962,0.48392 0.34129,0.32295 0.51245,0.75084 0.51245,1.2857 0,0.10595 -0.0081,0.21394 -0.02445,0.32499 l -0.217,1.78593 c -0.04992,0.4177 -0.18338,0.7865 -0.40038,1.1064 -0.217,0.3199 -0.49818,0.56848 -0.84355,0.74677 -0.34435,0.17829 -0.72843,0.26692 -1.15122,0.26692 -0.57867,0 -1.03916,-0.16301 -1.38147,-0.488 z m 2.2617,-0.81401 c 0.20274,-0.19459 0.32703,-0.45336 0.37186,-0.77631 l 0.22515,-1.83585 c 0.0051,-0.0387 0.0082,-0.0968 0.0082,-0.17523 0,-0.27813 -0.07845,-0.49818 -0.2333,-0.65915 -0.15587,-0.16097 -0.37084,-0.24247 -0.64285,-0.24247 -0.29545,0 -0.54607,0.0988 -0.75186,0.29647 -0.20579,0.19765 -0.32805,0.45743 -0.36676,0.78039 l -0.22515,1.83585 c -0.0061,0.0397 -0.0082,0.0978 -0.0082,0.17523 0,0.27303 0.07743,0.49003 0.2333,0.651 0.15587,0.16199 0.36676,0.24247 0.6347,0.24247 0.30054,0 0.55218,-0.0978 0.75492,-0.29239 z"
           fill="#ffffff"
           stroke-width="0"
           id="path24" />
        <path
           d="m 42.76952,360.32436 c -0.0163,-0.0194 -0.02241,-0.0428 -0.0163,-0.0703 l 0.69277,-5.64202 c 0.0051,-0.0275 0.01732,-0.052 0.03769,-0.0713 0.01936,-0.0194 0.04279,-0.0285 0.0703,-0.0285 h 0.95154 c 0.02751,0 0.04992,0.009 0.06724,0.0285 0.0163,0.0194 0.02139,0.0438 0.0163,0.0713 l -0.69277,5.64202 c -0.0051,0.0275 -0.01834,0.0509 -0.03769,0.0703 -0.01936,0.0204 -0.04279,0.0295 -0.0703,0.0295 h -0.95154 c -0.02853,0 -0.04992,-0.009 -0.06724,-0.0295 z"
           fill="#ffffff"
           stroke-width="0"
           id="path26" />
        <path
           d="m 45.37761,360.0116 c -0.34741,-0.27202 -0.52162,-0.64285 -0.52162,-1.10945 0,-0.0509 0.0061,-0.12531 0.01732,-0.22617 l 0.02445,-0.18338 c 0.0061,-0.0275 0.01834,-0.0509 0.03769,-0.0703 0.01936,-0.0204 0.04279,-0.0295 0.07131,-0.0295 h 0.92607 c 0.02751,0 0.04992,0.009 0.06724,0.0295 0.0163,0.0194 0.02139,0.0428 0.0163,0.0703 l -0.0163,0.12531 c -0.02853,0.22311 0.04788,0.41057 0.22923,0.56339 0.18032,0.15282 0.44113,0.22923 0.78039,0.22923 0.31175,0 0.54607,-0.0693 0.705,-0.20783 0.15893,-0.13957 0.2384,-0.30971 0.2384,-0.50939 0,-0.12225 -0.04075,-0.22515 -0.12124,-0.30869 -0.08049,-0.0835 -0.18949,-0.15791 -0.32601,-0.22108 -0.13652,-0.0642 -0.35148,-0.15486 -0.64693,-0.27202 -0.32194,-0.12225 -0.59497,-0.24247 -0.81706,-0.36269 -0.22311,-0.1192 -0.40955,-0.27915 -0.55931,-0.47985 -0.15078,-0.2007 -0.22515,-0.44826 -0.22515,-0.74269 0,-0.0387 0.0051,-0.10901 0.0163,-0.20885 0.06113,-0.50634 0.29239,-0.90774 0.69277,-1.20624 0.40038,-0.29748 0.89551,-0.44623 1.48539,-0.44623 0.37797,0 0.71315,0.0652 1.00554,0.19663 0.29239,0.1304 0.51754,0.31379 0.67647,0.55014 0.15791,0.23636 0.23738,0.51347 0.23738,0.83031 0,0.0448 -0.0051,0.11716 -0.0163,0.217 l -0.01732,0.12531 c -0.0051,0.0285 -0.01732,0.052 -0.03668,0.0713 -0.02038,0.0194 -0.04381,0.0295 -0.07131,0.0295 h -0.93524 c -0.02751,0 -0.04992,-0.0102 -0.06622,-0.0295 -0.01732,-0.0194 -0.02241,-0.0428 -0.01732,-0.0713 l 0.0092,-0.0662 c 0.02751,-0.23432 -0.04075,-0.43298 -0.20478,-0.59701 -0.16403,-0.16403 -0.41057,-0.24655 -0.73862,-0.24655 -0.27303,0 -0.49003,0.0632 -0.651,0.18847 -0.16097,0.12429 -0.24247,0.29545 -0.24247,0.51245 0,0.12327 0.03973,0.22617 0.11716,0.30971 0.07845,0.0825 0.19357,0.16097 0.34639,0.2333 0.15282,0.0723 0.3851,0.17014 0.69685,0.29239 0.34537,0.13855 0.61331,0.25673 0.80586,0.35454 0.19153,0.0968 0.36574,0.24349 0.52162,0.43808 0.15486,0.19459 0.2333,0.4391 0.2333,0.73454 0,0.0387 -0.0051,0.10799 -0.0163,0.20885 -0.06724,0.52264 -0.30462,0.93524 -0.71417,1.23884 -0.40853,0.3036 -0.93015,0.4554 -1.56485,0.4554 -0.60618,0 -1.08297,-0.13652 -1.43139,-0.40955 z"
           fill="#ffffff"
           stroke-width="0"
           id="path28" />
        <path
           d="m 54.19008,355.49228 c -0.01936,0.0194 -0.04279,0.0295 -0.0703,0.0295 h -2.6631 c -0.01121,0 -0.02038,0.004 -0.02853,0.0122 -0.0082,0.008 -0.01324,0.0183 -0.01324,0.0295 l -0.15791,1.29385 c 0,0.0275 0.01121,0.0418 0.03362,0.0418 h 1.74416 c 0.02751,0 0.04992,0.009 0.06622,0.0285 0.01732,0.0194 0.02241,0.0438 0.01732,0.0713 l -0.10086,0.80891 c -0.0051,0.0285 -0.01834,0.052 -0.03769,0.0713 -0.01935,0.0193 -0.04279,0.0295 -0.0703,0.0295 h -1.74416 c -0.02853,0 -0.04177,0.0132 -0.04177,0.0418 l -0.16708,1.35193 c 0,0.0275 0.01121,0.0418 0.03362,0.0418 h 2.65393 c 0.06113,0 0.09169,0.0336 0.09169,0.0998 l -0.10086,0.80993 c -0.0051,0.0275 -0.01732,0.0509 -0.03668,0.0703 -0.02038,0.0204 -0.04381,0.0295 -0.07131,0.0295 h -3.74708 c -0.02853,0 -0.04992,-0.009 -0.06724,-0.0295 -0.0163,-0.0194 -0.02241,-0.0428 -0.0163,-0.0703 l 0.69277,-5.64202 c 0.0051,-0.0275 0.01732,-0.052 0.03769,-0.0713 0.01936,-0.0194 0.04279,-0.0285 0.0703,-0.0285 h 3.73893 c 0.02853,0 0.05196,0.009 0.07131,0.0285 0.01935,0.0194 0.02649,0.0438 0.02038,0.0713 l -0.09984,0.80993 c -0.0051,0.0275 -0.01834,0.0509 -0.03769,0.0703 z"
           fill="#ffffff"
           stroke-width="0"
           id="path30" />
      </g>
      <g
         id="g46">
        <path
           d="m 18.09121,25.35679 c -0.32805,-0.17319 -0.58274,-0.41363 -0.76409,-0.72232 -0.17931,-0.30869 -0.271,-0.66628 -0.271,-1.07278 v -1.86947 c 0,-0.40548 0.09169,-0.76511 0.271,-1.07583 0.18134,-0.31175 0.43604,-0.55218 0.76409,-0.72232 0.32805,-0.17014 0.70704,-0.2547 1.13492,-0.2547 0.42381,0 0.79669,0.08354 1.1227,0.25062 0.32601,0.16708 0.57867,0.39325 0.76001,0.67953 0.18134,0.2873 0.271,0.60516 0.271,0.95562 v 0.05909 c 0,0.02751 -0.01019,0.05094 -0.02853,0.0703 -0.02038,0.02038 -0.04483,0.02954 -0.07131,0.02954 h -0.97599 c -0.02853,0 -0.05298,-0.0092 -0.07131,-0.02954 -0.02038,-0.01936 -0.03056,-0.04279 -0.03056,-0.0703 v -0.02547 c 0,-0.25571 -0.08762,-0.4717 -0.26692,-0.64693 -0.17727,-0.17523 -0.41363,-0.26285 -0.70907,-0.26285 -0.29952,0 -0.53995,0.09373 -0.7213,0.28017 -0.18135,0.18644 -0.271,0.42993 -0.271,0.73047 v 1.93569 c 0,0.30054 0.0978,0.54403 0.29137,0.73047 0.19561,0.18644 0.44215,0.27915 0.74371,0.27915 0.28933,0 0.51958,-0.07641 0.69277,-0.22923 0.17116,-0.15282 0.25877,-0.36574 0.25877,-0.63878 v -0.37491 c 0,-0.02853 -0.01426,-0.04177 -0.04279,-0.04177 h -0.93524 c -0.02649,0 -0.05094,-0.01019 -0.06928,-0.02954 -0.02038,-0.01936 -0.03056,-0.04279 -0.03056,-0.07131 v -0.76714 c 0,-0.02751 0.01019,-0.05196 0.03056,-0.07131 0.01834,-0.01936 0.04279,-0.02954 0.06928,-0.02954 h 2.03757 c 0.02649,0 0.05094,0.01019 0.07131,0.02954 0.01834,0.01936 0.02853,0.04381 0.02853,0.07131 v 1.1013 c 0,0.42279 -0.08965,0.79058 -0.26692,1.1013 -0.17931,0.31175 -0.42993,0.55014 -0.75594,0.71417 -0.32601,0.16403 -0.70296,0.24655 -1.13085,0.24655 -0.42789,0 -0.80688,-0.0866 -1.13492,-0.25877 z"
           fill="#ffffff"
           stroke-width="0"
           id="path34" />
        <path
           d="M 23.21162,25.37309 C 22.8795,25.1948 22.62276,24.94622 22.43938,24.62632 22.256,24.30642 22.16431,23.93762 22.16431,23.51992 v -1.78593 c 0,-0.41159 0.09169,-0.77631 0.27507,-1.09315 0.18338,-0.31684 0.44011,-0.56339 0.77224,-0.73862 0.33009,-0.17523 0.71315,-0.26285 1.14715,-0.26285 0.44011,0 0.82521,0.08762 1.1553,0.26285 0.33212,0.17523 0.58886,0.42178 0.77224,0.73862 0.18338,0.31684 0.27507,0.68157 0.27507,1.09315 v 1.78593 c 0,0.4177 -0.09169,0.78752 -0.27507,1.11047 -0.18338,0.32295 -0.44011,0.57154 -0.77224,0.74677 -0.33009,0.17523 -0.71519,0.26285 -1.1553,0.26285 -0.434,0 -0.81706,-0.08863 -1.14715,-0.26692 z m 1.89086,-1.03508 c 0.18746,-0.19459 0.28322,-0.45336 0.28322,-0.77631 v -1.83585 c 0,-0.32295 -0.09373,-0.58274 -0.27915,-0.78039 -0.18746,-0.19764 -0.43604,-0.29647 -0.74779,-0.29647 -0.30563,0 -0.55218,0.09882 -0.7376,0.29647 -0.18746,0.19764 -0.28118,0.45743 -0.28118,0.78039 v 1.83585 c 0,0.32295 0.09373,0.58173 0.28118,0.77631 0.18542,0.19459 0.43196,0.29239 0.7376,0.29239 0.30564,0 0.55422,-0.0978 0.74371,-0.29239 z"
           fill="#ffffff"
           stroke-width="0"
           id="path36" />
        <path
           d="m 31.33743,19.70662 h 0.97599 c 0.02853,0 0.05094,0.0092 0.07131,0.02853 0.01834,0.01936 0.02853,0.04381 0.02853,0.07131 v 5.64202 c 0,0.02751 -0.01019,0.05094 -0.02853,0.0703 -0.02038,0.02038 -0.04279,0.02954 -0.07131,0.02954 h -0.97599 c -0.02853,0 -0.05298,-0.0092 -0.07131,-0.02954 -0.02038,-0.01936 -0.03056,-0.04279 -0.03056,-0.0703 v -3.68086 c 0,-0.02241 -0.0041,-0.03362 -0.0163,-0.03362 -0.01019,0 -0.02241,0.0081 -0.0326,0.02547 l -0.8843,1.38554 c -0.02853,0.04381 -0.06724,0.06622 -0.11818,0.06622 h -0.49105 c -0.05094,0 -0.08965,-0.02241 -0.11818,-0.06622 l -0.8843,-1.38554 c -0.01019,-0.01732 -0.02241,-0.02343 -0.0326,-0.02139 -0.01223,0.0031 -0.0163,0.01528 -0.0163,0.03769 v 3.67271 c 0,0.02751 -0.01019,0.05094 -0.03056,0.0703 -0.01834,0.02038 -0.04279,0.02954 -0.07131,0.02954 h -0.97599 c -0.02649,0 -0.05094,-0.0092 -0.07131,-0.02954 -0.01834,-0.01936 -0.02853,-0.04279 -0.02853,-0.0703 v -5.64202 c 0,-0.02751 0.01019,-0.05196 0.02853,-0.07131 0.02038,-0.01936 0.04483,-0.02853 0.07131,-0.02853 h 0.97599 c 0.05094,0 0.08965,0.02139 0.11818,0.06622 l 1.25107,1.94486 c 0.0163,0.03362 0.03464,0.03362 0.05094,0 l 1.25922,-1.94486 c 0.02853,-0.04483 0.06724,-0.06622 0.11818,-0.06622 z"
           fill="#ffffff"
           stroke-width="0"
           id="path38" />
        <path
           d="M 37.0365,25.46478 36.78588,24.6467 c -0.01019,-0.02139 -0.02445,-0.03362 -0.04075,-0.03362 h -2.05387 c -0.0163,0 -0.03056,0.01223 -0.04075,0.03362 l -0.24247,0.81808 c -0.0163,0.05603 -0.05298,0.08354 -0.10799,0.08354 h -1.06157 c -0.0326,0 -0.05705,-0.0092 -0.07335,-0.02954 -0.01834,-0.01936 -0.02038,-0.04788 -0.01019,-0.08762 l 1.80325,-5.641 c 0.0163,-0.05603 0.05298,-0.08354 0.10799,-0.08354 h 1.31015 c 0.05705,0 0.09373,0.02751 0.11003,0.08354 l 1.80121,5.641 c 0.0061,0.01121 0.01019,0.02547 0.01019,0.04177 0,0.04992 -0.03056,0.07539 -0.09169,0.07539 H 37.1445 c -0.05501,0 -0.09169,-0.02751 -0.10799,-0.08354 z m -2.05386,-1.76046 h 1.46909 c 0.03464,0 0.04483,-0.01732 0.03464,-0.05094 l -0.75186,-2.4787 c -0.0061,-0.02139 -0.01426,-0.03158 -0.02445,-0.02853 -0.01223,0.0031 -0.02038,0.01223 -0.02445,0.02853 l -0.73556,2.4787 c -0.0061,0.03362 0.0061,0.05094 0.0326,0.05094 z"
           fill="#ffffff"
           stroke-width="0"
           id="path40" />
        <path
           d="m 41.07903,25.54832 h -0.58682 v -4.45004 h 0.58682 z"
           fill="#ffffff"
           stroke-width="0"
           id="path42" />
        <path
           d="M 42.7804,25.54832 H 42.19358 V 21.09828 H 42.7804 Z"
           fill="#ffffff"
           stroke-width="0"
           id="path44" />
      </g>
      <path
         d="m 39.39295,51.89914 h -1.04323 v 0.60821 c 0,5.79815 -2.0014,11.44036 -5.62037,15.96006 -0.7837,-0.51964 -1.72072,-0.82604 -2.72957,-0.82604 -2.73339,0 -4.9574,2.224 -4.9574,4.9574 0,1.33976 0.53919,2.55275 1.40592,3.44584 l -2.67125,3.20783 0.80076,0.66832 2.66794,-3.20388 c 0.78828,0.529 1.73524,0.83929 2.75403,0.83929 1.01827,0 1.96472,-0.31016 2.75301,-0.83871 l 4.10278,4.97949 0.80076,-0.66832 -4.10584,-4.98305 c 0.86724,-0.89322 1.40668,-2.10659 1.40668,-3.4468 0,-1.34976 -0.54556,-2.57249 -1.42375,-3.46736 3.77357,-4.70659 5.85953,-10.58426 5.85953,-16.62406 v -0.60821 z m -9.39318,24.6138 c -2.15778,0 -3.91416,-1.75638 -3.91416,-3.91416 0,-2.15778 1.75638,-3.91416 3.91416,-3.91416 2.15778,0 3.91416,1.75638 3.91416,3.91416 0,2.15778 -1.75638,3.91416 -3.91416,3.91416 z"
         fill="#ffffff"
         stroke-width="0"
         id="path48" />
      <path
         d="m 15.21398,77.035 c 7.3495,0 13.30734,5.95784 13.30734,13.30734 0,7.3495 -5.95784,13.30747 -13.30734,13.30747 -7.3495,0 -13.30734,-5.95797 -13.30734,-13.30747 0,-7.3495 5.95784,-13.30734 13.30734,-13.30734 m 0,-1.04324 c -7.91289,0 -14.35058,6.43769 -14.35058,14.35058 0,7.91289 6.43769,14.3507 14.35058,14.3507 7.91289,0 14.35058,-6.43769 14.35058,-14.3507 0,-7.91301 -6.43769,-14.35058 -14.35058,-14.35058 z"
         fill="#ffffff"
         stroke-width="0"
         id="path50" />
      <rect
         x="16.10153"
         y="41.914051"
         width="13.30734"
         height="1.0432301"
         fill="#ffffff"
         stroke-width="0"
         id="rect52" />
      <path
         d="m 13.35156,32.41437 h -1.73805 v 1.73804 H 10.83108 V 32.41437 H 9.09203 v -0.78243 h 1.73905 V 29.8939 h 0.78243 v 1.73804 h 1.73805 z"
         fill="#ffffff"
         stroke-width="0"
         id="path54" />
      <path
         d="M 12.67381,63.28646 H 9.69693 v -0.78243 h 2.97688 z m 0.32194,-3.27436 h -1.41917 v 1.41916 H 10.79415 V 60.0121 H 9.37398 v -0.78243 h 1.42017 V 57.81 h 0.78243 v 1.41967 h 1.41917 z"
         fill="#ffffff"
         stroke-width="0"
         id="path56" />
      <g
         id="g62">
        <path
           d="m 4.11519,75.96621 c -0.00509,0.07743 -0.01121,0.1518 -0.01936,0.22311 -0.02038,0.16606 -0.04381,0.2985 -0.06826,0.39427 -0.05501,0.32092 -0.19459,0.57154 -0.41974,0.75084 -0.22515,0.1793 -0.51143,0.26896 -0.85782,0.26896 -0.32499,0 -0.57663,-0.08354 -0.7539,-0.25062 -0.17727,-0.16606 -0.2659,-0.41464 -0.2659,-0.74473 l 0.00611,-0.17523 c 0.00815,-0.04992 0.03566,-0.07539 0.0815,-0.07539 h 0.70704 c 0.04585,0 0.06928,0.02547 0.06928,0.07539 v 0.10086 c 0.01223,0.20783 0.09577,0.31277 0.2496,0.31277 0.07947,0 0.14874,-0.02853 0.20681,-0.08456 C 3.10862,76.70483 3.15243,76.6274 3.18197,76.52654 3.20744,76.41855 3.22578,76.30343 3.238,76.18219 3.25124,76.10374 3.25736,75.99677 3.25736,75.86331 3.24513,75.6677 3.15956,75.56888 3.00063,75.56888 c -0.15893,0 -0.26692,0.07335 -0.32601,0.21904 C 2.65424,75.83478 2.6247,75.8572 2.587,75.8572 H 1.87385 c -0.04585,0 -0.06928,-0.02547 -0.06928,-0.07539 l 0.31379,-2.53473 c 0.00408,-0.02139 0.01324,-0.03871 0.02751,-0.05298 0.01528,-0.01528 0.0326,-0.02241 0.054,-0.02241 h 2.14658 c 0.02038,0 0.03769,0.0071 0.04992,0.02241 0.01223,0.01426 0.0163,0.03158 0.01223,0.05298 L 4.33423,73.85427 C 4.33015,73.87465 4.31997,73.89298 4.3057,73.90725 4.29144,73.92253 4.2731,73.92966 4.25272,73.92966 H 2.91913 c -0.02038,0 -0.03158,0.01019 -0.03158,0.03056 l -0.13142,1.0524 c 0,0.01223 0.00306,0.02038 0.01019,0.02445 0.00611,0.0041 0.01528,0 0.02751,-0.01223 0.07539,-0.07131 0.16199,-0.12531 0.25979,-0.16301 0.0978,-0.0377 0.19968,-0.05603 0.3036,-0.05603 0.25877,0 0.45641,0.08762 0.59191,0.26285 0.1355,0.17523 0.19255,0.41872 0.17217,0.7325 0,0.03362 -0.00204,0.08863 -0.00611,0.16504 z"
           fill="#ffffff"
           stroke-width="0"
           id="path58" />
        <path
           d="M 5.08507,77.4842 4.73461,73.25319 v -0.01223 c 0,-0.04585 0.02445,-0.06928 0.07437,-0.06928 h 0.78243 c 0.04585,0 0.06928,0.02343 0.06928,0.06928 l 0.0815,2.75377 c 0,0.01732 0.00509,0.02547 0.01528,0.02547 0.01019,0 0.01732,-0.0082 0.02241,-0.02547 l 0.74473,-2.75377 c 0.01223,-0.04585 0.04177,-0.06928 0.08762,-0.06928 h 0.75696 c 0.04992,0 0.06724,0.02751 0.04992,0.0815 L 6.02338,77.48419 C 6.01115,77.53105 5.98161,77.55347 5.93576,77.55347 H 5.15333 c -0.04585,0 -0.06826,-0.02241 -0.06826,-0.06928 z"
           fill="#ffffff"
           stroke-width="0"
           id="path60" />
      </g>
      <g
         id="g70">
        <path
           d="m 53.53711,73.65015 c -0.01426,0.01528 -0.03158,0.02241 -0.05298,0.02241 h -1.27042 c -0.02139,0 -0.03158,0.01019 -0.03158,0.03056 l -0.12531,0.98924 c 0,0.02139 0.0092,0.03158 0.02547,0.03158 h 0.7325 c 0.02038,0 0.03769,0.0071 0.04992,0.02139 0.01223,0.01528 0.0163,0.0326 0.01223,0.054 l -0.07437,0.60719 c -0.0051,0.02038 -0.01426,0.03769 -0.02853,0.05298 -0.01528,0.01426 -0.0326,0.02139 -0.05298,0.02139 h -0.72639 c -0.02547,0 -0.03769,0.01121 -0.03769,0.03158 l -0.1192,0.99535 c -0.0082,0.02038 0,0.03158 0.02547,0.03158 h 1.26431 c 0.02038,0 0.03871,0.0071 0.05298,0.02139 0.01528,0.01426 0.02038,0.0326 0.0163,0.05298 l -0.07539,0.60719 c -0.0041,0.02139 -0.01324,0.03871 -0.02853,0.05298 -0.01426,0.01528 -0.0326,0.02241 -0.05298,0.02241 h -2.08443 c -0.02139,0 -0.03769,-0.0071 -0.04992,-0.02241 -0.01223,-0.01426 -0.01732,-0.03158 -0.01223,-0.05298 l 0.51958,-4.23101 c 0.0041,-0.02139 0.01324,-0.03871 0.02751,-0.05298 0.01528,-0.01528 0.0326,-0.02241 0.05298,-0.02241 h 2.08443 c 0.02139,0 0.03769,0.0071 0.05094,0.02241 0.01223,0.01426 0.0163,0.03158 0.01223,0.05298 l -0.07539,0.60719 c -0.0041,0.02038 -0.01324,0.03871 -0.02853,0.05298 z"
           fill="#ffffff"
           stroke-width="0"
           id="path64" />
        <path
           d="m 53.37818,77.27396 c -0.0092,-0.01426 -0.0041,-0.03566 0.01223,-0.0652 l 0.87615,-1.5027 0.0061,-0.03668 -0.51347,-1.5027 -0.0061,-0.02547 c 0,-0.04075 0.02547,-0.06215 0.07539,-0.06215 h 0.77631 c 0.04177,0 0.06826,0.01834 0.0815,0.05603 l 0.20579,0.70805 c 0.01324,0.02445 0.02547,0.02445 0.03769,0 l 0.38204,-0.70805 c 0.02139,-0.03769 0.05196,-0.05603 0.09373,-0.05603 h 0.7702 c 0.02954,0 0.04788,0.0071 0.05603,0.02139 0.0082,0.01528 0.0041,0.03668 -0.01223,0.06622 l -0.87615,1.5027 c -0.0041,0.01223 -0.0041,0.02445 0,0.03668 l 0.50634,1.5027 0.0071,0.02547 c 0,0.04177 -0.02547,0.06215 -0.07539,0.06215 h -0.7702 c -0.04177,0 -0.06622,-0.01834 -0.07539,-0.05603 l -0.21191,-0.7325 c -0.0092,-0.03362 -0.01936,-0.03362 -0.03158,0 l -0.38816,0.7325 c -0.01732,0.03769 -0.04788,0.05603 -0.09373,0.05603 h -0.77631 c -0.02954,0 -0.04788,-0.0071 -0.05603,-0.02241 z"
           fill="#ffffff"
           stroke-width="0"
           id="path66" />
        <path
           d="m 57.89343,74.67708 c -0.01426,0.01426 -0.0326,0.02139 -0.05298,0.02139 H 57.4961 c -0.0082,0 -0.01528,0.0031 -0.02241,0.0092 -0.0061,0.0071 -0.0092,0.01426 -0.0092,0.02241 l -0.18134,1.48946 c -0.0041,0.02139 -0.0061,0.04992 -0.0061,0.08762 0,0.08762 0.01936,0.14874 0.05909,0.18134 0.03973,0.03362 0.0978,0.0489 0.17217,0.04381 h 0.04381 c 0.02139,0 0.03769,0.0082 0.04992,0.02241 0.01324,0.01426 0.01732,0.0326 0.01324,0.05298 l -0.07539,0.61331 c -0.0041,0.02139 -0.01324,0.03871 -0.02853,0.05298 -0.01426,0.01528 -0.03158,0.02241 -0.05298,0.02241 h -0.24451 c -0.26692,0 -0.46864,-0.04075 -0.60618,-0.12225 -0.13855,-0.0815 -0.20681,-0.23432 -0.20681,-0.45947 0,-0.02954 0.0041,-0.0815 0.01223,-0.15689 l 0.22515,-1.8277 c 0,-0.02038 -0.0082,-0.03158 -0.02445,-0.03158 h -0.2007 c -0.02038,0 -0.03769,-0.0071 -0.04992,-0.02139 -0.01223,-0.01528 -0.01732,-0.0326 -0.01223,-0.05298 l 0.05603,-0.46966 c 0.0041,-0.02139 0.01324,-0.03871 0.02853,-0.054 0.01426,-0.01426 0.03158,-0.02139 0.05298,-0.02139 h 0.19968 c 0.02139,0 0.03158,-0.01019 0.03158,-0.03158 l 0.08762,-0.69481 c 0.0041,-0.02038 0.01324,-0.03871 0.02853,-0.05298 0.01426,-0.01426 0.03158,-0.02139 0.05298,-0.02139 h 0.68258 c 0.02038,0 0.03769,0.0071 0.04992,0.02139 0.01223,0.01426 0.0163,0.0326 0.01223,0.05298 L 57.546,74.04751 c 0,0.02139 0.01019,0.03158 0.03158,0.03158 h 0.33824 c 0.02038,0 0.03668,0.0071 0.04992,0.02139 0.01223,0.01528 0.0163,0.0326 0.01223,0.054 l -0.05603,0.46966 c -0.0041,0.02038 -0.01426,0.03769 -0.02853,0.05298 z"
           fill="#ffffff"
           stroke-width="0"
           id="path68" />
      </g>
      <path
         d="m 39.39295,133.2221 h -1.04323 v 0.60821 c 0,5.79815 -2.0014,11.44036 -5.62037,15.96006 -0.7837,-0.51964 -1.72072,-0.82604 -2.72957,-0.82604 -2.73339,0 -4.9574,2.224 -4.9574,4.9574 0,1.33976 0.53919,2.55275 1.40592,3.44584 l -2.67125,3.20783 0.80076,0.66832 2.66794,-3.20388 c 0.78828,0.529 1.73524,0.83929 2.75403,0.83929 1.01827,0 1.96472,-0.31016 2.75301,-0.83871 l 4.12093,4.89736 0.80076,-0.66832 -4.12398,-4.90092 c 0.86724,-0.89322 1.40668,-2.10659 1.40668,-3.4468 0,-1.34976 -0.54556,-2.57249 -1.42375,-3.46736 3.77357,-4.70659 5.85953,-10.58426 5.85953,-16.62406 v -0.60821 z m -9.39318,24.61379 c -2.15778,0 -3.91416,-1.75638 -3.91416,-3.91416 0,-2.15778 1.75638,-3.91416 3.91416,-3.91416 2.15778,0 3.91416,1.75638 3.91416,3.91416 0,2.15778 -1.75638,3.91416 -3.91416,3.91416 z"
         fill="#ffffff"
         stroke-width="0"
         id="path72" />
      <path
         d="m 15.21398,158.35795 c 7.3495,0 13.30734,5.95784 13.30734,13.30734 0,7.3495 -5.95784,13.30747 -13.30734,13.30747 -7.3495,0 -13.30734,-5.95797 -13.30734,-13.30747 0,-7.3495 5.95784,-13.30734 13.30734,-13.30734 m 0,-1.04324 c -7.91289,0 -14.35058,6.43769 -14.35058,14.35058 0,7.91289 6.43769,14.3507 14.35058,14.3507 7.91289,0 14.35058,-6.43769 14.35058,-14.3507 0,-7.91301 -6.43769,-14.35058 -14.35058,-14.35058 z"
         fill="#ffffff"
         stroke-width="0"
         id="path74" />
      <rect
         x="16.10153"
         y="123.237"
         width="13.30734"
         height="1.0432301"
         fill="#ffffff"
         stroke-width="0"
         id="rect76" />
      <path
         d="m 13.35156,113.73732 h -1.73805 v 1.73804 h -0.78243 v -1.73804 H 9.09203 v -0.78243 h 1.73905 v -1.73804 h 0.78243 v 1.73804 h 1.73805 z"
         fill="#ffffff"
         stroke-width="0"
         id="path78" />
      <path
         d="M 12.67381,144.60941 H 9.69693 v -0.78243 h 2.97688 z m 0.32194,-3.27436 h -1.41917 v 1.41916 h -0.78243 v -1.41916 H 9.37398 v -0.78243 h 1.42017 v -1.41967 h 0.78243 v 1.41967 h 1.41917 z"
         fill="#ffffff"
         stroke-width="0"
         id="path80" />
      <g
         id="g86">
        <path
           d="m 4.11519,157.28916 c -0.00509,0.0774 -0.01121,0.1518 -0.01936,0.22311 -0.02038,0.16606 -0.04381,0.2985 -0.06826,0.39427 -0.05501,0.32092 -0.19459,0.57154 -0.41974,0.75084 -0.22515,0.1793 -0.51143,0.26896 -0.85782,0.26896 -0.32499,0 -0.57663,-0.0835 -0.7539,-0.25062 -0.17727,-0.16606 -0.2659,-0.41464 -0.2659,-0.74473 l 0.00611,-0.17523 c 0.00815,-0.0499 0.03566,-0.0754 0.0815,-0.0754 h 0.70704 c 0.04585,0 0.06928,0.0255 0.06928,0.0754 v 0.10086 c 0.01223,0.20783 0.09577,0.31277 0.2496,0.31277 0.07947,0 0.14874,-0.0285 0.20681,-0.0846 0.05807,-0.0571 0.10188,-0.13448 0.13142,-0.23534 0.02547,-0.10799 0.04381,-0.22311 0.05603,-0.34435 0.01324,-0.0785 0.01936,-0.18542 0.01936,-0.31888 -0.01223,-0.19561 -0.0978,-0.29443 -0.25673,-0.29443 -0.15893,0 -0.26692,0.0734 -0.32601,0.21904 -0.02038,0.0469 -0.04992,0.0693 -0.08762,0.0693 H 1.87385 c -0.04585,0 -0.06928,-0.0255 -0.06928,-0.0754 L 2.11836,154.57 c 0.00408,-0.0214 0.01324,-0.0387 0.02751,-0.053 0.01528,-0.0153 0.0326,-0.0224 0.054,-0.0224 h 2.14658 c 0.02038,0 0.03769,0.007 0.04992,0.0224 0.01223,0.0143 0.0163,0.0316 0.01223,0.053 l -0.07437,0.60719 c -0.00408,0.0204 -0.01426,0.0387 -0.02853,0.053 -0.01426,0.0153 -0.0326,0.0224 -0.05298,0.0224 H 2.91913 c -0.02038,0 -0.03158,0.0102 -0.03158,0.0306 l -0.13142,1.0524 c 0,0.0122 0.00306,0.0204 0.01019,0.0245 0.00611,0.004 0.01528,0 0.02751,-0.0122 0.07539,-0.0713 0.16199,-0.12531 0.25979,-0.16301 0.0978,-0.0377 0.19968,-0.056 0.3036,-0.056 0.25877,0 0.45641,0.0876 0.59191,0.26285 0.1355,0.17523 0.19255,0.41872 0.17217,0.7325 0,0.0336 -0.00204,0.0886 -0.00611,0.16504 z"
           fill="#ffffff"
           stroke-width="0"
           id="path82" />
        <path
           d="m 5.08507,158.80715 -0.35046,-4.23101 v -0.0122 c 0,-0.0459 0.02445,-0.0693 0.07437,-0.0693 h 0.78243 c 0.04585,0 0.06928,0.0234 0.06928,0.0693 l 0.0815,2.75377 c 0,0.0173 0.00509,0.0255 0.01528,0.0255 0.01019,0 0.01732,-0.008 0.02241,-0.0255 l 0.74473,-2.75377 c 0.01223,-0.0459 0.04177,-0.0693 0.08762,-0.0693 h 0.75696 c 0.04992,0 0.06724,0.0275 0.04992,0.0815 l -1.39573,4.23101 c -0.01223,0.0469 -0.04177,0.0693 -0.08762,0.0693 H 5.15333 c -0.04585,0 -0.06826,-0.0224 -0.06826,-0.0693 z"
           fill="#ffffff"
           stroke-width="0"
           id="path84" />
      </g>
      <path
         d="m 39.39295,214.54505 h -1.04323 v 0.60821 c 0,5.79815 -2.0014,11.44036 -5.62037,15.96006 -0.7837,-0.51964 -1.72072,-0.82604 -2.72957,-0.82604 -2.73339,0 -4.9574,2.224 -4.9574,4.9574 0,1.33976 0.53919,2.55275 1.40592,3.44584 l -2.67125,3.20783 0.80076,0.66832 2.66794,-3.20388 c 0.78828,0.529 1.73524,0.83929 2.75403,0.83929 1.01827,0 1.96472,-0.31016 2.75301,-0.83871 l 4.13226,4.94653 0.80076,-0.66832 -4.13532,-4.9501 c 0.86724,-0.89322 1.40668,-2.10659 1.40668,-3.4468 0,-1.34976 -0.54556,-2.57249 -1.42375,-3.46736 3.77357,-4.70659 5.85953,-10.58426 5.85953,-16.62406 z m -9.39318,24.61379 c -2.15778,0 -3.91416,-1.75638 -3.91416,-3.91416 0,-2.15778 1.75638,-3.91416 3.91416,-3.91416 2.15778,0 3.91416,1.75638 3.91416,3.91416 0,2.15778 -1.75638,3.91416 -3.91416,3.91416 z"
         fill="#ffffff"
         stroke-width="0"
         id="path88" />
      <path
         d="m 15.21398,239.6809 c 7.3495,0 13.30734,5.95784 13.30734,13.30734 0,7.3495 -5.95784,13.30747 -13.30734,13.30747 -7.3495,0 -13.30734,-5.95797 -13.30734,-13.30747 0,-7.3495 5.95784,-13.30734 13.30734,-13.30734 m 0,-1.04324 c -7.91289,0 -14.35058,6.43769 -14.35058,14.35058 0,7.91289 6.43769,14.3507 14.35058,14.3507 7.91289,0 14.35058,-6.43769 14.35058,-14.3507 0,-7.91301 -6.43769,-14.35058 -14.35058,-14.35058 z"
         fill="#ffffff"
         stroke-width="0"
         id="path90" />
      <rect
         x="16.10153"
         y="204.55995"
         width="13.30734"
         height="1.0432301"
         fill="#ffffff"
         stroke-width="0"
         id="rect92" />
      <path
         d="m 13.35156,195.06027 h -1.73805 v 1.73804 h -0.78243 v -1.73804 H 9.09203 v -0.78243 h 1.73905 v -1.73804 h 0.78243 v 1.73804 h 1.73805 z"
         fill="#ffffff"
         stroke-width="0"
         id="path94" />
      <path
         d="M 12.67381,225.93236 H 9.69693 v -0.78243 h 2.97688 z m 0.32194,-3.27436 h -1.41917 v 1.41916 H 10.79415 V 222.658 H 9.37398 v -0.78243 h 1.42017 v -1.41967 h 0.78243 v 1.41967 h 1.41917 z"
         fill="#ffffff"
         stroke-width="0"
         id="path96" />
      <g
         id="g102">
        <path
           d="m 4.11519,238.61211 c -0.00509,0.0774 -0.01121,0.1518 -0.01936,0.22311 -0.02038,0.16606 -0.04381,0.2985 -0.06826,0.39427 -0.05501,0.32092 -0.19459,0.57154 -0.41974,0.75084 -0.22515,0.1793 -0.51143,0.26896 -0.85782,0.26896 -0.32499,0 -0.57663,-0.0835 -0.7539,-0.25062 -0.17727,-0.16606 -0.2659,-0.41464 -0.2659,-0.74473 l 0.00611,-0.17523 c 0.00815,-0.0499 0.03566,-0.0754 0.0815,-0.0754 h 0.70704 c 0.04585,0 0.06928,0.0255 0.06928,0.0754 v 0.10086 c 0.01223,0.20783 0.09577,0.31277 0.2496,0.31277 0.07947,0 0.14874,-0.0285 0.20681,-0.0846 0.05807,-0.0571 0.10188,-0.13448 0.13142,-0.23534 0.02547,-0.10799 0.04381,-0.22311 0.05603,-0.34435 0.01324,-0.0785 0.01936,-0.18542 0.01936,-0.31888 -0.01223,-0.19561 -0.0978,-0.29443 -0.25673,-0.29443 -0.15893,0 -0.26692,0.0734 -0.32601,0.21904 -0.02038,0.0469 -0.04992,0.0693 -0.08762,0.0693 H 1.87385 c -0.04585,0 -0.06928,-0.0255 -0.06928,-0.0754 l 0.31379,-2.53473 c 0.00408,-0.0214 0.01324,-0.0387 0.02751,-0.053 0.01528,-0.0153 0.0326,-0.0224 0.054,-0.0224 h 2.14658 c 0.02038,0 0.03769,0.007 0.04992,0.0224 0.01223,0.0143 0.0163,0.0316 0.01223,0.053 l -0.07437,0.60719 c -0.00408,0.0204 -0.01426,0.0387 -0.02853,0.053 -0.01426,0.0153 -0.0326,0.0224 -0.05298,0.0224 H 2.91913 c -0.02038,0 -0.03158,0.0102 -0.03158,0.0306 l -0.13142,1.0524 c 0,0.0122 0.00306,0.0204 0.01019,0.0245 0.00611,0.004 0.01528,0 0.02751,-0.0122 0.07539,-0.0713 0.16199,-0.12531 0.25979,-0.16301 0.0978,-0.0377 0.19968,-0.056 0.3036,-0.056 0.25877,0 0.45641,0.0876 0.59191,0.26285 0.1355,0.17523 0.19255,0.41872 0.17217,0.7325 0,0.0336 -0.00204,0.0886 -0.00611,0.16504 z"
           fill="#ffffff"
           stroke-width="0"
           id="path98" />
        <path
           d="m 5.08507,240.1301 -0.35046,-4.23101 v -0.0122 c 0,-0.0459 0.02445,-0.0693 0.07437,-0.0693 h 0.78243 c 0.04585,0 0.06928,0.0234 0.06928,0.0693 l 0.0815,2.75377 c 0,0.0173 0.00509,0.0255 0.01528,0.0255 0.01019,0 0.01732,-0.008 0.02241,-0.0255 l 0.74473,-2.75377 c 0.01223,-0.0459 0.04177,-0.0693 0.08762,-0.0693 h 0.75696 c 0.04992,0 0.06724,0.0275 0.04992,0.0815 l -1.39573,4.23101 c -0.01223,0.0469 -0.04177,0.0693 -0.08762,0.0693 H 5.15333 c -0.04585,0 -0.06826,-0.0224 -0.06826,-0.0693 z"
           fill="#ffffff"
           stroke-width="0"
           id="path100" />
      </g>
      <path
         d="m 39.39295,295.868 h -1.04323 v 0.60821 c 0,5.79815 -2.0014,11.44036 -5.62037,15.96006 -0.7837,-0.51964 -1.72072,-0.82604 -2.72957,-0.82604 -2.73339,0 -4.9574,2.224 -4.9574,4.9574 0,1.33976 0.53919,2.55275 1.40592,3.44584 l -2.67125,3.20783 0.80076,0.66832 2.66794,-3.20388 c 0.78828,0.529 1.73524,0.83929 2.75403,0.83929 1.01827,0 1.96472,-0.31016 2.75301,-0.83871 l 4.29371,5.12918 0.80076,-0.66832 -4.29676,-5.13275 c 0.86724,-0.89322 1.40668,-2.10659 1.40668,-3.4468 0,-1.34976 -0.54556,-2.57249 -1.42375,-3.46736 3.77357,-4.70659 5.85953,-10.58426 5.85953,-16.62406 V 295.868 Z m -9.39318,24.61379 c -2.15778,0 -3.91416,-1.75638 -3.91416,-3.91416 0,-2.15778 1.75638,-3.91416 3.91416,-3.91416 2.15778,0 3.91416,1.75638 3.91416,3.91416 0,2.15778 -1.75638,3.91416 -3.91416,3.91416 z"
         fill="#ffffff"
         stroke-width="0"
         id="path104" />
      <path
         d="m 15.21398,321.00385 c 7.3495,0 13.30734,5.95784 13.30734,13.30734 0,7.3495 -5.95784,13.30747 -13.30734,13.30747 -7.3495,0 -13.30734,-5.95797 -13.30734,-13.30747 0,-7.3495 5.95784,-13.30734 13.30734,-13.30734 m 0,-1.04324 c -7.91289,0 -14.35058,6.43769 -14.35058,14.35058 0,7.91289 6.43769,14.3507 14.35058,14.3507 7.91289,0 14.35058,-6.43769 14.35058,-14.3507 0,-7.91301 -6.43769,-14.35058 -14.35058,-14.35058 z"
         fill="#ffffff"
         stroke-width="0"
         id="path106" />
      <rect
         x="16.10153"
         y="285.8829"
         width="13.30734"
         height="1.0432301"
         fill="#ffffff"
         stroke-width="0"
         id="rect108" />
      <path
         d="m 13.35156,276.38322 h -1.73805 v 1.73804 h -0.78243 v -1.73804 H 9.09203 v -0.78243 h 1.73905 v -1.73804 h 0.78243 v 1.73804 h 1.73805 z"
         fill="#ffffff"
         stroke-width="0"
         id="path110" />
      <path
         d="M 12.67381,307.25532 H 9.69693 v -0.78243 h 2.97688 z m 0.32194,-3.27437 h -1.41917 v 1.41916 h -0.78243 v -1.41916 H 9.37398 v -0.78243 h 1.42017 v -1.41967 h 0.78243 v 1.41967 h 1.41917 z"
         fill="#ffffff"
         stroke-width="0"
         id="path112" />
      <g
         id="g118">
        <path
           d="m 4.11519,319.93506 c -0.00509,0.0774 -0.01121,0.1518 -0.01936,0.22311 -0.02038,0.16606 -0.04381,0.2985 -0.06826,0.39427 -0.05501,0.32092 -0.19459,0.57154 -0.41974,0.75084 -0.22515,0.1793 -0.51143,0.26896 -0.85782,0.26896 -0.32499,0 -0.57663,-0.0835 -0.7539,-0.25062 -0.17727,-0.16606 -0.2659,-0.41464 -0.2659,-0.74473 l 0.00611,-0.17523 c 0.00815,-0.0499 0.03566,-0.0754 0.0815,-0.0754 h 0.70704 c 0.04585,0 0.06928,0.0255 0.06928,0.0754 v 0.10086 c 0.01223,0.20783 0.09577,0.31277 0.2496,0.31277 0.07947,0 0.14874,-0.0285 0.20681,-0.0846 0.05807,-0.0571 0.10188,-0.13448 0.13142,-0.23534 0.02547,-0.10799 0.04381,-0.22311 0.05603,-0.34435 0.01324,-0.0785 0.01936,-0.18542 0.01936,-0.31888 -0.01223,-0.19561 -0.0978,-0.29443 -0.25673,-0.29443 -0.15893,0 -0.26692,0.0734 -0.32601,0.21904 -0.02038,0.0469 -0.04992,0.0693 -0.08762,0.0693 H 1.87385 c -0.04585,0 -0.06928,-0.0255 -0.06928,-0.0754 l 0.31379,-2.53473 c 0.00408,-0.0214 0.01324,-0.0387 0.02751,-0.053 0.01528,-0.0153 0.0326,-0.0224 0.054,-0.0224 h 2.14658 c 0.02038,0 0.03769,0.007 0.04992,0.0224 0.01223,0.0143 0.0163,0.0316 0.01223,0.053 l -0.07437,0.60719 c -0.00408,0.0204 -0.01426,0.0387 -0.02853,0.053 -0.01426,0.0153 -0.0326,0.0224 -0.05298,0.0224 H 2.91913 c -0.02038,0 -0.03158,0.0102 -0.03158,0.0306 l -0.13142,1.0524 c 0,0.0122 0.00306,0.0204 0.01019,0.0245 0.00611,0.004 0.01528,0 0.02751,-0.0122 0.07539,-0.0713 0.16199,-0.12531 0.25979,-0.16301 0.0978,-0.0377 0.19968,-0.056 0.3036,-0.056 0.25877,0 0.45641,0.0876 0.59191,0.26285 0.1355,0.17523 0.19255,0.41872 0.17217,0.7325 0,0.0336 -0.00204,0.0886 -0.00611,0.16504 z"
           fill="#ffffff"
           stroke-width="0"
           id="path114" />
        <path
           d="m 5.08507,321.45305 -0.35046,-4.23101 v -0.0122 c 0,-0.0459 0.02445,-0.0693 0.07437,-0.0693 h 0.78243 c 0.04585,0 0.06928,0.0234 0.06928,0.0693 l 0.0815,2.75377 c 0,0.0173 0.00509,0.0255 0.01528,0.0255 0.01019,0 0.01732,-0.008 0.02241,-0.0255 l 0.74473,-2.75377 c 0.01223,-0.0459 0.04177,-0.0693 0.08762,-0.0693 h 0.75696 c 0.04992,0 0.06724,0.0275 0.04992,0.0815 l -1.39573,4.23101 c -0.01223,0.0469 -0.04177,0.0693 -0.08762,0.0693 H 5.15333 c -0.04585,0 -0.06826,-0.0224 -0.06826,-0.0693 z"
           fill="#ffffff"
           stroke-width="0"
           id="path116" />
      </g>
      <g
         id="g128">
        <path
           d="m 48.05504,158.3915 c -0.19459,-0.18542 -0.29137,-0.4391 -0.29137,-0.76103 0,-0.0418 0.0041,-0.10799 0.01223,-0.19968 l 0.24451,-2.00293 c 0.04585,-0.37593 0.19357,-0.67647 0.44419,-0.90162 0.25062,-0.22515 0.56135,-0.33824 0.93321,-0.33824 0.33722,0 0.60414,0.0927 0.80076,0.27813 0.19663,0.18644 0.29443,0.44011 0.29443,0.76103 0,0.0418 -0.0041,0.10901 -0.01223,0.2007 l -0.24451,2.00293 c -0.04585,0.37491 -0.19561,0.67545 -0.44725,0.9006 -0.25266,0.22617 -0.56441,0.33824 -0.93626,0.33824 -0.33824,0 -0.60414,-0.0927 -0.79771,-0.27813 z m 1.17669,-0.60108 c 0.07743,-0.0815 0.12429,-0.18847 0.14059,-0.32194 l 0.25673,-2.07832 c 0.0041,-0.0173 0.0061,-0.0418 0.0061,-0.0754 0,-0.11308 -0.02954,-0.20274 -0.08762,-0.26896 -0.05807,-0.0672 -0.13754,-0.10086 -0.23738,-0.10086 -0.11308,0 -0.20783,0.0408 -0.28526,0.12225 -0.07743,0.0815 -0.12429,0.18949 -0.14059,0.32295 l -0.25673,2.07832 c -0.0041,0.0163 -0.0061,0.0408 -0.0061,0.0744 0,0.11308 0.02853,0.20274 0.08762,0.26896 0.05807,0.0672 0.1355,0.10086 0.23126,0.10086 0.11716,0 0.21394,-0.0407 0.29137,-0.12225 z"
           fill="#ffffff"
           stroke-width="0"
           id="path120" />
        <path
           d="m 52.32985,155.42379 c 0.01426,-0.0143 0.0326,-0.0214 0.05298,-0.0214 H 53.097 c 0.02038,0 0.03769,0.007 0.04992,0.0214 0.01223,0.0153 0.0163,0.0326 0.01223,0.054 l -0.37491,3.06654 c -0.0051,0.0214 -0.01426,0.0387 -0.02853,0.053 -0.01426,0.0153 -0.0326,0.0224 -0.05298,0.0224 h -0.71417 c -0.02038,0 -0.03769,-0.007 -0.04992,-0.0224 -0.01223,-0.0143 -0.0163,-0.0316 -0.01223,-0.053 l 0.01223,-0.10595 c 0.0041,-0.0122 0.002,-0.0214 -0.0061,-0.0255 -0.0082,-0.004 -0.0163,0 -0.02547,0.0132 -0.13346,0.15791 -0.32499,0.23738 -0.57561,0.23738 -0.217,0 -0.39427,-0.0611 -0.5318,-0.1844 -0.13753,-0.12327 -0.20681,-0.31175 -0.20681,-0.56644 0,-0.0377 0.0041,-0.0978 0.01223,-0.18134 l 0.27609,-2.25355 c 0.0041,-0.0214 0.01324,-0.0387 0.02751,-0.054 0.01528,-0.0143 0.0326,-0.0214 0.054,-0.0214 h 0.71315 c 0.02139,0 0.03769,0.007 0.04992,0.0214 0.01324,0.0153 0.01732,0.0326 0.01324,0.054 l -0.25062,2.05896 c -0.0041,0.0214 -0.0061,0.052 -0.0061,0.0937 0,0.0917 0.01936,0.16199 0.05909,0.20987 0.03973,0.0479 0.09678,0.0723 0.17217,0.0723 0.09169,0 0.16708,-0.0357 0.22515,-0.10697 0.05807,-0.0703 0.09577,-0.16606 0.11308,-0.2873 l 0.2496,-2.04062 c 0.0051,-0.0214 0.01426,-0.0387 0.02853,-0.054 z"
           fill="#ffffff"
           stroke-width="0"
           id="path122" />
        <path
           d="m 54.9522,156.00042 c -0.01426,0.0143 -0.0326,0.0214 -0.05298,0.0214 h -0.34435 c -0.0082,0 -0.01528,0.003 -0.02241,0.009 -0.0061,0.007 -0.0092,0.0143 -0.0092,0.0224 l -0.18134,1.48946 c -0.0041,0.0214 -0.0061,0.0499 -0.0061,0.0876 0,0.0876 0.01936,0.14874 0.05909,0.18134 0.03973,0.0336 0.0978,0.0489 0.17217,0.0438 h 0.04381 c 0.02139,0 0.03769,0.008 0.04992,0.0224 0.01324,0.0143 0.01732,0.0326 0.01324,0.053 l -0.07539,0.61331 c -0.0041,0.0214 -0.01324,0.0387 -0.02853,0.053 -0.01426,0.0153 -0.03158,0.0224 -0.05298,0.0224 h -0.24451 c -0.26692,0 -0.46864,-0.0408 -0.60618,-0.12225 -0.13855,-0.0815 -0.20681,-0.23432 -0.20681,-0.45947 0,-0.0295 0.0041,-0.0815 0.01223,-0.15689 l 0.22515,-1.8277 c 0,-0.0204 -0.0082,-0.0316 -0.02445,-0.0316 h -0.2007 c -0.02038,0 -0.03769,-0.007 -0.04992,-0.0214 -0.01223,-0.0153 -0.01732,-0.0326 -0.01223,-0.053 l 0.05603,-0.46966 c 0.0041,-0.0214 0.01324,-0.0387 0.02853,-0.054 0.01426,-0.0143 0.03158,-0.0214 0.05298,-0.0214 h 0.19968 c 0.02139,0 0.03158,-0.0102 0.03158,-0.0316 l 0.08762,-0.69481 c 0.0041,-0.0204 0.01324,-0.0387 0.02853,-0.053 0.01426,-0.0143 0.03158,-0.0214 0.05298,-0.0214 h 0.68258 c 0.02038,0 0.03769,0.007 0.04992,0.0214 0.01223,0.0143 0.0163,0.0326 0.01223,0.053 l -0.08762,0.69481 c 0,0.0214 0.01019,0.0316 0.03158,0.0316 h 0.33824 c 0.02038,0 0.03668,0.007 0.04992,0.0214 0.01223,0.0153 0.0163,0.0326 0.01223,0.054 l -0.05603,0.46966 c -0.0041,0.0204 -0.01426,0.0377 -0.02853,0.053 z"
           fill="#ffffff"
           stroke-width="0"
           id="path124" />
        <path
           d="m 57.21594,154.23792 h 0.73149 c 0.04686,0 0.06928,0.0255 0.06928,0.0754 l -0.51958,4.23101 c -0.0041,0.0214 -0.01324,0.0387 -0.02853,0.053 -0.01426,0.0153 -0.03158,0.0224 -0.05298,0.0224 h -0.71315 c -0.02139,0 -0.03769,-0.007 -0.04992,-0.0224 -0.01324,-0.0143 -0.01732,-0.0316 -0.01324,-0.053 l 0.41974,-3.417 c 0,-0.0173 -0.0082,-0.0255 -0.02547,-0.0255 l -0.47475,0.056 h -0.01324 c -0.04177,0 -0.06215,-0.0224 -0.06215,-0.0683 l 0.04992,-0.53894 c 0.0041,-0.0408 0.02751,-0.0703 0.06928,-0.0876 l 0.51856,-0.20579 c 0.03362,-0.0132 0.0652,-0.0194 0.09475,-0.0194 z"
           fill="#ffffff"
           stroke-width="0"
           id="path126" />
      </g>
      <g
         id="g138">
        <path
           d="m 47.12183,239.71382 c -0.19459,-0.18542 -0.29137,-0.4391 -0.29137,-0.76103 0,-0.0418 0.0041,-0.10799 0.01223,-0.19968 l 0.24451,-2.00293 c 0.04585,-0.37593 0.19357,-0.67647 0.44419,-0.90162 0.25062,-0.22515 0.56135,-0.33824 0.93321,-0.33824 0.33722,0 0.60414,0.0927 0.80076,0.27813 0.19663,0.18644 0.29443,0.44011 0.29443,0.76103 0,0.0418 -0.0041,0.10901 -0.01223,0.2007 l -0.24451,2.00293 c -0.04585,0.37491 -0.19561,0.67545 -0.44725,0.9006 -0.25266,0.22617 -0.56441,0.33824 -0.93626,0.33824 -0.33824,0 -0.60414,-0.0927 -0.79771,-0.27813 z m 1.1767,-0.60108 c 0.07743,-0.0815 0.12429,-0.18847 0.14059,-0.32194 l 0.25673,-2.07832 c 0.0041,-0.0173 0.0061,-0.0418 0.0061,-0.0754 0,-0.11308 -0.02954,-0.20274 -0.08762,-0.26896 -0.05807,-0.0672 -0.13754,-0.10086 -0.23738,-0.10086 -0.11308,0 -0.20783,0.0408 -0.28526,0.12225 -0.07743,0.0815 -0.12429,0.18949 -0.14059,0.32295 l -0.25673,2.07832 c -0.0041,0.0163 -0.0061,0.0408 -0.0061,0.0744 0,0.11308 0.02853,0.20274 0.08762,0.26896 0.05807,0.0672 0.1355,0.10086 0.23126,0.10086 0.11716,0 0.21394,-0.0408 0.29137,-0.12225 z"
           fill="#ffffff"
           stroke-width="0"
           id="path130" />
        <path
           d="m 51.39665,236.7461 c 0.01426,-0.0143 0.0326,-0.0214 0.05298,-0.0214 h 0.71417 c 0.02038,0 0.03769,0.007 0.04992,0.0214 0.01223,0.0153 0.0163,0.0326 0.01223,0.054 l -0.37491,3.06654 c -0.0051,0.0214 -0.01426,0.0387 -0.02853,0.053 -0.01426,0.0153 -0.0326,0.0224 -0.05298,0.0224 h -0.71417 c -0.02038,0 -0.03769,-0.007 -0.04992,-0.0224 -0.01223,-0.0143 -0.0163,-0.0316 -0.01223,-0.053 l 0.01223,-0.10595 c 0.0041,-0.0122 0.002,-0.0214 -0.0061,-0.0255 -0.0082,-0.004 -0.0163,0 -0.02547,0.0132 -0.13346,0.15791 -0.32499,0.23738 -0.57561,0.23738 -0.217,0 -0.39427,-0.0611 -0.5318,-0.1844 -0.13753,-0.12327 -0.20681,-0.31175 -0.20681,-0.56644 0,-0.0377 0.0041,-0.0978 0.01223,-0.18134 l 0.27609,-2.25355 c 0.0041,-0.0214 0.01324,-0.0387 0.02751,-0.054 0.01528,-0.0143 0.0326,-0.0214 0.054,-0.0214 h 0.71315 c 0.02139,0 0.03769,0.007 0.04992,0.0214 0.01324,0.0153 0.01732,0.0326 0.01324,0.054 l -0.25062,2.05896 c -0.0041,0.0214 -0.0061,0.052 -0.0061,0.0937 0,0.0917 0.01936,0.16199 0.05909,0.20987 0.03973,0.0479 0.09678,0.0723 0.17217,0.0723 0.09169,0 0.16708,-0.0357 0.22515,-0.10697 0.05807,-0.0703 0.09577,-0.16606 0.11308,-0.2873 l 0.2496,-2.04062 c 0.0051,-0.0214 0.01426,-0.0387 0.02853,-0.054 z"
           fill="#ffffff"
           stroke-width="0"
           id="path132" />
        <path
           d="m 54.019,237.32274 c -0.01426,0.0143 -0.0326,0.0214 -0.05298,0.0214 h -0.34435 c -0.0082,0 -0.01528,0.003 -0.02241,0.009 -0.0061,0.007 -0.0092,0.0143 -0.0092,0.0224 l -0.18134,1.48946 c -0.0041,0.0214 -0.0061,0.0499 -0.0061,0.0876 0,0.0876 0.01936,0.14874 0.05909,0.18134 0.03973,0.0336 0.0978,0.0489 0.17217,0.0438 h 0.04381 c 0.02139,0 0.03769,0.008 0.04992,0.0224 0.01324,0.0143 0.01732,0.0326 0.01324,0.053 l -0.07539,0.61331 c -0.0041,0.0214 -0.01324,0.0387 -0.02853,0.053 -0.01426,0.0153 -0.03158,0.0224 -0.05298,0.0224 h -0.24451 c -0.26692,0 -0.46864,-0.0407 -0.60618,-0.12225 -0.13855,-0.0815 -0.20681,-0.23432 -0.20681,-0.45947 0,-0.0295 0.0041,-0.0815 0.01223,-0.15689 l 0.22515,-1.8277 c 0,-0.0204 -0.0082,-0.0316 -0.02445,-0.0316 h -0.2007 c -0.02038,0 -0.03769,-0.007 -0.04992,-0.0214 -0.01223,-0.0153 -0.01732,-0.0326 -0.01223,-0.053 l 0.05603,-0.46966 c 0.0041,-0.0214 0.01324,-0.0387 0.02853,-0.054 0.01426,-0.0143 0.03158,-0.0214 0.05298,-0.0214 h 0.19968 c 0.02139,0 0.03158,-0.0102 0.03158,-0.0316 l 0.08762,-0.69481 c 0.0041,-0.0204 0.01324,-0.0387 0.02853,-0.053 0.01426,-0.0143 0.03158,-0.0214 0.05298,-0.0214 h 0.68258 c 0.02038,0 0.03769,0.007 0.04992,0.0214 0.01223,0.0143 0.0163,0.0326 0.01223,0.053 l -0.08762,0.69481 c 0,0.0214 0.01019,0.0316 0.03158,0.0316 h 0.33824 c 0.02038,0 0.03668,0.007 0.04992,0.0214 0.01223,0.0153 0.0163,0.0326 0.01223,0.054 l -0.05603,0.46966 c -0.0041,0.0204 -0.01426,0.0377 -0.02853,0.053 z"
           fill="#ffffff"
           stroke-width="0"
           id="path134" />
        <path
           d="m 56.33265,239.17183 c 0.0041,0.009 0.01019,0.0132 0.01834,0.0132 h 1.27042 c 0.02139,0 0.03769,0.007 0.05094,0.0214 0.01223,0.0143 0.0163,0.0326 0.01223,0.053 l -0.07539,0.60719 c 0,0.0214 -0.0082,0.0387 -0.02445,0.053 -0.01732,0.0153 -0.03566,0.0224 -0.05705,0.0224 h -2.24642 c -0.02139,0 -0.03769,-0.007 -0.05094,-0.0224 -0.01223,-0.0143 -0.0163,-0.0316 -0.01223,-0.053 l 0.0815,-0.63165 c 0,-0.0336 0.01223,-0.0652 0.03769,-0.0937 0.12939,-0.15486 0.26081,-0.30462 0.39427,-0.45132 0.42178,-0.47985 0.72028,-0.83642 0.89551,-1.06972 0.29545,-0.40955 0.44419,-0.74779 0.44419,-1.01471 0,-0.10799 -0.02343,-0.19153 -0.06928,-0.25062 -0.04585,-0.0581 -0.10799,-0.0876 -0.18746,-0.0876 -0.09577,0 -0.17625,0.0387 -0.24145,0.11614 -0.06418,0.0774 -0.10086,0.17625 -0.10901,0.29748 l -0.03158,0.25673 c -0.0041,0.0204 -0.01426,0.0387 -0.03158,0.053 -0.0163,0.0153 -0.03464,0.0224 -0.05603,0.0224 h -0.71926 c -0.02139,0 -0.03769,-0.007 -0.05094,-0.0224 -0.01223,-0.0143 -0.0163,-0.0326 -0.01223,-0.053 l 0.03769,-0.29443 c 0.05807,-0.34231 0.21089,-0.61636 0.45641,-0.82318 0.24655,-0.20681 0.54301,-0.30971 0.8894,-0.30971 0.30462,0 0.54709,0.0917 0.72945,0.27507 0.18134,0.1844 0.27202,0.42993 0.27202,0.73862 0,0.0377 -0.0041,0.1029 -0.01223,0.19459 -0.02954,0.217 -0.08965,0.42279 -0.18236,0.61636 -0.09169,0.19357 -0.22515,0.40548 -0.40038,0.63572 -0.19153,0.24145 -0.42381,0.51245 -0.69481,0.81299 -0.04992,0.0632 -0.10188,0.12327 -0.15587,0.18236 -0.05501,0.0581 -0.10901,0.11818 -0.16301,0.18134 -0.0082,0.008 -0.01019,0.0163 -0.0061,0.0244 z"
           fill="#ffffff"
           stroke-width="0"
           id="path136" />
      </g>
      <g
         id="g148">
        <path
           d="m 47.13406,321.03715 c -0.19459,-0.18542 -0.29137,-0.4391 -0.29137,-0.76103 0,-0.0418 0.0041,-0.10799 0.01223,-0.19968 l 0.24451,-2.00293 c 0.04585,-0.37593 0.19357,-0.67647 0.44419,-0.90162 0.25062,-0.22515 0.56135,-0.33824 0.93321,-0.33824 0.33722,0 0.60414,0.0927 0.80076,0.27813 0.19663,0.18644 0.29443,0.44011 0.29443,0.76103 0,0.0418 -0.0041,0.10901 -0.01223,0.2007 l -0.24451,2.00293 c -0.04585,0.37491 -0.19561,0.67545 -0.44725,0.9006 -0.25266,0.22617 -0.56441,0.33824 -0.93626,0.33824 -0.33824,0 -0.60414,-0.0927 -0.79771,-0.27813 z m 1.17669,-0.60108 c 0.07743,-0.0815 0.12429,-0.18847 0.14059,-0.32194 l 0.25673,-2.07832 c 0.0041,-0.0173 0.0061,-0.0418 0.0061,-0.0754 0,-0.11308 -0.02954,-0.20274 -0.08762,-0.26896 -0.05807,-0.0672 -0.13754,-0.10086 -0.23738,-0.10086 -0.11308,0 -0.20783,0.0408 -0.28526,0.12225 -0.07743,0.0815 -0.12429,0.18949 -0.14059,0.32295 l -0.25673,2.07832 c -0.0041,0.0163 -0.0061,0.0408 -0.0061,0.0744 0,0.11308 0.02853,0.20274 0.08762,0.26896 0.05807,0.0672 0.1355,0.10086 0.23126,0.10086 0.11716,0 0.21394,-0.0408 0.29137,-0.12225 z"
           fill="#ffffff"
           stroke-width="0"
           id="path140" />
        <path
           d="m 51.40887,318.06944 c 0.01426,-0.0143 0.0326,-0.0214 0.05298,-0.0214 h 0.71417 c 0.02038,0 0.03769,0.007 0.04992,0.0214 0.01223,0.0153 0.0163,0.0326 0.01223,0.054 l -0.37491,3.06654 c -0.0051,0.0214 -0.01426,0.0387 -0.02853,0.053 -0.01426,0.0153 -0.0326,0.0224 -0.05298,0.0224 h -0.71417 c -0.02038,0 -0.03769,-0.007 -0.04992,-0.0224 -0.01223,-0.0143 -0.0163,-0.0316 -0.01223,-0.053 l 0.01223,-0.10595 c 0.0041,-0.0122 0.002,-0.0214 -0.0061,-0.0255 -0.0082,-0.004 -0.0163,0 -0.02547,0.0132 -0.13346,0.15791 -0.32499,0.23738 -0.57561,0.23738 -0.217,0 -0.39427,-0.0611 -0.5318,-0.1844 -0.13753,-0.12327 -0.20681,-0.31175 -0.20681,-0.56644 0,-0.0377 0.0041,-0.0978 0.01223,-0.18134 l 0.27609,-2.25355 c 0.0041,-0.0214 0.01324,-0.0387 0.02751,-0.054 0.01528,-0.0143 0.0326,-0.0214 0.054,-0.0214 h 0.71315 c 0.02139,0 0.03769,0.007 0.04992,0.0214 0.01324,0.0153 0.01732,0.0326 0.01324,0.054 l -0.25062,2.05896 c -0.0041,0.0214 -0.0061,0.052 -0.0061,0.0937 0,0.0917 0.01936,0.16199 0.05909,0.20987 0.03973,0.0479 0.09678,0.0723 0.17217,0.0723 0.09169,0 0.16708,-0.0357 0.22515,-0.10697 0.05807,-0.0703 0.09577,-0.16606 0.11308,-0.2873 l 0.2496,-2.04062 c 0.0051,-0.0214 0.01426,-0.0387 0.02853,-0.054 z"
           fill="#ffffff"
           stroke-width="0"
           id="path142" />
        <path
           d="m 54.03122,318.64607 c -0.01426,0.0143 -0.0326,0.0214 -0.05298,0.0214 h -0.34435 c -0.0082,0 -0.01528,0.003 -0.02241,0.009 -0.0061,0.007 -0.0092,0.0143 -0.0092,0.0224 l -0.18134,1.48946 c -0.0041,0.0214 -0.0061,0.0499 -0.0061,0.0876 0,0.0876 0.01936,0.14874 0.05909,0.18134 0.03973,0.0336 0.0978,0.0489 0.17217,0.0438 h 0.04381 c 0.02139,0 0.03769,0.008 0.04992,0.0224 0.01324,0.0143 0.01732,0.0326 0.01324,0.053 l -0.07539,0.61331 c -0.0041,0.0214 -0.01324,0.0387 -0.02853,0.053 -0.01426,0.0153 -0.03158,0.0224 -0.05298,0.0224 h -0.24451 c -0.26692,0 -0.46864,-0.0408 -0.60618,-0.12225 -0.13855,-0.0815 -0.20681,-0.23432 -0.20681,-0.45947 0,-0.0295 0.0041,-0.0815 0.01223,-0.15689 l 0.22515,-1.8277 c 0,-0.0204 -0.0082,-0.0316 -0.02445,-0.0316 h -0.2007 c -0.02038,0 -0.03769,-0.007 -0.04992,-0.0214 -0.01223,-0.0153 -0.01732,-0.0326 -0.01223,-0.053 l 0.05603,-0.46966 c 0.0041,-0.0214 0.01324,-0.0387 0.02853,-0.054 0.01426,-0.0143 0.03158,-0.0214 0.05298,-0.0214 h 0.19968 c 0.02139,0 0.03158,-0.0102 0.03158,-0.0316 l 0.08762,-0.69481 c 0.0041,-0.0204 0.01324,-0.0387 0.02853,-0.053 0.01426,-0.0143 0.03158,-0.0214 0.05298,-0.0214 h 0.68258 c 0.02038,0 0.03769,0.007 0.04992,0.0214 0.01223,0.0143 0.0163,0.0326 0.01223,0.053 l -0.08762,0.69481 c 0,0.0214 0.01019,0.0316 0.03158,0.0316 h 0.33824 c 0.02038,0 0.03668,0.007 0.04992,0.0214 0.01223,0.0153 0.0163,0.0326 0.01223,0.054 l -0.05603,0.46966 c -0.0041,0.0204 -0.01426,0.0377 -0.02853,0.053 z"
           fill="#ffffff"
           stroke-width="0"
           id="path144" />
        <path
           d="m 57.68458,319.87574 c -0.02954,0.2007 -0.05705,0.35657 -0.0815,0.46966 -0.07131,0.30054 -0.21394,0.5369 -0.42891,0.71009 -0.21497,0.17319 -0.4829,0.25979 -0.80484,0.25979 -0.33314,0 -0.59395,-0.0917 -0.78243,-0.27507 -0.18746,-0.18338 -0.271,-0.42789 -0.2496,-0.7325 0,-0.0754 0.0082,-0.19663 0.02445,-0.36269 0.0082,-0.0509 0.03566,-0.0754 0.0815,-0.0754 h 0.70704 c 0.05501,0 0.07743,0.0245 0.06928,0.0754 -0.01223,0.0917 -0.01936,0.18134 -0.01936,0.26896 0,0.10799 0.02343,0.19255 0.06928,0.25368 0.04585,0.0601 0.11105,0.0907 0.19459,0.0907 0.07845,0 0.14874,-0.0295 0.20885,-0.0876 0.06113,-0.0591 0.10595,-0.13754 0.13448,-0.2384 0.01324,-0.0621 0.03769,-0.21293 0.07539,-0.4503 0.02139,-0.19663 0.02954,-0.35046 0.02547,-0.46355 -0.0041,-0.0917 -0.02954,-0.16504 -0.07539,-0.21904 -0.04585,-0.054 -0.10595,-0.0815 -0.18134,-0.0815 -0.06316,0 -0.12735,0.0275 -0.19459,0.0815 -0.02445,0.0173 -0.04177,0.0255 -0.04992,0.0255 -0.02038,0 -0.03769,-0.0102 -0.04992,-0.0316 l -0.31888,-0.38204 c -0.0092,-0.008 -0.01324,-0.0224 -0.01324,-0.0438 0,-0.0245 0.0092,-0.0459 0.02547,-0.0622 l 0.84457,-0.93321 c 0.01732,-0.0245 0.01324,-0.0377 -0.01223,-0.0377 h -1.09519 c -0.02139,0 -0.03769,-0.007 -0.04992,-0.0214 -0.01223,-0.0143 -0.01732,-0.0326 -0.01223,-0.053 l 0.07437,-0.60108 c 0.0041,-0.0214 0.01426,-0.0387 0.02853,-0.053 0.01426,-0.0153 0.0326,-0.0224 0.05298,-0.0224 h 2.09054 c 0.02139,0 0.03769,0.007 0.04992,0.0224 0.01324,0.0143 0.01732,0.0316 0.01324,0.053 l -0.07539,0.62553 c -0.0041,0.0295 -0.01834,0.0611 -0.04381,0.0937 l -0.78854,0.88328 c -0.01732,0.0245 -0.01528,0.0377 0.0061,0.0377 0.17523,0.0163 0.3148,0.0998 0.41974,0.2496 0.10392,0.15078 0.15587,0.33824 0.15587,0.56339 0,0.16301 -0.0082,0.31786 -0.02445,0.46355 z"
           fill="#ffffff"
           stroke-width="0"
           id="path146" />
      </g>
      <path
         d="m 29.91595,70.41397 h 0.75696 c 0.02038,0 0.03871,0.0076 0.05298,0.0219 0.01528,0.01477 0.02241,0.0326 0.02241,0.05349 v 4.23152 c 0,0.02089 -0.0071,0.0382 -0.02241,0.05298 -0.01426,0.01477 -0.0326,0.0219 -0.05298,0.0219 h -0.7325 c -0.02038,0 -0.03871,-0.0071 -0.05298,-0.0219 -0.01427,-0.01477 -0.02241,-0.03209 -0.02241,-0.05298 v -3.41802 c 0,-0.0163 -0.01019,-0.02496 -0.03056,-0.02496 l -0.48188,0.05654 h -0.01324 c -0.04585,0 -0.06826,-0.02292 -0.06826,-0.06877 l -0.01936,-0.53843 c 0,-0.04177 0.01936,-0.07081 0.05705,-0.08762 l 0.51245,-0.20681 c 0.03362,-0.01223 0.0652,-0.01885 0.09475,-0.01885 z"
         fill="#ffffff"
         stroke-width="0"
         id="path150" />
      <path
         d="m 29.83394,155.37347 c 0.0041,0.009 0.01324,0.0132 0.02547,0.0132 h 1.30812 c 0.02038,0 0.03871,0.007 0.05298,0.0214 0.01427,0.0143 0.02241,0.0326 0.02241,0.053 v 0.60719 c 0,0.0214 -0.0082,0.0387 -0.02241,0.053 -0.01426,0.0153 -0.0326,0.0224 -0.05298,0.0224 h -2.31569 c -0.02139,0 -0.03871,-0.007 -0.054,-0.0224 -0.01426,-0.0143 -0.02139,-0.0316 -0.02139,-0.053 v -0.63165 c 0,-0.0377 0.01019,-0.0693 0.03158,-0.0937 0.16606,-0.22108 0.28322,-0.37186 0.35046,-0.45132 0.36676,-0.4717 0.62757,-0.82827 0.78243,-1.06972 0.22515,-0.35963 0.33722,-0.66221 0.33722,-0.90774 0,-0.14263 -0.02751,-0.25164 -0.08354,-0.32907 -0.05705,-0.0774 -0.13346,-0.11614 -0.22923,-0.11614 -0.09577,0 -0.17319,0.0387 -0.23126,0.11614 -0.05807,0.0774 -0.08558,0.17625 -0.0815,0.29748 v 0.25673 c 0,0.0204 -0.0071,0.0387 -0.02139,0.053 -0.01528,0.0153 -0.0326,0.0224 -0.054,0.0224 h -0.74473 c -0.02038,0 -0.03871,-0.007 -0.05298,-0.0224 -0.01426,-0.0143 -0.02241,-0.0326 -0.02241,-0.053 v -0.29443 c 0.01732,-0.34231 0.14059,-0.61636 0.36982,-0.82318 0.22923,-0.20682 0.52162,-0.30971 0.87615,-0.30971 0.35046,0 0.63368,0.11105 0.84865,0.33212 0.21497,0.22107 0.32194,0.51245 0.32194,0.87615 0,0.217 -0.03464,0.42381 -0.1029,0.61942 -0.06928,0.19663 -0.18134,0.40649 -0.33518,0.63266 -0.11716,0.17116 -0.31684,0.43808 -0.60108,0.80076 l -0.29443,0.37593 c -0.0082,0.008 -0.01019,0.0163 -0.0061,0.0245 z"
         fill="#ffffff"
         stroke-width="0"
         id="path152" />
      <path
         d="m 31.19249,236.02708 c 0,0.18338 -0.0082,0.34027 -0.02445,0.46966 -0.03362,0.30054 -0.14976,0.5369 -0.34741,0.71009 -0.19866,0.17319 -0.46457,0.25979 -0.79873,0.25979 -0.34639,0 -0.62757,-0.0917 -0.84457,-0.27507 -0.217,-0.18338 -0.33416,-0.42789 -0.35046,-0.7325 -0.01324,-0.11308 -0.01936,-0.2333 -0.01936,-0.36269 0,-0.0509 0.02547,-0.0754 0.07539,-0.0754 h 0.7325 c 0.04992,0 0.07539,0.0245 0.07539,0.0754 0,0.0958 0.0061,0.18542 0.01834,0.26896 0.01223,0.10799 0.04585,0.19255 0.09984,0.25368 0.05501,0.0601 0.12531,0.0907 0.21293,0.0907 0.08354,0 0.15282,-0.0295 0.20681,-0.0876 0.054,-0.0591 0.08965,-0.13754 0.10595,-0.2384 0.01324,-0.14569 0.01936,-0.29647 0.01936,-0.4503 0,-0.19663 -0.01019,-0.35046 -0.03158,-0.46355 -0.0163,-0.0958 -0.05094,-0.17014 -0.1029,-0.22209 -0.05196,-0.052 -0.11818,-0.0785 -0.19764,-0.0785 -0.06215,0 -0.12531,0.0275 -0.18746,0.0815 -0.02547,0.0173 -0.04177,0.0255 -0.04992,0.0255 -0.01732,0 -0.03566,-0.0102 -0.05705,-0.0316 l -0.37491,-0.38204 c -0.01732,-0.0163 -0.02547,-0.0357 -0.02547,-0.056 0,-0.0163 0.0061,-0.0336 0.01936,-0.0499 l 0.75696,-0.93321 c 0.0082,-0.008 0.01019,-0.0163 0.0061,-0.0245 -0.0041,-0.008 -0.01223,-0.0132 -0.02445,-0.0132 H 28.9583 c -0.02139,0 -0.03871,-0.007 -0.05298,-0.0214 -0.01528,-0.0143 -0.02241,-0.0326 -0.02241,-0.053 v -0.60108 c 0,-0.0214 0.0071,-0.0387 0.02241,-0.053 0.01426,-0.0153 0.03158,-0.0224 0.05298,-0.0224 h 2.15269 c 0.02139,0 0.03871,0.007 0.054,0.0224 0.01426,0.0143 0.02139,0.0316 0.02139,0.053 v 0.62553 c 0,0.0336 -0.01019,0.0652 -0.03158,0.0937 l -0.70092,0.88328 c -0.0041,0.008 -0.0061,0.0163 -0.0061,0.0245 0,0.009 0.0041,0.0132 0.01223,0.0132 0.1844,0.0163 0.33925,0.0998 0.4666,0.2496 0.12735,0.15078 0.20579,0.33824 0.23432,0.56339 0.02139,0.15893 0.03158,0.31379 0.03158,0.46355 z"
         fill="#ffffff"
         stroke-width="0"
         id="path154" />
      <path
         d="m 31.4049,316.88394 c 0.01426,0.0143 0.02241,0.0326 0.02241,0.053 v 0.64489 c 0,0.0204 -0.0081,0.0387 -0.02241,0.053 -0.01426,0.0143 -0.0326,0.0224 -0.05298,0.0224 h -0.19459 c -0.02038,0 -0.03056,0.0102 -0.03056,0.0306 v 1.00146 c 0,0.0214 -0.0071,0.0387 -0.02241,0.053 -0.01426,0.0153 -0.0326,0.0224 -0.05298,0.0224 h -0.7325 c -0.02038,0 -0.03871,-0.007 -0.05298,-0.0224 -0.01426,-0.0143 -0.02241,-0.0316 -0.02241,-0.053 v -1.00146 c 0,-0.0204 -0.01019,-0.0306 -0.03056,-0.0306 h -1.56485 c -0.02139,0 -0.03871,-0.008 -0.05298,-0.0224 -0.01528,-0.0143 -0.02241,-0.0326 -0.02241,-0.053 v -0.51347 c 0,-0.0377 0.0041,-0.0693 0.01223,-0.0937 l 0.83235,-2.52862 c 0.01324,-0.0418 0.03973,-0.0632 0.0815,-0.0632 h 0.79567 c 0.02445,0 0.04381,0.007 0.05603,0.0224 0.01223,0.0143 0.01426,0.0367 0.0061,0.0652 l -0.75084,2.35339 c -0.0041,0.0255 0.0041,0.0377 0.02445,0.0377 h 0.58274 c 0.02038,0 0.03056,-0.0102 0.03056,-0.0306 v -0.651 c 0,-0.0214 0.0081,-0.0387 0.02241,-0.054 0.01426,-0.0143 0.0326,-0.0214 0.05298,-0.0214 h 0.7325 c 0.02038,0 0.03871,0.007 0.05298,0.0214 0.01528,0.0153 0.02241,0.0326 0.02241,0.054 v 0.651 c 0,0.0204 0.01019,0.0306 0.03056,0.0306 h 0.19459 c 0.02038,0 0.03871,0.007 0.05298,0.0224 z"
         fill="#ffffff"
         stroke-width="0"
         id="path156" />
    </g>
  </g>
  <g
     inkscape:groupmode="layer"
     id="layer3"
     inkscape:label="components"
     style="display:none">
    <circle
       cx="5.1858516"
       cy="30.55002"
       r="1.6907896"
       fill="#00ff00"
       stroke-width="0"
       id="circle159"
       style="display:inline"
       inkscape:label="ext" />
    <circle
       cx="15.143415"
       cy="30.55002"
       r="1.6907896"
       fill="#0000ff"
       stroke-width="0"
       id="circle161"
       style="display:inline"
       inkscape:label="ext" />
    <circle
       cx="5.1858516"
       cy="58.050022"
       r="1.6907896"
       fill="#00ff00"
       stroke-width="0"
       id="circle163"
       style="display:inline"
       inkscape:label="ch1" />
    <circle
       cx="15.143415"
       cy="58.050022"
       r="1.6907896"
       fill="#0000ff"
       stroke-width="0"
       id="circle165"
       style="display:inline"
       inkscape:label="ch1" />
    <circle
       cx="5.1858516"
       cy="85.550026"
       r="1.6907896"
       fill="#00ff00"
       stroke-width="0"
       id="circle167"
       style="display:inline"
       inkscape:label="ch2" />
    <circle
       cx="15.143415"
       cy="85.550026"
       r="1.6907896"
       fill="#0000ff"
       stroke-width="0"
       id="circle169"
       style="display:inline"
       inkscape:label="ch2" />
    <circle
       cx="5.1858516"
       cy="113.05002"
       r="1.6907896"
       fill="#00ff00"
       stroke-width="0"
       id="circle171"
       style="display:inline"
       inkscape:label="ch3" />
    <circle
       cx="15.143415"
       cy="113.05002"
       r="1.6907896"
       fill="#0000ff"
       stroke-width="0"
       id="circle173"
       style="display:inline"
       inkscape:label="ch3" />
    <circle
       cx="10.144737"
       cy="107.04985"
       r="1.5807463"
       fill="#ff00ff"
       stroke-width="0"
       id="circle175"
       style="display:inline"
       inkscape:label="ch3" />
    <circle
       cx="10.144737"
       cy="79.54985"
       r="1.5807463"
       fill="#ff00ff"
       stroke-width="0"
       id="circle177"
       style="display:inline"
       inkscape:label="ch2" />
    <circle
       cx="10.144737"
       cy="52.049847"
       r="1.5807463"
       fill="#ff00ff"
       stroke-width="0"
       id="circle179"
       style="display:inline"
       inkscape:label="ch1" />
    <circle
       cx="10.144737"
       cy="24.551912"
       r="1.5807463"
       fill="#ff00ff"
       stroke-width="0"
       id="circle181"
       style="display:inline"
       inkscape:label="ext" />
    <circle
       cx="3.7947953"
       cy="15.549934"
       r="1.6907896"
       fill="#ff0000"
       stroke-width="0"
       id="circle183"
       style="display:inline"
       inkscape:label="mode_ext" />
    <circle
       cx="3.7947953"
       cy="43.049934"
       r="1.6907896"
       fill="#ff0000"
       stroke-width="0"
       id="circle185"
       style="display:inline"
       inkscape:label="mode_ch1" />
    <circle
       cx="3.7947953"
       cy="70.549934"
       r="1.6907896"
       fill="#ff0000"
       stroke-width="0"
       id="circle187"
       style="display:inline"
       inkscape:label="mode_ch2" />
    <circle
       cx="3.7947953"
       cy="98.049927"
       r="1.7638892"
       fill="#ff0000"
       stroke-width="0"
       id="circle189"
       style="display:inline"
       inkscape:label="mode_ch3" />
    <circle
       cx="13.145737"
       cy="14.343878"
       r="1.6907896"
       fill="#ff0000"
       stroke-width="0"
       id="circle191"
       style="display:inline"
       inkscape:label="gain_ext" />
    <circle
       cx="13.145737"
       cy="41.84388"
       r="1.6907896"
       fill="#ff0000"
       stroke-width="0"
       id="circle193"
       style="display:inline"
       inkscape:label="gain_ch1" />
    <circle
       cx="13.145737"
       cy="69.343872"
       r="1.6907896"
       fill="#ff0000"
       stroke-width="0"
       id="circle195"
       style="display:inline"
       inkscape:label="gain_ch2" />
    <circle
       cx="13.145737"
       cy="96.843872"
       r="1.6907896"
       fill="#ff0000"
       stroke-width="0"
       id="circle197"
       style="display:inline"
       inkscape:label="ch3_gain" />
  </g>
</svg>
