<?xml version="1.0" encoding="UTF-8"?>
<svg id="uuid-afea4600-5b17-4eb7-9e6b-87dd4b88129e" data-name="FND_BG" xmlns="http://www.w3.org/2000/svg" width="60" height="380" xmlns:xlink="http://www.w3.org/1999/xlink" viewBox="0 0 60 380">
  <defs>
    <linearGradient id="uuid-979ff67b-e2df-4422-aa81-d87abf40777c" x1="30" y1="0" x2="30" y2="379.99944" gradientUnits="userSpaceOnUse">
      <stop offset="0" stop-color="#fff09c"/>
      <stop offset="1" stop-color="#ffcf60"/>
    </linearGradient>
    <linearGradient id="uuid-f0310b40-19b4-48fd-8d47-f5e9d6f8766e" x1="30" y1="0" x2="30" y2="379.99994" gradientUnits="userSpaceOnUse">
      <stop offset="0" stop-color="#2a2a2b"/>
      <stop offset="1" stop-color="#171717"/>
    </linearGradient>
  </defs>
  <rect width="60" height="379.99944" fill="url(#uuid-979ff67b-e2df-4422-aa81-d87abf40777c)"/>
  <g>
    <circle cx="15.21397" cy="334.3112" r="13.30745" transform="translate(-319.21297 321.89886) rotate(-85.26879)" fill="#191919"/>
    <path d="M8.15131,357.86707h-1.00146c-.02856,0-.04181.01324-.04181.04175l-.17523,1.38556c0,.02747.01123.04175.03363.04175h1.01776c.27301,0,.48798-.07642.64691-.23022.15894-.15283.23743-.36267.23743-.62964,0-.19458-.06219-.34534-.1875-.45129-.12531-.10492-.30157-.1579-.52972-.1579Z" fill="#181818"/>
    <path d="M0,0v379.99994h60V0H0ZM57.03357,155.10181l-.47473.05609h-.01324c-.04181,0-.06213-.02246-.06213-.0683l.04987-.53894c.00409-.04071.02753-.07025.06927-.08759l.51862-.20581c.03357-.01324.06519-.01935.09473-.01935h.73151c.04681,0,.06927.02545.06927.07538l-.51959,4.23102c-.00409.02136-.01324.0387-.02856.05298-.01422.01526-.03156.0224-.05298.0224h-.71313c-.02136,0-.03766-.00714-.04993-.0224-.01324-.01428-.01727-.03162-.01324-.05298l.41974-3.41699c0-.01733-.00812-.02551-.02545-.02551ZM53.70319,236.72467h.3382c.02039,0,.03668.00714.04993.02142.01227.01526.0163.03259.01227.05402l-.05603.4696c-.00409.02039-.01428.03772-.02856.05298-.01422.01428-.03259.02142-.05298.02142h-.34436c-.00812,0-.01526.00305-.0224.00916-.0061.00714-.00916.01428-.00916.0224l-.18134,1.4895c-.00409.02136-.0061.04993-.0061.08759,0,.08765.01935.14874.05908.18134.03973.03363.09778.04895.17218.04382h.04376c.02142,0,.03772.00818.04993.0224.01324.01428.01733.03259.01324.05298l-.07538.61334c-.00409.02136-.01324.0387-.0285.05298-.01428.01526-.03162.0224-.05298.0224h-.24451c-.26691,0-.46863-.04077-.6062-.12225-.13855-.08148-.20679-.23431-.20679-.45947,0-.02954.00409-.08148.01221-.15692l.22516-1.8277c0-.02032-.00818-.03156-.02448-.03156h-.20068c-.02039,0-.03766-.00714-.04993-.02142-.01221-.01526-.01733-.03259-.01221-.05298l.05603-.4696c.00409-.02142.01324-.03876.0285-.05402.01428-.01428.03162-.02142.05298-.02142h.19971c.02136,0,.03156-.01019.03156-.03156l.08765-.69482c.00409-.02039.01324-.0387.0285-.05298.01428-.01422.03162-.02136.05298-.02136h.68262c.02032,0,.03766.00714.04993.02136.01221.01428.0163.03259.01221.05298l-.08765.69482c0,.02136.01019.03156.03162.03156ZM53.47394,320.45746c.03973.03363.09784.04889.17218.04382h.04382c.02136,0,.03766.00812.04993.0224.01324.01428.01727.03259.01324.05298l-.07544.61328c-.00403.02142-.01324.03876-.0285.05298-.01428.01532-.03156.0224-.05298.0224h-.24451c-.26691,0-.46863-.04071-.60614-.12225-.13861-.08148-.20685-.23431-.20685-.45947,0-.02954.00409-.08148.01221-.15686l.22516-1.8277c0-.02039-.00812-.03156-.02441-.03156h-.20074c-.02032,0-.03766-.00714-.04987-.02142-.01227-.01526-.01733-.03259-.01227-.05298l.05603-.46967c.00409-.02136.01324-.0387.02856-.05402.01422-.01422.03156-.02136.05298-.02136h.19965c.02142,0,.03162-.01019.03162-.03162l.08759-.69476c.00409-.02039.01324-.03876.0285-.05298.01428-.01428.03162-.02142.05298-.02142h.68262c.02039,0,.03772.00714.04993.02142.01221.01422.0163.03259.01221.05298l-.08759.69476c0,.02142.01019.03162.03156.03162h.33826c.02039,0,.03668.00714.04993.02136.01221.01532.0163.03265.01221.05402l-.05603.46967c-.00409.02039-.01428.03772-.0285.05298-.01428.01428-.03265.02142-.05298.02142h-.34436c-.00818,0-.01532.00305-.0224.00916-.00616.00714-.00922.01422-.00922.0224l-.18134,1.48944c-.00409.02142-.0061.04993-.0061.08765,0,.08759.01935.14874.05908.18134ZM50.60504,157.73132l.27612-2.25354c.00403-.02142.01324-.03876.02747-.05402.01532-.01428.03259-.02136.05402-.02136h.71313c.02142,0,.03772.00708.04993.02136.01324.01526.01733.03259.01324.05402l-.25061,2.05896c-.00409.02136-.0061.05194-.0061.09369,0,.09174.01935.16199.05908.2099.03973.04785.0968.07233.17218.07233.09167,0,.16705-.03564.22516-.10699.05804-.07025.09576-.16602.11304-.28729l.24963-2.04059c.00507-.02142.01428-.03876.0285-.05402.01428-.01428.03259-.02136.05298-.02136h.71417c.02039,0,.03772.00708.04993.02136.01221.01526.0163.03259.01221.05402l-.37488,3.06653c-.00513.02136-.01428.0387-.02856.05298-.01422.01526-.03259.0224-.05298.0224h-.71411c-.02039,0-.03772-.00714-.04993-.0224-.01227-.01428-.0163-.03162-.01227-.05298l.01227-.10596c.00403-.01221.00201-.02142-.0061-.02545-.00818-.00409-.01636,0-.02551.01324-.13342.1579-.32495.23737-.57562.23737-.21698,0-.39423-.06116-.5318-.18439-.13751-.12329-.20679-.31177-.20679-.56647,0-.03772.00409-.09778.01221-.18134ZM47.77588,157.43079l.24451-2.00293c.04584-.37592.1936-.67645.44421-.90161s.56134-.33826.93317-.33826c.33722,0,.60419.09271.80078.27814.19666.1864.29443.44012.29443.76105,0,.04175-.00409.10901-.01221.20068l-.24451,2.00293c-.04584.37488-.19562.67542-.44727.90057-.25262.2262-.56439.33826-.93628.33826-.3382,0-.60413-.09271-.79767-.27814-.19458-.18542-.29138-.43909-.29138-.76105,0-.04175.00409-.10797.01221-.19965ZM46.84271,238.75311l.24451-2.00293c.04584-.37598.19354-.67651.44415-.90167.25061-.2251.56134-.3382.93323-.3382.33722,0,.60413.09271.80078.27814.19659.1864.29437.44012.29437.76099,0,.04181-.00403.10901-.01221.20074l-.24451,2.00293c-.04584.37488-.19562.67542-.44727.90057-.25262.2262-.56439.33826-.93622.33826-.33826,0-.60413-.09271-.79773-.27814-.19458-.18542-.29138-.43909-.29138-.76105,0-.04175.00409-.10797.01227-.19965ZM42.1936,21.09827h.58679v4.45001h-.58679v-4.45001ZM40.49219,21.09827h.58685v4.45001h-.58685v-4.45001ZM34.95819,19.79016c.0163-.05603.05298-.08356.10797-.08356h1.31018c.05707,0,.09369.02753.11005.08356l1.80121,5.64099c.0061.01123.01013.02545.01013.04175,0,.04993-.03052.07538-.09167.07538h-1.06158c-.05499,0-.09167-.02747-.10797-.0835l-.25061-.81812c-.01019-.02136-.02448-.03363-.04077-.03363h-2.05383c-.0163,0-.03058.01227-.04077.03363l-.24249.81812c-.0163.05603-.05298.0835-.10797.0835h-1.06158c-.03259,0-.05707-.00916-.07336-.02954-.01831-.01935-.02032-.04785-.01013-.08759l1.80322-5.64099ZM27.46399,19.80646c0-.02753.01019-.05194.02856-.07135.02039-.01935.0448-.0285.07129-.0285h.97601c.05096,0,.08966.02142.11816.06622l1.2511,1.94489c.0163.03357.03461.03357.0509,0l1.25922-1.94489c.02856-.0448.06726-.06622.11816-.06622h.97601c.02856,0,.05096.00916.07135.0285.01831.01941.0285.04382.0285.07135v5.64203c0,.02747-.01019.0509-.0285.07025-.02039.02039-.04279.02954-.07135.02954h-.97601c-.0285,0-.05298-.00916-.07129-.02954-.02039-.01935-.03058-.04279-.03058-.07025v-3.68091c0-.0224-.00403-.03357-.0163-.03357-.01019,0-.0224.00812-.03259.02545l-.88428,1.38556c-.02856.04376-.06726.06622-.11823.06622h-.49103c-.05096,0-.08966-.02246-.11816-.06622l-.88434-1.38556c-.01019-.01733-.0224-.02344-.03259-.02142-.01221.00305-.0163.01532-.0163.03772v3.67273c0,.02747-.01019.0509-.03058.07025-.01831.02039-.04279.02954-.07129.02954h-.97601c-.02649,0-.0509-.00916-.07129-.02954-.01837-.01935-.02856-.04279-.02856-.07025v-5.64203ZM22.16431,21.73401c0-.41162.09167-.77637.27509-1.0932.18335-.31683.44012-.56335.77222-.73859.33008-.17523.71313-.26288,1.14716-.26288.44012,0,.8252.08765,1.15527.26288.33215.17523.58887.42175.77228.73859.18335.31683.27509.68158.27509,1.0932v1.78589c0,.41772-.09174.78754-.27509,1.11047-.18341.32294-.44012.57153-.77228.74677-.33008.17523-.71515.26288-1.15527.26288-.43402,0-.81708-.08862-1.14716-.26697-.33209-.17828-.58887-.42682-.77222-.74677-.18341-.31989-.27509-.68866-.27509-1.10638v-1.78589ZM17.05615,21.6922c0-.40546.09167-.76508.271-1.07581.18134-.31177.43604-.55219.76404-.72235.32806-.1701.70703-.2547,1.13495-.2547.42383,0,.79669.08356,1.12268.25067.32605.16705.57867.39325.76001.6795.18134.28729.271.60516.271.95563v.05908c0,.02753-.01019.0509-.0285.07031-.02039.02032-.0448.02954-.07129.02954h-.97601c-.0285,0-.05298-.00922-.07135-.02954-.02032-.01941-.03052-.04279-.03052-.07031v-.02545c0-.25574-.08765-.47174-.26697-.64697-.17725-.17523-.41357-.26282-.70905-.26282-.2995,0-.53998.09375-.72131.28015-.18134.18646-.271.42993-.271.73047v1.93567c0,.30054.09784.54407.29138.73047.19562.18646.44214.27917.74371.27917.28937,0,.51959-.07642.69275-.22925.1712-.15277.25879-.36572.25879-.63873v-.37494c0-.0285-.01428-.04175-.04279-.04175h-.93524c-.02649,0-.0509-.01019-.06927-.02954-.02039-.01941-.03058-.04279-.03058-.07135v-.76715c0-.02747.01019-.05194.03058-.07129.01837-.01935.04279-.02954.06927-.02954h2.0376c.02649,0,.0509.01019.07129.02954.01831.01935.0285.04382.0285.07129v1.10132c0,.42279-.08966.79059-.26691,1.10132-.17932.31171-.42993.55011-.75592.71417-.32599.164-.70294.24652-1.13086.24652s-.80688-.08661-1.13495-.25879c-.328-.17316-.5827-.41357-.76404-.72229-.17932-.30872-.271-.66626-.271-1.07275v-1.86951ZM16.1015,41.91406h13.30737v1.04321h-13.30737v-1.04321ZM9.09204,31.6319h1.73901v-1.73804h.78247v1.73804h1.73804v.78247h-1.73804v1.73804h-.78247v-1.73804h-1.73901v-.78247ZM11.5766,60.01208v1.41919h-.78247v-1.41919h-1.42017v-.78241h1.42017v-1.41968h.78247v1.41968h1.41913v.78241h-1.41913ZM12.67383,62.50403v.78241h-2.97693v-.78241h2.97693ZM4.73462,73.24097c0-.04584.02441-.06927.07434-.06927h.78247c.04584,0,.06927.02344.06927.06927l.08148,2.75378c0,.01727.00507.02545.01526.02545s.01733-.00818.02246-.02545l.74469-2.75378c.01227-.04584.04181-.06927.08765-.06927h.75696c.04993,0,.0672.02747.04993.08148l-1.39575,4.23102c-.01221.04688-.04175.06927-.08765.06927h-.78241c-.04584,0-.06824-.0224-.06824-.06927l-.35046-4.23102v-.01221ZM1.73633,76.4328c.00818-.04993.03564-.07538.08148-.07538h.70709c.04584,0,.06927.02545.06927.07538v.10083c.01221.20789.09576.31281.24957.31281.07947,0,.14874-.02856.20679-.08459.05811-.05701.10193-.13446.13147-.23529.02545-.10803.04376-.22314.05603-.34436.01324-.07843.01935-.18542.01935-.31891-.01221-.19562-.09784-.29443-.25671-.29443-.15894,0-.26697.07336-.32605.21906-.02039.04688-.04993.06927-.08759.06927h-.7132c-.04584,0-.06927-.02545-.06927-.07538l.31378-2.53473c.00409-.02142.01324-.0387.02753-.05298.01532-.01526.03259-.0224.05402-.0224h2.14655c.02039,0,.03772.00714.04993.0224.01227.01428.0163.03156.01227.05298l-.0744.60718c-.00409.02039-.01428.0387-.0285.05298-.01428.01532-.03259.0224-.05298.0224h-1.33362c-.02039,0-.03156.01019-.03156.03058l-.13141,1.05243c0,.01221.00305.02039.01013.02441.00616.00409.01532,0,.02753-.01221.07538-.07129.16199-.12531.25983-.16302.09778-.03766.19965-.05603.30359-.05603.25873,0,.45642.08765.59192.26288s.1925.4187.17212.73248c0,.03363-.00201.08862-.0061.16504-.00507.07745-.01117.15179-.01935.22314-.02039.16602-.04382.29846-.06824.39423-.05505.32092-.19458.57153-.41974.75085s-.51141.26898-.85785.26898c-.32495,0-.5766-.08356-.75391-.25061-.17725-.16608-.26587-.41467-.26587-.74475l.0061-.17523ZM15.21399,75.99176c3.3028,0,6.33966,1.13281,8.76758,3.01508l2.46674-2.96222c-.86676-.89313-1.40594-2.10608-1.40594-3.44586,0-2.7334,2.224-4.9574,4.9574-4.9574,1.00885,0,1.94586.3064,2.72961.82605,3.61896-4.51971,5.62036-10.16193,5.62036-15.96008v-.60822h1.04321v.60822c0,6.03979-2.08594,11.91748-5.85956,16.62408.87823.89484,1.42377,2.11761,1.42377,3.46735,0,1.34021-.53943,2.55359-1.40668,3.44678l4.10583,4.98309-.80078.66833-4.10278-4.97949c-.78827.52856-1.73468.83868-2.75299.83868-1.0188,0-1.96576-.3103-2.75403-.83929l-2.46454,2.95972c2.92798,2.62915,4.78339,6.43018,4.78339,10.66577,0,7.91302-6.43768,14.35071-14.35059,14.35071S.8634,98.25537.8634,90.34235s6.43768-14.35059,14.35059-14.35059ZM29.40887,123.237v1.04321h-13.30737v-1.04321h13.30737ZM11.5766,141.33502v1.41919h-.78247v-1.41919h-1.42017v-.78241h1.42017v-1.41968h.78247v1.41968h1.41913v.78241h-1.41913ZM12.67383,143.82697v.78241h-2.97693v-.78241h2.97693ZM11.61353,113.7373v1.73804h-.78247v-1.73804h-1.73901v-.78241h1.73901v-1.73804h.78247v1.73804h1.73804v.78241h-1.73804ZM7.41913,154.57611l-1.39575,4.23102c-.01221.04688-.04175.06927-.08765.06927h-.78241c-.04584,0-.06824-.0224-.06824-.06927l-.35046-4.23102v-.01221c0-.04584.02441-.06927.07434-.06927h.78247c.04584,0,.06927.02344.06927.06927l.08148,2.75378c0,.01727.00507.02545.01526.02545s.01733-.00818.02246-.02545l.74469-2.75378c.01227-.04584.04181-.06927.08765-.06927h.75696c.04993,0,.0672.02753.04993.08148ZM2.7663,156.36005c.00616.00403.01532,0,.02753-.01227.07538-.07129.16199-.12531.25983-.16296.09778-.03772.19965-.05609.30359-.05609.25873,0,.45642.08765.59192.26288s.1925.4187.17212.73248c0,.03363-.00201.08862-.0061.16504-.00507.07745-.01117.15179-.01935.22314-.02039.16608-.04382.29852-.06824.39429-.05505.32086-.19458.57153-.41974.75079-.22516.17932-.51141.26898-.85785.26898-.32495,0-.5766-.08356-.75391-.25061-.17725-.16608-.26587-.41467-.26587-.74475l.0061-.17523c.00818-.04993.03564-.07538.08148-.07538h.70709c.04584,0,.06927.02545.06927.07538v.10089c.01221.20782.09576.31274.24957.31274.07947,0,.14874-.0285.20679-.08453.05811-.05707.10193-.13452.13147-.23535.02545-.10797.04376-.22314.05603-.34436.01324-.07843.01935-.18542.01935-.31885-.01221-.19562-.09784-.29443-.25671-.29443-.15894,0-.26697.0733-.32605.21899-.02039.04688-.04993.06927-.08759.06927h-.7132c-.04584,0-.06927-.02545-.06927-.07538l.31378-2.53473c.00409-.02136.01324-.0387.02753-.05298.01532-.01526.03259-.0224.05402-.0224h2.14655c.02039,0,.03772.00714.04993.0224.01227.01428.0163.03162.01227.05298l-.0744.60718c-.00409.02039-.01428.03876-.0285.05298-.01428.01532-.03259.02246-.05298.02246h-1.33362c-.02039,0-.03156.01013-.03156.03052l-.13141,1.05243c0,.01221.00305.02039.01013.02448ZM15.21399,157.3147c3.3028,0,6.33966,1.13281,8.76758,3.01508l2.46674-2.96222c-.86676-.89307-1.40594-2.10608-1.40594-3.44586,0-2.7334,2.224-4.9574,4.9574-4.9574,1.00885,0,1.94586.3064,2.72961.82605,3.61896-4.51971,5.62036-10.16193,5.62036-15.96002v-.60822h1.04321v.60822c0,6.03973-2.08594,11.91742-5.85956,16.62402.87823.8949,1.42377,2.11761,1.42377,3.46735,0,1.34021-.53943,2.55359-1.40668,3.44684l4.12396,4.90088-.80072.66833-4.12097-4.89734c-.78827.52856-1.73468.83868-2.75299.83868-1.0188,0-1.96576-.31024-2.75403-.83929l-2.46454,2.95972c2.92798,2.62915,4.78339,6.43018,4.78339,10.66577,0,7.91302-6.43768,14.35071-14.35059,14.35071s-14.35059-6.43768-14.35059-14.35071,6.43768-14.35059,14.35059-14.35059ZM29.40887,204.55994v1.04321h-13.30737v-1.04321h13.30737ZM11.5766,222.65796v1.41919h-.78247v-1.41919h-1.42017v-.78241h1.42017v-1.41968h.78247v1.41968h1.41913v.78241h-1.41913ZM12.67383,225.1499v.78247h-2.97693v-.78247h2.97693ZM11.61353,195.06024v1.73804h-.78247v-1.73804h-1.73901v-.78241h1.73901v-1.73804h.78247v1.73804h1.73804v.78241h-1.73804ZM7.41913,235.89905l-1.39575,4.23102c-.01221.04688-.04175.06927-.08765.06927h-.78241c-.04584,0-.06824-.0224-.06824-.06927l-.35046-4.23102v-.01221c0-.04584.02441-.06927.07434-.06927h.78247c.04584,0,.06927.02344.06927.06927l.08148,2.75378c0,.01733.00507.02545.01526.02545s.01733-.00812.02246-.02545l.74469-2.75378c.01227-.04584.04181-.06927.08765-.06927h.75696c.04993,0,.0672.02753.04993.08148ZM2.7663,237.68298c.00616.00403.01532,0,.02753-.01227.07538-.07129.16199-.12531.25983-.16296.09778-.03772.19965-.05603.30359-.05603.25873,0,.45642.08759.59192.26282s.1925.4187.17212.73254c0,.03357-.00201.08862-.0061.16504-.00507.07739-.01117.15179-.01935.22308-.02039.16608-.04382.29852-.06824.39429-.05505.32092-.19458.57153-.41974.75085-.22516.17926-.51141.26892-.85785.26892-.32495,0-.5766-.08356-.75391-.25061-.17725-.16608-.26587-.41461-.26587-.74475l.0061-.17523c.00818-.04987.03564-.07538.08148-.07538h.70709c.04584,0,.06927.02551.06927.07538v.10089c.01221.20782.09576.31274.24957.31274.07947,0,.14874-.0285.20679-.08453.05811-.05707.10193-.13446.13147-.23535.02545-.10797.04376-.22308.05603-.34436.01324-.07843.01935-.18542.01935-.31885-.01221-.19562-.09784-.29443-.25671-.29443-.15894,0-.26697.07336-.32605.21906-.02039.04681-.04993.06927-.08759.06927h-.7132c-.04584,0-.06927-.02551-.06927-.07544l.31378-2.53473c.00409-.02136.01324-.0387.02753-.05298.01532-.01526.03259-.0224.05402-.0224h2.14655c.02039,0,.03772.00714.04993.0224.01227.01428.0163.03162.01227.05298l-.0744.60724c-.00409.02032-.01428.0387-.0285.05298-.01428.01526-.03259.0224-.05298.0224h-1.33362c-.02039,0-.03156.01019-.03156.03058l-.13141,1.05237c0,.01221.00305.02039.01013.02448ZM15.21399,238.63763c3.3028,0,6.33966,1.13281,8.76758,3.01508l2.46674-2.96222c-.86676-.89307-1.40594-2.10608-1.40594-3.4458,0-2.7334,2.224-4.9574,4.9574-4.9574,1.00885,0,1.94586.3064,2.72961.82599,3.61896-4.51965,5.62036-10.16187,5.62036-15.96002v-.60822h1.04321v.60822c0,6.03979-2.08594,11.91748-5.85956,16.62402.87823.8949,1.42377,2.11761,1.42377,3.46741,0,1.34021-.53943,2.55353-1.40668,3.44678l4.13531,4.95007-.80078.66833-4.13226-4.94653c-.78827.52856-1.73468.83875-2.75299.83875-1.0188,0-1.96576-.3103-2.75403-.83929l-2.46454,2.95966c2.92798,2.62915,4.78339,6.43018,4.78339,10.66577,0,7.91302-6.43768,14.35071-14.35059,14.35071s-14.35059-6.43768-14.35059-14.35071,6.43768-14.35059,14.35059-14.35059ZM29.40887,285.88287v1.04327h-13.30737v-1.04327h13.30737ZM11.5766,303.98096v1.41913h-.78247v-1.41913h-1.42017v-.78247h1.42017v-1.41968h.78247v1.41968h1.41913v.78247h-1.41913ZM12.67383,306.4729v.78241h-2.97693v-.78241h2.97693ZM11.61353,276.38318v1.73804h-.78247v-1.73804h-1.73901v-.78241h1.73901v-1.73804h.78247v1.73804h1.73804v.78241h-1.73804ZM7.41913,317.22205l-1.39575,4.23102c-.01221.04681-.04175.06927-.08765.06927h-.78241c-.04584,0-.06824-.02246-.06824-.06927l-.35046-4.23102v-.01227c0-.04584.02441-.06927.07434-.06927h.78247c.04584,0,.06927.02344.06927.06927l.08148,2.75378c0,.01733.00507.02545.01526.02545s.01733-.00812.02246-.02545l.74469-2.75378c.01227-.04584.04181-.06927.08765-.06927h.75696c.04993,0,.0672.02753.04993.08154ZM2.7663,319.00592c.00616.00409.01532,0,.02753-.01221.07538-.07135.16199-.12531.25983-.16302.09778-.03772.19965-.05603.30359-.05603.25873,0,.45642.08759.59192.26282s.1925.41876.17212.73254c0,.03363-.00201.08862-.0061.16504-.00507.07739-.01117.15179-.01935.22308-.02039.16608-.04382.29852-.06824.39429-.05505.32092-.19458.57153-.41974.75085s-.51141.26892-.85785.26892c-.32495,0-.5766-.0835-.75391-.25061-.17725-.16602-.26587-.41461-.26587-.74469l.0061-.17523c.00818-.04993.03564-.07544.08148-.07544h.70709c.04584,0,.06927.02551.06927.07544v.10083c.01221.20782.09576.31274.24957.31274.07947,0,.14874-.0285.20679-.08453.05811-.05707.10193-.13446.13147-.23535.02545-.10797.04376-.22308.05603-.34436.01324-.07843.01935-.18536.01935-.31885-.01221-.19562-.09784-.29443-.25671-.29443-.15894,0-.26697.07336-.32605.21906-.02039.04688-.04993.06927-.08759.06927h-.7132c-.04584,0-.06927-.02551-.06927-.07538l.31378-2.53473c.00409-.02142.01324-.03876.02753-.05298.01532-.01532.03259-.02246.05402-.02246h2.14655c.02039,0,.03772.00714.04993.02246.01227.01422.0163.03156.01227.05298l-.0744.60718c-.00409.02039-.01428.0387-.0285.05298-.01428.01526-.03259.0224-.05298.0224h-1.33362c-.02039,0-.03156.01019-.03156.03058l-.13141,1.05237c0,.01227.00305.02039.01013.02448ZM10.22961,356.11371c-.06116.55115-.33929.94952-.83441,1.19403-.03363.0163-.03668.03363-.00916.04993.41772.22821.62653.59595.62653,1.10132,0,.0509-.0061.13647-.01727.25873-.06622.53998-.29547.94751-.68872,1.22253-.39221.27612-.87415.41364-1.44769.41364h-2.10278c-.0285,0-.04993-.00916-.0672-.02954-.0163-.01935-.02246-.04279-.0163-.07031l.69275-5.64197c.00507-.02753.01733-.052.03772-.07135.01935-.01935.04279-.0285.07025-.0285h2.03656c1.15735,0,1.73602.43604,1.73602,1.31012,0,.12738-.00513.22516-.0163.29138ZM14.61853,360.25403c-.00513.02753-.01733.05096-.03772.07031-.01935.02039-.04279.02954-.07031.02954h-3.73889c-.02856,0-.04993-.00916-.06726-.02954-.0163-.01935-.0224-.04279-.0163-.07031l.69275-5.64197c.00513-.02753.01733-.052.03772-.07135.01935-.01935.04279-.0285.07031-.0285h.95154c.02747,0,.04993.00916.0672.0285.0163.01935.02142.04382.0163.07135l-.57556,4.69043c0,.02753.01117.04181.03357.04181h2.64478c.06213,0,.09271.03357.09271.09979l-.10083.80994ZM20.177,360.26221c0,.02753-.00818.04993-.02448.06622-.01733.01733-.0387.02545-.0672.02545h-1.0351c-.04993,0-.08051-.02747-.09167-.08356l-.14166-.81805c0-.00507-.00305-.01221-.00812-.02039-.0061-.00812-.01428-.01324-.02545-.01324h-1.99481c-.0163,0-.03058.01221-.04175.03363l-.34131.81805c-.01733.05609-.05298.08356-.10901.08356h-1.0351c-.03363,0-.05707-.01117-.07031-.03363-.01422-.0224-.01324-.04993.00409-.0835l2.44507-5.64105c.02753-.05603.06726-.0835.11719-.0835h1.26837c.04993,0,.08356.02747.09985.0835l1.05139,5.64105v.02545ZM25.28516,356.3725c-.01117.05603-.04785.08661-.10901.09271l-.9505.05804h-.01733c-.05603,0-.07745-.03058-.06622-.09167.00513-.03363.00818-.08051.00818-.14264,0-.25568-.07642-.45844-.22925-.60925-.15381-.14972-.36066-.2251-.6225-.2251-.28931,0-.53278.09064-.73047.27197-.19763.18036-.31274.41571-.34637.70502l-.24957,2.01105c-.0061.03363-.00922.08051-.00922.14166,0,.25061.07544.45129.2262.60107.14978.15076.35864.22516.62555.22516.28931,0,.5318-.08868.72638-.26697s.31177-.41156.35046-.70093c.01123-.0611.04688-.09167.10797-.09167l.94342.04181c.02747,0,.04993.00708.0672.02032.01636.01428.02142.03571.01636.06317-.04486.38409-.17218.72333-.38409,1.01776-.21191.29547-.48499.52368-.82214.68463-.33624.16095-.7132.24249-1.13086.24249-.57867,0-1.0351-.15588-1.36823-.46765-.33417-.31171-.50128-.72943-.50128-1.25208,0-.13342.0061-.23633.01733-.30865l.23334-1.92755c.04987-.40143.1803-.75391.39221-1.06055.21088-.30566.48694-.54199.82623-.70911.33923-.16705.71722-.25061,1.13489-.25061.57867,0,1.03613.15076,1.37335.45032.33618.30054.50427.7019.50427,1.20215,0,.06116-.00507.15283-.0163.27509ZM15.21399,348.66187c-7.9129,0-14.35059-6.43768-14.35059-14.35071s6.43768-14.35059,14.35059-14.35059c3.3028,0,6.33966,1.13287,8.76758,3.01514l2.46674-2.96228c-.86676-.89307-1.40594-2.10608-1.40594-3.4458,0-2.7334,2.224-4.9574,4.9574-4.9574,1.00885,0,1.94586.3064,2.72961.82605,3.61896-4.51971,5.62036-10.16193,5.62036-15.96008v-.60822h1.04321v.60822c0,6.03979-2.08594,11.91748-5.85956,16.62402.87823.8949,1.42377,2.11761,1.42377,3.46741,0,1.34021-.53943,2.55359-1.40668,3.44678l4.29675,5.13275-.80072.66833-4.29376-5.12921c-.78827.52856-1.73468.83875-2.75299.83875-1.0188,0-1.96576-.3103-2.75403-.83929l-2.4646,2.95966c2.92798,2.62915,4.78345,6.43024,4.78345,10.66577,0,7.91302-6.43768,14.35071-14.35059,14.35071ZM30.65112,354.63647l-2.09467,2.37885c-.0224.02246-.0285.04181-.01727.05908l1.51898,3.16235c.0061.01117.00916.0285.00916.04993,0,.0448-.0285.0672-.0835.0672h-1.06873c-.05603,0-.09167-.0224-.10797-.0672l-1.1441-2.40332c-.00513-.01123-.01324-.0163-.02448-.0163-.01117,0-.0224.00507-.03363.0163l-.5929.65912-.02448.04993-.20068,1.66162c-.00513.02753-.01837.05096-.03772.07031-.01935.02039-.04279.02954-.07025.02954h-.9516c-.0285,0-.04987-.00916-.0672-.02954-.0163-.01935-.0224-.04279-.0163-.07031l.69275-5.64197c.00513-.02753.01733-.052.03772-.07135.01935-.01935.04279-.0285.07025-.0285h.9516c.02747,0,.04987.00916.0672.0285.0163.01935.02142.04382.0163.07135l-.2832,2.33704c-.0061.0163-.00305.02649.00812.02856.01123.00305.02246-.00104.03363-.01227l2.16901-2.39514c.03363-.0387.07538-.05804.12531-.05804h1.06873c.05499,0,.0835.01935.0835.05804,0,.0224-.01117.04486-.03357.06622ZM36.72711,360.25403c-.00507.02753-.01831.05096-.03766.07031-.01941.02039-.04279.02954-.07031.02954h-.91895c-.04993,0-.08252-.0224-.09985-.0672l-1.66058-3.5719c-.00616-.0163-.01428-.02344-.02551-.02039-.01117.00311-.01935.01532-.02441.03772l-.41772,3.52191c-.00507.02753-.01831.05096-.03772.07031-.01935.02039-.04279.02954-.07025.02954h-.95154c-.02856,0-.04993-.00916-.06726-.02954-.0163-.01935-.0224-.04279-.0163-.07031l.69275-5.64197c.00513-.02753.01733-.052.03772-.07135.01935-.01935.04279-.0285.07031-.0285h.91791c.0509,0,.08661.02136.10901.06622l1.65247,3.55554c.00507.0163.01428.02344.02545.02039.01019-.00208.01935-.01532.02448-.03668l.41766-3.50562c.00513-.02753.01733-.052.03772-.07135.01935-.01935.04279-.0285.07031-.0285h.95154c.02753,0,.04993.00916.0672.0285.01636.01935.02142.04382.01636.07135l-.69281,5.64197ZM42.32739,356.53955l-.21704,1.78595c-.04993.41772-.18335.7865-.40039,1.10638-.21698.31989-.49817.56848-.84351.74677-.34436.17828-.72845.26691-1.15125.26691-.57867,0-1.03918-.16296-1.38147-.48798-.34229-.32599-.51349-.76105-.51349-1.30609,0-.09985.00818-.20886.02551-.32599l.21698-1.78595c.04993-.41156.18341-.77631.40039-1.09314s.49615-.56335.83844-.73859c.34235-.17523.7254-.26288,1.14819-.26288.58374,0,1.0473.16199,1.38959.48395.34131.32294.51245.75079.51245,1.28571,0,.10596-.00812.21393-.02441.32495ZM43.8963,360.25403c-.00513.02753-.01831.05096-.03772.07031-.01935.02039-.04279.02954-.07025.02954h-.95154c-.02856,0-.04993-.00916-.06726-.02954-.0163-.01935-.0224-.04279-.0163-.07031l.69275-5.64197c.00513-.02753.01733-.052.03772-.07135.01935-.01935.04279-.0285.07031-.0285h.95154c.02747,0,.04993.00916.0672.0285.0163.01935.02142.04382.0163.07135l-.69275,5.64197ZM49.35492,356.23901l-.01727.12531c-.00513.02856-.01733.052-.03668.07135-.02039.01935-.04382.02954-.07135.02954h-.93524c-.02747,0-.04993-.01019-.06622-.02954-.01733-.01935-.0224-.04279-.01733-.07135l.00922-.06622c.02747-.23431-.04077-.43298-.20477-.59698-.16406-.164-.41058-.24652-.73865-.24652-.27301,0-.49005.06311-.651.18848-.16095.12427-.24249.29541-.24249.51245,0,.12323.03973.22614.11719.30969.07843.08252.19354.16095.34637.23328s.38513.17017.69684.29242c.3454.13855.61334.25671.80591.35449.19153.0968.36572.24353.52161.43811.15485.19458.23328.43909.23328.73456,0,.0387-.00507.10797-.0163.2088-.06726.52264-.30463.93524-.71417,1.23889-.40851.30359-.93011.45538-1.56482.45538-.6062,0-1.08301-.13654-1.4314-.40955-.34741-.27203-.52161-.64288-.52161-1.1095,0-.0509.0061-.12531.01727-.22614l.02448-.18341c.0061-.02747.01831-.0509.03772-.07025.01935-.02039.04279-.02954.07129-.02954h.92609c.02747,0,.04993.00916.0672.02954.0163.01935.02142.04279.0163.07025l-.0163.12531c-.0285.22314.04791.41058.22925.56342.1803.15283.44116.22925.7804.22925.31177,0,.54608-.06927.70502-.20782.15894-.13959.23834-.30975.23834-.5094,0-.12225-.04071-.22516-.12122-.30872-.08044-.08356-.18951-.1579-.32599-.22107-.13654-.06421-.3515-.15485-.64691-.27203-.32196-.12225-.59497-.24243-.81708-.36267-.22314-.1192-.40955-.27917-.55933-.47986-.15076-.20068-.22516-.44824-.22516-.74268,0-.0387.00513-.10901.0163-.20886.06116-.50635.29242-.90771.69281-1.20624.40033-.29749.89551-.44623,1.48535-.44623.37799,0,.71313.06519,1.00555.19666.29236.13037.51752.31378.67645.55011.1579.23639.23737.51349.23737.83032,0,.0448-.00507.11713-.0163.21698ZM49.55975,318.07349l-.24451,2.00293c-.04584.37494-.19556.67548-.4472.90063-.25269.22614-.56439.3382-.93628.3382-.33826,0-.60413-.09271-.79773-.27814-.19458-.18536-.29132-.43909-.29132-.76099,0-.04181.00403-.10803.01221-.19971l.24451-2.00293c.04584-.37592.19354-.67645.44421-.90161.25061-.22516.56134-.33826.93317-.33826.33722,0,.60413.09271.80078.27814.19659.18646.29443.44012.29443.76105,0,.04175-.00409.10901-.01227.20068ZM49.67188,239.05365l.27606-2.25354c.00409-.02142.01324-.03876.02753-.05402.01526-.01428.03259-.02142.05396-.02142h.7132c.02136,0,.03766.00714.04987.02142.01324.01526.01733.03259.01324.05402l-.25061,2.05896c-.00403.02136-.0061.05194-.0061.09369,0,.09167.01935.16199.05908.2099.03973.04785.0968.07233.17218.07233.09167,0,.16711-.03564.22516-.10699.05804-.07031.09576-.16608.1131-.28729l.24957-2.04059c.00513-.02142.01428-.03876.02856-.05402.01422-.01428.03259-.02142.05298-.02142h.71417c.02032,0,.03766.00714.04987.02142.01227.01526.01636.03259.01227.05402l-.37494,3.06653c-.00507.02136-.01422.0387-.0285.05298-.01428.01526-.03259.0224-.05298.0224h-.71417c-.02039,0-.03772-.00714-.04993-.0224-.01221-.01428-.0163-.03162-.01221-.05298l.01221-.10596c.00409-.01227.00201-.02142-.0061-.02551-.00818-.00403-.0163,0-.02545.01324-.13348.15796-.32501.23743-.57562.23743-.21704,0-.39429-.06116-.5318-.18445-.13757-.12323-.20685-.31171-.20685-.56641,0-.03772.00409-.09784.01227-.18134ZM49.68408,320.37695l.27606-2.25354c.00409-.02136.01324-.0387.02753-.05402.01526-.01422.03259-.02136.05402-.02136h.71313c.02136,0,.03766.00714.04993.02136.01324.01532.01733.03265.01324.05402l-.25061,2.05896c-.00409.02142-.00616.05194-.00616.09375,0,.09167.01941.16199.05914.20984.03973.04791.09674.07233.17212.07233.09174,0,.16711-.03564.22516-.10693.05811-.07031.09576-.16608.1131-.28729l.24963-2.04065c.00507-.02136.01422-.0387.0285-.05402.01428-.01422.03259-.02136.05298-.02136h.71417c.02039,0,.03766.00714.04993.02136.01221.01532.0163.03265.01221.05402l-.37494,3.06653c-.00507.02142-.01422.03876-.0285.05298-.01428.01532-.03259.0224-.05298.0224h-.71417c-.02039,0-.03766-.00708-.04993-.0224-.01221-.01422-.0163-.03156-.01221-.05298l.01221-.10596c.00409-.01221.00208-.02136-.0061-.02545-.00812-.00409-.0163,0-.02545.01324-.13348.1579-.32501.23737-.57562.23737-.21698,0-.39429-.0611-.5318-.18439s-.20679-.31177-.20679-.56647c0-.03766.00403-.09778.01221-.18134ZM54.22778,355.42194c-.00513.02753-.01837.05096-.03772.07031s-.04279.02954-.07025.02954h-2.66315c-.01117,0-.02032.00409-.0285.01227-.00818.00812-.01324.01831-.01324.02954l-.1579,1.29382c0,.02753.01117.04175.03363.04175h1.74414c.02753,0,.04993.00922.06622.02856.01733.01935.0224.04382.01733.07129l-.10089.80896c-.00507.0285-.01831.05194-.03766.07129-.01941.01935-.04285.02954-.07031.02954h-1.74414c-.02856,0-.04181.01324-.04181.04175l-.16705,1.35193c0,.02753.01117.04181.03363.04181h2.65393c.0611,0,.09167.03357.09167.09979l-.10089.80994c-.00507.02753-.01727.05096-.03668.07031-.02032.02039-.04376.02954-.07129.02954h-3.74707c-.02856,0-.04993-.00916-.06726-.02954-.0163-.01935-.0224-.04279-.0163-.07031l.69275-5.64197c.00513-.02753.01733-.052.03772-.07135.01935-.01935.04279-.0285.07031-.0285h3.73889c.02856,0,.052.00916.07135.0285s.02649.04382.02039.07135l-.09985.80988ZM54.98071,155.94745c-.00409.02032-.01422.03766-.0285.05298-.01428.01422-.03259.02136-.05298.02136h-.34436c-.00812,0-.01526.00305-.0224.00916-.0061.00714-.00916.01428-.00916.02246l-.18134,1.48944c-.00409.02136-.00616.04993-.00616.08759,0,.08765.01935.14874.05908.1814.03973.03357.09784.04889.17218.04376h.04382c.02142,0,.03772.00818.04993.0224.01324.01428.01733.03265.01324.05298l-.07538.61334c-.00409.02136-.01324.0387-.02856.05298-.01422.01526-.03156.0224-.05298.0224h-.24451c-.26691,0-.46863-.04077-.60614-.12225-.13855-.08148-.20685-.23431-.20685-.45947,0-.02954.00409-.08148.01227-.15686l.22516-1.8277c0-.02039-.00818-.03162-.02448-.03162h-.20068c-.02039,0-.03772-.00714-.04993-.02136-.01221-.01532-.01733-.03265-.01221-.05298l.05603-.46967c.00403-.02142.01324-.03876.0285-.05402.01428-.01428.03156-.02136.05298-.02136h.19971c.02136,0,.03156-.01019.03156-.03162l.08759-.69482c.00409-.02032.01324-.0387.02856-.05298.01428-.01422.03156-.02136.05298-.02136h.68256c.02039,0,.03772.00714.04993.02136.01221.01428.0163.03265.01221.05298l-.08759.69482c0,.02142.01019.03162.03156.03162h.33826c.02039,0,.03668.00708.04993.02136.01221.01526.0163.03259.01221.05402l-.05603.46967ZM55.23035,239.91962c-.01227-.01428-.0163-.03162-.01227-.05298l.08154-.63165c0-.03363.01221-.06519.03766-.09375.12939-.15485.2608-.30463.39429-.45129.42175-.47986.72028-.83643.89551-1.06976.29547-.40955.44421-.74774.44421-1.01471,0-.10797-.02344-.19153-.06927-.25061-.04584-.05804-.10803-.08759-.1875-.08759-.09576,0-.17621.0387-.24146.11615-.06415.07739-.10083.17621-.10901.29749l-.03156.25671c-.00409.02039-.01428.0387-.03156.05298-.01636.01526-.03467.0224-.05609.0224h-.71924c-.02136,0-.03772-.00714-.0509-.0224-.01227-.01428-.01636-.03259-.01227-.05298l.03772-.29443c.05804-.34229.21088-.61633.45642-.82318.24652-.20679.54297-.30969.8894-.30969.30457,0,.54706.09167.72943.27509.18134.18439.27203.42993.27203.73859,0,.03772-.00409.10291-.01227.19458-.02954.21704-.08966.42279-.18237.61639-.09167.19354-.2251.40546-.40033.63568-.19153.24146-.42383.51245-.69482.81299-.04993.06317-.10187.12329-.15588.18237-.05499.05811-.10901.11816-.16302.18134-.00812.00818-.01019.0163-.0061.02448.00409.00916.01019.01324.01837.01324h1.27039c.02142,0,.03772.00714.05096.02136.01221.01428.0163.03265.01221.05298l-.07538.60724c0,.02136-.00818.0387-.02448.05298-.01727.01526-.03564.0224-.05701.0224h-2.24646c-.02136,0-.03766-.00714-.0509-.0224ZM57.95966,317.58447c-.00409.02954-.01837.06116-.04382.09375l-.78851.8833c-.01733.02441-.01532.03766.0061.03766.17523.0163.31482.09985.41974.24963.10388.15076.15588.3382.15588.56335,0,.16302-.00818.31787-.02448.46356-.02954.20068-.05707.35657-.08148.46967-.07135.30054-.21399.53687-.42889.71008-.21497.17322-.48291.25977-.80487.25977-.33313,0-.59393-.09167-.78241-.27502-.18744-.18341-.271-.42792-.24963-.73254,0-.07538.00818-.19659.02448-.36267.00812-.05096.03564-.07538.08148-.07538h.70703c.05505,0,.07745.02441.06927.07538-.01221.09167-.01935.18134-.01935.26898,0,.10797.02344.1925.06927.25366.04584.06012.11108.09064.19458.09064.07849,0,.14874-.02954.20886-.08759.06116-.05908.10596-.13757.13452-.2384.01324-.06213.03766-.21295.07538-.45032.02136-.19659.02954-.35046.02545-.4635-.00409-.09174-.02954-.1651-.07538-.21906-.04584-.05402-.10596-.08154-.18134-.08154-.06317,0-.12738.02753-.19458.08154-.02448.01733-.04181.02545-.04993.02545-.02039,0-.03772-.01019-.04993-.03156l-.31891-.38208c-.00916-.00812-.01324-.0224-.01324-.04376,0-.02448.00916-.0459.02551-.06219l.84454-.93317c.01733-.02448.01324-.03772-.01221-.03772h-1.09521c-.02136,0-.03772-.00714-.04993-.02136-.01221-.01428-.01733-.03265-.01221-.05298l.07434-.60114c.00409-.02136.01428-.0387.02856-.05298.01422-.01526.03259-.0224.05298-.0224h2.09052c.02142,0,.03772.00714.04993.0224.01324.01428.01733.03162.01324.05298l-.07538.62555Z" fill="url(#uuid-f0310b40-19b4-48fd-8d47-f5e9d6f8766e)"/>
    <path d="M24.35876,24.63037c.30566,0,.5542-.09778.74371-.29236.18744-.19458.2832-.45337.2832-.77631v-1.83588c0-.32294-.09369-.58276-.27911-.7804-.1875-.19763-.43604-.29645-.7478-.29645-.30566,0-.55219.09882-.73761.29645-.18744.19763-.28119.45746-.28119.7804v1.83588c0,.32294.09375.58173.28119.77631.18542.19458.43195.29236.73761.29236Z" fill="#29292a"/>
    <path d="M8.38458,355.52179h-.95154c-.01123,0-.02039.00409-.02856.01227-.00812.00812-.01324.01831-.01324.02954l-.1579,1.302c-.01117.02747,0,.04175.03363.04175h.9505c.25067,0,.45337-.06012.60925-.17932.15588-.12018.24756-.28827.27612-.50531l.00812-.09985c0-.18945-.06213-.33722-.18744-.44318-.12531-.10492-.30463-.1579-.53894-.1579Z" fill="#181818"/>
    <path d="M29.99976,320.48175c2.15778,0,3.91418-1.75635,3.91418-3.91412s-1.75641-3.91418-3.91418-3.91418-3.91412,1.75641-3.91412,3.91418,1.75635,3.91412,3.91412,3.91412Z" fill="#1a1a1a"/>
    <path d="M18.19952,355.95172c-.01117.00305-.01935.01221-.02545.02856l-1.01776,2.4787c-.0061.03357.00305.0509.02441.0509h1.42737c.0285,0,.04175-.01733.04175-.0509l-.42584-2.4787c-.00513-.02142-.01324-.03162-.02448-.02856Z" fill="#181818"/>
    <path d="M36.45172,23.70428c.03467,0,.0448-.01727.03467-.0509l-.75189-2.4787c-.0061-.02142-.01428-.03162-.02448-.02856-.01221.00311-.02032.01227-.02441.02856l-.7356,2.4787c-.0061.03363.00616.0509.03259.0509h1.46912Z" fill="#29292a"/>
    <path d="M29.99976,157.83588c2.15778,0,3.91418-1.75641,3.91418-3.91418s-1.75641-3.91412-3.91418-3.91412-3.91412,1.75635-3.91412,3.91412,1.75635,3.91418,3.91412,3.91418Z" fill="#222223"/>
    <circle cx="15.21397" cy="90.34236" r="13.30733" transform="translate(-10.92433 2.53578) rotate(-7.01812)" fill="#262626"/>
    <circle cx="15.21397" cy="252.98827" r="13.30733" transform="translate(-57.71769 10.26311) rotate(-13.2825)" fill="#1d1d1e"/>
    <path d="M29.99976,76.51294c2.15778,0,3.91418-1.75641,3.91418-3.91418s-1.75641-3.91418-3.91418-3.91418-3.91412,1.75641-3.91412,3.91418,1.75635,3.91418,3.91412,3.91418Z" fill="#272727"/>
    <path d="M29.99976,239.15881c2.15778,0,3.91418-1.75635,3.91418-3.91412s-1.75641-3.91418-3.91418-3.91418-3.91412,1.75635-3.91412,3.91418,1.75635,3.91412,3.91412,3.91412Z" fill="#1e1e1f"/>
    <circle cx="15.21397" cy="171.6653" r="13.30733" transform="translate(-20.86064 3.14509) rotate(-7.01812)" fill="#222"/>
    <path d="M48.00714,239.23499c.11719,0,.21399-.04077.29138-.12225.07745-.08154.12427-.18848.14062-.32196l.25671-2.07831c.00409-.01733.0061-.04175.0061-.07538,0-.1131-.02954-.20276-.08759-.26898-.05811-.0672-.13757-.10083-.23743-.10083-.11304,0-.20782.04071-.28522.12225-.07745.08148-.12433.18945-.14062.32294l-.25671,2.07831c-.00409.0163-.0061.04077-.0061.0744,0,.1131.0285.2027.08759.26892.05811.06726.1355.10089.23126.10089Z" fill="#1e1e1f"/>
    <path d="M40.32446,355.45459c-.29547,0-.54608.09882-.75189.29645s-.32806.4574-.36676.7804l-.22516,1.83582c-.0061.03973-.00812.09784-.00812.17523,0,.27307.07739.49005.23328.651.15588.16199.36676.24249.6347.24249.30054,0,.55219-.09778.75494-.29242.2027-.19458.32703-.45331.37183-.77631l.22516-1.83582c.00513-.03876.00818-.0968.00818-.17523,0-.27814-.07849-.49817-.23334-.65918-.15588-.16095-.37085-.24243-.64282-.24243Z" fill="#181818"/>
    <path d="M48.38922,317.59058c-.1131,0-.20782.04077-.28528.12225-.07745.08154-.12427.18951-.14056.323l-.25677,2.07831c-.00409.0163-.0061.04071-.0061.07434,0,.1131.0285.20276.08765.26898.05804.06726.1355.10083.23126.10083.11713,0,.21393-.04071.29132-.12225.07745-.08148.12433-.18848.14062-.3219l.25671-2.07831c.00409-.01733.0061-.04181.0061-.07544,0-.11304-.02954-.2027-.08759-.26892-.05811-.06726-.13757-.10089-.23737-.10089Z" fill="#1a1a1a"/>
    <path d="M48.94037,157.91266c.11713,0,.21393-.04077.29138-.12225.07739-.08148.12427-.18848.14056-.32196l.25677-2.07831c.00403-.01727.0061-.04175.0061-.07538,0-.1131-.02954-.20276-.08765-.26898-.05804-.0672-.13751-.10083-.23737-.10083-.1131,0-.20782.04077-.28528.12225-.07739.08148-.12427.18951-.14056.32294l-.25671,2.07831c-.00409.0163-.00616.04077-.00616.0744,0,.1131.02856.20276.08765.26898.05804.0672.1355.10083.23126.10083Z" fill="#222223"/>
  </g>
</svg>