<?xml version="1.0" encoding="UTF-8" standalone="no"?>
<!-- Created with Inkscape (http://www.inkscape.org/) -->

<svg
   width="20.32mm"
   height="128.5mm"
   viewBox="0 0 20.32 128.5"
   version="1.1"
   id="svg10419"
   inkscape:version="1.2.1 (9c6d41e, 2022-07-14)"
   sodipodi:docname="GOMAII.svg"
   xmlns:inkscape="http://www.inkscape.org/namespaces/inkscape"
   xmlns:sodipodi="http://sodipodi.sourceforge.net/DTD/sodipodi-0.dtd"
   xmlns="http://www.w3.org/2000/svg"
   xmlns:svg="http://www.w3.org/2000/svg">
  <sodipodi:namedview
     id="namedview10421"
     pagecolor="#ffffff"
     bordercolor="#666666"
     borderopacity="1.0"
     inkscape:showpageshadow="2"
     inkscape:pageopacity="0.0"
     inkscape:pagecheckerboard="0"
     inkscape:deskcolor="#d1d1d1"
     inkscape:document-units="mm"
     showgrid="false"
     inkscape:zoom="2.587745"
     inkscape:cx="14.104945"
     inkscape:cy="183.75072"
     inkscape:window-width="1390"
     inkscape:window-height="1205"
     inkscape:window-x="767"
     inkscape:window-y="25"
     inkscape:window-maximized="0"
     inkscape:current-layer="layer1" />
  <defs
     id="defs10416">
    <linearGradient
       id="uuid-1fd2844f-1225-48b8-94c3-9f46fcf4c71e"
       x1="30"
       y1="0"
       x2="30"
       y2="379.99997"
       gradientUnits="userSpaceOnUse"
       gradientTransform="scale(1.0015045)">
      <stop
         offset="0"
         stop-color="#2a2a2b"
         id="stop2" />
      <stop
         offset="1"
         stop-color="#171717"
         id="stop4" />
    </linearGradient>
    <linearGradient
       id="uuid-1fd2844f-1225-48b8-94c3-9f46fcf4c71e-1"
       x1="30"
       y1="0"
       x2="30"
       y2="379.99997"
       gradientUnits="userSpaceOnUse"
       gradientTransform="scale(0.33866667)">
      <stop
         offset="0"
         stop-color="#2a2a2b"
         id="stop2-0" />
      <stop
         offset="1"
         stop-color="#171717"
         id="stop4-1" />
    </linearGradient>
  </defs>
  <g
     inkscape:label="Layer 1"
     inkscape:groupmode="layer"
     id="layer1">
    <rect
       width="20.32"
       height="128.69333"
       fill="url(#uuid-1fd2844f-1225-48b8-94c3-9f46fcf4c71e)"
       stroke-width="0"
       id="rect9"
       x="0"
       y="0"
       style="fill:url(#uuid-1fd2844f-1225-48b8-94c3-9f46fcf4c71e-1)" />
    <g
       id="g32"
       transform="scale(0.33815792)">
      <path
         d="m 9.38604,357.35767 c 0.4177,0.22821 0.62655,0.59599 0.62655,1.1013 0,0.0509 -0.0061,0.13652 -0.01732,0.25877 -0.06622,0.53995 -0.29545,0.94747 -0.6887,1.22254 -0.39223,0.27609 -0.87412,0.41363 -1.44769,0.41363 H 5.75611 c -0.02853,0 -0.04992,-0.009 -0.06724,-0.0295 -0.0163,-0.0194 -0.02241,-0.0428 -0.0163,-0.0703 l 0.69277,-5.64202 c 0.00509,-0.0275 0.01732,-0.052 0.03769,-0.0713 0.01936,-0.0194 0.04279,-0.0285 0.0703,-0.0285 h 2.03655 c 1.15734,0 1.73601,0.43604 1.73601,1.31015 0,0.12735 -0.0051,0.22515 -0.0163,0.29137 -0.06113,0.55116 -0.33925,0.94951 -0.83438,1.19401 -0.03362,0.0163 -0.03668,0.0336 -0.00917,0.0499 z m -0.75492,1.74823 c 0.15893,-0.15282 0.23738,-0.36269 0.23738,-0.62961 0,-0.19459 -0.06215,-0.34537 -0.18746,-0.45132 -0.12531,-0.10493 -0.30156,-0.15791 -0.52977,-0.15791 H 7.14981 c -0.02853,0 -0.04177,0.0132 -0.04177,0.0418 l -0.17523,1.38554 c 0,0.0275 0.01121,0.0418 0.03362,0.0418 h 1.01776 c 0.27303,0 0.488,-0.0764 0.64693,-0.23024 z m -1.22661,-3.57185 c -0.00815,0.008 -0.01324,0.0183 -0.01324,0.0295 l -0.15791,1.302 c -0.01121,0.0275 0,0.0418 0.03362,0.0418 H 8.2175 c 0.25062,0 0.45336,-0.0601 0.60923,-0.17931 0.15587,-0.12022 0.24756,-0.28832 0.27609,-0.50532 l 0.00815,-0.0998 c 0,-0.18949 -0.06215,-0.33722 -0.18746,-0.44317 -0.12531,-0.10493 -0.30462,-0.15791 -0.53894,-0.15791 H 7.43303 c -0.01121,0 -0.02038,0.004 -0.02853,0.0122 z"
         fill="#ffffff"
         stroke-width="0"
         id="path12" />
      <path
         d="m 10.70435,360.32436 c -0.0163,-0.0194 -0.02241,-0.0428 -0.0163,-0.0703 l 0.69277,-5.64202 c 0.0051,-0.0275 0.01732,-0.052 0.03769,-0.0713 0.01936,-0.0194 0.04279,-0.0285 0.0703,-0.0285 h 0.95154 c 0.02751,0 0.04992,0.009 0.06724,0.0285 0.0163,0.0194 0.02139,0.0438 0.0163,0.0713 l -0.57561,4.69048 c 0,0.0275 0.01121,0.0418 0.03362,0.0418 h 2.64476 c 0.06215,0 0.09271,0.0336 0.09271,0.0998 l -0.10086,0.80993 c -0.0051,0.0275 -0.01732,0.0509 -0.03769,0.0703 -0.01936,0.0204 -0.04279,0.0295 -0.0703,0.0295 h -3.73893 c -0.02853,0 -0.04992,-0.009 -0.06724,-0.0295 z"
         fill="#ffffff"
         stroke-width="0"
         id="path14" />
      <path
         d="m 18.95853,360.27037 -0.14161,-0.81808 c 0,-0.005 -0.0031,-0.0122 -0.0082,-0.0204 -0.0061,-0.008 -0.01426,-0.0132 -0.02547,-0.0132 h -1.99478 c -0.0163,0 -0.03056,0.0122 -0.04177,0.0336 l -0.34129,0.81808 c -0.01732,0.056 -0.05298,0.0835 -0.10901,0.0835 h -1.03508 c -0.03362,0 -0.05705,-0.0112 -0.0703,-0.0336 -0.01426,-0.0224 -0.01324,-0.0499 0.0041,-0.0835 l 2.44508,-5.641 c 0.02751,-0.056 0.06724,-0.0835 0.11716,-0.0835 h 1.26838 c 0.04992,0 0.08354,0.0275 0.09984,0.0835 l 1.05138,5.641 v 0.0255 c 0,0.0275 -0.0082,0.0499 -0.02445,0.0662 -0.01732,0.0173 -0.03871,0.0255 -0.06724,0.0255 h -1.03508 c -0.04992,0 -0.08048,-0.0275 -0.09169,-0.0835 z m -1.77778,-1.76046 h 1.42732 c 0.02853,0 0.04177,-0.0173 0.04177,-0.0509 l -0.42585,-2.4787 c -0.0051,-0.0214 -0.01324,-0.0316 -0.02445,-0.0285 -0.01121,0.003 -0.01936,0.0122 -0.02547,0.0285 l -1.01776,2.4787 c -0.0061,0.0336 0.0031,0.0509 0.02445,0.0509 z"
         fill="#ffffff"
         stroke-width="0"
         id="path16" />
      <path
         d="m 21.32109,359.95353 c -0.33416,-0.31175 -0.50124,-0.72945 -0.50124,-1.25208 0,-0.13346 0.0061,-0.23636 0.01732,-0.30869 l 0.2333,-1.92754 c 0.04992,-0.4014 0.18032,-0.7539 0.39223,-1.06055 0.21089,-0.30563 0.48698,-0.54199 0.82623,-0.70907 0.33925,-0.16708 0.71722,-0.25062 1.13492,-0.25062 0.57867,0 1.0361,0.15078 1.37332,0.4503 0.3362,0.30054 0.5043,0.70194 0.5043,1.20216 0,0.0611 -0.0051,0.15282 -0.0163,0.27507 -0.01121,0.056 -0.04788,0.0866 -0.10901,0.0927 l -0.95052,0.0581 h -0.01732 c -0.05603,0 -0.07743,-0.0306 -0.06622,-0.0917 0.0051,-0.0336 0.0082,-0.0805 0.0082,-0.14263 0,-0.25571 -0.07641,-0.45845 -0.22923,-0.60923 -0.15384,-0.14976 -0.36065,-0.22515 -0.62248,-0.22515 -0.28933,0 -0.53282,0.0907 -0.73047,0.27202 -0.19764,0.18032 -0.31277,0.41566 -0.34639,0.705 l -0.2496,2.01108 c -0.0061,0.0336 -0.0092,0.0805 -0.0092,0.14161 0,0.25062 0.07539,0.45132 0.22617,0.60108 0.14976,0.15078 0.35861,0.22515 0.62553,0.22515 0.28933,0 0.5318,-0.0886 0.72639,-0.26692 0.19459,-0.17829 0.31175,-0.41159 0.35046,-0.70092 0.01121,-0.0611 0.04686,-0.0917 0.10799,-0.0917 l 0.94339,0.0418 c 0.02751,0 0.04992,0.007 0.06724,0.0204 0.0163,0.0143 0.02139,0.0357 0.0163,0.0632 -0.04483,0.38408 -0.17217,0.72334 -0.38408,1.01776 -0.21191,0.29545 -0.48494,0.52365 -0.82216,0.68462 -0.3362,0.16097 -0.71315,0.24247 -1.13085,0.24247 -0.57867,0 -1.03508,-0.15587 -1.36823,-0.46762 z"
         fill="#ffffff"
         stroke-width="0"
         id="path18" />
      <path
         d="m 25.66008,360.32436 c -0.0163,-0.0194 -0.02241,-0.0428 -0.0163,-0.0703 l 0.69277,-5.64202 c 0.0051,-0.0275 0.01732,-0.052 0.03769,-0.0713 0.01936,-0.0194 0.04279,-0.0285 0.0703,-0.0285 h 0.95154 c 0.02751,0 0.04992,0.009 0.06724,0.0285 0.0163,0.0194 0.02139,0.0438 0.0163,0.0713 l -0.28322,2.33709 c -0.0061,0.0163 -0.0031,0.0265 0.0082,0.0285 0.01121,0.003 0.02241,-10e-4 0.03362,-0.0122 l 2.16899,-2.39516 c 0.03362,-0.0387 0.07539,-0.0581 0.12531,-0.0581 h 1.0687 c 0.05501,0 0.08354,0.0194 0.08354,0.0581 0,0.0224 -0.01121,0.0448 -0.03362,0.0662 l -2.09462,2.37886 c -0.02241,0.0224 -0.02853,0.0418 -0.01732,0.0591 l 1.51901,3.1623 c 0.0061,0.0112 0.0092,0.0285 0.0092,0.0499 0,0.0448 -0.02853,0.0672 -0.08354,0.0672 h -1.0687 c -0.05603,0 -0.09169,-0.0224 -0.10799,-0.0672 l -1.14409,-2.40331 c -0.0051,-0.0112 -0.01324,-0.0163 -0.02445,-0.0163 -0.01121,0 -0.02241,0.005 -0.03362,0.0163 l -0.59293,0.65915 -0.02445,0.0499 -0.2007,1.66164 c -0.0051,0.0275 -0.01834,0.0509 -0.03769,0.0703 -0.01936,0.0204 -0.04279,0.0295 -0.0703,0.0295 h -0.95154 c -0.02853,0 -0.04992,-0.009 -0.06724,-0.0295 z"
         fill="#ffffff"
         stroke-width="0"
         id="path20" />
      <path
         d="m 36.31452,354.54073 c 0.01936,-0.0194 0.04279,-0.0285 0.0703,-0.0285 h 0.95154 c 0.02751,0 0.04992,0.009 0.06724,0.0285 0.0163,0.0194 0.02139,0.0438 0.0163,0.0713 l -0.69277,5.64202 c -0.0051,0.0275 -0.01834,0.0509 -0.03769,0.0703 -0.01936,0.0204 -0.04279,0.0295 -0.0703,0.0295 H 35.7002 c -0.04992,0 -0.08252,-0.0224 -0.09984,-0.0672 l -1.66062,-3.57185 c -0.0061,-0.0163 -0.01426,-0.0234 -0.02547,-0.0204 -0.01121,0.003 -0.01936,0.0153 -0.02445,0.0377 l -0.4177,3.52193 c -0.0051,0.0275 -0.01834,0.0509 -0.03769,0.0703 -0.01936,0.0204 -0.04279,0.0295 -0.0703,0.0295 h -0.95154 c -0.02853,0 -0.04992,-0.009 -0.06724,-0.0295 -0.0163,-0.0194 -0.02241,-0.0428 -0.0163,-0.0703 l 0.69277,-5.64202 c 0.0051,-0.0275 0.01732,-0.052 0.03769,-0.0713 0.01936,-0.0194 0.04279,-0.0285 0.0703,-0.0285 h 0.91792 c 0.05094,0 0.0866,0.0214 0.10901,0.0662 l 1.65247,3.55555 c 0.0051,0.0163 0.01426,0.0234 0.02547,0.0204 0.01019,-0.002 0.01936,-0.0153 0.02445,-0.0367 l 0.4177,-3.50563 c 0.0051,-0.0275 0.01732,-0.052 0.03769,-0.0713 z"
         fill="#ffffff"
         stroke-width="0"
         id="path22" />
      <path
         d="m 38.33374,359.9576 c -0.34231,-0.32601 -0.51347,-0.76103 -0.51347,-1.30608 0,-0.0998 0.0082,-0.20885 0.02547,-0.32601 l 0.217,-1.78593 c 0.04992,-0.41159 0.18338,-0.77631 0.40038,-1.09315 0.217,-0.31684 0.49615,-0.56339 0.83846,-0.73862 0.34231,-0.17523 0.72537,-0.26285 1.14817,-0.26285 0.58376,0 1.04731,0.16199 1.38962,0.48392 0.34129,0.32295 0.51245,0.75084 0.51245,1.2857 0,0.10595 -0.0081,0.21394 -0.02445,0.32499 l -0.217,1.78593 c -0.04992,0.4177 -0.18338,0.7865 -0.40038,1.1064 -0.217,0.3199 -0.49818,0.56848 -0.84355,0.74677 -0.34435,0.17829 -0.72843,0.26692 -1.15122,0.26692 -0.57867,0 -1.03916,-0.16301 -1.38147,-0.488 z m 2.2617,-0.81401 c 0.20274,-0.19459 0.32703,-0.45336 0.37186,-0.77631 l 0.22515,-1.83585 c 0.0051,-0.0387 0.0082,-0.0968 0.0082,-0.17523 0,-0.27813 -0.07845,-0.49818 -0.2333,-0.65915 -0.15587,-0.16097 -0.37084,-0.24247 -0.64285,-0.24247 -0.29545,0 -0.54607,0.0988 -0.75186,0.29647 -0.20579,0.19765 -0.32805,0.45743 -0.36676,0.78039 l -0.22515,1.83585 c -0.0061,0.0397 -0.0082,0.0978 -0.0082,0.17523 0,0.27303 0.07743,0.49003 0.2333,0.651 0.15587,0.16199 0.36676,0.24247 0.6347,0.24247 0.30054,0 0.55218,-0.0978 0.75492,-0.29239 z"
         fill="#ffffff"
         stroke-width="0"
         id="path24" />
      <path
         d="m 42.76952,360.32436 c -0.0163,-0.0194 -0.02241,-0.0428 -0.0163,-0.0703 l 0.69277,-5.64202 c 0.0051,-0.0275 0.01732,-0.052 0.03769,-0.0713 0.01936,-0.0194 0.04279,-0.0285 0.0703,-0.0285 h 0.95154 c 0.02751,0 0.04992,0.009 0.06724,0.0285 0.0163,0.0194 0.02139,0.0438 0.0163,0.0713 l -0.69277,5.64202 c -0.0051,0.0275 -0.01834,0.0509 -0.03769,0.0703 -0.01936,0.0204 -0.04279,0.0295 -0.0703,0.0295 h -0.95154 c -0.02853,0 -0.04992,-0.009 -0.06724,-0.0295 z"
         fill="#ffffff"
         stroke-width="0"
         id="path26" />
      <path
         d="m 45.37761,360.0116 c -0.34741,-0.27202 -0.52162,-0.64285 -0.52162,-1.10945 0,-0.0509 0.0061,-0.12531 0.01732,-0.22617 l 0.02445,-0.18338 c 0.0061,-0.0275 0.01834,-0.0509 0.03769,-0.0703 0.01936,-0.0204 0.04279,-0.0295 0.07131,-0.0295 h 0.92607 c 0.02751,0 0.04992,0.009 0.06724,0.0295 0.0163,0.0194 0.02139,0.0428 0.0163,0.0703 l -0.0163,0.12531 c -0.02853,0.22311 0.04788,0.41057 0.22923,0.56339 0.18032,0.15282 0.44113,0.22923 0.78039,0.22923 0.31175,0 0.54607,-0.0693 0.705,-0.20783 0.15893,-0.13957 0.2384,-0.30971 0.2384,-0.50939 0,-0.12225 -0.04075,-0.22515 -0.12124,-0.30869 -0.08049,-0.0835 -0.18949,-0.15791 -0.32601,-0.22108 -0.13652,-0.0642 -0.35148,-0.15486 -0.64693,-0.27202 -0.32194,-0.12225 -0.59497,-0.24247 -0.81706,-0.36269 -0.22311,-0.1192 -0.40955,-0.27915 -0.55931,-0.47985 -0.15078,-0.2007 -0.22515,-0.44826 -0.22515,-0.74269 0,-0.0387 0.0051,-0.10901 0.0163,-0.20885 0.06113,-0.50634 0.29239,-0.90774 0.69277,-1.20624 0.40038,-0.29748 0.89551,-0.44623 1.48539,-0.44623 0.37797,0 0.71315,0.0652 1.00554,0.19663 0.29239,0.1304 0.51754,0.31379 0.67647,0.55014 0.15791,0.23636 0.23738,0.51347 0.23738,0.83031 0,0.0448 -0.0051,0.11716 -0.0163,0.217 l -0.01732,0.12531 c -0.0051,0.0285 -0.01732,0.052 -0.03668,0.0713 -0.02038,0.0194 -0.04381,0.0295 -0.07131,0.0295 h -0.93524 c -0.02751,0 -0.04992,-0.0102 -0.06622,-0.0295 -0.01732,-0.0194 -0.02241,-0.0428 -0.01732,-0.0713 l 0.0092,-0.0662 c 0.02751,-0.23432 -0.04075,-0.43298 -0.20478,-0.59701 -0.16403,-0.16403 -0.41057,-0.24655 -0.73862,-0.24655 -0.27303,0 -0.49003,0.0632 -0.651,0.18847 -0.16097,0.12429 -0.24247,0.29545 -0.24247,0.51245 0,0.12327 0.03973,0.22617 0.11716,0.30971 0.07845,0.0825 0.19357,0.16097 0.34639,0.2333 0.15282,0.0723 0.3851,0.17014 0.69685,0.29239 0.34537,0.13855 0.61331,0.25673 0.80586,0.35454 0.19153,0.0968 0.36574,0.24349 0.52162,0.43808 0.15486,0.19459 0.2333,0.4391 0.2333,0.73454 0,0.0387 -0.0051,0.10799 -0.0163,0.20885 -0.06724,0.52264 -0.30462,0.93524 -0.71417,1.23884 -0.40853,0.3036 -0.93015,0.4554 -1.56485,0.4554 -0.60618,0 -1.08297,-0.13652 -1.43139,-0.40955 z"
         fill="#ffffff"
         stroke-width="0"
         id="path28" />
      <path
         d="m 54.19008,355.49228 c -0.01936,0.0194 -0.04279,0.0295 -0.0703,0.0295 h -2.6631 c -0.01121,0 -0.02038,0.004 -0.02853,0.0122 -0.0082,0.008 -0.01324,0.0183 -0.01324,0.0295 l -0.15791,1.29385 c 0,0.0275 0.01121,0.0418 0.03362,0.0418 h 1.74416 c 0.02751,0 0.04992,0.009 0.06622,0.0285 0.01732,0.0194 0.02241,0.0438 0.01732,0.0713 l -0.10086,0.80891 c -0.0051,0.0285 -0.01834,0.052 -0.03769,0.0713 -0.01935,0.0193 -0.04279,0.0295 -0.0703,0.0295 h -1.74416 c -0.02853,0 -0.04177,0.0132 -0.04177,0.0418 l -0.16708,1.35193 c 0,0.0275 0.01121,0.0418 0.03362,0.0418 h 2.65393 c 0.06113,0 0.09169,0.0336 0.09169,0.0998 l -0.10086,0.80993 c -0.0051,0.0275 -0.01732,0.0509 -0.03668,0.0703 -0.02038,0.0204 -0.04381,0.0295 -0.07131,0.0295 h -3.74708 c -0.02853,0 -0.04992,-0.009 -0.06724,-0.0295 -0.0163,-0.0194 -0.02241,-0.0428 -0.0163,-0.0703 l 0.69277,-5.64202 c 0.0051,-0.0275 0.01732,-0.052 0.03769,-0.0713 0.01936,-0.0194 0.04279,-0.0285 0.0703,-0.0285 h 3.73893 c 0.02853,0 0.05196,0.009 0.07131,0.0285 0.01935,0.0194 0.02649,0.0438 0.02038,0.0713 l -0.09984,0.80993 c -0.0051,0.0275 -0.01834,0.0509 -0.03769,0.0703 z"
         fill="#ffffff"
         stroke-width="0"
         id="path30" />
    </g>
    <g
       id="g46"
       transform="scale(0.33815792)">
      <path
         d="m 18.09121,25.35679 c -0.32805,-0.17319 -0.58274,-0.41363 -0.76409,-0.72232 -0.17931,-0.30869 -0.271,-0.66628 -0.271,-1.07278 v -1.86947 c 0,-0.40548 0.09169,-0.76511 0.271,-1.07583 0.18134,-0.31175 0.43604,-0.55218 0.76409,-0.72232 0.32805,-0.17014 0.70704,-0.2547 1.13492,-0.2547 0.42381,0 0.79669,0.08354 1.1227,0.25062 0.32601,0.16708 0.57867,0.39325 0.76001,0.67953 0.18134,0.2873 0.271,0.60516 0.271,0.95562 v 0.05909 c 0,0.02751 -0.01019,0.05094 -0.02853,0.0703 -0.02038,0.02038 -0.04483,0.02954 -0.07131,0.02954 h -0.97599 c -0.02853,0 -0.05298,-0.0092 -0.07131,-0.02954 -0.02038,-0.01936 -0.03056,-0.04279 -0.03056,-0.0703 v -0.02547 c 0,-0.25571 -0.08762,-0.4717 -0.26692,-0.64693 -0.17727,-0.17523 -0.41363,-0.26285 -0.70907,-0.26285 -0.29952,0 -0.53995,0.09373 -0.7213,0.28017 -0.18135,0.18644 -0.271,0.42993 -0.271,0.73047 v 1.93569 c 0,0.30054 0.0978,0.54403 0.29137,0.73047 0.19561,0.18644 0.44215,0.27915 0.74371,0.27915 0.28933,0 0.51958,-0.07641 0.69277,-0.22923 0.17116,-0.15282 0.25877,-0.36574 0.25877,-0.63878 v -0.37491 c 0,-0.02853 -0.01426,-0.04177 -0.04279,-0.04177 h -0.93524 c -0.02649,0 -0.05094,-0.01019 -0.06928,-0.02954 -0.02038,-0.01936 -0.03056,-0.04279 -0.03056,-0.07131 v -0.76714 c 0,-0.02751 0.01019,-0.05196 0.03056,-0.07131 0.01834,-0.01936 0.04279,-0.02954 0.06928,-0.02954 h 2.03757 c 0.02649,0 0.05094,0.01019 0.07131,0.02954 0.01834,0.01936 0.02853,0.04381 0.02853,0.07131 v 1.1013 c 0,0.42279 -0.08965,0.79058 -0.26692,1.1013 -0.17931,0.31175 -0.42993,0.55014 -0.75594,0.71417 -0.32601,0.16403 -0.70296,0.24655 -1.13085,0.24655 -0.42789,0 -0.80688,-0.0866 -1.13492,-0.25877 z"
         fill="#ffffff"
         stroke-width="0"
         id="path34" />
      <path
         d="M 23.21162,25.37309 C 22.8795,25.1948 22.62276,24.94622 22.43938,24.62632 22.256,24.30642 22.16431,23.93762 22.16431,23.51992 v -1.78593 c 0,-0.41159 0.09169,-0.77631 0.27507,-1.09315 0.18338,-0.31684 0.44011,-0.56339 0.77224,-0.73862 0.33009,-0.17523 0.71315,-0.26285 1.14715,-0.26285 0.44011,0 0.82521,0.08762 1.1553,0.26285 0.33212,0.17523 0.58886,0.42178 0.77224,0.73862 0.18338,0.31684 0.27507,0.68157 0.27507,1.09315 v 1.78593 c 0,0.4177 -0.09169,0.78752 -0.27507,1.11047 -0.18338,0.32295 -0.44011,0.57154 -0.77224,0.74677 -0.33009,0.17523 -0.71519,0.26285 -1.1553,0.26285 -0.434,0 -0.81706,-0.08863 -1.14715,-0.26692 z m 1.89086,-1.03508 c 0.18746,-0.19459 0.28322,-0.45336 0.28322,-0.77631 v -1.83585 c 0,-0.32295 -0.09373,-0.58274 -0.27915,-0.78039 -0.18746,-0.19764 -0.43604,-0.29647 -0.74779,-0.29647 -0.30563,0 -0.55218,0.09882 -0.7376,0.29647 -0.18746,0.19764 -0.28118,0.45743 -0.28118,0.78039 v 1.83585 c 0,0.32295 0.09373,0.58173 0.28118,0.77631 0.18542,0.19459 0.43196,0.29239 0.7376,0.29239 0.30564,0 0.55422,-0.0978 0.74371,-0.29239 z"
         fill="#ffffff"
         stroke-width="0"
         id="path36" />
      <path
         d="m 31.33743,19.70662 h 0.97599 c 0.02853,0 0.05094,0.0092 0.07131,0.02853 0.01834,0.01936 0.02853,0.04381 0.02853,0.07131 v 5.64202 c 0,0.02751 -0.01019,0.05094 -0.02853,0.0703 -0.02038,0.02038 -0.04279,0.02954 -0.07131,0.02954 h -0.97599 c -0.02853,0 -0.05298,-0.0092 -0.07131,-0.02954 -0.02038,-0.01936 -0.03056,-0.04279 -0.03056,-0.0703 v -3.68086 c 0,-0.02241 -0.0041,-0.03362 -0.0163,-0.03362 -0.01019,0 -0.02241,0.0081 -0.0326,0.02547 l -0.8843,1.38554 c -0.02853,0.04381 -0.06724,0.06622 -0.11818,0.06622 h -0.49105 c -0.05094,0 -0.08965,-0.02241 -0.11818,-0.06622 l -0.8843,-1.38554 c -0.01019,-0.01732 -0.02241,-0.02343 -0.0326,-0.02139 -0.01223,0.0031 -0.0163,0.01528 -0.0163,0.03769 v 3.67271 c 0,0.02751 -0.01019,0.05094 -0.03056,0.0703 -0.01834,0.02038 -0.04279,0.02954 -0.07131,0.02954 h -0.97599 c -0.02649,0 -0.05094,-0.0092 -0.07131,-0.02954 -0.01834,-0.01936 -0.02853,-0.04279 -0.02853,-0.0703 v -5.64202 c 0,-0.02751 0.01019,-0.05196 0.02853,-0.07131 0.02038,-0.01936 0.04483,-0.02853 0.07131,-0.02853 h 0.97599 c 0.05094,0 0.08965,0.02139 0.11818,0.06622 l 1.25107,1.94486 c 0.0163,0.03362 0.03464,0.03362 0.05094,0 l 1.25922,-1.94486 c 0.02853,-0.04483 0.06724,-0.06622 0.11818,-0.06622 z"
         fill="#ffffff"
         stroke-width="0"
         id="path38" />
      <path
         d="M 37.0365,25.46478 36.78588,24.6467 c -0.01019,-0.02139 -0.02445,-0.03362 -0.04075,-0.03362 h -2.05387 c -0.0163,0 -0.03056,0.01223 -0.04075,0.03362 l -0.24247,0.81808 c -0.0163,0.05603 -0.05298,0.08354 -0.10799,0.08354 h -1.06157 c -0.0326,0 -0.05705,-0.0092 -0.07335,-0.02954 -0.01834,-0.01936 -0.02038,-0.04788 -0.01019,-0.08762 l 1.80325,-5.641 c 0.0163,-0.05603 0.05298,-0.08354 0.10799,-0.08354 h 1.31015 c 0.05705,0 0.09373,0.02751 0.11003,0.08354 l 1.80121,5.641 c 0.0061,0.01121 0.01019,0.02547 0.01019,0.04177 0,0.04992 -0.03056,0.07539 -0.09169,0.07539 H 37.1445 c -0.05501,0 -0.09169,-0.02751 -0.10799,-0.08354 z m -2.05386,-1.76046 h 1.46909 c 0.03464,0 0.04483,-0.01732 0.03464,-0.05094 l -0.75186,-2.4787 c -0.0061,-0.02139 -0.01426,-0.03158 -0.02445,-0.02853 -0.01223,0.0031 -0.02038,0.01223 -0.02445,0.02853 l -0.73556,2.4787 c -0.0061,0.03362 0.0061,0.05094 0.0326,0.05094 z"
         fill="#ffffff"
         stroke-width="0"
         id="path40" />
      <path
         d="m 41.07903,25.54832 h -0.58682 v -4.45004 h 0.58682 z"
         fill="#ffffff"
         stroke-width="0"
         id="path42" />
      <path
         d="M 42.7804,25.54832 H 42.19358 V 21.09828 H 42.7804 Z"
         fill="#ffffff"
         stroke-width="0"
         id="path44" />
    </g>
    <path
       d="m 13.321038,17.550105 h -0.352776 v 0.205671 c 0,1.960691 -0.67679,3.868649 -1.900573,5.397021 -0.265014,-0.17572 -0.581875,-0.279332 -0.923026,-0.279332 -0.9243173,0 -1.6763839,0.752063 -1.6763839,1.676384 0,0.453051 0.1823314,0.863233 0.475423,1.165238 l -0.9033043,1.084753 0.2707833,0.225998 0.902185,-1.083417 c 0.2665632,0.178885 0.5867852,0.283812 0.9312969,0.283812 0.344336,0 0.664386,-0.104883 0.930952,-0.283616 l 1.387388,1.683854 0.270783,-0.225998 -1.388422,-1.685058 c 0.293264,-0.302049 0.47568,-0.71236 0.47568,-1.165563 0,-0.456432 -0.184486,-0.869907 -0.481452,-1.172515 1.276062,-1.59157 1.981446,-3.579151 1.981446,-5.621557 v -0.205671 z m -3.176378,8.323352 c -0.7296706,0 -1.3236044,-0.593934 -1.3236044,-1.323605 0,-0.72967 0.5939338,-1.323604 1.3236044,-1.323604 0.72967,0 1.323604,0.593934 1.323604,1.323604 0,0.729671 -0.593934,1.323605 -1.323604,1.323605 z"
       fill="#ffffff"
       stroke-width="0"
       id="path48" />
    <path
       d="m 5.1447278,26.049995 c 2.4852917,0 4.4999824,2.014691 4.4999824,4.499983 0,2.485291 -2.0146907,4.500026 -4.4999824,4.500026 -2.4852916,0 -4.49998238,-2.014735 -4.49998238,-4.500026 0,-2.485292 2.01469078,-4.499983 4.49998238,-4.499983 m 0,-0.35278 c -2.6758064,0 -4.85276225,2.176956 -4.85276225,4.852763 0,2.675806 2.17695585,4.852803 4.85276225,4.852803 2.6758065,0 4.8527623,-2.176956 4.8527623,-4.852803 0,-2.675847 -2.1769558,-4.852763 -4.8527623,-4.852763 z"
       fill="#ffffff"
       stroke-width="0"
       id="path50" />
    <rect
       x="5.44486"
       y="14.173569"
       width="4.4999824"
       height="0.3527765"
       fill="#ffffff"
       stroke-width="0"
       id="rect52" />
    <path
       d="M 4.5149358,10.961176 H 3.9272004 v 0.587732 H 3.6626155 V 10.961176 H 3.074542 v -0.264585 h 0.5880735 v -0.587732 h 0.2645849 v 0.587732 h 0.5877354 z"
       fill="#ffffff"
       stroke-width="0"
       id="path54" />
    <path
       d="M 4.2857492,21.400818 H 3.2790937 V 21.136233 H 4.2857492 Z M 4.3946158,20.293567 H 3.9147122 v 0.4799 H 3.6501273 v -0.4799 H 3.1698856 v -0.264585 h 0.4802417 v -0.480073 h 0.2645849 v 0.480073 h 0.4799036 z"
       fill="#ffffff"
       stroke-width="0"
       id="path56" />
    <g
       id="g62"
       transform="scale(0.33815792)">
      <path
         d="m 4.11519,75.96621 c -0.00509,0.07743 -0.01121,0.1518 -0.01936,0.22311 -0.02038,0.16606 -0.04381,0.2985 -0.06826,0.39427 -0.05501,0.32092 -0.19459,0.57154 -0.41974,0.75084 -0.22515,0.1793 -0.51143,0.26896 -0.85782,0.26896 -0.32499,0 -0.57663,-0.08354 -0.7539,-0.25062 -0.17727,-0.16606 -0.2659,-0.41464 -0.2659,-0.74473 l 0.00611,-0.17523 c 0.00815,-0.04992 0.03566,-0.07539 0.0815,-0.07539 h 0.70704 c 0.04585,0 0.06928,0.02547 0.06928,0.07539 v 0.10086 c 0.01223,0.20783 0.09577,0.31277 0.2496,0.31277 0.07947,0 0.14874,-0.02853 0.20681,-0.08456 C 3.10862,76.70483 3.15243,76.6274 3.18197,76.52654 3.20744,76.41855 3.22578,76.30343 3.238,76.18219 3.25124,76.10374 3.25736,75.99677 3.25736,75.86331 3.24513,75.6677 3.15956,75.56888 3.00063,75.56888 c -0.15893,0 -0.26692,0.07335 -0.32601,0.21904 C 2.65424,75.83478 2.6247,75.8572 2.587,75.8572 H 1.87385 c -0.04585,0 -0.06928,-0.02547 -0.06928,-0.07539 l 0.31379,-2.53473 c 0.00408,-0.02139 0.01324,-0.03871 0.02751,-0.05298 0.01528,-0.01528 0.0326,-0.02241 0.054,-0.02241 h 2.14658 c 0.02038,0 0.03769,0.0071 0.04992,0.02241 0.01223,0.01426 0.0163,0.03158 0.01223,0.05298 L 4.33423,73.85427 C 4.33015,73.87465 4.31997,73.89298 4.3057,73.90725 4.29144,73.92253 4.2731,73.92966 4.25272,73.92966 H 2.91913 c -0.02038,0 -0.03158,0.01019 -0.03158,0.03056 l -0.13142,1.0524 c 0,0.01223 0.00306,0.02038 0.01019,0.02445 0.00611,0.0041 0.01528,0 0.02751,-0.01223 0.07539,-0.07131 0.16199,-0.12531 0.25979,-0.16301 0.0978,-0.0377 0.19968,-0.05603 0.3036,-0.05603 0.25877,0 0.45641,0.08762 0.59191,0.26285 0.1355,0.17523 0.19255,0.41872 0.17217,0.7325 0,0.03362 -0.00204,0.08863 -0.00611,0.16504 z"
         fill="#ffffff"
         stroke-width="0"
         id="path58" />
      <path
         d="M 5.08507,77.4842 4.73461,73.25319 v -0.01223 c 0,-0.04585 0.02445,-0.06928 0.07437,-0.06928 h 0.78243 c 0.04585,0 0.06928,0.02343 0.06928,0.06928 l 0.0815,2.75377 c 0,0.01732 0.00509,0.02547 0.01528,0.02547 0.01019,0 0.01732,-0.0082 0.02241,-0.02547 l 0.74473,-2.75377 c 0.01223,-0.04585 0.04177,-0.06928 0.08762,-0.06928 h 0.75696 c 0.04992,0 0.06724,0.02751 0.04992,0.0815 L 6.02338,77.48419 C 6.01115,77.53105 5.98161,77.55347 5.93576,77.55347 H 5.15333 c -0.04585,0 -0.06826,-0.02241 -0.06826,-0.06928 z"
         fill="#ffffff"
         stroke-width="0"
         id="path60" />
    </g>
    <g
       id="g70"
       transform="scale(0.33815792)"
       style="fill:#b3b3b3">
      <path
         d="m 53.53711,73.65015 c -0.01426,0.01528 -0.03158,0.02241 -0.05298,0.02241 h -1.27042 c -0.02139,0 -0.03158,0.01019 -0.03158,0.03056 l -0.12531,0.98924 c 0,0.02139 0.0092,0.03158 0.02547,0.03158 h 0.7325 c 0.02038,0 0.03769,0.0071 0.04992,0.02139 0.01223,0.01528 0.0163,0.0326 0.01223,0.054 l -0.07437,0.60719 c -0.0051,0.02038 -0.01426,0.03769 -0.02853,0.05298 -0.01528,0.01426 -0.0326,0.02139 -0.05298,0.02139 h -0.72639 c -0.02547,0 -0.03769,0.01121 -0.03769,0.03158 l -0.1192,0.99535 c -0.0082,0.02038 0,0.03158 0.02547,0.03158 h 1.26431 c 0.02038,0 0.03871,0.0071 0.05298,0.02139 0.01528,0.01426 0.02038,0.0326 0.0163,0.05298 l -0.07539,0.60719 c -0.0041,0.02139 -0.01324,0.03871 -0.02853,0.05298 -0.01426,0.01528 -0.0326,0.02241 -0.05298,0.02241 h -2.08443 c -0.02139,0 -0.03769,-0.0071 -0.04992,-0.02241 -0.01223,-0.01426 -0.01732,-0.03158 -0.01223,-0.05298 l 0.51958,-4.23101 c 0.0041,-0.02139 0.01324,-0.03871 0.02751,-0.05298 0.01528,-0.01528 0.0326,-0.02241 0.05298,-0.02241 h 2.08443 c 0.02139,0 0.03769,0.0071 0.05094,0.02241 0.01223,0.01426 0.0163,0.03158 0.01223,0.05298 l -0.07539,0.60719 c -0.0041,0.02038 -0.01324,0.03871 -0.02853,0.05298 z"
         fill="#ffffff"
         stroke-width="0"
         id="path64"
         style="fill:#b3b3b3" />
      <path
         d="m 53.37818,77.27396 c -0.0092,-0.01426 -0.0041,-0.03566 0.01223,-0.0652 l 0.87615,-1.5027 0.0061,-0.03668 -0.51347,-1.5027 -0.0061,-0.02547 c 0,-0.04075 0.02547,-0.06215 0.07539,-0.06215 h 0.77631 c 0.04177,0 0.06826,0.01834 0.0815,0.05603 l 0.20579,0.70805 c 0.01324,0.02445 0.02547,0.02445 0.03769,0 l 0.38204,-0.70805 c 0.02139,-0.03769 0.05196,-0.05603 0.09373,-0.05603 h 0.7702 c 0.02954,0 0.04788,0.0071 0.05603,0.02139 0.0082,0.01528 0.0041,0.03668 -0.01223,0.06622 l -0.87615,1.5027 c -0.0041,0.01223 -0.0041,0.02445 0,0.03668 l 0.50634,1.5027 0.0071,0.02547 c 0,0.04177 -0.02547,0.06215 -0.07539,0.06215 h -0.7702 c -0.04177,0 -0.06622,-0.01834 -0.07539,-0.05603 l -0.21191,-0.7325 c -0.0092,-0.03362 -0.01936,-0.03362 -0.03158,0 l -0.38816,0.7325 c -0.01732,0.03769 -0.04788,0.05603 -0.09373,0.05603 h -0.77631 c -0.02954,0 -0.04788,-0.0071 -0.05603,-0.02241 z"
         fill="#ffffff"
         stroke-width="0"
         id="path66"
         style="fill:#b3b3b3" />
      <path
         d="m 57.89343,74.67708 c -0.01426,0.01426 -0.0326,0.02139 -0.05298,0.02139 H 57.4961 c -0.0082,0 -0.01528,0.0031 -0.02241,0.0092 -0.0061,0.0071 -0.0092,0.01426 -0.0092,0.02241 l -0.18134,1.48946 c -0.0041,0.02139 -0.0061,0.04992 -0.0061,0.08762 0,0.08762 0.01936,0.14874 0.05909,0.18134 0.03973,0.03362 0.0978,0.0489 0.17217,0.04381 h 0.04381 c 0.02139,0 0.03769,0.0082 0.04992,0.02241 0.01324,0.01426 0.01732,0.0326 0.01324,0.05298 l -0.07539,0.61331 c -0.0041,0.02139 -0.01324,0.03871 -0.02853,0.05298 -0.01426,0.01528 -0.03158,0.02241 -0.05298,0.02241 h -0.24451 c -0.26692,0 -0.46864,-0.04075 -0.60618,-0.12225 -0.13855,-0.0815 -0.20681,-0.23432 -0.20681,-0.45947 0,-0.02954 0.0041,-0.0815 0.01223,-0.15689 l 0.22515,-1.8277 c 0,-0.02038 -0.0082,-0.03158 -0.02445,-0.03158 h -0.2007 c -0.02038,0 -0.03769,-0.0071 -0.04992,-0.02139 -0.01223,-0.01528 -0.01732,-0.0326 -0.01223,-0.05298 l 0.05603,-0.46966 c 0.0041,-0.02139 0.01324,-0.03871 0.02853,-0.054 0.01426,-0.01426 0.03158,-0.02139 0.05298,-0.02139 h 0.19968 c 0.02139,0 0.03158,-0.01019 0.03158,-0.03158 l 0.08762,-0.69481 c 0.0041,-0.02038 0.01324,-0.03871 0.02853,-0.05298 0.01426,-0.01426 0.03158,-0.02139 0.05298,-0.02139 h 0.68258 c 0.02038,0 0.03769,0.0071 0.04992,0.02139 0.01223,0.01426 0.0163,0.0326 0.01223,0.05298 L 57.546,74.04751 c 0,0.02139 0.01019,0.03158 0.03158,0.03158 h 0.33824 c 0.02038,0 0.03668,0.0071 0.04992,0.02139 0.01223,0.01528 0.0163,0.0326 0.01223,0.054 l -0.05603,0.46966 c -0.0041,0.02038 -0.01426,0.03769 -0.02853,0.05298 z"
         fill="#ffffff"
         stroke-width="0"
         id="path68"
         style="fill:#b3b3b3" />
    </g>
    <path
       d="m 13.321038,45.050108 h -0.352776 v 0.205671 c 0,1.960691 -0.67679,3.868649 -1.900573,5.397021 -0.265014,-0.17572 -0.581875,-0.279332 -0.923026,-0.279332 -0.9243173,0 -1.6763839,0.752063 -1.6763839,1.676384 0,0.453051 0.1823314,0.863233 0.475423,1.165238 l -0.9033043,1.084753 0.2707833,0.225998 0.902185,-1.083417 c 0.2665632,0.178885 0.5867852,0.283812 0.9312969,0.283812 0.344336,0 0.664386,-0.104883 0.930952,-0.283616 l 1.393525,1.656081 0.270784,-0.225998 -1.394557,-1.657285 c 0.293264,-0.302049 0.47568,-0.71236 0.47568,-1.165563 0,-0.456432 -0.184485,-0.869907 -0.481452,-1.172515 1.276063,-1.59157 1.981446,-3.579151 1.981446,-5.621557 v -0.205671 z m -3.176378,8.323348 c -0.7296706,0 -1.3236044,-0.593934 -1.3236044,-1.323604 0,-0.72967 0.5939338,-1.323604 1.3236044,-1.323604 0.72967,0 1.323604,0.593934 1.323604,1.323604 0,0.72967 -0.593934,1.323604 -1.323604,1.323604 z"
       fill="#ffffff"
       stroke-width="0"
       id="path72" />
    <path
       d="m 5.1447278,53.549995 c 2.4852917,0 4.4999824,2.014691 4.4999824,4.499982 0,2.485292 -2.0146907,4.500027 -4.4999824,4.500027 -2.4852916,0 -4.49998238,-2.014735 -4.49998238,-4.500027 0,-2.485291 2.01469078,-4.499982 4.49998238,-4.499982 m 0,-0.35278 c -2.6758064,0 -4.85276225,2.176956 -4.85276225,4.852762 0,2.675807 2.17695585,4.852803 4.85276225,4.852803 2.6758065,0 4.8527623,-2.176956 4.8527623,-4.852803 0,-2.675847 -2.1769558,-4.852762 -4.8527623,-4.852762 z"
       fill="#ffffff"
       stroke-width="0"
       id="path74" />
    <rect
       x="5.44486"
       y="41.673569"
       width="4.4999824"
       height="0.3527765"
       fill="#ffffff"
       stroke-width="0"
       id="rect76" />
    <path
       d="M 4.5149358,38.461176 H 3.9272004 v 0.587732 H 3.6626155 V 38.461176 H 3.074542 v -0.264585 h 0.5880735 v -0.587732 h 0.2645849 v 0.587732 h 0.5877354 z"
       fill="#ffffff"
       stroke-width="0"
       id="path78" />
    <path
       d="M 4.2857492,48.900817 H 3.2790937 v -0.264585 h 1.0066555 z m 0.1088666,-1.10725 H 3.9147122 v 0.4799 H 3.6501273 v -0.4799 H 3.1698856 v -0.264585 h 0.4802417 v -0.480073 h 0.2645849 v 0.480073 h 0.4799036 z"
       fill="#ffffff"
       stroke-width="0"
       id="path80" />
    <g
       id="g86"
       transform="scale(0.33815792)">
      <path
         d="m 4.11519,157.28916 c -0.00509,0.0774 -0.01121,0.1518 -0.01936,0.22311 -0.02038,0.16606 -0.04381,0.2985 -0.06826,0.39427 -0.05501,0.32092 -0.19459,0.57154 -0.41974,0.75084 -0.22515,0.1793 -0.51143,0.26896 -0.85782,0.26896 -0.32499,0 -0.57663,-0.0835 -0.7539,-0.25062 -0.17727,-0.16606 -0.2659,-0.41464 -0.2659,-0.74473 l 0.00611,-0.17523 c 0.00815,-0.0499 0.03566,-0.0754 0.0815,-0.0754 h 0.70704 c 0.04585,0 0.06928,0.0255 0.06928,0.0754 v 0.10086 c 0.01223,0.20783 0.09577,0.31277 0.2496,0.31277 0.07947,0 0.14874,-0.0285 0.20681,-0.0846 0.05807,-0.0571 0.10188,-0.13448 0.13142,-0.23534 0.02547,-0.10799 0.04381,-0.22311 0.05603,-0.34435 0.01324,-0.0785 0.01936,-0.18542 0.01936,-0.31888 -0.01223,-0.19561 -0.0978,-0.29443 -0.25673,-0.29443 -0.15893,0 -0.26692,0.0734 -0.32601,0.21904 -0.02038,0.0469 -0.04992,0.0693 -0.08762,0.0693 H 1.87385 c -0.04585,0 -0.06928,-0.0255 -0.06928,-0.0754 L 2.11836,154.57 c 0.00408,-0.0214 0.01324,-0.0387 0.02751,-0.053 0.01528,-0.0153 0.0326,-0.0224 0.054,-0.0224 h 2.14658 c 0.02038,0 0.03769,0.007 0.04992,0.0224 0.01223,0.0143 0.0163,0.0316 0.01223,0.053 l -0.07437,0.60719 c -0.00408,0.0204 -0.01426,0.0387 -0.02853,0.053 -0.01426,0.0153 -0.0326,0.0224 -0.05298,0.0224 H 2.91913 c -0.02038,0 -0.03158,0.0102 -0.03158,0.0306 l -0.13142,1.0524 c 0,0.0122 0.00306,0.0204 0.01019,0.0245 0.00611,0.004 0.01528,0 0.02751,-0.0122 0.07539,-0.0713 0.16199,-0.12531 0.25979,-0.16301 0.0978,-0.0377 0.19968,-0.056 0.3036,-0.056 0.25877,0 0.45641,0.0876 0.59191,0.26285 0.1355,0.17523 0.19255,0.41872 0.17217,0.7325 0,0.0336 -0.00204,0.0886 -0.00611,0.16504 z"
         fill="#ffffff"
         stroke-width="0"
         id="path82" />
      <path
         d="m 5.08507,158.80715 -0.35046,-4.23101 v -0.0122 c 0,-0.0459 0.02445,-0.0693 0.07437,-0.0693 h 0.78243 c 0.04585,0 0.06928,0.0234 0.06928,0.0693 l 0.0815,2.75377 c 0,0.0173 0.00509,0.0255 0.01528,0.0255 0.01019,0 0.01732,-0.008 0.02241,-0.0255 l 0.74473,-2.75377 c 0.01223,-0.0459 0.04177,-0.0693 0.08762,-0.0693 h 0.75696 c 0.04992,0 0.06724,0.0275 0.04992,0.0815 l -1.39573,4.23101 c -0.01223,0.0469 -0.04177,0.0693 -0.08762,0.0693 H 5.15333 c -0.04585,0 -0.06826,-0.0224 -0.06826,-0.0693 z"
         fill="#ffffff"
         stroke-width="0"
         id="path84" />
    </g>
    <path
       d="m 13.321038,72.550108 h -0.352776 v 0.205671 c 0,1.96069 -0.67679,3.868648 -1.900573,5.397021 -0.265014,-0.175721 -0.581875,-0.279332 -0.923026,-0.279332 -0.9243173,0 -1.6763839,0.752063 -1.6763839,1.676384 0,0.45305 0.1823314,0.863232 0.475423,1.165238 l -0.9033043,1.084753 0.2707833,0.225998 0.902185,-1.083418 c 0.2665632,0.178886 0.5867852,0.283813 0.9312969,0.283813 0.344336,0 0.664386,-0.104883 0.930952,-0.283617 l 1.397357,1.672709 0.270783,-0.225998 -1.398391,-1.673916 c 0.293264,-0.302049 0.47568,-0.71236 0.47568,-1.165562 0,-0.456432 -0.184486,-0.869908 -0.481452,-1.172516 1.276062,-1.59157 1.981446,-3.579151 1.981446,-5.621557 z m -3.176378,8.323348 c -0.7296706,0 -1.3236044,-0.593934 -1.3236044,-1.323604 0,-0.729671 0.5939338,-1.323605 1.3236044,-1.323605 0.72967,0 1.323604,0.593934 1.323604,1.323605 0,0.72967 -0.593934,1.323604 -1.323604,1.323604 z"
       fill="#ffffff"
       stroke-width="0"
       id="path88" />
    <path
       d="m 5.1447278,81.049995 c 2.4852917,0 4.4999824,2.01469 4.4999824,4.499982 0,2.485292 -2.0146907,4.500026 -4.4999824,4.500026 -2.4852916,0 -4.49998238,-2.014734 -4.49998238,-4.500026 0,-2.485292 2.01469078,-4.499982 4.49998238,-4.499982 m 0,-0.35278 c -2.6758064,0 -4.85276225,2.176956 -4.85276225,4.852762 0,2.675806 2.17695585,4.852803 4.85276225,4.852803 2.6758065,0 4.8527623,-2.176956 4.8527623,-4.852803 0,-2.675847 -2.1769558,-4.852762 -4.8527623,-4.852762 z"
       fill="#ffffff"
       stroke-width="0"
       id="path90" />
    <rect
       x="5.44486"
       y="69.173569"
       width="4.4999824"
       height="0.3527765"
       fill="#ffffff"
       stroke-width="0"
       id="rect92" />
    <path
       d="M 4.5149358,65.961175 H 3.9272004 v 0.587732 H 3.6626155 V 65.961175 H 3.074542 V 65.69659 h 0.5880735 v -0.587732 h 0.2645849 v 0.587732 h 0.5877354 z"
       fill="#ffffff"
       stroke-width="0"
       id="path94" />
    <path
       d="M 4.2857492,76.400817 H 3.2790937 V 76.136232 H 4.2857492 Z M 4.3946158,75.293566 H 3.9147122 v 0.4799 H 3.6501273 v -0.4799 H 3.1698856 v -0.264585 h 0.4802417 v -0.480072 h 0.2645849 v 0.480072 h 0.4799036 z"
       fill="#ffffff"
       stroke-width="0"
       id="path96" />
    <g
       id="g102"
       transform="scale(0.33815792)">
      <path
         d="m 4.11519,238.61211 c -0.00509,0.0774 -0.01121,0.1518 -0.01936,0.22311 -0.02038,0.16606 -0.04381,0.2985 -0.06826,0.39427 -0.05501,0.32092 -0.19459,0.57154 -0.41974,0.75084 -0.22515,0.1793 -0.51143,0.26896 -0.85782,0.26896 -0.32499,0 -0.57663,-0.0835 -0.7539,-0.25062 -0.17727,-0.16606 -0.2659,-0.41464 -0.2659,-0.74473 l 0.00611,-0.17523 c 0.00815,-0.0499 0.03566,-0.0754 0.0815,-0.0754 h 0.70704 c 0.04585,0 0.06928,0.0255 0.06928,0.0754 v 0.10086 c 0.01223,0.20783 0.09577,0.31277 0.2496,0.31277 0.07947,0 0.14874,-0.0285 0.20681,-0.0846 0.05807,-0.0571 0.10188,-0.13448 0.13142,-0.23534 0.02547,-0.10799 0.04381,-0.22311 0.05603,-0.34435 0.01324,-0.0785 0.01936,-0.18542 0.01936,-0.31888 -0.01223,-0.19561 -0.0978,-0.29443 -0.25673,-0.29443 -0.15893,0 -0.26692,0.0734 -0.32601,0.21904 -0.02038,0.0469 -0.04992,0.0693 -0.08762,0.0693 H 1.87385 c -0.04585,0 -0.06928,-0.0255 -0.06928,-0.0754 l 0.31379,-2.53473 c 0.00408,-0.0214 0.01324,-0.0387 0.02751,-0.053 0.01528,-0.0153 0.0326,-0.0224 0.054,-0.0224 h 2.14658 c 0.02038,0 0.03769,0.007 0.04992,0.0224 0.01223,0.0143 0.0163,0.0316 0.01223,0.053 l -0.07437,0.60719 c -0.00408,0.0204 -0.01426,0.0387 -0.02853,0.053 -0.01426,0.0153 -0.0326,0.0224 -0.05298,0.0224 H 2.91913 c -0.02038,0 -0.03158,0.0102 -0.03158,0.0306 l -0.13142,1.0524 c 0,0.0122 0.00306,0.0204 0.01019,0.0245 0.00611,0.004 0.01528,0 0.02751,-0.0122 0.07539,-0.0713 0.16199,-0.12531 0.25979,-0.16301 0.0978,-0.0377 0.19968,-0.056 0.3036,-0.056 0.25877,0 0.45641,0.0876 0.59191,0.26285 0.1355,0.17523 0.19255,0.41872 0.17217,0.7325 0,0.0336 -0.00204,0.0886 -0.00611,0.16504 z"
         fill="#ffffff"
         stroke-width="0"
         id="path98" />
      <path
         d="m 5.08507,240.1301 -0.35046,-4.23101 v -0.0122 c 0,-0.0459 0.02445,-0.0693 0.07437,-0.0693 h 0.78243 c 0.04585,0 0.06928,0.0234 0.06928,0.0693 l 0.0815,2.75377 c 0,0.0173 0.00509,0.0255 0.01528,0.0255 0.01019,0 0.01732,-0.008 0.02241,-0.0255 l 0.74473,-2.75377 c 0.01223,-0.0459 0.04177,-0.0693 0.08762,-0.0693 h 0.75696 c 0.04992,0 0.06724,0.0275 0.04992,0.0815 l -1.39573,4.23101 c -0.01223,0.0469 -0.04177,0.0693 -0.08762,0.0693 H 5.15333 c -0.04585,0 -0.06826,-0.0224 -0.06826,-0.0693 z"
         fill="#ffffff"
         stroke-width="0"
         id="path100" />
    </g>
    <path
       d="m 13.321038,100.05011 h -0.352776 v 0.20567 c 0,1.96069 -0.67679,3.86865 -1.900573,5.39702 -0.265014,-0.17572 -0.581875,-0.27933 -0.923026,-0.27933 -0.9243173,0 -1.6763839,0.75206 -1.6763839,1.67638 0,0.45305 0.1823314,0.86323 0.475423,1.16524 l -0.9033043,1.08475 0.2707833,0.226 0.902185,-1.08342 c 0.2665632,0.17889 0.5867852,0.28382 0.9312969,0.28382 0.344336,0 0.664386,-0.10489 0.930952,-0.28362 l 1.451952,1.73447 0.270784,-0.226 -1.452984,-1.73568 c 0.293264,-0.30205 0.47568,-0.71236 0.47568,-1.16556 0,-0.45643 -0.184485,-0.86991 -0.481452,-1.17251 1.276063,-1.59157 1.981446,-3.57916 1.981446,-5.62156 v -0.20567 z m -3.176378,8.32335 c -0.7296706,0 -1.3236044,-0.59394 -1.3236044,-1.32361 0,-0.72967 0.5939338,-1.3236 1.3236044,-1.3236 0.72967,0 1.323604,0.59393 1.323604,1.3236 0,0.72967 -0.593934,1.32361 -1.323604,1.32361 z"
       fill="#ffffff"
       stroke-width="0"
       id="path104" />
    <path
       d="m 5.1447278,108.54999 c 2.4852917,0 4.4999824,2.0147 4.4999824,4.49999 0,2.48529 -2.0146907,4.50002 -4.4999824,4.50002 -2.4852916,0 -4.49998238,-2.01473 -4.49998238,-4.50002 0,-2.48529 2.01469078,-4.49999 4.49998238,-4.49999 m 0,-0.35278 c -2.6758064,0 -4.85276225,2.17696 -4.85276225,4.85277 0,2.6758 2.17695585,4.8528 4.85276225,4.8528 2.6758065,0 4.8527623,-2.17696 4.8527623,-4.8528 0,-2.67585 -2.1769558,-4.85277 -4.8527623,-4.85277 z"
       fill="#ffffff"
       stroke-width="0"
       id="path106" />
    <rect
       x="5.44486"
       y="96.673569"
       width="4.4999824"
       height="0.3527765"
       fill="#ffffff"
       stroke-width="0"
       id="rect108" />
    <path
       d="M 4.5149358,93.461175 H 3.9272004 v 0.587732 H 3.6626155 V 93.461175 H 3.074542 V 93.19659 h 0.5880735 v -0.587732 h 0.2645849 v 0.587732 h 0.5877354 z"
       fill="#ffffff"
       stroke-width="0"
       id="path110" />
    <path
       d="M 4.2857492,103.90082 H 3.2790937 v -0.26458 h 1.0066555 z m 0.1088666,-1.10725 H 3.9147122 v 0.4799 H 3.6501273 v -0.4799 H 3.1698856 v -0.26459 h 0.4802417 v -0.48007 h 0.2645849 v 0.48007 h 0.4799036 z"
       fill="#ffffff"
       stroke-width="0"
       id="path112" />
    <g
       id="g118"
       transform="scale(0.33815792)">
      <path
         d="m 4.11519,319.93506 c -0.00509,0.0774 -0.01121,0.1518 -0.01936,0.22311 -0.02038,0.16606 -0.04381,0.2985 -0.06826,0.39427 -0.05501,0.32092 -0.19459,0.57154 -0.41974,0.75084 -0.22515,0.1793 -0.51143,0.26896 -0.85782,0.26896 -0.32499,0 -0.57663,-0.0835 -0.7539,-0.25062 -0.17727,-0.16606 -0.2659,-0.41464 -0.2659,-0.74473 l 0.00611,-0.17523 c 0.00815,-0.0499 0.03566,-0.0754 0.0815,-0.0754 h 0.70704 c 0.04585,0 0.06928,0.0255 0.06928,0.0754 v 0.10086 c 0.01223,0.20783 0.09577,0.31277 0.2496,0.31277 0.07947,0 0.14874,-0.0285 0.20681,-0.0846 0.05807,-0.0571 0.10188,-0.13448 0.13142,-0.23534 0.02547,-0.10799 0.04381,-0.22311 0.05603,-0.34435 0.01324,-0.0785 0.01936,-0.18542 0.01936,-0.31888 -0.01223,-0.19561 -0.0978,-0.29443 -0.25673,-0.29443 -0.15893,0 -0.26692,0.0734 -0.32601,0.21904 -0.02038,0.0469 -0.04992,0.0693 -0.08762,0.0693 H 1.87385 c -0.04585,0 -0.06928,-0.0255 -0.06928,-0.0754 l 0.31379,-2.53473 c 0.00408,-0.0214 0.01324,-0.0387 0.02751,-0.053 0.01528,-0.0153 0.0326,-0.0224 0.054,-0.0224 h 2.14658 c 0.02038,0 0.03769,0.007 0.04992,0.0224 0.01223,0.0143 0.0163,0.0316 0.01223,0.053 l -0.07437,0.60719 c -0.00408,0.0204 -0.01426,0.0387 -0.02853,0.053 -0.01426,0.0153 -0.0326,0.0224 -0.05298,0.0224 H 2.91913 c -0.02038,0 -0.03158,0.0102 -0.03158,0.0306 l -0.13142,1.0524 c 0,0.0122 0.00306,0.0204 0.01019,0.0245 0.00611,0.004 0.01528,0 0.02751,-0.0122 0.07539,-0.0713 0.16199,-0.12531 0.25979,-0.16301 0.0978,-0.0377 0.19968,-0.056 0.3036,-0.056 0.25877,0 0.45641,0.0876 0.59191,0.26285 0.1355,0.17523 0.19255,0.41872 0.17217,0.7325 0,0.0336 -0.00204,0.0886 -0.00611,0.16504 z"
         fill="#ffffff"
         stroke-width="0"
         id="path114" />
      <path
         d="m 5.08507,321.45305 -0.35046,-4.23101 v -0.0122 c 0,-0.0459 0.02445,-0.0693 0.07437,-0.0693 h 0.78243 c 0.04585,0 0.06928,0.0234 0.06928,0.0693 l 0.0815,2.75377 c 0,0.0173 0.00509,0.0255 0.01528,0.0255 0.01019,0 0.01732,-0.008 0.02241,-0.0255 l 0.74473,-2.75377 c 0.01223,-0.0459 0.04177,-0.0693 0.08762,-0.0693 h 0.75696 c 0.04992,0 0.06724,0.0275 0.04992,0.0815 l -1.39573,4.23101 c -0.01223,0.0469 -0.04177,0.0693 -0.08762,0.0693 H 5.15333 c -0.04585,0 -0.06826,-0.0224 -0.06826,-0.0693 z"
         fill="#ffffff"
         stroke-width="0"
         id="path116" />
    </g>
    <g
       id="g128"
       transform="scale(0.33815792)">
      <path
         d="m 48.05504,158.3915 c -0.19459,-0.18542 -0.29137,-0.4391 -0.29137,-0.76103 0,-0.0418 0.0041,-0.10799 0.01223,-0.19968 l 0.24451,-2.00293 c 0.04585,-0.37593 0.19357,-0.67647 0.44419,-0.90162 0.25062,-0.22515 0.56135,-0.33824 0.93321,-0.33824 0.33722,0 0.60414,0.0927 0.80076,0.27813 0.19663,0.18644 0.29443,0.44011 0.29443,0.76103 0,0.0418 -0.0041,0.10901 -0.01223,0.2007 l -0.24451,2.00293 c -0.04585,0.37491 -0.19561,0.67545 -0.44725,0.9006 -0.25266,0.22617 -0.56441,0.33824 -0.93626,0.33824 -0.33824,0 -0.60414,-0.0927 -0.79771,-0.27813 z m 1.17669,-0.60108 c 0.07743,-0.0815 0.12429,-0.18847 0.14059,-0.32194 l 0.25673,-2.07832 c 0.0041,-0.0173 0.0061,-0.0418 0.0061,-0.0754 0,-0.11308 -0.02954,-0.20274 -0.08762,-0.26896 -0.05807,-0.0672 -0.13754,-0.10086 -0.23738,-0.10086 -0.11308,0 -0.20783,0.0408 -0.28526,0.12225 -0.07743,0.0815 -0.12429,0.18949 -0.14059,0.32295 l -0.25673,2.07832 c -0.0041,0.0163 -0.0061,0.0408 -0.0061,0.0744 0,0.11308 0.02853,0.20274 0.08762,0.26896 0.05807,0.0672 0.1355,0.10086 0.23126,0.10086 0.11716,0 0.21394,-0.0407 0.29137,-0.12225 z"
         fill="#ffffff"
         stroke-width="0"
         id="path120" />
      <path
         d="m 52.32985,155.42379 c 0.01426,-0.0143 0.0326,-0.0214 0.05298,-0.0214 H 53.097 c 0.02038,0 0.03769,0.007 0.04992,0.0214 0.01223,0.0153 0.0163,0.0326 0.01223,0.054 l -0.37491,3.06654 c -0.0051,0.0214 -0.01426,0.0387 -0.02853,0.053 -0.01426,0.0153 -0.0326,0.0224 -0.05298,0.0224 h -0.71417 c -0.02038,0 -0.03769,-0.007 -0.04992,-0.0224 -0.01223,-0.0143 -0.0163,-0.0316 -0.01223,-0.053 l 0.01223,-0.10595 c 0.0041,-0.0122 0.002,-0.0214 -0.0061,-0.0255 -0.0082,-0.004 -0.0163,0 -0.02547,0.0132 -0.13346,0.15791 -0.32499,0.23738 -0.57561,0.23738 -0.217,0 -0.39427,-0.0611 -0.5318,-0.1844 -0.13753,-0.12327 -0.20681,-0.31175 -0.20681,-0.56644 0,-0.0377 0.0041,-0.0978 0.01223,-0.18134 l 0.27609,-2.25355 c 0.0041,-0.0214 0.01324,-0.0387 0.02751,-0.054 0.01528,-0.0143 0.0326,-0.0214 0.054,-0.0214 h 0.71315 c 0.02139,0 0.03769,0.007 0.04992,0.0214 0.01324,0.0153 0.01732,0.0326 0.01324,0.054 l -0.25062,2.05896 c -0.0041,0.0214 -0.0061,0.052 -0.0061,0.0937 0,0.0917 0.01936,0.16199 0.05909,0.20987 0.03973,0.0479 0.09678,0.0723 0.17217,0.0723 0.09169,0 0.16708,-0.0357 0.22515,-0.10697 0.05807,-0.0703 0.09577,-0.16606 0.11308,-0.2873 l 0.2496,-2.04062 c 0.0051,-0.0214 0.01426,-0.0387 0.02853,-0.054 z"
         fill="#ffffff"
         stroke-width="0"
         id="path122" />
      <path
         d="m 54.9522,156.00042 c -0.01426,0.0143 -0.0326,0.0214 -0.05298,0.0214 h -0.34435 c -0.0082,0 -0.01528,0.003 -0.02241,0.009 -0.0061,0.007 -0.0092,0.0143 -0.0092,0.0224 l -0.18134,1.48946 c -0.0041,0.0214 -0.0061,0.0499 -0.0061,0.0876 0,0.0876 0.01936,0.14874 0.05909,0.18134 0.03973,0.0336 0.0978,0.0489 0.17217,0.0438 h 0.04381 c 0.02139,0 0.03769,0.008 0.04992,0.0224 0.01324,0.0143 0.01732,0.0326 0.01324,0.053 l -0.07539,0.61331 c -0.0041,0.0214 -0.01324,0.0387 -0.02853,0.053 -0.01426,0.0153 -0.03158,0.0224 -0.05298,0.0224 h -0.24451 c -0.26692,0 -0.46864,-0.0408 -0.60618,-0.12225 -0.13855,-0.0815 -0.20681,-0.23432 -0.20681,-0.45947 0,-0.0295 0.0041,-0.0815 0.01223,-0.15689 l 0.22515,-1.8277 c 0,-0.0204 -0.0082,-0.0316 -0.02445,-0.0316 h -0.2007 c -0.02038,0 -0.03769,-0.007 -0.04992,-0.0214 -0.01223,-0.0153 -0.01732,-0.0326 -0.01223,-0.053 l 0.05603,-0.46966 c 0.0041,-0.0214 0.01324,-0.0387 0.02853,-0.054 0.01426,-0.0143 0.03158,-0.0214 0.05298,-0.0214 h 0.19968 c 0.02139,0 0.03158,-0.0102 0.03158,-0.0316 l 0.08762,-0.69481 c 0.0041,-0.0204 0.01324,-0.0387 0.02853,-0.053 0.01426,-0.0143 0.03158,-0.0214 0.05298,-0.0214 h 0.68258 c 0.02038,0 0.03769,0.007 0.04992,0.0214 0.01223,0.0143 0.0163,0.0326 0.01223,0.053 l -0.08762,0.69481 c 0,0.0214 0.01019,0.0316 0.03158,0.0316 h 0.33824 c 0.02038,0 0.03668,0.007 0.04992,0.0214 0.01223,0.0153 0.0163,0.0326 0.01223,0.054 l -0.05603,0.46966 c -0.0041,0.0204 -0.01426,0.0377 -0.02853,0.053 z"
         fill="#ffffff"
         stroke-width="0"
         id="path124" />
      <path
         d="m 57.21594,154.23792 h 0.73149 c 0.04686,0 0.06928,0.0255 0.06928,0.0754 l -0.51958,4.23101 c -0.0041,0.0214 -0.01324,0.0387 -0.02853,0.053 -0.01426,0.0153 -0.03158,0.0224 -0.05298,0.0224 h -0.71315 c -0.02139,0 -0.03769,-0.007 -0.04992,-0.0224 -0.01324,-0.0143 -0.01732,-0.0316 -0.01324,-0.053 l 0.41974,-3.417 c 0,-0.0173 -0.0082,-0.0255 -0.02547,-0.0255 l -0.47475,0.056 h -0.01324 c -0.04177,0 -0.06215,-0.0224 -0.06215,-0.0683 l 0.04992,-0.53894 c 0.0041,-0.0408 0.02751,-0.0703 0.06928,-0.0876 l 0.51856,-0.20579 c 0.03362,-0.0132 0.0652,-0.0194 0.09475,-0.0194 z"
         fill="#ffffff"
         stroke-width="0"
         id="path126" />
    </g>
    <g
       id="g138"
       transform="scale(0.33815792)">
      <path
         d="m 47.12183,239.71382 c -0.19459,-0.18542 -0.29137,-0.4391 -0.29137,-0.76103 0,-0.0418 0.0041,-0.10799 0.01223,-0.19968 l 0.24451,-2.00293 c 0.04585,-0.37593 0.19357,-0.67647 0.44419,-0.90162 0.25062,-0.22515 0.56135,-0.33824 0.93321,-0.33824 0.33722,0 0.60414,0.0927 0.80076,0.27813 0.19663,0.18644 0.29443,0.44011 0.29443,0.76103 0,0.0418 -0.0041,0.10901 -0.01223,0.2007 l -0.24451,2.00293 c -0.04585,0.37491 -0.19561,0.67545 -0.44725,0.9006 -0.25266,0.22617 -0.56441,0.33824 -0.93626,0.33824 -0.33824,0 -0.60414,-0.0927 -0.79771,-0.27813 z m 1.1767,-0.60108 c 0.07743,-0.0815 0.12429,-0.18847 0.14059,-0.32194 l 0.25673,-2.07832 c 0.0041,-0.0173 0.0061,-0.0418 0.0061,-0.0754 0,-0.11308 -0.02954,-0.20274 -0.08762,-0.26896 -0.05807,-0.0672 -0.13754,-0.10086 -0.23738,-0.10086 -0.11308,0 -0.20783,0.0408 -0.28526,0.12225 -0.07743,0.0815 -0.12429,0.18949 -0.14059,0.32295 l -0.25673,2.07832 c -0.0041,0.0163 -0.0061,0.0408 -0.0061,0.0744 0,0.11308 0.02853,0.20274 0.08762,0.26896 0.05807,0.0672 0.1355,0.10086 0.23126,0.10086 0.11716,0 0.21394,-0.0408 0.29137,-0.12225 z"
         fill="#ffffff"
         stroke-width="0"
         id="path130" />
      <path
         d="m 51.39665,236.7461 c 0.01426,-0.0143 0.0326,-0.0214 0.05298,-0.0214 h 0.71417 c 0.02038,0 0.03769,0.007 0.04992,0.0214 0.01223,0.0153 0.0163,0.0326 0.01223,0.054 l -0.37491,3.06654 c -0.0051,0.0214 -0.01426,0.0387 -0.02853,0.053 -0.01426,0.0153 -0.0326,0.0224 -0.05298,0.0224 h -0.71417 c -0.02038,0 -0.03769,-0.007 -0.04992,-0.0224 -0.01223,-0.0143 -0.0163,-0.0316 -0.01223,-0.053 l 0.01223,-0.10595 c 0.0041,-0.0122 0.002,-0.0214 -0.0061,-0.0255 -0.0082,-0.004 -0.0163,0 -0.02547,0.0132 -0.13346,0.15791 -0.32499,0.23738 -0.57561,0.23738 -0.217,0 -0.39427,-0.0611 -0.5318,-0.1844 -0.13753,-0.12327 -0.20681,-0.31175 -0.20681,-0.56644 0,-0.0377 0.0041,-0.0978 0.01223,-0.18134 l 0.27609,-2.25355 c 0.0041,-0.0214 0.01324,-0.0387 0.02751,-0.054 0.01528,-0.0143 0.0326,-0.0214 0.054,-0.0214 h 0.71315 c 0.02139,0 0.03769,0.007 0.04992,0.0214 0.01324,0.0153 0.01732,0.0326 0.01324,0.054 l -0.25062,2.05896 c -0.0041,0.0214 -0.0061,0.052 -0.0061,0.0937 0,0.0917 0.01936,0.16199 0.05909,0.20987 0.03973,0.0479 0.09678,0.0723 0.17217,0.0723 0.09169,0 0.16708,-0.0357 0.22515,-0.10697 0.05807,-0.0703 0.09577,-0.16606 0.11308,-0.2873 l 0.2496,-2.04062 c 0.0051,-0.0214 0.01426,-0.0387 0.02853,-0.054 z"
         fill="#ffffff"
         stroke-width="0"
         id="path132" />
      <path
         d="m 54.019,237.32274 c -0.01426,0.0143 -0.0326,0.0214 -0.05298,0.0214 h -0.34435 c -0.0082,0 -0.01528,0.003 -0.02241,0.009 -0.0061,0.007 -0.0092,0.0143 -0.0092,0.0224 l -0.18134,1.48946 c -0.0041,0.0214 -0.0061,0.0499 -0.0061,0.0876 0,0.0876 0.01936,0.14874 0.05909,0.18134 0.03973,0.0336 0.0978,0.0489 0.17217,0.0438 h 0.04381 c 0.02139,0 0.03769,0.008 0.04992,0.0224 0.01324,0.0143 0.01732,0.0326 0.01324,0.053 l -0.07539,0.61331 c -0.0041,0.0214 -0.01324,0.0387 -0.02853,0.053 -0.01426,0.0153 -0.03158,0.0224 -0.05298,0.0224 h -0.24451 c -0.26692,0 -0.46864,-0.0407 -0.60618,-0.12225 -0.13855,-0.0815 -0.20681,-0.23432 -0.20681,-0.45947 0,-0.0295 0.0041,-0.0815 0.01223,-0.15689 l 0.22515,-1.8277 c 0,-0.0204 -0.0082,-0.0316 -0.02445,-0.0316 h -0.2007 c -0.02038,0 -0.03769,-0.007 -0.04992,-0.0214 -0.01223,-0.0153 -0.01732,-0.0326 -0.01223,-0.053 l 0.05603,-0.46966 c 0.0041,-0.0214 0.01324,-0.0387 0.02853,-0.054 0.01426,-0.0143 0.03158,-0.0214 0.05298,-0.0214 h 0.19968 c 0.02139,0 0.03158,-0.0102 0.03158,-0.0316 l 0.08762,-0.69481 c 0.0041,-0.0204 0.01324,-0.0387 0.02853,-0.053 0.01426,-0.0143 0.03158,-0.0214 0.05298,-0.0214 h 0.68258 c 0.02038,0 0.03769,0.007 0.04992,0.0214 0.01223,0.0143 0.0163,0.0326 0.01223,0.053 l -0.08762,0.69481 c 0,0.0214 0.01019,0.0316 0.03158,0.0316 h 0.33824 c 0.02038,0 0.03668,0.007 0.04992,0.0214 0.01223,0.0153 0.0163,0.0326 0.01223,0.054 l -0.05603,0.46966 c -0.0041,0.0204 -0.01426,0.0377 -0.02853,0.053 z"
         fill="#ffffff"
         stroke-width="0"
         id="path134" />
      <path
         d="m 56.33265,239.17183 c 0.0041,0.009 0.01019,0.0132 0.01834,0.0132 h 1.27042 c 0.02139,0 0.03769,0.007 0.05094,0.0214 0.01223,0.0143 0.0163,0.0326 0.01223,0.053 l -0.07539,0.60719 c 0,0.0214 -0.0082,0.0387 -0.02445,0.053 -0.01732,0.0153 -0.03566,0.0224 -0.05705,0.0224 h -2.24642 c -0.02139,0 -0.03769,-0.007 -0.05094,-0.0224 -0.01223,-0.0143 -0.0163,-0.0316 -0.01223,-0.053 l 0.0815,-0.63165 c 0,-0.0336 0.01223,-0.0652 0.03769,-0.0937 0.12939,-0.15486 0.26081,-0.30462 0.39427,-0.45132 0.42178,-0.47985 0.72028,-0.83642 0.89551,-1.06972 0.29545,-0.40955 0.44419,-0.74779 0.44419,-1.01471 0,-0.10799 -0.02343,-0.19153 -0.06928,-0.25062 -0.04585,-0.0581 -0.10799,-0.0876 -0.18746,-0.0876 -0.09577,0 -0.17625,0.0387 -0.24145,0.11614 -0.06418,0.0774 -0.10086,0.17625 -0.10901,0.29748 l -0.03158,0.25673 c -0.0041,0.0204 -0.01426,0.0387 -0.03158,0.053 -0.0163,0.0153 -0.03464,0.0224 -0.05603,0.0224 h -0.71926 c -0.02139,0 -0.03769,-0.007 -0.05094,-0.0224 -0.01223,-0.0143 -0.0163,-0.0326 -0.01223,-0.053 l 0.03769,-0.29443 c 0.05807,-0.34231 0.21089,-0.61636 0.45641,-0.82318 0.24655,-0.20681 0.54301,-0.30971 0.8894,-0.30971 0.30462,0 0.54709,0.0917 0.72945,0.27507 0.18134,0.1844 0.27202,0.42993 0.27202,0.73862 0,0.0377 -0.0041,0.1029 -0.01223,0.19459 -0.02954,0.217 -0.08965,0.42279 -0.18236,0.61636 -0.09169,0.19357 -0.22515,0.40548 -0.40038,0.63572 -0.19153,0.24145 -0.42381,0.51245 -0.69481,0.81299 -0.04992,0.0632 -0.10188,0.12327 -0.15587,0.18236 -0.05501,0.0581 -0.10901,0.11818 -0.16301,0.18134 -0.0082,0.008 -0.01019,0.0163 -0.0061,0.0244 z"
         fill="#ffffff"
         stroke-width="0"
         id="path136" />
    </g>
    <g
       id="g148"
       transform="scale(0.33815792)">
      <path
         d="m 47.13406,321.03715 c -0.19459,-0.18542 -0.29137,-0.4391 -0.29137,-0.76103 0,-0.0418 0.0041,-0.10799 0.01223,-0.19968 l 0.24451,-2.00293 c 0.04585,-0.37593 0.19357,-0.67647 0.44419,-0.90162 0.25062,-0.22515 0.56135,-0.33824 0.93321,-0.33824 0.33722,0 0.60414,0.0927 0.80076,0.27813 0.19663,0.18644 0.29443,0.44011 0.29443,0.76103 0,0.0418 -0.0041,0.10901 -0.01223,0.2007 l -0.24451,2.00293 c -0.04585,0.37491 -0.19561,0.67545 -0.44725,0.9006 -0.25266,0.22617 -0.56441,0.33824 -0.93626,0.33824 -0.33824,0 -0.60414,-0.0927 -0.79771,-0.27813 z m 1.17669,-0.60108 c 0.07743,-0.0815 0.12429,-0.18847 0.14059,-0.32194 l 0.25673,-2.07832 c 0.0041,-0.0173 0.0061,-0.0418 0.0061,-0.0754 0,-0.11308 -0.02954,-0.20274 -0.08762,-0.26896 -0.05807,-0.0672 -0.13754,-0.10086 -0.23738,-0.10086 -0.11308,0 -0.20783,0.0408 -0.28526,0.12225 -0.07743,0.0815 -0.12429,0.18949 -0.14059,0.32295 l -0.25673,2.07832 c -0.0041,0.0163 -0.0061,0.0408 -0.0061,0.0744 0,0.11308 0.02853,0.20274 0.08762,0.26896 0.05807,0.0672 0.1355,0.10086 0.23126,0.10086 0.11716,0 0.21394,-0.0408 0.29137,-0.12225 z"
         fill="#ffffff"
         stroke-width="0"
         id="path140" />
      <path
         d="m 51.40887,318.06944 c 0.01426,-0.0143 0.0326,-0.0214 0.05298,-0.0214 h 0.71417 c 0.02038,0 0.03769,0.007 0.04992,0.0214 0.01223,0.0153 0.0163,0.0326 0.01223,0.054 l -0.37491,3.06654 c -0.0051,0.0214 -0.01426,0.0387 -0.02853,0.053 -0.01426,0.0153 -0.0326,0.0224 -0.05298,0.0224 h -0.71417 c -0.02038,0 -0.03769,-0.007 -0.04992,-0.0224 -0.01223,-0.0143 -0.0163,-0.0316 -0.01223,-0.053 l 0.01223,-0.10595 c 0.0041,-0.0122 0.002,-0.0214 -0.0061,-0.0255 -0.0082,-0.004 -0.0163,0 -0.02547,0.0132 -0.13346,0.15791 -0.32499,0.23738 -0.57561,0.23738 -0.217,0 -0.39427,-0.0611 -0.5318,-0.1844 -0.13753,-0.12327 -0.20681,-0.31175 -0.20681,-0.56644 0,-0.0377 0.0041,-0.0978 0.01223,-0.18134 l 0.27609,-2.25355 c 0.0041,-0.0214 0.01324,-0.0387 0.02751,-0.054 0.01528,-0.0143 0.0326,-0.0214 0.054,-0.0214 h 0.71315 c 0.02139,0 0.03769,0.007 0.04992,0.0214 0.01324,0.0153 0.01732,0.0326 0.01324,0.054 l -0.25062,2.05896 c -0.0041,0.0214 -0.0061,0.052 -0.0061,0.0937 0,0.0917 0.01936,0.16199 0.05909,0.20987 0.03973,0.0479 0.09678,0.0723 0.17217,0.0723 0.09169,0 0.16708,-0.0357 0.22515,-0.10697 0.05807,-0.0703 0.09577,-0.16606 0.11308,-0.2873 l 0.2496,-2.04062 c 0.0051,-0.0214 0.01426,-0.0387 0.02853,-0.054 z"
         fill="#ffffff"
         stroke-width="0"
         id="path142" />
      <path
         d="m 54.03122,318.64607 c -0.01426,0.0143 -0.0326,0.0214 -0.05298,0.0214 h -0.34435 c -0.0082,0 -0.01528,0.003 -0.02241,0.009 -0.0061,0.007 -0.0092,0.0143 -0.0092,0.0224 l -0.18134,1.48946 c -0.0041,0.0214 -0.0061,0.0499 -0.0061,0.0876 0,0.0876 0.01936,0.14874 0.05909,0.18134 0.03973,0.0336 0.0978,0.0489 0.17217,0.0438 h 0.04381 c 0.02139,0 0.03769,0.008 0.04992,0.0224 0.01324,0.0143 0.01732,0.0326 0.01324,0.053 l -0.07539,0.61331 c -0.0041,0.0214 -0.01324,0.0387 -0.02853,0.053 -0.01426,0.0153 -0.03158,0.0224 -0.05298,0.0224 h -0.24451 c -0.26692,0 -0.46864,-0.0408 -0.60618,-0.12225 -0.13855,-0.0815 -0.20681,-0.23432 -0.20681,-0.45947 0,-0.0295 0.0041,-0.0815 0.01223,-0.15689 l 0.22515,-1.8277 c 0,-0.0204 -0.0082,-0.0316 -0.02445,-0.0316 h -0.2007 c -0.02038,0 -0.03769,-0.007 -0.04992,-0.0214 -0.01223,-0.0153 -0.01732,-0.0326 -0.01223,-0.053 l 0.05603,-0.46966 c 0.0041,-0.0214 0.01324,-0.0387 0.02853,-0.054 0.01426,-0.0143 0.03158,-0.0214 0.05298,-0.0214 h 0.19968 c 0.02139,0 0.03158,-0.0102 0.03158,-0.0316 l 0.08762,-0.69481 c 0.0041,-0.0204 0.01324,-0.0387 0.02853,-0.053 0.01426,-0.0143 0.03158,-0.0214 0.05298,-0.0214 h 0.68258 c 0.02038,0 0.03769,0.007 0.04992,0.0214 0.01223,0.0143 0.0163,0.0326 0.01223,0.053 l -0.08762,0.69481 c 0,0.0214 0.01019,0.0316 0.03158,0.0316 h 0.33824 c 0.02038,0 0.03668,0.007 0.04992,0.0214 0.01223,0.0153 0.0163,0.0326 0.01223,0.054 l -0.05603,0.46966 c -0.0041,0.0204 -0.01426,0.0377 -0.02853,0.053 z"
         fill="#ffffff"
         stroke-width="0"
         id="path144" />
      <path
         d="m 57.68458,319.87574 c -0.02954,0.2007 -0.05705,0.35657 -0.0815,0.46966 -0.07131,0.30054 -0.21394,0.5369 -0.42891,0.71009 -0.21497,0.17319 -0.4829,0.25979 -0.80484,0.25979 -0.33314,0 -0.59395,-0.0917 -0.78243,-0.27507 -0.18746,-0.18338 -0.271,-0.42789 -0.2496,-0.7325 0,-0.0754 0.0082,-0.19663 0.02445,-0.36269 0.0082,-0.0509 0.03566,-0.0754 0.0815,-0.0754 h 0.70704 c 0.05501,0 0.07743,0.0245 0.06928,0.0754 -0.01223,0.0917 -0.01936,0.18134 -0.01936,0.26896 0,0.10799 0.02343,0.19255 0.06928,0.25368 0.04585,0.0601 0.11105,0.0907 0.19459,0.0907 0.07845,0 0.14874,-0.0295 0.20885,-0.0876 0.06113,-0.0591 0.10595,-0.13754 0.13448,-0.2384 0.01324,-0.0621 0.03769,-0.21293 0.07539,-0.4503 0.02139,-0.19663 0.02954,-0.35046 0.02547,-0.46355 -0.0041,-0.0917 -0.02954,-0.16504 -0.07539,-0.21904 -0.04585,-0.054 -0.10595,-0.0815 -0.18134,-0.0815 -0.06316,0 -0.12735,0.0275 -0.19459,0.0815 -0.02445,0.0173 -0.04177,0.0255 -0.04992,0.0255 -0.02038,0 -0.03769,-0.0102 -0.04992,-0.0316 l -0.31888,-0.38204 c -0.0092,-0.008 -0.01324,-0.0224 -0.01324,-0.0438 0,-0.0245 0.0092,-0.0459 0.02547,-0.0622 l 0.84457,-0.93321 c 0.01732,-0.0245 0.01324,-0.0377 -0.01223,-0.0377 h -1.09519 c -0.02139,0 -0.03769,-0.007 -0.04992,-0.0214 -0.01223,-0.0143 -0.01732,-0.0326 -0.01223,-0.053 l 0.07437,-0.60108 c 0.0041,-0.0214 0.01426,-0.0387 0.02853,-0.053 0.01426,-0.0153 0.0326,-0.0224 0.05298,-0.0224 h 2.09054 c 0.02139,0 0.03769,0.007 0.04992,0.0224 0.01324,0.0143 0.01732,0.0316 0.01324,0.053 l -0.07539,0.62553 c -0.0041,0.0295 -0.01834,0.0611 -0.04381,0.0937 l -0.78854,0.88328 c -0.01732,0.0245 -0.01528,0.0377 0.0061,0.0377 0.17523,0.0163 0.3148,0.0998 0.41974,0.2496 0.10392,0.15078 0.15587,0.33824 0.15587,0.56339 0,0.16301 -0.0082,0.31786 -0.02445,0.46355 z"
         fill="#ffffff"
         stroke-width="0"
         id="path146" />
    </g>
    <path
       d="m 10.116315,23.811042 h 0.255972 c 0.0069,0 0.01309,0.0026 0.01792,0.0074 0.0052,0.005 0.0076,0.01102 0.0076,0.01809 v 1.430922 c 0,0.0071 -0.0024,0.01292 -0.0076,0.01792 -0.0048,0.005 -0.01102,0.0074 -0.01792,0.0074 h -0.2477 c -0.0069,0 -0.01309,-0.0024 -0.01792,-0.0074 -0.0048,-0.005 -0.0076,-0.01085 -0.0076,-0.01792 v -1.15583 c 0,-0.0055 -0.0034,-0.0084 -0.01033,-0.0084 l -0.1629516,0.01912 h -0.00448 c -0.015505,0 -0.023083,-0.0078 -0.023083,-0.02325 l -0.00655,-0.182075 c 0,-0.01412 0.00655,-0.02394 0.019292,-0.02963 l 0.1732896,-0.06993 c 0.01137,-0.0041 0.02205,-0.0064 0.03204,-0.0064 z"
       fill="#ffffff"
       stroke-width="0"
       id="path150" />
    <path
       d="m 10.088583,52.540769 c 0.0014,0.003 0.0045,0.0045 0.0086,0.0045 h 0.442351 c 0.0069,0 0.01309,0.0024 0.01792,0.0072 0.0048,0.0048 0.0076,0.01102 0.0076,0.01792 v 0.205326 c 0,0.0072 -0.0028,0.01309 -0.0076,0.01792 -0.0048,0.0052 -0.01102,0.0076 -0.01792,0.0076 H 9.7564782 c -0.00723,0 -0.01309,-0.0024 -0.018261,-0.0076 -0.00482,-0.0048 -0.00723,-0.01069 -0.00723,-0.01792 v -0.213597 c 0,-0.01275 0.00345,-0.02343 0.010679,-0.03169 0.056154,-0.07476 0.095773,-0.125747 0.1185108,-0.152617 0.1240228,-0.159509 0.212218,-0.280086 0.264585,-0.361734 0.07614,-0.121612 0.114034,-0.223932 0.114034,-0.30696 0,-0.04823 -0.0093,-0.08509 -0.02825,-0.111277 -0.01929,-0.02617 -0.04513,-0.03927 -0.07752,-0.03927 -0.03238,0 -0.05856,0.01309 -0.0782,0.03927 -0.01964,0.02617 -0.02894,0.0596 -0.02756,0.100595 v 0.08682 c 0,0.0069 -0.0024,0.01309 -0.0072,0.01792 -0.0052,0.0052 -0.01102,0.0076 -0.01826,0.0076 H 9.7499348 c -0.00689,0 -0.01309,-0.0024 -0.017916,-0.0076 -0.00482,-0.0048 -0.00758,-0.01102 -0.00758,-0.01792 v -0.09956 c 0.00586,-0.115755 0.047542,-0.208427 0.1250576,-0.278365 0.077516,-0.06994 0.1763906,-0.104731 0.2962776,-0.104731 0.118511,0 0.214284,0.03755 0.286977,0.112309 0.07269,0.07476 0.108867,0.173289 0.108867,0.296278 0,0.07338 -0.01171,0.143314 -0.0348,0.209461 -0.02343,0.06649 -0.06132,0.137458 -0.113344,0.213939 -0.03962,0.05788 -0.107142,0.148141 -0.20326,0.270784 l -0.09956,0.127123 c -0.0028,0.0027 -0.0034,0.0055 -0.0021,0.0083 z"
       fill="#ffffff"
       stroke-width="0"
       id="path152" />
    <path
       d="m 10.547988,79.814426 c 0,0.06201 -0.0028,0.115065 -0.0083,0.15882 -0.01137,0.10163 -0.05064,0.181557 -0.11748,0.240122 -0.06718,0.05857 -0.157098,0.08785 -0.270097,0.08785 -0.117134,0 -0.2122175,-0.03101 -0.2855978,-0.09302 -0.07338,-0.06201 -0.1129988,-0.144694 -0.1185108,-0.2477 -0.00448,-0.03824 -0.00655,-0.07889 -0.00655,-0.122647 0,-0.01721 0.00861,-0.0255 0.025494,-0.0255 h 0.2477006 c 0.01688,0 0.02549,0.0083 0.02549,0.0255 0,0.0324 0.0021,0.0627 0.0062,0.09095 0.0041,0.03652 0.0155,0.06511 0.03376,0.08578 0.0186,0.02032 0.04237,0.03067 0.072,0.03067 0.02825,0 0.05168,-0.01 0.06993,-0.02962 0.01826,-0.01998 0.03032,-0.04651 0.03583,-0.08062 0.0045,-0.04927 0.0065,-0.100253 0.0065,-0.152272 0,-0.06649 -0.0034,-0.118511 -0.01068,-0.156753 -0.0055,-0.0324 -0.01723,-0.05753 -0.0348,-0.0751 -0.01757,-0.01758 -0.03996,-0.02654 -0.06683,-0.02654 -0.02102,0 -0.04237,0.0093 -0.06339,0.02756 -0.0086,0.0059 -0.01412,0.0086 -0.01688,0.0086 -0.0059,0 -0.01206,-0.0035 -0.01929,-0.01069 l -0.1267784,-0.12919 c -0.00586,-0.0055 -0.00861,-0.01207 -0.00861,-0.01894 0,-0.0055 0.00206,-0.01136 0.00655,-0.01687 l 0.2559724,-0.315572 c 0.0028,-0.0027 0.0034,-0.0055 0.0021,-0.0083 -0.0014,-0.0027 -0.0041,-0.0045 -0.0083,-0.0045 H 9.7924785 c -0.00723,0 -0.01309,-0.0024 -0.017916,-0.0072 -0.00517,-0.0048 -0.00758,-0.01102 -0.00758,-0.01792 v -0.20326 c 0,-0.0072 0.0024,-0.01309 0.00758,-0.01792 0.00482,-0.0052 0.010679,-0.0076 0.017916,-0.0076 h 0.7279495 c 0.0072,0 0.01309,0.0024 0.01826,0.0076 0.0048,0.0048 0.0072,0.01069 0.0072,0.01792 v 0.211528 c 0,0.01136 -0.0034,0.02205 -0.01068,0.03169 l -0.237021,0.298688 c -0.0014,0.0027 -0.0021,0.0055 -0.0021,0.0083 0,0.003 0.0014,0.0045 0.0041,0.0045 0.06236,0.0055 0.11472,0.03375 0.157784,0.0844 0.04307,0.05099 0.06959,0.114378 0.07924,0.190514 0.0072,0.05374 0.01068,0.106111 0.01068,0.156753 z"
       fill="#ffffff"
       stroke-width="0"
       id="path154" />
    <path
       d="m 10.619816,107.15681 c 0.0048,0.005 0.0076,0.011 0.0076,0.0179 v 0.21807 c 0,0.007 -0.0027,0.0131 -0.0076,0.0179 -0.0048,0.005 -0.01102,0.008 -0.01792,0.008 h -0.0658 c -0.0069,0 -0.01033,0.003 -0.01033,0.0103 v 0.33865 c 0,0.007 -0.0024,0.0131 -0.0076,0.0179 -0.0048,0.005 -0.01102,0.008 -0.01792,0.008 h -0.247701 c -0.0069,0 -0.01309,-0.002 -0.01791,-0.008 -0.0048,-0.005 -0.0076,-0.0107 -0.0076,-0.0179 v -0.33865 c 0,-0.007 -0.0034,-0.0103 -0.01033,-0.0103 H 9.6875751 c -0.00723,0 -0.01309,-0.003 -0.017916,-0.008 -0.00517,-0.005 -0.00758,-0.011 -0.00758,-0.0179 v -0.17363 c 0,-0.0127 0.00139,-0.0234 0.00414,-0.0317 l 0.2814657,-0.85507 c 0.00448,-0.0141 0.013435,-0.0214 0.02756,-0.0214 h 0.2690622 c 0.0083,0 0.01481,0.002 0.01895,0.008 0.0041,0.005 0.0048,0.0124 0.0021,0.0221 l -0.253903,0.79582 c -0.0014,0.009 0.0014,0.0128 0.0083,0.0128 h 0.197058 c 0.0069,0 0.01033,-0.003 0.01033,-0.0104 v -0.22014 c 0,-0.007 0.0027,-0.0131 0.0076,-0.0183 0.0048,-0.005 0.01102,-0.007 0.01792,-0.007 h 0.247701 c 0.0069,0 0.01309,0.002 0.01792,0.007 0.0052,0.005 0.0076,0.011 0.0076,0.0183 v 0.22014 c 0,0.007 0.0034,0.0104 0.01033,0.0104 h 0.0658 c 0.0069,0 0.01309,0.002 0.01792,0.008 z"
       fill="#ffffff"
       stroke-width="0"
       id="path156" />
  </g>
  <g
     inkscape:groupmode="layer"
     id="layer3"
     inkscape:label="components"
     style="display:none">
    <circle
       cx="5.1858516"
       cy="30.55002"
       r="1.6907896"
       fill="#00ff00"
       stroke-width="0"
       id="circle159"
       style="display:inline"
       inkscape:label="ext" />
    <circle
       cx="15.143415"
       cy="30.55002"
       r="1.6907896"
       fill="#0000ff"
       stroke-width="0"
       id="circle161"
       style="display:inline"
       inkscape:label="ext" />
    <circle
       cx="5.1858516"
       cy="58.050022"
       r="1.6907896"
       fill="#00ff00"
       stroke-width="0"
       id="circle163"
       style="display:inline"
       inkscape:label="ch1" />
    <circle
       cx="15.143415"
       cy="58.050022"
       r="1.6907896"
       fill="#0000ff"
       stroke-width="0"
       id="circle165"
       style="display:inline"
       inkscape:label="ch1" />
    <circle
       cx="5.1858516"
       cy="85.550026"
       r="1.6907896"
       fill="#00ff00"
       stroke-width="0"
       id="circle167"
       style="display:inline"
       inkscape:label="ch2" />
    <circle
       cx="15.143415"
       cy="85.550026"
       r="1.6907896"
       fill="#0000ff"
       stroke-width="0"
       id="circle169"
       style="display:inline"
       inkscape:label="ch2" />
    <circle
       cx="5.1858516"
       cy="113.05002"
       r="1.6907896"
       fill="#00ff00"
       stroke-width="0"
       id="circle171"
       style="display:inline"
       inkscape:label="ch3" />
    <circle
       cx="15.143415"
       cy="113.05002"
       r="1.6907896"
       fill="#0000ff"
       stroke-width="0"
       id="circle173"
       style="display:inline"
       inkscape:label="ch3" />
    <circle
       cx="10.144737"
       cy="107.04985"
       r="1.5807463"
       fill="#ff00ff"
       stroke-width="0"
       id="circle175"
       style="display:inline"
       inkscape:label="ch3" />
    <circle
       cx="10.144737"
       cy="79.54985"
       r="1.5807463"
       fill="#ff00ff"
       stroke-width="0"
       id="circle177"
       style="display:inline"
       inkscape:label="ch2" />
    <circle
       cx="10.144737"
       cy="52.049847"
       r="1.5807463"
       fill="#ff00ff"
       stroke-width="0"
       id="circle179"
       style="display:inline"
       inkscape:label="ch1" />
    <circle
       cx="10.144737"
       cy="24.551912"
       r="1.5807463"
       fill="#ff00ff"
       stroke-width="0"
       id="circle181"
       style="display:inline"
       inkscape:label="ext" />
    <circle
       cx="3.7947953"
       cy="15.549934"
       r="1.6907896"
       fill="#ff0000"
       stroke-width="0"
       id="circle183"
       style="display:inline"
       inkscape:label="mode_ext" />
    <circle
       cx="3.7947953"
       cy="43.049934"
       r="1.6907896"
       fill="#ff0000"
       stroke-width="0"
       id="circle185"
       style="display:inline"
       inkscape:label="mode_ch1" />
    <circle
       cx="3.7947953"
       cy="70.549934"
       r="1.6907896"
       fill="#ff0000"
       stroke-width="0"
       id="circle187"
       style="display:inline"
       inkscape:label="mode_ch2" />
    <circle
       cx="3.7947953"
       cy="98.049927"
       r="1.7638892"
       fill="#ff0000"
       stroke-width="0"
       id="circle189"
       style="display:inline"
       inkscape:label="mode_ch3" />
    <circle
       cx="13.145737"
       cy="14.343878"
       r="1.6907896"
       fill="#ff0000"
       stroke-width="0"
       id="circle191"
       style="display:inline"
       inkscape:label="gain_ext" />
    <circle
       cx="13.145737"
       cy="41.84388"
       r="1.6907896"
       fill="#ff0000"
       stroke-width="0"
       id="circle193"
       style="display:inline"
       inkscape:label="gain_ch1" />
    <circle
       cx="13.145737"
       cy="69.343872"
       r="1.6907896"
       fill="#ff0000"
       stroke-width="0"
       id="circle195"
       style="display:inline"
       inkscape:label="gain_ch2" />
    <circle
       cx="13.145737"
       cy="96.843872"
       r="1.6907896"
       fill="#ff0000"
       stroke-width="0"
       id="circle197"
       style="display:inline"
       inkscape:label="ch3_gain" />
  </g>
</svg>
