<?xml version="1.0" encoding="utf-8"?>
<!-- Generator: Adobe Illustrator 28.7.1, SVG Export Plug-In . SVG Version: 9.03 Build 54978)  -->
<svg version="1.0"
	 id="uuid-a425cf58-f0bc-4f33-8eb0-b6702cf03e57" xmlns:sodipodi="http://sodipodi.sourceforge.net/DTD/sodipodi-0.dtd" xmlns:inkscape="http://www.inkscape.org/namespaces/inkscape" xmlns:svg="http://www.w3.org/2000/svg" inkscape:version="1.3.2 (091e20e, 2023-11-25)"
	 xmlns="http://www.w3.org/2000/svg" xmlns:xlink="http://www.w3.org/1999/xlink" x="0px" y="0px" width="60px"
	 height="379.99945px" viewBox="0 0 60 379.99945" enable-background="new 0 0 60 379.99945" xml:space="preserve">
<sodipodi:namedview  bordercolor="#666666" borderopacity="1.0" id="namedview20" inkscape:current-layer="uuid-a425cf58-f0bc-4f33-8eb0-b6702cf03e57" inkscape:cx="41.750486" inkscape:cy="300.64221" inkscape:deskcolor="#d1d1d1" inkscape:pagecheckerboard="0" inkscape:pageopacity="0.0" inkscape:showpageshadow="2" inkscape:window-height="1212" inkscape:window-maximized="0" inkscape:window-width="1392" inkscape:window-x="0" inkscape:window-y="25" inkscape:zoom="7.7484129" pagecolor="#ffffff">
	</sodipodi:namedview>
<linearGradient id="rect4_00000072271651952126215310000015364307354584672161_" gradientUnits="userSpaceOnUse" x1="29.95437" y1="379.88983" x2="29.95437" y2="-0.11017" gradientTransform="matrix(1 0 0 -1 0.04563 379.77576)">
	<stop  offset="0" style="stop-color:#EBCB86"/>
	<stop  offset="1" style="stop-color:#C1924F"/>
</linearGradient>
<rect id="rect4" y="-0.11407" fill="url(#rect4_00000072271651952126215310000015364307354584672161_)" width="60" height="380"/>
<g id="g20">
	<path id="path4" fill="#272728" d="M10.3949,65.05559c1.13519,0,2.27039-0.43323,3.13654-1.29919
		c1.7323-1.73242,1.7323-4.54096,0-6.27314c-0.86615-0.86621-2.00134-1.2995-3.13654-1.2995
		c-1.13525,0-2.27045,0.43329-3.1366,1.2995c-1.7323,1.73219-1.7323,4.54072,0,6.27314
		C8.12445,64.62237,9.25964,65.05559,10.3949,65.05559z M8.14789,62.19181l0.0871-0.30261
		c0.51501-1.78894,1.96729-3.13885,3.78992-3.52192c0.28064-0.06012,0.55878,0.12024,0.61786,0.40344
		c0.05908,0.28119-0.12122,0.55829-0.40295,0.61737c-1.4436,0.30359-2.5943,1.37231-3.00232,2.79047l-0.0871,0.30255
		c-0.06573,0.22821-0.2746,0.37695-0.50128,0.37695c-0.04736,0-0.09625-0.0061-0.1441-0.02039
		C8.22786,62.75821,8.06844,62.46891,8.14789,62.19181z"/>
	<path id="path5" fill="#1F1F1F" d="M44.77264,219.17805c-2.44989,0-4.43585,1.9859-4.43585,4.43579
		c0,2.44991,1.98596,4.43581,4.43585,4.43581s4.43579-1.98584,4.43579-4.43581
		C49.20844,221.16389,47.22242,219.17805,44.77264,219.17805z M44.36493,223.85054l-1.84167,1.06329
		c-0.18219,0.10516-0.40991-0.02631-0.40991-0.23663v-2.12665c0-0.21033,0.22772-0.3418,0.40991-0.23663l1.84167,1.06329
		C44.54712,223.48238,44.54712,223.74538,44.36493,223.85054z M47.19299,223.85054l-1.84167,1.06329
		c-0.18219,0.10516-0.40991-0.02631-0.40991-0.23663v-2.12665c0-0.21033,0.22772-0.3418,0.40991-0.23663l1.84167,1.06329
		C47.37518,223.48238,47.37518,223.74538,47.19299,223.85054z"/>
	<path id="path6" fill="#1F1F1F" d="M19.61371,223.61385c0-2.44989-1.98596-4.43579-4.43579-4.43579
		s-4.43579,1.9859-4.43579,4.43579c0,2.44991,1.98596,4.43581,4.43579,4.43581S19.61371,226.06381,19.61371,223.61385z
		 M12.20819,223.61409c0-0.19946,0.16144-0.3609,0.36096-0.3609h3.28412v-0.80432c0-0.12207,0.13214-0.19836,0.23792-0.13733
		l1.95709,1.13031c0.13245,0.07648,0.13245,0.26776-0.00006,0.34424l-1.95703,1.13013
		c-0.10577,0.06104-0.23792-0.01526-0.23792-0.13733v-0.80383h-3.28412C12.36963,223.97505,12.20819,223.81361,12.20819,223.61409z"
		/>
	<path id="path7" fill="#1D1D1E" d="M44.72711,251.78656c-2.44983,0-4.43579,1.9859-4.43579,4.43579
		c0,2.44965,1.98596,4.43579,4.43579,4.43579s4.43579-1.98615,4.43579-4.43579
		C49.1629,253.77246,47.17688,251.78656,44.72711,251.78656z M45.71924,256.46936l-1.80566,1.04248
		c-0.19019,0.1098-0.42792-0.02747-0.42792-0.24707v-2.08496c0-0.2196,0.23773-0.35687,0.42792-0.24707l1.80566,1.04248
		C45.90936,256.08502,45.90936,256.35956,45.71924,256.46936z"/>
	<path id="path8" fill="#242425" d="M49.58234,109.61699c-1.13519,0-2.27039,0.43298-3.13654,1.29919
		c-1.7323,1.73225-1.7323,4.54078,0,6.2732c0.86615,0.86622,2.00134,1.29919,3.13654,1.29919s2.27045-0.43298,3.1366-1.29919
		c1.73224-1.73242,1.73224-4.54095,0-6.2732C51.85279,110.04996,50.71754,109.61699,49.58234,109.61699z M51.14899,114.32787
		c-0.03156,0.11792-0.17896,0.15741-0.26532,0.07104l-0.56842-0.56848l-2.3222,2.32233c-0.14105,0.14111-0.36932,0.14111-0.51038,0
		c-0.14111-0.14111-0.14111-0.36932,0-0.51044l2.3222-2.32227l-0.56879-0.56879c-0.08624-0.08618-0.04675-0.23364,0.07117-0.26526
		l2.18311-0.58467c0.14777-0.03943,0.28302,0.09576,0.24341,0.24354l-0.58478,2.18298L51.14899,114.32787z"/>
	<path id="path9" fill="#1D1D1E" d="M15.20081,260.65814c2.44983,0,4.43579-1.98615,4.43579-4.43579
		c0-2.44989-1.98596-4.43579-4.43579-4.43579s-4.43579,1.9859-4.43579,4.43579
		C10.76502,258.672,12.75104,260.65814,15.20081,260.65814z M15.20105,253.64539c1.46765,0,2.6615,1.17792,2.6615,2.62537
		c0,0.60071-0.21429,1.16455-0.58929,1.62769l0.32166,0.65601c0.04297,0.0874-0.0249,0.18854-0.12207,0.18195l-1.96826-0.13336
		c-0.13501-0.00916-0.20953-0.16101-0.13409-0.27338l1.09943-1.63806c0.05426-0.08087,0.17572-0.07269,0.21869,0.01483
		l0.27167,0.55414c0.17529-0.29944,0.27631-0.63605,0.27631-0.98981c0-1.10272-0.91321-1.99945-2.03552-1.99945
		s-2.03552,0.89673-2.03552,1.99945c0,0.17297-0.13995,0.31299-0.31299,0.31299c-0.17297,0-0.31293-0.14001-0.31293-0.31299
		c0-1.44745,1.19379-2.62537,2.66144-2.62537H15.20105z"/>
	<path id="path10" fill="#272728" d="M49.57788,65.03062c1.13513,0,2.27039-0.43323,3.13654-1.29919
		c1.73224-1.73242,1.73224-4.54096,0-6.27314c-0.86615-0.86621-2.0014-1.29944-3.13654-1.29944
		c-1.13525,0-2.27045,0.43323-3.1366,1.29944c-1.7323,1.73219-1.7323,4.54072,0,6.27314
		C47.30743,64.5974,48.44262,65.03062,49.57788,65.03062z M47.4704,58.48446c0.20477-0.20477,0.5343-0.2038,0.7381-0.00208
		l3.48322,3.45979c0.20422,0.20276,0.20526,0.53284,0.00256,0.73761c-0.10242,0.10291-0.23639,0.15387-0.37036,0.15387
		c-0.13293,0-0.26587-0.05096-0.3678-0.15179l-3.48322-3.45984C47.26868,59.01931,47.26764,58.68924,47.4704,58.48446z"/>
	<path id="path11" fill="#252526" d="M31.21466,99.24703c0.16809-0.15588,0.25269-0.37189,0.25269-0.64594
		c0-0.28015-0.07947-0.50018-0.2384-0.66016s-0.4024-0.24042-0.73151-0.24042h-0.98212v1.78082h0.98621
		C30.80817,99.48134,31.04657,99.40291,31.21466,99.24703z"/>
	<path id="path12" fill="#222222" d="M49.75922,162.74939c-1.13519,0-2.27045,0.43329-3.1366,1.29926
		c-1.73224,1.73242-1.73224,4.54095,0,6.27313c0.86615,0.86621,2.0014,1.29944,3.1366,1.29944s2.27039-0.43323,3.13654-1.29944
		c1.7323-1.73218,1.7323-4.54071,0-6.27313C52.02961,163.18268,50.89442,162.74939,49.75922,162.74939z M51.66724,169.38409
		l-2.18311-0.58466c-0.11792-0.03156-0.15747-0.17902-0.07117-0.26538l0.56879-0.56873l-2.32227-2.32208
		c-0.14105-0.14105-0.14105-0.36938,0-0.5105c0.14111-0.14099,0.36938-0.14099,0.51044,0l2.3222,2.32214l0.56842-0.5683
		c0.0863-0.08636,0.23376-0.04675,0.26532,0.07117l0.58478,2.18298C51.9502,169.28845,51.81501,169.42371,51.66724,169.38409z"/>
	<path id="path13" fill="#222223" d="M23.92883,150.96664h-0.98212v1.78084h0.98621c0.30664,0,0.54504-0.07843,0.71313-0.23431
		s0.25269-0.37189,0.25269-0.64594c0-0.28017-0.07947-0.5002-0.2384-0.66017S24.25794,150.96664,23.92883,150.96664z"/>
	<polygon id="polygon13" fill="#202020" points="26.62048,206.86328 28.10382,206.86328 27.35809,204.64233 	"/>
	<g id="g19">
		<path id="path14" fill="#29292A" d="M47.44617,24.51731c0.30548,0,0.55292-0.09778,0.74231-0.29224
			c0.18835-0.19452,0.28308-0.45312,0.28308-0.77588v-1.83484c0-0.32281-0.09265-0.58246-0.27899-0.77997
			s-0.43579-0.29633-0.7464-0.29633c-0.30646,0-0.55286,0.09882-0.73816,0.29633c-0.18738,0.19751-0.28003,0.45715-0.28003,0.77997
			v1.83484c0,0.32275,0.09265,0.58136,0.28003,0.77588C46.89331,24.41953,47.13971,24.51731,47.44617,24.51731z"/>
		
			<linearGradient id="path15_00000178206783850511212280000010956832399199552942_" gradientUnits="userSpaceOnUse" x1="30" y1="380.00391" x2="30" y2="0.0039" gradientTransform="matrix(1 0 0 -1 0 379.88983)">
			<stop  offset="0" style="stop-color:#2A2A2B"/>
			<stop  offset="1" style="stop-color:#171717"/>
		</linearGradient>
		
			<path id="path15" sodipodi:nodetypes="cccccccccccccccccccccccccccccccccccccccccccccccccccccccccccssssssssssssccccccccssssscsccccccccsccsscccccccscscssscsscsssccsccscscssssssssssssscsscsssscsscscccsssssssscsscsscscccccccccccccscsccccssssccscssccccsssscccscccscsscccsccccccccccscscccccccccscscccccccccccsccccccccccccccccccccssccssccscsccsccsscccccssccssccsccsscccccsssssssssssssscsscsssssscsscsscssscccsscsssscccssssccsssssssscsssssssscsscsscsccccsscsscssscccccsccsccsssssssscscscccccscsccscccsccccccccscsccccccccccccccsccsccssccccsssssscssccccsscccssccsccscssscsccccccscsssscccssccsscccsscccsssssssccscscscccscsscccccccscscccsscsssccccsssccscccccssccccssccccccsssscccccccccscssccccccssccccssccccccsscccsccscscsccssscsscccssccccssccccccsscccsscscscccsccscscccssccccscssccccsccsccssccssssccsscccsssccsscccssccccsssccsscccscssscsccsss" fill="url(#path15_00000178206783850511212280000010956832399199552942_)" d="
			M59.97229,365.10025V13.48898H59.9715V-0.11407H0v14.78585h0.00079v351.61127H0.0285v13.60287H60v-14.78568H59.97229z
			 M43.66626,201.34514l-1.10248,1.10248l-1.07654-4.01935l4.01904,1.07684l-1.10242,1.10242l12.71893,12.71992v56.43454
			l-3.78876,3.74298l-0.73663-0.73962l3.48218-3.43732V213.7594l-12.41333-12.41426H43.66626z M38.18365,152.38072v0.95764h-2.34729
			v1.58929h2.75482v0.98212h-3.97736v-5.93343H38.583v0.9903h-2.74664v1.41408H38.18365z M35.21899,203.14268h1.22253v4.95125
			h2.59589v0.98212h-3.81842V203.14268z M38.99817,102.64365v-5.93342h3.96918v0.9903h-2.74664v1.41406H42.568v0.95764h-2.34729
			v1.58929h2.75482v0.98212H38.99817z M44.77264,229.09286c-3.02124,0-5.47906-2.45776-5.47906-5.47902
			c0-3.02124,2.45782-5.479,5.47906-5.479s5.479,2.45782,5.479,5.479C50.25164,226.63504,47.79375,229.09286,44.77264,229.09286z
			 M50.20612,256.22235c0,3.02118-2.45789,5.479-5.479,5.479s-5.479-2.45782-5.479-5.479s2.45789-5.479,5.479-5.479
			S50.20612,253.20117,50.20612,256.22235z M53.63348,171.05939c-1.03485,1.0351-2.41077,1.6051-3.87427,1.6051
			c-1.29724,0-2.51123-0.47021-3.49432-1.29285l-1.84119,1.84145l1.10242,1.1026l-4.01923,1.07635l1.07672-4.01888l1.10248,1.10229
			l1.84698-1.84717c-1.75092-2.14978-1.65027-5.315,0.35187-7.31726c1.03491-1.03485,2.41077-1.60487,3.87427-1.60487
			s2.83936,0.57002,3.87427,1.60487c1.03485,1.03479,1.60474,2.41071,1.60474,3.87415S54.66834,170.02454,53.63348,171.05939z
			 M53.4566,117.92699c-1.03491,1.03479-2.41077,1.6048-3.87427,1.6048c-1.29895,0-2.51434-0.47119-3.49811-1.29559
			l-1.84424,1.84424l1.10254,1.10254l-4.01917,1.0766l1.07666-4.01904l1.10236,1.10229l1.85077-1.85077
			c-1.7478-2.14997-1.64612-5.31257,0.35492-7.31344c1.03479-1.0351,2.41077-1.60486,3.87427-1.60486
			s2.83942,0.56976,3.87427,1.60486c2.13617,2.13612,2.13617,5.61195,0,7.74837V117.92699z M53.4521,64.46903
			c-1.03491,1.03486-2.41077,1.60487-3.87421,1.60487c-1.28503,0-2.48792-0.46185-3.46637-1.26953l-1.84869,1.84906l1.10248,1.10248
			l-4.01917,1.0766l1.07666-4.0191l1.10242,1.10242l1.84814-1.84846c-0.81097-0.97943-1.27454-2.18481-1.27454-3.47247
			c0-1.4635,0.56989-2.83936,1.60474-3.87421c1.03485-1.0351,2.41077-1.6051,3.87433-1.6051
			c1.46344,0,2.83936,0.57001,3.87421,1.6051C55.58833,58.85679,55.58833,62.33263,53.4521,64.46903z M45.25196,21.62247
			c0-0.41138,0.09161-0.77588,0.2749-1.09253c0.18427-0.31665,0.44086-0.56311,0.77179-0.73822s0.71381-0.2627,1.14752-0.2627
			c0.4389,0,0.82379,0.08759,1.15466,0.2627c0.33093,0.17511,0.58856,0.42157,0.77185,0.73822
			c0.18329,0.31665,0.2749,0.68115,0.2749,1.09253v1.78497c0,0.41748-0.09161,0.78705-0.2749,1.10986
			c-0.18329,0.32275-0.44092,0.57123-0.77185,0.74634c-0.33087,0.17511-0.71576,0.2627-1.15466,0.2627
			c-0.43372,0-0.81659-0.08856-1.14752-0.26678c-0.33093-0.17816-0.58752-0.42664-0.77179-0.74634
			c-0.18329-0.3197-0.2749-0.68829-0.2749-1.10577C45.25196,23.40745,45.25196,21.62248,45.25196,21.62247z M40.7066,19.69602
			c0-0.02753,0.0092-0.05194,0.0285-0.07129c0.01934-0.01935,0.04376-0.0285,0.07129-0.0285h3.84583
			c0.02747,0,0.0509,0.0092,0.07025,0.0285c0.01935,0.01934,0.02948,0.04376,0.02948,0.07129v0.80945
			c0,0.02753-0.01013,0.05096-0.02948,0.07031s-0.04279,0.02948-0.07025,0.02948h-2.72784
			c-0.0285,0-0.04175,0.01428-0.04175,0.04175v1.29315c0,0.02753,0.01324,0.04175,0.04175,0.04175h1.79309
			c0.02747,0,0.0509,0.0092,0.07129,0.0285c0.01935,0.01935,0.0285,0.04382,0.0285,0.07129v0.80847
			c0,0.0285-0.0092,0.05194-0.0285,0.07129c-0.02039,0.01935-0.04382,0.02954-0.07129,0.02954h-1.79309
			c-0.0285,0-0.04175,0.01318-0.04175,0.04169v2.30225c0,0.02747-0.01019,0.0509-0.02954,0.07025
			c-0.01935,0.02032-0.04272,0.02954-0.07129,0.02954h-0.9754c-0.02753,0-0.05194-0.0092-0.07129-0.02954
			c-0.01935-0.01935-0.0285-0.04279-0.0285-0.07025C40.70661,25.33494,40.70661,19.69601,40.7066,19.69602z M35.93518,19.69602
			c0-0.02753,0.0092-0.05194,0.02856-0.07129c0.01934-0.01935,0.04376-0.0285,0.07123-0.0285h0.97546
			c0.0285,0,0.05194,0.0092,0.07129,0.0285c0.01935,0.01934,0.02954,0.04376,0.02954,0.07129v4.68788
			c0,0.02753,0.01324,0.04175,0.04175,0.04175h2.72778c0.02753,0,0.0509,0.0092,0.07025,0.0285
			c0.01935,0.02039,0.02954,0.04382,0.02954,0.07129v0.80951c0,0.02747-0.01019,0.0509-0.02954,0.07025
			c-0.01935,0.02032-0.04272,0.02954-0.07025,0.02954h-3.84583c-0.02747,0-0.05188-0.0092-0.07123-0.02954
			c-0.01935-0.01935-0.02856-0.04279-0.02856-0.07025C35.93517,25.33494,35.93517,19.69601,35.93518,19.69602z M37.0788,96.71023
			h1.36108l-2.0661,5.93342h-1.27551l-2.05792-5.93342h1.35699l1.33667,4.46228L37.0788,96.71023z M30.93195,152.04247
			c0.19458,0.13043,0.47986,0.25269,0.85785,0.36676c0.6958,0.20886,1.20215,0.46863,1.52002,0.77838
			c0.31787,0.30969,0.47675,0.6958,0.47675,1.15735c0,0.51343-0.19458,0.91583-0.5827,1.20825
			c-0.38818,0.29242-0.9118,0.43805-1.56897,0.43805c-0.45636,0-0.87207-0.0835-1.24695-0.25061
			c-0.37494-0.16705-0.66119-0.3963-0.85785-0.68665c-0.19659-0.29034-0.29541-0.62756-0.29541-1.01062h1.22662
			c0,0.65509,0.39117,0.98212,1.17358,0.98212c0.29041,0,0.51758-0.0591,0.6806-0.17731
			c0.16296-0.11816,0.24451-0.2832,0.24451-0.49512c0-0.23126-0.08154-0.40851-0.24451-0.5318
			c-0.16302-0.12329-0.45642-0.25366-0.88025-0.39124c-0.42383-0.13751-0.75897-0.27197-1.00659-0.40546
			c-0.6734-0.36371-1.01062-0.85474-1.01062-1.47115c0-0.32092,0.0907-0.60614,0.271-0.85779
			c0.18036-0.25165,0.44012-0.44727,0.77838-0.58887c0.3382-0.1416,0.7182-0.21191,1.13898-0.21191
			c0.42383,0,0.80182,0.0764,1.13287,0.23022c0.33112,0.15387,0.58887,0.36987,0.77228,0.65002
			c0.18335,0.28015,0.27502,0.59802,0.27502,0.95357h-1.22253c0-0.27199-0.08557-0.48293-0.25671-0.63368
			s-0.41156-0.2262-0.72131-0.2262c-0.29846,0-0.53076,0.0632-0.69684,0.18951c-0.16608,0.12634-0.2486,0.29242-0.2486,0.49921
			C30.64057,151.75011,30.73737,151.91209,30.93195,152.04247z M24.24414,101.4761c0.18646,0.17829,0.44318,0.26698,0.77228,0.26698
			c0.68768,0,1.03607-0.36169,1.0473-1.08398v-3.94885h1.22662v3.90808c0,0.64899-0.20276,1.16241-0.60925,1.54042
			c-0.40649,0.37793-0.96069,0.56641-1.66467,0.56641c-0.69281,0-1.24292-0.18335-1.65045-0.55011s-0.61536-0.8711-0.62347-1.51191
			v-3.95288h1.22253v3.9162c0,0.38818,0.09271,0.67139,0.27911,0.84967L24.24414,101.4761z M32.914,102.58658v0.0571h-1.31219
			l-1.11249-2.17207h-0.974v2.17207h-1.22253v-5.93342h2.20465c0.70093,0,1.24188,0.15588,1.62189,0.46869
			c0.38,0.31274,0.57056,0.75391,0.57056,1.3244c0,0.40448-0.08765,0.74268-0.26288,1.01263
			c-0.17523,0.27002-0.4411,0.48596-0.79669,0.64594l1.28369,2.42469L32.914,102.58658z M28.35034,149.97635v5.93343h-1.22253
			v-5.93343H28.35034z M23.92883,149.97635c0.70093,0,1.24188,0.15588,1.62189,0.46869
			c0.38,0.31274,0.57056,0.75385,0.57056,1.32442c0,0.40442-0.08765,0.74268-0.26288,1.01263
			c-0.17523,0.27002-0.4411,0.48596-0.79669,0.64594l1.28369,2.42468v0.0571h-1.31219l-1.11249-2.17206h-0.974v2.17206h-1.22253
			v-5.93343h2.20465L23.92883,149.97635z M25.15747,203.14268v0.99023h-2.64069v1.53224h2.34729v0.98621h-2.34729v2.42468h-1.22253
			v-5.93336H25.15747z M26.79163,203.14268h1.13287l2.22095,5.93336h-1.29993l-0.41162-1.22253h-2.14349l-0.40753,1.22253h-1.29999
			L26.79163,203.14268z M33.94153,19.59622h0.96729c0.0835,0,0.11102,0.0387,0.0835,0.11609l-2.14435,5.64704
			c-0.0163,0.04993-0.05499,0.07538-0.11609,0.07538h-0.96729c-0.0835,0-0.112-0.0387-0.0835-0.11713l2.14337-5.64704
			C33.8407,19.62063,33.87939,19.59622,33.94153,19.59622z M24.99951,19.59622h1.03455c0.05493,0,0.09161,0.02747,0.10791,0.0835
			l0.79218,3.39472c0.0061,0.0224,0.01422,0.03259,0.02545,0.03259c0.01117,0,0.01935-0.01019,0.02441-0.03259l0.76776-3.38661
			c0.0163-0.0611,0.05292-0.09161,0.10895-0.09161h1.00903c0.0611,0,0.09979,0.02747,0.11609,0.0835l0.83496,3.39472
			c0.0051,0.0163,0.01324,0.02649,0.02441,0.02856c0.01123,0.003,0.01935-0.0062,0.02545-0.02856l0.76776-3.38661
			c0.0163-0.0611,0.05194-0.09161,0.10791-0.09161h0.98462c0.07739,0,0.10797,0.03564,0.09167,0.10791l-1.36853,5.6471
			c-0.0163,0.05597-0.05493,0.0835-0.11603,0.0835h-0.9928c-0.05597,0-0.09161-0.02753-0.10895-0.0835l-0.85022-3.61163
			c-0.0061-0.0224-0.01422-0.03363-0.02545-0.03363c-0.01117,0-0.01935,0.01123-0.02441,0.03363l-0.79321,3.60345
			c-0.01117,0.0611-0.04681,0.09167-0.10791,0.09167h-0.92657c-0.0611,0-0.09979-0.02753-0.11609-0.0835l-1.47644-5.6471
			l-0.0081-0.03357C24.9079,19.62062,24.93842,19.59621,24.99951,19.59622z M20.29535,19.69601
			c0-0.02753,0.0092-0.05194,0.0285-0.07129c0.01934-0.01935,0.04376-0.0285,0.07129-0.0285h3.85394
			c0.02753,0,0.0509,0.0092,0.07025,0.0285c0.01935,0.01934,0.02954,0.04376,0.02954,0.07129v0.80945
			c0,0.02753-0.01019,0.05096-0.02954,0.07031s-0.04272,0.02948-0.07025,0.02948h-2.73596
			c-0.0285,0-0.04175,0.01428-0.04175,0.04175v1.29315c0,0.02753,0.01324,0.04175,0.04175,0.04175h1.79309
			c0.02753,0,0.0509,0.0092,0.07129,0.0285c0.01935,0.01935,0.0285,0.04382,0.0285,0.07129v0.80847
			c0,0.0285-0.0092,0.05194-0.0285,0.07129c-0.02039,0.01935-0.04376,0.02954-0.07129,0.02954h-1.79309
			c-0.0285,0-0.04175,0.01318-0.04175,0.04169v1.3512c0,0.02753,0.01324,0.04175,0.04175,0.04175h2.73596
			c0.02753,0,0.0509,0.0092,0.07025,0.0285c0.01935,0.02039,0.02954,0.04382,0.02954,0.07129v0.80951
			c0,0.02747-0.01019,0.0509-0.02954,0.07025c-0.01935,0.02032-0.04272,0.02954-0.07025,0.02954h-3.85394
			c-0.02753,0-0.05194-0.0092-0.07129-0.02954c-0.01935-0.01935-0.0285-0.04279-0.0285-0.07025L20.29535,19.69601z
			 M21.27948,97.17892c0.41876,0.36676,0.66022,0.88123,0.7254,1.54443h-1.22253c-0.02954-0.38306-0.13654-0.66119-0.31989-0.83337
			c-0.18341-0.17212-0.46259-0.25873-0.83746-0.25873c-0.40753,0-0.71216,0.14569-0.91486,0.43805
			c-0.20276,0.29242-0.30664,0.74475-0.31177,1.35907v0.44824c0,0.64081,0.0968,1.1095,0.29138,1.40594
			c0.19458,0.29645,0.50024,0.44421,0.91895,0.44421c0.37793,0,0.65912-0.0866,0.84558-0.2588
			c0.18646-0.17218,0.29242-0.43909,0.31989-0.80078h1.22253c-0.04584,0.63879-0.28217,1.14106-0.70703,1.50782
			c-0.4248,0.36676-0.98517,0.55011-1.68097,0.55011c-0.76105,0-1.35907-0.25568-1.7951-0.76813
			c-0.43603-0.51246-0.65405-1.2154-0.65405-2.10889v-0.36267c0-0.57056,0.10083-1.07281,0.30157-1.50781
			c0.20068-0.435,0.48798-0.76819,0.86188-1.00043c0.3739-0.2323,0.80786-0.34845,1.302-0.34845
			C20.30963,96.62874,20.86078,96.81215,21.27948,97.17892z M20.65698,223.61385c0,3.02126-2.45789,5.47902-5.47906,5.47902
			s-5.47906-2.45776-5.47906-5.47902c0-3.02124,2.45789-5.479,5.47906-5.479S20.65698,220.59267,20.65698,223.61385z
			 M15.52399,19.69602c0-0.02753,0.0092-0.05194,0.0285-0.07129c0.01934-0.01935,0.04376-0.0285,0.07123-0.0285h0.97546
			c0.0285,0,0.05194,0.0092,0.07129,0.0285c0.01935,0.01934,0.02954,0.04376,0.02954,0.07129v4.68788
			c0,0.02753,0.01324,0.04175,0.04175,0.04175h2.72778c0.02753,0,0.0509,0.0092,0.07025,0.0285
			c0.01935,0.02039,0.02954,0.04382,0.02954,0.07129v0.80951c0,0.02747-0.01019,0.0509-0.02954,0.07025
			c-0.01935,0.02032-0.04272,0.02954-0.07025,0.02954h-3.84583c-0.02747,0-0.05188-0.0092-0.07123-0.02954
			c-0.01935-0.01935-0.0285-0.04279-0.0285-0.07025v-5.63893L15.52399,19.69602z M10.35242,23.57444
			c0-0.02753,0.0092-0.05096,0.02954-0.07025c0.01935-0.02039,0.04272-0.02954,0.07025-0.02954h0.95099
			c0.02753,0,0.05194,0.0092,0.07129,0.02954c0.01935,0.01929,0.0285,0.04272,0.0285,0.07025v0.12524
			c0,0.22296,0.10284,0.41034,0.30957,0.56305c0.20465,0.15271,0.48364,0.22913,0.83392,0.22913
			c0.29425,0,0.51416-0.06213,0.65875-0.18738c0.14459-0.12525,0.21692-0.27899,0.21692-0.46332
			c0-0.13336-0.0448-0.24536-0.13342-0.33698c-0.0896-0.09271-0.20972-0.17316-0.36346-0.24237
			c-0.15277-0.06921-0.39612-0.16498-0.72906-0.28815c-0.37268-0.12726-0.68829-0.25861-0.94696-0.39203
			c-0.25861-0.13336-0.47552-0.31561-0.65063-0.54578c-0.17511-0.23114-0.2627-0.51624-0.2627-0.85529
			c0-0.33398,0.08551-0.62518,0.25861-0.87567c0.17212-0.25049,0.41138-0.44189,0.71686-0.57532
			c0.30646-0.13336,0.65875-0.20056,1.05994-0.20056c0.42261,0,0.79932,0.07532,1.13025,0.22504
			c0.33093,0.1507,0.58954,0.36041,0.77588,0.63025c0.1853,0.26984,0.27899,0.58246,0.27899,0.93781v0.12524
			c0,0.0285-0.01019,0.05194-0.02954,0.07129c-0.01935,0.01935-0.04272,0.02948-0.07025,0.02948h-0.95917
			c-0.0285,0-0.05194-0.01013-0.07129-0.02948s-0.02948-0.04279-0.02948-0.07129v-0.06622
			c0-0.23419-0.09576-0.43274-0.28717-0.59668c-0.19244-0.16388-0.45514-0.2464-0.78809-0.2464
			c-0.26172,0-0.46637,0.05603-0.61401,0.16699c-0.14661,0.11102-0.22095,0.26477-0.22095,0.45923
			c0,0.13849,0.04382,0.25555,0.12933,0.35028c0.08655,0.09467,0.21381,0.1792,0.38385,0.25452
			c0.17004,0.07434,0.43274,0.17621,0.78809,0.3045c0.39508,0.14453,0.70563,0.27185,0.93066,0.38281
			c0.22504,0.112,0.42767,0.27698,0.60889,0.49689c0.18024,0.21997,0.27087,0.50403,0.27087,0.85535
			c0,0.52234-0.19141,0.93469-0.57532,1.23816c-0.38385,0.30341-0.90417,0.45514-1.55988,0.45514
			c-0.44501,0-0.83392-0.07129-1.16791-0.21283c-0.33398-0.14258-0.59058-0.34515-0.77179-0.60889
			c-0.18024-0.26477-0.27087-0.57227-0.27087-0.92255v-0.18323V23.57444z M6.52057,56.74563
			c1.03485-1.0351,2.41077-1.6051,3.87433-1.6051c1.46344,0,2.83942,0.57001,3.87421,1.6051
			c2.00183,2.00171,2.10272,5.16615,0.35278,7.31617l1.84857,1.84827l1.10223-1.10229l1.07654,4.0191l-4.01898-1.0766
			l1.1026-1.10266l-1.84253-1.84222c-0.98328,0.82312-2.19775,1.29346-3.49542,1.29346c-1.46356,0-2.83942-0.57001-3.87433-1.60487
			c-1.03479-1.03485-1.60468-2.41071-1.60468-3.87415C4.91589,59.1564,5.48578,57.78048,6.52057,56.74563z M2.83899,160.12859
			l12.74011-12.74055l-1.10248-1.10248l4.01917-1.0766l-1.07666,4.0191l-1.10242-1.10242L3.88226,160.56053v108.69615
			l3.19562,3.27307l-0.73962,0.73553l-3.49927-3.57867V160.12857L2.83899,160.12859z M10.22961,356.00015
			c-0.06116,0.55115-0.33929,0.94952-0.83441,1.19403c-0.03363,0.0163-0.03668,0.0336-0.00916,0.0499
			c0.41772,0.22821,0.62653,0.59595,0.62653,1.10132c0,0.0509-0.0061,0.13647-0.01727,0.25873
			c-0.06622,0.53998-0.29547,0.94751-0.68872,1.22253c-0.39221,0.27612-0.87415,0.41364-1.44769,0.41364H5.75611
			c-0.0285,0-0.04993-0.009-0.0672-0.02951c-0.0163-0.01929-0.02246-0.04279-0.0163-0.07031l0.69275-5.64197
			c0.00507-0.0275,0.01733-0.052,0.03772-0.07129c0.01935-0.01941,0.04279-0.0285,0.07025-0.0285h2.03656
			c1.15735,0,1.73602,0.43604,1.73602,1.31012c0,0.12738-0.0051,0.22516-0.0163,0.29138L10.22961,356.00015z M14.61853,360.14047
			c-0.0051,0.0275-0.01733,0.05099-0.03772,0.07031c-0.01935,0.02039-0.04279,0.02951-0.07031,0.02951h-3.73889
			c-0.02856,0-0.04993-0.009-0.06726-0.02951c-0.0163-0.01941-0.0224-0.04279-0.0163-0.07031l0.69275-5.64197
			c0.0051-0.0275,0.01733-0.052,0.03772-0.07129c0.01935-0.01929,0.04279-0.0285,0.07031-0.0285h0.95154
			c0.02747,0,0.04993,0.009,0.0672,0.0285c0.0163,0.01941,0.02142,0.04379,0.0163,0.07129l-0.57556,4.69043
			c0,0.0275,0.01117,0.04181,0.03357,0.04181h2.64478c0.06213,0,0.09271,0.0336,0.09271,0.09979l-0.10083,0.80994H14.61853z
			 M14.07721,317.83231l-3.19543-1.15936c-0.76355-0.2771-1.27704-1.00861-1.27704-1.82159v-1.70374
			c-2.87537-0.24048-5.14484-2.7063-5.14484-5.70892c0-3.16031,2.51434-5.73172,5.60431-5.73172s5.60437,2.57141,5.60437,5.73172
			c0,3.00262-2.26953,5.46844-5.1449,5.70892v1.70374c0,0.42688,0.27002,0.81201,0.67139,0.9577l3.19592,1.15936
			c0.76361,0.27814,1.27704,1.01062,1.27704,1.82257l-0.0076,0.55457h-0.91895l0.0076-0.55457
			C14.74908,318.36411,14.47912,317.978,14.07721,317.83231z M20.177,360.14865c0,0.0275-0.0082,0.0499-0.02448,0.06619
			c-0.01733,0.0173-0.0387,0.02539-0.0672,0.02539h-1.0351c-0.04993,0-0.08051-0.0275-0.09167-0.08359l-0.14166-0.81805
			c0-0.005-0.0031-0.01221-0.0081-0.02039c-0.0061-0.008-0.01428-0.01321-0.02545-0.01321h-1.99481
			c-0.0163,0-0.03058,0.01221-0.04175,0.0336l-0.34131,0.81805c-0.01733,0.05609-0.05298,0.08359-0.10901,0.08359h-1.0351
			c-0.03363,0-0.05707-0.0112-0.07031-0.0336c-0.01422-0.0224-0.01324-0.0499,0.0041-0.0835l2.44507-5.64105
			c0.02753-0.056,0.06726-0.0835,0.11719-0.0835h1.26837c0.04993,0,0.08356,0.0275,0.09985,0.0835l1.05139,5.64105v0.02551H20.177z
			 M15.20081,261.70135c-3.02112,0-5.479-2.45782-5.479-5.479s2.45789-5.479,5.479-5.479s5.479,2.45782,5.479,5.479
			S18.22192,261.70135,15.20081,261.70135z M25.28516,356.25894c-0.01117,0.056-0.04785,0.08661-0.10901,0.09271l-0.9505,0.05801
			h-0.01733c-0.05603,0-0.07745-0.03061-0.06622-0.09171c0.0051-0.0336,0.0082-0.08051,0.0082-0.14264
			c0-0.25568-0.07642-0.45844-0.22925-0.60925c-0.15381-0.14972-0.36066-0.2251-0.6225-0.2251
			c-0.28931,0-0.53278,0.09061-0.73047,0.27197c-0.19763,0.18036-0.31274,0.41571-0.34637,0.70502l-0.24957,2.01105
			c-0.0061,0.0336-0.0092,0.08051-0.0092,0.14166c0,0.25061,0.07544,0.45129,0.2262,0.60107
			c0.14978,0.15076,0.35864,0.22516,0.62555,0.22516c0.28931,0,0.5318-0.08871,0.72638-0.26697
			c0.19458-0.17828,0.31177-0.41156,0.35046-0.70093c0.01123-0.0611,0.04688-0.09171,0.10797-0.09171l0.94342,0.04181
			c0.02747,0,0.04993,0.00699,0.0672,0.02029c0.01636,0.01431,0.02142,0.03571,0.01636,0.0632
			c-0.04486,0.38409-0.17218,0.72333-0.38409,1.01776c-0.21191,0.29547-0.48499,0.52368-0.82214,0.68463
			c-0.33624,0.16095-0.7132,0.24249-1.13086,0.24249c-0.57867,0-1.0351-0.15588-1.36823-0.46765
			c-0.33417-0.31171-0.50128-0.72943-0.50128-1.25208c0-0.13342,0.0061-0.23633,0.01733-0.30865l0.23334-1.92755
			c0.04987-0.40143,0.1803-0.75391,0.39221-1.06055c0.21088-0.30566,0.48694-0.54199,0.82623-0.70911
			c0.33923-0.16705,0.71722-0.25061,1.13489-0.25061c0.57867,0,1.03613,0.15076,1.37335,0.45032
			c0.33618,0.30054,0.50427,0.7019,0.50427,1.20215c0,0.06119-0.0051,0.15283-0.0163,0.27509L25.28516,356.25894z
			 M30.65112,354.52292l-2.09467,2.37885c-0.0224,0.02249-0.0285,0.04181-0.01727,0.05911l1.51898,3.16235
			c0.0061,0.0112,0.0092,0.0285,0.0092,0.0499c0,0.0448-0.0285,0.0672-0.0835,0.0672h-1.06873
			c-0.05603,0-0.09167-0.0224-0.10797-0.0672l-1.1441-2.40332c-0.0051-0.0112-0.01324-0.0163-0.02448-0.0163
			c-0.01117,0-0.0224,0.005-0.03363,0.0163l-0.5929,0.65912l-0.02448,0.0499l-0.20068,1.66162
			c-0.0051,0.0275-0.01837,0.05099-0.03772,0.07031c-0.01935,0.02039-0.04279,0.02951-0.07025,0.02951h-0.9516
			c-0.0285,0-0.04987-0.009-0.0672-0.02951c-0.0163-0.01941-0.0224-0.04279-0.0163-0.07031l0.69275-5.64197
			c0.0051-0.0275,0.01733-0.052,0.03772-0.07129c0.01935-0.01929,0.04279-0.0285,0.07025-0.0285h0.9516
			c0.02747,0,0.04987,0.009,0.0672,0.0285c0.0163,0.01941,0.02142,0.04379,0.0163,0.07129l-0.2832,2.33704
			c-0.0061,0.0163-0.0031,0.02649,0.0081,0.02859c0.01123,0.00299,0.02246-0.00101,0.03363-0.0123l2.16901-2.39514
			c0.03363-0.0387,0.07538-0.05801,0.12531-0.05801h1.06873c0.05499,0,0.0835,0.01941,0.0835,0.05801
			c0,0.0224-0.01117,0.04489-0.03357,0.06619L30.65112,354.52292z M30.69965,203.14268h1.2226v4.95125h2.59583v0.98212h-3.81842
			C30.69966,209.07605,30.69966,203.14268,30.69965,203.14268z M36.72711,360.14047c-0.0051,0.0275-0.01831,0.05099-0.03766,0.07031
			c-0.01941,0.02039-0.04279,0.02951-0.07031,0.02951H35.7002c-0.04993,0-0.08252-0.0224-0.09985-0.0672l-1.66058-3.5719
			c-0.0062-0.0163-0.01428-0.02341-0.02551-0.02039c-0.01117,0.00299-0.01935,0.01529-0.02441,0.03769l-0.41772,3.52191
			c-0.0051,0.0275-0.01831,0.05099-0.03772,0.07031c-0.01935,0.02039-0.04279,0.02951-0.07025,0.02951h-0.95154
			c-0.02856,0-0.04993-0.009-0.06726-0.02951c-0.0163-0.01929-0.0224-0.04279-0.0163-0.07031l0.69275-5.64197
			c0.0051-0.0275,0.01733-0.052,0.03772-0.07129c0.01935-0.01941,0.04279-0.0285,0.07031-0.0285h0.91791
			c0.0509,0,0.08661,0.02139,0.10901,0.06619l1.65247,3.55554c0.0051,0.0163,0.01428,0.02341,0.02545,0.02039
			c0.01019-0.00201,0.01935-0.01529,0.02448-0.03671l0.41766-3.50562c0.0051-0.0275,0.01733-0.052,0.03772-0.07129
			c0.01935-0.01941,0.04279-0.0285,0.07031-0.0285h0.95154c0.02753,0,0.04993,0.009,0.0672,0.0285
			c0.01636,0.01929,0.02142,0.04379,0.01636,0.07129l-0.69281,5.64197L36.72711,360.14047z M42.32739,356.42599l-0.21704,1.78595
			c-0.04993,0.41772-0.18335,0.7865-0.40039,1.10638c-0.21698,0.31989-0.49817,0.56848-0.84351,0.74677
			c-0.34436,0.17828-0.72845,0.26691-1.15125,0.26691c-0.57867,0-1.03918-0.16296-1.38147-0.48798
			c-0.34229-0.32599-0.51349-0.76105-0.51349-1.30609c0-0.09991,0.0082-0.20886,0.02551-0.32599l0.21698-1.78595
			c0.04993-0.41156,0.18341-0.77631,0.40039-1.09314s0.49615-0.56335,0.83844-0.73859
			c0.34235-0.17523,0.7254-0.26288,1.14819-0.26288c0.58374,0,1.0473,0.16199,1.38959,0.48395
			c0.34131,0.32294,0.51245,0.75079,0.51245,1.28571C42.3518,356.207,42.3437,356.31497,42.32739,356.42599z M43.8963,360.14047
			c-0.0051,0.0275-0.01831,0.05099-0.03772,0.07031c-0.01935,0.02039-0.04279,0.02951-0.07025,0.02951h-0.95154
			c-0.02856,0-0.04993-0.009-0.06726-0.02951c-0.0163-0.01941-0.0224-0.04279-0.0163-0.07031l0.69275-5.64197
			c0.0051-0.0275,0.01733-0.052,0.03772-0.07129c0.01935-0.01929,0.04279-0.0285,0.07031-0.0285h0.95154
			c0.02747,0,0.04993,0.009,0.0672,0.0285c0.0163,0.01941,0.02142,0.04379,0.0163,0.07129L43.8963,360.14047z M49.35492,356.12546
			l-0.01727,0.12531c-0.0051,0.02859-0.01733,0.052-0.03668,0.07129c-0.02039,0.01929-0.04382,0.02951-0.07135,0.02951h-0.93524
			c-0.02747,0-0.04993-0.01019-0.06622-0.02951c-0.01733-0.01941-0.0224-0.04279-0.01733-0.07129l0.0092-0.06619
			c0.02747-0.23431-0.04077-0.43298-0.20477-0.59698c-0.16406-0.164-0.41058-0.24652-0.73865-0.24652
			c-0.27301,0-0.49005,0.06311-0.651,0.18848c-0.16095,0.12427-0.24249,0.29541-0.24249,0.51245
			c0,0.12323,0.03973,0.22614,0.11719,0.30969c0.07843,0.08249,0.19354,0.16095,0.34637,0.23328
			c0.15283,0.0723,0.38513,0.17017,0.69684,0.29242c0.3454,0.13855,0.61334,0.25671,0.80591,0.35449
			c0.19153,0.0968,0.36572,0.24353,0.52161,0.43811c0.15485,0.19458,0.23328,0.43909,0.23328,0.73456
			c0,0.0387-0.0051,0.10797-0.0163,0.2088c-0.06726,0.52264-0.30463,0.93524-0.71417,1.23889
			c-0.40851,0.30359-0.93011,0.45538-1.56482,0.45538c-0.6062,0-1.08301-0.13654-1.4314-0.40955
			c-0.34741-0.27203-0.52161-0.64288-0.52161-1.1095c0-0.0509,0.0061-0.12531,0.01727-0.22614l0.02448-0.18341
			c0.0061-0.0275,0.01831-0.0509,0.03772-0.07019c0.01935-0.02039,0.04279-0.02951,0.07129-0.02951h0.92609
			c0.02747,0,0.04993,0.009,0.0672,0.02951c0.0163,0.01929,0.02142,0.04279,0.0163,0.07019l-0.0163,0.12531
			c-0.0285,0.22314,0.04791,0.41058,0.22925,0.56342c0.1803,0.15283,0.44116,0.22925,0.7804,0.22925
			c0.31177,0,0.54608-0.06931,0.70502-0.20782c0.15894-0.13959,0.23834-0.30975,0.23834-0.5094
			c0-0.12225-0.04071-0.22516-0.12122-0.30872c-0.08044-0.08359-0.18951-0.1579-0.32599-0.22107
			c-0.13654-0.06421-0.3515-0.15485-0.64691-0.27203c-0.32196-0.12225-0.59497-0.24243-0.81708-0.36267
			c-0.22314-0.1192-0.40955-0.27917-0.55933-0.47986c-0.15076-0.20068-0.22516-0.44824-0.22516-0.74268
			c0-0.0387,0.0051-0.10901,0.0163-0.20886c0.06116-0.50635,0.29242-0.90771,0.69281-1.20624
			c0.40033-0.29749,0.89551-0.44623,1.48535-0.44623c0.37799,0,0.71313,0.06519,1.00555,0.19666
			c0.29236,0.13037,0.51752,0.31378,0.67645,0.55011c0.1579,0.23639,0.23737,0.51349,0.23737,0.83032
			c0,0.0448-0.0051,0.11713-0.0163,0.21698V356.12546z M54.22778,355.30838c-0.0051,0.0275-0.01837,0.05099-0.03772,0.07031
			c-0.01935,0.01929-0.04279,0.02951-0.07025,0.02951h-2.66315c-0.01117,0-0.02032,0.004-0.0285,0.0123
			c-0.0082,0.008-0.01324,0.01831-0.01324,0.02951l-0.1579,1.29382c0,0.0275,0.01117,0.04181,0.03363,0.04181h1.74414
			c0.02753,0,0.04993,0.009,0.06622,0.02859c0.01733,0.01941,0.0224,0.04379,0.01733,0.07129l-0.10089,0.80896
			c-0.0051,0.0285-0.01831,0.05191-0.03766,0.07129c-0.01941,0.01929-0.04285,0.02951-0.07031,0.02951h-1.74414
			c-0.02856,0-0.04181,0.01321-0.04181,0.04169l-0.16705,1.35193c0,0.0275,0.01117,0.04181,0.03363,0.04181h2.65393
			c0.0611,0,0.09167,0.0336,0.09167,0.09979l-0.10089,0.80994c-0.0051,0.0275-0.01727,0.05099-0.03668,0.07031
			c-0.02032,0.02039-0.04376,0.02951-0.07129,0.02951h-3.74707c-0.02856,0-0.04993-0.009-0.06726-0.02951
			c-0.0163-0.01941-0.0224-0.04279-0.0163-0.07031l0.69275-5.64197c0.0051-0.0275,0.01733-0.052,0.03772-0.07129
			c0.01935-0.01929,0.04279-0.0285,0.07031-0.0285h3.73889c0.02856,0,0.052,0.009,0.07135,0.0285
			c0.01935,0.01929,0.02649,0.04379,0.02039,0.07129L54.22778,355.30838z M44.77277,344.39972
			c-7.34943,0-13.30737-5.95782-13.30737-13.30731c0-7.34109,5.94458-13.29245,13.28241-13.30612
			c0.22406-0.32184,0.54413-0.57672,0.92847-0.716l3.19495-1.15936c0.40192-0.14569,0.67188-0.53082,0.67188-0.9577v-1.80328
			c-2.89642-0.21851-5.1897-2.69312-5.1897-5.71124c0-3.16031,2.51434-5.73172,5.60431-5.73172s5.60382,2.57141,5.60382,5.73172
			c0,2.98712-2.2453,5.44458-5.09949,5.7066v1.80792c0,0.81299-0.51349,1.54449-1.27759,1.82159l-2.99615,1.08728
			c6.68365,0.70709,11.89191,6.35925,11.89191,13.23032c0,7.34949-5.95789,13.30731-13.30743,13.30731H44.77277z"/>
		<path id="path16" fill="#181818" d="M8.15131,357.75351H7.14985c-0.02856,0-0.04181,0.01324-0.04181,0.04175l-0.17523,1.38556
			c0,0.02747,0.01123,0.04175,0.03363,0.04175H7.9842c0.27301,0,0.48798-0.07642,0.64691-0.23022
			c0.15894-0.15283,0.23743-0.36267,0.23743-0.62964c0-0.19458-0.06219-0.34534-0.1875-0.45129
			C8.55573,357.80649,8.37947,357.75351,8.15131,357.75351z"/>
		<path id="path17" fill="#181818" d="M8.38458,355.40823H7.43304c-0.01123,0-0.02039,0.00409-0.02856,0.01227
			c-0.00812,0.00812-0.01324,0.01831-0.01324,0.02954l-0.1579,1.302c-0.01117,0.02747,0,0.04175,0.03363,0.04175h0.9505
			c0.25067,0,0.45337-0.06012,0.60925-0.17932c0.15588-0.12018,0.24756-0.28827,0.27612-0.50531l0.00812-0.09985
			c0-0.18945-0.06213-0.33722-0.18744-0.44318C8.79821,355.46121,8.61889,355.40823,8.38458,355.40823z"/>
		<path id="path18" fill="#181818" d="M18.19952,355.83817c-0.01117,0.00305-0.01935,0.01221-0.02545,0.02856l-1.01776,2.4787
			c-0.0061,0.03357,0.00305,0.0509,0.02441,0.0509h1.42737c0.0285,0,0.04175-0.01733,0.04175-0.0509l-0.42584-2.4787
			C18.21887,355.84531,18.21076,355.83511,18.19952,355.83817z"/>
		<path id="path19" fill="#181818" d="M40.32446,355.34103c-0.29547,0-0.54608,0.09882-0.75189,0.29645
			s-0.32806,0.4574-0.36676,0.7804l-0.22516,1.83582c-0.0061,0.03973-0.00812,0.09784-0.00812,0.17523
			c0,0.27307,0.07739,0.49005,0.23328,0.651c0.15588,0.16199,0.36676,0.24249,0.6347,0.24249
			c0.30054,0,0.55219-0.09778,0.75494-0.29242c0.2027-0.19458,0.32703-0.45331,0.37183-0.77631l0.22516-1.83582
			c0.00513-0.03876,0.00818-0.0968,0.00818-0.17523c0-0.27814-0.07849-0.49817-0.23334-0.65918
			C40.8114,355.42252,40.59643,355.34103,40.32446,355.34103z"/>
	</g>
</g>
<path id="path1" fill="#4D4D4D" d="M9.98911,302.72113c-2.58362,0-4.68536,2.15881-4.68536,4.81274s2.10175,4.81378,4.68536,4.81378
	c2.58368,0,4.68542-2.15985,4.68542-4.81378S12.57279,302.72113,9.98911,302.72113z M10.60038,310.50079H9.37784v-5.93341h1.22253
	v5.93341H10.60038z"/>
<g id="g2" transform="translate(45.187368,302.44837)">
	<path id="path1-4" fill="#4D4D4D" d="M4.69158,0.25571c-2.58362,0-4.68536,2.15881-4.68536,4.81274
		s2.10175,4.81378,4.68536,4.81378c2.58313,0,4.68488-2.15985,4.68488-4.81378S7.27471,0.25571,4.69158,0.25571z M7.21795,5.20316
		c0,0.58374-0.10339,1.09619-0.30969,1.53632c-0.2063,0.44013-0.50177,0.77936-0.88636,1.0188
		C5.63732,7.99766,5.1967,8.11686,4.69951,8.11686c-0.49152,0-0.93066-0.11816-1.31622-0.35455
		C2.99767,7.52598,2.69866,7.18876,2.48675,6.74967s-0.3194-0.94342-0.32196-1.51392v-0.2934
		c0-0.5838,0.10547-1.09827,0.31586-1.54248C2.69103,2.95573,2.98852,2.61442,3.3731,2.37705s0.82367-0.35657,1.3183-0.35657
		s0.93372,0.1192,1.3183,0.35657s0.68207,0.57867,0.89246,1.02283c0.21039,0.44421,0.3158,0.95667,0.3158,1.53839v0.26489H7.21795z"
		/>
	<path id="path2" fill="#4D4D4D" d="M4.6914,2.89421c-0.4101,0-0.72693,0.15997-0.94952,0.47882
		c-0.2226,0.31891-0.3357,0.78754-0.33826,1.40387v0.28937c0,0.60614,0.11157,1.07581,0.33417,1.40997
		S4.2813,6.97753,4.69952,6.97753c0.4101,0,0.7254-0.16101,0.94543-0.48291c0.22009-0.32196,0.3316-0.79163,0.33417-1.40796V4.79729
		c0-0.62244-0.11157-1.09515-0.33417-1.41815C5.42236,3.0562,5.10449,2.89421,4.6914,2.89421z"/>
</g>
</svg>
