<?xml version="1.0" encoding="UTF-8"?>
<svg id="uuid-a425cf58-f0bc-4f33-8eb0-b6702cf03e57" data-name="FND_BG" xmlns="http://www.w3.org/2000/svg" width="60" height="379.99944" xmlns:xlink="http://www.w3.org/1999/xlink" viewBox="0 0 60 379.99944">
  <defs>
    <linearGradient id="uuid-7ee1d2d3-2044-48bb-ad17-6e6f94d54339" x1="30" y1="0" x2="30" y2="379.99944" gradientUnits="userSpaceOnUse">
      <stop offset="0" stop-color="#fff09c"/>
      <stop offset="1" stop-color="#ffcf60"/>
    </linearGradient>
    <linearGradient id="uuid-54b3a313-c64c-4d2f-906d-08dac24f448a" x1="30" y1="0" x2="30" y2="379.99945" gradientUnits="userSpaceOnUse">
      <stop offset="0" stop-color="#2a2a2b"/>
      <stop offset="1" stop-color="#171717"/>
    </linearGradient>
  </defs>
  <rect width="60" height="379.99944" fill="url(#uuid-7ee1d2d3-2044-48bb-ad17-6e6f94d54339)"/>
  <g>
    <path d="M10.3949,65.16956c1.13519,0,2.27039-.43323,3.13654-1.29919,1.7323-1.73242,1.7323-4.54095,0-6.27313-.86615-.86621-2.00134-1.2995-3.13654-1.2995-1.13525,0-2.27045.43329-3.1366,1.2995-1.7323,1.73218-1.7323,4.54071,0,6.27313.86615.86597,2.00134,1.29919,3.1366,1.29919ZM8.14789,62.30579l.0871-.30261c.51501-1.78894,1.96729-3.13885,3.78992-3.52191.28064-.06012.55878.12024.61786.40344.05908.28119-.12122.55829-.40295.61737-1.4436.30359-2.5943,1.37231-3.00232,2.79047l-.0871.30255c-.06573.22821-.2746.37695-.50128.37695-.04736,0-.09625-.0061-.1441-.02039-.27716-.07947-.43658-.36877-.35712-.64587Z" fill="#272728"/>
    <path d="M44.77264,219.29181c-2.44989,0-4.43585,1.9859-4.43585,4.43579s1.98596,4.43579,4.43585,4.43579,4.43579-1.98584,4.43579-4.43579-1.98602-4.43579-4.43579-4.43579ZM44.36493,223.96429l-1.84167,1.06329c-.18219.10516-.40991-.02631-.40991-.23663v-2.12665c0-.21033.22772-.3418.40991-.23663l1.84167,1.06329c.18219.10516.18219.36816,0,.47333ZM47.19299,223.96429l-1.84167,1.06329c-.18219.10516-.40991-.02631-.40991-.23663v-2.12665c0-.21033.22772-.3418.40991-.23663l1.84167,1.06329c.18219.10516.18219.36816,0,.47333Z" fill="#1f1f1f"/>
    <path d="M19.61371,223.7276c0-2.44989-1.98596-4.43579-4.43579-4.43579s-4.43579,1.9859-4.43579,4.43579,1.98596,4.43579,4.43579,4.43579,4.43579-1.98584,4.43579-4.43579ZM12.20819,223.72784c0-.19946.16144-.3609.36096-.3609h3.28412v-.80432c0-.12207.13214-.19836.23792-.13733l1.95709,1.13031c.13245.07648.13245.26776-.00006.34424l-1.95703,1.13013c-.10577.06104-.23792-.01526-.23792-.13733v-.80383h-3.28412c-.19952,0-.36096-.16144-.36096-.36096Z" fill="#1f1f1f"/>
    <path d="M44.72711,251.90027c-2.44983,0-4.43579,1.9859-4.43579,4.43579,0,2.44965,1.98596,4.43579,4.43579,4.43579s4.43579-1.98615,4.43579-4.43579c0-2.44989-1.98602-4.43579-4.43579-4.43579ZM45.71924,256.58307l-1.80566,1.04248c-.19019.1098-.42792-.02747-.42792-.24707v-2.08496c0-.2196.23773-.35687.42792-.24707l1.80566,1.04248c.19012.1098.19012.38434,0,.49414Z" fill="#1d1d1e"/>
    <path d="M49.58234,109.7309c-1.13519,0-2.27039.43298-3.13654,1.29919-1.7323,1.73224-1.7323,4.54077,0,6.27319.86615.86621,2.00134,1.29919,3.13654,1.29919s2.27045-.43298,3.1366-1.29919c1.73224-1.73242,1.73224-4.54095,0-6.27319-.86615-.86621-2.0014-1.29919-3.1366-1.29919ZM51.14899,114.44177c-.03156.11792-.17896.15741-.26532.07104l-.56842-.56848-2.3222,2.32233c-.14105.14111-.36932.14111-.51038,0-.14111-.14111-.14111-.36932,0-.51044l2.3222-2.32227-.56879-.56879c-.08624-.08618-.04675-.23364.07117-.26526l2.18311-.58466c.14777-.03943.28302.09576.24341.24353l-.58478,2.18298Z" fill="#242425"/>
    <path d="M15.20081,260.77185c2.44983,0,4.43579-1.98615,4.43579-4.43579,0-2.44989-1.98596-4.43579-4.43579-4.43579s-4.43579,1.9859-4.43579,4.43579c0,2.44965,1.98602,4.43579,4.43579,4.43579ZM15.20105,253.75909c1.46765,0,2.6615,1.17792,2.6615,2.62537,0,.60071-.21429,1.16455-.58929,1.62769l.32166.65601c.04297.0874-.0249.18854-.12207.18195l-1.96826-.13336c-.13501-.00916-.20953-.16101-.13409-.27338l1.09943-1.63806c.05426-.08087.17572-.07269.21869.01483l.27167.55414c.17529-.29944.27631-.63605.27631-.98981,0-1.10272-.91321-1.99945-2.03552-1.99945s-2.03552.89673-2.03552,1.99945c0,.17297-.13995.31299-.31299.31299-.17297,0-.31293-.14001-.31293-.31299,0-1.44745,1.19379-2.62537,2.66144-2.62537Z" fill="#1d1d1e"/>
    <path d="M49.57788,65.14459c1.13513,0,2.27039-.43323,3.13654-1.29919,1.73224-1.73242,1.73224-4.54095,0-6.27313-.86615-.86621-2.0014-1.29944-3.13654-1.29944-1.13525,0-2.27045.43323-3.1366,1.29944-1.7323,1.73218-1.7323,4.54071,0,6.27313.86615.86597,2.00134,1.29919,3.1366,1.29919ZM47.4704,58.59845c.20477-.20477.5343-.2038.7381-.00208l3.48322,3.45978c.20422.20276.20526.53284.00256.73761-.10242.10291-.23639.15387-.37036.15387-.13293,0-.26587-.05096-.3678-.15179l-3.48322-3.45984c-.20422-.2027-.20526-.53278-.0025-.73755Z" fill="#272728"/>
    <path d="M31.21466,99.36096c.16809-.15588.25269-.37189.25269-.64594,0-.28015-.07947-.50018-.2384-.66016s-.4024-.24042-.73151-.24042h-.98212v1.78082h.98621c.30664,0,.54504-.07843.71313-.23431Z" fill="#252526"/>
    <path d="M49.75922,162.86322c-1.13519,0-2.27045.43329-3.1366,1.29926-1.73224,1.73242-1.73224,4.54095,0,6.27313.86615.86621,2.0014,1.29944,3.1366,1.29944s2.27039-.43323,3.13654-1.29944c1.7323-1.73218,1.7323-4.54071,0-6.27313-.86615-.86597-2.00134-1.29926-3.13654-1.29926ZM51.66724,169.49792l-2.18311-.58466c-.11792-.03156-.15747-.17902-.07117-.26538l.56879-.56873-2.32227-2.32208c-.14105-.14105-.14105-.36938,0-.5105.14111-.14099.36938-.14099.51044,0l2.3222,2.32214.56842-.5683c.0863-.08636.23376-.04675.26532.07117l.58478,2.18298c.03955.14771-.09564.28296-.24341.24335Z" fill="#222"/>
    <path d="M23.92883,151.08051h-.98212v1.78082h.98621c.30664,0,.54504-.07843.71313-.23431s.25269-.37189.25269-.64594c0-.28015-.07947-.50018-.2384-.66016s-.4024-.24042-.73151-.24042Z" fill="#222223"/>
    <polygon points="26.62048 206.97705 28.10382 206.97705 27.35809 204.7561 26.62048 206.97705" fill="#202020"/>
    <g>
      <path d="M47.44617,24.63135c.30548,0,.55292-.09778.74231-.29224.18835-.19452.28308-.45312.28308-.77588v-1.83484c0-.32281-.09265-.58246-.27899-.77997s-.43579-.29633-.7464-.29633c-.30646,0-.55286.09882-.73816.29633-.18738.19751-.28003.45715-.28003.77997v1.83484c0,.32275.09265.58136.28003.77588.1853.19446.4317.29224.73816.29224Z" fill="#29292a"/>
      <path d="M59.97229,365.21381V13.60303h-.00079V0H0v14.78583h.00079v351.61078h.02771v13.60284h59.9715v-14.78564h-.02771ZM43.66626,201.45892l-1.10248,1.10248-1.07654-4.01935,4.01904,1.07684-1.10242,1.10242,12.71893,12.71991v56.43445l-3.78876,3.74298-.73663-.73962,3.48218-3.43732v-55.56854l-12.41333-12.41425ZM38.18365,152.49457v.95764h-2.34729v1.58929h2.75482v.98212h-3.97736v-5.93341h3.96918v.9903h-2.74664v1.41406h2.34729ZM35.21899,203.25647h1.22253v4.95123h2.59589v.98212h-3.81842v-5.93335ZM38.99817,102.75757v-5.93341h3.96918v.9903h-2.74664v1.41406h2.34729v.95764h-2.34729v1.58929h2.75482v.98212h-3.97736ZM44.77264,229.2066c-3.02124,0-5.47906-2.45776-5.47906-5.479s2.45782-5.479,5.47906-5.479,5.479,2.45782,5.479,5.479-2.45789,5.479-5.479,5.479ZM50.20612,256.33606c0,3.02118-2.45789,5.479-5.479,5.479s-5.479-2.45782-5.479-5.479,2.45789-5.479,5.479-5.479,5.479,2.45782,5.479,5.479ZM53.63348,171.17322c-1.03485,1.0351-2.41077,1.6051-3.87427,1.6051-1.29724,0-2.51123-.47021-3.49432-1.29285l-1.84119,1.84143,1.10242,1.1026-4.01923,1.07635,1.07672-4.01886,1.10248,1.10229,1.84698-1.84717c-1.75092-2.14978-1.65027-5.315.35187-7.31726,1.03491-1.03485,2.41077-1.60486,3.87427-1.60486s2.83936.57001,3.87427,1.60486c1.03485,1.03479,1.60474,2.41071,1.60474,3.87415s-.56989,2.83936-1.60474,3.87421ZM53.4566,118.04089c-1.03491,1.03479-2.41077,1.6048-3.87427,1.6048-1.29895,0-2.51434-.47119-3.49811-1.29559l-1.84424,1.84424,1.10254,1.10254-4.01917,1.0766,1.07666-4.01904,1.10236,1.10229,1.85077-1.85077c-1.7478-2.14996-1.64612-5.31256.35492-7.31342,1.03479-1.0351,2.41077-1.60486,3.87427-1.60486s2.83942.56976,3.87427,1.60486c2.13617,2.13611,2.13617,5.61194,0,7.74835ZM53.45209,64.58301c-1.03491,1.03485-2.41077,1.60486-3.87421,1.60486-1.28503,0-2.48792-.46185-3.46637-1.26953l-1.84869,1.84906,1.10248,1.10248-4.01917,1.0766,1.07666-4.0191,1.10242,1.10242,1.84814-1.84845c-.81097-.97943-1.27454-2.18481-1.27454-3.47247,0-1.4635.56989-2.83936,1.60474-3.87421,1.03485-1.0351,2.41077-1.6051,3.87433-1.6051,1.46344,0,2.83936.57001,3.87421,1.6051,2.13623,2.13611,2.13623,5.61194,0,7.74835ZM45.25195,21.73651c0-.41138.09161-.77588.2749-1.09253.18427-.31665.44086-.56311.77179-.73822s.71381-.2627,1.14752-.2627c.4389,0,.82379.08759,1.15466.2627.33093.17511.58856.42157.77185.73822s.2749.68115.2749,1.09253v1.78497c0,.41748-.09161.78705-.2749,1.10986-.18329.32275-.44092.57123-.77185.74634-.33087.17511-.71576.2627-1.15466.2627-.43372,0-.81659-.08856-1.14752-.26678-.33093-.17816-.58752-.42664-.77179-.74634-.18329-.3197-.2749-.68829-.2749-1.10577v-1.78497ZM40.7066,19.81006c0-.02753.00916-.05194.0285-.07129s.04376-.0285.07129-.0285h3.84583c.02747,0,.0509.00916.07025.0285s.02948.04376.02948.07129v.80945c0,.02753-.01013.05096-.02948.07031s-.04279.02948-.07025.02948h-2.72784c-.0285,0-.04175.01428-.04175.04175v1.29315c0,.02753.01324.04175.04175.04175h1.79309c.02747,0,.0509.00916.07129.0285.01935.01935.0285.04382.0285.07129v.80847c0,.0285-.00916.05194-.0285.07129-.02039.01935-.04382.02954-.07129.02954h-1.79309c-.0285,0-.04175.01318-.04175.04169v2.30225c0,.02747-.01019.0509-.02954.07025-.01935.02032-.04272.02954-.07129.02954h-.9754c-.02753,0-.05194-.00922-.07129-.02954-.01935-.01935-.0285-.04279-.0285-.07025v-5.63892ZM35.93518,19.81006c0-.02753.00922-.05194.02856-.07129s.04376-.0285.07123-.0285h.97546c.0285,0,.05194.00916.07129.0285s.02954.04376.02954.07129v4.68787c0,.02753.01324.04175.04175.04175h2.72778c.02753,0,.0509.00916.07025.0285.01935.02039.02954.04382.02954.07129v.80951c0,.02747-.01019.0509-.02954.07025-.01935.02032-.04272.02954-.07025.02954h-3.84583c-.02747,0-.05188-.00922-.07123-.02954-.01935-.01935-.02856-.04279-.02856-.07025v-5.63892ZM37.0788,96.82416h1.36108l-2.0661,5.93341h-1.27551l-2.05792-5.93341h1.35699l1.33667,4.46228,1.34479-4.46228ZM30.93195,152.15631c.19458.13043.47986.25269.85785.36676.6958.20886,1.20215.46863,1.52002.77838.31787.30969.47675.6958.47675,1.15735,0,.51343-.19458.91583-.5827,1.20825-.38818.29242-.9118.43805-1.56897.43805-.45636,0-.87207-.0835-1.24695-.25061-.37494-.16705-.66119-.3963-.85785-.68665-.19659-.29034-.29541-.62756-.29541-1.01062h1.22662c0,.65509.39117.98212,1.17358.98212.29041,0,.51758-.05908.6806-.17731.16296-.11816.24451-.2832.24451-.49512,0-.23126-.08154-.40851-.24451-.5318-.16302-.12329-.45642-.25366-.88025-.39124-.42383-.13751-.75897-.27197-1.00659-.40546-.6734-.36371-1.01062-.85474-1.01062-1.47113,0-.32092.0907-.60614.271-.85779.18036-.25165.44012-.44727.77838-.58887.3382-.1416.7182-.21191,1.13898-.21191.42383,0,.80182.07642,1.13287.23022.33112.15387.58887.36987.77228.65002.18335.28015.27502.59802.27502.95355h-1.22253c0-.27197-.08557-.48291-.25671-.63367s-.41156-.2262-.72131-.2262c-.29846,0-.53076.06317-.69684.18951s-.2486.29242-.2486.49921c0,.19257.0968.35455.29138.48492ZM24.24414,101.59003c.18646.17828.44318.26697.77228.26697.68768,0,1.03607-.36169,1.0473-1.08398v-3.94885h1.22662v3.90808c0,.64899-.20276,1.16241-.60925,1.54041-.40649.37793-.96069.56641-1.66467.56641-.69281,0-1.24292-.18335-1.65045-.55011s-.61536-.87109-.62347-1.5119v-3.95288h1.22253v3.9162c0,.38818.09271.67139.27911.84967ZM32.914,102.7005v.05707h-1.31219l-1.11249-2.17206h-.974v2.17206h-1.22253v-5.93341h2.20465c.70093,0,1.24188.15588,1.62189.46869.38.31274.57056.75391.57056,1.3244,0,.40448-.08765.74268-.26288,1.01263-.17523.27002-.4411.48596-.79669.64594l1.28369,2.42468ZM28.35034,150.09021v5.93341h-1.22253v-5.93341h1.22253ZM23.92883,150.09021c.70093,0,1.24188.15588,1.62189.46869.38.31274.57056.75385.57056,1.3244,0,.40442-.08765.74268-.26288,1.01263-.17523.27002-.4411.48596-.79669.64594l1.28369,2.42468v.05707h-1.31219l-1.11249-2.17206h-.974v2.17206h-1.22253v-5.93341h2.20465ZM25.15747,203.25647v.99023h-2.64069v1.53223h2.34729v.98621h-2.34729v2.42468h-1.22253v-5.93335h3.86322ZM26.79163,203.25647h1.13287l2.22095,5.93335h-1.29993l-.41162-1.22253h-2.14349l-.40753,1.22253h-1.29999l2.20874-5.93335ZM33.94153,19.71027h.96729c.0835,0,.11102.0387.0835.11609l-2.14435,5.64703c-.0163.04993-.05499.07538-.11609.07538h-.96729c-.0835,0-.112-.0387-.0835-.11713l2.14337-5.64703c.01624-.04993.05493-.07434.11707-.07434ZM24.99951,19.71027h1.03455c.05493,0,.09161.02747.10791.0835l.79218,3.39471c.0061.0224.01422.03259.02545.03259.01117,0,.01935-.01019.02441-.03259l.76776-3.3866c.0163-.0611.05292-.09161.10895-.09161h1.00903c.0611,0,.09979.02747.11609.0835l.83496,3.39471c.00507.0163.01324.02649.02441.02856.01123.00305.01935-.00616.02545-.02856l.76776-3.3866c.0163-.0611.05194-.09161.10791-.09161h.98462c.07739,0,.10797.03564.09167.10791l-1.36853,5.64709c-.0163.05597-.05493.0835-.11603.0835h-.9928c-.05597,0-.09161-.02753-.10895-.0835l-.85022-3.61163c-.0061-.0224-.01422-.03363-.02545-.03363-.01117,0-.01935.01123-.02441.03363l-.79321,3.60345c-.01117.0611-.04681.09167-.10791.09167h-.92657c-.0611,0-.09979-.02753-.11609-.0835l-1.47644-5.64709-.00812-.03357c0-.04993.03052-.07434.09161-.07434ZM20.29535,19.81006c0-.02753.00916-.05194.0285-.07129s.04376-.0285.07129-.0285h3.85394c.02753,0,.0509.00916.07025.0285s.02954.04376.02954.07129v.80945c0,.02753-.01019.05096-.02954.07031s-.04272.02948-.07025.02948h-2.73596c-.0285,0-.04175.01428-.04175.04175v1.29315c0,.02753.01324.04175.04175.04175h1.79309c.02753,0,.0509.00916.07129.0285.01935.01935.0285.04382.0285.07129v.80847c0,.0285-.00916.05194-.0285.07129-.02039.01935-.04376.02954-.07129.02954h-1.79309c-.0285,0-.04175.01318-.04175.04169v1.3512c0,.02753.01324.04175.04175.04175h2.73596c.02753,0,.0509.00916.07025.0285.01935.02039.02954.04382.02954.07129v.80951c0,.02747-.01019.0509-.02954.07025-.01935.02032-.04272.02954-.07025.02954h-3.85394c-.02753,0-.05194-.00922-.07129-.02954-.01935-.01935-.0285-.04279-.0285-.07025v-5.63892ZM21.27948,97.29285c.41876.36676.66022.88123.7254,1.54443h-1.22253c-.02954-.38306-.13654-.66119-.31989-.83337-.18341-.17212-.46259-.25873-.83746-.25873-.40753,0-.71216.14569-.91486.43805-.20276.29242-.30664.74475-.31177,1.35907v.44824c0,.64081.0968,1.1095.29138,1.40594s.50024.44421.91895.44421c.37793,0,.65912-.08661.84558-.25879s.29242-.43909.31989-.80078h1.22253c-.04584.63879-.28217,1.14105-.70703,1.50781-.4248.36676-.98517.55011-1.68097.55011-.76105,0-1.35907-.25568-1.7951-.76813s-.65405-1.21539-.65405-2.10889v-.36267c0-.57056.10083-1.07281.30157-1.50781.20068-.435.48798-.76819.86188-1.00043.3739-.2323.80786-.34845,1.302-.34845.68463,0,1.23578.18341,1.65448.55017ZM20.65698,223.7276c0,3.02124-2.45789,5.479-5.47906,5.479s-5.47906-2.45776-5.47906-5.479,2.45789-5.479,5.47906-5.479,5.47906,2.45782,5.47906,5.479ZM15.52399,19.81006c0-.02753.00916-.05194.0285-.07129s.04376-.0285.07123-.0285h.97546c.0285,0,.05194.00916.07129.0285s.02954.04376.02954.07129v4.68787c0,.02753.01324.04175.04175.04175h2.72778c.02753,0,.0509.00916.07025.0285.01935.02039.02954.04382.02954.07129v.80951c0,.02747-.01019.0509-.02954.07025-.01935.02032-.04272.02954-.07025.02954h-3.84583c-.02747,0-.05188-.00922-.07123-.02954-.01935-.01935-.0285-.04279-.0285-.07025v-5.63892ZM10.35242,23.68848c0-.02753.00916-.05096.02954-.07025.01935-.02039.04272-.02954.07025-.02954h.95099c.02753,0,.05194.00916.07129.02954.01935.01929.0285.04272.0285.07025v.12524c0,.22296.10284.41034.30957.56305.20465.15271.48364.22913.83392.22913.29425,0,.51416-.06213.65875-.18738s.21692-.27899.21692-.46332c0-.13336-.0448-.24536-.13342-.33698-.0896-.09271-.20972-.17316-.36346-.24237-.15277-.06921-.39612-.16498-.72906-.28815-.37268-.12726-.68829-.25861-.94696-.39203-.25861-.13336-.47552-.31561-.65063-.54578-.17511-.23114-.2627-.51624-.2627-.85529,0-.33398.08551-.62518.25861-.87567.17212-.25049.41138-.44189.71686-.57532.30646-.13336.65875-.20056,1.05994-.20056.42261,0,.79932.07532,1.13025.22504.33093.1507.58954.36041.77588.63025.1853.26984.27899.58246.27899.93781v.12524c0,.0285-.01019.05194-.02954.07129s-.04272.02948-.07025.02948h-.95917c-.0285,0-.05194-.01013-.07129-.02948s-.02948-.04279-.02948-.07129v-.06622c0-.23419-.09576-.43274-.28717-.59668-.19244-.16388-.45514-.2464-.78809-.2464-.26172,0-.46637.05603-.61401.16699-.14661.11102-.22095.26477-.22095.45923,0,.13849.04382.25555.12933.35028.08655.09467.21381.1792.38385.25452.17004.07434.43274.17621.78809.3045.39508.14453.70563.27185.93066.38281.22504.112.42767.27698.60889.49689.18024.21997.27087.50403.27087.85535,0,.52234-.19141.93469-.57532,1.23816-.38385.30341-.90417.45514-1.55988.45514-.44501,0-.83392-.07129-1.16791-.21283-.33398-.14258-.59058-.34515-.77179-.60889-.18024-.26477-.27087-.57227-.27087-.92255v-.18323ZM6.52057,56.85962c1.03485-1.0351,2.41077-1.6051,3.87433-1.6051,1.46344,0,2.83942.57001,3.87421,1.6051,2.00183,2.00171,2.10272,5.16614.35278,7.31616l1.84857,1.84827,1.10223-1.10229,1.07654,4.0191-4.01898-1.0766,1.1026-1.10266-1.84253-1.84222c-.98328.82312-2.19775,1.29346-3.49542,1.29346-1.46356,0-2.83942-.57001-3.87433-1.60486-1.03479-1.03485-1.60468-2.41071-1.60468-3.87415s.56989-2.83936,1.60468-3.87421ZM2.83899,160.24243l12.74011-12.74054-1.10248-1.10248,4.01917-1.0766-1.07666,4.0191-1.10242-1.10242-12.43445,12.43488v108.69598l3.19562,3.27307-.73962.73553-3.49927-3.57867v-109.55786ZM10.22961,356.11371c-.06116.55115-.33929.94952-.83441,1.19403-.03363.0163-.03668.03363-.00916.04993.41772.22821.62653.59595.62653,1.10132,0,.0509-.0061.13647-.01727.25873-.06622.53998-.29547.94751-.68872,1.22253-.39221.27612-.87415.41364-1.44769.41364h-2.10278c-.0285,0-.04993-.00916-.0672-.02954-.0163-.01935-.02246-.04279-.0163-.07031l.69275-5.64197c.00507-.02753.01733-.052.03772-.07135.01935-.01935.04279-.0285.07025-.0285h2.03656c1.15735,0,1.73602.43604,1.73602,1.31012,0,.12738-.00513.22516-.0163.29138ZM14.61853,360.25403c-.00513.02753-.01733.05096-.03772.07031-.01935.02039-.04279.02954-.07031.02954h-3.73889c-.02856,0-.04993-.00916-.06726-.02954-.0163-.01935-.0224-.04279-.0163-.07031l.69275-5.64197c.00513-.02753.01733-.052.03772-.07135.01935-.01935.04279-.0285.07031-.0285h.95154c.02747,0,.04993.00916.0672.0285.0163.01935.02142.04382.0163.07135l-.57556,4.69043c0,.02753.01117.04181.03357.04181h2.64478c.06213,0,.09271.03357.09271.09979l-.10083.80994ZM14.07721,317.94592l-3.19543-1.15936c-.76355-.2771-1.27704-1.00861-1.27704-1.82159v-1.70374c-2.87537-.24048-5.14484-2.7063-5.14484-5.70892,0-3.16028,2.51434-5.73169,5.60431-5.73169s5.60437,2.57141,5.60437,5.73169c0,3.00262-2.26953,5.46844-5.1449,5.70892v1.70374c0,.42688.27002.81201.67139.9577l3.19592,1.15936c.76361.27814,1.27704,1.01062,1.27704,1.82257l-.00763.55457h-.91895l.00763-.55457c0-.42688-.26996-.81299-.67188-.95868ZM20.177,360.26221c0,.02753-.00818.04993-.02448.06622-.01733.01733-.0387.02545-.0672.02545h-1.0351c-.04993,0-.08051-.02747-.09167-.08356l-.14166-.81805c0-.00507-.00305-.01221-.00812-.02039-.0061-.00812-.01428-.01324-.02545-.01324h-1.99481c-.0163,0-.03058.01221-.04175.03363l-.34131.81805c-.01733.05609-.05298.08356-.10901.08356h-1.0351c-.03363,0-.05707-.01117-.07031-.03363-.01422-.0224-.01324-.04993.00409-.0835l2.44507-5.64105c.02753-.05603.06726-.0835.11719-.0835h1.26837c.04993,0,.08356.02747.09985.0835l1.05139,5.64105v.02545ZM15.20081,261.81506c-3.02112,0-5.479-2.45782-5.479-5.479s2.45789-5.479,5.479-5.479,5.479,2.45782,5.479,5.479-2.45789,5.479-5.479,5.479ZM25.28516,356.3725c-.01117.05603-.04785.08661-.10901.09271l-.9505.05804h-.01733c-.05603,0-.07745-.03058-.06622-.09167.00513-.03363.00818-.08051.00818-.14264,0-.25568-.07642-.45844-.22925-.60925-.15381-.14972-.36066-.2251-.6225-.2251-.28931,0-.53278.09064-.73047.27197-.19763.18036-.31274.41571-.34637.70502l-.24957,2.01105c-.0061.03363-.00922.08051-.00922.14166,0,.25061.07544.45129.2262.60107.14978.15076.35864.22516.62555.22516.28931,0,.5318-.08868.72638-.26697s.31177-.41156.35046-.70093c.01123-.0611.04688-.09167.10797-.09167l.94342.04181c.02747,0,.04993.00708.0672.02032.01636.01428.02142.03571.01636.06317-.04486.38409-.17218.72333-.38409,1.01776-.21191.29547-.48499.52368-.82214.68463-.33624.16095-.7132.24249-1.13086.24249-.57867,0-1.0351-.15588-1.36823-.46765-.33417-.31171-.50128-.72943-.50128-1.25208,0-.13342.0061-.23633.01733-.30865l.23334-1.92755c.04987-.40143.1803-.75391.39221-1.06055.21088-.30566.48694-.54199.82623-.70911.33923-.16705.71722-.25061,1.13489-.25061.57867,0,1.03613.15076,1.37335.45032.33618.30054.50427.7019.50427,1.20215,0,.06116-.00507.15283-.0163.27509ZM30.65112,354.63647l-2.09467,2.37885c-.0224.02246-.0285.04181-.01727.05908l1.51898,3.16235c.0061.01117.00916.0285.00916.04993,0,.0448-.0285.0672-.0835.0672h-1.06873c-.05603,0-.09167-.0224-.10797-.0672l-1.1441-2.40332c-.00513-.01123-.01324-.0163-.02448-.0163-.01117,0-.0224.00507-.03363.0163l-.5929.65912-.02448.04993-.20068,1.66162c-.00513.02753-.01837.05096-.03772.07031-.01935.02039-.04279.02954-.07025.02954h-.9516c-.0285,0-.04987-.00916-.0672-.02954-.0163-.01935-.0224-.04279-.0163-.07031l.69275-5.64197c.00513-.02753.01733-.052.03772-.07135.01935-.01935.04279-.0285.07025-.0285h.9516c.02747,0,.04987.00916.0672.0285.0163.01935.02142.04382.0163.07135l-.2832,2.33704c-.0061.0163-.00305.02649.00812.02856.01123.00305.02246-.00104.03363-.01227l2.16901-2.39514c.03363-.0387.07538-.05804.12531-.05804h1.06873c.05499,0,.0835.01935.0835.05804,0,.0224-.01117.04486-.03357.06622ZM30.69965,203.25647h1.2226v4.95123h2.59583v.98212h-3.81842v-5.93335ZM36.72711,360.25403c-.00507.02753-.01831.05096-.03766.07031-.01941.02039-.04279.02954-.07031.02954h-.91895c-.04993,0-.08252-.0224-.09985-.0672l-1.66058-3.5719c-.00616-.0163-.01428-.02344-.02551-.02039-.01117.00311-.01935.01532-.02441.03772l-.41772,3.52191c-.00507.02753-.01831.05096-.03772.07031-.01935.02039-.04279.02954-.07025.02954h-.95154c-.02856,0-.04993-.00916-.06726-.02954-.0163-.01935-.0224-.04279-.0163-.07031l.69275-5.64197c.00513-.02753.01733-.052.03772-.07135.01935-.01935.04279-.0285.07031-.0285h.91791c.0509,0,.08661.02136.10901.06622l1.65247,3.55554c.00507.0163.01428.02344.02545.02039.01019-.00208.01935-.01532.02448-.03668l.41766-3.50562c.00513-.02753.01733-.052.03772-.07135.01935-.01935.04279-.0285.07031-.0285h.95154c.02753,0,.04993.00916.0672.0285.01636.01935.02142.04382.01636.07135l-.69281,5.64197ZM42.32739,356.53955l-.21704,1.78595c-.04993.41772-.18335.7865-.40039,1.10638-.21698.31989-.49817.56848-.84351.74677-.34436.17828-.72845.26691-1.15125.26691-.57867,0-1.03918-.16296-1.38147-.48798-.34229-.32599-.51349-.76105-.51349-1.30609,0-.09985.00818-.20886.02551-.32599l.21698-1.78595c.04993-.41156.18341-.77631.40039-1.09314s.49615-.56335.83844-.73859c.34235-.17523.7254-.26288,1.14819-.26288.58374,0,1.0473.16199,1.38959.48395.34131.32294.51245.75079.51245,1.28571,0,.10596-.00812.21393-.02441.32495ZM43.8963,360.25403c-.00513.02753-.01831.05096-.03772.07031-.01935.02039-.04279.02954-.07025.02954h-.95154c-.02856,0-.04993-.00916-.06726-.02954-.0163-.01935-.0224-.04279-.0163-.07031l.69275-5.64197c.00513-.02753.01733-.052.03772-.07135.01935-.01935.04279-.0285.07031-.0285h.95154c.02747,0,.04993.00916.0672.0285.0163.01935.02142.04382.0163.07135l-.69275,5.64197ZM49.35492,356.23901l-.01727.12531c-.00513.02856-.01733.052-.03668.07135-.02039.01935-.04382.02954-.07135.02954h-.93524c-.02747,0-.04993-.01019-.06622-.02954-.01733-.01935-.0224-.04279-.01733-.07135l.00922-.06622c.02747-.23431-.04077-.43298-.20477-.59698-.16406-.164-.41058-.24652-.73865-.24652-.27301,0-.49005.06311-.651.18848-.16095.12427-.24249.29541-.24249.51245,0,.12323.03973.22614.11719.30969.07843.08252.19354.16095.34637.23328s.38513.17017.69684.29242c.3454.13855.61334.25671.80591.35449.19153.0968.36572.24353.52161.43811.15485.19458.23328.43909.23328.73456,0,.0387-.00507.10797-.0163.2088-.06726.52264-.30463.93524-.71417,1.23889-.40851.30359-.93011.45538-1.56482.45538-.6062,0-1.08301-.13654-1.4314-.40955-.34741-.27203-.52161-.64288-.52161-1.1095,0-.0509.0061-.12531.01727-.22614l.02448-.18341c.0061-.02747.01831-.0509.03772-.07025.01935-.02039.04279-.02954.07129-.02954h.92609c.02747,0,.04993.00916.0672.02954.0163.01935.02142.04279.0163.07025l-.0163.12531c-.0285.22314.04791.41058.22925.56342.1803.15283.44116.22925.7804.22925.31177,0,.54608-.06927.70502-.20782.15894-.13959.23834-.30975.23834-.5094,0-.12225-.04071-.22516-.12122-.30872-.08044-.08356-.18951-.1579-.32599-.22107-.13654-.06421-.3515-.15485-.64691-.27203-.32196-.12225-.59497-.24243-.81708-.36267-.22314-.1192-.40955-.27917-.55933-.47986-.15076-.20068-.22516-.44824-.22516-.74268,0-.0387.00513-.10901.0163-.20886.06116-.50635.29242-.90771.69281-1.20624.40033-.29749.89551-.44623,1.48535-.44623.37799,0,.71313.06519,1.00555.19666.29236.13037.51752.31378.67645.55011.1579.23639.23737.51349.23737.83032,0,.0448-.00507.11713-.0163.21698ZM54.22778,355.42194c-.00513.02753-.01837.05096-.03772.07031s-.04279.02954-.07025.02954h-2.66315c-.01117,0-.02032.00409-.0285.01227-.00818.00812-.01324.01831-.01324.02954l-.1579,1.29382c0,.02753.01117.04175.03363.04175h1.74414c.02753,0,.04993.00922.06622.02856.01733.01935.0224.04382.01733.07129l-.10089.80896c-.00507.0285-.01831.05194-.03766.07129-.01941.01935-.04285.02954-.07031.02954h-1.74414c-.02856,0-.04181.01324-.04181.04175l-.16705,1.35193c0,.02753.01117.04181.03363.04181h2.65393c.0611,0,.09167.03357.09167.09979l-.10089.80994c-.00507.02753-.01727.05096-.03668.07031-.02032.02039-.04376.02954-.07129.02954h-3.74707c-.02856,0-.04993-.00916-.06726-.02954-.0163-.01935-.0224-.04279-.0163-.07031l.69275-5.64197c.00513-.02753.01733-.052.03772-.07135.01935-.01935.04279-.0285.07031-.0285h3.73889c.02856,0,.052.00916.07135.0285s.02649.04382.02039.07135l-.09985.80988ZM44.77277,344.51331c-7.34943,0-13.30737-5.95782-13.30737-13.30731,0-7.34106,5.94458-13.29242,13.28241-13.30609.22406-.32184.54413-.57672.92847-.716l3.19495-1.15936c.40192-.14569.67188-.53082.67188-.9577v-1.80328c-2.89642-.21851-5.1897-2.69312-5.1897-5.71124,0-3.16028,2.51434-5.73169,5.60431-5.73169s5.60382,2.57141,5.60382,5.73169c0,2.98712-2.2453,5.44458-5.09949,5.7066v1.80792c0,.81299-.51349,1.54449-1.27759,1.82159l-2.99615,1.08728c6.68365.70709,11.89191,6.35925,11.89191,13.23029,0,7.34949-5.95789,13.30731-13.30743,13.30731Z" fill="url(#uuid-54b3a313-c64c-4d2f-906d-08dac24f448a)"/>
      <path d="M8.15131,357.86707h-1.00146c-.02856,0-.04181.01324-.04181.04175l-.17523,1.38556c0,.02747.01123.04175.03363.04175h1.01776c.27301,0,.48798-.07642.64691-.23022.15894-.15283.23743-.36267.23743-.62964,0-.19458-.06219-.34534-.1875-.45129-.12531-.10492-.30157-.1579-.52972-.1579Z" fill="#181818"/>
      <path d="M8.38458,355.52179h-.95154c-.01123,0-.02039.00409-.02856.01227-.00812.00812-.01324.01831-.01324.02954l-.1579,1.302c-.01117.02747,0,.04175.03363.04175h.9505c.25067,0,.45337-.06012.60925-.17932.15588-.12018.24756-.28827.27612-.50531l.00812-.09985c0-.18945-.06213-.33722-.18744-.44318-.12531-.10492-.30463-.1579-.53894-.1579Z" fill="#181818"/>
      <path d="M18.19952,355.95172c-.01117.00305-.01935.01221-.02545.02856l-1.01776,2.4787c-.0061.03357.00305.0509.02441.0509h1.42737c.0285,0,.04175-.01733.04175-.0509l-.42584-2.4787c-.00513-.02142-.01324-.03162-.02448-.02856Z" fill="#181818"/>
      <path d="M40.32446,355.45459c-.29547,0-.54608.09882-.75189.29645s-.32806.4574-.36676.7804l-.22516,1.83582c-.0061.03973-.00812.09784-.00812.17523,0,.27307.07739.49005.23328.651.15588.16199.36676.24249.6347.24249.30054,0,.55219-.09778.75494-.29242.2027-.19458.32703-.45331.37183-.77631l.22516-1.83582c.00513-.03876.00818-.0968.00818-.17523,0-.27814-.07849-.49817-.23334-.65918-.15588-.16095-.37085-.24243-.64282-.24243Z" fill="#181818"/>
    </g>
  </g>
</svg>