<?xml version="1.0" encoding="UTF-8" standalone="no"?>
<svg
   id="uuid-a425cf58-f0bc-4f33-8eb0-b6702cf03e57"
   data-name="FND_BG"
   width="60"
   height="379.99944"
   viewBox="0 0 60 379.99944"
   version="1.1"
   sodipodi:docname="SlewLFO.svg"
   inkscape:version="1.3.2 (091e20e, 2023-11-25)"
   xmlns:inkscape="http://www.inkscape.org/namespaces/inkscape"
   xmlns:sodipodi="http://sodipodi.sourceforge.net/DTD/sodipodi-0.dtd"
   xmlns="http://www.w3.org/2000/svg"
   xmlns:svg="http://www.w3.org/2000/svg">
  <sodipodi:namedview
     id="namedview20"
     pagecolor="#ffffff"
     bordercolor="#666666"
     borderopacity="1.0"
     inkscape:showpageshadow="2"
     inkscape:pageopacity="0.0"
     inkscape:pagecheckerboard="0"
     inkscape:deskcolor="#d1d1d1"
     inkscape:zoom="7.7484129"
     inkscape:cx="41.750486"
     inkscape:cy="300.64221"
     inkscape:window-width="1392"
     inkscape:window-height="1212"
     inkscape:window-x="0"
     inkscape:window-y="25"
     inkscape:window-maximized="0"
     inkscape:current-layer="uuid-a425cf58-f0bc-4f33-8eb0-b6702cf03e57" />
  <defs
     id="defs4">
    <linearGradient
       id="uuid-7ee1d2d3-2044-48bb-ad17-6e6f94d54339"
       x1="30"
       y1="0"
       x2="30"
       y2="379.99944"
       gradientUnits="userSpaceOnUse"
       gradientTransform="translate(0.04562914,-0.11407284)">
      <stop
         offset="0"
         stop-color="#fff09c"
         id="stop1" />
      <stop
         offset="1"
         stop-color="#ffcf60"
         id="stop2" />
    </linearGradient>
    <linearGradient
       id="uuid-54b3a313-c64c-4d2f-906d-08dac24f448a"
       x1="30"
       y1="0"
       x2="30"
       y2="379.99945"
       gradientUnits="userSpaceOnUse">
      <stop
         offset="0"
         stop-color="#2a2a2b"
         id="stop3" />
      <stop
         offset="1"
         stop-color="#171717"
         id="stop4" />
    </linearGradient>
  </defs>
  <rect
     width="60"
     height="379.99945"
     fill="url(#uuid-7ee1d2d3-2044-48bb-ad17-6e6f94d54339)"
     id="rect4"
     style="fill:url(#uuid-7ee1d2d3-2044-48bb-ad17-6e6f94d54339)"
     x="0.045629136"
     y="-0.11407284" />
  <g
     id="g20">
    <path
       d="M10.3949,65.16956c1.13519,0,2.27039-.43323,3.13654-1.29919,1.7323-1.73242,1.7323-4.54095,0-6.27313-.86615-.86621-2.00134-1.2995-3.13654-1.2995-1.13525,0-2.27045.43329-3.1366,1.2995-1.7323,1.73218-1.7323,4.54071,0,6.27313.86615.86597,2.00134,1.29919,3.1366,1.29919ZM8.14789,62.30579l.0871-.30261c.51501-1.78894,1.96729-3.13885,3.78992-3.52191.28064-.06012.55878.12024.61786.40344.05908.28119-.12122.55829-.40295.61737-1.4436.30359-2.5943,1.37231-3.00232,2.79047l-.0871.30255c-.06573.22821-.2746.37695-.50128.37695-.04736,0-.09625-.0061-.1441-.02039-.27716-.07947-.43658-.36877-.35712-.64587Z"
       fill="#272728"
       id="path4" />
    <path
       d="M44.77264,219.29181c-2.44989,0-4.43585,1.9859-4.43585,4.43579s1.98596,4.43579,4.43585,4.43579,4.43579-1.98584,4.43579-4.43579-1.98602-4.43579-4.43579-4.43579ZM44.36493,223.96429l-1.84167,1.06329c-.18219.10516-.40991-.02631-.40991-.23663v-2.12665c0-.21033.22772-.3418.40991-.23663l1.84167,1.06329c.18219.10516.18219.36816,0,.47333ZM47.19299,223.96429l-1.84167,1.06329c-.18219.10516-.40991-.02631-.40991-.23663v-2.12665c0-.21033.22772-.3418.40991-.23663l1.84167,1.06329c.18219.10516.18219.36816,0,.47333Z"
       fill="#1f1f1f"
       id="path5" />
    <path
       d="M19.61371,223.7276c0-2.44989-1.98596-4.43579-4.43579-4.43579s-4.43579,1.9859-4.43579,4.43579,1.98596,4.43579,4.43579,4.43579,4.43579-1.98584,4.43579-4.43579ZM12.20819,223.72784c0-.19946.16144-.3609.36096-.3609h3.28412v-.80432c0-.12207.13214-.19836.23792-.13733l1.95709,1.13031c.13245.07648.13245.26776-.00006.34424l-1.95703,1.13013c-.10577.06104-.23792-.01526-.23792-.13733v-.80383h-3.28412c-.19952,0-.36096-.16144-.36096-.36096Z"
       fill="#1f1f1f"
       id="path6" />
    <path
       d="M44.72711,251.90027c-2.44983,0-4.43579,1.9859-4.43579,4.43579,0,2.44965,1.98596,4.43579,4.43579,4.43579s4.43579-1.98615,4.43579-4.43579c0-2.44989-1.98602-4.43579-4.43579-4.43579ZM45.71924,256.58307l-1.80566,1.04248c-.19019.1098-.42792-.02747-.42792-.24707v-2.08496c0-.2196.23773-.35687.42792-.24707l1.80566,1.04248c.19012.1098.19012.38434,0,.49414Z"
       fill="#1d1d1e"
       id="path7" />
    <path
       d="M49.58234,109.7309c-1.13519,0-2.27039.43298-3.13654,1.29919-1.7323,1.73224-1.7323,4.54077,0,6.27319.86615.86621,2.00134,1.29919,3.13654,1.29919s2.27045-.43298,3.1366-1.29919c1.73224-1.73242,1.73224-4.54095,0-6.27319-.86615-.86621-2.0014-1.29919-3.1366-1.29919ZM51.14899,114.44177c-.03156.11792-.17896.15741-.26532.07104l-.56842-.56848-2.3222,2.32233c-.14105.14111-.36932.14111-.51038,0-.14111-.14111-.14111-.36932,0-.51044l2.3222-2.32227-.56879-.56879c-.08624-.08618-.04675-.23364.07117-.26526l2.18311-.58466c.14777-.03943.28302.09576.24341.24353l-.58478,2.18298Z"
       fill="#242425"
       id="path8" />
    <path
       d="M15.20081,260.77185c2.44983,0,4.43579-1.98615,4.43579-4.43579,0-2.44989-1.98596-4.43579-4.43579-4.43579s-4.43579,1.9859-4.43579,4.43579c0,2.44965,1.98602,4.43579,4.43579,4.43579ZM15.20105,253.75909c1.46765,0,2.6615,1.17792,2.6615,2.62537,0,.60071-.21429,1.16455-.58929,1.62769l.32166.65601c.04297.0874-.0249.18854-.12207.18195l-1.96826-.13336c-.13501-.00916-.20953-.16101-.13409-.27338l1.09943-1.63806c.05426-.08087.17572-.07269.21869.01483l.27167.55414c.17529-.29944.27631-.63605.27631-.98981,0-1.10272-.91321-1.99945-2.03552-1.99945s-2.03552.89673-2.03552,1.99945c0,.17297-.13995.31299-.31299.31299-.17297,0-.31293-.14001-.31293-.31299,0-1.44745,1.19379-2.62537,2.66144-2.62537Z"
       fill="#1d1d1e"
       id="path9" />
    <path
       d="M49.57788,65.14459c1.13513,0,2.27039-.43323,3.13654-1.29919,1.73224-1.73242,1.73224-4.54095,0-6.27313-.86615-.86621-2.0014-1.29944-3.13654-1.29944-1.13525,0-2.27045.43323-3.1366,1.29944-1.7323,1.73218-1.7323,4.54071,0,6.27313.86615.86597,2.00134,1.29919,3.1366,1.29919ZM47.4704,58.59845c.20477-.20477.5343-.2038.7381-.00208l3.48322,3.45978c.20422.20276.20526.53284.00256.73761-.10242.10291-.23639.15387-.37036.15387-.13293,0-.26587-.05096-.3678-.15179l-3.48322-3.45984c-.20422-.2027-.20526-.53278-.0025-.73755Z"
       fill="#272728"
       id="path10" />
    <path
       d="M31.21466,99.36096c.16809-.15588.25269-.37189.25269-.64594,0-.28015-.07947-.50018-.2384-.66016s-.4024-.24042-.73151-.24042h-.98212v1.78082h.98621c.30664,0,.54504-.07843.71313-.23431Z"
       fill="#252526"
       id="path11" />
    <path
       d="M49.75922,162.86322c-1.13519,0-2.27045.43329-3.1366,1.29926-1.73224,1.73242-1.73224,4.54095,0,6.27313.86615.86621,2.0014,1.29944,3.1366,1.29944s2.27039-.43323,3.13654-1.29944c1.7323-1.73218,1.7323-4.54071,0-6.27313-.86615-.86597-2.00134-1.29926-3.13654-1.29926ZM51.66724,169.49792l-2.18311-.58466c-.11792-.03156-.15747-.17902-.07117-.26538l.56879-.56873-2.32227-2.32208c-.14105-.14105-.14105-.36938,0-.5105.14111-.14099.36938-.14099.51044,0l2.3222,2.32214.56842-.5683c.0863-.08636.23376-.04675.26532.07117l.58478,2.18298c.03955.14771-.09564.28296-.24341.24335Z"
       fill="#222"
       id="path12" />
    <path
       d="M23.92883,151.08051h-.98212v1.78082h.98621c.30664,0,.54504-.07843.71313-.23431s.25269-.37189.25269-.64594c0-.28015-.07947-.50018-.2384-.66016s-.4024-.24042-.73151-.24042Z"
       fill="#222223"
       id="path13" />
    <polygon
       points="26.62048 206.97705 28.10382 206.97705 27.35809 204.7561 26.62048 206.97705"
       fill="#202020"
       id="polygon13" />
    <g
       id="g19">
      <path
         d="M47.44617,24.63135c.30548,0,.55292-.09778.74231-.29224.18835-.19452.28308-.45312.28308-.77588v-1.83484c0-.32281-.09265-.58246-.27899-.77997s-.43579-.29633-.7464-.29633c-.30646,0-.55286.09882-.73816.29633-.18738.19751-.28003.45715-.28003.77997v1.83484c0,.32275.09265.58136.28003.77588.1853.19446.4317.29224.73816.29224Z"
         fill="#29292a"
         id="path14" />
      <path
         d="M 59.97229,365.21381 V 13.60303 H 59.9715 V 0 H 0 V 14.78583 H 7.9e-4 V 366.39661 H 0.0285 v 13.60284 H 60 v -14.78564 z m -16.30603,-163.75489 -1.10248,1.10248 -1.07654,-4.01935 4.01904,1.07684 -1.10242,1.10242 12.71893,12.71991 v 56.43445 l -3.78876,3.74298 -0.73663,-0.73962 3.48218,-3.43732 V 213.87317 L 43.66625,201.45892 Z m -5.48261,-48.96435 v 0.95764 h -2.34729 v 1.58929 h 2.75482 v 0.98212 h -3.97736 v -5.93341 H 38.583 v 0.9903 h -2.74664 v 1.41406 z m -2.96466,50.7619 h 1.22253 v 4.95123 h 2.59589 v 0.98212 h -3.81842 z m 3.77918,-100.4989 v -5.93341 h 3.96918 v 0.9903 h -2.74664 v 1.41406 H 42.568 v 0.95764 h -2.34729 v 1.58929 h 2.75482 v 0.98212 z m 5.77447,126.44903 c -3.02124,0 -5.47906,-2.45776 -5.47906,-5.479 0,-3.02124 2.45782,-5.479 5.47906,-5.479 3.02124,0 5.479,2.45782 5.479,5.479 0,3.02118 -2.45789,5.479 -5.479,5.479 z m 5.43348,27.12946 c 0,3.02118 -2.45789,5.479 -5.479,5.479 -3.02111,0 -5.479,-2.45782 -5.479,-5.479 0,-3.02118 2.45789,-5.479 5.479,-5.479 3.02111,0 5.479,2.45782 5.479,5.479 z m 3.42736,-85.16284 c -1.03485,1.0351 -2.41077,1.6051 -3.87427,1.6051 -1.29724,0 -2.51123,-0.47021 -3.49432,-1.29285 l -1.84119,1.84143 1.10242,1.1026 -4.01923,1.07635 1.07672,-4.01886 1.10248,1.10229 1.84698,-1.84717 c -1.75092,-2.14978 -1.65027,-5.315 0.35187,-7.31726 1.03491,-1.03485 2.41077,-1.60486 3.87427,-1.60486 1.4635,0 2.83936,0.57001 3.87427,1.60486 1.03485,1.03479 1.60474,2.41071 1.60474,3.87415 0,1.46344 -0.56989,2.83936 -1.60474,3.87421 z M 53.4566,118.04089 c -1.03491,1.03479 -2.41077,1.6048 -3.87427,1.6048 -1.29895,0 -2.51434,-0.47119 -3.49811,-1.29559 l -1.84424,1.84424 1.10254,1.10254 -4.01917,1.0766 1.07666,-4.01904 1.10236,1.10229 1.85077,-1.85077 c -1.7478,-2.14996 -1.64612,-5.31256 0.35492,-7.31342 1.03479,-1.0351 2.41077,-1.60486 3.87427,-1.60486 1.4635,0 2.83942,0.56976 3.87427,1.60486 2.13617,2.13611 2.13617,5.61194 0,7.74835 z m -0.0045,-53.45788 c -1.03491,1.03485 -2.41077,1.60486 -3.87421,1.60486 -1.28503,0 -2.48792,-0.46185 -3.46637,-1.26953 l -1.84869,1.84906 1.10248,1.10248 -4.01917,1.0766 1.07666,-4.0191 1.10242,1.10242 1.84814,-1.84845 c -0.81097,-0.97943 -1.27454,-2.18481 -1.27454,-3.47247 0,-1.4635 0.56989,-2.83936 1.60474,-3.87421 1.03485,-1.0351 2.41077,-1.6051 3.87433,-1.6051 1.46344,0 2.83936,0.57001 3.87421,1.6051 2.13623,2.13611 2.13623,5.61194 0,7.74835 z m -8.20014,-42.8465 c 0,-0.41138 0.09161,-0.77588 0.2749,-1.09253 0.18427,-0.31665 0.44086,-0.56311 0.77179,-0.73822 0.33093,-0.17511 0.71381,-0.2627 1.14752,-0.2627 0.4389,0 0.82379,0.08759 1.15466,0.2627 0.33093,0.17511 0.58856,0.42157 0.77185,0.73822 0.18329,0.31665 0.2749,0.68115 0.2749,1.09253 v 1.78497 c 0,0.41748 -0.09161,0.78705 -0.2749,1.10986 -0.18329,0.32275 -0.44092,0.57123 -0.77185,0.74634 -0.33087,0.17511 -0.71576,0.2627 -1.15466,0.2627 -0.43372,0 -0.81659,-0.08856 -1.14752,-0.26678 -0.33093,-0.17816 -0.58752,-0.42664 -0.77179,-0.74634 -0.18329,-0.3197 -0.2749,-0.68829 -0.2749,-1.10577 V 21.73652 Z M 40.7066,19.81006 c 0,-0.02753 0.0092,-0.05194 0.0285,-0.07129 0.01934,-0.01935 0.04376,-0.0285 0.07129,-0.0285 h 3.84583 c 0.02747,0 0.0509,0.0092 0.07025,0.0285 0.01935,0.01934 0.02948,0.04376 0.02948,0.07129 v 0.80945 c 0,0.02753 -0.01013,0.05096 -0.02948,0.07031 -0.01935,0.01935 -0.04279,0.02948 -0.07025,0.02948 h -2.72784 c -0.0285,0 -0.04175,0.01428 -0.04175,0.04175 v 1.29315 c 0,0.02753 0.01324,0.04175 0.04175,0.04175 h 1.79309 c 0.02747,0 0.0509,0.0092 0.07129,0.0285 0.01935,0.01935 0.0285,0.04382 0.0285,0.07129 v 0.80847 c 0,0.0285 -0.0092,0.05194 -0.0285,0.07129 -0.02039,0.01935 -0.04382,0.02954 -0.07129,0.02954 h -1.79309 c -0.0285,0 -0.04175,0.01318 -0.04175,0.04169 v 2.30225 c 0,0.02747 -0.01019,0.0509 -0.02954,0.07025 -0.01935,0.02032 -0.04272,0.02954 -0.07129,0.02954 h -0.9754 c -0.02753,0 -0.05194,-0.0092 -0.07129,-0.02954 -0.01935,-0.01935 -0.0285,-0.04279 -0.0285,-0.07025 v -5.63892 z m -4.77142,0 c 0,-0.02753 0.0092,-0.05194 0.02856,-0.07129 0.01934,-0.01935 0.04376,-0.0285 0.07123,-0.0285 h 0.97546 c 0.0285,0 0.05194,0.0092 0.07129,0.0285 0.01935,0.01934 0.02954,0.04376 0.02954,0.07129 v 4.68787 c 0,0.02753 0.01324,0.04175 0.04175,0.04175 h 2.72778 c 0.02753,0 0.0509,0.0092 0.07025,0.0285 0.01935,0.02039 0.02954,0.04382 0.02954,0.07129 v 0.80951 c 0,0.02747 -0.01019,0.0509 -0.02954,0.07025 -0.01935,0.02032 -0.04272,0.02954 -0.07025,0.02954 h -3.84583 c -0.02747,0 -0.05188,-0.0092 -0.07123,-0.02954 -0.01935,-0.01935 -0.02856,-0.04279 -0.02856,-0.07025 v -5.63892 z m 1.14362,77.0141 h 1.36108 l -2.0661,5.93341 h -1.27551 l -2.05792,-5.93341 h 1.35699 l 1.33667,4.46228 z m -6.14685,55.33215 c 0.19458,0.13043 0.47986,0.25269 0.85785,0.36676 0.6958,0.20886 1.20215,0.46863 1.52002,0.77838 0.31787,0.30969 0.47675,0.6958 0.47675,1.15735 0,0.51343 -0.19458,0.91583 -0.5827,1.20825 -0.38818,0.29242 -0.9118,0.43805 -1.56897,0.43805 -0.45636,0 -0.87207,-0.0835 -1.24695,-0.25061 -0.37494,-0.16705 -0.66119,-0.3963 -0.85785,-0.68665 -0.19659,-0.29034 -0.29541,-0.62756 -0.29541,-1.01062 h 1.22662 c 0,0.65509 0.39117,0.98212 1.17358,0.98212 0.29041,0 0.51758,-0.0591 0.6806,-0.17731 0.16296,-0.11816 0.24451,-0.2832 0.24451,-0.49512 0,-0.23126 -0.08154,-0.40851 -0.24451,-0.5318 -0.16302,-0.12329 -0.45642,-0.25366 -0.88025,-0.39124 -0.42383,-0.13751 -0.75897,-0.27197 -1.00659,-0.40546 -0.6734,-0.36371 -1.01062,-0.85474 -1.01062,-1.47113 0,-0.32092 0.0907,-0.60614 0.271,-0.85779 0.18036,-0.25165 0.44012,-0.44727 0.77838,-0.58887 0.3382,-0.1416 0.7182,-0.21191 1.13898,-0.21191 0.42383,0 0.80182,0.0764 1.13287,0.23022 0.33112,0.15387 0.58887,0.36987 0.77228,0.65002 0.18335,0.28015 0.27502,0.59802 0.27502,0.95355 h -1.22253 c 0,-0.27197 -0.08557,-0.48291 -0.25671,-0.63367 -0.17114,-0.15076 -0.41156,-0.2262 -0.72131,-0.2262 -0.29846,0 -0.53076,0.0632 -0.69684,0.18951 -0.16608,0.12634 -0.2486,0.29242 -0.2486,0.49921 0,0.19257 0.0968,0.35455 0.29138,0.48492 z m -6.68781,-50.56628 c 0.18646,0.17828 0.44318,0.26697 0.77228,0.26697 0.68768,0 1.03607,-0.36169 1.0473,-1.08398 v -3.94885 h 1.22662 v 3.90808 c 0,0.64899 -0.20276,1.16241 -0.60925,1.54041 -0.40649,0.37793 -0.96069,0.56641 -1.66467,0.56641 -0.69281,0 -1.24292,-0.18335 -1.65045,-0.55011 -0.40753,-0.36676 -0.61536,-0.87109 -0.62347,-1.5119 v -3.95288 h 1.22253 v 3.9162 c 0,0.38818 0.09271,0.67139 0.27911,0.84967 z m 8.66986,1.11047 v 0.0571 h -1.31219 l -1.11249,-2.17206 h -0.974 v 2.17206 h -1.22253 v -5.93341 h 2.20465 c 0.70093,0 1.24188,0.15588 1.62189,0.46869 0.38,0.31274 0.57056,0.75391 0.57056,1.3244 0,0.40448 -0.08765,0.74268 -0.26288,1.01263 -0.17523,0.27002 -0.4411,0.48596 -0.79669,0.64594 l 1.28369,2.42468 z m -4.56366,47.38971 v 5.93341 h -1.22253 v -5.93341 z m -4.42151,0 c 0.70093,0 1.24188,0.15588 1.62189,0.46869 0.38,0.31274 0.57056,0.75385 0.57056,1.3244 0,0.40442 -0.08765,0.74268 -0.26288,1.01263 -0.17523,0.27002 -0.4411,0.48596 -0.79669,0.64594 l 1.28369,2.42468 v 0.0571 h -1.31219 l -1.11249,-2.17206 h -0.974 v 2.17206 h -1.22253 v -5.93341 h 2.20465 z m 1.22864,53.16626 v 0.99023 h -2.64069 v 1.53223 h 2.34729 v 0.98621 h -2.34729 v 2.42468 h -1.22253 v -5.93335 z m 1.63416,0 h 1.13287 l 2.22095,5.93335 h -1.29993 l -0.41162,-1.22253 h -2.14349 l -0.40753,1.22253 h -1.29999 z m 7.1499,-183.5462 h 0.96729 c 0.0835,0 0.11102,0.0387 0.0835,0.11609 l -2.14435,5.64703 c -0.0163,0.04993 -0.05499,0.07538 -0.11609,0.07538 h -0.96729 c -0.0835,0 -0.112,-0.0387 -0.0835,-0.11713 l 2.14337,-5.64703 c 0.01624,-0.04993 0.05493,-0.07434 0.11707,-0.07434 z m -8.94202,0 h 1.03455 c 0.05493,0 0.09161,0.02747 0.10791,0.0835 l 0.79218,3.39471 c 0.0061,0.0224 0.01422,0.03259 0.02545,0.03259 0.01117,0 0.01935,-0.01019 0.02441,-0.03259 l 0.76776,-3.3866 c 0.0163,-0.0611 0.05292,-0.09161 0.10895,-0.09161 h 1.00903 c 0.0611,0 0.09979,0.02747 0.11609,0.0835 l 0.83496,3.39471 c 0.0051,0.0163 0.01324,0.02649 0.02441,0.02856 0.01123,0.003 0.01935,-0.0062 0.02545,-0.02856 l 0.76776,-3.3866 c 0.0163,-0.0611 0.05194,-0.09161 0.10791,-0.09161 h 0.98462 c 0.07739,0 0.10797,0.03564 0.09167,0.10791 l -1.36853,5.64709 c -0.0163,0.05597 -0.05493,0.0835 -0.11603,0.0835 h -0.9928 c -0.05597,0 -0.09161,-0.02753 -0.10895,-0.0835 l -0.85022,-3.61163 c -0.0061,-0.0224 -0.01422,-0.03363 -0.02545,-0.03363 -0.01117,0 -0.01935,0.01123 -0.02441,0.03363 l -0.79321,3.60345 c -0.01117,0.0611 -0.04681,0.09167 -0.10791,0.09167 h -0.92657 c -0.0611,0 -0.09979,-0.02753 -0.11609,-0.0835 l -1.47644,-5.64709 -0.0081,-0.03357 c 0,-0.04993 0.03052,-0.07434 0.09161,-0.07434 z m -4.70416,0.09979 c 0,-0.02753 0.0092,-0.05194 0.0285,-0.07129 0.01934,-0.01935 0.04376,-0.0285 0.07129,-0.0285 h 3.85394 c 0.02753,0 0.0509,0.0092 0.07025,0.0285 0.01935,0.01934 0.02954,0.04376 0.02954,0.07129 v 0.80945 c 0,0.02753 -0.01019,0.05096 -0.02954,0.07031 -0.01935,0.01935 -0.04272,0.02948 -0.07025,0.02948 h -2.73596 c -0.0285,0 -0.04175,0.01428 -0.04175,0.04175 v 1.29315 c 0,0.02753 0.01324,0.04175 0.04175,0.04175 h 1.79309 c 0.02753,0 0.0509,0.0092 0.07129,0.0285 0.01935,0.01935 0.0285,0.04382 0.0285,0.07129 v 0.80847 c 0,0.0285 -0.0092,0.05194 -0.0285,0.07129 -0.02039,0.01935 -0.04376,0.02954 -0.07129,0.02954 h -1.79309 c -0.0285,0 -0.04175,0.01318 -0.04175,0.04169 v 1.3512 c 0,0.02753 0.01324,0.04175 0.04175,0.04175 h 2.73596 c 0.02753,0 0.0509,0.0092 0.07025,0.0285 0.01935,0.02039 0.02954,0.04382 0.02954,0.07129 v 0.80951 c 0,0.02747 -0.01019,0.0509 -0.02954,0.07025 -0.01935,0.02032 -0.04272,0.02954 -0.07025,0.02954 h -3.85394 c -0.02753,0 -0.05194,-0.0092 -0.07129,-0.02954 -0.01935,-0.01935 -0.0285,-0.04279 -0.0285,-0.07025 z m 0.98413,77.48279 c 0.41876,0.36676 0.66022,0.88123 0.7254,1.54443 h -1.22253 c -0.02954,-0.38306 -0.13654,-0.66119 -0.31989,-0.83337 -0.18341,-0.17212 -0.46259,-0.25873 -0.83746,-0.25873 -0.40753,0 -0.71216,0.14569 -0.91486,0.43805 -0.20276,0.29242 -0.30664,0.74475 -0.31177,1.35907 v 0.44824 c 0,0.64081 0.0968,1.1095 0.29138,1.40594 0.19458,0.29644 0.50024,0.44421 0.91895,0.44421 0.37793,0 0.65912,-0.0866 0.84558,-0.25879 0.18646,-0.17218 0.29242,-0.43909 0.31989,-0.80078 h 1.22253 c -0.04584,0.63879 -0.28217,1.14105 -0.70703,1.50781 -0.4248,0.36676 -0.98517,0.55011 -1.68097,0.55011 -0.76105,0 -1.35907,-0.25568 -1.7951,-0.76813 -0.43603,-0.51245 -0.65405,-1.21539 -0.65405,-2.10889 v -0.36267 c 0,-0.57056 0.10083,-1.07281 0.30157,-1.50781 0.20068,-0.435 0.48798,-0.76819 0.86188,-1.00043 0.3739,-0.2323 0.80786,-0.34845 1.302,-0.34845 0.68463,0 1.23578,0.18341 1.65448,0.55017 z m -0.6225,126.43475 c 0,3.02124 -2.45789,5.479 -5.47906,5.479 -3.02117,0 -5.47906,-2.45776 -5.47906,-5.479 0,-3.02124 2.45789,-5.479 5.47906,-5.479 3.02117,0 5.47906,2.45782 5.47906,5.479 z M 15.52399,19.81006 c 0,-0.02753 0.0092,-0.05194 0.0285,-0.07129 0.01934,-0.01935 0.04376,-0.0285 0.07123,-0.0285 h 0.97546 c 0.0285,0 0.05194,0.0092 0.07129,0.0285 0.01935,0.01934 0.02954,0.04376 0.02954,0.07129 v 4.68787 c 0,0.02753 0.01324,0.04175 0.04175,0.04175 h 2.72778 c 0.02753,0 0.0509,0.0092 0.07025,0.0285 0.01935,0.02039 0.02954,0.04382 0.02954,0.07129 v 0.80951 c 0,0.02747 -0.01019,0.0509 -0.02954,0.07025 -0.01935,0.02032 -0.04272,0.02954 -0.07025,0.02954 h -3.84583 c -0.02747,0 -0.05188,-0.0092 -0.07123,-0.02954 -0.01935,-0.01935 -0.0285,-0.04279 -0.0285,-0.07025 v -5.63892 z m -5.17157,3.87842 c 0,-0.02753 0.0092,-0.05096 0.02954,-0.07025 0.01935,-0.02039 0.04272,-0.02954 0.07025,-0.02954 h 0.95099 c 0.02753,0 0.05194,0.0092 0.07129,0.02954 0.01935,0.01929 0.0285,0.04272 0.0285,0.07025 v 0.12524 c 0,0.22296 0.10284,0.41034 0.30957,0.56305 0.20465,0.15271 0.48364,0.22913 0.83392,0.22913 0.29425,0 0.51416,-0.06213 0.65875,-0.18738 0.14459,-0.12525 0.21692,-0.27899 0.21692,-0.46332 0,-0.13336 -0.0448,-0.24536 -0.13342,-0.33698 -0.0896,-0.09271 -0.20972,-0.17316 -0.36346,-0.24237 -0.15277,-0.06921 -0.39612,-0.16498 -0.72906,-0.28815 -0.37268,-0.12726 -0.68829,-0.25861 -0.94696,-0.39203 -0.25861,-0.13336 -0.47552,-0.31561 -0.65063,-0.54578 -0.17511,-0.23114 -0.2627,-0.51624 -0.2627,-0.85529 0,-0.33398 0.08551,-0.62518 0.25861,-0.87567 0.17212,-0.25049 0.41138,-0.44189 0.71686,-0.57532 0.30646,-0.13336 0.65875,-0.20056 1.05994,-0.20056 0.42261,0 0.79932,0.07532 1.13025,0.22504 0.33093,0.1507 0.58954,0.36041 0.77588,0.63025 0.1853,0.26984 0.27899,0.58246 0.27899,0.93781 v 0.12524 c 0,0.0285 -0.01019,0.05194 -0.02954,0.07129 -0.01935,0.01935 -0.04272,0.02948 -0.07025,0.02948 h -0.95917 c -0.0285,0 -0.05194,-0.01013 -0.07129,-0.02948 -0.01935,-0.01935 -0.02948,-0.04279 -0.02948,-0.07129 v -0.06622 c 0,-0.23419 -0.09576,-0.43274 -0.28717,-0.59668 -0.19244,-0.16388 -0.45514,-0.2464 -0.78809,-0.2464 -0.26172,0 -0.46637,0.05603 -0.61401,0.16699 -0.14661,0.11102 -0.22095,0.26477 -0.22095,0.45923 0,0.13849 0.04382,0.25555 0.12933,0.35028 0.08655,0.09467 0.21381,0.1792 0.38385,0.25452 0.17004,0.07434 0.43274,0.17621 0.78809,0.3045 0.39508,0.14453 0.70563,0.27185 0.93066,0.38281 0.22504,0.112 0.42767,0.27698 0.60889,0.49689 0.18024,0.21997 0.27087,0.50403 0.27087,0.85535 0,0.52234 -0.19141,0.93469 -0.57532,1.23816 -0.38385,0.30341 -0.90417,0.45514 -1.55988,0.45514 -0.44501,0 -0.83392,-0.07129 -1.16791,-0.21283 C 11.0611,25.26055 10.8045,25.05798 10.62329,24.79424 10.44305,24.52947 10.35242,24.22197 10.35242,23.87169 V 23.68846 Z M 6.52057,56.85962 c 1.03485,-1.0351 2.41077,-1.6051 3.87433,-1.6051 1.46344,0 2.83942,0.57001 3.87421,1.6051 2.00183,2.00171 2.10272,5.16614 0.35278,7.31616 l 1.84857,1.84827 1.10223,-1.10229 1.07654,4.0191 -4.01898,-1.0766 1.1026,-1.10266 -1.84253,-1.84222 c -0.98328,0.82312 -2.19775,1.29346 -3.49542,1.29346 -1.46356,0 -2.83942,-0.57001 -3.87433,-1.60486 -1.03479,-1.03485 -1.60468,-2.41071 -1.60468,-3.87415 0,-1.46344 0.56989,-2.83936 1.60468,-3.87421 z m -3.68158,103.38281 12.74011,-12.74054 -1.10248,-1.10248 4.01917,-1.0766 -1.07666,4.0191 -1.10242,-1.10242 -12.43445,12.43488 v 108.69598 l 3.19562,3.27307 -0.73962,0.73553 -3.49927,-3.57867 V 160.24242 Z m 7.39062,195.87128 c -0.06116,0.55115 -0.33929,0.94952 -0.83441,1.19403 -0.03363,0.0163 -0.03668,0.0336 -0.00916,0.0499 0.41772,0.22821 0.62653,0.59595 0.62653,1.10132 0,0.0509 -0.0061,0.13647 -0.01727,0.25873 -0.06622,0.53998 -0.29547,0.94751 -0.68872,1.22253 -0.39221,0.27612 -0.87415,0.41364 -1.44769,0.41364 H 5.75611 c -0.0285,0 -0.04993,-0.009 -0.0672,-0.0295 -0.0163,-0.0193 -0.02246,-0.0428 -0.0163,-0.0703 l 0.69275,-5.64197 c 0.00507,-0.0275 0.01733,-0.052 0.03772,-0.0713 0.01935,-0.0194 0.04279,-0.0285 0.07025,-0.0285 h 2.03656 c 1.15735,0 1.73602,0.43604 1.73602,1.31012 0,0.12738 -0.0051,0.22516 -0.0163,0.29138 z m 4.38892,4.14032 c -0.0051,0.0275 -0.01733,0.051 -0.03772,0.0703 -0.01935,0.0204 -0.04279,0.0295 -0.07031,0.0295 h -3.73889 c -0.02856,0 -0.04993,-0.009 -0.06726,-0.0295 -0.0163,-0.0194 -0.0224,-0.0428 -0.0163,-0.0703 l 0.69275,-5.64197 c 0.0051,-0.0275 0.01733,-0.052 0.03772,-0.0713 0.01935,-0.0193 0.04279,-0.0285 0.07031,-0.0285 h 0.95154 c 0.02747,0 0.04993,0.009 0.0672,0.0285 0.0163,0.0194 0.02142,0.0438 0.0163,0.0713 l -0.57556,4.69043 c 0,0.0275 0.01117,0.0418 0.03357,0.0418 h 2.64478 c 0.06213,0 0.09271,0.0336 0.09271,0.0998 l -0.10083,0.80994 z m -0.54132,-42.30811 -3.19543,-1.15936 c -0.76355,-0.2771 -1.27704,-1.00861 -1.27704,-1.82159 v -1.70374 c -2.87537,-0.24048 -5.14484,-2.7063 -5.14484,-5.70892 0,-3.16028 2.51434,-5.73169 5.60431,-5.73169 3.08997,0 5.60437,2.57141 5.60437,5.73169 0,3.00262 -2.26953,5.46844 -5.1449,5.70892 v 1.70374 c 0,0.42688 0.27002,0.81201 0.67139,0.9577 l 3.19592,1.15936 c 0.76361,0.27814 1.27704,1.01062 1.27704,1.82257 l -0.0076,0.55457 h -0.91895 l 0.0076,-0.55457 c 0,-0.42688 -0.26996,-0.81299 -0.67188,-0.95868 z m 6.09979,42.31629 c 0,0.0275 -0.0082,0.0499 -0.02448,0.0662 -0.01733,0.0173 -0.0387,0.0254 -0.0672,0.0254 h -1.0351 c -0.04993,0 -0.08051,-0.0275 -0.09167,-0.0836 l -0.14166,-0.81805 c 0,-0.005 -0.0031,-0.0122 -0.0081,-0.0204 -0.0061,-0.008 -0.01428,-0.0132 -0.02545,-0.0132 h -1.99481 c -0.0163,0 -0.03058,0.0122 -0.04175,0.0336 l -0.34131,0.81805 c -0.01733,0.0561 -0.05298,0.0836 -0.10901,0.0836 h -1.0351 c -0.03363,0 -0.05707,-0.0112 -0.07031,-0.0336 -0.01422,-0.0224 -0.01324,-0.0499 0.0041,-0.0835 l 2.44507,-5.64105 c 0.02753,-0.056 0.06726,-0.0835 0.11719,-0.0835 h 1.26837 c 0.04993,0 0.08356,0.0275 0.09985,0.0835 l 1.05139,5.64105 v 0.0255 z m -4.97619,-98.44715 c -3.02112,0 -5.479,-2.45782 -5.479,-5.479 0,-3.02118 2.45789,-5.479 5.479,-5.479 3.02111,0 5.479,2.45782 5.479,5.479 0,3.02118 -2.45789,5.479 -5.479,5.479 z m 10.08435,94.55744 c -0.01117,0.056 -0.04785,0.0866 -0.10901,0.0927 l -0.9505,0.058 h -0.01733 c -0.05603,0 -0.07745,-0.0306 -0.06622,-0.0917 0.0051,-0.0336 0.0082,-0.0805 0.0082,-0.14264 0,-0.25568 -0.07642,-0.45844 -0.22925,-0.60925 -0.15381,-0.14972 -0.36066,-0.2251 -0.6225,-0.2251 -0.28931,0 -0.53278,0.0906 -0.73047,0.27197 -0.19763,0.18036 -0.31274,0.41571 -0.34637,0.70502 l -0.24957,2.01105 c -0.0061,0.0336 -0.0092,0.0805 -0.0092,0.14166 0,0.25061 0.07544,0.45129 0.2262,0.60107 0.14978,0.15076 0.35864,0.22516 0.62555,0.22516 0.28931,0 0.5318,-0.0887 0.72638,-0.26697 0.19458,-0.17829 0.31177,-0.41156 0.35046,-0.70093 0.01123,-0.0611 0.04688,-0.0917 0.10797,-0.0917 l 0.94342,0.0418 c 0.02747,0 0.04993,0.007 0.0672,0.0203 0.01636,0.0143 0.02142,0.0357 0.01636,0.0632 -0.04486,0.38409 -0.17218,0.72333 -0.38409,1.01776 -0.21191,0.29547 -0.48499,0.52368 -0.82214,0.68463 -0.33624,0.16095 -0.7132,0.24249 -1.13086,0.24249 -0.57867,0 -1.0351,-0.15588 -1.36823,-0.46765 -0.33417,-0.31171 -0.50128,-0.72943 -0.50128,-1.25208 0,-0.13342 0.0061,-0.23633 0.01733,-0.30865 l 0.23334,-1.92755 c 0.04987,-0.40143 0.1803,-0.75391 0.39221,-1.06055 0.21088,-0.30566 0.48694,-0.54199 0.82623,-0.70911 0.33923,-0.16705 0.71722,-0.25061 1.13489,-0.25061 0.57867,0 1.03613,0.15076 1.37335,0.45032 0.33618,0.30054 0.50427,0.7019 0.50427,1.20215 0,0.0612 -0.0051,0.15283 -0.0163,0.27509 z m 5.36596,-1.73603 -2.09467,2.37885 c -0.0224,0.0225 -0.0285,0.0418 -0.01727,0.0591 l 1.51898,3.16235 c 0.0061,0.0112 0.0092,0.0285 0.0092,0.0499 0,0.0448 -0.0285,0.0672 -0.0835,0.0672 h -1.06873 c -0.05603,0 -0.09167,-0.0224 -0.10797,-0.0672 l -1.1441,-2.40332 c -0.0051,-0.0112 -0.01324,-0.0163 -0.02448,-0.0163 -0.01117,0 -0.0224,0.005 -0.03363,0.0163 l -0.5929,0.65912 -0.02448,0.0499 -0.20068,1.66162 c -0.0051,0.0275 -0.01837,0.051 -0.03772,0.0703 -0.01935,0.0204 -0.04279,0.0295 -0.07025,0.0295 h -0.9516 c -0.0285,0 -0.04987,-0.009 -0.0672,-0.0295 -0.0163,-0.0194 -0.0224,-0.0428 -0.0163,-0.0703 l 0.69275,-5.64197 c 0.0051,-0.0275 0.01733,-0.052 0.03772,-0.0713 0.01935,-0.0193 0.04279,-0.0285 0.07025,-0.0285 h 0.9516 c 0.02747,0 0.04987,0.009 0.0672,0.0285 0.0163,0.0194 0.02142,0.0438 0.0163,0.0713 l -0.2832,2.33704 c -0.0061,0.0163 -0.0031,0.0265 0.0081,0.0286 0.01123,0.003 0.02246,-0.001 0.03363,-0.0123 l 2.16901,-2.39514 c 0.03363,-0.0387 0.07538,-0.058 0.12531,-0.058 h 1.06873 c 0.05499,0 0.0835,0.0194 0.0835,0.058 0,0.0224 -0.01117,0.0449 -0.03357,0.0662 z m 0.04853,-151.38 h 1.2226 v 4.95123 h 2.59583 v 0.98212 h -3.81842 v -5.93335 z m 6.02746,156.99756 c -0.0051,0.0275 -0.01831,0.051 -0.03766,0.0703 -0.01941,0.0204 -0.04279,0.0295 -0.07031,0.0295 h -0.91895 c -0.04993,0 -0.08252,-0.0224 -0.09985,-0.0672 l -1.66058,-3.5719 c -0.0062,-0.0163 -0.01428,-0.0234 -0.02551,-0.0204 -0.01117,0.003 -0.01935,0.0153 -0.02441,0.0377 l -0.41772,3.52191 c -0.0051,0.0275 -0.01831,0.051 -0.03772,0.0703 -0.01935,0.0204 -0.04279,0.0295 -0.07025,0.0295 h -0.95154 c -0.02856,0 -0.04993,-0.009 -0.06726,-0.0295 -0.0163,-0.0193 -0.0224,-0.0428 -0.0163,-0.0703 l 0.69275,-5.64197 c 0.0051,-0.0275 0.01733,-0.052 0.03772,-0.0713 0.01935,-0.0194 0.04279,-0.0285 0.07031,-0.0285 h 0.91791 c 0.0509,0 0.08661,0.0214 0.10901,0.0662 l 1.65247,3.55554 c 0.0051,0.0163 0.01428,0.0234 0.02545,0.0204 0.01019,-0.002 0.01935,-0.0153 0.02448,-0.0367 l 0.41766,-3.50562 c 0.0051,-0.0275 0.01733,-0.052 0.03772,-0.0713 0.01935,-0.0194 0.04279,-0.0285 0.07031,-0.0285 h 0.95154 c 0.02753,0 0.04993,0.009 0.0672,0.0285 0.01636,0.0193 0.02142,0.0438 0.01636,0.0713 l -0.69281,5.64197 z m 5.60028,-3.71448 -0.21704,1.78595 c -0.04993,0.41772 -0.18335,0.7865 -0.40039,1.10638 -0.21698,0.31989 -0.49817,0.56848 -0.84351,0.74677 -0.34436,0.17828 -0.72845,0.26691 -1.15125,0.26691 -0.57867,0 -1.03918,-0.16296 -1.38147,-0.48798 -0.34229,-0.32599 -0.51349,-0.76105 -0.51349,-1.30609 0,-0.0999 0.0082,-0.20886 0.02551,-0.32599 l 0.21698,-1.78595 c 0.04993,-0.41156 0.18341,-0.77631 0.40039,-1.09314 0.21698,-0.31683 0.49615,-0.56335 0.83844,-0.73859 0.34235,-0.17523 0.7254,-0.26288 1.14819,-0.26288 0.58374,0 1.0473,0.16199 1.38959,0.48395 0.34131,0.32294 0.51245,0.75079 0.51245,1.28571 0,0.10596 -0.0081,0.21393 -0.02441,0.32495 z m 1.56891,3.71448 c -0.0051,0.0275 -0.01831,0.051 -0.03772,0.0703 -0.01935,0.0204 -0.04279,0.0295 -0.07025,0.0295 h -0.95154 c -0.02856,0 -0.04993,-0.009 -0.06726,-0.0295 -0.0163,-0.0194 -0.0224,-0.0428 -0.0163,-0.0703 l 0.69275,-5.64197 c 0.0051,-0.0275 0.01733,-0.052 0.03772,-0.0713 0.01935,-0.0193 0.04279,-0.0285 0.07031,-0.0285 h 0.95154 c 0.02747,0 0.04993,0.009 0.0672,0.0285 0.0163,0.0194 0.02142,0.0438 0.0163,0.0713 z m 5.45862,-4.01502 -0.01727,0.12531 c -0.0051,0.0286 -0.01733,0.052 -0.03668,0.0713 -0.02039,0.0193 -0.04382,0.0295 -0.07135,0.0295 h -0.93524 c -0.02747,0 -0.04993,-0.0102 -0.06622,-0.0295 -0.01733,-0.0194 -0.0224,-0.0428 -0.01733,-0.0713 l 0.0092,-0.0662 c 0.02747,-0.23431 -0.04077,-0.43298 -0.20477,-0.59698 -0.16406,-0.164 -0.41058,-0.24652 -0.73865,-0.24652 -0.27301,0 -0.49005,0.0631 -0.651,0.18848 -0.16095,0.12427 -0.24249,0.29541 -0.24249,0.51245 0,0.12323 0.03973,0.22614 0.11719,0.30969 0.07843,0.0825 0.19354,0.16095 0.34637,0.23328 0.15283,0.0723 0.38513,0.17017 0.69684,0.29242 0.3454,0.13855 0.61334,0.25671 0.80591,0.35449 0.19153,0.0968 0.36572,0.24353 0.52161,0.43811 0.15485,0.19458 0.23328,0.43909 0.23328,0.73456 0,0.0387 -0.0051,0.10797 -0.0163,0.2088 -0.06726,0.52264 -0.30463,0.93524 -0.71417,1.23889 -0.40851,0.30359 -0.93011,0.45538 -1.56482,0.45538 -0.6062,0 -1.08301,-0.13654 -1.4314,-0.40955 -0.34741,-0.27203 -0.52161,-0.64288 -0.52161,-1.1095 0,-0.0509 0.0061,-0.12531 0.01727,-0.22614 l 0.02448,-0.18341 c 0.0061,-0.0275 0.01831,-0.0509 0.03772,-0.0702 0.01935,-0.0204 0.04279,-0.0295 0.07129,-0.0295 h 0.92609 c 0.02747,0 0.04993,0.009 0.0672,0.0295 0.0163,0.0193 0.02142,0.0428 0.0163,0.0702 l -0.0163,0.12531 c -0.0285,0.22314 0.04791,0.41058 0.22925,0.56342 0.1803,0.15283 0.44116,0.22925 0.7804,0.22925 0.31177,0 0.54608,-0.0693 0.70502,-0.20782 0.15894,-0.13959 0.23834,-0.30975 0.23834,-0.5094 0,-0.12225 -0.04071,-0.22516 -0.12122,-0.30872 -0.08044,-0.0836 -0.18951,-0.1579 -0.32599,-0.22107 -0.13654,-0.0642 -0.3515,-0.15485 -0.64691,-0.27203 -0.32196,-0.12225 -0.59497,-0.24243 -0.81708,-0.36267 -0.22314,-0.1192 -0.40955,-0.27917 -0.55933,-0.47986 -0.15076,-0.20068 -0.22516,-0.44824 -0.22516,-0.74268 0,-0.0387 0.0051,-0.10901 0.0163,-0.20886 0.06116,-0.50635 0.29242,-0.90771 0.69281,-1.20624 0.40033,-0.29749 0.89551,-0.44623 1.48535,-0.44623 0.37799,0 0.71313,0.0652 1.00555,0.19666 0.29236,0.13037 0.51752,0.31378 0.67645,0.55011 0.1579,0.23639 0.23737,0.51349 0.23737,0.83032 0,0.0448 -0.0051,0.11713 -0.0163,0.21698 z m 4.87286,-0.81707 c -0.0051,0.0275 -0.01837,0.051 -0.03772,0.0703 -0.01935,0.0193 -0.04279,0.0295 -0.07025,0.0295 h -2.66315 c -0.01117,0 -0.02032,0.004 -0.0285,0.0123 -0.0082,0.008 -0.01324,0.0183 -0.01324,0.0295 l -0.1579,1.29382 c 0,0.0275 0.01117,0.0418 0.03363,0.0418 h 1.74414 c 0.02753,0 0.04993,0.009 0.06622,0.0286 0.01733,0.0194 0.0224,0.0438 0.01733,0.0713 l -0.10089,0.80896 c -0.0051,0.0285 -0.01831,0.0519 -0.03766,0.0713 -0.01941,0.0193 -0.04285,0.0295 -0.07031,0.0295 h -1.74414 c -0.02856,0 -0.04181,0.0132 -0.04181,0.0417 l -0.16705,1.35193 c 0,0.0275 0.01117,0.0418 0.03363,0.0418 h 2.65393 c 0.0611,0 0.09167,0.0336 0.09167,0.0998 l -0.10089,0.80994 c -0.0051,0.0275 -0.01727,0.051 -0.03668,0.0703 -0.02032,0.0204 -0.04376,0.0295 -0.07129,0.0295 h -3.74707 c -0.02856,0 -0.04993,-0.009 -0.06726,-0.0295 -0.0163,-0.0194 -0.0224,-0.0428 -0.0163,-0.0703 l 0.69275,-5.64197 c 0.0051,-0.0275 0.01733,-0.052 0.03772,-0.0713 0.01935,-0.0193 0.04279,-0.0285 0.07031,-0.0285 h 3.73889 c 0.02856,0 0.052,0.009 0.07135,0.0285 0.01935,0.0193 0.02649,0.0438 0.02039,0.0713 z m -9.45501,-10.90863 c -7.34943,0 -13.30737,-5.95782 -13.30737,-13.30731 0,-7.34106 5.94458,-13.29242 13.28241,-13.30609 0.22406,-0.32184 0.54413,-0.57672 0.92847,-0.716 l 3.19495,-1.15936 c 0.40192,-0.14569 0.67188,-0.53082 0.67188,-0.9577 v -1.80328 c -2.89642,-0.21851 -5.1897,-2.69312 -5.1897,-5.71124 0,-3.16028 2.51434,-5.73169 5.60431,-5.73169 3.08997,0 5.60382,2.57141 5.60382,5.73169 0,2.98712 -2.2453,5.44458 -5.09949,5.7066 v 1.80792 c 0,0.81299 -0.51349,1.54449 -1.27759,1.82159 l -2.99615,1.08728 c 6.68365,0.70709 11.89191,6.35925 11.89191,13.23029 0,7.34949 -5.95789,13.30731 -13.30743,13.30731 z"
         fill="url(#uuid-54b3a313-c64c-4d2f-906d-08dac24f448a)"
         id="path15"
         sodipodi:nodetypes="cccccccccccccccccccccccccccccccccccccccccccccccccccccccccccssssssssssssccccccccssssscsccccccccsccsscccccccscscssscsscsssccsccscscssssssssssssscsscsssscsscscccsssssssscsscsscscccccccccccccscsccccssssccscssccccsssscccscccscsscccsccccccccccscscccccccccscscccccccccccsccccccccccccccccccccssccssccscsccsccsscccccssccssccsccsscccccsssssssssssssscsscsssssscsscsscssscccsscsssscccssssccsssssssscsssssssscsscsscsccccsscsscssscccccsccsccsssssssscscscccccscsccscccsccccccccscsccccccccccccccsccsccssccccsssssscssccccsscccssccsccscssscsccccccscsssscccssccsscccsscccsssssssccscscscccscsscccccccscscccsscsssccccsssccscccccssccccssccccccsssscccccccccscssccccccssccccssccccccsscccsccscscsccssscsscccssccccssccccccsscccsscscscccsccscscccssccccscssccccsccsccssccssssccsscccsssccsscccssccccsssccsscccscssscsccsss" />
      <path
         d="M8.15131,357.86707h-1.00146c-.02856,0-.04181.01324-.04181.04175l-.17523,1.38556c0,.02747.01123.04175.03363.04175h1.01776c.27301,0,.48798-.07642.64691-.23022.15894-.15283.23743-.36267.23743-.62964,0-.19458-.06219-.34534-.1875-.45129-.12531-.10492-.30157-.1579-.52972-.1579Z"
         fill="#181818"
         id="path16" />
      <path
         d="M8.38458,355.52179h-.95154c-.01123,0-.02039.00409-.02856.01227-.00812.00812-.01324.01831-.01324.02954l-.1579,1.302c-.01117.02747,0,.04175.03363.04175h.9505c.25067,0,.45337-.06012.60925-.17932.15588-.12018.24756-.28827.27612-.50531l.00812-.09985c0-.18945-.06213-.33722-.18744-.44318-.12531-.10492-.30463-.1579-.53894-.1579Z"
         fill="#181818"
         id="path17" />
      <path
         d="M18.19952,355.95172c-.01117.00305-.01935.01221-.02545.02856l-1.01776,2.4787c-.0061.03357.00305.0509.02441.0509h1.42737c.0285,0,.04175-.01733.04175-.0509l-.42584-2.4787c-.00513-.02142-.01324-.03162-.02448-.02856Z"
         fill="#181818"
         id="path18" />
      <path
         d="M40.32446,355.45459c-.29547,0-.54608.09882-.75189.29645s-.32806.4574-.36676.7804l-.22516,1.83582c-.0061.03973-.00812.09784-.00812.17523,0,.27307.07739.49005.23328.651.15588.16199.36676.24249.6347.24249.30054,0,.55219-.09778.75494-.29242.2027-.19458.32703-.45331.37183-.77631l.22516-1.83582c.00513-.03876.00818-.0968.00818-.17523,0-.27814-.07849-.49817-.23334-.65918-.15588-.16095-.37085-.24243-.64282-.24243Z"
         fill="#181818"
         id="path19" />
    </g>
  </g>
  <path
     fill="#4d4d4d"
     d="m 9.9891065,302.72112 c -2.58362,0 -4.68536,2.15881 -4.68536,4.81274 0,2.65393 2.10175,4.81378 4.68536,4.81378 2.5836795,0 4.6854195,-2.15985 4.6854195,-4.81378 0,-2.65393 -2.10174,-4.81274 -4.6854195,-4.81274 z m 0.6112695,7.77966 H 9.3778365 v -5.93341 h 1.2225295 v 5.93341 z"
     id="path1" />
  <g
     id="g2"
     transform="translate(45.187368,302.44837)">
	<path
   fill="#4d4d4d"
   d="m 4.69158,0.25570742 c -2.58362,0 -4.68536,2.15880988 -4.68536,4.81273988 0,2.65393 2.10175,4.81378 4.68536,4.81378 2.58313,0 4.68488,-2.15985 4.68488,-4.81378 0,-2.65393 -2.10175,-4.81273988 -4.68488,-4.81273988 z M 7.21795,5.2031573 c 0,0.58374 -0.10339,1.09619 -0.30969,1.53632 -0.2063,0.44013 -0.50177,0.77936 -0.88636,1.0188 -0.38458,0.23938 -0.8252,0.35858 -1.32239,0.35858 -0.49152,0 -0.93066,-0.11816 -1.31622,-0.35455 -0.38562,-0.23633 -0.68463,-0.57355 -0.89654,-1.01264 -0.21191,-0.43909 -0.3194,-0.94342 -0.32196,-1.51392 v -0.2934 c 0,-0.5838 0.10547,-1.09827 0.31586,-1.54248 0.21038,-0.44414 0.50787,-0.78545 0.89245,-1.02282 0.38458,-0.23737 0.82367,-0.35657 1.3183,-0.35657 0.49463,0 0.93372,0.1192 1.3183,0.35657 0.38458,0.23737 0.68207,0.57867 0.89246,1.02283 0.21039,0.44421 0.3158,0.95667 0.3158,1.53839 v 0.26489 z"
   id="path1-4" />

	<path
   fill="#4d4d4d"
   d="m 4.6914,2.89421 c -0.4101,0 -0.72693,0.15997 -0.94952,0.47882 -0.2226,0.31891 -0.3357,0.78754 -0.33826,1.40387 v 0.28937 c 0,0.60614 0.11157,1.07581 0.33417,1.40997 0.2226,0.33416 0.54351,0.50129 0.96173,0.50129 0.4101,0 0.7254,-0.16101 0.94543,-0.48291 C 5.86504,6.17266 5.97655,5.70299 5.97912,5.08666 V 4.79729 C 5.97912,4.17485 5.86755,3.70214 5.64495,3.37914 5.42236,3.0562 5.10449,2.89421 4.6914,2.89421 Z"
   id="path2" />

</g>
</svg>
