<?xml version="1.0" encoding="UTF-8" standalone="no"?>
<!-- Created with Inkscape (http://www.inkscape.org/) -->

<svg
   width="20.32mm"
   height="128.5mm"
   viewBox="0 0 20.32 128.5"
   version="1.1"
   id="svg10419"
   inkscape:version="1.2.1 (9c6d41e, 2022-07-14)"
   sodipodi:docname="Slew_LFO.svg"
   xmlns:inkscape="http://www.inkscape.org/namespaces/inkscape"
   xmlns:sodipodi="http://sodipodi.sourceforge.net/DTD/sodipodi-0.dtd"
   xmlns="http://www.w3.org/2000/svg"
   xmlns:svg="http://www.w3.org/2000/svg">
  <sodipodi:namedview
     id="namedview10421"
     pagecolor="#ffffff"
     bordercolor="#666666"
     borderopacity="1.0"
     inkscape:showpageshadow="2"
     inkscape:pageopacity="0.0"
     inkscape:pagecheckerboard="0"
     inkscape:deskcolor="#d1d1d1"
     inkscape:document-units="mm"
     showgrid="false"
     inkscape:zoom="1.2938725"
     inkscape:cx="-43.667363"
     inkscape:cy="291.75981"
     inkscape:window-width="1390"
     inkscape:window-height="1205"
     inkscape:window-x="767"
     inkscape:window-y="25"
     inkscape:window-maximized="0"
     inkscape:current-layer="layer5" />
  <defs
     id="defs10416">
    <linearGradient
       id="uuid-1fd2844f-1225-48b8-94c3-9f46fcf4c71e"
       x1="30"
       y1="0"
       x2="30"
       y2="379.99997"
       gradientUnits="userSpaceOnUse"
       gradientTransform="scale(1.0015045)">
      <stop
         offset="0"
         stop-color="#2a2a2b"
         id="stop2" />
      <stop
         offset="1"
         stop-color="#171717"
         id="stop4" />
    </linearGradient>
    <linearGradient
       id="uuid-1fd2844f-1225-48b8-94c3-9f46fcf4c71e-1"
       x1="30"
       y1="0"
       x2="30"
       y2="379.99997"
       gradientUnits="userSpaceOnUse">
      <stop
         offset="0"
         stop-color="#2a2a2b"
         id="stop2-0" />
      <stop
         offset="1"
         stop-color="#171717"
         id="stop4-1" />
    </linearGradient>
    <linearGradient
       id="uuid-5cf686d5-1078-445f-bc3c-005a9caab66f"
       x1="30"
       y1="0"
       x2="30"
       y2="379.99945"
       gradientUnits="userSpaceOnUse">
      <stop
         offset="0"
         stop-color="#2a2a2b"
         id="stop2-4" />
      <stop
         offset="1"
         stop-color="#171717"
         id="stop4-9" />
    </linearGradient>
  </defs>
  <g
     inkscape:groupmode="layer"
     id="layer5"
     inkscape:label="background">
    <g
       id="uuid-17962ed4-e9fc-4a7d-b59c-4982dca8d702"
       data-name="FND BG"
       transform="scale(0.33866667)"
       inkscape:label="uuid-17962ed4-e9fc-4a7d-b59c-4982dca8d702"
       style="display:inline">
      <path
         d="M 59.9723,365.21384 V 13.60305 h -7.7e-4 V 0 H 0 v 14.78585 h 7.7e-4 v 351.6108 h 0.0277 v 13.60279 H 60 v -14.7856 z"
         fill="url(#uuid-5cf686d5-1078-445f-bc3c-005a9caab66f)"
         stroke-width="0"
         id="path9"
         style="fill:url(#uuid-5cf686d5-1078-445f-bc3c-005a9caab66f)" />
    </g>
    <g
       id="uuid-867557dc-8821-4ef6-8875-fc161217e56b"
       data-name="FND GRAPH"
       transform="scale(0.3381584)"
       style="display:inline">
      <g
         id="g28">
        <path
           d="m 12.5676,22.65641 c -0.67138,-0.19255 -1.15938,-0.42993 -1.46501,-0.71111 -0.30563,-0.28118 -0.45845,-0.62859 -0.45845,-1.0412 0,-0.46762 0.18644,-0.85374 0.56033,-1.15938 0.37389,-0.30564 0.85883,-0.45845 1.45686,-0.45845 0.40751,0 0.77122,0.07845 1.0901,0.23636 0.31888,0.15791 0.56644,0.37491 0.74167,0.65202 0.17523,0.27711 0.26285,0.57969 0.26285,0.90875 h -0.7865 c 0,-0.35963 -0.1141,-0.64285 -0.34231,-0.84865 -0.22821,-0.2058 -0.55014,-0.30869 -0.96581,-0.30869 -0.38612,0 -0.68666,0.08558 -0.90264,0.2547 -0.21598,0.17116 -0.32397,0.40649 -0.32397,0.70907 0,0.24247 0.1029,0.44725 0.30767,0.61433 0.20477,0.16708 0.55422,0.3199 1.04731,0.45947 0.49309,0.13855 0.87921,0.29137 1.15734,0.45845 0.27813,0.16708 0.48494,0.36167 0.61942,0.58478 0.13448,0.22311 0.20172,0.48494 0.20172,0.7865 0,0.48087 -0.18746,0.86597 -0.56237,1.1553 -0.37491,0.28933 -0.87615,0.434 -1.50372,0.434 -0.40751,0 -0.78752,-0.07845 -1.14104,-0.23432 -0.35352,-0.15587 -0.62553,-0.36982 -0.81706,-0.64183 -0.19153,-0.27201 -0.2873,-0.57969 -0.2873,-0.92505 h 0.7865 c 0,0.35861 0.13244,0.64183 0.39733,0.84967 0.26489,0.20784 0.6184,0.31175 1.06157,0.31175 0.41261,0 0.72945,-0.08456 0.94951,-0.25266 0.22006,-0.1681 0.33009,-0.39834 0.33009,-0.6887 0,-0.29036 -0.10188,-0.5155 -0.30563,-0.67443 -0.20375,-0.15893 -0.57357,-0.31582 -1.10844,-0.47068 z"
           fill="#ffffff"
           stroke-width="0"
           id="path12" />
        <path
           d="m 16.55715,24.66138 h 2.81184 v 0.6398 h -3.59834 v -5.93339 h 0.7865 v 5.2936 z"
           fill="#ffffff"
           stroke-width="0"
           id="path14" />
        <path
           d="m 23.61528,22.55861 h -2.57141 v 2.10277 h 2.98707 v 0.6398 h -3.7695 v -5.93339 h 3.72875 v 0.6398 h -2.94632 v 1.91124 h 2.57141 v 0.6398 z"
           fill="#ffffff"
           stroke-width="0"
           id="path16" />
        <path
           d="m 26.28449,23.43069 0.1141,0.78243 0.16708,-0.705 1.17364,-4.14033 h 0.66017 l 1.14511,4.14033 0.16301,0.71722 0.12633,-0.79873 0.92098,-4.05883 h 0.7865 l -1.43852,5.93339 h -0.71315 l -1.22254,-4.32372 -0.09373,-0.45234 -0.09373,0.45234 -1.26737,4.32372 h -0.71315 l -1.43445,-5.93339 h 0.78243 l 0.93728,4.06291 z"
           fill="#ffffff"
           stroke-width="0"
           id="path18" />
        <path
           d="m 32.44202,25.81057 h -0.64795 l 2.47768,-6.44278 h 0.64387 l -2.47361,6.44278 z"
           fill="#ffffff"
           stroke-width="0"
           id="path20" />
        <path
           d="m 36.63533,24.66138 h 2.81184 v 0.6398 h -3.59834 v -5.93339 h 0.7865 v 5.2936 z"
           fill="#ffffff"
           stroke-width="0"
           id="path22" />
        <path
           d="m 43.61195,22.68086 h -2.48991 v 2.62031 h -0.78243 v -5.93339 h 3.67577 v 0.6398 h -2.89334 v 2.03349 h 2.48991 v 0.6398 z"
           fill="#ffffff"
           stroke-width="0"
           id="path24" />
        <path
           d="m 49.51682,22.52601 c 0,0.58173 -0.0978,1.08908 -0.29341,1.52206 -0.19561,0.43298 -0.47272,0.76409 -0.83133,0.99229 -0.35861,0.2282 -0.77733,0.34231 -1.25514,0.34231 -0.46762,0 -0.88125,-0.11512 -1.24292,-0.34435 -0.36167,-0.22923 -0.64183,-0.55727 -0.84151,-0.98211 -0.19968,-0.42484 -0.30258,-0.91792 -0.30767,-1.47724 v -0.42789 c 0,-0.57052 0.09882,-1.07482 0.29748,-1.51187 0.19866,-0.43705 0.47883,-0.77224 0.84151,-1.00452 0.36268,-0.23228 0.77733,-0.34842 1.24495,-0.34842 0.47577,0 0.89449,0.11512 1.25718,0.34435 0.36269,0.22923 0.64183,0.56237 0.83744,0.99841 0.19561,0.43604 0.29341,0.94339 0.29341,1.52206 V 22.526 Z m -0.77835,-0.38306 c 0,-0.70398 -0.14161,-1.24393 -0.42381,-1.61986 -0.2822,-0.37593 -0.67749,-0.56441 -1.18586,-0.56441 -0.49411,0 -0.88328,0.18847 -1.16753,0.56441 -0.28425,0.37594 -0.42993,0.89857 -0.43808,1.56689 v 0.43604 c 0,0.68157 0.14365,1.21745 0.42993,1.60764 0.28628,0.39019 0.68157,0.58478 1.18383,0.58478 0.50532,0 0.89653,-0.1844 1.17364,-0.55218 0.27711,-0.36778 0.41974,-0.89551 0.42789,-1.58319 v -0.44011 z"
           fill="#ffffff"
           stroke-width="0"
           id="path26" />
      </g>
      <g
         id="g50">
        <path
           d="m 5.032,360.32925 v -5.75626 h 2.01627 c 0.69818,0 1.22795,0.13363 1.5893,0.40167 0.36135,0.26725 0.54163,0.65944 0.54163,1.17576 0,0.28228 -0.07274,0.53056 -0.21744,0.74563 -0.1447,0.21428 -0.34632,0.37163 -0.60488,0.47204 0.29493,0.0735 0.52739,0.22298 0.69818,0.44674 0.16921,0.22377 0.2546,0.49814 0.2546,0.82232 0,0.55349 -0.17632,0.97255 -0.52977,1.2572 -0.35345,0.28465 -0.85632,0.42935 -1.51023,0.43488 H 5.03199 Z m 1.18604,-3.34464 h 0.87767 c 0.59856,-0.0103 0.89744,-0.24907 0.89744,-0.71558 0,-0.26093 -0.07591,-0.44832 -0.22693,-0.56377 -0.15181,-0.11386 -0.39139,-0.17158 -0.71795,-0.17158 H 6.21804 v 1.45092 z m 0,0.83814 v 1.55372 h 1.01604 c 0.27912,0 0.49735,-0.0664 0.6539,-0.20005 0.15735,-0.13284 0.23563,-0.31628 0.23563,-0.55111 0,-0.52739 -0.27279,-0.79465 -0.81837,-0.80256 H 6.21803 Z"
           fill="#ffffff"
           stroke-width="0"
           id="path30" />
        <path
           d="m 11.38523,359.37646 h 2.51836 v 0.95279 h -3.7044 v -5.75626 h 1.18604 z"
           fill="#ffffff"
           stroke-width="0"
           id="path32" />
        <path
           d="m 17.90846,359.14321 h -2.07953 l -0.39535,1.18604 h -1.26116 l 2.14278,-5.75626 h 1.09907 l 2.15464,5.75626 h -1.26116 l -0.3993,-1.18604 z m -1.75929,-0.9607 h 1.43906 l -0.72349,-2.15464 -0.71558,2.15464 z"
           fill="#ffffff"
           stroke-width="0"
           id="path34" />
        <path
           d="m 24.54239,358.41181 c -0.04507,0.61911 -0.27358,1.10697 -0.68553,1.46279 -0.41274,0.35581 -0.95674,0.53372 -1.6312,0.53372 -0.73772,0 -1.31809,-0.24828 -1.7419,-0.74483 -0.42223,-0.49735 -0.63414,-1.17893 -0.63414,-2.04632 v -0.35186 c 0,-0.55349 0.09726,-1.04134 0.29256,-1.46279 0.1953,-0.42145 0.47363,-0.74563 0.83655,-0.97018 0.36214,-0.22614 0.78279,-0.33842 1.26274,-0.33842 0.66418,0 1.19948,0.17791 1.60511,0.53372 0.40563,0.35581 0.64046,0.85553 0.70372,1.49837 h -1.18604 c -0.02926,-0.37163 -0.13205,-0.64125 -0.31074,-0.80809 -0.17712,-0.16763 -0.44832,-0.25144 -0.81204,-0.25144 -0.39535,0 -0.69107,0.14153 -0.88795,0.42539 -0.19609,0.28307 -0.29651,0.72269 -0.30205,1.31809 v 0.43488 c 0,0.62228 0.09409,1.07693 0.28307,1.36395 0.18819,0.28702 0.48549,0.43093 0.89111,0.43093 0.36609,0 0.63967,-0.0838 0.81995,-0.25065 0.18107,-0.16763 0.28465,-0.42698 0.31074,-0.77725 h 1.18604 z"
           fill="#ffffff"
           stroke-width="0"
           id="path36" />
        <path
           d="m 27.12401,358.02042 -0.61674,0.66418 v 1.64464 h -1.18604 v -5.75626 h 1.18604 v 2.60929 l 0.52186,-0.71558 1.46674,-1.89371 h 1.45883 l -2.04395,2.5579 2.10325,3.19836 h -1.41139 l -1.4786,-2.30883 z"
           fill="#ffffff"
           stroke-width="0"
           id="path38" />
        <path
           d="m 37.15793,360.32925 h -1.18604 l -2.30883,-3.78743 v 3.78743 h -1.18604 v -5.75626 h 1.18604 l 2.31278,3.79533 v -3.79533 h 1.18209 z"
           fill="#ffffff"
           stroke-width="0"
           id="path40" />
        <path
           d="m 42.92209,357.58158 c 0,0.56693 -0.10042,1.06348 -0.30046,1.49046 -0.20005,0.42698 -0.48707,0.75669 -0.86028,0.98837 -0.37242,0.23167 -0.80018,0.34791 -1.28251,0.34791 -0.47679,0 -0.90297,-0.11465 -1.27697,-0.34395 -0.374,-0.2293 -0.66418,-0.55665 -0.86976,-0.98283 -0.20558,-0.42539 -0.30995,-0.91483 -0.31232,-1.46832 v -0.28465 c 0,-0.56693 0.102,-1.06507 0.30679,-1.49679 0.204,-0.43014 0.4926,-0.76144 0.86502,-0.99153 0.37321,-0.23088 0.79939,-0.34632 1.27934,-0.34632 0.47995,0 0.90614,0.11544 1.27934,0.34632 0.37242,0.23009 0.66102,0.56139 0.86502,0.99153 0.20479,0.43172 0.30679,0.92907 0.30679,1.49283 v 0.25698 z m -1.20186,-0.26093 c 0,-0.6033 -0.10833,-1.0619 -0.32418,-1.37581 -0.21585,-0.31391 -0.52423,-0.47046 -0.92511,-0.47046 -0.39772,0 -0.7053,0.15498 -0.92116,0.46493 -0.21586,0.30916 -0.32577,0.76302 -0.32814,1.36158 v 0.2807 c 0,0.58749 0.10833,1.04372 0.32418,1.3679 0.21586,0.32418 0.52739,0.48628 0.93302,0.48628 0.39772,0 0.70372,-0.15656 0.91721,-0.46809 0.21349,-0.31312 0.32181,-0.76776 0.32418,-1.36632 v -0.2807 z"
           fill="#ffffff"
           stroke-width="0"
           id="path42" />
        <path
           d="m 45.04511,360.32925 h -1.18604 v -5.75626 h 1.18604 z"
           fill="#ffffff"
           stroke-width="0"
           id="path44" />
        <path
           d="m 49.12904,358.81902 c 0,-0.22377 -0.07907,-0.39614 -0.23721,-0.51553 -0.15814,-0.12019 -0.44279,-0.2467 -0.85395,-0.37953 -0.41116,-0.13363 -0.73693,-0.26488 -0.97651,-0.39377 -0.6539,-0.35344 -0.98046,-0.82865 -0.98046,-1.4272 0,-0.31074 0.08777,-0.58828 0.26251,-0.8326 0.17553,-0.24353 0.42698,-0.43409 0.7559,-0.57088 0.32735,-0.13679 0.69581,-0.20558 1.1046,-0.20558 0.41116,0 0.77725,0.0743 1.09907,0.22298 0.32181,0.14944 0.57167,0.35977 0.74879,0.63097 0.1787,0.27121 0.26725,0.57958 0.26725,0.92511 h -1.18604 c 0,-0.2633 -0.08302,-0.46809 -0.24907,-0.61516 -0.16605,-0.14549 -0.3993,-0.21902 -0.69976,-0.21902 -0.29018,0 -0.51553,0.0609 -0.67604,0.18423 -0.16051,0.12177 -0.24116,0.28386 -0.24116,0.48391 0,0.18739 0.09409,0.34395 0.28307,0.47046 0.18819,0.12651 0.46572,0.24512 0.83181,0.35581 0.67446,0.20321 1.16627,0.45465 1.47465,0.75511 0.30838,0.30046 0.46256,0.67446 0.46256,1.12279 0,0.49814 -0.18819,0.88874 -0.56535,1.17181 -0.37716,0.28386 -0.884,0.42539 -1.52209,0.42539 -0.44279,0 -0.84604,-0.0806 -1.20976,-0.24353 -0.36372,-0.1613 -0.64125,-0.38349 -0.83181,-0.66576 -0.19135,-0.28228 -0.28702,-0.60883 -0.28702,-0.98046 h 1.19 c 0,0.63493 0.37953,0.95279 1.1386,0.95279 0.28228,0 0.50209,-0.0577 0.66023,-0.17158 0.15814,-0.11544 0.23721,-0.27516 0.23721,-0.48074 z"
           fill="#ffffff"
           stroke-width="0"
           id="path46" />
        <path
           d="m 54.58484,357.83461 h -2.2772 v 1.54185 h 2.67255 v 0.95279 H 51.1216 v -5.75626 h 3.85068 v 0.96069 h -2.66464 v 1.37186 h 2.2772 z"
           fill="#ffffff"
           stroke-width="0"
           id="path48" />
      </g>
      <g
         id="g56">
        <path
           d="m 49.95773,313.28503 c -3.08997,0 -5.60433,-2.57141 -5.60433,-5.73269 0,-3.16026 2.51436,-5.73167 5.60433,-5.73167 3.08997,0 5.60382,2.57141 5.60382,5.73167 0,3.16128 -2.51385,5.73269 -5.60382,5.73269 z m 0,-10.54543 c -2.58363,0 -4.68538,2.1588 -4.68538,4.81273 0,2.65393 2.10175,4.81375 4.68538,4.81375 2.58312,0 4.68487,-2.15982 4.68487,-4.81375 0,-2.65393 -2.10175,-4.81273 -4.68487,-4.81273 z"
           fill="#ffffff"
           stroke-width="0"
           id="path52" />
        <path
           d="m 52.48409,307.68701 c 0,0.58376 -0.10341,1.09621 -0.30971,1.53632 -0.2063,0.44011 -0.50175,0.77937 -0.88634,1.01878 -0.38459,0.23941 -0.82521,0.35861 -1.32238,0.35861 -0.49156,0 -0.93066,-0.11818 -1.31627,-0.35454 -0.38561,-0.23636 -0.68462,-0.57357 -0.89653,-1.01267 -0.21191,-0.4391 -0.31939,-0.94339 -0.32194,-1.51391 v -0.29341 c 0,-0.58376 0.10544,-1.09825 0.31582,-1.54244 0.21038,-0.44419 0.50786,-0.78548 0.89245,-1.02286 0.38459,-0.23738 0.82369,-0.35657 1.31831,-0.35657 0.49462,0 0.93371,0.1192 1.31831,0.35657 0.3846,0.23737 0.68208,0.57867 0.89245,1.02286 0.21037,0.44419 0.31582,0.95664 0.31582,1.53836 v 0.26488 z m -1.23884,-0.26895 c 0,-0.62248 -0.11156,-1.09519 -0.33416,-1.41815 -0.2226,-0.32296 -0.54046,-0.48494 -0.95358,-0.48494 -0.41006,0 -0.7269,0.15995 -0.94951,0.47883 -0.22261,0.31888 -0.33569,0.78752 -0.33824,1.40388 v 0.28933 c 0,0.60618 0.11156,1.07583 0.33416,1.41 0.2226,0.33417 0.54352,0.50124 0.96173,0.50124 0.41006,0 0.72537,-0.16097 0.94543,-0.4829 0.22006,-0.32193 0.33161,-0.79159 0.33416,-1.40796 v -0.28933 z"
           fill="#ffffff"
           stroke-width="0"
           id="path54" />
      </g>
      <rect
         x="19.655849"
         y="299.44287"
         width="20.70039"
         height="11.82879"
         rx="1.41732"
         ry="1.41732"
         fill="#1d1d1b"
         stroke="#ffffff"
         stroke-miterlimit="10"
         stroke-width="0.5"
         id="rect58" />
      <g
         id="g64">
        <path
           d="m 10.06422,313.28503 c -3.08997,0 -5.60433,-2.57141 -5.60433,-5.73269 0,-3.16026 2.51436,-5.73167 5.60433,-5.73167 3.08997,0 5.60433,2.57141 5.60433,5.73167 0,3.16128 -2.51436,5.73269 -5.60433,5.73269 z m 0,-10.54543 c -2.58363,0 -4.68538,2.1588 -4.68538,4.81273 0,2.65393 2.10175,4.81375 4.68538,4.81375 2.58363,0 4.68538,-2.15982 4.68538,-4.81375 0,-2.65393 -2.10175,-4.81273 -4.68538,-4.81273 z"
           fill="#ffffff"
           stroke-width="0"
           id="path60" />
        <path
           d="M 10.67548,310.51923 H 9.45294 v -5.93339 h 1.22254 z"
           fill="#ffffff"
           stroke-width="0"
           id="path62" />
      </g>
      <g
         id="g70">
        <path
           d="m 53.63349,163.42487 c -1.03489,-1.03483 -2.41076,-1.60484 -3.8743,-1.60484 -1.46354,0 -2.83935,0.57001 -3.87424,1.60484 -2.00216,2.00229 -2.10277,5.16752 -0.35186,7.31728 l -1.84699,1.84718 -1.10245,-1.10232 -1.07673,4.01884 4.01923,-1.07634 -1.10245,-1.10258 1.8412,-1.84145 c 0.98313,0.82267 2.19707,1.29284 3.4943,1.29284 1.46355,0 2.83948,-0.57001 3.8743,-1.60509 1.03483,-1.03483 1.60471,-2.4107 1.60471,-3.87418 0,-1.46348 -0.56988,-2.83935 -1.60471,-3.87418 z m -0.73773,7.01075 c -0.86616,0.86622 -2.00134,1.29946 -3.13658,1.29946 -1.13518,0 -2.27042,-0.43324 -3.13658,-1.29946 -1.73225,-1.73219 -1.73225,-4.54072 0,-6.27316 0.86616,-0.86597 2.0014,-1.2992 3.13658,-1.2992 1.13524,0 2.27042,0.43324 3.13658,1.2992 1.73231,1.73244 1.73231,4.54097 0,6.27316 z"
           fill="#ffffff"
           stroke-width="0"
           id="path66" />
        <path
           d="m 51.06055,167.00041 -0.56842,0.56835 -2.32219,-2.32219 c -0.1411,-0.14097 -0.36937,-0.14097 -0.51047,0 -0.14104,0.1411 -0.14104,0.36944 0,0.51054 l 2.32225,2.32206 -0.56874,0.56874 c -0.08634,0.0863 -0.0468,0.23381 0.07112,0.26539 l 2.18312,0.58465 c 0.14779,0.0396 0.28297,-0.0956 0.24343,-0.24336 l -0.58478,-2.183 c -0.03158,-0.11792 -0.17905,-0.15753 -0.26533,-0.0712 z"
           fill="#ffffff"
           stroke-width="0"
           id="path68" />
      </g>
      <g
         id="g80">
        <path
           d="m 24.86409,206.76515 h -2.34728 v 2.4247 h -1.22254 v -5.93339 h 3.86323 v 0.99026 h -2.64069 v 1.53225 h 2.34728 z"
           fill="#ffffff"
           stroke-width="0"
           id="path72" />
        <path
           d="m 28.4339,207.96731 h -2.14352 l -0.40751,1.22254 H 24.5829 l 2.20872,-5.93339 h 1.13289 l 2.22095,5.93339 h -1.29997 z m -1.81343,-0.99025 h 1.48335 l -0.74575,-2.22095 z"
           fill="#ffffff"
           stroke-width="0"
           id="path74" />
        <path
           d="m 31.92221,208.20775 h 2.59586 v 0.98211 h -3.8184 v -5.93339 h 1.22254 v 4.95129 z"
           fill="#ffffff"
           stroke-width="0"
           id="path76" />
        <path
           d="m 36.44154,208.20775 h 2.59586 v 0.98211 H 35.219 v -5.93339 h 1.22254 v 4.95129 z"
           fill="#ffffff"
           stroke-width="0"
           id="path78" />
      </g>
      <g
         id="g86">
        <path
           d="m 53.4566,110.29253 c -1.03483,-1.03508 -2.41076,-1.60484 -3.87424,-1.60484 -1.46348,0 -2.83948,0.56975 -3.8743,1.60484 -2.00102,2.00089 -2.1027,5.16345 -0.35492,7.31346 l -1.85075,1.85075 -1.10239,-1.10232 -1.07666,4.0191 4.01916,-1.0766 -1.10251,-1.10258 1.84425,-1.84425 c 0.98376,0.82445 2.19917,1.29564 3.49812,1.29564 1.46348,0 2.83935,-0.57001 3.87424,-1.60484 2.1362,-2.13639 2.1362,-5.61222 0,-7.74835 z m -0.73766,7.01076 c -0.86616,0.86622 -2.0014,1.2992 -3.13658,1.2992 -1.13524,0 -2.27042,-0.43298 -3.13658,-1.2992 -1.73231,-1.73244 -1.73231,-4.54097 0,-6.27316 0.86616,-0.86622 2.00134,-1.2992 3.13658,-1.2992 1.13518,0 2.27042,0.43298 3.13658,1.2992 1.73225,1.73219 1.73225,4.54072 0,6.27316 z"
           fill="#ffffff"
           stroke-width="0"
           id="path82" />
        <path
           d="m 51.49035,112.01529 -2.18312,0.58465 c -0.11792,0.0316 -0.1574,0.17905 -0.07112,0.26527 l 0.56874,0.56874 -2.32219,2.32232 c -0.1411,0.1411 -0.1411,0.36931 0,0.51041 0.14104,0.1411 0.36931,0.1411 0.51041,0 l 2.32219,-2.32232 0.56842,0.56848 c 0.08634,0.0863 0.23375,0.0469 0.26533,-0.0711 l 0.58478,-2.183 c 0.03961,-0.14772 -0.09564,-0.28297 -0.24343,-0.24349 z"
           fill="#ffffff"
           stroke-width="0"
           id="path84" />
      </g>
      <g
         id="g96">
        <path
           d="m 23.92069,153.8516 h -0.97396 v 2.17205 h -1.22254 v -5.93339 h 2.20465 c 0.70092,0 1.2419,0.15587 1.6219,0.46864 0.38,0.31277 0.57052,0.7539 0.57052,1.32442 0,0.40446 -0.08762,0.74269 -0.26285,1.01267 -0.17523,0.26998 -0.44113,0.48596 -0.79669,0.64591 l 1.28367,2.4247 v 0.0571 H 25.0332 Z m -0.97395,-0.99026 h 0.98618 c 0.30665,0 0.54505,-0.0785 0.71315,-0.23432 0.1681,-0.15587 0.25266,-0.37186 0.25266,-0.64591 0,-0.28017 -0.07947,-0.50022 -0.2384,-0.66017 -0.15893,-0.15995 -0.40242,-0.24043 -0.73149,-0.24043 h -0.98211 v 1.78083 z"
           fill="#ffffff"
           stroke-width="0"
           id="path88" />
        <path
           d="m 28.35036,156.02364 h -1.22254 v -5.93339 h 1.22254 z"
           fill="#ffffff"
           stroke-width="0"
           id="path90" />
        <path
           d="m 32.55997,154.46694 c 0,-0.23126 -0.0815,-0.40853 -0.24451,-0.5318 -0.16301,-0.12327 -0.45641,-0.25368 -0.88023,-0.39121 -0.42382,-0.13753 -0.75899,-0.27202 -1.00656,-0.40548 -0.67342,-0.36371 -1.01063,-0.85476 -1.01063,-1.47112 0,-0.32092 0.09067,-0.60618 0.271,-0.85782 0.18033,-0.25164 0.44011,-0.44725 0.77835,-0.58886 0.33824,-0.14161 0.71824,-0.21191 1.139,-0.21191 0.42381,0 0.80178,0.0764 1.13289,0.23024 0.33111,0.15383 0.58886,0.36982 0.77224,0.64998 0.18338,0.28016 0.27507,0.59803 0.27507,0.95358 h -1.22254 c 0,-0.27202 -0.08558,-0.4829 -0.25673,-0.63368 -0.17115,-0.15078 -0.41159,-0.22617 -0.7213,-0.22617 -0.2985,0 -0.53079,0.0632 -0.69685,0.18949 -0.16606,0.12633 -0.24858,0.29239 -0.24858,0.4992 0,0.19255 0.09678,0.35454 0.29137,0.48494 0.19459,0.1304 0.47985,0.25266 0.85782,0.36676 0.69583,0.20885 1.20216,0.46864 1.52002,0.77835 0.31786,0.30971 0.47679,0.69583 0.47679,1.15734 0,0.51347 -0.19459,0.91589 -0.58274,1.20828 -0.38815,0.29239 -0.91181,0.43808 -1.56893,0.43808 -0.45641,0 -0.87208,-0.0835 -1.24699,-0.25062 -0.37491,-0.16708 -0.66119,-0.39631 -0.85782,-0.68666 -0.19663,-0.29035 -0.29545,-0.62757 -0.29545,-1.01063 h 1.22661 c 0,0.65508 0.39121,0.98211 1.17364,0.98211 0.29035,0 0.51754,-0.0591 0.68055,-0.17727 0.16301,-0.11818 0.24451,-0.28322 0.24451,-0.49513 z"
           fill="#ffffff"
           stroke-width="0"
           id="path92" />
        <path
           d="m 38.18365,153.45223 h -2.34728 v 1.5893 h 2.75479 v 0.98211 h -3.97733 v -5.93339 h 3.96918 v 0.99026 h -2.74664 v 1.41407 h 2.34728 v 0.95766 z"
           fill="#ffffff"
           stroke-width="0"
           id="path94" />
      </g>
      <g
         id="g102">
        <rect
           x="14.52477"
           y="63.236858"
           width="1.04312"
           height="4.2016702"
           transform="rotate(-45.00491,15.046327,65.337699)"
           fill="#ffffff"
           stroke-width="0"
           id="rect98" />
        <polygon
           points="17.57272,64.92177 14.63022,67.86427 18.64925,68.94087 "
           fill="#ffffff"
           stroke-width="0"
           id="polygon100" />
      </g>
      <g
         id="g108">
        <rect
           x="42.84795"
           y="64.821732"
           width="4.2023902"
           height="1.04312"
           transform="rotate(-45,44.94914,65.343297)"
           fill="#ffffff"
           stroke-width="0"
           id="rect104" />
        <polygon
           points="45.36531,67.86988 42.42281,64.92738 41.34615,68.94648 "
           fill="#ffffff"
           stroke-width="0"
           id="polygon106" />
      </g>
      <g
         id="g114">
        <path
           d="m 49.57785,56.27281 c 1.13518,0 2.27042,0.43324 3.13658,1.29946 1.73225,1.73219 1.73225,4.54072 0,6.27316 -0.86616,0.86597 -2.0014,1.2992 -3.13658,1.2992 -1.13524,0 -2.27042,-0.43324 -3.13658,-1.2992 -1.73231,-1.73244 -1.73231,-4.54097 0,-6.27316 0.86616,-0.86622 2.00134,-1.29946 3.13658,-1.29946 m 0,-1.04323 c -1.46355,0 -2.83948,0.57001 -3.8743,1.60509 -1.03483,1.03483 -1.60471,2.4107 -1.60471,3.87418 0,1.46348 0.56988,2.83935 1.60471,3.87418 1.03489,1.03483 2.41076,1.60484 3.8743,1.60484 1.46354,0 2.83935,-0.57001 3.87424,-1.60484 2.1362,-2.13639 2.1362,-5.61222 0,-7.74835 -1.03483,-1.03508 -2.41076,-1.60509 -3.87424,-1.60509 v 0 z"
           fill="#ffffff"
           stroke-width="0"
           id="path110" />
        <path
           d="m 51.32392,62.94763 c -0.13295,0 -0.2659,-0.05094 -0.36778,-0.1518 l -3.48322,-3.45979 c -0.20427,-0.20274 -0.20528,-0.53282 -0.0025,-0.7376 0.20478,-0.20478 0.53435,-0.20376 0.73811,-0.002 l 3.48322,3.45979 c 0.20427,0.20274 0.20528,0.53282 0.0025,0.7376 -0.10239,0.1029 -0.23636,0.15384 -0.37033,0.15384 z"
           fill="#ffffff"
           stroke-width="0"
           id="path112" />
      </g>
      <g
         id="g120">
        <path
           d="m 10.39488,56.29777 c 1.13518,0 2.27042,0.43324 3.13658,1.29946 1.73225,1.73219 1.73225,4.54072 0,6.27316 -0.86616,0.86597 -2.0014,1.2992 -3.13658,1.2992 -1.13524,0 -2.27042,-0.43324 -3.13658,-1.2992 -1.73231,-1.73244 -1.73231,-4.54097 0,-6.27316 0.86616,-0.86622 2.00134,-1.29946 3.13658,-1.29946 m 0,-1.04323 c -1.46355,0 -2.83948,0.57001 -3.8743,1.60509 -1.03483,1.03483 -1.60471,2.4107 -1.60471,3.87418 0,1.46348 0.56988,2.83935 1.60471,3.87418 1.03489,1.03483 2.41076,1.60484 3.8743,1.60484 1.46354,0 2.83935,-0.57001 3.87424,-1.60484 2.1362,-2.13639 2.1362,-5.61222 0,-7.74835 -1.03483,-1.03508 -2.41076,-1.60509 -3.87424,-1.60509 v 0 z"
           fill="#ffffff"
           stroke-width="0"
           id="path116" />
        <path
           d="m 8.64914,62.97208 c -0.04737,0 -0.09627,-0.0061 -0.14416,-0.02038 C 8.22787,62.87223 8.06843,62.5829 8.1479,62.30579 l 0.08711,-0.30258 c 0.51499,-1.78898 1.96727,-3.13887 3.78987,-3.52193 0.28067,-0.06011 0.5588,0.12022 0.61789,0.40344 0.05909,0.28118 -0.12124,0.55829 -0.40293,0.61738 -1.44362,0.3036 -2.59433,1.3723 -3.00235,2.79045 l -0.08711,0.30258 c -0.06571,0.22821 -0.27456,0.37695 -0.50124,0.37695 z"
           fill="#ffffff"
           stroke-width="0"
           id="path118" />
      </g>
      <g
         id="g132">
        <path
           d="m 21.99672,100.78115 c -0.04585,0.63878 -0.2822,1.14104 -0.70704,1.5078 -0.42484,0.36676 -0.98516,0.55014 -1.68099,0.55014 -0.76103,0 -1.35906,-0.25571 -1.7951,-0.76816 -0.43604,-0.51245 -0.65406,-1.21541 -0.65406,-2.10888 v -0.36269 c 0,-0.57052 0.10086,-1.07278 0.30156,-1.5078 0.2007,-0.43502 0.488,-0.76816 0.86189,-1.00044 0.37389,-0.23228 0.80789,-0.34842 1.302,-0.34842 0.68462,0 1.23578,0.18338 1.6545,0.55014 0.41872,0.36676 0.66017,0.88125 0.72537,1.54448 h -1.22254 c -0.02954,-0.38306 -0.13652,-0.66119 -0.3199,-0.83336 -0.18338,-0.17217 -0.46253,-0.25877 -0.83744,-0.25877 -0.40751,0 -0.71213,0.14569 -0.91487,0.43808 -0.20274,0.29239 -0.30665,0.74473 -0.31175,1.35906 v 0.44826 c 0,0.64081 0.09678,1.10945 0.29137,1.40592 0.19459,0.29647 0.50022,0.44419 0.91894,0.44419 0.37797,0 0.65915,-0.0866 0.84559,-0.25877 0.18644,-0.17217 0.29239,-0.4391 0.3199,-0.80076 h 1.22254 z"
           fill="#ffffff"
           stroke-width="0"
           id="path122" />
        <path
           d="m 27.29032,96.8242 v 3.90805 c 0,0.64896 -0.20274,1.16243 -0.60923,1.5404 -0.40649,0.37797 -0.96071,0.56644 -1.66469,0.56644 -0.69277,0 -1.24292,-0.18338 -1.65043,-0.55014 -0.40751,-0.36676 -0.61534,-0.87106 -0.6235,-1.51187 V 96.8242 h 1.22254 v 3.9162 c 0,0.38816 0.09271,0.67138 0.27915,0.84967 0.18644,0.17829 0.44317,0.26692 0.77224,0.26692 0.68768,0 1.0361,-0.36167 1.04731,-1.08399 v -3.9488 z"
           fill="#ffffff"
           stroke-width="0"
           id="path124" />
        <path
           d="m 30.4893,100.58555 h -0.97396 v 2.17205 H 28.2928 v -5.93339 h 2.20465 c 0.70092,0 1.2419,0.15587 1.6219,0.46864 0.38,0.31277 0.57052,0.7539 0.57052,1.32442 0,0.40446 -0.08762,0.74269 -0.26285,1.01267 -0.17523,0.26998 -0.44113,0.48596 -0.79669,0.64591 l 1.28367,2.4247 v 0.057 h -1.31219 z m -0.97396,-0.99026 h 0.98618 c 0.30665,0 0.54505,-0.07845 0.71315,-0.23432 0.1681,-0.15587 0.25266,-0.37186 0.25266,-0.64591 0,-0.28017 -0.07947,-0.50022 -0.2384,-0.66017 C 31.07,97.89494 30.82651,97.81446 30.49744,97.81446 h -0.98211 v 1.78083 z"
           fill="#ffffff"
           stroke-width="0"
           id="path126" />
        <path
           d="m 35.73399,101.28647 1.34479,-4.46227 h 1.36109 l -2.06609,5.93339 H 35.09826 L 33.04032,96.8242 h 1.35702 l 1.33664,4.46227 z"
           fill="#ffffff"
           stroke-width="0"
           id="path128" />
        <path
           d="m 42.56799,100.18618 h -2.34728 v 1.5893 h 2.75479 v 0.98211 H 38.99817 V 96.8242 h 3.96918 v 0.99026 h -2.74664 v 1.41407 h 2.34728 v 0.95766 z"
           fill="#ffffff"
           stroke-width="0"
           id="path130" />
      </g>
      <g
         id="g138">
        <polygon
           points="16.74693,147.8092 3.88225,160.67439 3.88225,269.37038 7.07789,272.64345 6.33825,273.37901 2.83902,269.80031 2.83902,160.24242 16.00933,147.0716 "
           fill="#ffffff"
           stroke-width="0"
           id="polygon134" />
        <polygon
           points="14.47664,146.39945 17.41914,149.34195 18.4958,145.32286 "
           fill="#ffffff"
           stroke-width="0"
           id="polygon136" />
      </g>
      <g
         id="g144">
        <polygon
           points="43.2358,201.02838 43.9734,200.29078 57.12283,213.44123 57.12283,269.8757 53.33402,273.61867 52.59744,272.87903 56.0796,269.4417 56.0796,213.8732 "
           fill="#ffffff"
           stroke-width="0"
           id="polygon140" />
        <polygon
           points="42.56378,202.5614 45.50629,199.6189 41.48725,198.54204 "
           fill="#ffffff"
           stroke-width="0"
           id="polygon142" />
      </g>
      <path
         d="m 44.77279,317.89865 c -7.34944,0 -13.30741,5.95784 -13.30741,13.30734 0,7.3495 5.95797,13.30734 13.30741,13.30734 7.34944,0 13.30741,-5.95784 13.30741,-13.30734 0,-7.3495 -5.95791,-13.30734 -13.30741,-13.30734 z m 0,25.05417 c -6.48761,0 -11.74682,-5.25921 -11.74682,-11.74682 0,-6.48761 5.25921,-11.74682 11.74682,-11.74682 6.48761,0 11.74689,5.25921 11.74689,11.74682 0,6.48761 -5.25928,11.74682 -11.74689,11.74682 z"
         fill="#ffffff"
         stroke-width="0"
         id="path146" />
      <path
         d="m 15.6604,319.45917 h -0.91894 l 0.0076,-0.55454 c 0,-0.42687 -0.26998,-0.81299 -0.67189,-0.95867 l -3.19541,-1.15938 c -0.76358,-0.27711 -1.27704,-1.0086 -1.27704,-1.82158 v -2.24132 h 0.91894 v 2.24132 c 0,0.42687 0.26998,0.81197 0.67138,0.95766 l 3.19592,1.15938 c 0.76358,0.27813 1.27704,1.01063 1.27704,1.8226 l -0.0076,0.55454 z"
         fill="#ffffff"
         stroke-width="0"
         id="path148" />
      <path
         d="m 44.40638,319.17616 -0.0076,-0.16965 c -5.1e-4,-0.81299 0.51296,-1.54549 1.27755,-1.8226 l 3.1949,-1.15938 c 0.40191,-0.14569 0.67189,-0.53079 0.67189,-0.95766 v -2.24132 h 0.91894 v 2.24132 c 0,0.81299 -0.51347,1.54448 -1.27755,1.82158 l -3.1949,1.15938 c -0.40242,0.14569 -0.6724,0.53079 -0.67189,0.95867 l 0.0076,0.16965 h -0.91894 z"
         fill="#ffffff"
         stroke-width="0"
         id="path150" />
      <g
         id="g156">
        <path
           d="m 15.17794,219.29185 c 2.44979,0 4.43578,1.98586 4.43578,4.43578 0,2.44992 -1.98599,4.43578 -4.43578,4.43578 -2.44979,0 -4.43584,-1.98586 -4.43584,-4.43578 0,-2.44992 1.98599,-4.43578 4.43584,-4.43578 m 0,-1.04323 c -3.0212,0 -5.47908,2.45781 -5.47908,5.47902 0,3.02121 2.45788,5.47902 5.47908,5.47902 3.0212,0 5.47902,-2.45781 5.47902,-5.47902 0,-3.02121 -2.45788,-5.47902 -5.47902,-5.47902 z"
           fill="#ffffff"
           stroke-width="0"
           id="path152" />
        <path
           d="m 18.04826,223.55561 -1.95709,-1.13028 c -0.10574,-0.0611 -0.23791,0.0152 -0.23791,0.13733 v 0.80428 h -3.28411 c -0.1995,0 -0.36093,0.16143 -0.36093,0.36093 0,0.1995 0.16143,0.36093 0.36093,0.36093 h 3.28411 v 0.80384 c 0,0.12209 0.13217,0.19839 0.23791,0.13733 l 1.95708,-1.13011 c 0.13249,-0.0765 0.1325,-0.26774 10e-6,-0.34425 z"
           fill="#ffffff"
           stroke-width="0"
           id="path154" />
      </g>
      <g
         id="g162">
        <path
           d="m 15.2008,251.90029 c 2.44985,0 4.43578,1.98586 4.43578,4.43578 0,2.44966 -1.98593,4.43578 -4.43578,4.43578 -2.44985,0 -4.43578,-1.98612 -4.43578,-4.43578 0,-2.44992 1.98599,-4.43578 4.43578,-4.43578 m 0,-1.04323 c -3.02114,0 -5.47902,2.45781 -5.47902,5.47902 0,3.02121 2.45788,5.47902 5.47902,5.47902 3.02114,0 5.47902,-2.45781 5.47902,-5.47902 0,-3.02121 -2.45788,-5.47902 -5.47902,-5.47902 z"
           fill="#ffffff"
           stroke-width="0"
           id="path158" />
        <path
           d="m 17.27326,258.01214 c 0.37501,-0.46311 0.58926,-1.02693 0.58926,-1.62766 0,-1.44749 -1.19381,-2.6254 -2.66147,-2.6254 -1.46766,0 -2.66147,1.17792 -2.66147,2.6254 0,0.17299 0.13998,0.31297 0.31297,0.31297 0.17299,0 0.31297,-0.13998 0.31297,-0.31297 0,-1.10273 0.91324,-1.99946 2.03553,-1.99946 1.12229,0 2.03553,0.89673 2.03553,1.99946 0,0.35377 -0.10101,0.69035 -0.27629,0.9898 l -0.27171,-0.55412 c -0.04294,-0.0876 -0.16443,-0.0957 -0.21868,-0.0148 l -1.09943,1.63801 c -0.07542,0.11237 -9.3e-4,0.26425 0.13409,0.27339 l 1.96827,0.13337 c 0.09719,0.007 0.16504,-0.0945 0.1221,-0.18193 l -0.32168,-0.65605 z"
           fill="#ffffff"
           stroke-width="0"
           id="path160" />
      </g>
      <g
         id="g172">
        <path
           d="m 44.77263,219.29185 c 2.44979,0 4.43578,1.98586 4.43578,4.43578 0,2.44992 -1.98599,4.43578 -4.43578,4.43578 -2.44979,0 -4.43584,-1.98586 -4.43584,-4.43578 0,-2.44992 1.98599,-4.43578 4.43584,-4.43578 m 0,-1.04323 c -3.0212,0 -5.47908,2.45781 -5.47908,5.47902 0,3.02121 2.45788,5.47902 5.47908,5.47902 3.0212,0 5.47902,-2.45781 5.47902,-5.47902 0,-3.02121 -2.45788,-5.47902 -5.47902,-5.47902 z"
           fill="#ffffff"
           stroke-width="0"
           id="path164" />
        <g
           id="g170">
          <path
             d="m 44.36494,223.49099 -1.84168,-1.06329 c -0.18218,-0.10518 -0.4099,0.0263 -0.4099,0.23666 v 2.12659 c 0,0.21036 0.22772,0.34184 0.4099,0.23666 l 1.84168,-1.06329 c 0.18218,-0.10518 0.18218,-0.36813 0,-0.47331 z"
             fill="#ffffff"
             stroke-width="0"
             id="path166" />
          <path
             d="m 47.193,223.49099 -1.84168,-1.06329 c -0.18218,-0.10518 -0.4099,0.0263 -0.4099,0.23666 v 2.12659 c 0,0.21036 0.22772,0.34184 0.4099,0.23666 l 1.84168,-1.06329 c 0.18218,-0.10518 0.18218,-0.36813 0,-0.47331 z"
             fill="#ffffff"
             stroke-width="0"
             id="path168" />
        </g>
      </g>
      <g
         id="g178">
        <path
           d="m 44.72711,251.90029 c 2.44979,0 4.43578,1.98586 4.43578,4.43578 0,2.44966 -1.98599,4.43578 -4.43578,4.43578 -2.44979,0 -4.43578,-1.98612 -4.43578,-4.43578 0,-2.44992 1.98593,-4.43578 4.43578,-4.43578 m 0,-1.04323 c -3.02114,0 -5.47902,2.45781 -5.47902,5.47902 0,3.02121 2.45788,5.47902 5.47902,5.47902 3.02114,0 5.47902,-2.45781 5.47902,-5.47902 0,-3.02121 -2.45788,-5.47902 -5.47902,-5.47902 z"
           fill="#ffffff"
           stroke-width="0"
           id="path174" />
        <path
           d="m 45.71921,256.08895 -1.80565,-1.04249 c -0.19018,-0.1098 -0.42791,0.0275 -0.42791,0.24706 v 2.08499 c 0,0.21961 0.23773,0.35686 0.42791,0.24706 l 1.80565,-1.04249 c 0.19018,-0.1098 0.19018,-0.38431 0,-0.49411 z"
           fill="#ffffff"
           stroke-width="0"
           id="path176" />
      </g>
    </g>
  </g>
  <g
     inkscape:label="components"
     inkscape:groupmode="layer"
     id="layer1"
     style="display:none">
    <circle
       cx="5.0721536"
       cy="95.296364"
       fill="#00ff00"
       stroke-width="0"
       id="circle181"
       r="1.690792"
       style="display:inline"
       inkscape:label="rise" />
    <circle
       cx="15.123514"
       cy="95.296364"
       fill="#00ff00"
       stroke-width="0"
       id="circle183"
       r="1.690792"
       style="display:inline"
       inkscape:label="fall" />
    <circle
       cx="5.0721536"
       cy="112.02129"
       fill="#00ff00"
       stroke-width="0"
       id="circle185"
       r="1.690792"
       style="display:inline"
       inkscape:label="in" />
    <circle
       cx="15.123514"
       cy="112.02129"
       fill="#0000ff"
       stroke-width="0"
       id="circle187"
       r="1.690792"
       style="display:inline"
       inkscape:label="out" />
    <circle
       cx="16.897104"
       cy="104.00285"
       fill="#ff00ff"
       stroke-width="0"
       id="circle189"
       r="1.5807484"
       style="display:inline"
       inkscape:label="out" />
    <circle
       cx="3.4032996"
       cy="104.00285"
       fill="#ff00ff"
       stroke-width="0"
       id="circle191"
       r="1.5807484"
       style="display:inline"
       inkscape:label="in" />
    <circle
       cx="10.140196"
       cy="27.257166"
       fill="#ff0000"
       stroke-width="0"
       id="circle193"
       r="1.690792"
       style="display:inline"
       inkscape:label="curve" />
    <circle
       cx="10.140196"
       cy="63.247448"
       fill="#ff0000"
       stroke-width="0"
       id="circle195"
       r="1.690792"
       style="display:inline"
       inkscape:label="fall" />
    <circle
       cx="10.140196"
       cy="45.257191"
       fill="#ff0000"
       stroke-width="0"
       id="circle197"
       r="1.690792"
       style="display:inline"
       inkscape:label="rise" />
    <circle
       cx="5.1325479"
       cy="80.943954"
       fill="#ff0000"
       stroke-width="0"
       id="circle199"
       r="1.690792"
       style="display:inline"
       inkscape:label="mode" />
    <circle
       cx="15.197317"
       cy="80.943954"
       fill="#ff0000"
       stroke-width="0"
       id="circle201"
       r="1.690792"
       style="display:inline"
       inkscape:label="rate" />
    <circle
       cx="10.146799"
       cy="103.25912"
       fill="#ff0000"
       stroke-width="0"
       id="circle203"
       r="1.690792"
       style="display:inline"
       inkscape:label="capacitor" />
  </g>
</svg>
